<?xml version="1.0" standalone="no"?>
<!DOCTYPE svg PUBLIC "-//W3C//DTD SVG 20010904//EN"
 "http://www.w3.org/TR/2001/REC-SVG-20010904/DTD/svg10.dtd">
<svg version="1.0" xmlns="http://www.w3.org/2000/svg"
 width="3544.320442pt" height="1448.472912pt" viewBox="0 0 3544.320442 1448.472912"
 preserveAspectRatio="xMidYMid meet">
<metadata>
Created by potrace 1.13, written by Peter Selinger 2001-2015
</metadata>
<g transform="translate(-90.000000,1510.373302) scale(0.100000,-0.100000)"
fill="#000000" stroke="none">
<path d="M30410 15092 c-17 -14 -24 -38 -36 -132 -8 -63 -14 -144 -12 -180 3
-62 4 -65 28 -65 22 0 25 5 26 35 1 19 7 48 13 63 6 16 11 39 11 51 0 13 12
59 26 102 28 87 26 115 -10 132 -20 9 -29 8 -46 -6z"/>
<path d="M28548 15006 c-25 -24 -10 -64 33 -92 28 -17 39 -31 39 -49 0 -13 4
-26 9 -29 12 -8 61 -113 61 -131 0 -22 36 -38 60 -25 44 24 33 99 -25 180 -18
25 -39 61 -48 80 -8 19 -23 43 -34 52 -29 26 -76 33 -95 14z"/>
<path d="M19265 14894 c-16 -2 -61 -11 -100 -19 -38 -8 -140 -21 -225 -28
-158 -13 -231 -10 -490 23 -105 13 -248 9 -325 -10 -72 -18 -336 -18 -413 -1
-66 15 -150 6 -247 -24 -22 -7 -74 -16 -115 -20 -41 -4 -107 -13 -146 -20 -60
-11 -83 -11 -140 0 -94 18 -451 26 -465 9 -15 -19 -69 -171 -85 -243 -49 -221
-85 -549 -85 -766 1 -382 -7 -713 -17 -736 -6 -15 -8 -30 -5 -33 3 -3 7 -99 9
-213 2 -115 8 -271 14 -348 6 -77 13 -183 15 -235 7 -161 15 -250 25 -276 6
-14 10 -42 10 -62 0 -20 11 -82 25 -137 13 -55 25 -119 25 -142 0 -65 23 -75
152 -69 73 4 119 11 151 25 25 11 63 23 84 27 21 4 49 14 62 23 14 9 51 16 88
18 35 1 80 7 101 13 20 5 53 10 73 10 53 0 132 26 244 81 72 35 112 49 140 48
22 0 93 2 159 5 156 9 167 -1 187 -165 6 -52 17 -110 24 -129 26 -69 49 -232
61 -423 7 -103 8 -109 33 -121 45 -23 78 -27 90 -12 9 11 9 19 0 34 -11 17 -6
32 31 103 24 46 58 107 75 134 18 28 50 84 72 125 21 41 60 104 87 140 26 36
59 89 73 118 42 87 100 121 208 122 28 1 77 8 110 16 33 9 84 20 114 25 29 5
62 14 72 20 35 18 214 53 269 52 161 -3 206 -1 258 13 88 25 294 45 447 44 59
0 96 4 107 12 13 10 19 43 28 139 6 70 16 142 22 160 24 76 35 304 30 614 -5
297 6 567 29 740 5 39 13 131 19 205 16 225 29 336 44 381 21 61 52 563 37
596 -13 29 -70 54 -198 87 -106 27 -120 29 -353 52 -157 15 -440 26 -495 18z
m370 -90 c171 -7 265 -21 414 -60 108 -28 117 -33 151 -68 24 -26 24 -30 22
-164 -5 -242 -9 -306 -22 -352 -20 -71 -30 -151 -45 -355 -8 -104 -19 -203
-25 -220 -17 -53 -31 -479 -28 -845 2 -244 -1 -377 -10 -425 -6 -38 -18 -115
-26 -170 -27 -185 -21 -174 -121 -201 -39 -10 -84 -12 -163 -7 -92 5 -114 3
-146 -12 -21 -10 -56 -19 -79 -21 -23 -1 -127 -8 -232 -14 -132 -8 -207 -18
-247 -31 -75 -25 -205 -39 -366 -39 l-134 0 -26 -29 c-15 -15 -40 -49 -57 -76
-100 -158 -178 -285 -195 -320 -62 -122 -127 -220 -145 -220 -15 0 -19 6 -17
22 2 12 -3 33 -10 45 -12 22 -21 86 -32 235 -3 34 -11 73 -17 85 -7 13 -16 46
-20 73 -19 140 -39 231 -54 241 -32 23 -120 25 -211 3 -48 -11 -131 -24 -185
-28 -91 -7 -102 -11 -163 -49 -36 -22 -82 -46 -103 -52 -125 -38 -172 -49
-208 -50 -22 0 -56 -5 -75 -10 -19 -6 -69 -15 -110 -20 -41 -5 -104 -21 -140
-35 -52 -22 -76 -26 -127 -23 -77 5 -100 23 -109 87 -3 25 -12 78 -20 116 -21
100 -45 302 -50 425 -8 152 -13 255 -18 335 -9 158 -4 961 8 1340 5 170 15
255 51 430 3 17 13 64 21 105 21 101 73 228 102 248 20 13 74 15 375 16 258 1
358 5 374 14 12 6 35 12 51 12 17 0 58 9 91 19 53 16 75 18 159 10 160 -14
408 -11 491 6 61 13 88 14 160 4 114 -15 665 -15 756 0 39 6 124 16 189 21 66
6 122 12 125 16 3 3 28 2 56 -2 27 -4 91 -8 140 -10z"/>
<path d="M19570 14311 c-61 -9 -70 -16 -70 -56 0 -45 20 -55 112 -55 46 0 81
-5 92 -13 18 -13 17 -17 -17 -93 -68 -151 -69 -192 -10 -215 29 -11 188 -2
216 13 23 12 22 33 -3 58 -16 16 -28 19 -65 14 -32 -5 -51 -2 -69 10 -24 15
-25 17 -11 57 8 22 30 66 49 97 48 80 52 107 22 137 -13 13 -37 27 -53 30 -15
3 -47 10 -71 15 -45 11 -53 11 -122 1z"/>
<path d="M18650 13924 c-20 -9 -48 -13 -65 -10 -21 4 -44 -2 -77 -19 -46 -24
-54 -25 -185 -21 -76 2 -176 -1 -223 -6 -47 -5 -143 -13 -215 -18 -71 -5 -166
-16 -210 -24 -44 -9 -97 -16 -117 -16 -51 0 -94 -37 -84 -73 9 -39 42 -42 128
-13 84 29 236 43 497 46 13 0 46 7 73 15 50 15 234 13 250 -3 21 -21 -82 -167
-221 -310 -45 -48 -90 -98 -99 -112 -9 -14 -44 -58 -77 -98 -33 -40 -99 -128
-147 -195 -47 -67 -106 -144 -131 -172 -76 -84 -128 -154 -236 -319 -8 -11
-33 -51 -57 -87 -24 -36 -44 -73 -44 -82 0 -37 76 -48 152 -23 24 8 68 15 98
15 195 3 321 16 426 47 37 10 71 14 103 9 27 -4 66 -2 88 4 22 6 52 7 69 3 16
-4 67 -5 114 -2 69 4 85 8 88 22 5 26 -36 61 -61 53 -12 -3 -103 -13 -202 -21
-99 -7 -247 -21 -330 -29 -250 -26 -357 -29 -379 -12 -18 13 -18 16 20 78 43
70 109 164 155 219 88 104 113 137 125 166 7 17 20 37 30 45 17 14 87 103 182
232 29 40 88 110 131 157 118 130 205 232 226 265 11 17 44 58 74 93 42 49 73
72 142 108 95 49 110 71 64 92 -32 15 -32 15 -75 -4z"/>
<path d="M19330 13879 c-14 -6 -50 -8 -80 -5 -70 8 -163 -26 -168 -61 -6 -43
69 -67 133 -43 26 10 65 -1 65 -18 0 -10 -73 -111 -99 -137 -11 -12 -25 -34
-33 -50 -7 -17 -28 -52 -45 -78 -58 -87 -39 -174 32 -147 14 5 44 10 66 10 22
0 56 7 76 15 43 18 126 19 188 3 40 -11 47 -10 62 5 16 16 16 20 3 45 -16 27
-17 27 -115 26 -55 0 -126 -4 -157 -8 -75 -11 -96 2 -69 42 10 15 34 53 55 84
21 31 65 88 98 125 60 68 98 129 98 157 0 39 -55 57 -110 35z"/>
<path d="M14275 14426 c-33 -33 -32 -65 5 -120 25 -37 29 -51 25 -83 -8 -49
24 -147 50 -152 17 -3 18 3 10 85 -4 49 -9 107 -10 129 -11 150 -32 189 -80
141z"/>
<path d="M31354 14388 c-27 -18 -76 -46 -109 -63 -61 -31 -77 -54 -55 -80 18
-22 80 -18 121 8 144 88 175 121 149 152 -19 23 -52 18 -106 -17z"/>
<path d="M29475 14276 c-99 -33 -258 -122 -370 -208 -94 -72 -119 -99 -182
-193 -25 -38 -54 -82 -64 -97 -50 -73 -61 -125 -65 -302 -2 -131 0 -177 12
-204 8 -19 14 -59 14 -89 0 -42 8 -70 38 -130 37 -76 44 -84 249 -282 86 -83
133 -159 133 -216 0 -23 -7 -68 -16 -100 -9 -33 -18 -78 -20 -100 -6 -81 -25
-211 -34 -239 -6 -16 -10 -42 -10 -57 0 -20 -10 -35 -35 -55 -19 -14 -35 -32
-35 -39 0 -7 16 -25 36 -40 34 -26 36 -30 29 -69 -4 -22 -8 -57 -10 -76 -1
-19 -10 -78 -20 -130 -9 -52 -20 -117 -25 -145 -11 -68 -23 -96 -54 -124 -32
-30 -32 -38 -5 -67 16 -17 22 -37 23 -73 2 -41 8 -57 30 -80 37 -39 85 -61
129 -61 40 0 53 -13 48 -52 -6 -61 57 -118 114 -104 23 6 25 11 25 65 0 84 12
92 135 89 91 -2 99 0 116 21 11 13 19 32 19 42 0 11 6 45 14 77 13 51 22 122
45 339 4 36 13 69 24 80 22 25 22 32 -4 59 -21 22 -21 27 -10 106 7 46 13 112
15 147 3 72 -10 95 -61 107 -30 8 -328 -13 -373 -26 -15 -4 -34 -4 -41 1 -24
15 -27 210 -5 294 7 28 19 83 26 122 14 79 15 75 -47 213 -30 68 -100 146
-173 193 -79 51 -122 101 -172 197 l-43 85 0 240 0 240 27 51 c52 99 108 172
185 243 100 93 281 205 387 242 76 26 91 28 202 24 65 -2 148 -9 184 -15 109
-19 259 -71 304 -104 85 -66 163 -184 262 -401 45 -99 61 -173 63 -284 1 -101
-12 -145 -67 -226 -96 -142 -322 -395 -452 -504 -47 -39 -113 -96 -147 -127
-34 -30 -86 -65 -115 -78 -30 -13 -59 -30 -64 -37 -15 -19 -33 -120 -36 -199
-3 -63 -2 -65 22 -65 24 0 25 4 31 70 9 100 19 117 91 161 35 21 88 61 119 89
31 27 91 79 134 115 42 36 83 72 91 80 7 8 43 47 80 85 37 39 83 90 102 115
20 25 55 65 78 90 66 71 163 204 185 254 36 83 41 208 11 356 -14 74 -146 357
-199 428 -93 124 -208 196 -378 238 -183 44 -428 64 -500 40z m184 -2295 c8
-5 11 -16 6 -30 -3 -12 -1 -37 5 -57 15 -45 5 -119 -20 -144 -29 -29 -84 -40
-240 -49 -186 -11 -187 -10 -170 105 7 44 14 89 16 101 7 35 52 51 165 59 57
4 115 11 129 15 35 10 92 10 109 0z m5 -354 c16 -12 17 -19 8 -48 -6 -19 -13
-55 -17 -80 -9 -66 -21 -78 -100 -94 -103 -20 -361 -27 -375 -10 -19 23 13
181 40 195 10 6 61 10 112 10 75 1 159 11 309 39 3 1 13 -5 23 -12z m-41 -318
c15 -23 -10 -79 -34 -79 -11 0 -29 -10 -41 -22 -20 -20 -29 -21 -187 -19 -182
3 -205 10 -199 60 4 34 36 40 215 47 92 3 153 10 175 19 39 17 57 16 71 -6z"/>
<path d="M27416 14034 c-22 -21 -20 -31 9 -58 44 -41 228 -71 339 -55 82 11
166 51 166 79 0 33 -32 42 -82 24 -69 -26 -267 -23 -338 4 -66 26 -74 27 -94
6z"/>
<path d="M14356 14025 c-3 -9 1 -18 10 -22 19 -7 28 2 21 22 -8 19 -23 19 -31
0z"/>
<path d="M14350 13742 c-5 -21 -21 -49 -34 -61 -23 -22 -28 -22 -133 -14 -122
9 -198 2 -222 -21 -14 -15 -13 -18 7 -39 22 -21 30 -22 172 -21 l149 2 48 34
c41 30 49 41 57 81 4 26 6 54 2 62 -10 28 -35 16 -46 -23z"/>
<path d="M31186 13441 c-20 -22 -14 -55 12 -66 78 -32 290 -46 311 -21 31 37
-32 76 -123 76 -29 0 -78 7 -109 15 -72 19 -70 19 -91 -4z"/>
<path d="M29752 13393 c-28 -11 -55 -88 -63 -178 -9 -94 -19 -139 -50 -217
-11 -26 -19 -71 -19 -102 0 -30 -5 -67 -11 -83 -17 -43 -42 -181 -43 -243 -1
-46 2 -55 18 -58 33 -7 46 25 46 109 0 43 4 88 9 101 5 13 16 55 25 93 33 143
114 384 146 437 25 42 28 133 4 142 -18 7 -43 7 -62 -1z"/>
<path d="M29385 13310 c-18 -19 -17 -22 8 -68 33 -61 49 -178 48 -354 0 -125
1 -139 18 -148 15 -7 25 -5 42 9 23 19 24 23 22 167 -1 81 -7 168 -12 193 -27
122 -31 142 -31 168 0 16 -5 34 -12 41 -19 19 -63 14 -83 -8z"/>
<path d="M14352 13132 c-23 -39 -107 -110 -138 -118 -14 -4 -57 -2 -94 5 -163
27 -266 -3 -253 -73 12 -61 147 -84 259 -45 84 29 144 21 258 -34 50 -25 102
-48 116 -52 14 -4 39 -18 56 -31 17 -13 41 -24 54 -24 22 0 23 1 5 20 -10 11
-25 20 -34 20 -9 0 -26 15 -39 34 -12 18 -37 40 -55 48 -18 9 -67 32 -109 52
-43 20 -78 39 -78 42 0 3 20 30 45 61 34 41 45 63 45 89 0 41 -14 44 -38 6z"/>
<path d="M27750 12945 c-182 -76 -315 -170 -289 -202 20 -23 64 -14 155 32 49
25 107 51 129 57 41 12 89 48 107 81 7 14 5 24 -8 38 -21 23 -25 23 -94 -6z"/>
<path d="M14702 12642 c-2 -37 9 -62 27 -62 36 0 31 49 -8 69 -14 8 -18 6 -19
-7z"/>
<path d="M30805 12390 c-18 -20 -17 -21 21 -55 134 -119 165 -145 172 -145 17
0 32 26 32 56 0 26 -10 41 -52 79 -52 47 -115 85 -141 85 -8 0 -22 -9 -32 -20z"/>
<path d="M14105 12391 c-182 -16 -249 -99 -152 -187 59 -54 182 -129 261 -159
111 -42 194 -15 328 106 42 38 84 69 93 69 27 0 109 -65 141 -112 15 -24 46
-62 67 -86 35 -39 38 -48 36 -92 -2 -27 0 -53 4 -56 13 -13 35 17 41 54 5 36
-3 67 -42 162 -15 38 -82 98 -179 161 -22 14 -33 29 -33 45 0 21 -4 24 -37 23
-21 -1 -69 10 -108 24 -133 47 -262 62 -420 48z m306 -85 c24 -8 61 -17 81
-21 42 -7 84 -37 74 -53 -8 -13 -126 -96 -164 -116 -15 -7 -46 -17 -70 -21
-53 -9 -159 31 -225 84 -25 20 -60 48 -79 62 -38 31 -32 45 25 66 47 17 303
16 358 -1z"/>
<path d="M28117 12313 c-5 -4 -16 -26 -26 -48 -22 -51 -108 -125 -181 -157
-64 -29 -89 -63 -71 -97 24 -45 81 -24 193 70 40 34 83 68 95 76 46 30 59 155
18 161 -12 2 -24 -1 -28 -5z"/>
<path d="M14820 11768 c-16 -22 -30 -44 -30 -48 0 -7 24 -20 36 -20 8 0 64 84
64 97 0 28 -41 12 -70 -29z"/>
<path d="M23903 11788 c-10 -16 -49 -124 -71 -198 -15 -48 -16 -97 -13 -390 6
-442 3 -761 -7 -835 -5 -33 -16 -74 -25 -92 -22 -41 -21 -49 3 -73 27 -27 61
-25 150 9 41 16 98 32 125 36 61 8 123 41 140 75 12 25 23 69 46 185 11 58 29
126 51 190 5 17 14 46 18 65 5 19 26 71 47 115 22 44 45 96 53 115 7 19 33 64
57 101 24 36 43 71 43 78 0 14 98 171 147 234 41 54 106 163 123 206 13 32 12
35 -9 52 -18 15 -40 19 -105 19 -44 0 -148 9 -231 20 -82 11 -202 23 -265 26
-133 7 -168 15 -200 49 -25 27 -64 33 -77 13z m202 -128 c51 -11 178 -28 279
-36 44 -3 100 -12 125 -20 28 -8 63 -12 89 -8 65 10 75 -4 52 -72 -11 -31 -30
-69 -44 -85 -29 -35 -126 -193 -126 -206 0 -5 -11 -20 -25 -33 -13 -13 -32
-44 -41 -69 -10 -25 -27 -59 -39 -76 -33 -46 -54 -92 -85 -187 -16 -48 -39
-106 -50 -128 -12 -23 -30 -80 -40 -128 -11 -48 -31 -127 -44 -177 l-24 -90
-58 -7 c-32 -4 -73 -13 -91 -19 -45 -14 -63 -6 -63 29 0 16 -7 35 -15 42 -12
10 -14 47 -10 233 3 145 1 236 -7 262 -6 24 -10 121 -9 250 3 336 23 483 74
528 21 18 60 18 152 -3z"/>
<path d="M13630 11735 c-16 -20 -7 -31 48 -56 131 -59 201 -79 357 -99 33 -5
94 -13 135 -19 123 -17 303 -13 408 8 111 23 222 79 222 113 0 15 -3 18 -12
11 -7 -5 -31 -14 -53 -20 -159 -44 -196 -53 -245 -59 -73 -8 -367 13 -433 32
-28 8 -86 19 -127 25 -45 6 -105 24 -151 45 -82 36 -129 43 -149 19z"/>
<path d="M22625 11421 c-23 -10 -81 -33 -130 -51 -50 -18 -100 -40 -113 -48
-25 -16 -82 -107 -82 -131 0 -7 -11 -26 -25 -43 -29 -34 -31 -67 -9 -153 9
-33 19 -76 24 -95 5 -19 15 -60 24 -90 22 -75 20 -128 -6 -190 -22 -54 -20
-72 14 -94 13 -7 29 -2 66 21 28 17 88 48 134 68 45 21 98 51 116 68 27 27 32
38 32 79 0 61 24 122 55 138 22 12 28 11 45 -5 51 -47 5 -206 -126 -430 -35
-61 -37 -79 -15 -140 6 -16 13 -47 16 -67 4 -26 23 -58 59 -100 29 -35 58 -73
65 -86 13 -24 29 -95 38 -170 8 -70 55 -89 126 -53 60 31 174 62 201 55 13 -3
34 0 46 6 20 11 21 17 17 83 -12 161 -32 228 -75 241 -10 4 -46 2 -81 -2 -70
-10 -83 -4 -100 47 -17 51 -14 83 14 135 14 26 25 52 25 59 0 7 14 39 30 71
17 32 30 65 30 73 0 8 8 30 19 51 49 96 65 320 27 377 -9 13 -27 54 -41 91
-88 234 -266 355 -420 285z m163 -64 c23 -12 56 -35 71 -50 37 -34 111 -142
111 -161 0 -7 14 -44 31 -82 51 -111 41 -222 -37 -425 -33 -85 -57 -132 -95
-178 -48 -60 -51 -66 -46 -110 14 -128 43 -210 82 -231 18 -10 34 -10 74 1 42
10 55 10 75 -1 34 -18 53 -65 35 -86 -22 -27 -149 -86 -170 -79 -19 6 -49 55
-64 105 -10 31 -54 88 -124 158 l-53 54 4 57 c3 45 13 73 48 132 106 179 140
267 140 367 0 120 -39 182 -115 182 -73 0 -155 -76 -155 -143 0 -36 -41 -126
-67 -148 -25 -21 -65 -37 -81 -32 -16 6 -44 61 -37 73 3 5 -3 31 -14 57 -10
26 -31 92 -46 146 l-27 97 38 81 c21 44 51 91 66 105 47 39 246 134 281 134
18 0 51 -10 75 -23z"/>
<path d="M13886 10932 c-14 -16 -15 -27 -6 -72 15 -77 13 -98 -11 -110 -16 -9
-30 -6 -74 19 -90 51 -329 111 -441 111 -76 0 -100 -9 -91 -34 8 -20 4 -19
155 -46 86 -16 122 -26 122 -36 0 -20 -65 -18 -202 8 -136 25 -172 19 -230
-35 -28 -27 -54 -38 -129 -56 -177 -43 -423 -132 -516 -186 -23 -14 -68 -34
-100 -44 -32 -10 -89 -37 -128 -59 -38 -23 -86 -49 -105 -58 -306 -145 -398
-201 -500 -304 -71 -72 -238 -225 -270 -247 -12 -8 -32 -31 -46 -51 -38 -57
-72 -104 -102 -141 -15 -18 -35 -47 -44 -65 -10 -17 -36 -47 -57 -66 -40 -35
-149 -207 -211 -331 -17 -35 -36 -71 -40 -79 -79 -134 -122 -227 -160 -345
-28 -84 -72 -176 -94 -194 -9 -8 -16 -27 -16 -43 0 -17 -27 -81 -60 -146 -33
-65 -60 -131 -60 -147 -1 -17 -9 -55 -20 -85 -11 -30 -19 -71 -20 -91 0 -20
-6 -67 -14 -105 -8 -38 -22 -107 -31 -154 -9 -46 -28 -106 -41 -131 -25 -51
-41 -105 -54 -184 -4 -27 -13 -75 -20 -105 -7 -30 -16 -73 -21 -95 -4 -22 -8
-85 -8 -140 -1 -55 -7 -129 -15 -165 -8 -36 -20 -92 -25 -125 -16 -93 -23
-477 -12 -595 6 -58 15 -154 21 -215 5 -60 17 -146 25 -191 8 -44 15 -99 15
-121 0 -22 9 -66 19 -99 10 -32 21 -84 24 -114 3 -30 11 -75 17 -100 6 -25 16
-79 24 -120 7 -41 21 -97 31 -124 30 -87 43 -149 55 -261 6 -61 18 -144 26
-185 8 -41 18 -104 24 -140 14 -100 45 -255 71 -355 19 -78 23 -116 23 -285 1
-107 -3 -249 -7 -315 -5 -66 -10 -138 -11 -160 -3 -51 -13 -104 -37 -185 -10
-36 -23 -95 -29 -133 -15 -95 -63 -234 -125 -358 -62 -123 -119 -180 -245
-245 l-75 -39 -140 0 -140 0 -97 47 c-96 46 -248 149 -248 167 0 13 -65 89
-164 191 -46 47 -95 104 -109 127 -14 23 -31 44 -37 48 -6 3 -44 57 -85 118
-41 62 -110 149 -155 195 -44 46 -110 117 -146 158 -104 120 -217 222 -413
372 -59 46 -245 146 -321 173 -137 49 -230 79 -243 79 -8 0 -55 12 -103 26
-159 47 -222 57 -319 51 -50 -4 -110 -13 -135 -22 -25 -9 -103 -23 -175 -31
-141 -15 -193 -26 -300 -60 -79 -25 -267 -108 -305 -134 -14 -10 -44 -27 -67
-38 -45 -23 -104 -72 -200 -164 -63 -61 -169 -212 -230 -328 -19 -36 -51 -86
-71 -112 -61 -78 -142 -262 -172 -388 -4 -19 -17 -71 -29 -114 -12 -44 -21
-88 -21 -98 0 -21 -147 -312 -182 -361 -49 -67 -227 -233 -303 -282 -93 -59
-205 -115 -233 -115 -10 0 -31 11 -46 25 -30 28 -59 31 -96 10 -39 -22 -73
-18 -116 15 -21 16 -45 30 -52 30 -38 1 -199 106 -225 146 -31 50 -136 156
-207 209 -123 92 -218 139 -340 170 -58 14 -122 30 -143 36 -75 20 -242 23
-309 6 -35 -9 -97 -18 -139 -21 -87 -5 -157 -30 -276 -97 -79 -45 -90 -55
-454 -414 -188 -185 -257 -278 -308 -409 -15 -40 -50 -102 -77 -137 -54 -70
-61 -80 -146 -208 -79 -118 -87 -134 -98 -191 -5 -28 -26 -85 -47 -126 l-37
-77 23 -18 c48 -39 108 -10 142 68 20 47 64 115 111 171 16 18 34 47 42 65 7
18 28 43 46 57 19 14 54 43 80 65 69 60 135 106 240 165 52 30 109 64 125 75
17 12 68 38 115 59 130 58 292 69 405 29 22 -8 64 -18 94 -23 30 -5 71 -21 92
-35 20 -15 57 -32 81 -40 23 -7 71 -27 104 -44 34 -17 65 -31 69 -31 4 0 19
-8 33 -18 15 -10 43 -25 62 -32 51 -20 215 -148 286 -222 33 -35 80 -79 105
-98 24 -19 59 -48 76 -65 18 -17 88 -61 155 -99 68 -38 157 -88 200 -112 42
-24 89 -46 105 -50 15 -4 49 -17 74 -30 25 -12 84 -33 130 -45 74 -19 101 -21
226 -15 156 6 222 21 446 100 155 54 343 166 385 228 9 13 34 44 56 69 129
144 203 253 272 399 39 81 89 188 106 225 10 22 32 85 49 140 17 55 39 116 49
135 9 19 20 54 24 77 7 47 42 125 104 230 34 58 49 74 77 83 41 14 55 35 55
84 0 43 35 86 124 153 34 26 86 70 117 99 30 28 82 69 115 90 32 20 77 52 99
71 65 56 138 85 234 96 124 14 214 9 306 -14 44 -12 91 -24 105 -26 14 -3 45
-20 70 -38 25 -18 61 -40 80 -50 46 -23 119 -98 213 -217 42 -53 85 -102 96
-108 11 -5 33 -34 50 -63 17 -29 40 -62 51 -72 11 -10 20 -22 20 -26 0 -5 18
-47 40 -94 22 -47 40 -88 40 -91 0 -3 15 -38 34 -77 19 -40 45 -97 58 -127 61
-143 139 -240 262 -325 28 -20 74 -54 101 -76 28 -22 68 -52 90 -66 22 -15 60
-43 85 -64 50 -42 177 -104 285 -139 39 -12 81 -29 94 -37 13 -8 60 -28 104
-44 44 -16 96 -38 114 -49 19 -11 106 -45 195 -76 l161 -56 231 7 c208 6 248
10 404 41 96 19 197 43 225 53 29 10 87 29 131 41 152 43 271 110 392 218 63
56 99 97 231 267 45 57 173 295 173 321 0 7 6 25 14 41 8 15 22 48 31 73 9 25
28 70 40 100 37 86 52 178 71 422 19 253 15 458 -10 548 -9 30 -16 72 -16 92
0 21 -6 55 -14 75 -17 47 -61 251 -72 333 -13 96 -26 159 -43 200 -11 25 -40
113 -64 195 -25 83 -57 179 -70 215 -14 36 -32 85 -41 110 -9 25 -30 86 -47
135 -30 87 -36 113 -59 255 -12 76 -12 693 1 915 6 113 14 171 33 238 14 48
26 97 26 108 0 11 11 53 23 92 13 40 31 111 41 159 9 48 30 116 46 152 17 35
30 69 30 76 0 22 103 286 145 370 23 47 59 112 80 145 66 102 318 341 468 442
34 23 75 53 91 65 29 23 159 115 291 207 39 27 86 66 105 86 50 52 92 71 195
85 237 31 245 31 245 -25 0 -34 21 -65 45 -65 17 0 25 23 25 72 0 35 2 39 23
36 18 -2 21 -8 19 -35 -3 -24 2 -34 17 -43 29 -15 59 3 63 37 4 34 44 59 81
49 24 -6 26 -11 29 -64 3 -53 5 -57 29 -60 29 -3 40 7 59 58 20 52 39 70 75
70 49 0 55 -14 55 -121 0 -76 3 -99 16 -110 21 -18 48 0 54 36 4 21 13 31 35
37 43 11 53 30 47 88 -4 48 -4 50 21 50 l26 0 0 -200 c-1 -213 4 -234 45 -228
19 3 21 10 22 68 0 41 7 77 17 97 15 28 16 50 11 140 -6 103 -5 109 15 121 17
10 25 10 41 0 20 -12 21 -22 21 -193 -1 -198 1 -252 18 -495 6 -91 8 -178 5
-193 -7 -32 18 -67 47 -67 38 0 42 45 22 245 -12 111 -12 148 -2 177 7 22 9
54 5 79 -11 67 -19 336 -11 384 5 36 10 45 26 45 17 0 19 -8 20 -62 1 -35 3
-90 4 -123 2 -33 5 -154 9 -270 3 -115 10 -279 15 -363 7 -105 6 -162 -1 -183
-18 -53 2 -604 31 -839 17 -138 48 -254 105 -402 14 -38 37 -96 50 -130 13
-35 46 -112 73 -173 28 -60 54 -121 58 -135 4 -14 22 -54 40 -90 18 -36 45
-96 60 -135 16 -38 41 -89 56 -112 16 -23 29 -48 29 -55 0 -7 11 -37 25 -65
29 -63 28 -63 -80 -83 -38 -7 -77 -20 -85 -27 -13 -13 -13 -16 4 -29 23 -16
35 -17 135 -4 40 5 79 6 86 2 8 -4 27 -34 44 -66 28 -53 30 -61 16 -75 -8 -10
-41 -25 -74 -35 -71 -21 -97 -38 -86 -56 7 -12 46 -11 161 6 24 3 51 1 62 -5
12 -6 41 -50 66 -99 24 -48 61 -118 82 -157 20 -38 54 -104 75 -145 21 -41 45
-86 53 -100 57 -98 165 -368 166 -413 0 -17 15 -72 42 -157 15 -45 22 -144 22
-295 0 -117 -1 -122 -36 -197 -39 -83 -59 -100 -114 -96 -40 3 -64 -19 -64
-58 0 -34 -41 -60 -125 -79 -62 -15 -82 -16 -114 -7 -50 15 -45 17 -83 -18
-45 -42 -104 -42 -150 -1 -29 26 -39 28 -80 24 -74 -9 -158 27 -158 67 0 9 -9
25 -20 35 -18 16 -25 17 -58 6 -33 -11 -43 -10 -95 14 l-59 25 7 40 c8 49 -8
59 -72 42 -43 -12 -45 -12 -89 25 -25 21 -47 48 -51 61 -3 12 -19 30 -35 38
-41 21 -169 126 -249 204 -37 36 -102 92 -144 125 -43 33 -94 78 -114 101 -20
22 -61 58 -91 79 -30 22 -70 52 -88 67 -18 16 -74 49 -125 74 -50 26 -126 73
-169 106 -43 33 -111 78 -151 100 -40 22 -92 55 -117 73 -56 41 -166 71 -285
79 -49 4 -136 12 -193 18 -94 10 -104 9 -122 -7 -25 -23 -25 -30 0 -55 16 -16
33 -20 88 -20 37 0 83 -5 102 -10 19 -6 82 -15 141 -19 155 -12 247 -56 485
-227 55 -39 130 -85 167 -103 37 -18 82 -45 100 -60 18 -15 48 -38 67 -51 19
-13 73 -59 120 -102 47 -43 111 -96 143 -117 31 -22 113 -92 183 -157 119
-113 125 -120 119 -150 -7 -42 15 -64 65 -64 29 0 49 -9 82 -36 67 -55 79 -73
67 -95 -16 -31 -2 -41 51 -34 42 6 56 2 129 -35 44 -23 81 -45 81 -49 0 -4 -9
-16 -20 -26 -27 -24 -25 -43 4 -56 20 -10 33 -7 79 16 l55 28 46 -17 c25 -10
56 -26 68 -36 l23 -18 -22 -31 c-26 -35 -22 -53 14 -70 32 -14 65 4 88 49 18
35 45 44 100 33 36 -8 40 -12 43 -41 7 -67 66 -63 102 8 23 46 25 47 92 65 66
17 78 12 78 -34 0 -20 5 -42 12 -49 38 -38 89 20 81 92 -5 38 -2 45 27 69 38
32 58 34 104 6 l35 -20 20 20 c25 25 26 31 6 57 -20 27 -19 41 9 77 13 18 36
56 50 85 32 63 49 66 116 17 53 -39 62 -41 80 -20 19 23 4 48 -65 105 -35 29
-67 60 -71 69 -3 9 -10 68 -15 131 -12 156 -23 220 -54 320 -15 47 -30 108
-34 135 -4 28 -20 77 -35 110 -81 173 -118 252 -128 270 -7 11 -46 88 -89 170
-43 83 -93 179 -113 215 -20 36 -36 68 -36 72 0 4 14 15 30 25 58 34 31 79
-45 75 -41 -2 -68 22 -98 90 -29 65 -23 78 33 78 41 0 76 29 67 54 -3 8 -17
22 -32 32 -21 13 -32 15 -66 6 -28 -7 -49 -7 -63 -1 -20 10 -150 260 -189 364
-40 105 -66 167 -162 380 -12 28 -26 66 -30 85 -4 19 -15 46 -25 60 -9 14 -25
50 -35 80 -10 30 -24 65 -32 76 -38 59 -83 460 -90 807 l-4 198 35 14 c23 10
38 24 42 40 8 34 -15 249 -32 300 -8 22 -14 49 -14 60 0 12 -5 26 -12 33 -19
19 -31 445 -15 572 3 30 6 60 7 67 0 7 10 17 21 24 42 22 49 -3 56 -177 3 -87
6 -172 5 -189 0 -16 6 -60 14 -97 8 -37 17 -129 21 -203 6 -123 9 -140 32
-176 26 -40 64 -60 82 -42 11 11 -1 159 -27 348 -8 61 -14 139 -13 175 1 36 0
132 -3 213 -4 141 -3 149 16 163 26 18 70 18 85 1 6 -8 12 -80 15 -183 2 -93
9 -203 15 -244 7 -41 9 -100 6 -130 -5 -46 -2 -65 19 -112 26 -58 37 -66 66
-48 17 10 17 95 0 232 -5 43 -7 84 -4 92 3 8 0 24 -6 37 -7 12 -13 56 -14 98
-2 42 -6 121 -11 177 l-8 101 35 21 c52 32 74 29 88 -13 17 -52 20 -92 20
-277 0 -141 2 -169 16 -183 29 -28 58 -15 65 30 7 38 -7 368 -15 391 -3 7 1
31 8 55 14 47 39 70 56 53 19 -19 31 -164 20 -248 -10 -81 -8 -96 14 -96 36 0
52 57 66 229 9 115 24 146 60 123 27 -17 34 -16 75 12 19 13 43 22 54 19 28
-7 33 9 33 112 0 89 1 97 33 147 72 113 98 176 140 333 8 33 20 74 25 90 8 28
16 82 39 257 26 196 -24 456 -125 650 -14 26 -34 73 -44 104 -34 98 -140 263
-244 381 -38 42 -184 153 -203 153 -5 0 -25 16 -44 36 -18 20 -50 44 -69 54
-19 11 -57 40 -85 66 -27 26 -60 53 -72 61 -13 9 -23 19 -23 25 0 16 93 50
160 58 36 5 86 14 111 21 57 15 85 8 134 -31 41 -33 44 -34 64 -21 11 7 9 17
-10 52 -18 33 -37 51 -78 72 -65 32 -87 33 -161 7 -84 -30 -340 -91 -359 -86
-9 3 -35 10 -58 16 -62 16 -57 39 18 81 84 48 109 68 109 88 0 20 -30 51 -50
51 -16 0 -122 -67 -208 -132 -69 -52 -105 -60 -142 -30 -20 16 -21 21 -11 58
6 23 20 49 31 59 37 34 21 95 -25 95 -39 0 -85 -76 -85 -139 0 -19 -7 -34 -18
-40 -24 -13 -129 -2 -142 14 -6 7 -16 53 -22 101 -6 49 -16 95 -21 102 -14 18
-41 15 -61 -6z m-106 -257 c29 -15 115 -120 130 -159 13 -36 55 -51 86 -31 28
18 29 24 9 72 -19 45 -19 87 0 103 15 13 70 5 93 -12 18 -15 15 -57 -8 -107
-23 -49 -19 -77 11 -86 32 -10 64 27 78 90 13 56 40 88 67 78 18 -7 18 -37 -1
-53 -19 -16 -45 -68 -45 -91 0 -24 30 -40 52 -28 10 5 27 29 39 52 28 55 46
75 86 94 66 31 111 -7 72 -61 -41 -55 8 -83 81 -46 68 35 111 31 163 -15 25
-22 77 -62 117 -90 39 -27 91 -68 115 -91 24 -23 67 -55 97 -72 80 -47 168
-140 271 -288 32 -45 57 -86 57 -90 0 -5 8 -25 18 -44 40 -74 119 -273 144
-360 14 -50 26 -131 34 -232 10 -126 -22 -381 -61 -491 -9 -23 -25 -71 -36
-107 -44 -134 -51 -150 -70 -150 -17 0 -19 10 -20 98 -1 53 -1 142 0 197 2 85
-1 105 -18 133 -12 17 -27 32 -34 32 -8 0 -22 9 -31 19 -16 17 -16 26 -6 76
10 50 10 59 -4 74 -15 14 -19 14 -44 1 -25 -15 -27 -21 -34 -110 -4 -52 -12
-115 -19 -140 -6 -25 -13 -52 -15 -61 -3 -9 5 -28 17 -44 20 -24 22 -40 24
-161 2 -122 0 -134 -16 -134 -14 0 -19 10 -21 48 -3 51 -10 54 -80 39 -49 -10
-51 -15 -43 -86 16 -130 15 -192 -2 -198 -11 -4 -24 4 -39 23 -18 22 -22 37
-18 64 7 41 -22 87 -48 78 -16 -6 -30 -113 -32 -244 -1 -73 -17 -98 -55 -89
-42 11 -61 34 -61 76 0 47 -17 87 -41 94 -33 11 -38 -3 -32 -89 5 -76 4 -85
-16 -105 -14 -14 -33 -21 -61 -21 -36 0 -42 4 -65 40 -35 55 -60 53 -86 -5
-20 -45 -36 -53 -73 -39 -19 7 -20 29 -4 105 10 50 9 60 -5 83 -21 31 -52 34
-67 7 -5 -11 -13 -57 -17 -103 -7 -74 -10 -83 -28 -83 -17 0 -21 8 -25 54 -9
94 -70 99 -81 6 -10 -90 -71 -97 -76 -8 -1 26 -5 76 -9 111 -4 40 -2 74 6 92
25 60 -39 98 -67 39 -7 -14 -15 -80 -19 -148 -6 -95 -10 -124 -22 -129 -25 -9
-44 28 -38 78 2 25 9 83 14 130 5 47 13 93 17 103 11 27 -3 65 -30 83 -35 23
-56 5 -48 -40 4 -27 2 -34 -16 -39 -13 -3 -30 3 -47 18 -26 22 -27 26 -19 82
11 86 10 113 -7 130 -24 24 -55 1 -63 -46 -7 -40 -23 -55 -49 -45 -22 9 -28
35 -11 54 8 9 24 43 36 76 18 51 20 74 16 174 -8 173 -43 262 -96 245 -25 -8
-26 -28 -5 -86 22 -58 25 -279 5 -326 -22 -53 -46 -43 -60 25 -46 219 -82 275
-146 228 -18 -13 -18 -14 3 -48 37 -60 73 -212 77 -328 4 -106 -2 -132 -28
-128 -20 3 -23 14 -39 133 -18 139 -36 198 -67 215 -22 11 -51 4 -51 -14 0 -6
7 -36 15 -66 22 -81 22 -82 -28 -75 -63 10 -74 -7 -52 -80 9 -31 13 -65 10
-75 -3 -11 -1 -45 5 -77 14 -67 14 -105 0 -149 -6 -17 -12 -54 -14 -83 -1 -29
-9 -58 -17 -65 -20 -18 -95 -34 -234 -50 -131 -15 -169 -30 -240 -97 -22 -20
-83 -66 -135 -101 -141 -94 -162 -110 -195 -140 -17 -15 -64 -51 -106 -80 -42
-29 -110 -83 -150 -119 -41 -37 -97 -85 -126 -108 -82 -64 -237 -246 -283
-331 -42 -79 -110 -228 -110 -243 0 -5 -11 -36 -24 -70 -63 -166 -96 -261
-121 -352 -15 -55 -28 -106 -31 -112 -5 -17 -35 -16 -71 1 -15 7 -62 29 -103
49 -41 19 -97 53 -125 76 -50 42 -90 52 -113 29 -33 -33 -8 -60 138 -146 47
-27 102 -64 123 -80 21 -17 51 -33 67 -37 16 -3 33 -12 38 -18 12 -16 -28
-185 -48 -197 -17 -11 -66 16 -127 72 -45 40 -68 46 -98 25 -41 -31 16 -93
177 -192 l33 -21 -3 -194 c-2 -107 -6 -292 -9 -410 -3 -118 -5 -224 -5 -235
-1 -66 45 -337 66 -395 18 -50 34 -95 73 -215 14 -44 30 -86 36 -93 5 -7 13
-32 18 -56 4 -25 24 -87 44 -139 19 -52 35 -104 35 -115 0 -11 11 -49 25 -86
13 -36 29 -92 35 -123 6 -32 15 -78 20 -103 4 -25 13 -75 19 -111 13 -81 36
-171 50 -198 6 -11 11 -33 11 -49 0 -16 4 -42 9 -58 6 -16 15 -112 20 -214 11
-188 -2 -443 -29 -609 -24 -143 -216 -587 -292 -676 -19 -22 -50 -62 -68 -90
-53 -78 -196 -214 -290 -276 -111 -73 -101 -69 -168 -79 -32 -6 -127 -29 -212
-53 -204 -57 -245 -67 -279 -67 -16 0 -48 -7 -72 -17 -60 -22 -396 -22 -467 1
-26 8 -74 22 -107 30 -168 44 -312 95 -366 131 -49 32 -128 67 -246 110 -100
36 -253 126 -348 205 -33 27 -90 72 -127 99 -69 50 -121 109 -150 171 -9 19
-41 87 -71 151 -30 63 -58 126 -62 140 -4 13 -14 33 -21 44 -8 11 -14 28 -14
38 0 10 -13 37 -28 60 -31 47 -44 69 -68 112 -10 17 -39 55 -65 84 -27 30 -49
58 -49 63 0 4 40 37 89 73 49 36 91 71 94 79 6 15 -32 56 -51 56 -6 0 -37 -23
-69 -51 -74 -65 -107 -83 -132 -70 -10 6 -37 35 -60 66 -50 66 -49 79 9 149
48 58 55 106 16 106 -16 0 -35 -14 -59 -44 -39 -46 -87 -73 -109 -59 -55 35
-108 79 -108 90 0 8 14 43 30 78 36 76 39 120 10 135 -31 16 -48 1 -88 -80
-21 -40 -45 -78 -54 -84 -12 -7 -38 -5 -95 8 -106 26 -110 31 -89 100 29 92 7
186 -43 186 -23 0 -45 -25 -36 -41 18 -29 13 -114 -11 -160 -26 -52 -33 -56
-108 -65 -72 -9 -96 5 -96 54 0 52 -38 159 -62 176 -22 16 -57 10 -65 -11 -3
-8 4 -32 16 -53 15 -27 21 -55 21 -98 l0 -60 -67 -47 c-177 -120 -213 -148
-288 -214 -44 -39 -87 -71 -96 -71 -17 0 -72 107 -92 180 -11 40 -18 48 -67
72 -40 19 -59 24 -72 17 -26 -14 -22 -31 17 -69 19 -19 35 -38 35 -43 0 -4 13
-36 30 -70 40 -85 61 -147 53 -161 -11 -20 -46 -56 -55 -56 -5 0 -19 10 -31
23 -44 45 -117 98 -127 92 -16 -10 -1 -55 36 -110 55 -82 54 -97 -11 -195 -71
-107 -128 -225 -151 -315 -10 -38 -27 -92 -37 -120 -11 -27 -26 -70 -34 -95
-8 -25 -26 -70 -39 -101 -13 -31 -24 -61 -24 -66 0 -21 -117 -253 -170 -338
-30 -48 -80 -115 -111 -149 -31 -34 -75 -87 -98 -118 -23 -32 -54 -65 -69 -75
-15 -9 -40 -29 -57 -44 -38 -36 -154 -89 -270 -125 -49 -15 -99 -33 -110 -40
-19 -12 -145 -45 -224 -58 -38 -7 -228 9 -306 25 -79 16 -257 97 -360 164 -27
17 -102 65 -165 106 -65 42 -163 118 -224 174 -161 148 -349 285 -414 302 -15
3 -96 40 -180 80 -83 41 -182 83 -220 93 -140 38 -224 52 -268 45 -24 -3 -65
-8 -92 -10 -117 -8 -173 -32 -337 -140 -44 -29 -100 -63 -125 -75 -65 -33
-127 -76 -194 -137 -103 -92 -118 -57 -21 48 53 56 89 114 115 180 11 28 32
66 45 83 14 18 25 36 25 41 0 18 278 325 420 463 210 204 368 286 573 297 40
2 97 7 128 10 135 17 363 -36 518 -121 121 -67 269 -191 291 -245 10 -24 8
-35 -16 -78 -15 -28 -47 -70 -70 -93 -49 -48 -55 -70 -21 -85 35 -16 57 -2
123 78 33 41 68 75 77 77 9 2 34 -10 54 -27 21 -17 43 -31 50 -31 7 0 20 -11
29 -25 16 -25 16 -28 -5 -73 -15 -32 -34 -54 -58 -67 -20 -11 -38 -25 -40 -32
-5 -13 28 -37 64 -47 28 -9 86 41 106 92 24 61 36 66 114 52 38 -7 77 -18 89
-25 28 -18 39 -91 18 -123 -19 -29 -11 -56 22 -71 65 -29 109 62 67 139 -17
30 -17 32 1 45 11 8 29 15 40 15 12 0 34 7 50 15 73 38 110 3 112 -107 1 -71
10 -87 44 -88 9 0 26 7 38 16 34 24 29 84 -14 164 l-34 65 24 20 c13 11 59 45
102 75 43 30 98 73 122 95 70 62 179 215 219 305 14 30 38 76 55 103 21 33 41
92 67 200 39 156 94 324 132 399 12 24 40 70 64 103 23 33 44 68 48 77 3 9 47
79 98 155 140 210 340 394 491 454 29 11 88 36 131 55 49 23 111 40 170 50
178 28 223 36 305 55 60 14 121 20 215 20 121 1 141 -2 232 -31 55 -17 138
-39 185 -50 80 -18 152 -47 260 -106 25 -14 79 -41 120 -62 144 -69 440 -314
484 -400 9 -18 65 -80 124 -139 59 -60 120 -126 137 -148 16 -22 41 -53 55
-70 15 -16 49 -66 76 -110 30 -50 82 -114 139 -170 51 -49 119 -126 153 -170
73 -96 157 -166 269 -224 108 -56 119 -76 117 -226 -1 -60 -5 -131 -9 -157 -6
-40 -4 -49 10 -54 20 -8 61 13 71 35 12 30 26 156 24 211 -6 117 -6 115 16
118 14 2 28 -8 47 -35 35 -51 39 -64 76 -210 18 -70 21 -181 6 -224 -13 -37
-13 -41 6 -60 24 -24 51 -13 67 28 18 47 24 162 11 222 -32 160 -41 196 -59
232 l-20 38 21 11 c35 19 64 -17 79 -98 5 -26 22 -85 39 -132 17 -47 30 -100
31 -118 0 -40 23 -88 49 -102 14 -7 24 -5 40 8 19 16 20 22 11 76 -5 32 -14
63 -19 70 -16 19 -82 259 -85 311 -1 14 12 26 47 42 58 28 80 20 98 -34 19
-60 49 -114 88 -163 36 -44 79 -111 112 -173 19 -35 46 -49 72 -35 18 9 24 63
7 73 -24 15 -182 269 -210 336 -16 41 -30 75 -30 76 0 2 15 20 34 41 40 44
137 226 156 292 7 25 23 74 35 110 13 36 26 92 30 125 4 33 13 68 21 79 8 11
14 35 14 54 0 18 6 45 14 60 19 36 35 201 40 409 2 95 7 177 10 182 4 5 1 40
-5 78 -7 37 -11 88 -10 113 2 45 -8 95 -37 200 -18 64 -29 127 -42 225 -4 39
-13 83 -19 98 -6 16 -11 42 -11 60 0 17 -4 56 -10 86 -5 31 -19 110 -30 176
-23 137 -32 178 -55 255 -9 30 -21 80 -25 110 -5 30 -14 82 -20 115 -6 33 -13
74 -15 90 -2 17 -11 57 -19 90 -9 32 -16 78 -16 101 0 24 -4 64 -10 91 -5 26
-14 86 -20 133 -6 47 -16 117 -21 155 -9 60 -16 137 -33 365 -2 25 0 86 5 135
4 50 13 146 19 214 6 68 16 135 21 149 5 13 12 77 14 141 3 64 10 134 15 156
11 50 34 161 50 240 16 81 37 140 71 202 26 47 29 62 29 142 0 91 11 118 41
106 8 -3 41 -48 74 -100 83 -132 184 -217 201 -170 5 13 -101 187 -158 260
-13 17 -45 65 -72 107 -51 84 -52 97 -21 193 22 66 84 189 101 198 19 11 102
-75 171 -176 75 -113 359 -387 451 -436 28 -15 57 -14 71 2 12 15 -26 55 -97
103 -20 14 -101 93 -180 177 -115 123 -149 166 -178 225 -34 70 -37 74 -97
101 -34 15 -68 35 -75 43 -21 26 -16 90 12 163 15 39 31 81 36 95 5 14 18 50
30 80 12 30 26 71 32 90 6 19 18 46 27 60 32 46 81 140 81 153 0 8 9 25 20 39
10 14 39 64 64 112 49 94 128 205 193 271 22 23 49 58 59 76 9 19 32 52 50 75
19 23 34 46 34 52 0 5 33 37 73 71 99 82 110 93 128 128 10 17 41 47 70 65 30
19 60 46 67 59 22 39 209 179 240 179 8 0 66 27 129 60 64 33 120 60 126 60 5
0 25 14 44 30 18 17 42 30 51 30 10 0 42 16 72 35 30 19 62 35 70 35 34 1 149
43 202 74 31 19 71 37 90 41 18 4 53 17 78 30 25 12 78 30 118 39 72 17 73 17
109 -4 25 -15 72 -26 147 -35 181 -23 244 -41 306 -85 57 -41 87 -14 50 45
-25 41 -39 49 -139 85 -85 29 -99 46 -47 55 94 18 283 -40 398 -123 26 -18 56
-32 65 -30 53 10 -5 105 -84 139 -25 11 -43 25 -43 35 0 13 7 15 43 9 23 -4
53 -13 67 -20z m1510 -2061 c0 -33 -33 -30 -38 4 -3 17 2 22 17 22 16 0 21 -6
21 -26z m10 -130 c0 -47 -3 -55 -17 -52 -13 2 -19 15 -21 42 -4 47 3 66 23 66
12 0 15 -12 15 -56z m0 -109 c0 -8 -9 -15 -20 -15 -11 0 -20 7 -20 15 0 8 9
15 20 15 11 0 20 -7 20 -15z m-1685 -36 c-8 -24 -12 -91 -14 -207 -1 -67 -3
-73 -26 -84 -32 -14 -81 14 -69 40 4 9 10 37 14 62 7 48 41 154 60 189 15 29
44 28 35 0z m1595 -20 c0 -25 -33 -22 -38 4 -2 12 3 17 17 17 15 0 21 -6 21
-21z m-1734 -33 c-4 -11 -14 -46 -23 -76 -8 -30 -18 -72 -20 -93 -6 -48 -39
-75 -63 -52 -28 29 -4 203 33 233 34 27 82 19 73 -12z m269 -122 c8 -80 1 -99
-31 -92 -16 3 -19 13 -18 59 1 73 11 109 28 109 10 0 16 -21 21 -76z m1473
-86 c-7 -19 -38 -22 -38 -4 0 10 9 16 21 16 12 0 19 -5 17 -12z"/>
<path d="M14667 9840 c-33 -26 -42 -73 -27 -145 13 -62 56 -121 95 -131 52
-13 135 62 135 122 0 42 -52 149 -79 164 -33 17 -96 12 -124 -10z"/>
<path d="M13968 9810 c-29 -30 -30 -32 -27 -114 4 -72 8 -87 32 -119 52 -68
129 -85 179 -40 27 25 58 87 58 117 0 53 -42 116 -101 152 -70 42 -101 43
-141 4z"/>
<path d="M14222 9268 c-5 -7 -12 -33 -15 -58 -3 -25 -9 -62 -15 -84 -6 -21 -8
-45 -5 -52 7 -20 57 -17 76 4 22 24 34 150 18 180 -13 24 -43 29 -59 10z"/>
<path d="M14072 9234 c-19 -13 -22 -25 -22 -84 0 -37 -3 -75 -6 -84 -9 -24
-43 -20 -48 7 -14 76 -23 101 -38 111 -14 8 -21 7 -34 -5 -14 -15 -14 -24 -4
-75 8 -35 10 -88 6 -131 -5 -65 -4 -73 14 -83 42 -23 85 27 74 85 -7 41 16 58
45 31 10 -9 24 -16 32 -16 32 0 39 23 39 132 0 94 -2 109 -18 117 -14 7 -25 6
-40 -5z"/>
<path d="M14373 9243 c-7 -2 -13 -20 -13 -39 0 -20 -5 -55 -11 -80 -10 -38 -9
-48 4 -61 39 -39 92 44 80 124 -9 56 -24 71 -60 56z"/>
<path d="M14662 9238 c-7 -7 -12 -32 -12 -56 0 -24 -10 -66 -22 -94 -15 -36
-19 -55 -12 -66 16 -25 30 -25 58 0 23 20 28 35 36 103 7 64 6 84 -6 103 -16
25 -25 27 -42 10z"/>
<path d="M14792 9241 c-11 -6 -12 -31 -8 -105 3 -53 8 -101 11 -106 11 -18 54
-11 66 12 13 25 3 176 -13 196 -12 14 -37 16 -56 3z"/>
<path d="M14511 9211 c-6 -11 -11 -42 -11 -70 0 -27 -5 -62 -10 -77 -9 -23 -8
-31 9 -47 18 -19 21 -19 44 -4 20 13 25 26 30 84 8 84 -2 127 -30 131 -14 2
-26 -4 -32 -17z"/>
<path d="M14910 9175 c-10 -12 -10 -21 0 -44 7 -17 10 -60 8 -101 -2 -61 0
-74 15 -84 15 -9 22 -7 39 14 18 22 20 34 15 113 -3 49 -11 95 -18 103 -15 18
-43 18 -59 -1z"/>
<path d="M13767 9084 c-8 -8 -1 -41 25 -117 13 -40 18 -78 17 -125 -4 -77 2
-92 36 -92 27 0 55 34 55 66 0 53 -53 230 -77 257 -16 17 -44 23 -56 11z"/>
<path d="M15067 9072 c-8 -9 -17 -46 -21 -82 -3 -36 -8 -81 -12 -102 -5 -30
-2 -38 14 -47 16 -8 25 -7 41 7 17 13 24 36 32 104 13 95 10 111 -19 127 -15
8 -23 6 -35 -7z"/>
<path d="M14620 8856 c-14 -6 -68 -11 -120 -11 -173 -2 -280 -28 -280 -70 0
-6 15 -25 33 -43 l32 -31 234 16 c169 12 234 20 238 30 6 16 -70 109 -95 115
-10 3 -29 0 -42 -6z"/>
<path d="M6871 3197 c-9 -11 -9 -37 -1 -107 10 -86 9 -94 -11 -126 -17 -28
-19 -37 -9 -49 16 -20 55 -19 75 1 50 50 55 122 16 237 -19 55 -46 72 -70 44z"/>
<path d="M17502 10638 c-18 -18 -15 -48 15 -159 30 -113 28 -118 -39 -130
-128 -22 -159 -29 -213 -47 -53 -19 -62 -19 -82 -6 -13 8 -32 32 -43 54 -31
60 -66 74 -100 40 -28 -28 -25 -55 12 -106 23 -33 29 -47 20 -56 -14 -14 -217
-103 -303 -133 -36 -12 -76 -28 -89 -35 -13 -7 -53 -19 -89 -26 -91 -19 -132
-70 -77 -95 20 -10 33 -5 92 30 38 23 80 44 94 47 14 2 39 9 55 15 17 6 57 17
90 24 33 8 100 34 149 59 49 25 100 46 114 46 15 0 42 -16 69 -41 46 -42 77
-48 96 -18 7 12 3 25 -16 54 -14 20 -23 43 -21 50 15 37 280 99 323 75 18 -9
35 -53 45 -112 9 -48 39 -67 67 -42 22 20 24 50 8 105 -17 57 -1 73 67 65 35
-4 66 -1 98 10 43 15 51 15 84 1 20 -9 64 -17 97 -19 33 -2 76 -12 95 -21 19
-10 62 -22 95 -27 78 -13 185 -37 192 -44 10 -10 -9 -67 -31 -94 -32 -38 -43
-61 -51 -109 -6 -37 -4 -43 18 -58 20 -13 29 -14 44 -4 23 14 53 64 53 87 0
24 35 79 59 92 32 16 94 -3 147 -46 60 -50 114 -105 114 -117 0 -6 -18 -30
-41 -54 -44 -48 -48 -77 -13 -100 19 -12 26 -10 73 22 74 51 92 46 163 -45 98
-126 153 -210 206 -321 29 -58 52 -110 52 -117 0 -6 16 -40 35 -75 19 -35 35
-69 35 -76 0 -7 16 -52 35 -100 37 -92 51 -143 66 -231 25 -150 25 -139 -16
-475 -44 -352 -48 -370 -109 -492 -29 -58 -47 -75 -60 -55 -3 5 0 37 5 73 6
35 12 84 14 109 2 25 6 60 10 78 7 30 5 33 -30 48 -52 21 -79 15 -83 -18 -4
-35 -36 -46 -63 -22 -16 14 -19 26 -14 54 5 29 2 40 -19 59 -14 14 -33 21 -47
19 -23 -3 -24 -6 -24 -100 0 -86 -2 -100 -21 -119 -43 -42 -84 15 -53 73 17
32 1 176 -22 199 -14 14 -24 17 -36 11 -13 -8 -16 -30 -17 -128 -1 -96 -5
-126 -20 -153 -15 -28 -17 -47 -12 -95 6 -61 18 -79 70 -111 13 -8 14 -16 7
-45 -5 -19 -12 -93 -16 -163 -7 -120 -9 -129 -31 -144 -36 -23 -56 -11 -49 31
6 28 3 36 -13 45 -41 22 -72 -11 -72 -74 0 -25 -8 -43 -25 -60 -27 -27 -41
-30 -80 -15 -23 9 -30 6 -53 -19 -52 -55 -92 -60 -92 -12 0 15 -9 36 -21 47
-32 29 -53 8 -59 -57 -5 -51 -7 -55 -40 -66 -19 -7 -52 -12 -73 -12 -21 -1
-60 -8 -87 -17 -47 -15 -51 -15 -83 5 -47 29 -75 27 -87 -4 -13 -34 -32 -40
-94 -29 -31 6 -66 6 -89 1 -51 -12 -87 3 -87 37 0 49 -65 62 -81 16 -12 -33
-43 -48 -65 -29 -10 8 -14 28 -13 63 3 62 -6 93 -32 106 -30 16 -42 2 -35 -40
8 -53 -14 -113 -47 -124 -35 -13 -76 14 -71 46 25 186 27 208 14 223 -7 9 -22
15 -34 13 -18 -3 -22 -16 -36 -113 -8 -60 -19 -116 -23 -122 -11 -18 -58 -16
-85 3 -23 16 -28 47 -13 87 5 13 14 75 21 138 6 63 17 137 25 164 19 63 9 138
-19 143 -27 6 -37 -10 -46 -74 -5 -33 -16 -104 -24 -159 -8 -55 -20 -137 -27
-183 -15 -101 -27 -111 -90 -79 l-44 22 3 65 c1 36 9 91 17 123 8 32 15 77 15
100 0 22 6 68 14 101 26 109 48 220 53 264 6 48 23 54 47 18 21 -33 52 -41 82
-21 36 24 42 44 59 208 8 82 18 153 21 158 3 6 -2 21 -11 35 -12 19 -23 24
-43 22 -26 -3 -27 -5 -29 -78 -2 -41 -7 -93 -12 -115 -6 -22 -13 -57 -16 -77
-5 -29 -13 -42 -37 -54 -50 -26 -58 -9 -59 131 -1 66 -6 128 -11 138 -10 19
-53 23 -64 5 -4 -6 -7 -76 -5 -155 1 -118 -1 -148 -15 -168 -43 -66 -70 -5
-58 130 6 71 6 73 -19 90 -14 9 -34 15 -44 13 -16 -3 -18 -15 -18 -103 0 -55
-6 -127 -13 -160 -30 -143 -37 -217 -45 -428 -4 -123 6 -150 51 -145 24 3 27
7 24 38 -2 30 -1 110 2 216 1 21 10 39 30 56 26 22 30 32 29 77 0 28 -4 76 -8
106 -6 50 -5 55 12 55 14 0 24 -14 37 -49 17 -47 16 -52 -3 -152 -10 -57 -23
-135 -26 -174 -10 -97 -31 -193 -46 -212 -19 -22 -88 -10 -169 28 -36 17 -99
38 -140 45 -41 8 -97 19 -125 24 -27 5 -81 16 -120 25 -71 15 -144 10 -208
-14 -16 -6 -43 -11 -60 -11 -18 0 -61 -9 -95 -20 -35 -11 -68 -20 -72 -20 -22
0 -39 35 -45 91 -10 83 -51 127 -93 100 -12 -7 -11 -13 1 -37 8 -16 17 -59 21
-95 7 -75 3 -82 -72 -114 l-42 -18 -79 76 c-43 43 -95 84 -116 93 -33 14 -39
14 -61 -1 -42 -27 -27 -58 46 -95 41 -21 160 -146 160 -168 0 -8 -8 -26 -18
-40 -11 -15 -32 -54 -47 -87 -42 -88 -54 -92 -106 -42 -127 122 -213 172 -258
148 -31 -17 -26 -49 10 -69 17 -9 74 -50 127 -89 55 -42 106 -73 120 -73 12 0
25 -6 28 -13 3 -8 -11 -60 -31 -117 -19 -57 -35 -113 -35 -125 0 -12 -5 -36
-11 -54 -15 -42 -37 -40 -121 10 -115 68 -243 102 -300 80 -17 -6 -28 -18 -28
-29 0 -19 37 -42 67 -42 40 0 156 -44 205 -77 29 -21 76 -45 103 -54 39 -13
49 -21 47 -35 -2 -11 -7 -55 -10 -99 l-7 -80 -50 -16 c-34 -12 -73 -16 -128
-13 -56 2 -88 -1 -108 -11 -40 -21 -52 -47 -33 -73 18 -26 67 -29 118 -8 24
10 59 12 122 9 99 -6 124 -15 124 -42 0 -10 6 -36 14 -58 17 -49 12 -58 -42
-77 -57 -20 -119 -58 -164 -100 -48 -44 -48 -59 -3 -83 21 -12 54 1 110 43 17
12 49 30 73 39 48 20 67 12 75 -33 13 -69 42 -154 77 -227 21 -44 52 -111 70
-150 18 -38 52 -101 75 -140 24 -38 97 -176 163 -306 66 -130 132 -254 146
-275 14 -21 26 -44 26 -51 0 -6 25 -66 55 -132 30 -66 55 -124 55 -129 0 -5
18 -48 40 -96 22 -47 40 -92 40 -98 0 -12 45 -131 120 -318 21 -52 41 -111 43
-130 3 -19 8 -42 12 -52 8 -21 -23 -32 -58 -19 -30 11 -61 -6 -52 -29 3 -8 35
-31 72 -50 52 -27 69 -41 74 -63 10 -36 -7 -43 -65 -27 -24 6 -54 10 -67 8
-47 -6 -25 -33 61 -74 47 -22 90 -47 96 -55 5 -8 23 -68 39 -134 15 -66 39
-159 52 -207 12 -48 28 -122 33 -165 6 -43 15 -105 21 -138 5 -33 12 -141 16
-240 7 -239 -13 -398 -68 -551 -16 -44 -29 -89 -29 -99 0 -28 -96 -212 -144
-275 -22 -30 -49 -67 -58 -82 -10 -16 -24 -28 -33 -28 -18 0 -59 62 -75 115
-41 134 -66 175 -105 175 -61 0 -57 -52 17 -195 28 -55 60 -117 71 -139 l20
-38 -41 -42 c-23 -22 -59 -59 -80 -81 -21 -22 -62 -51 -92 -65 -30 -14 -101
-49 -158 -78 -56 -29 -135 -67 -175 -83 -40 -17 -77 -32 -82 -35 -6 -2 -18 1
-28 8 -12 10 -19 37 -26 104 -5 50 -23 136 -40 190 -16 54 -33 117 -37 139 -4
22 -17 61 -31 88 -24 47 -48 60 -60 31 -10 -27 14 -155 58 -309 27 -96 34
-268 10 -289 -37 -33 -258 -45 -276 -15 -3 5 5 39 19 77 35 97 42 171 21 211
-13 26 -21 32 -43 29 -25 -3 -27 -7 -33 -63 -14 -141 -83 -249 -157 -247 -59
1 -209 73 -297 141 -33 26 -85 63 -115 84 -127 85 -167 117 -195 157 -93 129
-308 377 -430 493 -33 31 -67 64 -75 73 -8 9 -51 52 -95 97 -44 45 -105 113
-135 150 -152 188 -381 407 -479 457 -20 10 -60 34 -88 53 -29 20 -77 44 -106
55 -29 11 -77 34 -106 51 -28 17 -56 31 -61 31 -5 0 -64 27 -132 61 -115 56
-131 61 -222 69 -94 9 -101 9 -160 -16 -33 -14 -79 -30 -101 -35 -47 -12 -65
-25 -65 -49 0 -42 59 -62 117 -39 62 25 142 38 226 39 98 0 135 -11 196 -61
24 -19 67 -38 110 -50 91 -24 199 -78 259 -127 26 -21 80 -56 120 -77 89 -46
290 -234 378 -353 32 -42 146 -165 253 -272 108 -108 210 -214 226 -235 16
-22 62 -74 102 -115 86 -90 147 -166 195 -241 46 -73 106 -122 224 -185 52
-28 110 -65 127 -81 50 -47 144 -100 242 -135 89 -33 91 -33 270 -33 100 0
211 6 250 13 93 17 255 68 326 103 31 16 81 38 110 49 30 12 64 28 76 35 12 8
45 23 73 34 67 25 181 104 218 151 17 20 53 54 82 76 40 30 78 78 160 202 60
89 115 182 123 205 8 23 31 92 51 152 87 256 106 495 65 825 -33 271 -36 292
-58 355 -23 65 -51 186 -51 223 0 40 38 23 121 -56 43 -39 72 -40 77 -1 4 37
-32 76 -136 147 -103 71 -107 75 -116 124 -5 30 -3 39 11 46 10 5 27 6 38 1
40 -16 84 -10 96 13 10 18 8 24 -11 40 -12 10 -41 22 -63 28 -84 21 -105 36
-117 82 -21 80 -32 113 -71 212 -21 54 -39 105 -39 113 0 9 -11 41 -24 72 -13
31 -42 106 -66 166 -23 61 -55 138 -71 173 -16 35 -29 65 -29 67 0 5 -88 197
-106 230 -9 17 -39 75 -67 130 -28 55 -59 112 -68 126 -10 14 -63 113 -117
220 -55 107 -110 214 -122 239 -13 25 -27 53 -32 63 -4 9 -12 25 -17 35 -46
88 -82 192 -102 297 -4 22 -12 56 -17 75 -11 39 -47 182 -62 248 -6 23 -10 61
-9 85 0 46 22 197 38 267 6 25 15 70 22 100 18 85 83 232 166 373 79 134 95
147 135 110 30 -27 66 -4 74 47 4 22 14 45 23 49 22 11 121 27 268 42 115 12
125 11 196 -9 42 -12 88 -22 103 -22 59 0 201 -33 240 -56 22 -13 52 -24 65
-24 13 0 41 -11 61 -25 31 -21 37 -31 40 -67 2 -36 7 -44 26 -46 15 -2 32 7
52 28 31 33 36 34 108 4 32 -13 32 -14 32 -82 0 -64 -2 -70 -30 -90 -29 -22
-30 -24 -30 -113 0 -86 1 -90 26 -101 18 -8 31 -9 42 -2 22 14 52 141 60 254
l7 95 31 3 c18 2 39 -4 53 -15 22 -18 22 -19 12 -163 -6 -80 -11 -176 -11
-215 0 -54 -5 -78 -21 -105 -18 -29 -21 -45 -16 -99 10 -127 85 -113 93 18 1
31 8 146 14 256 6 110 13 214 16 230 11 57 56 83 84 50 10 -12 10 -28 2 -73
-20 -108 -27 -183 -38 -412 -4 -89 -12 -166 -19 -180 -18 -37 -27 -113 -16
-142 17 -46 72 -44 87 4 4 12 8 99 9 193 2 93 8 211 14 260 31 245 43 321 54
331 23 23 72 26 90 7 14 -16 15 -28 6 -88 -6 -39 -9 -153 -9 -255 2 -224 3
-195 -10 -365 -11 -138 -11 -140 11 -158 19 -15 24 -16 43 -4 21 14 21 20 21
338 1 312 4 367 27 472 8 38 15 48 35 53 17 5 30 1 43 -12 17 -17 18 -28 9
-109 -6 -52 -7 -182 -2 -310 8 -243 7 -292 -2 -413 -8 -90 6 -132 45 -132 39
0 43 32 36 240 -15 370 -15 455 -5 580 12 133 23 160 64 160 13 0 27 -6 33
-12 17 -22 24 -94 13 -136 -8 -27 -8 -62 -1 -113 18 -136 20 -435 2 -529 -18
-102 -18 -119 -1 -156 17 -35 40 -41 64 -17 16 16 17 40 10 338 -9 417 -9 406
-5 505 1 49 8 94 16 107 15 24 70 39 104 28 21 -7 22 -11 15 -59 -6 -44 -19
-406 -17 -461 0 -11 2 -130 4 -264 3 -223 5 -245 21 -255 15 -9 22 -7 37 12
17 21 18 36 12 220 -3 108 -6 217 -5 242 6 275 18 507 29 557 5 27 45 56 66
48 12 -5 16 -43 21 -210 4 -113 12 -251 18 -307 6 -57 8 -137 5 -178 -20 -220
-16 -254 32 -248 36 4 38 22 31 248 -14 391 -17 577 -10 649 6 70 8 76 37 93
25 15 34 16 48 5 15 -11 16 -23 7 -127 -12 -130 -20 -607 -12 -659 8 -47 36
-63 60 -34 15 18 17 36 14 115 -14 312 6 702 37 741 11 13 23 18 34 14 15 -6
17 -23 17 -129 0 -127 4 -231 16 -423 8 -126 8 -140 -2 -255 -7 -81 -6 -86 15
-98 41 -25 48 -2 51 153 1 77 -2 217 -6 310 -10 193 -10 206 -5 368 5 126 9
135 66 149 47 12 48 7 49 -289 0 -153 -2 -304 -5 -337 -4 -49 -2 -61 13 -70
15 -9 22 -7 38 13 17 21 20 38 18 125 -1 56 0 213 2 351 l4 249 35 23 c19 13
43 23 55 21 19 -3 20 -9 17 -121 -3 -116 -2 -117 22 -129 56 -25 67 28 46 212
-8 69 -7 87 4 99 22 21 46 6 46 -28 0 -42 9 -61 30 -61 29 0 35 18 36 106 0
80 1 82 49 150 61 87 140 239 159 307 8 29 20 97 26 152 6 55 17 136 25 180
44 250 43 514 -2 625 -6 14 -16 50 -23 80 -7 30 -23 74 -36 97 -13 23 -24 50
-24 60 0 11 -16 51 -35 90 -19 39 -35 76 -35 82 0 6 -21 51 -47 99 -26 48 -58
110 -71 137 -34 69 -73 124 -143 203 -33 37 -69 79 -80 94 l-19 27 45 51 c37
41 45 58 45 89 0 67 -34 64 -105 -8 -21 -23 -46 -41 -55 -41 -9 0 -54 30 -100
66 -46 36 -105 76 -130 89 -72 36 -75 45 -45 103 20 39 24 54 16 75 -13 32
-26 40 -57 33 -19 -5 -32 -21 -49 -60 -13 -29 -31 -56 -41 -60 -10 -4 -52 4
-93 18 -135 44 -215 66 -241 66 -14 0 -45 10 -70 22 -45 22 -56 23 -289 33
-68 3 -109 9 -116 17 -7 7 -20 59 -30 116 -14 80 -23 107 -39 118 -25 17 -48
18 -64 2z m1486 -2767 c11 -7 12 -19 3 -62 -6 -30 -9 -96 -7 -147 l4 -93 -35
-28 c-22 -19 -42 -27 -55 -23 -19 5 -20 10 -13 126 4 67 11 129 16 138 5 9 9
26 9 37 0 11 12 29 26 40 30 23 33 24 52 12z m132 -136 c0 -28 -23 -65 -41
-65 -26 0 -36 56 -14 80 14 15 22 17 36 9 11 -5 19 -16 19 -24z"/>
<path d="M26550 10323 c-101 -11 -147 -25 -209 -65 -78 -50 -154 -124 -181
-179 -29 -56 -51 -51 -90 19 -39 70 -135 163 -203 197 -64 31 -109 32 -211 0
-73 -22 -87 -31 -143 -87 -67 -67 -93 -124 -93 -203 0 -44 68 -173 146 -277
24 -31 50 -72 60 -90 9 -18 35 -58 58 -88 108 -144 175 -254 176 -288 0 -35
16 -57 55 -81 19 -11 40 -32 45 -45 12 -33 64 -60 88 -47 11 6 40 52 65 103
29 57 72 122 112 168 36 41 87 104 113 139 96 131 147 173 253 210 65 22 166
80 196 113 76 82 102 200 63 290 -29 67 -122 172 -175 198 -40 20 -53 21 -125
13z m116 -94 c19 -11 53 -49 74 -82 50 -76 53 -125 12 -210 -34 -71 -83 -108
-224 -168 -115 -50 -159 -87 -223 -188 -21 -35 -56 -74 -76 -88 -43 -29 -101
-95 -152 -175 -23 -36 -44 -58 -55 -58 -20 0 -80 67 -98 110 -6 14 -36 53 -66
86 -54 58 -74 86 -151 207 -20 33 -48 73 -62 89 -14 16 -25 33 -25 37 0 4 -24
40 -54 80 -46 62 -55 81 -60 132 -6 52 -4 64 19 102 14 24 33 51 43 60 27 25
119 68 158 74 51 8 148 -24 186 -61 33 -33 122 -166 156 -232 28 -54 54 -76
89 -72 27 3 28 6 34 63 11 114 94 224 209 277 110 51 202 57 266 17z"/>
<path d="M29835 10234 c-11 -3 -74 -23 -140 -44 -66 -21 -167 -50 -225 -65
-58 -14 -161 -44 -230 -65 -69 -21 -159 -45 -202 -55 -180 -39 -364 -159 -457
-299 -40 -61 -154 -287 -171 -341 -7 -22 -17 -45 -21 -51 -5 -6 -18 -35 -28
-65 -11 -30 -28 -79 -39 -109 -11 -30 -27 -113 -36 -184 -23 -176 -8 -263 88
-519 28 -72 28 -73 123 -219 68 -105 151 -181 253 -233 30 -15 66 -39 81 -54
71 -71 102 -94 174 -127 42 -20 102 -42 132 -50 30 -8 85 -27 123 -43 102 -44
212 -71 345 -87 235 -28 510 -52 543 -47 46 7 208 -23 338 -63 62 -19 118 -34
124 -34 19 0 181 -76 247 -116 84 -50 136 -96 158 -140 11 -21 27 -48 37 -59
32 -38 107 -150 143 -212 32 -56 85 -205 115 -323 6 -25 20 -72 30 -105 84
-277 65 -781 -44 -1162 -10 -34 -16 -120 -20 -250 -6 -217 -16 -324 -47 -483
-59 -308 -58 -491 7 -760 7 -30 22 -91 32 -135 10 -44 38 -117 60 -162 23 -46
42 -91 42 -101 0 -11 8 -30 19 -43 10 -13 27 -49 37 -79 25 -73 82 -151 148
-200 30 -23 62 -52 71 -66 34 -52 109 -80 134 -50 19 22 -1 50 -62 89 -67 43
-140 114 -167 163 -12 22 -36 66 -55 99 -19 33 -46 85 -60 115 -15 30 -38 76
-51 101 -13 26 -24 59 -24 73 0 15 -6 39 -14 54 -7 15 -16 50 -20 79 -4 29
-14 71 -23 95 -17 48 -42 247 -43 348 0 87 22 253 65 475 7 39 16 169 20 290
6 211 11 254 42 375 30 116 47 214 69 410 2 25 7 65 10 90 13 105 -2 489 -20
519 -4 6 -11 39 -16 71 -5 33 -16 75 -25 92 -9 18 -19 53 -22 78 -3 25 -9 50
-14 56 -5 5 -15 35 -23 65 -31 112 -39 134 -72 197 -19 36 -46 78 -59 94 -14
16 -25 34 -25 38 0 5 -13 24 -29 42 -16 18 -48 70 -71 116 -35 67 -50 87 -84
106 -22 12 -79 45 -126 71 -167 96 -191 106 -292 132 -226 56 -502 98 -623 95
-38 -1 -164 7 -280 18 -187 18 -220 23 -300 54 -49 18 -112 41 -140 51 -27 9
-73 25 -102 35 -29 10 -91 44 -138 75 -48 31 -96 60 -108 64 -12 5 -33 21 -46
35 -14 15 -53 42 -86 61 -77 43 -91 58 -70 75 12 10 30 10 92 -1 95 -17 310
-14 408 6 38 8 93 17 120 20 54 7 240 48 427 95 142 36 266 96 438 211 111 75
251 182 302 232 21 19 24 67 6 85 -24 24 -53 12 -108 -46 -91 -96 -269 -227
-390 -287 -30 -15 -69 -38 -86 -51 -42 -32 -158 -68 -284 -88 -58 -9 -123 -21
-145 -27 -22 -5 -78 -16 -125 -24 -47 -7 -96 -18 -110 -23 -72 -27 -236 -30
-443 -8 -106 12 -154 13 -168 6 -27 -15 -41 -4 -90 65 -48 68 -103 189 -119
260 -7 28 -16 64 -21 80 -28 84 -39 142 -39 203 0 97 17 197 40 242 11 22 20
51 20 65 0 14 4 33 10 43 18 33 60 141 60 157 0 8 24 61 53 116 28 55 63 123
77 149 41 79 153 196 224 233 116 60 159 75 446 152 69 18 148 40 175 48 28 9
100 29 160 46 61 17 142 40 180 51 111 32 356 22 455 -18 23 -10 176 -39 325
-63 33 -5 108 -25 166 -44 59 -19 113 -35 121 -35 8 0 54 -25 104 -56 107 -68
157 -96 339 -188 167 -85 212 -115 297 -198 187 -182 269 -258 323 -301 64
-49 113 -104 161 -177 16 -25 58 -77 94 -117 63 -69 150 -212 150 -247 0 -18
13 -42 53 -100 15 -21 32 -56 37 -76 6 -21 21 -54 35 -74 14 -20 25 -42 25
-47 0 -6 7 -25 15 -42 8 -18 26 -70 40 -116 13 -46 29 -89 35 -96 16 -19 47
-122 60 -199 6 -38 18 -82 26 -97 8 -15 14 -48 14 -73 0 -25 5 -57 11 -73 14
-35 20 -367 8 -448 -5 -33 -16 -114 -24 -180 -9 -66 -26 -149 -39 -185 -13
-36 -31 -92 -41 -125 -9 -33 -29 -89 -45 -125 -16 -36 -40 -100 -55 -142 -38
-114 -99 -237 -149 -306 -52 -70 -86 -133 -86 -159 0 -27 -55 -120 -101 -172
-76 -86 -156 -223 -178 -307 -12 -44 -30 -99 -40 -124 -10 -25 -31 -99 -45
-166 -22 -102 -27 -155 -33 -345 -5 -210 -4 -229 16 -302 12 -44 29 -93 38
-110 8 -17 22 -60 29 -95 15 -73 122 -317 183 -419 23 -37 51 -94 63 -126 23
-64 15 -56 273 -295 94 -86 190 -169 215 -184 25 -14 61 -43 80 -64 20 -22 53
-53 75 -70 64 -50 50 -54 -193 -53 -119 0 -228 -4 -242 -9 -14 -5 -47 -13 -75
-17 -93 -13 -277 -132 -428 -275 -79 -74 -107 -117 -107 -163 0 -29 -25 -53
-65 -62 -184 -38 -380 -109 -430 -155 -16 -15 -56 -42 -89 -60 -113 -62 -163
-149 -197 -349 -12 -72 -12 -74 10 -92 29 -24 32 -24 59 1 18 17 22 32 22 88
0 53 5 76 25 111 14 23 25 48 25 55 0 52 174 186 310 239 149 58 294 87 340
69 14 -6 76 -52 139 -102 116 -93 142 -104 165 -68 16 26 0 46 -83 101 -40 27
-90 66 -111 87 -33 33 -39 46 -45 98 -9 77 8 115 82 182 128 117 409 252 523
250 105 -1 396 10 530 20 202 15 180 21 270 -72 79 -81 80 -82 182 -114 57
-18 128 -42 158 -53 30 -11 71 -20 90 -21 33 0 115 -20 245 -60 85 -27 151
-37 390 -61 198 -20 215 -20 300 -5 50 9 106 20 125 26 52 15 95 12 142 -9 24
-11 81 -29 128 -41 149 -38 231 -72 321 -132 160 -106 226 -205 234 -346 5
-97 -16 -167 -75 -248 -61 -82 -138 -120 -292 -145 -68 -11 -168 -24 -223 -29
-55 -4 -120 -12 -145 -18 -25 -6 -92 -18 -150 -27 -58 -9 -136 -23 -175 -30
-160 -31 -300 -35 -553 -16 -177 13 -215 22 -359 86 -122 54 -224 84 -319 93
-80 7 -108 14 -129 30 -34 27 -57 28 -79 3 -21 -23 -15 -49 17 -79 23 -22 35
-25 242 -52 94 -13 149 -29 281 -83 60 -25 130 -51 155 -57 47 -13 349 -42
434 -42 81 1 326 31 425 54 25 5 79 14 120 19 120 14 274 37 290 43 15 6 110
22 210 35 96 14 153 34 216 78 34 24 67 43 74 43 7 0 36 -15 64 -33 28 -19 80
-51 114 -73 137 -84 182 -117 307 -222 206 -172 225 -200 225 -331 0 -105 -25
-173 -90 -244 -43 -48 -58 -57 -132 -80 -46 -14 -114 -29 -153 -32 -38 -3
-104 -8 -145 -11 -41 -3 -112 -17 -158 -31 -79 -23 -91 -24 -290 -20 -114 3
-259 5 -322 6 -63 0 -153 0 -200 0 -47 1 -123 10 -170 21 -201 46 -319 62
-506 70 -105 4 -197 11 -204 15 -6 4 -46 11 -88 15 -42 5 -128 15 -191 24 -65
9 -184 15 -275 15 -89 0 -197 5 -241 12 -44 6 -132 14 -195 19 -63 4 -146 17
-185 28 -38 11 -93 24 -121 27 -45 6 -55 4 -74 -15 -19 -19 -20 -24 -8 -36 7
-8 34 -18 58 -23 25 -5 90 -21 145 -36 76 -20 113 -25 155 -21 54 5 178 -10
273 -35 33 -8 74 -9 130 -4 187 19 312 9 527 -40 100 -23 142 -27 315 -30 159
-2 222 -8 305 -25 58 -12 108 -24 112 -26 3 -2 53 -13 110 -25 86 -17 119 -19
203 -13 104 9 132 9 429 0 168 -5 186 -4 290 20 62 15 166 30 236 35 180 12
237 22 316 58 90 42 136 88 186 186 39 77 41 84 41 175 1 135 -16 177 -106
270 -77 80 -150 144 -228 200 -26 19 -74 55 -106 80 -32 25 -89 63 -128 84
-38 21 -83 49 -98 62 -23 20 -36 23 -63 18 -42 -8 -46 11 -9 46 40 38 68 147
68 262 -1 93 -2 100 -37 162 -79 141 -311 313 -472 349 -43 10 -101 23 -129
29 -79 18 -82 26 -23 67 77 54 113 129 113 236 0 76 -3 84 -40 144 -24 38 -60
79 -90 101 -85 63 -115 96 -115 126 0 15 -18 60 -40 100 -39 70 -40 76 -40
166 0 62 5 100 14 113 7 11 30 58 51 105 21 47 50 104 66 127 35 53 69 129 69
155 0 21 -24 70 -49 101 -9 10 -28 17 -50 17 -43 0 -128 -38 -156 -70 -11 -12
-47 -44 -81 -71 -59 -46 -85 -85 -115 -169 -16 -42 -162 -189 -234 -235 -63
-41 -76 -56 -73 -86 l3 -24 -146 4 c-114 2 -155 0 -192 -13 -31 -10 -82 -16
-148 -16 -264 0 -466 -55 -538 -147 -109 -138 -115 -156 -81 -242 17 -43 17
-51 4 -62 -16 -13 -91 -7 -121 11 -10 5 -34 16 -53 23 -19 8 -92 66 -161 129
-69 63 -141 125 -160 138 -19 13 -103 86 -186 163 l-153 138 -75 157 c-42 86
-83 168 -91 182 -8 14 -24 45 -36 70 -11 25 -33 72 -48 105 -16 33 -34 78 -41
100 -7 22 -21 65 -32 95 -11 30 -24 75 -30 100 -19 83 -10 442 12 528 6 20 15
73 22 117 6 44 20 98 30 119 11 22 19 51 19 65 0 31 49 138 84 184 14 18 29
44 35 59 5 14 37 62 70 105 32 43 78 121 102 173 47 106 61 131 99 176 34 40
184 390 209 490 5 18 11 36 15 42 9 15 51 165 69 247 48 215 58 321 58 616 0
205 -2 228 -21 271 -11 25 -23 68 -26 95 -3 26 -9 57 -13 68 -13 33 -50 158
-54 185 -10 53 -76 212 -114 272 -13 21 -23 44 -23 53 0 8 -13 41 -29 72 -17
32 -53 105 -81 163 -70 144 -103 195 -169 265 -32 33 -69 78 -83 101 -33 51
-173 213 -208 239 -40 30 -244 210 -330 291 -41 39 -91 79 -110 89 -19 10 -56
33 -83 52 -26 19 -73 43 -105 52 -52 16 -141 64 -335 179 -38 22 -84 43 -102
46 -19 4 -60 20 -91 36 -31 17 -66 30 -79 30 -12 0 -40 6 -61 14 -22 7 -79 16
-129 20 -49 4 -126 17 -170 28 -44 11 -114 27 -155 34 -79 15 -341 27 -375 18z
m5063 -6017 c2 -19 -25 -84 -88 -212 -92 -183 -92 -184 -95 -267 -2 -63 2 -93
16 -126 11 -24 19 -50 19 -58 0 -21 -36 -17 -78 9 -79 49 -202 98 -256 104
-31 3 -61 12 -68 21 -13 15 -9 20 90 99 62 50 192 209 208 255 22 64 52 105
92 129 20 13 52 36 70 51 44 38 86 36 90 -5z m-603 -596 c196 -27 243 -45 418
-158 264 -171 327 -247 313 -381 -8 -77 -31 -120 -83 -154 -61 -39 -101 -51
-273 -80 -95 -16 -243 -16 -340 0 -41 7 -113 15 -160 18 -49 4 -126 18 -180
34 -52 16 -124 34 -160 41 -129 24 -217 48 -330 88 -63 23 -115 41 -117 41 -1
0 -7 16 -13 35 -7 21 -31 52 -60 76 -44 37 -120 147 -120 173 0 6 20 45 44 86
35 61 54 81 97 107 121 72 194 84 536 86 133 1 245 5 249 10 4 4 15 5 23 2 9
-2 79 -13 156 -24z"/>
<path d="M24012 10020 c-55 -25 -156 -132 -177 -188 -16 -40 -16 -44 5 -87 20
-42 88 -102 133 -118 50 -18 166 76 187 152 14 53 12 113 -5 138 -9 13 -13 32
-10 45 4 17 -1 30 -17 45 -34 32 -67 36 -116 13z m72 -135 c3 -9 3 -36 -1 -60
-4 -35 -14 -52 -40 -75 -49 -43 -89 -37 -118 20 -22 42 -19 58 18 94 27 28 40
33 83 35 39 1 53 -3 58 -14z"/>
<path d="M34970 9907 c-31 -16 -108 -150 -112 -196 -4 -40 13 -50 39 -23 95
99 163 178 163 188 0 8 -13 20 -30 29 -35 18 -29 18 -60 2z"/>
<path d="M23096 9655 c-82 -82 -98 -151 -48 -210 15 -17 35 -46 44 -64 32 -58
126 -71 170 -23 40 43 55 81 63 165 11 127 -6 148 -134 163 -57 6 -59 6 -95
-31z m134 -63 c20 -16 22 -24 15 -72 -13 -96 -67 -122 -112 -54 -14 23 -15 32
-4 72 18 69 57 90 101 54z"/>
<path d="M29527 9579 c-23 -13 -47 -68 -47 -107 0 -33 45 -107 74 -119 25 -12
105 4 135 26 23 18 40 72 41 128 0 50 -50 83 -126 83 -32 0 -67 -5 -77 -11z"/>
<path d="M28867 9496 c-22 -17 -37 -67 -37 -124 0 -158 192 -164 213 -8 7 47
5 52 -25 84 -57 59 -113 77 -151 48z"/>
<path d="M17366 9115 c-27 -13 -75 -26 -107 -30 -32 -4 -65 -13 -75 -20 -16
-12 -16 -14 2 -46 27 -45 54 -47 144 -8 59 26 90 32 145 33 120 2 136 -5 231
-100 47 -47 90 -84 96 -82 25 9 33 37 19 60 -8 13 -22 37 -30 55 -22 44 -100
109 -166 138 -76 34 -188 34 -259 0z"/>
<path d="M18560 9035 c-162 -19 -262 -53 -275 -95 -7 -23 11 -69 30 -76 8 -3
41 12 76 35 33 22 77 45 97 51 20 5 112 13 204 16 146 6 170 5 192 -9 52 -34
102 -9 73 36 -38 58 -155 70 -397 42z"/>
<path d="M35310 8820 c-47 -21 -102 -46 -122 -55 -44 -19 -49 -42 -13 -51 31
-8 74 0 168 30 130 42 154 61 121 97 -24 27 -57 22 -154 -21z"/>
<path d="M17523 8522 c-8 -5 -14 -44 -17 -102 -9 -174 -25 -240 -60 -240 -22
0 -31 114 -16 198 15 80 11 98 -24 114 -20 8 -29 8 -41 -2 -12 -10 -15 -40
-15 -165 0 -140 -2 -155 -21 -179 -26 -33 -19 -72 16 -88 33 -15 52 -5 69 35
18 45 31 52 58 33 62 -44 93 11 102 179 1 28 6 81 11 118 6 58 5 71 -10 87
-19 21 -33 24 -52 12z"/>
<path d="M17850 8515 c-8 -10 -10 -30 -5 -63 5 -37 3 -51 -9 -61 -27 -23 -50
-8 -79 52 -22 46 -32 57 -52 57 -33 0 -45 -27 -45 -103 0 -36 -7 -81 -15 -100
-16 -39 -8 -81 17 -90 18 -6 64 19 72 39 4 9 4 32 0 50 -5 30 -4 34 14 34 14
0 24 -10 31 -33 20 -59 86 -73 112 -25 7 12 16 49 21 82 5 34 11 77 14 98 9
56 -45 101 -76 63z"/>
<path d="M18033 8524 c-8 -4 -10 -23 -6 -59 7 -71 0 -97 -37 -118 -39 -24 -40
-59 -1 -98 34 -34 44 -36 70 -10 18 18 51 163 51 227 0 46 -37 74 -77 58z"/>
<path d="M18193 8524 c-8 -4 -9 -34 -6 -102 5 -90 4 -98 -16 -116 -28 -25 -27
-48 5 -80 33 -32 39 -32 69 -2 24 24 25 28 21 153 -4 107 -7 129 -22 140 -18
13 -30 15 -51 7z"/>
<path d="M18355 8420 c-4 -6 -4 -44 0 -84 7 -67 5 -77 -16 -105 l-23 -31 21
-28 c15 -20 29 -27 54 -27 46 -1 59 -11 59 -45 0 -20 7 -33 21 -41 35 -18 54
13 69 111 25 166 25 157 -8 189 -19 20 -36 28 -49 25 -12 -4 -31 4 -50 20 -32
27 -67 34 -78 16z m120 -130 c0 -48 -2 -55 -20 -55 -16 0 -21 8 -23 44 -4 54
3 73 25 69 15 -3 18 -14 18 -58z"/>
<path d="M23735 8295 c-22 -7 -69 -24 -105 -38 -36 -13 -99 -30 -140 -37 -41
-6 -97 -18 -124 -26 -27 -8 -68 -14 -91 -14 -44 0 -139 -43 -310 -141 -49 -28
-115 -65 -145 -81 -80 -44 -87 -50 -171 -143 -119 -132 -195 -273 -254 -470
-34 -114 -74 -300 -75 -342 0 -17 -4 -43 -9 -56 -17 -44 -31 -271 -21 -328 5
-30 14 -125 20 -211 8 -138 14 -171 44 -261 19 -56 40 -116 47 -132 26 -59
122 -231 156 -277 40 -55 185 -184 228 -202 17 -7 50 -30 75 -51 69 -58 385
-206 503 -236 22 -5 56 -18 76 -29 40 -20 124 -42 236 -61 39 -7 100 -23 137
-36 37 -12 89 -23 115 -24 27 0 73 -4 103 -9 37 -6 113 -3 230 7 203 19 321
11 369 -25 28 -20 202 -92 225 -92 6 0 38 -14 71 -30 33 -16 66 -30 73 -30 11
0 60 -27 208 -116 36 -22 102 -74 136 -109 75 -76 187 -277 222 -400 10 -33
30 -103 46 -155 52 -170 60 -226 59 -428 0 -234 -25 -443 -64 -558 -9 -27 -21
-71 -26 -99 -23 -135 -38 -215 -48 -265 -17 -81 -53 -430 -72 -694 -8 -114 -8
-170 0 -195 5 -20 15 -83 21 -141 20 -206 50 -406 70 -470 10 -34 62 -120 125
-209 55 -77 236 -258 286 -286 27 -14 77 -31 111 -36 35 -6 99 -19 143 -29 44
-11 148 -24 230 -30 83 -6 177 -14 210 -20 33 -5 155 -7 270 -5 192 5 219 8
315 34 127 35 249 81 299 114 20 14 52 28 71 32 45 10 162 90 222 152 26 26
54 68 63 93 27 73 88 307 105 405 12 66 18 85 50 165 54 132 147 307 189 355
17 20 40 52 50 73 26 49 117 135 161 152 19 8 46 22 60 33 49 36 164 100 199
110 65 18 149 19 253 3 57 -8 139 -18 183 -21 150 -12 250 -54 351 -147 69
-63 221 -272 235 -320 6 -23 21 -64 33 -93 13 -28 27 -78 31 -110 4 -33 16
-72 26 -86 10 -15 19 -34 19 -42 0 -21 110 -233 197 -378 98 -165 153 -237
271 -356 187 -189 302 -229 652 -224 102 2 192 7 200 11 8 4 114 10 235 14
190 5 228 9 275 27 104 40 150 62 207 100 65 44 208 181 229 220 7 15 31 41
53 58 22 18 43 42 47 54 3 12 16 33 29 47 35 38 144 224 161 274 8 24 30 61
49 83 18 22 48 67 65 101 17 34 35 64 41 67 14 9 45 76 52 112 4 18 17 50 31
70 14 21 30 67 37 103 6 36 17 81 24 100 29 79 40 198 40 420 0 162 4 239 14
276 13 49 13 54 -7 86 -12 20 -22 45 -22 56 0 30 -30 44 -61 28 -21 -10 -24
-18 -23 -66 0 -30 4 -78 9 -106 9 -59 -4 -91 -67 -167 -22 -26 -52 -76 -69
-112 -16 -35 -42 -79 -57 -97 -46 -52 -118 -164 -148 -226 -15 -31 -38 -70
-51 -85 -13 -16 -23 -35 -23 -43 0 -21 -64 -88 -139 -143 -68 -51 -222 -131
-251 -131 -26 0 -131 -29 -195 -55 -104 -41 -181 -49 -345 -36 -80 6 -173 14
-208 16 -35 3 -73 10 -85 17 -54 28 -186 143 -208 181 -13 22 -38 54 -54 71
-17 17 -36 43 -42 58 -7 15 -27 44 -46 65 -32 36 -104 155 -152 253 -13 25
-41 72 -63 105 -22 33 -47 81 -55 105 -8 25 -34 82 -56 127 -22 44 -43 94 -47
110 -13 57 -69 140 -150 223 -46 47 -93 98 -105 113 -12 16 -38 39 -58 52 -76
51 -160 122 -201 170 -91 108 -296 307 -335 325 -22 10 -87 32 -145 49 -57 17
-117 38 -134 46 -57 29 -141 43 -288 50 -120 6 -155 4 -195 -9 -26 -8 -109
-25 -183 -36 -129 -20 -141 -24 -270 -88 -127 -63 -141 -73 -248 -177 -62 -60
-123 -126 -135 -145 -12 -19 -36 -54 -53 -77 -18 -24 -36 -53 -40 -65 -4 -13
-27 -45 -52 -73 -50 -55 -90 -134 -99 -192 -3 -21 -16 -66 -29 -101 -14 -34
-22 -67 -18 -73 3 -6 0 -27 -8 -47 -53 -132 -78 -233 -78 -324 0 -104 -17
-220 -42 -287 -29 -77 -127 -177 -221 -227 -40 -20 -88 -47 -107 -59 -46 -28
-126 -55 -165 -55 -104 0 -243 144 -309 320 -16 41 -37 95 -47 120 -29 70 -59
198 -64 275 -7 97 -17 524 -15 615 1 41 3 183 4 315 5 371 14 561 35 661 10
50 21 97 25 103 18 28 26 152 26 365 0 126 -4 245 -9 265 -5 20 -14 65 -20
101 -6 36 -16 99 -22 140 -7 41 -16 83 -22 94 -5 10 -13 65 -18 121 -5 57 -18
141 -30 187 -11 45 -24 101 -29 123 -4 22 -13 56 -19 75 -17 54 -41 172 -41
204 0 37 -36 148 -66 201 -12 22 -45 85 -73 140 -28 55 -57 111 -65 125 -26
47 -46 101 -46 124 0 13 -9 31 -19 40 -36 32 -126 238 -151 346 -14 58 -49
173 -64 210 -7 19 -24 67 -36 105 -13 39 -37 95 -55 125 -18 30 -51 89 -73
130 -47 87 -249 324 -314 368 -24 16 -52 40 -63 52 -11 12 -54 45 -95 73 -41
28 -91 64 -111 81 -52 45 -147 101 -243 147 -79 37 -120 48 -241 69 -27 4
-104 17 -170 28 -66 11 -137 28 -158 37 -21 9 -91 20 -155 26 -65 5 -143 16
-175 24 -72 18 -208 18 -262 0z m251 -85 c15 -6 79 -15 143 -20 116 -10 161
-18 214 -39 24 -9 316 -72 423 -90 49 -9 149 -48 185 -73 15 -10 48 -27 73
-38 26 -11 68 -40 94 -64 26 -25 65 -58 87 -74 22 -16 67 -54 100 -84 33 -30
79 -67 102 -81 23 -15 60 -50 81 -79 22 -29 61 -77 88 -107 76 -84 209 -323
233 -418 6 -21 17 -65 26 -98 9 -33 20 -76 25 -95 25 -108 69 -229 121 -333
35 -70 59 -131 59 -150 0 -22 13 -49 42 -87 23 -30 74 -120 114 -199 66 -128
75 -155 93 -255 11 -61 33 -169 51 -241 42 -175 57 -253 70 -360 5 -49 17
-117 26 -150 14 -57 20 -92 44 -285 16 -122 13 -453 -4 -515 -53 -194 -67
-345 -67 -725 -1 -1007 0 -1082 12 -1133 45 -189 73 -273 133 -394 20 -40 36
-76 36 -81 0 -5 17 -29 38 -53 20 -24 54 -65 75 -91 37 -46 139 -108 178 -108
85 0 347 107 414 169 22 20 61 54 87 75 36 28 57 56 84 114 43 90 51 121 64
262 12 128 24 205 38 245 11 29 34 123 73 289 25 110 73 210 134 281 29 33 62
79 74 102 11 23 57 79 102 125 44 46 87 95 95 110 19 37 116 107 199 145 88
39 162 60 245 68 36 4 97 15 135 25 153 40 385 32 489 -16 28 -13 60 -24 72
-24 37 0 162 -48 211 -81 53 -35 106 -83 357 -323 322 -307 406 -397 433 -466
25 -64 66 -154 122 -268 107 -215 146 -290 169 -317 12 -15 22 -31 22 -36 0
-14 63 -112 138 -214 98 -133 219 -256 306 -309 82 -51 94 -53 356 -62 212 -7
230 -7 255 4 11 5 41 19 68 31 26 11 61 21 78 21 16 0 51 11 77 23 26 13 92
39 147 57 55 18 125 49 155 68 80 51 214 185 235 235 45 109 81 171 134 230
27 28 69 95 95 147 66 132 85 160 106 160 14 0 20 -10 25 -43 8 -55 0 -266
-13 -332 -16 -81 -38 -158 -50 -181 -19 -35 -42 -108 -42 -133 0 -13 -12 -44
-26 -69 -14 -24 -27 -54 -29 -67 -2 -24 -45 -84 -84 -119 -12 -11 -21 -29 -21
-40 0 -28 -42 -117 -64 -135 -9 -8 -37 -56 -62 -108 -25 -51 -49 -93 -53 -93
-12 0 -141 -131 -141 -142 0 -5 -24 -35 -54 -66 -29 -31 -57 -64 -62 -73 -5
-9 -43 -48 -85 -85 -62 -56 -94 -77 -175 -111 -54 -22 -108 -44 -119 -47 -11
-3 -123 -8 -250 -11 -126 -3 -262 -10 -301 -16 -39 -6 -142 -10 -230 -8 -158
4 -161 4 -225 37 -69 35 -224 154 -258 199 -132 171 -172 226 -186 252 -9 18
-38 66 -65 108 -28 41 -50 84 -50 94 0 9 -11 30 -24 46 -13 15 -27 39 -31 52
-4 14 -21 46 -36 72 -16 25 -29 53 -29 62 0 9 -11 40 -23 69 -13 29 -30 80
-37 113 -7 33 -18 74 -25 90 -45 107 -82 175 -110 205 -17 19 -42 52 -54 72
-27 46 -160 169 -218 204 -63 37 -170 64 -297 75 -61 5 -129 15 -151 21 -22 7
-95 12 -162 12 l-123 -1 -117 -57 c-152 -74 -238 -132 -307 -206 -56 -61 -139
-181 -162 -235 -7 -16 -29 -52 -48 -80 -20 -27 -41 -68 -47 -90 -6 -22 -20
-52 -30 -66 -10 -15 -25 -55 -33 -89 -8 -35 -20 -68 -25 -73 -6 -6 -11 -23
-11 -38 0 -15 -7 -43 -15 -62 -8 -20 -15 -51 -15 -69 0 -31 -15 -84 -46 -168
-7 -19 -15 -52 -19 -72 -11 -70 -153 -219 -228 -239 -23 -6 -100 -37 -172 -69
-240 -108 -507 -143 -785 -105 -58 8 -145 15 -193 15 -82 0 -267 26 -362 51
-78 21 -135 62 -253 184 -100 103 -125 135 -170 222 -43 84 -54 115 -62 182
-6 45 -15 93 -20 107 -6 14 -10 51 -10 83 0 31 -8 111 -17 176 -19 130 -21
397 -4 555 5 47 19 173 30 280 21 197 43 345 60 403 5 18 19 64 30 102 42 136
60 310 63 595 3 288 7 256 -61 472 -17 53 -31 107 -31 120 0 12 -12 41 -25 63
-14 22 -25 48 -25 58 0 46 -125 242 -214 336 -28 29 -78 72 -111 94 -70 48
-280 157 -302 157 -9 0 -48 18 -87 39 -39 22 -105 49 -146 62 -41 12 -88 31
-105 43 -27 19 -44 21 -155 21 -69 0 -173 -4 -232 -9 -118 -10 -357 6 -443 30
-27 8 -93 23 -145 33 -123 26 -267 82 -465 181 -88 44 -169 80 -180 80 -23 0
-67 26 -152 88 -171 125 -235 194 -322 346 -84 146 -125 282 -137 441 -5 82
-4 92 14 108 18 17 28 18 99 8 43 -6 103 -16 133 -22 30 -6 65 -13 77 -15 50
-9 118 -104 147 -204 4 -14 23 -62 43 -108 27 -65 32 -86 23 -97 -18 -22 -111
-45 -179 -45 -71 0 -101 -21 -101 -70 0 -48 34 -50 225 -16 49 9 97 14 105 11
14 -5 120 -183 120 -202 0 -5 12 -20 26 -34 15 -13 34 -40 43 -59 17 -39 94
-132 154 -188 20 -19 37 -41 37 -49 0 -7 11 -18 25 -25 45 -21 100 8 307 160
96 70 241 209 263 252 10 19 40 60 67 91 58 65 85 107 132 205 19 40 39 75 45
79 12 7 113 213 126 255 4 14 45 83 91 153 46 70 84 136 84 145 0 46 -54 56
-91 16 -25 -27 -109 -74 -131 -74 -8 0 -30 -11 -50 -25 -20 -13 -90 -52 -155
-85 -114 -59 -121 -61 -203 -64 -47 -1 -94 -7 -105 -13 -29 -15 -241 -7 -343
13 -75 15 -105 15 -231 6 -151 -11 -280 -1 -359 28 -19 7 -50 10 -71 6 -21 -3
-51 -2 -67 3 -16 5 -54 14 -84 21 -30 6 -82 20 -115 31 -33 10 -72 21 -87 24
-69 13 -68 144 2 522 19 101 97 349 119 377 4 6 11 22 14 36 7 27 87 156 154
247 54 74 95 101 386 257 115 61 263 110 387 126 123 16 185 30 250 54 71 27
205 35 256 16z m74 -1770 c13 -8 13 -11 0 -24 -28 -28 -134 -87 -147 -82 -24
10 -27 37 -5 58 11 11 44 29 73 39 64 22 60 21 79 9z m208 3 c-2 -5 -10 -21
-17 -38 -68 -147 -122 -253 -134 -263 -8 -7 -20 -26 -27 -42 -14 -34 -45 -40
-55 -10 -3 11 -22 42 -41 69 -50 73 -44 98 31 130 47 19 213 131 219 147 3 8
10 14 17 14 6 0 9 -3 7 -7z m-1193 -47 c39 0 94 4 123 9 l53 8 51 -54 c45 -49
108 -161 108 -194 0 -24 -120 -76 -215 -92 -160 -27 -152 -29 -196 56 -22 40
-39 80 -39 88 0 7 -18 49 -39 92 -47 93 -43 105 34 94 27 -5 82 -8 120 -7z
m505 -3 c41 -2 103 -5 136 -6 52 -2 65 -6 82 -27 34 -41 46 -78 32 -95 -17
-20 -112 -55 -200 -72 -138 -28 -127 -33 -187 87 -29 58 -51 111 -48 119 4 10
17 12 58 6 28 -4 86 -9 127 -12z m363 -316 c26 -51 47 -103 47 -116 0 -37 -68
-129 -175 -236 -87 -87 -149 -137 -299 -242 -39 -28 -86 -37 -106 -21 -28 23
-136 152 -167 198 -46 70 -153 258 -153 270 0 17 77 48 149 59 35 6 73 17 85
25 12 7 43 21 70 30 56 19 72 13 108 -41 91 -138 125 -190 141 -217 41 -69 85
-98 112 -76 22 18 18 35 -17 84 -45 61 -73 102 -110 161 -18 28 -42 63 -55 79
-38 46 -7 68 116 86 36 5 84 18 106 28 53 26 67 30 86 25 9 -3 37 -46 62 -96z"/>
<path d="M23515 7593 c-32 -8 -65 -44 -65 -72 0 -61 20 -99 69 -135 27 -20 60
-36 73 -36 36 0 63 35 64 84 1 22 5 53 9 69 9 34 -6 54 -60 78 -41 19 -54 21
-90 12z"/>
<path d="M22927 7488 c-32 -11 -77 -91 -77 -136 0 -37 32 -66 93 -82 59 -16
86 -4 111 46 21 44 20 52 -4 107 -31 70 -63 87 -123 65z"/>
<path d="M18635 8280 c-4 -6 -4 -23 -1 -38 7 -31 -15 -160 -35 -210 -13 -31
-12 -35 5 -48 24 -17 36 -17 60 1 31 23 58 243 36 286 -11 20 -54 26 -65 9z"/>
<path d="M16626 8222 c-3 -4 -1 -24 3 -45 5 -20 5 -95 1 -166 -4 -72 -3 -152
2 -178 5 -27 14 -84 21 -128 11 -72 14 -80 35 -83 24 -4 24 -3 16 65 -5 37 -8
162 -6 276 1 170 -1 214 -13 238 -15 27 -47 39 -59 21z"/>
<path d="M17917 8139 c-25 -15 -57 -83 -57 -124 0 -46 24 -69 93 -89 91 -26
133 -20 185 27 12 11 22 26 22 33 0 26 -91 119 -138 141 -51 25 -78 28 -105
12z m123 -104 c7 -9 6 -16 -5 -25 -19 -16 -65 1 -65 24 0 27 48 27 70 1z"/>
<path d="M35540 7419 c-30 -5 -79 -6 -108 -3 -87 10 -103 -24 -29 -62 30 -16
234 -23 276 -9 29 9 36 42 15 66 -19 21 -58 23 -154 8z"/>
<path d="M27752 7204 c-52 -26 -91 -64 -117 -115 -14 -26 -14 -29 3 -38 14 -7
27 -4 53 11 19 12 61 36 94 53 72 39 105 76 85 100 -18 22 -59 19 -118 -11z"/>
<path d="M3615 6681 c-51 -23 -63 -37 -100 -125 -36 -81 -24 -77 -173 -56 -71
10 -89 9 -133 -5 -55 -19 -114 -71 -161 -143 -35 -53 -56 -54 -129 -4 -72 49
-180 86 -226 79 -74 -12 -194 -116 -212 -184 -9 -35 -34 -40 -67 -14 -31 25
-57 27 -74 7 -9 -12 -3 -26 31 -71 46 -62 89 -90 123 -81 18 4 27 21 45 82 18
61 30 84 66 119 60 60 105 78 159 64 22 -6 58 -20 79 -30 49 -26 122 -125 131
-178 7 -47 40 -74 83 -69 24 3 28 8 31 40 2 21 -3 47 -12 61 -19 28 -9 72 24
115 12 15 31 42 43 61 29 45 99 80 158 81 54 0 151 -40 174 -73 8 -12 15 -31
15 -42 0 -55 94 -154 161 -170 32 -8 89 36 89 68 0 14 -33 56 -92 115 l-91 93
13 42 c35 116 43 129 100 146 79 24 223 -47 370 -181 35 -33 77 -67 92 -76 16
-9 28 -24 28 -34 0 -9 12 -37 28 -62 29 -49 64 -60 70 -21 3 21 -69 105 -89
105 -6 0 -8 7 -5 16 8 21 -17 67 -47 87 -14 9 -51 40 -83 70 -96 88 -171 135
-259 162 -96 30 -108 30 -160 6z"/>
<path d="M7580 6494 c-50 -28 -120 -92 -120 -109 0 -14 -32 -45 -47 -45 -6 0
-42 19 -79 42 -60 36 -76 41 -125 41 -96 -1 -167 -49 -189 -128 -14 -49 -32
-69 -72 -79 -24 -5 -28 -11 -28 -42 0 -45 26 -101 56 -121 22 -14 26 -14 49 1
17 11 25 26 25 44 0 34 35 136 61 178 24 39 80 68 117 59 35 -7 121 -61 128
-80 3 -8 -4 -28 -15 -44 -36 -51 -59 -113 -66 -183 -5 -56 -3 -72 14 -107 35
-68 94 -86 183 -56 62 22 83 66 75 162 -8 95 -20 146 -45 181 -12 16 -22 38
-22 47 0 47 127 175 174 175 57 0 178 -118 230 -223 26 -54 38 -94 46 -161 11
-93 13 -85 -35 -152 -14 -19 -13 -23 9 -47 35 -38 51 -34 82 19 29 50 44 142
33 209 -18 106 -93 260 -155 316 -64 56 -141 108 -179 118 -53 15 -53 15 -105
-15z m-149 -344 c16 -9 19 -22 19 -88 0 -111 -30 -147 -89 -106 -21 15 -22 21
-16 73 7 58 17 84 43 114 18 20 18 20 43 7z"/>
<path d="M35327 6352 c-9 -10 -17 -28 -17 -39 0 -34 24 -46 77 -39 41 6 57 2
107 -23 48 -24 62 -28 82 -19 34 16 30 41 -13 71 -46 32 -102 52 -169 61 -42
6 -53 4 -67 -12z"/>
<path d="M28144 6254 c-128 -67 -145 -85 -101 -105 19 -8 44 -4 123 21 116 37
124 41 138 64 9 14 6 22 -17 42 -15 13 -34 24 -41 24 -7 0 -53 -21 -102 -46z"/>
<path d="M28203 5463 c-5 -12 6 -28 36 -55 46 -40 85 -55 169 -65 42 -5 56 -2
72 12 46 42 11 72 -90 77 -60 2 -82 8 -104 26 -34 26 -74 29 -83 5z"/>
<path d="M3030 4270 c-47 -4 -101 -13 -120 -20 -53 -19 -223 -135 -256 -173
-93 -110 -134 -167 -172 -240 -23 -45 -57 -97 -75 -115 -56 -58 -183 -130
-318 -182 -88 -33 -224 -20 -434 42 -38 12 -75 25 -80 29 -6 4 -49 24 -95 44
-46 20 -103 52 -127 71 -61 50 -154 149 -185 197 -14 23 -38 53 -52 67 -36 36
-86 112 -86 132 0 20 -46 58 -69 58 -23 0 -61 -28 -61 -45 0 -8 18 -35 40 -60
22 -25 40 -54 40 -63 0 -9 8 -30 18 -47 10 -16 21 -54 25 -83 3 -29 13 -65 22
-80 15 -24 15 -37 2 -140 -11 -83 -13 -132 -5 -189 5 -43 7 -86 4 -98 -3 -11
-1 -63 4 -115 7 -89 12 -103 68 -215 67 -134 92 -163 172 -199 30 -13 107 -59
169 -100 113 -74 197 -112 296 -134 73 -16 229 -18 310 -3 39 7 84 14 100 16
127 12 196 31 330 92 184 83 250 116 285 144 19 14 53 35 75 46 80 40 261 145
280 163 43 39 121 55 265 53 280 -3 283 -4 399 -61 57 -29 114 -52 125 -52 32
-1 265 -132 316 -178 25 -23 62 -56 83 -74 22 -18 51 -46 65 -61 14 -15 42
-38 62 -50 19 -11 70 -48 113 -82 43 -33 92 -70 110 -83 18 -13 42 -32 54 -43
27 -26 67 -22 71 8 2 17 -15 35 -80 84 -46 35 -85 67 -86 71 -2 5 -41 33 -87
63 -91 61 -112 79 -202 182 -41 47 -83 82 -125 105 -35 20 -79 44 -98 55 -19
11 -60 34 -90 51 -30 17 -77 36 -103 42 -69 15 -117 37 -117 53 0 7 17 28 38
44 21 17 39 37 40 45 0 7 4 23 7 35 5 16 3 25 -9 29 -29 11 -62 -5 -126 -62
-48 -43 -68 -54 -84 -49 -11 3 -45 8 -73 12 -67 7 -77 19 -60 69 25 70 28 102
11 119 -9 8 -22 15 -29 15 -19 0 -45 -28 -45 -48 0 -28 -47 -120 -67 -130 -10
-5 -35 -12 -56 -16 -59 -11 -67 2 -67 103 0 47 -4 91 -8 97 -14 21 -47 33 -65
23 -14 -8 -17 -25 -17 -92 0 -100 -24 -150 -87 -185 -66 -36 -71 -29 -87 133
-2 17 -4 36 -4 42 -1 7 -13 20 -26 28 -20 13 -29 14 -46 5 -21 -11 -22 -17
-15 -73 4 -34 8 -88 10 -120 2 -33 8 -64 14 -70 21 -21 10 -35 -64 -83 -42
-27 -90 -59 -108 -71 -18 -13 -48 -30 -67 -39 -255 -122 -348 -160 -445 -186
-294 -79 -479 -75 -655 15 -86 44 -325 181 -347 199 -7 6 -26 38 -42 72 -16
34 -36 68 -44 75 -9 7 -23 34 -31 59 -17 52 -39 337 -35 447 2 42 -2 79 -9 93
-9 16 -10 27 -2 42 6 11 9 39 8 62 -4 58 21 63 52 11 43 -74 196 -193 275
-214 22 -6 83 -30 135 -53 141 -63 269 -96 374 -96 114 0 332 80 472 173 38
25 82 77 129 151 11 18 32 47 46 66 15 19 36 53 47 75 39 78 158 184 284 254
55 31 60 32 180 32 104 1 136 -3 205 -24 45 -14 115 -29 155 -33 40 -4 91 -15
113 -25 22 -10 50 -19 62 -19 22 0 115 -34 252 -92 40 -18 98 -51 129 -75 31
-24 61 -43 68 -43 15 0 145 -102 224 -175 30 -28 80 -69 110 -91 54 -40 307
-286 386 -374 22 -25 71 -72 110 -105 105 -87 243 -127 315 -89 17 8 29 20 26
27 -2 6 -35 16 -73 23 -136 23 -214 78 -440 312 -60 62 -149 145 -198 185 -49
40 -125 105 -170 145 -188 170 -358 286 -516 353 -175 74 -317 115 -460 134
-58 8 -147 23 -199 34 -52 12 -94 20 -95 19 -1 0 -39 -4 -86 -8z"/>
<path d="M19976 4175 c-78 -10 -92 -15 -111 -39 -32 -40 -75 -66 -111 -66 -73
0 -148 -45 -191 -113 -14 -23 -42 -67 -62 -97 -20 -30 -40 -64 -46 -75 -6 -11
-19 -32 -29 -47 -15 -22 -16 -41 -10 -130 7 -112 17 -146 63 -211 l29 -42 6
-455 c11 -808 16 -970 42 -1258 5 -59 8 -64 42 -84 20 -12 62 -50 92 -84 48
-54 66 -66 135 -94 44 -17 109 -44 145 -59 118 -52 178 -67 339 -81 166 -15
291 -37 458 -79 89 -23 175 -41 190 -41 39 0 201 50 243 75 45 27 192 81 300
109 124 33 170 60 170 102 0 12 11 36 25 52 24 28 25 36 23 134 0 56 1 182 4
278 l5 175 39 -2 c21 -1 59 -9 84 -18 140 -52 239 -70 348 -63 145 10 290 108
382 258 22 36 40 74 40 85 0 11 8 34 18 50 43 70 66 259 38 312 -9 18 -16 46
-16 64 0 61 -76 172 -184 271 -127 116 -189 146 -307 149 -94 3 -234 -13 -264
-29 -70 -38 -186 -84 -200 -78 -12 4 -15 14 -11 38 3 18 8 107 11 197 5 179
10 222 31 263 20 39 17 128 -5 179 -29 65 -85 113 -192 164 -54 25 -137 69
-186 99 -107 64 -231 106 -313 106 -17 0 -45 7 -62 16 -30 16 -226 44 -446 65
-164 15 -450 18 -556 4z m504 -75 c123 -9 209 -21 460 -61 125 -20 289 -73
340 -109 14 -10 88 -50 165 -89 77 -40 152 -85 167 -102 33 -35 45 -75 29
-100 -6 -10 -11 -42 -11 -70 0 -56 -37 -136 -74 -159 -25 -16 -161 -50 -200
-50 -33 0 -109 -12 -296 -47 -74 -14 -169 -27 -210 -28 -41 -2 -113 -10 -160
-18 -114 -20 -449 -41 -513 -32 -29 4 -79 9 -112 11 -33 2 -87 8 -120 14 -33
5 -93 14 -133 20 -88 13 -119 27 -184 87 -34 33 -48 53 -48 73 0 46 -31 124
-60 150 -57 52 -43 157 33 245 24 28 53 64 65 82 38 55 105 91 180 98 75 7 98
16 94 37 -4 23 66 49 126 47 28 -1 55 1 59 4 9 10 258 8 403 -3z m1128 -779
c16 -8 16 -28 10 -228 -15 -432 -10 -728 17 -998 25 -246 4 -608 -37 -652 -26
-28 -101 -59 -163 -68 -27 -4 -75 -20 -105 -35 -30 -15 -73 -33 -95 -40 -22
-7 -62 -25 -90 -40 -96 -54 -208 -74 -272 -49 -15 6 -57 15 -92 20 -35 5 -95
20 -135 34 -39 13 -110 29 -158 35 -48 6 -93 12 -100 15 -7 2 -63 9 -124 15
-124 11 -207 38 -368 116 -68 34 -108 60 -128 85 -17 21 -47 45 -68 53 -21 8
-41 20 -45 26 -4 6 -8 51 -10 99 -1 49 -7 103 -13 122 -22 70 -31 180 -32 384
0 116 -3 224 -5 240 -3 17 -7 205 -9 418 -6 428 -7 420 55 383 50 -29 109 -46
263 -72 254 -43 474 -42 846 6 41 5 120 15 175 20 55 6 161 22 235 36 216 39
245 44 276 44 16 0 56 9 89 19 33 11 61 20 63 20 2 1 11 -3 20 -8z m696 -291
c96 -52 168 -116 218 -195 36 -58 78 -197 78 -260 0 -85 -43 -233 -94 -319
-25 -42 -139 -156 -156 -156 -5 0 -34 -11 -64 -25 -45 -21 -70 -25 -144 -25
-76 0 -96 4 -138 26 -32 16 -84 30 -147 40 -54 8 -109 21 -122 30 -23 15 -25
23 -25 90 0 89 9 97 78 65 158 -71 299 -40 447 100 76 73 95 111 95 194 0 75
-83 189 -193 263 -93 64 -157 65 -280 7 -82 -39 -100 -55 -95 -82 5 -30 44
-27 95 8 67 46 131 51 204 14 107 -54 187 -159 173 -231 -10 -56 -58 -119
-127 -168 l-66 -47 -93 -2 c-90 -2 -95 -1 -138 29 -25 18 -62 39 -83 47 -20 9
-37 17 -37 19 0 2 -3 95 -6 208 -6 224 -2 253 43 272 16 7 69 36 118 65 101
59 177 80 292 82 69 1 77 -2 167 -49z"/>
<path d="M20325 1825 c-5 -1 -30 -8 -55 -16 -57 -16 -73 -27 -117 -79 l-37
-43 23 -18 c13 -11 27 -19 32 -19 5 0 30 19 56 43 45 41 47 42 127 45 83 3
207 -16 376 -58 47 -11 108 -25 135 -31 115 -25 207 -58 241 -88 42 -38 77
-39 110 -5 24 23 25 26 10 43 -29 32 -150 81 -222 90 -38 5 -83 17 -101 25
-17 9 -69 23 -115 31 -46 7 -102 20 -124 28 -23 8 -84 20 -135 27 -52 6 -112
15 -134 20 -41 10 -53 11 -70 5z"/>
<path d="M10050 4004 c-82 -38 -178 -64 -277 -75 -94 -11 -110 -16 -156 -47
-28 -19 -80 -48 -116 -65 -36 -17 -88 -46 -114 -64 -41 -28 -161 -73 -194 -73
-5 0 -18 -9 -29 -21 -18 -20 -18 -21 1 -35 45 -33 277 30 365 98 14 11 52 33
85 49 33 16 78 40 100 54 22 14 51 25 65 25 28 0 296 66 314 78 6 3 43 7 81 7
63 0 70 2 73 21 7 49 -126 82 -198 48z"/>
<path d="M2700 3208 c0 -2 -2 -54 -4 -116 -3 -104 -2 -113 16 -123 11 -6 30
-8 43 -5 18 5 23 15 28 53 10 85 -2 140 -35 168 -25 21 -47 32 -48 23z"/>
<path d="M10145 3094 c-41 -15 -79 -24 -220 -49 -66 -12 -112 -13 -262 -4
-149 9 -186 8 -210 -3 -38 -18 -35 -39 9 -61 30 -15 71 -19 250 -22 202 -4
219 -3 308 20 210 53 240 65 240 93 0 43 -44 52 -115 26z"/>
<path d="M15652 1963 l-20 -18 58 -175 c52 -157 95 -257 121 -284 5 -6 9 -22
9 -36 0 -15 9 -31 21 -38 17 -11 25 -11 45 3 29 19 31 42 5 69 -27 29 -85 165
-111 261 -13 44 -28 96 -35 115 -7 19 -16 48 -21 64 -5 16 -18 35 -30 43 -18
12 -24 11 -42 -4z"/>
</g>
</svg>
