<?xml version="1.0" standalone="no"?>
<!DOCTYPE svg PUBLIC "-//W3C//DTD SVG 20010904//EN"
 "http://www.w3.org/TR/2001/REC-SVG-20010904/DTD/svg10.dtd">
<svg version="1.0" xmlns="http://www.w3.org/2000/svg"
 width="2496.373077pt" height="840.561644pt" viewBox="0 0 2496.373077 840.561644"
 preserveAspectRatio="xMidYMid meet">
<metadata>
Created by potrace 1.13, written by Peter Selinger 2001-2015
</metadata>
<g transform="translate(-137.626923,966.862857) scale(0.100000,-0.100000)"
fill="#ffffff" stroke="none">
<path d="M7940 9653 c-97 -10 -261 -13 -590 -11 -468 2 -1044 -14 -1138 -31
-29 -6 -115 -13 -190 -16 -127 -6 -407 -38 -442 -51 -8 -3 -96 -10 -195 -14
-225 -11 -441 -28 -522 -41 -94 -14 -735 -28 -1318 -28 -291 0 -553 -5 -595
-10 -41 -6 -147 -11 -235 -11 -89 0 -238 -7 -331 -15 -120 -10 -275 -14 -519
-13 -347 3 -349 3 -376 25 -31 26 -71 30 -89 8 -20 -25 -27 -288 -22 -940 1
-143 0 -298 -1 -345 -2 -83 10 -216 20 -234 3 -5 7 -164 9 -355 4 -362 20
-776 31 -794 3 -5 8 -172 10 -371 5 -478 5 -447 0 -949 l-4 -439 23 -10 c18
-8 50 -4 149 22 l126 33 162 -13 c89 -8 245 -15 347 -16 164 -1 465 -20 480
-29 11 -7 1007 14 1195 25 105 6 289 19 410 30 121 10 258 17 305 16 47 -1
141 6 210 16 348 51 504 67 741 78 140 6 263 8 272 4 24 -9 211 13 352 41 287
57 553 77 1035 75 228 0 503 2 610 6 168 6 200 4 234 -10 21 -9 46 -16 56 -16
45 0 76 90 46 135 -15 22 -17 60 -18 273 -1 136 2 256 6 268 10 32 -26 61 -62
48 l-27 -10 0 -287 c0 -246 -2 -290 -15 -296 -27 -14 -413 -26 -895 -26 -258
0 -479 -4 -490 -7 -11 -4 -87 -12 -170 -18 -82 -5 -188 -19 -235 -29 -47 -10
-112 -22 -145 -26 -33 -4 -96 -13 -140 -20 -44 -7 -192 -16 -330 -19 -284 -7
-463 -19 -580 -40 -234 -43 -293 -49 -535 -57 -140 -4 -289 -12 -331 -18 -164
-22 -1139 -58 -1244 -46 -27 4 -88 2 -135 -3 -47 -6 -107 -7 -135 -2 -27 4
-183 13 -345 19 -162 6 -335 16 -385 23 -207 25 -286 26 -349 5 -38 -13 -64
-17 -73 -11 -11 7 -15 60 -21 239 -4 127 -5 273 -3 325 4 104 4 185 -2 700 -2
205 -8 363 -15 390 -8 35 -19 268 -24 550 0 8 1 114 2 235 1 159 -3 256 -15
350 -16 122 -22 350 -28 1010 -3 239 11 368 40 390 7 6 61 9 121 8 304 -7 754
-3 822 7 41 6 172 13 290 15 118 3 280 9 360 15 80 6 222 10 315 8 94 -1 420
0 725 4 518 6 761 17 815 38 12 5 130 14 261 20 276 13 387 23 499 44 44 8
138 17 207 20 70 3 164 9 210 15 46 5 92 9 103 9 11 0 63 5 115 11 52 7 185
11 295 10 125 -1 230 4 280 12 44 7 118 12 165 11 47 0 295 -3 552 -4 367 -2
470 -6 480 -16 28 -28 18 -1131 -12 -1345 -8 -58 -8 -103 0 -175 7 -53 13
-218 15 -367 1 -148 8 -324 14 -390 7 -75 9 -192 5 -312 l-6 -193 27 -12 c19
-8 31 -9 43 -1 15 9 17 36 19 209 1 109 -3 251 -10 314 -6 63 -12 230 -13 370
0 140 -4 318 -9 396 -6 107 -5 149 5 180 15 44 25 602 20 1093 -1 73 1 165 5
205 l6 71 -58 42 c-32 24 -65 42 -73 42 -8 -1 -76 -8 -150 -16z"/>
<path d="M6957 9133 c-4 -3 -7 -44 -7 -89 0 -77 -2 -84 -26 -103 -16 -13 -41
-21 -64 -21 -24 0 -43 -7 -54 -19 -17 -19 -17 -21 8 -45 18 -19 36 -26 65 -26
69 0 71 -3 71 -95 0 -97 10 -130 41 -140 17 -6 28 -1 45 18 21 25 22 28 8 76
-8 27 -14 76 -12 108 l3 58 59 31 c70 36 88 64 61 94 -13 15 -29 19 -63 17
l-45 -2 -18 64 c-10 36 -24 68 -31 73 -16 10 -32 10 -41 1z"/>
<path d="M5946 8954 c-20 -19 -20 -25 -2 -66 8 -18 24 -76 36 -128 40 -174 64
-242 92 -263 25 -19 28 -19 52 -3 19 12 26 25 26 49 0 36 35 154 52 174 17 21
42 15 70 -14 34 -36 48 -73 48 -128 0 -34 5 -47 19 -55 27 -14 34 -13 60 11
17 16 21 28 16 49 -9 40 9 45 49 15 52 -40 93 -42 165 -10 77 35 111 73 110
123 0 20 -4 46 -8 57 -5 12 -3 30 5 47 14 26 12 30 -21 67 -38 42 -107 66
-156 54 -58 -14 -149 -118 -149 -170 0 -39 -25 -37 -81 6 -118 90 -157 91
-196 5 -39 -86 -61 -65 -91 90 -19 96 -56 131 -96 90z m650 -112 c20 -13 44
-71 44 -107 0 -44 -26 -71 -76 -81 -32 -6 -40 -3 -56 16 -33 40 -22 88 35 148
33 34 36 36 53 24z"/>
<path d="M2466 8807 c-29 -22 -34 -62 -29 -204 6 -135 5 -141 -16 -162 -13
-13 -29 -20 -37 -17 -8 3 -43 8 -78 12 -55 6 -68 4 -93 -14 -37 -26 -82 -117
-90 -180 -10 -89 30 -208 87 -256 37 -30 55 -32 110 -10 47 19 69 47 102 129
24 60 52 81 69 53 5 -7 9 -47 9 -88 0 -98 14 -148 46 -162 20 -9 28 -9 39 3
12 12 13 29 5 104 -6 50 -17 126 -25 170 -43 238 -45 256 -35 390 6 72 12 146
15 165 5 27 2 40 -12 51 -27 24 -49 29 -67 16z m-91 -498 c28 -13 45 -28 45
-39 0 -16 -24 -61 -92 -173 -65 -108 -145 -5 -109 140 23 91 70 113 156 72z"/>
<path d="M3165 8769 c-27 -25 -49 -56 -55 -78 -13 -48 -13 -143 1 -178 17 -44
39 -132 39 -157 0 -12 -13 -35 -30 -51 -39 -37 -38 -48 5 -74 33 -19 35 -24
35 -73 1 -29 7 -82 15 -118 23 -103 20 -145 -11 -169 -15 -12 -39 -21 -55 -21
-34 0 -64 -38 -54 -68 7 -25 57 -46 87 -39 41 11 106 60 124 93 16 30 17 42 6
131 -7 54 -12 135 -12 180 0 73 2 84 22 97 12 9 35 16 51 16 36 0 87 26 87 45
0 8 -9 24 -21 36 -17 17 -28 19 -72 14 -80 -10 -94 6 -113 130 -23 148 -23
159 4 163 14 2 22 -2 22 -12 0 -24 40 -47 62 -35 39 21 10 156 -43 193 -34 23
-44 21 -94 -25z"/>
<path d="M10375 8610 c-16 -5 -64 -20 -105 -34 -41 -15 -100 -33 -131 -41 -31
-8 -81 -32 -110 -52 -30 -20 -79 -49 -109 -64 -52 -25 -119 -88 -181 -170 -18
-23 -41 -40 -70 -48 -51 -15 -153 -113 -176 -170 -8 -20 -23 -54 -33 -76 -10
-22 -21 -67 -25 -100 -4 -33 -16 -91 -27 -130 -28 -94 -42 -255 -41 -455 1
-171 7 -217 43 -360 17 -71 22 -124 26 -315 6 -311 11 -372 35 -396 22 -22 29
-23 53 -6 16 12 17 24 7 152 -5 77 -9 189 -9 249 0 155 -9 235 -43 366 -25 99
-30 137 -32 265 -2 156 13 313 40 425 9 36 23 110 32 166 14 84 24 113 59 172
45 75 82 110 147 136 50 21 81 50 106 99 11 20 39 51 62 68 52 39 293 159 318
159 10 0 53 11 96 24 188 56 253 63 334 36 35 -12 123 -28 194 -35 128 -14
152 -19 287 -58 87 -24 106 -40 173 -144 31 -47 74 -109 96 -137 93 -119 117
-154 138 -196 12 -25 37 -70 56 -100 38 -60 41 -67 79 -156 14 -34 26 -70 26
-81 0 -11 11 -78 24 -149 18 -97 23 -147 18 -204 -11 -154 -7 -286 20 -648 8
-115 9 -168 2 -180 -17 -27 -106 -28 -165 -3 -59 26 -119 27 -148 4 -19 -15
-20 -21 -9 -36 20 -27 204 -90 268 -91 30 -1 60 -4 67 -9 6 -4 14 -42 18 -85
4 -42 14 -93 22 -112 8 -19 17 -64 20 -100 6 -69 20 -90 58 -90 35 0 56 31 45
66 -8 24 -34 131 -57 231 -9 41 22 36 139 -20 62 -30 124 -58 138 -62 39 -12
49 -23 56 -70 5 -35 -1 -63 -30 -144 -72 -202 -97 -234 -182 -232 -61 1 -84
-10 -84 -41 0 -24 70 -57 138 -64 39 -5 51 -2 71 17 32 30 100 137 107 169 3
14 22 70 41 125 31 89 34 108 30 173 -4 50 -12 83 -28 110 -29 48 -36 52 -85
52 -31 0 -77 18 -182 71 -81 40 -143 78 -146 87 -2 9 -5 64 -6 122 -4 271 -11
361 -35 480 -12 56 -12 81 1 175 16 107 14 159 -6 260 -6 28 -17 91 -25 140
-20 126 -23 138 -83 250 -79 148 -222 384 -264 433 -16 18 -46 62 -68 97 -63
99 -113 139 -211 169 -152 46 -202 56 -279 57 -42 0 -106 9 -145 20 -38 10
-124 26 -190 34 -133 16 -128 16 -170 5z"/>
<path d="M2804 8421 c-98 -35 -112 -42 -143 -75 -67 -71 17 -304 116 -322 71
-13 200 49 191 94 -5 26 -36 26 -85 2 -37 -18 -49 -20 -69 -11 -38 17 -28 38
31 66 57 27 126 96 153 152 20 42 6 72 -48 102 -47 26 -48 26 -146 -8z m72
-82 c9 -16 -54 -77 -89 -85 -40 -8 -67 16 -46 42 16 20 86 53 111 54 9 0 20
-5 24 -11z"/>
<path d="M10450 8287 c-38 -20 -52 -38 -110 -141 -69 -123 -136 -201 -249
-289 -46 -36 -62 -42 -105 -43 -118 -3 -247 -18 -264 -30 -15 -11 -17 -32 -15
-211 1 -109 7 -218 12 -243 6 -25 13 -58 16 -75 25 -115 92 -222 218 -348 72
-70 107 -97 162 -122 39 -18 77 -40 85 -50 36 -44 218 -105 313 -105 38 0 84
-7 105 -16 39 -16 59 -15 172 12 88 21 155 42 218 70 29 13 56 24 59 24 22 0
192 127 266 199 70 68 98 104 135 175 26 49 53 101 61 115 8 14 18 64 23 111
5 47 14 106 19 131 17 76 -13 235 -61 329 -12 24 -28 62 -34 84 -8 28 -23 48
-46 64 -19 13 -40 36 -47 51 -7 15 -25 33 -40 39 -15 6 -105 16 -200 22 -226
14 -305 40 -417 138 -49 43 -200 132 -224 132 -5 0 -28 -10 -52 -23z m186
-150 c27 -19 74 -51 104 -71 109 -75 165 -97 269 -106 53 -5 139 -16 191 -24
52 -9 109 -17 125 -18 23 -2 31 -8 33 -27 2 -14 14 -39 27 -55 44 -58 100
-246 98 -326 -1 -25 -2 -81 -3 -125 -2 -78 -4 -83 -66 -194 -97 -175 -235
-306 -421 -400 -145 -72 -290 -102 -405 -83 -35 6 -97 16 -138 23 -75 11 -157
44 -195 79 -11 10 -49 32 -85 50 -79 39 -255 212 -293 287 -55 109 -86 278
-87 480 0 71 15 80 155 88 75 5 123 13 150 26 22 10 95 72 162 137 107 105
125 128 157 198 20 43 42 82 49 86 7 4 37 8 68 8 48 0 64 -5 105 -33z"/>
<path d="M10855 7815 c-14 -13 -25 -36 -25 -50 0 -27 31 -65 55 -65 24 0 85
60 85 84 0 54 -73 74 -115 31z"/>
<path d="M10186 7621 c-23 -25 -14 -54 21 -70 23 -10 30 -9 52 7 32 24 37 45
16 66 -22 22 -68 20 -89 -3z"/>
<path d="M10635 7380 c-27 -10 -65 -19 -84 -19 -18 -1 -71 -13 -118 -28 -114
-35 -163 -79 -163 -145 0 -55 31 -128 61 -147 12 -7 46 -21 75 -31 45 -16 77
-18 231 -14 231 7 274 15 328 65 23 21 57 66 74 99 29 53 31 63 22 98 -8 30
-20 43 -53 62 -24 13 -58 35 -76 48 -29 22 -44 25 -140 28 -85 2 -117 -1 -157
-16z m282 -100 c45 -27 51 -59 19 -112 -14 -24 -34 -48 -44 -55 -34 -21 -133
-33 -287 -35 -163 -2 -198 7 -231 57 -17 27 -8 57 24 74 41 22 144 51 181 51
22 0 52 5 68 11 26 11 125 24 203 27 19 1 49 -7 67 -18z"/>
<path d="M24888 8063 c-9 -10 -25 -36 -36 -59 -19 -38 -20 -43 -5 -63 17 -25
52 -25 63 -1 45 94 50 109 34 125 -20 20 -37 19 -56 -2z"/>
<path d="M5069 7933 c-25 -30 -17 -256 14 -404 15 -70 27 -145 27 -168 0 -31
6 -48 25 -66 13 -14 30 -25 38 -25 26 0 47 35 47 81 0 108 70 239 118 222 28
-10 82 -166 82 -239 0 -60 45 -93 89 -65 13 8 13 24 4 105 -18 149 -92 283
-168 302 -35 9 -96 -25 -124 -68 -41 -63 -56 -52 -70 51 -7 49 -11 129 -10
178 2 49 -1 94 -5 101 -11 17 -51 15 -67 -5z"/>
<path d="M5866 7934 c-19 -19 -19 -13 -2 -61 18 -51 52 -305 66 -503 7 -85 16
-163 21 -172 13 -23 52 -32 78 -18 25 13 27 44 7 97 -17 47 -34 182 -46 373
-12 181 -21 241 -43 274 -20 30 -57 35 -81 10z"/>
<path d="M24293 7934 c-3 -9 7 -30 26 -52 17 -20 39 -52 48 -70 21 -40 56 -51
83 -27 11 10 20 24 20 30 0 20 -129 135 -151 135 -11 0 -22 -7 -26 -16z"/>
<path d="M5690 7860 c-35 -35 -19 -100 25 -100 67 0 75 118 8 120 -7 0 -22 -9
-33 -20z"/>
<path d="M25355 7744 c-77 -40 -110 -106 -55 -111 32 -3 134 57 139 82 3 18
-23 45 -43 45 -6 0 -24 -7 -41 -16z"/>
<path d="M24700 7681 c-100 -32 -176 -85 -205 -141 -50 -97 -85 -261 -85 -402
0 -46 -5 -62 -25 -86 -14 -17 -25 -39 -25 -50 0 -11 -13 -54 -30 -95 -35 -88
-38 -138 -11 -164 11 -10 60 -31 108 -47 48 -15 102 -37 119 -47 32 -20 71
-24 90 -11 6 4 14 31 18 61 4 29 18 82 31 118 29 76 31 105 9 124 -9 7 -20 23
-25 36 -5 15 -20 24 -43 29 -57 10 -62 27 -16 58 22 14 47 37 56 51 9 14 23
25 30 25 18 0 18 -2 -8 -62 -21 -48 -21 -51 -4 -64 27 -19 41 -8 72 52 24 48
38 60 111 105 46 28 103 57 125 65 56 19 61 25 109 111 36 67 41 81 35 120 -3
24 -18 70 -33 101 l-28 57 -100 33 c-124 41 -201 48 -275 23z m217 -92 c48
-18 95 -38 104 -46 10 -8 22 -34 28 -59 10 -41 9 -49 -19 -103 -24 -48 -36
-61 -65 -71 -19 -6 -57 -27 -84 -45 -48 -33 -101 -54 -101 -41 0 4 7 21 16 37
24 47 13 59 -49 59 -45 0 -61 5 -92 30 -21 17 -41 30 -45 30 -15 0 -28 -26
-35 -65 -28 -171 -50 -235 -82 -235 -13 0 -15 8 -9 53 3 28 9 81 12 117 3 36
14 88 24 115 11 28 24 69 30 91 9 36 19 48 73 82 34 22 87 48 117 57 30 9 60
18 65 20 19 6 24 5 112 -26z m-243 -325 c17 -17 10 -40 -20 -64 -14 -12 -18
-12 -29 4 -8 10 -12 24 -9 32 2 8 6 21 9 29 6 19 29 19 49 -1z m-117 -331 c50
-7 78 -32 68 -62 -12 -38 -101 -17 -157 36 -33 32 -27 47 16 39 17 -4 50 -9
73 -13z m-103 -102 c24 -25 66 -48 119 -65 21 -7 22 -25 2 -32 -19 -8 -155 33
-177 53 -21 19 -24 59 -5 66 24 10 34 7 61 -22z"/>
<path d="M4413 7673 c-19 -7 -16 -45 7 -98 11 -26 20 -54 20 -62 0 -24 68
-172 104 -225 17 -26 41 -52 53 -59 32 -17 76 4 99 47 24 44 49 44 64 0 12
-39 43 -70 84 -86 25 -9 37 -7 83 16 81 39 85 49 79 204 -3 97 -9 137 -20 156
-32 47 -93 17 -82 -40 15 -72 17 -144 7 -183 -10 -36 -16 -43 -37 -43 -27 0
-54 36 -80 110 -21 61 -66 148 -84 165 -28 25 -67 28 -88 7 -18 -18 -19 -29
-14 -111 4 -76 2 -91 -10 -91 -20 0 -75 122 -93 206 -17 83 -43 107 -92 87z"/>
<path d="M6330 7634 c-19 -14 -59 -39 -88 -56 -70 -40 -86 -73 -85 -169 1
-132 39 -169 179 -177 93 -5 140 7 175 44 l24 26 -24 19 c-28 23 -41 24 -88 4
-67 -28 -172 -11 -117 19 10 6 48 41 84 77 36 37 80 74 98 83 29 15 32 21 32
61 0 40 -4 47 -37 70 -50 33 -106 33 -153 -1z m11 -121 c-16 -30 -51 -63 -66
-63 -35 0 -23 32 25 64 33 22 54 21 41 -1z"/>
<path d="M5686 7548 c-12 -17 -16 -49 -16 -129 0 -90 3 -108 18 -122 23 -21
56 -22 71 -3 10 11 10 42 1 133 -6 65 -13 124 -15 131 -7 20 -43 14 -59 -10z"/>
<path d="M24110 7423 c-70 -23 -103 -62 -64 -77 53 -20 144 11 144 50 0 35
-27 45 -80 27z"/>
<path d="M25348 7289 c-10 -5 -18 -17 -18 -26 0 -22 104 -123 127 -123 21 0
43 18 43 36 0 17 -65 95 -92 110 -28 16 -38 16 -60 3z"/>
<path d="M7628 7023 c-32 -37 -48 -84 -58 -173 -11 -98 -6 -120 31 -120 24 0
45 34 54 88 5 31 11 42 25 42 14 0 20 -15 31 -72 9 -45 20 -75 31 -82 31 -19
41 7 45 112 l4 98 -45 62 c-38 51 -51 62 -74 62 -16 0 -36 -8 -44 -17z"/>
<path d="M25044 7026 c-6 -16 79 -142 106 -156 13 -7 24 -5 41 9 l23 19 -36
54 c-45 68 -120 110 -134 74z"/>
<path d="M3078 6789 c-28 -16 -64 -87 -93 -184 -14 -49 -31 -103 -37 -120 -5
-16 -25 -77 -44 -135 -45 -140 -87 -244 -147 -367 -27 -56 -47 -109 -45 -119
1 -9 15 -26 30 -37 39 -29 67 -13 94 55 50 126 97 245 106 273 6 17 17 42 24
57 8 14 14 33 14 42 0 9 9 42 19 74 11 31 31 96 45 143 16 52 48 122 81 177
30 49 55 95 55 100 0 15 -50 52 -69 52 -9 0 -24 -5 -33 -11z"/>
<path d="M7252 6764 c-27 -19 -28 -39 -3 -97 30 -69 141 -175 194 -184 35 -5
73 18 61 38 -3 5 -39 32 -80 59 -50 34 -74 57 -74 70 0 29 24 25 96 -15 68
-38 95 -43 114 -20 30 36 -36 91 -169 139 -84 30 -108 32 -139 10z"/>
<path d="M3652 6719 c-5 -12 -5 -47 -1 -78 4 -31 10 -131 14 -224 7 -178 28
-293 57 -311 11 -7 24 -6 42 2 33 15 34 47 5 128 -18 50 -22 91 -26 264 -4
164 -8 208 -21 223 -21 24 -61 22 -70 -4z"/>
<path d="M2298 6674 c-59 -31 -90 -132 -78 -249 8 -80 24 -126 70 -205 l20
-35 -36 -34 -37 -35 23 -18 c12 -10 34 -18 49 -18 44 0 63 -21 69 -78 2 -28 2
-62 -2 -75 -7 -28 -59 -57 -103 -57 -55 0 -72 -47 -28 -76 21 -13 39 -15 92
-10 80 8 98 17 120 59 34 66 35 168 2 255 -7 18 -3 32 16 60 14 20 25 42 25
48 0 19 -37 46 -62 44 -39 -4 -46 -1 -73 27 -27 30 -57 110 -57 150 0 30 20
45 43 33 12 -7 24 -4 43 11 31 25 34 70 10 145 -25 74 -51 88 -106 58z"/>
<path d="M7881 6646 c-16 -19 -6 -36 51 -81 82 -65 102 -75 183 -90 45 -9 100
-28 129 -44 64 -37 156 -71 458 -172 131 -43 260 -90 287 -104 28 -14 58 -25
67 -25 9 0 30 -15 46 -32 28 -31 36 -33 97 -34 106 -1 391 -22 456 -34 33 -5
85 -10 116 -10 34 0 60 -5 66 -12 17 -23 37 -148 25 -160 -20 -20 -181 -33
-307 -26 -235 13 -300 10 -320 -12 -22 -24 -14 -47 20 -60 33 -12 425 -19 530
-9 73 7 80 6 106 -15 23 -20 36 -23 76 -19 26 3 70 11 97 19 27 8 73 14 101
14 73 0 99 35 56 74 -17 15 -30 17 -83 11 -35 -4 -79 -11 -99 -17 -60 -17 -73
-3 -93 104 -24 125 -20 152 19 156 17 1 63 9 103 18 54 12 95 15 153 10 79 -6
80 -6 109 23 37 36 38 55 5 77 -22 14 -42 16 -138 10 -61 -4 -134 -14 -161
-22 -27 -8 -68 -14 -91 -14 -22 0 -59 -9 -80 -20 -22 -11 -56 -25 -75 -30 -43
-12 -333 4 -471 26 -54 9 -114 14 -134 13 -29 -3 -43 2 -63 23 -17 16 -51 32
-88 42 -58 15 -177 56 -219 76 -30 14 -126 47 -265 92 -69 22 -179 66 -245 99
-71 35 -148 65 -189 73 -50 10 -85 25 -127 55 -61 43 -89 50 -108 27z"/>
<path d="M1987 6572 c-10 -10 -17 -23 -17 -29 0 -13 57 -63 71 -63 18 0 49 41
49 65 0 43 -72 62 -103 27z"/>
<path d="M4394 6554 c-54 -26 -83 -48 -122 -95 -29 -34 -52 -66 -52 -72 0 -7
9 -48 20 -91 28 -114 36 -120 169 -124 101 -3 110 -2 135 20 54 46 3 84 -90
67 -47 -9 -60 -8 -80 6 -20 13 -23 19 -13 31 6 8 22 14 34 14 12 0 42 7 65 15
23 8 57 15 74 15 32 0 76 23 76 40 0 5 -16 43 -35 84 -35 73 -77 127 -99 125
-6 0 -43 -16 -82 -35z m65 -83 c23 -15 5 -39 -38 -52 -42 -12 -77 -6 -66 12 9
13 67 49 80 49 6 0 16 -4 24 -9z"/>
<path d="M10967 6579 c-13 -8 -17 -18 -13 -34 7 -28 -17 -50 -64 -60 -19 -3
-84 -22 -143 -41 -60 -19 -109 -34 -111 -34 -2 0 -18 14 -35 31 -30 28 -34 29
-54 16 -19 -12 -23 -27 -27 -93 -3 -44 -12 -89 -19 -102 -15 -28 -7 -58 20
-73 32 -16 59 -1 79 46 10 23 33 54 52 68 37 28 157 70 259 92 37 7 79 21 93
30 24 16 28 16 61 -4 56 -32 105 -24 105 19 0 20 -146 150 -168 150 -9 0 -25
-5 -35 -11z"/>
<path d="M4005 6561 c-75 -18 -100 -49 -110 -132 -10 -81 16 -136 78 -169 26
-14 49 -31 52 -40 12 -30 -59 -53 -94 -31 -26 16 -52 -6 -45 -37 20 -84 72
-100 169 -53 66 33 105 70 105 102 0 28 -48 78 -107 111 -29 17 -58 38 -63 48
-15 29 -12 65 8 83 26 24 49 21 68 -8 22 -33 51 -41 75 -19 51 46 -14 158 -89
153 -9 -1 -30 -4 -47 -8z"/>
<path d="M23800 6521 c-104 -33 -250 -151 -311 -252 -38 -63 -73 -155 -85
-224 -4 -22 -12 -51 -19 -65 -7 -14 -18 -80 -25 -147 l-13 -121 28 -49 c37
-63 73 -108 166 -208 68 -72 77 -86 83 -131 8 -58 0 -84 -47 -145 -42 -56 -53
-85 -37 -104 19 -23 49 -18 87 15 18 17 40 30 47 30 24 0 63 -39 84 -84 25
-52 54 -66 83 -40 10 9 19 24 19 33 0 9 -34 67 -75 130 -41 62 -75 119 -75
127 0 24 29 28 88 11 31 -9 82 -18 112 -21 50 -5 202 -51 293 -89 81 -34 153
-128 290 -378 40 -72 128 -161 193 -194 21 -11 66 -39 100 -62 78 -55 140 -83
183 -83 20 0 66 16 110 37 55 28 91 38 137 41 l62 4 50 -48 c31 -32 56 -67 67
-99 22 -61 139 -240 163 -250 9 -4 33 -11 52 -15 19 -4 75 -19 124 -34 105
-31 122 -32 201 -7 33 10 86 22 118 26 101 13 186 83 248 206 35 72 39 86 39
157 0 75 -2 82 -38 138 -42 64 -206 250 -290 328 -32 30 -64 73 -84 115 -28
59 -32 75 -30 143 1 51 7 86 17 102 19 28 12 49 -20 66 -39 21 -69 -7 -122
-118 -66 -137 -68 -176 -14 -284 23 -46 67 -123 98 -173 59 -95 82 -154 77
-195 -14 -118 -37 -160 -86 -160 -78 0 -140 58 -158 147 -42 216 -58 257 -128
334 -56 62 -73 71 -224 130 -95 37 -111 40 -139 30 -18 -6 -42 -11 -55 -11
-13 0 -57 -18 -99 -39 -42 -22 -92 -45 -110 -51 -18 -6 -39 -18 -46 -27 -11
-13 -9 -19 15 -40 36 -31 61 -27 166 24 111 54 158 55 278 7 161 -65 209 -129
254 -344 29 -139 88 -214 190 -245 75 -22 124 -20 152 8 24 24 86 183 86 220
0 47 -39 160 -75 218 -20 33 -34 67 -31 75 9 24 55 -14 157 -131 50 -57 95
-105 102 -108 7 -3 25 -29 40 -58 48 -96 34 -197 -41 -287 -59 -70 -173 -115
-322 -128 -58 -5 -76 -2 -160 30 -116 43 -134 62 -219 226 -63 121 -98 162
-167 195 -66 31 -171 13 -291 -49 -49 -26 -52 -27 -88 -12 -21 9 -65 36 -99
60 -33 24 -79 52 -101 64 -68 34 -145 126 -212 252 -80 152 -111 197 -182 263
-68 63 -124 92 -201 107 -30 6 -87 19 -126 30 -39 11 -103 24 -142 29 -80 10
-142 41 -142 72 0 10 11 43 24 74 l25 55 46 0 c66 0 235 19 272 31 51 16 83
53 83 94 0 89 -78 157 -204 177 -168 26 -196 22 -270 -43 -53 -47 -56 -66 -21
-124 14 -22 25 -47 25 -55 0 -8 -14 -45 -32 -82 -40 -84 -59 -87 -114 -24
-113 130 -120 147 -106 288 12 132 58 281 116 376 21 35 68 87 111 126 83 72
140 96 230 96 48 0 58 -5 136 -64 46 -34 117 -101 158 -147 41 -46 91 -99 111
-116 77 -66 109 -136 130 -278 5 -33 16 -80 26 -105 11 -31 18 -88 21 -185 4
-127 8 -148 38 -230 18 -49 38 -110 45 -134 8 -31 27 -60 63 -95 29 -28 67
-70 85 -93 19 -24 42 -43 51 -43 22 0 51 31 51 54 0 9 -35 50 -77 91 -66 62
-82 84 -104 142 -38 99 -49 152 -59 293 -5 69 -18 163 -30 210 -11 47 -23 120
-27 163 -5 68 -11 86 -42 132 -86 127 -250 304 -374 403 -121 97 -131 102
-217 101 -41 0 -86 -4 -100 -8z m162 -730 c92 -22 128 -43 128 -75 0 -31 -17
-44 -76 -55 -147 -29 -181 -23 -144 27 25 34 24 59 -6 78 -18 13 -25 11 -58
-11 -44 -30 -66 -32 -66 -5 0 25 63 59 110 59 19 1 70 -7 112 -18z"/>
<path d="M3414 6504 c-16 -8 -54 -42 -83 -75 -68 -77 -78 -115 -51 -194 11
-32 17 -68 14 -80 -8 -34 22 -59 104 -84 108 -32 153 -26 173 26 15 41 -3 53
-76 51 -76 -2 -110 16 -117 62 -7 44 11 53 110 54 82 1 87 2 101 27 13 24 13
31 -6 75 -12 27 -24 66 -28 87 -12 63 -72 85 -141 51z m57 -94 c50 -27 -4 -85
-57 -61 l-27 12 28 29 c33 34 30 33 56 20z"/>
<path d="M7246 6470 c-57 -28 -85 -58 -98 -103 -11 -38 -11 -41 19 -67 29 -26
121 -49 143 -35 13 8 50 -13 50 -29 0 -28 50 -124 80 -154 19 -19 42 -32 57
-32 40 0 92 30 118 67 13 19 45 49 72 67 50 32 65 65 43 92 -18 20 -31 18
-105 -17 -56 -27 -65 -35 -65 -59 0 -35 -31 -64 -59 -55 -12 3 -21 15 -21 25
0 11 -7 38 -16 60 -16 40 -16 42 6 65 24 26 24 52 -2 68 -12 8 -32 6 -73 -7
-85 -27 -178 -5 -130 31 11 7 29 13 41 13 57 0 100 44 74 75 -18 21 -87 18
-134 -5z"/>
<path d="M1984 6335 c-24 -24 -24 -25 -8 -62 16 -39 42 -151 53 -233 5 -37 11
-46 34 -54 19 -7 34 -7 45 0 20 13 28 65 13 91 -5 11 -15 56 -21 102 -14 105
-34 155 -66 170 -22 9 -28 8 -50 -14z"/>
<path d="M7848 6329 c-10 -5 -18 -17 -18 -25 0 -15 26 -28 125 -62 125 -42
195 -72 375 -162 192 -94 386 -168 515 -195 41 -8 105 -26 141 -40 81 -31 110
-32 124 -4 23 42 -16 61 -255 123 -189 49 -255 75 -500 196 -210 104 -407 180
-464 180 -14 0 -34 -5 -43 -11z"/>
<path d="M5852 6270 c-12 -12 -22 -29 -22 -39 0 -24 42 -45 74 -37 20 5 26 13
26 35 0 27 -26 61 -46 61 -6 0 -20 -9 -32 -20z"/>
<path d="M24056 6141 c-23 -25 -18 -49 15 -73 22 -16 30 -18 48 -9 27 15 28
61 3 84 -24 22 -45 21 -66 -2z"/>
<path d="M6045 6136 c-16 -12 -17 -22 -11 -107 12 -168 38 -225 91 -201 19 9
25 21 30 69 12 115 14 122 46 139 17 8 45 14 62 12 41 -4 64 -48 73 -137 6
-50 12 -65 31 -78 21 -14 25 -14 49 2 23 15 25 21 21 63 -9 74 -17 104 -45
162 -20 40 -37 59 -66 74 -38 19 -40 19 -111 1 -68 -16 -75 -17 -105 -1 -40
19 -41 19 -65 2z"/>
<path d="M5892 6122 c-19 -16 -20 -23 -10 -147 11 -142 22 -168 67 -163 24 3
26 7 25 48 -1 93 -12 239 -18 249 -16 25 -44 31 -64 13z"/>
<path d="M23723 6133 c-35 -13 2 -93 42 -93 29 0 56 25 49 45 -5 13 -65 56
-75 54 -2 0 -10 -3 -16 -6z"/>
<path d="M18575 6080 c-64 -4 -102 -12 -132 -28 -23 -12 -66 -31 -95 -42 -83
-32 -139 -79 -187 -159 -50 -82 -60 -122 -61 -241 0 -88 20 -163 73 -270 67
-136 127 -198 252 -261 110 -56 195 -79 296 -79 77 0 118 -12 177 -53 46 -31
102 -108 102 -140 0 -33 53 -127 89 -159 55 -48 116 -71 191 -71 69 0 110 14
110 38 0 22 -50 55 -82 55 -52 0 -134 29 -160 58 -14 15 -33 47 -41 72 -53
153 -58 161 -144 222 l-81 58 -150 8 c-144 9 -154 11 -224 44 -40 20 -90 44
-112 54 -44 20 -98 88 -122 154 -9 25 -30 74 -47 109 -29 60 -32 72 -32 170
l0 106 49 68 c45 60 108 117 130 117 5 0 43 15 85 34 63 28 93 35 176 41 102
6 200 -4 285 -29 25 -8 64 -19 87 -25 51 -14 126 -64 221 -149 86 -76 147
-153 191 -239 26 -53 31 -74 32 -140 0 -43 -4 -118 -10 -168 -12 -108 -12
-247 0 -295 5 -20 23 -50 41 -67 48 -46 207 -143 234 -143 25 0 49 33 40 55
-2 7 -42 32 -88 54 -46 22 -101 55 -122 72 l-39 33 7 157 c4 108 12 170 22
196 12 28 15 59 11 118 -5 87 -24 139 -86 238 -42 68 -148 197 -161 197 -5 0
-35 23 -67 51 -34 30 -103 73 -168 105 -96 47 -121 55 -200 63 -150 16 -196
18 -290 11z"/>
<path d="M12414 6030 c-34 -14 -35 -35 -3 -66 17 -16 39 -44 51 -62 31 -50 98
-53 98 -3 0 35 -95 145 -122 140 -1 0 -12 -4 -24 -9z"/>
<path d="M10414 5871 c-29 -27 -93 -228 -100 -314 -11 -135 28 -247 100 -284
59 -31 226 8 241 56 8 27 -18 71 -43 71 -10 0 -35 -9 -57 -20 -51 -26 -78 -25
-112 4 -27 23 -28 28 -31 133 -3 101 -2 112 26 173 16 36 35 86 42 113 11 43
11 49 -5 67 -22 25 -36 25 -61 1z"/>
<path d="M11538 5778 c-8 -7 -23 -34 -31 -60 -24 -72 -105 -176 -161 -205 -20
-10 -65 -16 -148 -17 -67 -1 -123 -7 -129 -13 -6 -6 -9 -23 -7 -38 5 -44 58
-58 188 -50 128 8 171 26 238 100 50 57 132 207 132 243 0 20 -34 52 -55 52
-6 0 -18 -6 -27 -12z"/>
<path d="M18654 5775 c-12 -8 -27 -28 -34 -45 -10 -25 -10 -34 4 -54 38 -59
109 -33 114 43 2 23 -2 49 -9 57 -15 18 -49 18 -75 -1z"/>
<path d="M12514 5696 c-3 -8 -1 -40 5 -72 5 -33 17 -120 26 -194 9 -74 20
-148 25 -165 4 -16 11 -61 15 -100 15 -153 42 -240 80 -257 22 -10 29 -9 48
10 19 20 20 25 8 54 -20 51 -41 143 -56 248 -25 169 -33 219 -39 229 -4 5 -11
47 -17 93 -11 92 -26 149 -43 160 -18 12 -46 9 -52 -6z"/>
<path d="M18335 5685 c-34 -33 -34 -88 -1 -110 22 -15 27 -15 54 -1 47 24 57
81 22 116 -26 26 -46 25 -75 -5z"/>
<path d="M21743 5678 c-14 -17 -23 -75 -28 -173 -3 -44 -9 -109 -15 -145 -5
-36 -14 -95 -20 -131 -5 -36 -13 -113 -16 -172 l-7 -106 26 -6 c54 -14 73 18
76 125 0 14 5 75 10 135 5 61 13 159 17 219 8 127 23 154 71 135 18 -7 96 -11
218 -9 105 2 201 3 215 3 14 0 174 -5 355 -12 443 -15 590 -34 622 -76 10 -14
13 -55 13 -150 0 -71 4 -170 9 -220 23 -218 33 -297 51 -395 20 -114 24 -218
10 -256 -9 -22 -6 -44 16 -138 11 -45 -10 -54 -98 -44 -40 4 -174 10 -298 13
-235 5 -255 7 -332 31 -54 17 -83 12 -99 -18 -8 -15 -7 -24 6 -38 32 -36 105
-44 520 -60 138 -6 277 -14 310 -19 33 -6 101 -17 150 -25 50 -8 137 -19 195
-26 58 -6 132 -15 165 -20 157 -25 232 -33 255 -27 38 9 106 119 115 182 5 42
3 54 -12 67 -42 38 -97 43 -434 43 -261 0 -329 3 -342 14 -14 11 -17 32 -17
100 0 105 -24 293 -50 395 -19 77 -33 224 -49 525 -8 149 -12 177 -28 193 -18
18 -21 18 -58 2 -27 -11 -50 -14 -75 -9 -138 28 -427 44 -901 50 -314 4 -353
6 -420 25 -112 32 -114 33 -126 18z m2370 -1421 c41 -31 49 -70 20 -85 -17 -9
-141 1 -359 28 -44 6 -99 10 -121 10 -48 0 -138 17 -170 33 -25 11 -30 33 -10
40 6 2 145 4 308 3 l296 -1 36 -28z"/>
<path d="M9572 5578 c-15 -15 -16 -117 -2 -154 9 -22 11 -155 7 -363 -1 -43
26 -66 57 -49 11 6 24 15 27 21 4 5 13 7 21 4 11 -4 18 -41 28 -134 11 -110
10 -155 -4 -322 -14 -174 -14 -197 -1 -218 18 -28 35 -29 65 -5 21 17 22 27
26 211 2 107 0 251 -6 321 -6 81 -6 167 0 234 10 117 9 126 -21 144 -17 11
-25 11 -44 -2 -47 -31 -52 -24 -60 87 -5 56 -9 125 -9 153 -1 28 -7 58 -15 67
-16 20 -52 22 -69 5z m138 -418 c0 -33 -3 -40 -20 -40 -17 0 -20 7 -20 40 0
33 3 40 20 40 17 0 20 -7 20 -40z"/>
<path d="M18759 5511 c-16 -16 -29 -39 -29 -50 0 -29 -35 -58 -120 -98 -57
-26 -84 -33 -112 -30 -71 9 -91 -45 -28 -78 34 -17 104 -8 177 25 39 17 58 19
127 14 99 -8 130 -23 156 -74 27 -52 53 -67 86 -45 30 20 30 33 -1 75 -32 44
-31 54 5 80 62 44 60 83 -4 95 -22 5 -47 -1 -86 -19 -61 -29 -108 -33 -116
-12 -3 7 2 30 10 51 20 48 20 65 -1 81 -25 19 -31 18 -64 -15z"/>
<path d="M11771 5517 c-9 -12 -9 -23 2 -53 8 -22 20 -64 26 -94 32 -153 52
-242 70 -305 10 -38 24 -100 31 -136 l13 -66 -39 -47 c-56 -68 -168 -121 -298
-141 -55 -9 -138 -31 -185 -50 -47 -18 -117 -43 -156 -55 -38 -12 -106 -34
-150 -50 -111 -39 -234 -57 -271 -38 -40 18 -43 57 -9 115 26 43 27 50 20 132
-3 47 -10 100 -15 116 -5 17 -22 75 -39 130 -16 55 -33 115 -36 133 -14 70
-95 65 -95 -6 0 -37 25 -128 53 -192 20 -47 36 -187 25 -225 -4 -16 -8 -42 -8
-56 0 -15 -10 -39 -21 -53 -31 -40 -30 -122 1 -146 32 -24 150 -60 198 -60 76
0 188 30 407 110 234 85 283 100 319 100 80 0 259 80 311 140 11 12 39 36 63
52 48 33 52 53 22 119 -11 24 -20 59 -20 77 0 18 -5 43 -11 54 -16 29 -53 174
-85 328 -24 116 -52 174 -85 178 -14 2 -31 -3 -38 -11z"/>
<path d="M12228 5509 c-23 -13 -23 -32 1 -94 22 -58 51 -174 51 -204 0 -11 6
-35 14 -53 16 -38 66 -252 73 -316 6 -55 40 -81 80 -63 22 10 25 16 19 44 -11
59 -24 111 -51 212 -15 55 -36 141 -46 190 -10 50 -25 115 -34 145 -9 30 -22
75 -29 100 -10 36 -17 45 -37 47 -13 2 -32 -2 -41 -8z"/>
<path d="M16473 5178 c-28 -35 -34 -121 -31 -449 1 -184 -2 -455 -6 -604 -8
-239 -11 -273 -27 -294 -23 -28 -24 -41 -5 -66 12 -16 31 -18 184 -21 94 -1
185 -7 204 -13 18 -6 69 -13 113 -15 44 -3 123 -14 175 -25 52 -12 131 -24
175 -27 44 -3 105 -12 135 -19 30 -8 134 -19 230 -25 96 -6 209 -17 250 -25
41 -8 149 -26 240 -40 162 -25 240 -38 330 -55 25 -5 66 -9 92 -9 39 -1 50 3
68 26 l22 28 -38 32 -38 32 17 36 c25 52 21 81 -15 126 -34 43 -51 46 -114 24
-43 -15 -154 -23 -171 -12 -5 4 -16 47 -23 96 -11 78 -10 108 5 232 14 115 16
182 11 343 -4 111 -11 243 -17 294 -7 66 -7 113 1 164 9 59 8 74 -4 86 -21 21
-56 5 -72 -34 -17 -41 -19 -205 -3 -360 8 -79 8 -170 0 -334 -6 -124 -13 -315
-15 -424 -3 -117 -9 -203 -15 -209 -7 -7 -29 -5 -68 5 -85 23 -361 60 -588 78
-135 10 -300 34 -390 56 -33 8 -105 19 -160 25 -55 5 -125 13 -155 18 -30 5
-91 10 -136 10 -113 1 -110 -4 -106 206 2 94 4 353 5 577 1 299 5 410 14 419
15 15 427 -2 588 -25 445 -63 845 -88 903 -57 28 15 29 56 2 71 -13 7 -48 8
-95 4 -41 -4 -137 -1 -213 5 -454 40 -647 59 -802 81 -74 11 -186 22 -248 24
-103 4 -115 7 -143 30 -34 29 -52 32 -66 14z m2001 -1490 c7 -13 16 -37 19
-55 9 -46 -8 -55 -74 -38 -29 8 -73 15 -97 15 -70 0 -104 30 -68 59 16 14 126
39 173 40 23 1 36 -5 47 -21z"/>
<path d="M12900 4955 c-19 -7 -44 -14 -56 -14 -11 -1 -29 -10 -39 -21 -17 -19
-17 -21 0 -40 14 -15 31 -20 70 -20 38 0 59 -6 84 -24 38 -28 120 -50 158 -43
33 6 53 -1 53 -19 0 -17 -6 -18 -90 -15 -76 3 -113 -15 -94 -46 8 -13 28 -20
70 -24 68 -7 107 -24 148 -68 23 -24 27 -34 18 -43 -9 -9 -23 -9 -61 1 -30 7
-68 10 -95 6 -40 -6 -52 -4 -86 19 -42 28 -79 33 -97 15 -17 -17 -5 -39 49
-90 48 -45 60 -75 34 -85 -25 -10 -70 22 -135 95 -74 83 -113 108 -147 93 -13
-6 -49 -56 -85 -117 -71 -122 -118 -165 -179 -165 -35 0 -80 28 -80 51 0 23
36 76 95 139 68 72 84 103 65 125 -27 33 -54 16 -149 -92 l-93 -106 4 -60 c4
-52 9 -64 36 -88 43 -38 98 -52 157 -39 87 20 98 29 214 185 18 25 41 45 50
45 9 0 48 -31 87 -69 56 -55 82 -73 124 -85 67 -20 113 -20 150 -1 35 18 39
45 11 84 -52 73 -21 94 84 58 82 -28 105 -26 139 12 17 19 18 25 6 67 -7 25
-24 61 -37 80 -28 42 -28 49 -3 81 24 31 26 85 4 107 -33 34 -55 38 -154 31
-105 -8 -120 -2 -99 37 10 18 8 24 -11 40 -26 21 -70 22 -120 3z"/>
<path d="M21301 4744 c-132 -17 -178 -33 -248 -87 -80 -62 -90 -75 -114 -148
-11 -35 -34 -91 -51 -124 -20 -39 -34 -86 -40 -134 -5 -41 -13 -82 -18 -92
-17 -31 -11 -66 25 -153 19 -47 35 -92 35 -100 0 -45 73 -157 161 -245 56 -57
206 -162 262 -183 28 -11 69 -30 91 -43 79 -44 109 -49 184 -27 37 11 96 22
132 25 36 3 86 11 112 18 62 17 267 -1 301 -25 12 -9 38 -28 57 -41 19 -13 45
-31 57 -39 32 -23 164 -203 179 -245 20 -55 17 -81 -20 -146 -24 -44 -54 -77
-112 -124 -43 -35 -123 -103 -176 -152 -107 -99 -121 -125 -137 -255 l-8 -69
56 -89 c107 -168 118 -181 204 -247 74 -57 94 -68 140 -73 99 -13 190 -8 262
13 38 12 82 21 96 21 15 0 68 21 119 46 74 37 111 64 193 144 121 116 301 240
359 248 38 5 42 2 99 -59 33 -35 74 -90 91 -121 19 -37 68 -94 137 -161 l106
-104 110 -36 c133 -45 207 -48 323 -15 67 20 84 30 135 80 62 62 70 89 33 113
-22 15 -34 15 -132 0 -129 -19 -149 -14 -198 54 -38 53 -51 88 -66 186 -13 80
-25 139 -46 211 -19 64 -76 126 -180 194 -121 79 -204 95 -329 65 -164 -38
-330 -133 -477 -272 -36 -35 -74 -63 -83 -63 -50 0 -125 87 -125 145 0 36 22
121 40 155 7 14 36 66 65 115 60 102 82 196 73 309 -7 85 -87 273 -138 325
-47 47 -233 183 -313 227 -89 50 -161 125 -209 217 -22 42 -53 94 -69 114 -16
20 -39 68 -51 107 -20 65 -29 79 -126 181 -139 145 -200 196 -269 225 -32 12
-94 42 -138 66 -92 49 -192 85 -232 83 -15 -1 -75 -7 -132 -15z m242 -125 c61
-28 135 -60 165 -70 81 -28 115 -52 231 -168 114 -113 168 -183 182 -235 5
-18 27 -57 49 -87 21 -30 57 -89 80 -131 50 -97 124 -171 233 -234 151 -87
303 -209 333 -268 38 -73 74 -171 80 -216 11 -83 -13 -174 -72 -276 -68 -119
-113 -222 -120 -276 -5 -37 0 -51 30 -103 43 -71 104 -129 152 -145 29 -10 41
-9 80 11 25 12 67 42 92 66 73 70 185 151 243 177 106 46 217 76 288 76 86 0
167 -38 254 -119 59 -56 60 -59 79 -147 11 -49 24 -118 29 -153 16 -103 86
-226 158 -275 22 -16 39 -32 36 -36 -2 -4 -21 -10 -42 -14 -28 -4 -62 2 -130
25 -85 28 -99 36 -188 117 -76 68 -104 101 -133 156 -44 84 -134 184 -195 216
l-44 23 -64 -31 c-125 -61 -233 -136 -345 -242 -63 -59 -127 -113 -142 -121
-15 -7 -44 -24 -64 -36 -44 -27 -241 -73 -312 -73 -132 0 -278 88 -347 210
-11 19 -31 53 -44 75 -30 48 -33 118 -8 185 22 60 21 59 132 147 256 204 321
285 321 400 0 70 -13 99 -93 208 -37 50 -79 108 -94 129 -15 22 -58 58 -94 80
-36 23 -75 51 -87 64 -24 24 -49 28 -86 11 -19 -9 -35 -8 -76 6 -54 18 -106
17 -230 -5 -30 -5 -77 -12 -105 -15 -27 -3 -75 -13 -105 -21 l-56 -16 -109 46
c-61 26 -123 54 -140 63 -58 33 -190 155 -228 211 -21 31 -45 64 -52 72 -7 8
-27 58 -45 110 -45 132 -40 184 40 410 32 91 63 140 114 179 77 60 104 71 176
72 36 1 79 5 95 9 54 14 67 11 178 -41z"/>
<path d="M21384 4380 c-16 -16 -35 -44 -44 -62 -23 -49 -56 -56 -140 -29 -75
24 -110 18 -110 -18 0 -27 29 -47 95 -66 33 -9 79 -28 102 -41 55 -32 71 -24
113 58 17 35 43 85 57 112 26 47 26 49 8 62 -29 21 -51 17 -81 -16z"/>
<path d="M21462 4158 c-20 -20 -14 -48 13 -60 22 -10 29 -9 48 10 17 18 19 26
11 40 -14 21 -55 27 -72 10z"/>
<path d="M21149 4129 c-45 -45 -2 -102 65 -85 22 5 26 12 26 40 0 59 -51 85
-91 45z"/>
<path d="M21554 3884 c-28 -15 -64 -26 -83 -26 -19 1 -55 -8 -80 -19 -26 -11
-56 -17 -68 -14 -40 10 -143 -64 -143 -102 0 -41 57 -58 96 -28 26 20 40 19
73 -6 43 -32 71 -19 71 32 0 49 19 59 56 30 36 -28 58 -26 94 9 17 17 36 30
42 30 6 0 26 -16 44 -36 30 -32 35 -34 56 -23 23 12 38 28 38 41 0 15 -83 109
-110 123 -36 19 -28 20 -86 -11z"/>
<path d="M10525 4624 c-16 -9 -59 -25 -95 -36 -36 -11 -96 -34 -134 -50 -52
-23 -101 -34 -190 -45 -72 -9 -133 -22 -151 -32 -63 -36 -31 -97 47 -88 168
20 261 42 373 91 17 7 59 24 94 36 65 24 131 71 131 94 0 12 -31 46 -41 46 -2
0 -17 -7 -34 -16z"/>
<path d="M10667 4335 c-17 -17 -47 -137 -47 -188 0 -19 -4 -57 -10 -85 -5 -27
-14 -99 -20 -159 -6 -59 -19 -146 -30 -193 -20 -89 -64 -323 -75 -400 -4 -25
-12 -65 -20 -90 -7 -25 -16 -63 -20 -85 -9 -57 -69 -259 -115 -388 -11 -32
-27 -104 -35 -160 -16 -111 -25 -157 -50 -257 -48 -188 -68 -269 -75 -310 -4
-25 -15 -70 -23 -100 -25 -89 -40 -177 -33 -203 8 -33 47 -53 75 -38 16 9 21
21 21 56 0 44 61 299 79 334 6 10 15 61 21 112 6 52 17 112 24 134 19 58 43
177 55 275 6 49 28 136 51 203 23 64 47 145 55 179 8 35 28 124 45 198 17 74
38 164 47 200 8 36 19 92 23 125 4 33 19 119 33 190 14 72 28 162 31 200 11
114 27 226 43 290 34 139 35 145 23 160 -16 19 -54 19 -73 0z"/>
<path d="M18768 4198 c-8 -7 -25 -49 -36 -93 -19 -76 -20 -104 -16 -570 5
-722 10 -821 40 -846 8 -6 26 -9 41 -6 21 4 33 -2 58 -29 30 -31 37 -34 90
-34 31 0 103 -11 159 -24 104 -25 249 -41 516 -56 85 -6 180 -14 210 -19 222
-39 521 -54 662 -33 82 12 89 11 120 -8 41 -25 40 -25 76 5 l29 24 234 -9
c229 -10 266 -14 361 -41 43 -12 49 -11 68 6 25 23 25 36 0 68 -22 28 -25 58
-9 89 9 16 7 24 -7 38 -21 21 -55 26 -259 40 -320 23 -339 24 -354 7 -18 -23
-10 -50 19 -59 14 -4 113 -12 220 -18 188 -11 245 -22 237 -44 -6 -18 -528 -8
-546 10 -21 20 -25 118 -7 199 13 60 13 78 1 130 -19 85 -48 340 -41 362 14
44 5 696 -10 745 -6 20 -42 34 -56 20 -10 -10 -15 -268 -9 -452 2 -63 0 -179
-4 -256 -6 -115 -5 -164 10 -258 10 -69 15 -142 12 -179 -3 -35 2 -114 11
-180 12 -85 13 -123 6 -135 -14 -22 -95 -31 -284 -32 -172 0 -297 11 -440 40
-58 12 -170 26 -250 31 -333 22 -339 22 -625 79 -57 11 -96 15 -107 9 -9 -5
-26 -9 -37 -9 -19 0 -21 6 -22 68 0 37 -5 90 -10 117 -9 43 -19 456 -23 965
-1 144 16 220 52 235 29 12 259 5 346 -11 138 -25 552 -74 621 -74 64 0 369
-27 568 -51 86 -10 101 -9 114 4 20 20 11 32 -40 59 -59 30 -314 59 -682 78
-221 11 -316 21 -440 50 -49 11 -151 25 -225 30 -74 6 -157 15 -183 20 -66 14
-140 12 -159 -2z"/>
<path d="M12332 3918 c-16 -16 -15 -53 3 -87 8 -16 19 -53 24 -82 5 -30 19
-90 31 -134 12 -44 30 -114 40 -155 10 -41 35 -140 54 -220 20 -80 44 -170 52
-200 18 -61 36 -159 58 -325 16 -122 24 -160 35 -190 5 -11 18 -58 29 -105 11
-47 34 -123 51 -170 17 -47 30 -101 31 -121 0 -20 5 -50 11 -68 16 -45 3 -55
-114 -92 -56 -17 -131 -42 -167 -55 -36 -13 -102 -31 -148 -39 -45 -9 -113
-27 -150 -40 -95 -33 -213 -62 -312 -76 -48 -6 -130 -28 -188 -50 -115 -44
-235 -64 -458 -79 -77 -5 -154 -14 -170 -20 -45 -17 -335 -16 -434 3 -149 27
-269 38 -290 27 -30 -16 -45 -50 -28 -66 17 -16 84 -32 171 -40 82 -7 102 -22
82 -62 -22 -42 -65 -161 -65 -177 0 -30 43 -38 142 -28 66 7 113 18 158 39 62
27 196 126 251 185 30 32 24 31 309 59 193 19 227 25 330 60 127 44 280 80
335 80 48 0 78 -31 99 -105 10 -33 24 -79 33 -102 14 -41 12 -63 -7 -63 -21 0
-157 96 -201 141 -31 32 -56 49 -71 49 -53 0 -64 -51 -20 -92 15 -13 63 -51
107 -83 44 -32 95 -69 113 -82 53 -39 117 -57 152 -43 41 17 56 60 40 113 -26
91 -64 194 -87 240 -22 45 -23 50 -8 67 19 20 133 56 225 69 70 10 358 104
427 139 33 17 44 30 52 59 17 59 23 33 -89 378 -31 96 -60 214 -70 290 -5 39
-18 120 -29 180 -39 221 -48 262 -94 410 -14 44 -35 123 -46 175 -68 302 -110
457 -134 488 -12 15 -49 16 -65 0z m-1457 -2429 c20 -20 -108 -101 -190 -119
-38 -8 -51 -8 -61 2 -18 18 20 85 66 116 32 22 42 23 105 17 39 -3 74 -11 80
-16z"/>
</g>
</svg>
