<?xml version="1.0" standalone="no"?>
<!DOCTYPE svg PUBLIC "-//W3C//DTD SVG 20010904//EN"
 "http://www.w3.org/TR/2001/REC-SVG-20010904/DTD/svg10.dtd">
<svg version="1.0" xmlns="http://www.w3.org/2000/svg"
 width="1309.248171pt" height="1516.616846pt" viewBox="0 0 1309.248171 1516.616846"
 preserveAspectRatio="xMidYMid meet">
<metadata>
Created by potrace 1.13, written by Peter Selinger 2001-2015
</metadata>
<g transform="translate(-179.751829,1578.000000) scale(0.100000,-0.100000)"
fill="#ffffff" stroke="none">
<path d="M13337 15680 c-64 -55 -117 -105 -117 -110 0 -13 35 -30 63 -30 27 0
243 136 252 159 7 18 -42 81 -63 81 -10 0 -70 -45 -135 -100z"/>
<path d="M9170 15480 c-248 -47 -381 -240 -381 -555 -1 -327 121 -497 378
-529 99 -12 231 8 346 52 77 29 90 48 67 92 -14 25 -30 25 -155 -9 -97 -25
-213 -27 -278 -5 -102 35 -183 143 -208 281 -17 91 -5 282 24 381 27 94 55
129 126 164 89 44 294 26 345 -31 9 -9 21 -44 27 -77 13 -64 29 -84 69 -84 46
0 58 25 65 137 l7 102 -33 21 c-87 53 -283 83 -399 60z"/>
<path d="M11303 15475 c-128 -28 -247 -114 -305 -221 -48 -88 -69 -185 -69
-319 -1 -255 75 -422 225 -495 188 -92 442 -49 576 97 91 100 128 199 137 368
9 185 -33 349 -116 453 -84 106 -273 155 -448 117z m231 -129 c107 -53 167
-152 189 -314 13 -99 -1 -240 -34 -347 -40 -132 -138 -193 -293 -183 -86 6
-149 32 -210 88 -89 82 -122 198 -113 393 15 302 97 403 319 393 70 -3 99 -9
142 -30z"/>
<path d="M9770 15466 c-20 -25 -8 -60 25 -74 17 -7 41 -18 55 -25 l25 -13 0
-414 0 -414 -25 -13 c-14 -7 -38 -18 -55 -25 -33 -14 -45 -49 -25 -74 10 -11
46 -14 179 -14 176 0 191 4 191 46 0 27 -18 42 -61 50 -68 13 -69 17 -69 214
0 123 4 180 12 188 17 17 469 17 486 0 8 -8 12 -65 12 -190 0 -173 -1 -178
-22 -192 -13 -7 -36 -17 -53 -21 -40 -9 -55 -23 -55 -49 0 -42 15 -46 190 -46
175 0 190 4 190 46 0 27 -18 42 -58 50 -17 3 -40 15 -51 26 -21 18 -21 27 -21
418 0 391 0 400 21 418 11 11 34 23 51 26 40 8 58 23 58 50 0 42 -15 46 -190
46 -175 0 -190 -4 -190 -46 0 -26 15 -40 55 -49 17 -4 40 -14 53 -21 21 -14
22 -20 22 -167 0 -106 -4 -157 -12 -165 -17 -17 -469 -17 -486 0 -8 8 -12 59
-12 165 0 147 1 153 23 167 12 7 35 17 52 21 40 9 55 23 55 49 0 42 -15 46
-191 46 -133 0 -169 -3 -179 -14z"/>
<path d="M12040 15466 c-20 -25 -8 -60 25 -69 17 -5 41 -14 55 -21 l25 -12 0
-419 0 -419 -27 -13 c-16 -7 -40 -19 -55 -26 -18 -8 -29 -22 -31 -38 -6 -49 6
-51 295 -47 241 4 274 7 325 26 176 64 263 196 288 433 23 223 -29 412 -140
512 -98 88 -190 107 -516 107 -190 0 -234 -3 -244 -14z m592 -125 c62 -30 124
-101 144 -165 21 -66 30 -292 15 -380 -23 -131 -80 -215 -174 -257 -43 -19
-73 -24 -180 -27 -91 -3 -132 -1 -142 8 -13 11 -15 73 -15 419 0 312 3 410 13
420 9 10 47 12 152 9 122 -3 146 -6 187 -27z"/>
<path d="M13120 15466 c-19 -23 -8 -59 23 -73 15 -7 39 -19 55 -26 l27 -13 0
-414 0 -414 -25 -13 c-14 -7 -38 -18 -55 -25 -33 -14 -45 -49 -25 -74 10 -11
45 -14 175 -14 130 0 165 3 175 14 20 25 8 60 -25 74 -16 7 -41 18 -55 25
l-25 13 0 414 0 414 28 13 c15 7 39 19 55 26 30 14 41 50 22 73 -10 11 -45 14
-175 14 -130 0 -165 -3 -175 -14z"/>
<path d="M13662 15468 c-16 -16 -15 -53 1 -65 6 -6 27 -13 46 -17 19 -3 40
-11 48 -17 18 -16 17 -75 -12 -483 -26 -379 -26 -378 -87 -390 -40 -8 -58 -23
-58 -50 0 -42 16 -46 175 -46 158 0 175 4 175 45 0 27 -18 45 -46 45 -13 0
-35 10 -49 23 l-27 23 16 329 c9 182 16 340 16 353 0 14 6 22 18 22 14 0 44
-79 156 -403 77 -221 146 -410 154 -419 18 -21 71 -24 94 -5 10 7 69 181 143
417 69 222 128 406 130 408 2 3 10 2 18 -1 18 -7 67 -689 51 -715 -6 -9 -28
-21 -50 -27 -53 -13 -64 -22 -64 -49 0 -42 15 -46 190 -46 175 0 190 4 190 46
0 27 -15 39 -66 53 -23 6 -46 17 -52 24 -6 7 -25 194 -42 416 -30 381 -31 404
-14 422 9 10 33 22 53 25 45 8 61 21 61 48 0 41 -17 46 -160 46 -118 0 -139
-2 -152 -17 -8 -10 -68 -197 -134 -416 -104 -349 -121 -397 -138 -395 -15 2
-44 77 -153 403 -74 220 -142 406 -151 413 -22 17 -263 17 -280 0z"/>
<path d="M5173 15409 c-80 -6 -126 -14 -159 -30 -26 -11 -66 -28 -88 -35 -23
-8 -57 -25 -76 -38 -19 -13 -46 -26 -60 -30 -14 -4 -50 -20 -80 -36 -30 -15
-70 -31 -88 -35 -18 -4 -61 -19 -95 -35 -34 -15 -89 -35 -121 -45 -33 -9 -86
-30 -118 -46 -31 -16 -68 -29 -81 -29 -13 0 -91 -25 -173 -55 -216 -81 -286
-113 -353 -164 -25 -19 -69 -51 -98 -71 -124 -86 -246 -202 -314 -301 -47 -68
-119 -209 -124 -244 -1 -11 -10 -37 -19 -57 -9 -21 -16 -40 -16 -43 0 -3 -16
-28 -35 -56 -21 -30 -35 -63 -35 -81 0 -16 -6 -41 -14 -56 -7 -15 -17 -52 -21
-82 -4 -30 -13 -71 -21 -90 -7 -19 -14 -57 -14 -85 -1 -27 -2 -169 -3 -315
l-2 -265 33 -85 c17 -47 32 -95 32 -107 0 -12 9 -37 20 -55 11 -18 20 -43 20
-55 0 -12 6 -37 14 -55 27 -65 60 -270 58 -363 -3 -128 -21 -284 -37 -325 -7
-19 -16 -61 -19 -92 -3 -39 -18 -85 -44 -140 -22 -46 -47 -105 -55 -133 -8
-27 -42 -114 -76 -193 -34 -78 -61 -146 -61 -151 0 -5 -12 -35 -26 -67 -15
-33 -39 -102 -54 -154 -15 -52 -60 -159 -99 -237 -39 -78 -71 -148 -71 -156 0
-8 -26 -68 -58 -133 -32 -66 -62 -137 -65 -159 -4 -22 -25 -75 -47 -118 -37
-70 -110 -270 -110 -300 0 -7 -7 -25 -16 -42 -41 -78 -154 -330 -154 -344 0
-9 -6 -25 -14 -36 -41 -60 -66 -119 -72 -172 -6 -57 -38 -153 -75 -223 -16
-31 -60 -167 -88 -276 -6 -23 -11 -77 -11 -122 0 -58 -5 -92 -20 -123 -11 -24
-20 -61 -20 -82 0 -21 -9 -66 -19 -100 -14 -44 -22 -109 -27 -227 -13 -300 -7
-449 27 -581 5 -20 9 -66 9 -102 0 -38 8 -92 20 -129 22 -68 52 -201 53 -233
1 -31 36 -166 46 -179 6 -6 17 -45 26 -86 31 -144 46 -199 71 -267 14 -37 32
-88 41 -113 57 -164 220 -401 370 -535 48 -43 141 -132 206 -197 64 -65 136
-130 160 -145 23 -15 57 -40 75 -55 18 -15 39 -28 47 -28 8 0 36 -11 62 -24
27 -13 70 -34 97 -45 60 -27 136 -90 136 -113 0 -10 16 -57 36 -105 27 -65 40
-117 51 -202 10 -76 23 -134 39 -167 13 -28 24 -61 24 -72 0 -27 36 -133 65
-192 33 -65 71 -164 95 -246 12 -40 37 -94 56 -120 18 -27 34 -54 34 -59 0
-23 58 -147 80 -170 13 -14 45 -39 71 -55 33 -22 55 -47 78 -89 37 -71 120
-146 212 -193 35 -18 93 -57 128 -87 41 -33 117 -79 205 -122 77 -38 167 -87
201 -109 59 -39 189 -90 227 -90 11 0 39 -9 64 -20 95 -44 126 -50 326 -67
l68 -5 30 -53 c17 -29 37 -58 45 -65 8 -7 15 -23 15 -36 0 -27 56 -119 109
-180 20 -23 53 -74 73 -115 51 -100 108 -168 339 -404 205 -209 280 -298 323
-383 18 -35 44 -64 81 -92 30 -22 139 -122 243 -223 141 -137 204 -190 252
-216 36 -19 83 -46 105 -61 212 -144 425 -234 581 -245 49 -4 125 -17 169 -28
106 -29 230 -27 300 3 28 12 77 30 110 41 61 19 213 92 263 127 15 11 45 25
67 32 62 20 180 77 211 102 47 37 115 82 179 118 33 18 87 53 121 76 34 23 87
54 118 69 31 14 56 30 56 34 0 4 22 22 49 39 27 18 78 61 113 96 35 35 83 73
106 85 23 12 73 42 111 66 38 25 73 45 77 45 4 0 30 17 58 39 28 21 125 76
216 121 91 45 170 86 175 90 34 27 221 80 284 80 13 0 55 8 93 17 77 18 71 19
353 -36 55 -11 159 -22 230 -25 72 -3 160 -8 196 -10 75 -6 269 -43 284 -56
19 -16 190 -78 235 -85 25 -5 82 -9 127 -11 45 -2 91 -8 101 -13 10 -5 27 -8
38 -5 10 3 39 -2 64 -11 27 -10 90 -18 160 -21 119 -5 157 -19 146 -54 -29
-94 -52 -202 -71 -332 -24 -159 -31 -180 -95 -278 -15 -25 -29 -55 -29 -67 -2
-41 -159 -123 -256 -134 -216 -23 -279 -34 -370 -64 -55 -19 -120 -36 -145
-40 -25 -4 -88 -15 -142 -26 -53 -10 -110 -19 -128 -19 -17 0 -63 -13 -101
-30 -39 -16 -97 -34 -129 -39 -32 -5 -89 -19 -127 -30 -37 -11 -104 -27 -148
-35 -44 -8 -102 -24 -130 -35 -27 -11 -102 -34 -165 -52 -100 -28 -138 -33
-295 -40 -166 -7 -267 -20 -370 -46 -97 -25 -608 -66 -855 -69 -107 -1 -250
-8 -318 -15 -93 -10 -137 -10 -185 -1 -34 6 -100 14 -147 17 -115 8 -280 32
-365 54 -75 20 -167 36 -255 46 -53 5 -174 40 -195 55 -5 4 -44 17 -85 29 -41
12 -100 37 -130 55 -54 32 -102 56 -230 114 -122 55 -235 158 -287 263 -15 29
-66 78 -164 154 -35 27 -83 70 -107 94 -54 58 -122 161 -122 187 0 39 -31 124
-53 144 -33 31 -103 24 -130 -12 l-21 -28 21 -22 c29 -32 43 -62 43 -93 0 -39
53 -148 104 -212 86 -111 97 -122 154 -159 72 -46 132 -103 132 -124 0 -25 92
-149 153 -207 38 -36 66 -54 93 -59 49 -9 216 -89 246 -118 41 -40 82 -63 128
-74 25 -6 78 -24 119 -41 40 -17 84 -31 97 -31 13 0 41 -6 61 -14 44 -17 145
-35 258 -46 127 -13 189 -27 265 -60 66 -29 80 -31 164 -29 82 2 322 -16 354
-27 8 -2 67 3 132 11 81 11 181 15 321 13 167 -2 218 0 279 15 41 9 153 21
250 27 169 9 269 23 395 55 33 9 145 20 250 25 243 12 268 17 477 83 95 30
238 71 318 91 80 20 192 49 250 65 110 31 264 61 315 61 31 0 115 24 225 64
36 13 110 29 165 35 282 30 283 31 458 117 128 64 160 102 136 167 -10 29 -9
43 4 85 10 28 17 66 17 84 0 18 7 55 15 82 8 27 15 63 15 80 0 17 9 45 20 61
14 21 20 47 20 85 0 65 20 139 41 150 8 5 45 2 84 -7 84 -19 286 -18 325 2 14
7 37 15 52 19 14 3 72 43 128 88 56 46 114 93 128 104 35 28 192 98 312 139
82 28 308 140 407 201 62 39 255 219 320 299 35 44 78 107 95 140 17 33 44 80
61 104 16 24 45 80 64 125 18 45 42 92 52 106 38 52 59 108 79 210 12 58 26
119 31 137 5 17 12 71 16 120 3 48 15 129 26 178 38 179 40 466 5 660 -29 156
-57 382 -66 532 -9 154 -19 197 -69 293 -10 19 -22 51 -25 70 -4 19 -13 51
-21 70 -8 19 -18 65 -24 102 -10 70 -47 161 -124 303 -37 68 -97 216 -125 306
-16 52 -37 111 -47 130 -23 44 -86 150 -101 169 -7 8 -26 42 -44 75 -18 33
-44 76 -59 95 -15 19 -47 68 -70 108 -24 40 -47 75 -52 78 -5 3 -34 42 -64 87
-114 169 -139 199 -254 304 -112 102 -233 187 -369 258 -32 17 -86 49 -120 72
-75 50 -118 60 -184 43 -60 -15 -78 -4 -78 50 0 20 -4 50 -10 66 -5 16 -14 81
-19 144 -12 137 -38 337 -46 350 -3 5 -10 37 -14 72 -19 130 -52 311 -60 327
-5 9 -12 39 -16 66 -3 28 -13 78 -21 111 -8 34 -17 126 -19 205 -11 292 -20
393 -38 426 -9 18 -17 41 -17 52 0 31 -37 52 -69 40 -65 -25 -74 -56 -39 -128
16 -32 23 -66 24 -111 2 -120 24 -415 33 -445 5 -16 15 -70 21 -120 6 -49 16
-104 21 -120 22 -73 78 -375 95 -515 2 -19 11 -82 19 -140 38 -277 47 -412 60
-925 3 -148 11 -301 16 -340 5 -38 12 -160 14 -270 3 -110 10 -281 15 -380 6
-99 10 -256 8 -350 -1 -93 1 -258 7 -365 5 -107 8 -206 8 -220 -2 -87 -14
-333 -18 -372 -6 -52 4 -68 62 -99 23 -12 31 -26 36 -55 10 -57 8 -109 -3
-140 -6 -15 -15 -68 -19 -118 -5 -50 -17 -120 -26 -156 -22 -86 -82 -204 -125
-249 -47 -48 -123 -75 -192 -67 -118 12 -298 27 -383 31 -49 3 -112 11 -140
19 -58 16 -218 83 -289 120 -27 14 -60 26 -73 26 -13 0 -50 11 -83 25 -33 14
-72 25 -88 25 -16 0 -48 6 -73 14 -58 18 -129 33 -212 46 -37 6 -89 18 -115
27 -38 13 -88 16 -257 17 -195 0 -218 -2 -318 -27 -59 -15 -129 -38 -155 -52
-26 -14 -51 -25 -56 -25 -4 0 -56 -21 -115 -46 -158 -69 -434 -258 -497 -341
-35 -47 -44 -54 -119 -97 -33 -19 -69 -44 -80 -56 -67 -74 -407 -304 -550
-371 -49 -23 -109 -55 -132 -71 -23 -15 -52 -32 -65 -37 -13 -5 -60 -36 -106
-70 -45 -33 -85 -61 -88 -61 -4 0 -36 -15 -73 -34 -53 -27 -83 -35 -151 -41
-47 -4 -114 -13 -150 -21 -46 -10 -120 -13 -255 -11 l-190 3 -100 54 c-86 47
-118 72 -225 180 -69 69 -135 136 -146 150 -12 14 -66 68 -121 120 -96 92
-156 171 -188 247 -9 20 -33 60 -55 88 -21 28 -49 65 -62 82 -13 18 -51 68
-85 112 -39 49 -81 120 -112 190 -49 105 -73 145 -149 244 -18 23 -41 60 -52
83 -11 22 -28 51 -38 65 -11 13 -34 58 -52 99 -18 41 -44 89 -59 106 -14 17
-34 44 -43 60 -34 56 -73 112 -118 169 -88 110 -110 148 -190 320 -18 39 -45
86 -60 105 -15 19 -46 71 -69 115 -23 44 -55 103 -71 130 -16 28 -39 70 -51
95 -12 25 -37 63 -55 85 -86 103 -132 168 -128 179 3 7 20 20 39 29 40 19 44
40 19 90 -39 74 -14 885 31 1033 8 26 -38 84 -66 84 -79 0 -109 -172 -124
-700 -2 -80 -7 -191 -11 -247 -9 -143 -15 -143 -164 5 -197 195 -331 298 -434
331 -60 19 -62 31 -26 121 12 30 24 65 27 77 3 13 38 60 78 105 39 46 82 103
95 128 33 64 210 236 259 251 38 11 60 9 241 -25 141 -27 187 -57 251 -163 28
-45 54 -85 60 -89 5 -3 20 -23 33 -43 32 -50 84 -101 104 -102 54 -3 89 5 109
24 30 30 93 222 93 283 0 27 8 85 17 129 10 44 18 118 18 165 3 257 5 280 21
287 9 3 47 -4 83 -15 37 -12 81 -22 97 -22 30 0 152 -38 193 -60 20 -10 87
-26 341 -78 119 -25 290 -36 355 -22 224 44 359 100 402 166 15 24 15 29 2 52
-8 15 -30 36 -49 49 -19 12 -49 33 -66 47 -18 15 -58 38 -90 52 -66 29 -127
73 -228 164 -40 36 -104 93 -142 127 -38 35 -86 74 -106 88 -21 14 -38 30 -38
35 0 10 -140 104 -201 136 -17 9 -71 55 -120 102 -49 48 -105 103 -125 122
-65 62 -161 174 -177 207 -9 17 -29 41 -44 53 -39 31 -70 81 -108 173 -18 45
-47 105 -64 132 -35 56 -49 86 -81 165 -12 30 -35 82 -51 116 -32 67 -47 108
-59 169 -74 368 -75 336 16 570 46 119 73 165 112 192 40 27 55 22 70 -21 7
-18 21 -41 32 -51 28 -25 63 -8 89 43 35 68 182 180 293 223 25 10 92 26 149
35 56 9 141 31 190 50 49 19 105 34 125 34 41 0 216 34 284 55 65 20 139 28
275 29 90 1 128 5 150 17 82 44 585 19 630 -31 15 -16 14 -19 -1 -35 -9 -9
-27 -23 -40 -32 -33 -21 -89 -138 -89 -184 0 -30 -5 -41 -26 -53 -26 -15 -29
-14 -96 24 -91 53 -157 64 -343 56 -247 -11 -445 -42 -527 -84 -49 -26 -152
-131 -179 -183 -12 -26 -30 -49 -38 -52 -8 -3 -41 10 -73 30 -155 94 -269 133
-386 133 -73 0 -88 -4 -181 -45 -88 -40 -109 -55 -163 -113 -35 -37 -63 -71
-63 -75 0 -5 -11 -32 -24 -60 -13 -29 -26 -68 -30 -88 -4 -21 -15 -48 -26 -62
-26 -33 -25 -39 6 -71 58 -57 117 -21 128 79 8 74 67 197 111 231 40 30 146
70 211 79 38 5 64 2 105 -13 30 -11 90 -33 135 -49 113 -41 185 -85 255 -156
115 -116 119 -123 119 -177 0 -58 18 -80 63 -80 52 0 60 11 52 66 -15 102 -46
176 -97 230 -52 55 -58 75 -30 96 10 7 32 34 49 59 49 71 190 139 289 140 27
0 63 4 79 9 50 15 394 19 445 6 25 -7 71 -28 103 -49 56 -36 57 -38 57 -82 0
-64 36 -98 84 -79 27 10 66 101 66 152 0 55 26 164 51 213 34 67 110 121 317
224 109 53 209 104 224 111 36 19 213 56 263 55 130 -3 448 -104 581 -184 85
-52 213 -168 214 -194 0 -18 50 -53 76 -53 29 0 61 30 70 66 6 23 -5 38 -102
135 -121 121 -218 194 -309 229 -33 13 -70 32 -83 43 l-22 21 27 29 c16 15 66
47 112 70 69 33 104 43 185 54 210 27 199 27 243 4 23 -11 45 -26 48 -32 10
-16 185 -99 208 -99 11 0 36 -13 56 -30 89 -73 140 -119 186 -170 28 -31 68
-70 90 -88 81 -64 181 -170 218 -230 58 -94 61 -152 12 -210 -28 -33 -55 -109
-55 -157 -1 -16 -7 -41 -15 -55 -29 -51 -8 -90 49 -90 39 0 74 33 86 82 22 84
35 108 56 108 18 0 23 -7 27 -37 3 -21 12 -58 20 -83 9 -25 18 -56 21 -70 3
-14 23 -45 44 -69 31 -35 42 -42 60 -37 19 6 22 15 22 55 0 26 -9 75 -20 108
-21 63 -51 209 -53 258 -2 31 -2 32 117 101 40 23 87 40 140 50 45 8 98 20
120 25 60 16 206 22 266 10 187 -35 216 -51 376 -204 134 -129 184 -200 184
-263 0 -14 7 -39 16 -56 11 -22 15 -47 11 -82 -11 -120 30 -214 82 -186 25 13
54 66 45 82 -4 6 -9 52 -10 102 -4 100 -33 256 -57 302 -26 50 -336 352 -392
381 -64 34 -229 65 -357 67 l-128 2 -44 46 c-58 58 -101 73 -281 98 -68 9
-171 35 -218 54 -129 53 -183 54 -219 5 -12 -16 -27 -29 -34 -29 -7 0 -50 37
-97 83 -143 138 -238 210 -314 237 -37 13 -104 47 -148 75 -46 30 -102 57
-133 65 -98 23 -302 -9 -454 -72 -78 -32 -106 -50 -143 -89 -26 -27 -45 -57
-43 -67 7 -45 -32 -53 -109 -23 -51 20 -91 24 -218 24 -139 0 -316 -57 -484
-154 -29 -17 -192 -79 -206 -79 -8 0 -21 15 -29 34 -8 19 -23 39 -33 44 -53
27 -599 32 -738 6 -44 -8 -150 -16 -235 -18 -133 -2 -166 -7 -235 -29 -44 -14
-116 -28 -160 -32 -98 -8 -155 -21 -221 -51 -28 -13 -91 -30 -139 -39 -128
-22 -210 -50 -297 -100 -43 -25 -81 -45 -85 -45 -5 0 -42 -32 -83 -70 -41 -38
-80 -70 -87 -70 -7 0 -18 10 -24 23 -15 27 -39 46 -60 47 -9 0 -52 11 -95 25
-89 28 -133 31 -172 11 -15 -8 -56 -19 -92 -24 -36 -6 -94 -16 -130 -22 -82
-14 -231 -85 -335 -160 -92 -66 -116 -91 -139 -140 -18 -40 -66 -91 -155 -169
-34 -29 -86 -85 -115 -125 -29 -39 -68 -84 -86 -101 -53 -50 -90 -113 -106
-183 -8 -36 -22 -81 -30 -100 -8 -19 -14 -42 -14 -52 0 -17 -21 -86 -54 -175
-8 -23 -20 -105 -27 -183 -15 -160 -2 -296 32 -364 11 -21 19 -49 19 -63 0
-42 53 -135 129 -225 78 -93 91 -104 167 -146 51 -28 117 -81 196 -156 21 -21
44 -38 51 -38 6 0 34 -15 62 -33 112 -75 199 -127 214 -127 9 0 38 -11 66 -24
27 -13 93 -44 145 -69 105 -50 297 -120 375 -137 71 -16 86 -31 100 -98 14
-65 4 -360 -14 -442 -6 -25 -10 -61 -11 -80 0 -51 -45 -142 -67 -138 -35 7
-133 155 -133 201 0 13 -8 31 -17 39 -31 26 -156 79 -208 89 -27 5 -81 18
-120 30 -47 14 -97 21 -153 21 -73 0 -91 -4 -148 -32 -35 -17 -72 -43 -82 -57
-9 -14 -48 -60 -87 -103 -38 -42 -81 -96 -95 -120 -14 -24 -49 -71 -78 -104
-29 -34 -59 -81 -68 -106 -9 -25 -31 -75 -50 -111 -19 -37 -34 -72 -34 -80 0
-7 -18 -42 -39 -78 -55 -93 -160 -408 -161 -483 0 -12 -7 -32 -15 -42 -8 -11
-15 -41 -15 -66 0 -25 -6 -70 -14 -100 -31 -123 -34 -258 -22 -820 5 -225 24
-329 81 -465 8 -16 16 -42 19 -57 10 -44 50 -63 124 -60 62 2 66 1 124 -42 33
-25 83 -73 110 -107 48 -59 108 -174 108 -206 0 -9 8 -34 19 -57 10 -23 28
-68 41 -101 12 -33 30 -78 40 -100 10 -22 21 -51 25 -65 4 -14 27 -52 50 -85
39 -55 105 -185 105 -207 0 -5 11 -24 25 -42 14 -18 36 -64 49 -102 14 -38 30
-84 38 -102 11 -28 11 -34 -2 -43 -30 -19 -263 16 -327 49 -10 5 -51 19 -92
31 -44 12 -97 36 -130 59 -31 22 -78 46 -104 55 -27 9 -70 29 -95 45 -26 16
-69 36 -97 45 -48 16 -115 65 -217 159 -26 24 -63 50 -83 59 -44 20 -73 46
-92 83 -21 40 -110 133 -153 161 -24 15 -43 40 -59 76 -13 30 -39 86 -57 126
-19 39 -34 75 -34 78 0 4 -15 39 -34 78 -19 40 -42 90 -51 112 -37 85 -115
338 -155 500 -23 94 -50 199 -61 234 -10 35 -19 82 -19 105 0 22 -5 57 -11 76
-23 77 -28 178 -15 332 7 84 11 170 9 190 -5 35 29 287 47 358 20 75 30 144
30 203 0 46 7 77 26 117 14 30 34 102 44 160 23 127 47 200 99 294 21 39 41
88 45 109 10 52 59 158 110 236 46 71 86 146 86 161 0 14 45 104 93 187 54 92
181 223 277 284 188 120 219 138 282 163 36 14 71 26 77 26 21 0 81 62 81 84
0 23 -42 68 -71 79 -9 3 -41 -7 -70 -23 -30 -15 -82 -37 -115 -50 -34 -12 -83
-39 -109 -61 -26 -21 -67 -48 -91 -58 -49 -22 -270 -227 -322 -300 -18 -25
-66 -111 -106 -191 -77 -152 -104 -205 -118 -230 -4 -8 -30 -59 -56 -112 -32
-66 -52 -98 -64 -98 -11 0 -30 24 -52 63 -33 58 -50 118 -76 267 -4 25 -15 67
-24 93 -24 75 -30 255 -12 367 33 207 45 271 52 282 5 7 12 33 16 58 5 25 13
66 18 93 6 26 14 70 18 97 5 28 14 56 20 62 7 7 12 24 12 39 0 15 7 49 15 75
8 27 28 96 45 154 32 111 38 130 75 225 44 114 85 251 85 286 0 14 4 29 9 34
6 6 19 37 30 70 10 33 33 94 51 135 51 120 77 198 105 310 14 57 38 138 54
180 37 97 65 187 86 275 25 106 45 176 65 220 10 22 36 85 60 140 23 54 50
110 61 123 10 14 19 29 19 35 0 14 47 85 82 123 16 17 50 58 76 91 26 34 83
102 127 151 44 49 104 120 134 156 56 69 216 186 254 186 10 0 49 13 86 29
104 44 221 71 350 80 108 7 121 6 190 -16 85 -28 232 -39 356 -26 44 4 118 5
165 2 72 -5 96 -3 155 16 101 33 189 47 280 44 82 -3 179 13 315 51 41 11 91
24 110 29 73 17 187 64 245 101 77 49 136 80 153 80 8 0 36 12 63 26 65 36 95
28 109 -29 15 -59 31 -97 41 -97 13 0 50 -58 71 -113 59 -157 68 -190 59 -221
-13 -43 -31 -133 -31 -159 0 -12 -9 -33 -20 -47 -11 -14 -20 -35 -20 -47 0
-20 51 -73 71 -73 16 0 49 40 49 60 0 10 11 54 25 97 14 43 25 88 25 100 0 37
22 73 48 80 16 4 41 -2 71 -17 76 -37 151 -60 200 -60 25 -1 64 -7 86 -15 88
-32 171 -11 177 44 5 41 -37 62 -133 67 -46 2 -115 13 -154 25 -38 11 -108 32
-154 45 -46 14 -93 32 -106 40 -12 8 -37 47 -54 86 -18 39 -44 86 -57 104 -14
18 -52 83 -85 145 -67 127 -68 126 19 176 23 14 50 35 60 46 9 12 47 45 83 74
37 28 77 62 90 75 14 12 46 42 72 66 58 52 129 149 162 219 13 28 28 54 33 57
6 3 13 23 17 43 8 45 42 158 57 193 16 36 26 128 38 355 9 169 8 208 -4 250
-8 28 -20 77 -27 110 -6 33 -22 83 -34 110 -28 62 -45 115 -45 141 0 21 -50
125 -111 229 -73 125 -129 203 -184 256 -31 30 -96 93 -144 141 -56 57 -96 89
-116 93 -33 7 -244 84 -315 115 -25 11 -79 29 -121 39 -41 11 -124 42 -184 71
-97 46 -163 74 -265 110 -19 7 -64 25 -100 40 -100 42 -177 67 -275 90 -49 11
-118 27 -151 36 -34 9 -97 15 -140 15 -257 -3 -537 13 -729 43 -11 2 -70 0
-132 -5z m222 -122 c28 1 86 -4 130 -12 108 -19 169 -25 305 -30 63 -2 130 -8
149 -14 18 -6 67 -8 110 -4 56 4 91 1 127 -10 27 -8 69 -18 94 -21 70 -10 223
-63 367 -127 23 -11 45 -19 50 -19 7 0 191 -85 328 -151 33 -15 98 -38 143
-50 46 -11 99 -27 118 -35 19 -8 57 -16 84 -19 71 -6 215 -92 256 -152 16 -24
45 -56 64 -71 19 -14 44 -38 55 -51 30 -38 96 -142 105 -167 5 -12 21 -37 37
-55 69 -83 103 -150 128 -257 9 -37 23 -84 31 -105 8 -20 14 -59 14 -84 0 -26
6 -65 14 -88 29 -84 37 -166 27 -273 -5 -57 -7 -110 -5 -117 3 -7 -3 -39 -14
-71 -10 -33 -25 -86 -32 -119 -12 -55 -43 -154 -68 -215 -6 -14 -13 -38 -17
-53 -3 -16 -27 -49 -53 -75 -26 -26 -77 -80 -114 -119 -37 -40 -82 -80 -100
-89 -18 -9 -62 -44 -98 -78 -63 -61 -128 -106 -153 -106 -7 0 -31 24 -54 53
-24 28 -66 79 -95 113 -29 33 -75 88 -103 122 -29 36 -80 82 -120 108 -100 67
-145 104 -145 119 0 17 145 167 177 184 28 14 57 69 89 167 25 79 25 93 -7
112 -17 11 -25 11 -44 -2 -26 -17 -46 -48 -122 -184 -43 -77 -234 -237 -343
-287 -19 -9 -46 -27 -60 -39 -32 -30 -62 -46 -120 -62 -25 -7 -79 -27 -120
-44 -102 -44 -245 -73 -350 -72 -344 4 -556 18 -610 40 -14 5 -68 15 -120 22
-121 16 -204 45 -253 89 l-39 35 -35 -19 c-20 -11 -42 -30 -51 -43 -14 -21
-14 -27 1 -57 9 -19 27 -41 40 -49 24 -16 111 -43 232 -70 39 -9 95 -22 125
-30 126 -31 192 -37 486 -42 266 -5 319 -3 384 11 41 9 98 21 125 27 28 5 69
20 92 34 23 13 48 24 56 24 29 0 142 53 223 105 92 60 125 67 148 33 11 -15
31 -23 72 -29 56 -7 60 -11 151 -101 52 -51 101 -107 109 -125 9 -17 41 -58
73 -90 32 -32 68 -77 81 -100 22 -40 22 -44 7 -61 -9 -10 -52 -37 -97 -61 -44
-23 -103 -58 -130 -76 -49 -33 -202 -88 -335 -121 -95 -23 -182 -33 -365 -43
-101 -6 -171 -14 -199 -25 -85 -32 -518 -40 -691 -13 -83 13 -124 14 -195 7
-149 -16 -236 -35 -320 -70 -44 -18 -127 -52 -185 -75 -110 -44 -197 -108
-251 -184 -13 -19 -52 -63 -86 -97 -35 -34 -63 -66 -63 -73 0 -6 -13 -17 -29
-26 -18 -9 -40 -36 -58 -71 -16 -33 -42 -66 -60 -78 -18 -11 -38 -33 -44 -48
-6 -15 -18 -33 -26 -40 -20 -16 -63 -103 -63 -126 0 -11 -7 -25 -16 -33 -21
-17 -49 -73 -75 -150 -12 -35 -34 -93 -50 -129 -15 -36 -32 -94 -38 -127 -5
-34 -15 -71 -20 -82 -6 -11 -11 -29 -11 -39 0 -11 -16 -55 -36 -98 -70 -152
-84 -193 -84 -243 0 -17 -6 -44 -14 -59 -8 -15 -17 -46 -21 -67 -6 -39 -18
-73 -75 -205 -47 -109 -70 -174 -70 -195 0 -11 -9 -45 -21 -75 -32 -85 -50
-153 -49 -180 0 -24 -7 -45 -35 -100 -24 -45 -55 -135 -55 -156 0 -11 -8 -38
-19 -60 -10 -21 -21 -56 -24 -78 -4 -21 -15 -47 -26 -57 -14 -13 -21 -38 -26
-86 -3 -37 -10 -79 -15 -93 -5 -14 -11 -47 -15 -74 -4 -27 -10 -58 -15 -70 -4
-11 -14 -48 -21 -81 -7 -33 -21 -78 -32 -99 -13 -27 -22 -76 -28 -149 -5 -60
-14 -128 -20 -151 -13 -45 -20 -93 -21 -146 -1 -55 28 -250 46 -305 8 -27 23
-95 32 -150 30 -190 31 -193 88 -283 64 -101 67 -118 30 -217 -14 -38 -31 -99
-39 -135 -8 -36 -23 -96 -35 -135 -32 -104 -39 -144 -40 -208 0 -32 -7 -74
-16 -95 -20 -46 -34 -169 -43 -372 -13 -270 -34 -482 -48 -487 -8 -3 -32 7
-54 23 -22 15 -64 37 -92 49 -53 22 -170 100 -262 175 -173 140 -322 294 -420
433 -16 24 -46 63 -66 88 -48 59 -66 95 -84 174 -9 36 -31 94 -50 128 -19 35
-35 73 -35 84 0 10 -6 39 -13 64 -45 145 -57 192 -67 259 -7 41 -16 91 -21
110 -5 19 -9 49 -9 66 0 17 -7 51 -16 75 -9 24 -22 78 -29 119 -7 41 -23 122
-35 180 -23 108 -28 188 -30 498 -1 127 3 187 14 225 8 29 22 90 30 135 9 46
18 87 21 92 3 4 10 39 16 76 6 38 15 92 19 119 8 47 34 140 59 210 5 17 20 68
32 115 38 153 41 165 55 195 7 17 27 66 44 110 17 44 39 91 49 105 31 43 68
121 95 204 15 43 33 90 40 105 8 14 30 73 49 131 19 58 47 130 61 160 14 30
26 63 26 72 0 10 20 57 44 105 42 83 70 151 103 253 19 59 71 171 108 234 29
49 76 162 108 256 32 97 40 117 67 171 36 69 66 158 79 229 5 31 36 114 68
185 58 128 74 177 109 325 9 41 23 90 30 108 19 46 22 294 5 402 -19 124 -60
328 -77 380 -7 25 -22 81 -33 125 -11 44 -26 96 -34 115 -28 68 -40 252 -29
420 12 175 25 275 39 293 5 6 18 41 28 77 11 36 29 85 42 109 13 24 23 51 23
59 0 9 9 34 19 56 59 125 91 197 91 205 0 4 17 28 39 52 21 24 46 60 56 79 25
49 92 111 169 156 42 24 66 45 66 56 0 19 28 38 57 38 9 0 27 10 38 23 30 33
71 57 99 57 14 0 54 15 88 34 35 18 128 52 208 75 80 23 163 51 184 63 22 11
62 26 90 33 60 15 175 62 196 80 8 7 32 15 53 18 20 3 64 22 96 41 32 20 66
36 76 36 10 0 42 14 72 31 58 33 182 69 242 69 20 0 43 5 51 11 9 6 39 7 80 2
36 -4 88 -7 115 -6z m5485 -4368 c30 -12 105 -30 165 -40 299 -52 312 -67 115
-139 -47 -17 -105 -41 -130 -55 -56 -29 -69 -23 -110 53 -17 31 -55 83 -85
115 -55 57 -61 68 -48 80 11 12 36 8 93 -14z m-5139 -325 c17 -16 17 -18 -3
-58 -11 -22 -27 -67 -34 -99 -8 -31 -34 -99 -58 -150 -57 -118 -59 -130 -46
-207 32 -177 31 -177 65 -275 9 -27 20 -66 24 -85 4 -19 17 -53 28 -75 11 -22
33 -78 48 -124 16 -46 46 -110 67 -143 49 -76 91 -159 112 -224 9 -28 31 -74
49 -102 56 -89 173 -235 228 -286 30 -27 119 -113 199 -191 122 -118 160 -149
235 -189 142 -76 252 -161 278 -212 21 -40 175 -164 275 -220 100 -56 122 -72
122 -89 0 -8 -12 -17 -27 -21 -16 -3 -55 -13 -88 -21 -109 -28 -149 -31 -260
-22 -198 17 -378 56 -510 112 -33 13 -76 28 -95 32 -19 3 -62 15 -95 25 -95
30 -199 49 -241 43 -26 -3 -56 2 -89 15 -27 11 -83 27 -123 36 -41 9 -99 29
-130 45 -32 16 -68 32 -82 36 -14 4 -79 33 -145 65 -66 31 -145 65 -175 75
-50 16 -134 60 -201 105 -14 10 -52 31 -85 48 -39 20 -77 51 -113 92 -30 34
-84 81 -121 105 -36 23 -76 56 -89 71 -12 16 -44 58 -71 93 -27 35 -56 82 -63
105 -8 22 -20 57 -27 76 -27 76 -34 141 -32 275 1 92 6 152 15 175 8 19 25 80
37 135 27 114 99 293 139 343 14 18 66 77 115 130 49 53 100 108 113 122 31
35 91 107 133 162 73 96 320 238 413 238 46 0 245 35 255 45 10 10 36 5 53
-11z m7208 -2953 c26 -17 52 -31 56 -31 5 0 40 -22 79 -49 39 -26 87 -56 106
-66 41 -20 128 -84 218 -157 62 -50 82 -74 161 -190 21 -32 61 -84 89 -115 27
-32 63 -86 80 -120 18 -34 36 -64 42 -68 6 -4 23 -34 39 -68 15 -34 57 -101
93 -149 90 -118 125 -182 147 -269 30 -117 78 -242 121 -318 58 -101 86 -169
104 -250 9 -40 21 -80 26 -89 40 -71 120 -380 126 -487 4 -90 17 -187 60 -470
26 -170 35 -264 35 -360 1 -144 -16 -304 -36 -350 -8 -16 -12 -32 -9 -36 10
-17 -40 -295 -67 -374 -6 -16 -17 -51 -24 -77 -7 -26 -22 -60 -32 -75 -11 -15
-34 -62 -52 -103 -110 -252 -243 -450 -380 -563 -114 -93 -151 -118 -221 -147
-41 -18 -113 -49 -160 -70 -47 -22 -110 -46 -140 -54 -92 -25 -168 -54 -228
-85 -31 -16 -75 -37 -97 -46 -21 -9 -53 -30 -71 -48 -53 -55 -117 -103 -173
-131 -46 -24 -68 -28 -174 -33 l-122 -5 -108 41 c-64 24 -124 41 -150 41 -23
0 -67 7 -97 16 -30 9 -77 20 -105 24 -27 5 -93 18 -145 29 -52 12 -132 21
-177 21 -106 0 -165 13 -293 65 -58 23 -143 50 -190 59 -77 14 -144 21 -450
46 -52 4 -111 12 -130 18 -107 32 -300 43 -357 21 -15 -6 -77 -17 -138 -24
-154 -20 -217 -41 -396 -132 -178 -91 -239 -127 -395 -230 -62 -40 -115 -73
-118 -73 -20 0 -137 -91 -188 -145 -33 -36 -83 -75 -117 -94 -34 -18 -73 -42
-88 -55 -30 -24 -173 -111 -238 -144 -22 -11 -71 -45 -109 -75 -38 -30 -105
-74 -150 -97 -181 -94 -297 -149 -401 -191 -98 -39 -118 -44 -185 -43 -41 1
-88 7 -104 13 -16 7 -66 14 -110 18 -132 9 -383 79 -456 127 -41 27 -109 71
-237 151 -76 47 -134 99 -318 282 -124 123 -225 229 -225 234 0 5 -23 34 -50
64 -28 30 -75 88 -105 128 -97 127 -164 201 -213 234 -69 46 -181 169 -260
287 -38 55 -71 108 -74 116 -3 8 -26 40 -50 70 -61 74 -115 161 -124 196 -4
16 -21 56 -39 89 -19 33 -40 83 -48 110 -13 44 -33 88 -75 160 -20 36 -53 118
-78 196 -13 42 -32 87 -43 100 -10 13 -28 44 -41 69 -12 25 -36 60 -51 78 -16
18 -29 38 -29 46 0 15 -51 142 -140 346 -71 164 -151 287 -217 334 -63 45
-171 113 -219 137 -34 18 -43 30 -57 73 -28 87 -39 165 -43 321 -2 83 -8 173
-14 200 -14 68 -7 574 9 602 6 12 11 37 11 55 0 18 10 67 21 108 11 41 29 113
40 160 36 157 78 240 123 240 48 0 238 -112 299 -176 62 -66 223 -227 270
-272 32 -29 70 -75 85 -100 15 -26 48 -77 75 -112 117 -160 161 -229 233 -367
42 -81 92 -171 111 -200 19 -29 39 -67 44 -86 5 -18 17 -42 26 -53 25 -27 73
-99 73 -108 0 -18 76 -134 115 -176 52 -56 100 -131 164 -258 27 -54 57 -104
66 -112 9 -7 24 -30 34 -49 10 -20 49 -90 88 -156 38 -66 79 -140 91 -165 36
-77 127 -213 171 -256 22 -23 41 -45 41 -50 0 -5 13 -25 29 -44 15 -19 44 -67
64 -106 19 -38 43 -76 52 -84 9 -7 28 -34 43 -59 14 -25 60 -85 101 -132 42
-47 94 -109 115 -137 22 -28 60 -66 85 -86 25 -19 98 -88 161 -152 79 -80 134
-127 175 -149 223 -119 217 -116 254 -111 20 3 73 10 117 17 61 9 95 9 137 1
47 -9 63 -8 118 9 49 16 89 20 169 19 82 0 118 4 164 20 78 26 202 94 247 135
20 18 58 45 85 61 27 15 65 40 84 54 19 15 58 36 87 48 61 24 174 89 235 135
24 18 55 38 71 44 27 13 115 78 186 139 20 17 88 66 151 109 63 43 148 113
190 155 41 42 109 98 150 125 41 27 101 66 132 87 79 54 368 179 478 208 25 6
101 15 169 20 109 8 134 7 200 -9 42 -11 108 -22 146 -26 39 -3 84 -10 100
-15 17 -4 64 -14 105 -21 224 -38 356 -77 449 -133 74 -45 196 -90 304 -111
69 -14 116 -17 210 -12 83 4 161 1 246 -10 105 -13 132 -14 179 -2 62 15 159
73 184 110 43 66 145 354 154 432 3 34 12 87 19 117 12 51 12 100 2 350 -2 42
-11 71 -39 120 -35 64 -36 68 -43 210 -3 80 -8 208 -10 285 -2 77 -8 190 -13
250 -6 70 -6 119 0 135 6 15 7 66 3 125 -4 55 -9 127 -11 160 -2 33 -8 98 -14
145 -5 47 -9 90 -9 95 9 128 5 386 -6 491 -13 114 -20 285 -26 644 -1 117 -1
118 19 122 30 7 111 -19 161 -51z"/>
<path d="M6627 14359 c-33 -34 -46 -57 -56 -100 -12 -51 -12 -60 6 -101 22
-49 77 -84 117 -74 13 3 46 31 75 61 57 61 57 59 34 169 -9 46 -42 74 -96 83
-34 5 -41 2 -80 -38z"/>
<path d="M5245 14298 c-122 -76 -153 -120 -122 -170 8 -13 17 -34 21 -48 3
-14 21 -42 40 -62 31 -33 41 -38 82 -38 66 0 139 43 159 93 20 50 19 70 -10
152 -39 110 -81 129 -170 73z"/>
<path d="M8822 13448 c-28 -28 -7 -78 34 -78 12 0 33 -9 48 -21 l26 -21 -2
-411 -3 -411 -25 -13 c-14 -7 -38 -18 -55 -25 -33 -14 -45 -49 -25 -74 10 -11
45 -14 174 -14 171 0 186 4 186 46 0 27 -18 42 -58 50 -63 13 -63 7 -60 365 3
278 5 324 18 326 10 2 95 -123 255 -374 132 -208 248 -386 258 -395 20 -21
106 -25 125 -6 9 9 12 129 12 479 0 511 -3 483 61 495 44 9 59 21 59 48 0 42
-15 46 -185 46 -169 0 -185 -4 -185 -45 0 -27 18 -45 46 -45 12 0 33 -9 48
-21 l26 -20 0 -330 c0 -313 -1 -329 -18 -329 -14 0 -86 105 -262 380 -133 209
-252 387 -263 395 -27 19 -217 21 -235 3z"/>
<path d="M10337 13448 c-10 -8 -85 -207 -178 -468 -88 -250 -167 -462 -175
-470 -7 -8 -33 -23 -56 -35 -29 -13 -44 -27 -46 -43 -7 -47 8 -52 178 -52 170
0 185 5 178 52 -2 17 -14 27 -48 38 -83 27 -84 32 -44 155 38 117 34 115 236
115 93 0 178 -4 188 -10 19 -10 80 -165 80 -205 0 -28 -9 -35 -70 -55 -34 -11
-46 -21 -48 -38 -7 -48 7 -52 192 -52 181 0 196 3 196 46 0 26 -13 38 -63 54
-21 6 -44 22 -52 34 -8 12 -85 222 -171 466 -86 245 -163 453 -172 463 -18 20
-99 24 -125 5z m78 -225 c102 -294 123 -361 112 -372 -13 -13 -265 -15 -286
-2 -12 8 -4 39 44 183 73 217 82 238 99 238 8 0 22 -21 31 -47z"/>
<path d="M12195 9786 c-76 -82 -238 -178 -390 -232 -44 -16 -114 -52 -156 -81
-42 -28 -123 -74 -180 -101 -57 -27 -120 -60 -141 -74 -20 -14 -56 -30 -80
-36 -97 -26 -258 -61 -333 -73 -44 -7 -138 -32 -210 -56 -71 -24 -139 -43
-152 -43 -12 0 -62 -13 -110 -29 -51 -17 -124 -32 -173 -36 -47 -4 -113 -18
-147 -31 -34 -12 -100 -28 -145 -34 -46 -7 -110 -18 -143 -25 -124 -28 -173
-36 -275 -46 -58 -5 -134 -14 -170 -19 -36 -5 -108 -9 -160 -8 -52 0 -142 -4
-200 -11 -138 -15 -694 -21 -784 -9 -39 5 -98 14 -131 19 -33 6 -112 13 -175
17 -63 4 -120 10 -126 14 -25 16 -173 39 -272 43 -130 5 -216 19 -302 50 -36
13 -75 27 -87 30 -12 3 -52 26 -90 51 -37 24 -104 59 -148 77 -44 17 -107 46
-140 64 -124 67 -190 95 -282 118 -69 18 -114 37 -169 71 -41 27 -81 55 -88
63 -69 77 -74 81 -115 81 -56 0 -81 -26 -81 -84 0 -48 12 -66 61 -91 16 -9 29
-19 29 -23 0 -14 151 -89 225 -113 86 -27 170 -64 206 -90 15 -10 34 -19 42
-19 8 0 40 -14 71 -30 31 -17 80 -39 109 -50 29 -11 84 -36 122 -54 76 -37
136 -65 264 -121 67 -30 91 -36 121 -31 21 3 50 2 65 -4 38 -14 213 -50 246
-50 15 0 54 -7 86 -15 99 -26 186 -35 259 -26 40 5 76 5 86 0 38 -20 188 -42
273 -40 121 3 223 4 265 1 66 -3 488 17 500 25 6 4 87 9 178 11 92 2 183 6
202 8 19 3 64 8 100 11 110 11 320 45 430 71 58 13 158 33 222 44 65 11 143
28 175 39 32 11 87 25 123 31 72 13 158 33 330 78 149 40 301 72 337 72 45 1
158 45 236 93 39 24 93 54 119 65 26 11 112 59 191 106 79 47 157 88 173 92
16 4 45 15 64 25 19 10 69 34 110 53 41 19 100 57 131 84 31 27 73 59 93 71
61 38 73 85 31 126 -37 38 -71 33 -120 -19z"/>
<path d="M11922 6976 c-250 -18 -305 -25 -319 -39 -15 -15 -16 -26 -5 -113 11
-101 18 -114 63 -114 36 0 49 18 49 70 0 76 7 79 236 95 157 12 201 12 211 2
10 -9 -7 -43 -80 -162 -51 -83 -127 -207 -169 -275 -42 -69 -121 -199 -177
-290 -87 -141 -101 -170 -101 -207 0 -36 4 -45 24 -54 29 -13 739 33 759 49
10 8 10 35 2 122 -11 121 -21 138 -71 126 -29 -8 -44 -41 -44 -95 0 -23 -6
-44 -16 -52 -26 -22 -476 -50 -488 -31 -3 5 116 206 264 448 236 384 270 444
270 480 0 74 30 71 -408 40z"/>
<path d="M10998 6915 c-181 -36 -310 -164 -354 -351 -22 -93 -14 -320 14 -414
37 -126 91 -208 170 -258 133 -86 352 -81 555 12 66 30 77 38 77 60 0 24 -23
56 -40 56 -4 0 -57 -16 -116 -36 -83 -27 -128 -36 -190 -37 -75 -2 -86 1 -150
33 -125 64 -183 183 -191 395 -6 137 8 250 38 313 44 90 187 145 324 123 101
-15 126 -34 145 -109 16 -68 29 -82 76 -82 48 0 54 13 54 132 0 127 2 124
-124 157 -91 24 -188 26 -288 6z"/>
<path d="M9560 6810 c-167 -45 -265 -142 -326 -320 -15 -43 -19 -85 -19 -190
0 -156 18 -245 72 -353 43 -86 98 -141 179 -179 168 -79 434 -24 559 114 88
98 129 224 127 393 -3 263 -105 462 -270 526 -82 32 -222 36 -322 9z m202
-104 c102 -30 170 -101 216 -223 21 -57 26 -90 29 -208 7 -207 -26 -328 -105
-380 -57 -37 -154 -59 -231 -51 -200 21 -304 164 -318 436 -9 187 32 338 104
385 75 50 215 68 305 41z"/>
<path d="M8896 6768 c-66 -5 -126 -14 -133 -20 -19 -16 -16 -56 6 -68 11 -5
33 -10 48 -10 16 0 37 -6 48 -13 24 -18 22 -28 -51 -337 -8 -36 -32 -141 -54
-234 -21 -92 -41 -171 -44 -173 -20 -21 -32 3 -213 437 -24 58 -58 138 -76
178 -37 87 -33 99 39 122 43 13 49 18 46 40 -6 52 -1 51 -387 24 -197 -13
-364 -29 -371 -35 -13 -10 -8 -45 9 -66 5 -7 24 -13 42 -13 18 0 43 -8 55 -18
l21 -17 -57 -130 c-31 -72 -74 -168 -94 -215 -53 -121 -58 -120 -160 37 -46
70 -103 158 -127 195 -25 37 -43 75 -41 84 3 18 23 30 81 53 19 7 27 18 27 35
0 45 -15 48 -191 36 -185 -12 -209 -19 -209 -54 0 -30 15 -42 63 -51 52 -10
89 -44 138 -124 22 -36 87 -138 144 -226 148 -227 143 -215 154 -352 l10 -118
-25 -22 c-14 -13 -33 -23 -42 -23 -27 0 -62 -29 -62 -50 0 -42 33 -48 201 -36
160 11 189 20 189 57 0 23 -37 49 -71 49 -15 0 -36 8 -48 18 -18 15 -22 32
-27 143 l-7 125 76 160 c205 434 204 432 239 451 46 24 145 24 182 0 32 -21
55 -69 251 -517 20 -47 66 -149 101 -227 35 -79 64 -147 64 -153 0 -5 11 -16
23 -25 28 -18 79 -11 100 14 7 9 64 219 126 466 62 248 118 461 124 474 12 25
20 30 72 53 33 14 45 49 25 74 -14 16 -33 16 -214 2z"/>
<path d="M6530 6607 c-80 -7 -151 -16 -157 -20 -36 -23 3 -87 52 -87 12 0 30
-8 41 -18 18 -17 22 -54 47 -421 21 -307 25 -406 16 -417 -6 -8 -29 -19 -50
-26 -51 -15 -62 -29 -50 -61 5 -14 14 -28 19 -31 10 -6 307 11 350 20 16 3 22
11 22 33 0 37 -17 50 -80 60 -28 5 -56 13 -62 19 -17 17 -33 269 -19 286 7 8
42 16 84 18 105 8 176 39 252 109 87 82 110 139 110 274 0 93 -2 104 -31 155
-25 46 -40 60 -90 85 -55 28 -66 30 -184 32 -69 0 -190 -4 -270 -10z m358
-119 c64 -43 76 -68 80 -172 5 -117 -9 -159 -65 -202 -64 -49 -224 -74 -252
-40 -17 21 -45 405 -30 422 14 17 49 22 145 20 70 -1 86 -5 122 -28z"/>
<path d="M10370 5953 c-34 -23 -40 -33 -40 -70 0 -46 18 -80 51 -93 56 -24
139 18 139 69 0 41 -20 90 -40 101 -29 15 -83 12 -110 -7z"/>
</g>
</svg>
