<?xml version="1.0" standalone="no"?>
<!DOCTYPE svg PUBLIC "-//W3C//DTD SVG 20010904//EN"
 "http://www.w3.org/TR/2001/REC-SVG-20010904/DTD/svg10.dtd">
<svg version="1.0" xmlns="http://www.w3.org/2000/svg"
 width="1290.122243pt" height="1526.434209pt" viewBox="0 0 1290.122243 1526.434209"
 preserveAspectRatio="xMidYMid meet">
<metadata>
Created by potrace 1.13, written by Peter Selinger 2001-2015
</metadata>
<g transform="translate(-177.453416,1587.753921) scale(0.100000,-0.100000)"
fill="#ffffff" stroke="none">
<path d="M12383 15865 c-12 -9 -25 -30 -29 -48 -3 -18 -26 -68 -49 -112 -62
-115 -106 -205 -116 -240 -4 -16 -14 -49 -20 -72 -16 -51 -2 -73 45 -73 36 0
76 34 76 65 0 24 117 262 146 297 12 15 27 51 33 79 10 45 9 56 -7 83 -21 36
-48 43 -79 21z"/>
<path d="M5125 15410 c-38 -4 -92 -17 -118 -29 -27 -11 -53 -21 -58 -21 -6 0
-60 -24 -122 -54 -62 -29 -137 -61 -167 -71 -30 -10 -87 -33 -127 -51 -39 -19
-102 -44 -140 -55 -37 -12 -88 -32 -113 -45 -25 -13 -55 -24 -67 -24 -12 0
-53 -12 -90 -26 -37 -14 -90 -32 -118 -40 -77 -23 -234 -95 -290 -132 -222
-147 -413 -311 -452 -387 -8 -16 -21 -37 -29 -45 -22 -26 -132 -254 -139 -290
-4 -19 -17 -53 -30 -75 -22 -38 -46 -118 -67 -215 -5 -25 -14 -59 -19 -77 -20
-64 -29 -204 -28 -426 0 -237 3 -258 50 -365 11 -23 19 -56 19 -73 0 -16 11
-55 24 -87 50 -120 90 -322 89 -456 0 -113 -21 -290 -39 -339 -8 -20 -14 -53
-14 -73 0 -20 -15 -68 -34 -107 -18 -40 -48 -115 -66 -167 -18 -52 -54 -145
-81 -207 -27 -61 -49 -118 -49 -126 0 -8 -14 -41 -30 -74 -17 -33 -40 -96 -51
-139 -11 -44 -51 -144 -88 -224 -37 -80 -78 -170 -91 -200 -12 -30 -44 -100
-70 -155 -27 -55 -51 -114 -54 -131 -3 -17 -25 -73 -49 -125 -45 -96 -97 -238
-97 -267 0 -15 -83 -199 -150 -332 -15 -30 -30 -67 -33 -81 -4 -14 -22 -52
-41 -84 -32 -53 -44 -98 -44 -165 0 -14 -19 -65 -42 -113 -41 -88 -85 -216
-99 -292 -4 -22 -13 -50 -19 -62 -7 -12 -12 -62 -12 -113 0 -58 -5 -104 -15
-127 -8 -19 -15 -48 -15 -63 0 -15 -9 -53 -20 -86 -16 -46 -22 -93 -26 -214
-3 -97 -11 -171 -20 -199 -12 -35 -12 -51 -3 -79 6 -19 13 -81 14 -136 2 -56
8 -123 14 -151 6 -27 15 -95 20 -150 6 -64 18 -126 35 -171 14 -39 26 -86 26
-104 0 -19 4 -47 9 -64 6 -17 15 -65 22 -106 6 -41 18 -85 26 -98 8 -13 21
-55 29 -94 8 -40 17 -75 20 -80 3 -4 9 -29 14 -56 5 -26 22 -83 38 -127 17
-44 44 -118 61 -165 17 -46 40 -93 50 -105 10 -11 38 -51 61 -90 62 -104 147
-210 213 -268 33 -29 127 -118 209 -199 141 -139 265 -237 319 -253 13 -4 34
-14 47 -22 13 -8 53 -26 90 -39 36 -14 81 -40 100 -59 49 -47 109 -209 127
-340 7 -55 32 -158 54 -230 23 -71 41 -133 41 -138 0 -5 12 -32 26 -61 33 -66
68 -152 101 -246 14 -41 49 -124 78 -185 29 -60 56 -121 60 -135 10 -35 31
-56 98 -102 42 -28 64 -52 83 -90 39 -78 121 -151 225 -204 49 -24 92 -51 95
-58 10 -25 117 -92 249 -156 72 -35 156 -81 188 -102 58 -39 181 -88 222 -88
11 0 53 -16 94 -35 56 -27 85 -35 129 -35 31 0 80 -7 107 -15 28 -9 61 -13 73
-10 39 9 60 -4 89 -53 14 -26 32 -54 38 -62 7 -8 15 -28 19 -45 8 -34 60 -115
122 -190 23 -27 52 -75 66 -105 14 -30 50 -83 81 -118 31 -34 63 -75 71 -90 8
-15 86 -97 173 -183 197 -194 256 -262 323 -369 28 -47 59 -89 68 -94 26 -15
192 -166 256 -234 99 -104 224 -205 330 -266 55 -32 132 -79 170 -104 131 -85
394 -172 524 -172 20 0 75 -10 122 -21 119 -29 192 -27 282 10 40 16 84 32 98
36 48 13 222 96 262 126 23 16 48 29 57 29 30 0 177 75 256 131 44 31 107 71
140 90 33 18 100 59 149 91 48 32 93 58 100 58 6 0 22 9 36 21 14 11 48 35 75
54 28 19 77 62 109 95 33 34 82 73 110 87 28 14 65 36 82 48 17 13 53 36 80
51 27 15 65 40 84 55 19 15 134 78 255 139 226 115 262 127 430 150 39 5 87
14 107 19 25 6 66 5 120 -4 75 -11 108 -18 218 -46 20 -5 134 -13 255 -19 121
-6 247 -17 280 -25 33 -7 74 -17 90 -20 33 -7 144 -49 188 -72 36 -18 117 -33
237 -43 109 -10 193 -24 231 -38 15 -6 80 -13 144 -16 139 -6 154 -14 132 -67
-21 -49 -50 -192 -67 -339 -12 -94 -32 -160 -64 -204 -12 -16 -34 -56 -51 -89
-16 -33 -37 -64 -45 -68 -81 -46 -191 -89 -225 -89 -85 0 -274 -33 -375 -65
-58 -18 -150 -41 -205 -50 -55 -9 -116 -21 -135 -26 -19 -5 -49 -9 -67 -9 -17
0 -65 -13 -106 -30 -42 -16 -89 -30 -105 -30 -16 0 -49 -7 -73 -15 -24 -9 -84
-25 -134 -36 -130 -28 -152 -34 -235 -63 -194 -66 -247 -76 -450 -86 -107 -5
-231 -17 -275 -25 -44 -9 -102 -21 -130 -25 -27 -5 -77 -14 -110 -19 -33 -6
-103 -11 -155 -11 -101 -1 -241 -12 -381 -31 -62 -9 -100 -9 -139 -2 -42 9
-103 7 -267 -7 -128 -11 -224 -15 -242 -10 -16 4 -78 11 -137 15 -60 3 -147
13 -194 22 -47 8 -105 18 -130 23 -25 4 -76 15 -115 24 -122 30 -154 36 -198
36 -57 1 -119 16 -181 44 -28 13 -82 34 -121 46 -38 12 -90 34 -115 48 -25 15
-103 55 -175 90 -150 73 -242 139 -281 199 -14 23 -35 50 -45 59 -10 9 -19 24
-19 33 0 17 -24 39 -167 153 -85 69 -140 125 -164 168 -8 16 -22 39 -31 52 -8
12 -21 48 -28 78 -26 112 -43 137 -102 146 -27 5 -40 1 -66 -21 -38 -32 -40
-54 -7 -85 16 -15 27 -39 31 -69 18 -128 147 -309 279 -394 57 -36 101 -80
110 -108 13 -41 102 -163 153 -211 34 -32 65 -50 105 -62 77 -22 219 -89 237
-111 32 -39 93 -75 127 -75 19 0 47 -8 61 -19 31 -21 116 -51 146 -51 12 0 44
-8 71 -19 28 -10 109 -26 180 -35 216 -28 290 -44 360 -75 61 -28 74 -30 134
-25 40 4 135 -1 232 -11 143 -15 177 -15 254 -4 82 12 181 14 430 9 60 -1 122
5 185 19 63 13 137 21 220 22 77 1 158 9 212 20 48 11 101 19 117 19 16 0 48
7 72 15 52 19 76 21 269 30 224 10 378 39 529 101 36 14 94 32 130 39 118 23
293 69 401 106 30 10 73 21 95 24 249 37 310 50 419 91 48 19 106 34 128 34
42 0 178 15 280 30 32 5 89 25 128 44 39 20 77 36 83 36 7 0 42 20 78 44 78
53 99 89 80 141 -10 28 -9 40 4 72 9 21 18 63 21 93 3 30 10 71 15 90 5 19 9
50 9 69 0 18 8 48 19 65 12 19 20 57 23 102 9 127 38 152 137 119 74 -24 247
-18 328 12 58 21 166 97 292 205 24 21 52 38 61 38 9 0 47 16 83 35 36 19 105
48 154 64 92 29 343 153 436 215 58 38 205 170 253 226 62 72 131 167 163 225
19 33 49 87 67 120 19 33 39 76 45 95 7 19 31 69 55 110 51 88 66 133 94 289
11 64 25 135 30 159 6 23 10 64 10 90 0 26 7 74 14 107 16 67 24 159 31 320 5
116 -10 245 -65 580 -6 33 -13 98 -15 145 -12 200 -25 299 -46 356 -12 32 -25
64 -29 69 -10 13 -31 81 -34 108 -2 12 -7 31 -13 42 -6 11 -20 62 -33 114 -12
52 -41 132 -65 180 -100 201 -144 302 -173 392 -40 125 -68 186 -128 284 -27
44 -58 97 -69 118 -11 21 -39 61 -62 89 -24 27 -43 55 -43 61 -1 15 -56 102
-94 148 -15 19 -64 85 -108 148 -117 164 -240 281 -413 391 -77 49 -152 93
-166 99 -15 5 -57 30 -93 55 -85 58 -125 70 -194 54 -41 -9 -55 -9 -65 1 -13
13 -36 166 -42 281 -2 41 -8 88 -14 103 -6 16 -11 52 -11 81 0 28 -6 76 -14
106 -8 30 -19 89 -25 130 -6 41 -15 91 -21 110 -5 19 -10 49 -10 65 0 17 -7
57 -15 90 -9 33 -20 84 -25 115 -5 30 -14 78 -21 105 -6 28 -15 122 -19 210
-19 356 -20 369 -40 417 -11 26 -20 54 -20 62 0 17 -29 36 -54 36 -19 0 -86
-58 -86 -74 0 -7 11 -34 24 -62 20 -43 25 -74 35 -246 13 -234 44 -487 71
-578 20 -69 52 -228 69 -347 6 -39 15 -83 21 -98 5 -14 10 -51 10 -82 0 -31 4
-83 10 -117 34 -219 45 -371 54 -736 7 -287 17 -503 27 -555 5 -27 11 -176 13
-330 2 -154 9 -303 14 -331 7 -30 8 -105 5 -185 -8 -175 -9 -161 6 -483 6
-154 10 -291 7 -305 -8 -40 -16 -330 -9 -347 3 -8 23 -22 44 -31 21 -8 40 -22
43 -31 12 -46 16 -131 6 -156 -6 -16 -13 -63 -16 -105 -7 -80 -25 -166 -43
-200 -6 -11 -11 -30 -11 -42 0 -26 -62 -143 -93 -177 -12 -13 -41 -35 -65 -49
-38 -23 -50 -25 -130 -20 -180 9 -419 28 -482 37 -72 11 -220 68 -321 124 -36
20 -77 36 -91 36 -14 0 -42 7 -62 15 -20 9 -78 24 -129 34 -51 11 -114 24
-142 30 -27 6 -84 18 -125 26 -41 8 -100 22 -130 30 -37 10 -101 15 -200 15
-246 0 -392 -23 -500 -79 -30 -15 -67 -31 -82 -34 -15 -4 -61 -23 -102 -42
-42 -19 -80 -35 -85 -35 -4 0 -28 -15 -52 -33 -24 -18 -64 -45 -89 -59 -86
-50 -208 -147 -266 -213 -35 -39 -75 -73 -100 -84 -23 -10 -59 -34 -80 -53
-147 -130 -471 -347 -594 -398 -61 -25 -126 -64 -263 -157 -162 -110 -216
-133 -337 -143 -58 -5 -124 -15 -145 -23 -30 -10 -91 -13 -237 -11 l-197 3
-63 32 c-113 57 -166 97 -275 208 -377 384 -367 373 -422 471 -48 85 -70 118
-146 222 -11 15 -50 64 -87 108 -40 48 -68 91 -68 105 0 12 -9 33 -20 47 -10
14 -25 43 -33 64 -7 21 -26 59 -43 83 -16 23 -36 55 -44 70 -9 15 -32 47 -52
72 -19 24 -43 60 -53 79 -10 19 -23 42 -31 50 -7 9 -27 49 -45 90 -17 41 -44
91 -59 110 -15 19 -35 49 -44 65 -17 31 -37 57 -116 160 -98 126 -110 147
-195 330 -16 33 -41 77 -57 97 -16 20 -49 77 -74 125 -25 48 -56 106 -69 128
-13 22 -36 63 -51 90 -24 46 -46 76 -146 202 -21 26 -38 53 -38 59 0 7 16 22
36 33 33 20 36 24 31 59 -3 20 -11 57 -18 82 -18 64 -13 636 6 718 3 12 8 62
10 110 3 48 10 108 17 135 11 43 10 50 -9 75 -25 34 -70 40 -99 13 -47 -43
-68 -211 -79 -636 -5 -184 -14 -327 -21 -362 -9 -47 -45 -27 -170 95 -202 195
-314 281 -414 313 -60 20 -61 23 -33 97 13 37 29 81 34 97 5 17 40 64 77 105
38 41 79 95 92 120 27 53 200 233 240 250 60 25 292 -10 388 -57 43 -21 65
-40 89 -78 65 -101 159 -227 191 -256 33 -30 55 -34 111 -23 39 8 54 29 85
120 53 157 78 327 83 569 2 134 7 183 17 193 11 11 27 9 98 -12 46 -14 95 -26
109 -26 13 0 56 -12 94 -26 110 -40 195 -64 255 -73 30 -5 100 -19 155 -32 80
-19 129 -23 245 -24 140 0 150 1 275 39 253 75 323 167 185 243 -25 14 -56 35
-70 48 -14 13 -51 35 -84 49 -32 14 -75 40 -95 56 -43 36 -310 268 -396 343
-33 29 -103 78 -155 109 -79 47 -125 86 -272 231 -97 96 -185 192 -196 213
-11 22 -32 50 -47 64 -45 41 -87 109 -116 187 -15 40 -48 106 -73 147 -25 41
-46 78 -46 84 0 11 -36 96 -79 187 -41 86 -52 120 -67 210 -7 44 -18 100 -24
125 -15 62 -17 217 -3 260 22 67 85 213 112 258 49 83 105 103 118 41 7 -38
35 -61 70 -57 21 2 33 13 48 43 43 85 200 199 328 238 45 14 116 29 158 35 44
5 101 21 135 36 37 17 97 33 159 42 159 23 203 32 268 55 51 18 92 22 232 27
133 4 177 8 202 22 27 14 60 16 230 15 245 -2 377 -23 390 -62 3 -6 -14 -24
-35 -38 -41 -27 -86 -109 -111 -202 -16 -58 -38 -62 -101 -19 -28 20 -68 38
-88 41 -20 3 -65 11 -100 17 -66 11 -181 6 -407 -17 -134 -14 -230 -39 -300
-80 -53 -30 -152 -135 -171 -180 -8 -20 -21 -38 -29 -42 -9 -3 -47 13 -85 36
-151 90 -276 130 -395 126 -48 -1 -80 -11 -162 -48 -56 -26 -106 -47 -110 -48
-4 0 -29 -26 -56 -59 -53 -65 -99 -152 -117 -220 -6 -25 -21 -59 -31 -77 l-20
-32 32 -35 c32 -37 56 -44 89 -26 29 16 42 47 56 133 12 77 54 164 93 194 50
39 149 76 216 81 65 4 78 1 187 -42 64 -25 120 -46 126 -46 18 0 129 -78 189
-134 79 -73 101 -109 109 -179 6 -53 9 -57 41 -68 67 -22 102 5 84 65 -5 17
-15 56 -21 86 -14 64 -39 108 -93 167 l-39 43 28 34 c16 18 41 49 55 68 17 21
58 50 113 78 105 53 165 61 468 66 l208 3 67 -35 c96 -51 103 -59 103 -115 0
-41 4 -51 25 -65 61 -40 127 45 130 166 1 36 12 96 25 135 19 59 32 79 84 130
51 50 87 73 218 137 86 43 159 82 162 87 4 5 21 13 39 16 17 4 49 16 69 26 38
19 211 59 258 59 41 0 155 -28 310 -77 194 -61 349 -149 424 -239 28 -35 59
-74 68 -87 17 -25 66 -41 93 -31 19 8 45 56 45 84 0 29 -230 256 -302 298 -31
19 -87 46 -124 61 -90 36 -100 53 -54 91 81 68 202 107 376 122 132 12 135 11
162 -10 77 -61 124 -89 203 -117 75 -27 100 -43 188 -119 56 -48 109 -98 117
-111 8 -13 62 -65 119 -116 97 -86 152 -153 200 -248 22 -44 14 -81 -30 -145
-25 -37 -37 -69 -44 -116 -5 -36 -15 -84 -22 -107 -12 -38 -11 -44 6 -63 10
-11 30 -20 45 -20 32 0 90 49 90 75 0 39 35 115 52 115 10 0 18 -7 18 -16 0
-32 61 -186 90 -228 32 -47 51 -59 76 -49 14 5 16 18 11 87 -3 45 -12 97 -20
116 -8 19 -20 67 -27 105 -7 39 -16 81 -21 94 -15 37 -3 56 54 86 28 16 64 36
79 47 14 10 35 18 46 18 11 0 39 7 63 16 120 43 366 58 464 29 148 -44 159
-50 304 -194 139 -137 173 -184 186 -256 4 -22 12 -49 18 -59 5 -11 11 -63 12
-115 4 -137 21 -172 80 -157 29 7 59 59 50 86 -3 10 -8 63 -10 117 -5 111 -26
237 -45 273 -7 14 -27 41 -44 61 -17 20 -43 52 -58 71 -15 20 -55 57 -90 83
-35 26 -70 57 -78 70 -28 43 -133 123 -174 134 -165 43 -215 51 -322 51 l-113
0 -57 50 c-32 28 -67 53 -78 55 -38 8 -170 33 -236 45 -36 7 -118 29 -184 51
-146 48 -178 49 -216 9 -15 -16 -33 -30 -39 -30 -7 0 -49 35 -94 79 -177 170
-247 222 -334 247 -28 8 -70 28 -93 45 -22 16 -69 44 -103 62 -58 30 -68 32
-152 30 -105 -2 -249 -31 -353 -70 -86 -33 -182 -105 -197 -148 -5 -17 -14
-36 -18 -42 -10 -16 -52 -17 -80 -1 -32 17 -139 32 -232 31 -105 -1 -264 -47
-407 -119 -203 -101 -308 -133 -308 -93 0 5 -11 21 -25 34 -20 21 -34 25 -87
25 -35 0 -94 5 -133 11 -115 17 -461 11 -527 -9 -18 -6 -109 -13 -203 -16
-132 -4 -185 -10 -240 -26 -119 -36 -138 -40 -200 -40 -70 0 -115 -11 -205
-50 -36 -15 -94 -31 -130 -35 -86 -9 -227 -56 -320 -107 -80 -43 -184 -118
-213 -155 -24 -30 -39 -29 -64 5 -15 21 -38 33 -80 44 -32 9 -84 23 -117 33
-56 16 -61 15 -125 -5 -36 -11 -110 -27 -163 -35 -139 -21 -258 -71 -388 -164
-80 -57 -128 -105 -160 -160 -28 -48 -82 -106 -153 -164 -26 -22 -65 -64 -86
-95 -22 -32 -62 -79 -91 -107 -57 -56 -104 -132 -115 -185 -3 -19 -17 -64 -30
-100 -13 -36 -29 -90 -35 -120 -7 -30 -23 -83 -36 -118 -16 -40 -26 -89 -28
-135 -2 -40 -7 -89 -11 -109 -10 -52 13 -244 36 -297 10 -24 19 -56 19 -71 0
-43 55 -142 118 -211 32 -35 65 -76 74 -91 10 -14 51 -45 91 -67 41 -23 94
-59 118 -80 100 -89 135 -118 150 -124 9 -3 66 -38 125 -78 60 -39 132 -80
159 -89 83 -30 174 -69 229 -99 28 -16 123 -52 211 -81 196 -63 206 -68 225
-105 37 -75 17 -468 -32 -623 -16 -51 -23 -62 -41 -62 -37 1 -119 120 -135
196 -4 21 -14 41 -22 45 -58 31 -173 79 -191 79 -23 0 -112 24 -176 47 -64 23
-183 14 -254 -20 -30 -15 -67 -39 -81 -54 -101 -108 -151 -169 -197 -241 -29
-45 -57 -82 -61 -82 -15 0 -70 -88 -84 -134 -8 -25 -23 -57 -35 -72 -12 -15
-28 -49 -36 -77 -8 -27 -29 -72 -46 -98 -29 -46 -71 -146 -90 -219 -6 -19 -16
-51 -23 -70 -25 -65 -75 -260 -86 -335 -47 -320 -48 -336 -36 -655 4 -124 9
-274 10 -335 1 -105 17 -210 37 -247 5 -10 13 -34 18 -55 19 -78 53 -159 74
-177 18 -15 32 -17 83 -12 60 6 63 5 123 -35 34 -23 75 -57 91 -78 16 -20 45
-55 63 -78 20 -24 44 -72 57 -115 27 -87 61 -179 100 -268 16 -36 36 -85 45
-109 9 -25 29 -59 44 -77 27 -30 89 -150 106 -203 4 -12 17 -38 29 -56 13 -18
28 -48 35 -66 7 -19 20 -50 28 -69 29 -65 33 -89 17 -98 -32 -18 -223 13 -319
53 -16 6 -61 20 -100 30 -41 11 -86 30 -109 48 -22 17 -69 43 -106 58 -37 15
-86 39 -110 54 -23 15 -62 32 -85 40 -59 17 -92 41 -211 149 -28 25 -71 55
-95 65 -49 22 -69 40 -92 87 -24 46 -104 131 -147 155 -31 17 -45 36 -70 93
-18 39 -43 93 -56 119 -13 27 -24 53 -24 58 0 5 -16 41 -35 80 -19 39 -35 76
-35 83 0 6 -8 27 -18 46 -17 32 -79 206 -115 325 -9 28 -23 84 -31 125 -9 41
-23 100 -32 130 -50 175 -65 245 -58 264 3 7 -4 41 -16 75 -18 54 -20 78 -15
214 10 326 16 425 32 502 8 44 18 98 22 120 4 23 10 46 14 52 4 7 12 68 17
136 6 94 13 135 30 166 22 43 35 95 49 196 10 69 71 233 106 285 12 19 28 59
34 88 11 55 67 176 105 227 24 33 51 84 145 275 56 114 70 134 159 225 53 55
111 108 127 117 17 9 66 40 110 67 109 69 202 117 252 130 48 13 99 52 108 82
5 16 -3 31 -31 60 -21 21 -46 39 -56 39 -10 0 -42 -13 -71 -29 -28 -16 -76
-36 -105 -46 -29 -9 -74 -34 -100 -54 -26 -21 -75 -52 -109 -70 -34 -18 -77
-50 -96 -70 -19 -20 -77 -78 -129 -129 -94 -91 -96 -94 -202 -300 -59 -114
-129 -247 -156 -297 -27 -49 -49 -98 -49 -107 -1 -18 -41 -27 -41 -9 0 5 -11
23 -25 39 -30 35 -47 90 -71 227 -9 55 -24 113 -32 129 -25 50 -33 264 -14
381 6 39 17 111 25 161 8 50 20 100 26 112 6 11 21 67 32 124 12 57 25 121 31
143 5 22 13 60 18 85 14 79 124 424 158 500 14 30 28 73 33 95 16 84 78 275
128 395 29 69 68 181 86 250 19 69 48 163 65 210 17 47 35 101 40 120 4 19 17
62 28 95 11 33 24 78 27 100 11 65 43 165 79 245 19 41 44 100 56 130 12 30
28 62 35 70 6 8 22 37 35 64 12 26 41 67 62 90 22 22 56 64 76 91 20 28 80 98
134 157 54 59 98 112 98 116 0 5 33 42 73 83 76 77 197 159 235 159 11 0 57
16 101 35 43 19 88 35 98 35 10 0 38 6 63 14 25 7 92 16 150 20 95 6 115 4
210 -20 112 -29 108 -29 465 -21 107 2 176 9 210 19 97 30 171 42 251 39 85
-2 292 33 377 65 23 9 60 19 82 24 72 15 173 56 237 98 66 43 144 81 166 82 7
0 30 11 50 25 20 14 44 25 54 25 19 0 42 -37 52 -86 4 -18 27 -57 51 -89 24
-31 47 -66 50 -78 4 -12 20 -57 36 -100 28 -72 29 -82 20 -151 -5 -40 -14 -82
-20 -94 -6 -11 -11 -30 -11 -42 0 -12 -10 -38 -22 -59 l-22 -38 23 -31 c53
-75 90 -62 121 43 11 38 27 92 35 119 8 26 15 56 15 66 0 29 11 50 31 61 15 8
37 2 100 -26 57 -26 108 -41 177 -50 54 -8 110 -19 126 -24 31 -12 93 -5 117
13 9 6 20 26 23 43 11 47 -21 63 -157 78 -61 7 -150 25 -197 40 -47 15 -107
33 -134 41 -65 18 -74 27 -114 114 -19 41 -50 97 -70 125 -19 27 -46 73 -59
103 -13 29 -33 66 -44 81 -27 37 -20 59 35 96 67 46 211 163 295 238 122 110
222 278 266 447 9 36 23 80 31 98 8 18 14 47 14 65 0 18 7 68 14 112 8 44 15
136 16 205 0 69 2 139 2 155 2 40 -37 194 -72 285 -10 25 -25 77 -35 115 -19
72 -48 134 -138 291 -76 132 -86 145 -246 305 -111 110 -156 149 -186 158 -56
18 -304 109 -340 126 -16 7 -60 20 -97 29 -37 9 -109 37 -160 62 -51 26 -122
58 -158 71 -105 39 -193 73 -225 88 -78 35 -144 57 -252 83 -193 47 -237 53
-427 58 -178 4 -368 16 -536 35 -94 10 -159 10 -265 -1z m280 -135 c239 -28
309 -35 410 -39 457 -17 639 -61 1040 -251 50 -24 120 -57 157 -74 68 -32 336
-121 365 -121 14 0 51 -14 172 -67 65 -28 321 -320 321 -366 0 -5 15 -27 34
-50 42 -52 133 -236 141 -286 4 -20 12 -50 20 -67 7 -17 16 -57 20 -90 9 -82
33 -198 46 -227 8 -18 8 -44 0 -95 -6 -39 -11 -99 -11 -134 0 -35 -6 -83 -14
-108 -8 -25 -22 -74 -31 -110 -9 -36 -21 -78 -26 -95 -6 -16 -14 -44 -19 -61
-4 -18 -15 -42 -24 -55 -9 -13 -16 -33 -16 -45 0 -41 -187 -249 -269 -299 -31
-18 -72 -50 -91 -70 -51 -53 -124 -105 -148 -105 -13 0 -31 14 -45 35 -13 20
-44 57 -68 83 -24 26 -83 92 -130 147 -63 73 -106 112 -158 145 -111 69 -126
83 -113 106 9 17 62 68 172 167 23 21 47 60 69 112 43 103 49 140 26 165 -42
46 -84 14 -160 -122 -49 -88 -69 -114 -140 -175 -45 -40 -125 -98 -176 -129
-52 -32 -110 -70 -129 -85 -19 -15 -60 -35 -90 -45 -30 -9 -86 -30 -125 -46
-38 -16 -123 -40 -187 -54 -117 -25 -119 -25 -397 -15 -216 8 -297 15 -358 29
-43 11 -114 25 -158 32 -116 17 -197 46 -230 80 -33 35 -58 37 -102 10 -51
-31 -58 -53 -31 -103 20 -36 32 -45 88 -66 36 -13 101 -31 145 -41 44 -10 109
-24 145 -33 163 -39 219 -46 360 -46 80 0 206 -3 280 -6 134 -7 162 -4 353 35
27 5 69 19 95 31 26 11 83 34 127 51 44 17 121 57 171 89 50 33 96 59 102 59
7 0 21 -9 31 -19 28 -28 56 -41 88 -41 15 -1 39 -7 51 -14 33 -18 192 -177
192 -192 0 -7 35 -50 78 -97 116 -127 123 -151 61 -185 -17 -9 -79 -45 -137
-80 -99 -59 -309 -142 -360 -142 -10 0 -45 -7 -77 -16 -33 -9 -78 -18 -100
-20 -22 -2 -121 -9 -220 -17 -109 -9 -194 -20 -215 -29 -27 -12 -96 -17 -288
-22 -212 -6 -268 -4 -350 10 -164 28 -419 -2 -567 -66 -27 -12 -103 -44 -167
-70 -105 -43 -125 -55 -188 -117 -39 -37 -81 -86 -95 -108 -13 -22 -40 -51
-58 -65 -19 -13 -44 -39 -56 -58 -12 -18 -33 -38 -47 -44 -15 -7 -35 -32 -49
-62 -14 -28 -37 -59 -52 -70 -34 -22 -120 -151 -140 -207 -7 -23 -25 -57 -38
-77 -14 -21 -30 -55 -36 -77 -6 -22 -29 -82 -51 -134 -22 -52 -46 -124 -54
-160 -17 -80 -54 -199 -83 -263 -11 -27 -30 -69 -42 -95 -11 -25 -23 -69 -25
-97 -3 -28 -12 -67 -20 -86 -7 -19 -18 -53 -23 -75 -13 -52 -57 -169 -75 -198
-8 -12 -26 -60 -41 -107 -14 -47 -35 -112 -45 -145 -10 -33 -28 -98 -40 -145
-12 -47 -29 -101 -37 -120 -9 -19 -22 -53 -29 -75 -7 -22 -27 -78 -44 -125
-18 -47 -36 -98 -40 -115 -5 -16 -16 -49 -24 -73 -16 -42 -30 -120 -43 -232
-3 -30 -12 -64 -19 -75 -6 -11 -15 -44 -19 -74 -4 -29 -18 -76 -30 -105 -16
-35 -25 -79 -30 -141 -3 -49 -15 -130 -27 -180 -15 -67 -19 -108 -14 -161 7
-90 25 -205 41 -269 29 -113 45 -193 51 -255 5 -53 16 -81 55 -151 27 -48 56
-92 64 -99 20 -17 19 -46 -6 -116 -61 -176 -112 -375 -120 -471 -4 -50 -16
-118 -27 -150 -22 -61 -32 -184 -65 -788 -3 -50 -24 -56 -69 -21 -18 13 -55
32 -83 41 -27 10 -86 44 -130 76 -44 32 -100 73 -125 91 -24 18 -65 53 -91 78
-25 25 -77 72 -115 106 -38 34 -108 110 -154 169 -47 60 -104 132 -126 160
-47 58 -77 122 -99 204 -8 31 -30 88 -50 126 -19 39 -35 79 -35 91 0 12 -4 34
-9 50 -32 103 -52 184 -71 289 -25 138 -34 184 -50 240 -7 22 -15 65 -20 95
-11 78 -39 219 -52 260 -7 21 -11 149 -11 335 0 247 2 305 15 330 16 32 23 65
63 280 33 176 53 261 72 305 14 34 35 110 52 195 11 57 42 144 52 151 5 3 9
13 9 23 0 24 53 141 97 213 32 53 72 155 93 236 4 18 13 39 20 47 6 8 18 33
25 57 8 24 28 81 46 128 17 47 40 110 51 140 11 30 41 100 68 156 27 55 65
147 85 204 31 91 58 150 154 338 26 52 85 209 106 286 8 26 21 56 29 65 23 25
60 124 76 201 13 64 63 205 81 226 14 17 69 174 78 224 5 25 23 91 40 147 28
92 31 116 31 230 0 142 -12 258 -40 378 -11 44 -22 100 -25 125 -3 25 -12 65
-20 90 -7 25 -21 72 -30 105 -8 33 -23 83 -32 110 -24 73 -36 166 -37 290 -1
137 10 307 23 360 25 106 63 230 86 284 14 33 25 65 25 70 0 26 127 280 155
311 18 19 46 56 64 82 22 34 65 70 158 133 71 48 142 100 158 116 17 15 53 38
80 50 28 12 68 29 90 39 76 34 200 78 292 103 80 23 155 50 377 138 27 10 53
19 58 19 5 0 75 32 156 71 196 95 261 114 457 138 6 0 69 -6 140 -14z m5476
-4359 c35 -13 100 -29 144 -36 93 -14 236 -49 249 -61 17 -16 -14 -36 -107
-69 -50 -18 -109 -44 -131 -57 -53 -34 -76 -25 -108 39 -14 29 -52 81 -83 116
-35 38 -55 68 -51 77 7 20 13 19 87 -9z m-5138 -336 c-1 -8 -13 -46 -27 -85
-14 -38 -26 -79 -26 -89 0 -11 -11 -38 -24 -60 -13 -23 -38 -75 -55 -117 -29
-69 -31 -81 -23 -130 10 -58 25 -124 48 -205 8 -28 14 -61 14 -73 0 -22 16
-65 65 -181 13 -30 34 -86 47 -124 13 -39 56 -126 96 -195 39 -69 72 -132 72
-141 0 -26 65 -152 101 -196 19 -23 52 -66 74 -95 22 -30 77 -90 123 -134 46
-44 137 -133 203 -197 92 -91 138 -129 206 -167 177 -99 192 -111 350 -276 59
-61 212 -171 270 -194 47 -19 69 -47 53 -66 -7 -8 -25 -15 -40 -15 -15 0 -53
-9 -86 -21 -53 -19 -73 -20 -204 -14 -79 3 -165 11 -190 16 -25 6 -70 14 -100
19 -52 8 -143 36 -255 80 -121 47 -293 88 -415 100 -102 10 -256 54 -364 103
-43 21 -83 37 -89 37 -6 0 -58 23 -115 51 -57 28 -136 62 -175 75 -39 13 -87
35 -107 47 -47 31 -143 88 -206 121 -31 17 -65 47 -88 77 -22 30 -69 71 -119
104 -47 31 -93 70 -107 92 -14 21 -43 61 -65 88 -23 28 -45 64 -51 80 -31 87
-53 165 -60 210 -11 76 -4 275 10 309 7 17 16 49 20 71 24 132 113 365 157
410 16 17 29 36 29 41 0 6 37 48 81 95 112 115 199 215 239 272 44 62 139 132
271 200 99 50 111 54 200 60 52 4 117 13 144 21 64 19 121 17 118 -4z m7212
-2947 c49 -25 112 -63 140 -83 27 -20 76 -51 108 -69 56 -31 91 -56 203 -146
28 -22 79 -80 115 -128 80 -110 123 -165 152 -197 22 -24 84 -128 151 -255 18
-33 61 -98 97 -145 72 -94 115 -177 134 -260 7 -30 23 -80 35 -110 12 -30 25
-68 29 -85 5 -16 30 -68 57 -115 58 -101 91 -179 109 -257 7 -32 25 -89 40
-128 48 -124 92 -322 109 -485 8 -76 34 -271 45 -340 5 -36 15 -110 22 -165 6
-55 15 -114 21 -132 20 -69 5 -355 -25 -473 -8 -30 -17 -91 -21 -135 -13 -166
-61 -332 -149 -515 -108 -227 -123 -256 -153 -300 -17 -25 -43 -68 -59 -97
-24 -45 -104 -129 -220 -233 -55 -49 -119 -87 -208 -124 -48 -20 -111 -49
-140 -66 -29 -16 -82 -36 -117 -43 -36 -8 -79 -21 -97 -30 -18 -10 -38 -17
-46 -17 -27 0 -243 -114 -282 -149 -77 -69 -110 -93 -168 -122 -53 -27 -70
-30 -174 -34 -114 -3 -116 -3 -214 36 -62 24 -115 39 -143 39 -24 0 -81 11
-127 24 -46 13 -106 27 -134 31 -27 3 -76 13 -108 21 -33 8 -100 15 -150 15
-121 0 -182 13 -297 61 -52 22 -120 47 -150 54 -70 18 -402 54 -497 54 -49 0
-89 7 -124 20 -74 30 -313 40 -401 17 -35 -9 -92 -18 -128 -21 -101 -9 -216
-45 -320 -99 -52 -28 -135 -71 -185 -97 -88 -45 -245 -139 -275 -164 -8 -7
-60 -39 -115 -71 -64 -38 -127 -86 -175 -133 -41 -41 -102 -90 -135 -109 -33
-19 -76 -47 -95 -62 -36 -28 -157 -101 -221 -134 -19 -10 -71 -45 -114 -79
-44 -33 -111 -76 -150 -94 -38 -19 -106 -54 -150 -79 -44 -25 -149 -72 -234
-106 -163 -65 -161 -64 -271 -39 -25 6 -89 14 -142 20 -86 8 -300 59 -383 90
-34 13 -70 35 -275 169 -133 87 -160 111 -367 318 -123 123 -223 227 -223 233
0 5 -30 44 -68 87 -37 43 -86 103 -110 134 -44 58 -118 134 -264 270 -81 76
-114 118 -225 284 -25 39 -68 99 -95 135 -27 36 -63 94 -79 130 -17 36 -45 94
-63 130 -19 36 -43 95 -55 131 -12 36 -35 87 -51 112 -30 47 -63 126 -98 232
-10 33 -33 82 -51 109 -17 28 -31 54 -31 59 0 4 -13 25 -29 45 -27 35 -66 117
-96 207 -8 22 -34 82 -59 133 -25 51 -46 97 -46 102 0 34 -107 215 -158 267
-39 39 -155 118 -239 163 -53 28 -63 39 -81 84 -26 62 -51 266 -50 396 1 52
-4 113 -9 135 -16 57 -8 455 11 590 13 96 51 260 99 432 20 69 53 122 82 129
16 4 51 -9 117 -42 84 -43 108 -63 248 -202 85 -85 169 -165 185 -178 37 -29
90 -95 156 -194 27 -41 63 -93 79 -115 55 -74 93 -130 115 -170 33 -62 49 -88
68 -114 9 -13 17 -31 17 -39 0 -8 29 -63 64 -121 35 -58 67 -117 71 -130 4
-14 24 -49 44 -79 38 -56 68 -107 113 -188 14 -27 47 -69 72 -94 25 -24 46
-49 46 -55 0 -6 13 -29 29 -51 16 -21 50 -80 75 -131 25 -50 57 -105 71 -121
14 -16 25 -34 25 -40 0 -5 8 -20 19 -33 22 -29 96 -160 163 -289 27 -52 62
-111 77 -130 15 -19 38 -53 51 -75 13 -22 39 -53 57 -68 18 -16 33 -34 33 -41
0 -7 14 -31 31 -52 17 -22 42 -61 56 -89 14 -27 38 -66 53 -85 15 -19 35 -50
45 -69 9 -18 54 -75 99 -125 44 -50 99 -114 120 -143 22 -29 58 -65 80 -82 23
-16 97 -85 166 -153 99 -97 141 -131 200 -162 41 -21 100 -51 130 -67 50 -27
61 -29 125 -23 39 3 87 10 109 15 26 7 59 7 105 -1 55 -9 76 -8 131 6 36 9
112 18 170 20 58 2 128 9 155 15 59 14 215 99 265 144 19 18 53 42 75 55 22
13 58 38 80 56 22 17 58 37 80 44 89 28 371 208 503 322 24 20 90 67 145 104
56 37 143 106 192 154 81 78 348 270 376 270 6 0 57 23 114 50 57 28 109 50
114 50 6 0 30 9 53 19 66 29 132 43 263 56 97 9 132 9 180 -2 33 -8 94 -18
135 -24 84 -11 152 -23 255 -44 39 -8 106 -22 150 -31 118 -24 219 -60 306
-109 42 -24 89 -47 105 -51 16 -4 41 -13 56 -21 57 -28 181 -43 358 -43 112 0
206 -6 262 -15 82 -15 91 -14 157 4 112 31 161 75 214 191 19 41 42 100 52
130 10 30 24 67 31 82 7 14 18 59 24 100 6 40 18 109 27 153 12 61 14 108 9
200 -4 66 -8 143 -10 170 -2 36 -12 65 -38 107 l-35 57 -8 198 c-11 261 -12
296 -19 655 -3 168 -10 326 -15 350 -6 23 -10 112 -10 196 0 84 -3 157 -6 162
-3 5 -1 26 4 47 8 27 6 73 -5 172 -20 165 -22 214 -28 548 -3 192 -1 263 7
267 26 10 87 -8 172 -51z"/>
<path d="M6665 14400 c-11 -4 -37 -26 -56 -47 -29 -32 -38 -51 -43 -97 -8 -60
-1 -112 18 -135 6 -8 29 -22 50 -32 48 -21 75 -13 130 39 57 55 70 91 56 160
-13 63 -38 97 -78 107 -15 3 -34 8 -42 10 -8 2 -24 0 -35 -5z"/>
<path d="M5250 14309 c-81 -47 -126 -85 -140 -119 -11 -26 -9 -37 15 -94 15
-36 41 -77 57 -93 25 -24 37 -28 81 -27 61 0 140 33 157 64 24 44 24 123 0
193 -35 104 -84 125 -170 76z"/>
<path d="M10085 15240 c-18 -20 -18 -23 0 -108 12 -58 20 -139 22 -242 2 -85
7 -204 12 -265 6 -80 6 -113 -3 -122 -8 -9 -62 -13 -179 -13 -93 -1 -171 0
-173 3 -3 3 -1 33 5 68 16 101 23 583 9 597 -17 17 -53 15 -68 -4 -24 -28 -40
-147 -49 -366 -6 -133 -14 -226 -22 -239 -9 -17 -10 -80 -5 -248 6 -212 8
-227 28 -243 26 -23 60 -23 89 1 21 17 24 27 23 88 0 37 -7 103 -14 146 -16
96 -11 105 55 83 36 -13 55 -14 83 -6 57 15 121 11 187 -13 68 -25 72 -32 74
-153 1 -88 28 -137 78 -142 46 -5 71 13 83 58 9 33 8 46 -9 78 -12 24 -26 88
-36 172 -10 74 -21 143 -26 152 -6 10 -12 111 -14 225 -3 115 -10 255 -15 312
-5 57 -7 108 -4 113 10 16 -16 65 -42 77 -37 17 -69 13 -89 -9z"/>
<path d="M9075 15173 c-27 -16 -65 -39 -83 -53 -44 -33 -134 -165 -150 -220
-36 -130 -54 -229 -66 -359 -13 -144 -7 -229 23 -297 5 -11 44 -39 88 -62 43
-22 98 -61 123 -87 71 -73 110 -90 210 -90 86 0 101 4 217 56 47 20 62 53 43
89 -21 39 -55 43 -112 14 -106 -54 -121 -56 -197 -31 -61 21 -171 97 -171 119
0 4 -20 21 -44 39 -38 27 -47 39 -55 81 -16 74 -13 245 5 293 9 22 22 63 29
90 40 155 113 265 192 289 25 8 37 -3 87 -79 34 -52 60 -64 95 -45 37 19 24
110 -28 192 -56 88 -123 107 -206 61z"/>
<path d="M11311 15091 c-28 -28 -27 -34 16 -69 37 -29 37 -30 20 -55 -13 -20
-15 -32 -7 -52 6 -15 10 -47 10 -71 0 -25 5 -54 11 -65 6 -11 13 -89 16 -172
7 -202 7 -204 4 -262 -1 -27 0 -103 1 -168 3 -91 7 -120 18 -127 21 -14 100
-12 206 4 112 17 141 35 247 153 137 153 168 257 131 443 -11 56 -91 186 -142
230 -26 23 -105 70 -177 104 -261 128 -317 144 -354 107z m309 -216 c113 -57
176 -114 210 -190 27 -59 34 -85 45 -177 8 -58 -14 -98 -115 -214 -68 -78
-121 -112 -189 -121 -65 -9 -71 10 -71 217 -1 96 -7 254 -14 350 -14 185 -13
196 29 183 11 -3 58 -25 105 -48z"/>
<path d="M10934 15016 c-3 -9 -4 -25 -1 -36 6 -23 -10 -30 -43 -18 -59 22
-187 -33 -268 -115 -43 -44 -54 -62 -67 -117 -22 -87 -41 -138 -70 -180 -23
-32 -25 -47 -28 -180 -3 -81 0 -158 6 -175 12 -38 72 -102 114 -122 18 -8 41
-30 51 -48 11 -18 45 -49 76 -70 52 -34 61 -37 107 -32 71 9 225 86 275 139
24 24 50 67 62 98 11 30 33 82 49 115 28 59 28 62 28 250 0 158 -3 197 -17
230 -10 22 -22 58 -27 80 -14 55 -61 127 -105 160 -46 35 -132 47 -142 21z
m95 -149 c12 -14 25 -46 31 -78 5 -30 17 -74 26 -99 11 -30 16 -72 15 -125 -4
-296 -66 -424 -230 -480 -88 -29 -103 -25 -176 48 -29 29 -66 63 -83 77 l-30
26 3 109 c2 93 6 119 27 165 14 31 31 81 37 111 16 78 59 141 125 185 49 32
61 36 95 30 46 -7 88 8 96 36 9 25 37 23 64 -5z"/>
<path d="M12640 14952 c-19 -11 -47 -22 -61 -25 -35 -9 -42 -31 -23 -69 12
-24 15 -47 10 -97 -24 -250 -15 -571 16 -609 29 -35 87 -34 110 2 11 16 10 70
-2 102 -14 35 -24 300 -15 382 5 51 10 63 23 60 20 -4 44 -50 67 -127 17 -57
86 -141 137 -167 27 -14 33 -13 131 43 56 32 114 64 130 73 15 8 57 38 93 65
36 28 72 54 79 59 7 5 19 7 27 4 12 -5 16 -38 22 -163 4 -86 11 -167 16 -181
6 -14 10 -68 10 -120 0 -87 2 -97 25 -119 29 -30 75 -33 98 -7 21 23 22 67 1
123 -22 63 -32 502 -14 640 13 99 13 99 -10 124 -48 51 -93 28 -146 -76 -39
-75 -159 -187 -249 -232 -39 -19 -89 -45 -112 -58 -75 -42 -91 -24 -214 251
-41 91 -76 140 -102 140 -7 0 -28 -8 -47 -18z"/>
<path d="M12156 14899 c-21 -16 -26 -27 -21 -43 4 -11 11 -52 15 -91 5 -38 13
-108 19 -155 10 -76 15 -128 36 -355 10 -109 28 -176 54 -196 31 -25 52 -24
80 2 19 18 22 28 17 58 -8 51 -23 119 -37 171 -10 41 -14 83 -11 135 3 37 -17
299 -28 375 -6 41 -17 85 -25 97 -20 30 -63 30 -99 2z"/>
<path d="M9874 13286 c-17 -13 -19 -27 -19 -118 -1 -128 -22 -419 -35 -473 -5
-22 -12 -116 -14 -210 -3 -93 -5 -171 -6 -172 0 -2 -8 -3 -18 -3 -29 0 -43 22
-130 200 -51 104 -100 189 -134 230 -68 84 -150 230 -210 374 -46 109 -79 129
-137 80 -34 -28 -38 -51 -17 -92 9 -18 15 -79 17 -192 6 -232 3 -517 -6 -571
-6 -42 -5 -48 20 -68 34 -26 72 -27 104 -2 24 18 25 24 23 113 -3 99 -18 322
-29 401 -9 73 20 64 82 -23 28 -39 71 -100 98 -137 26 -36 50 -78 54 -92 3
-14 14 -37 23 -51 10 -14 28 -53 40 -87 12 -35 29 -68 37 -75 8 -6 21 -25 29
-42 37 -81 71 -122 123 -150 46 -25 56 -27 76 -16 44 24 51 58 70 374 8 132
20 258 26 280 15 54 30 204 35 354 l5 122 -30 30 c-33 33 -48 37 -77 16z"/>
<path d="M10820 13187 c-24 -20 -70 -92 -70 -110 0 -10 -9 -35 -20 -57 -11
-22 -20 -53 -20 -69 0 -39 -17 -112 -41 -176 -24 -65 -65 -196 -74 -236 -4
-17 -15 -46 -25 -63 -10 -17 -21 -47 -25 -66 -4 -19 -12 -40 -17 -47 -11 -14
-58 -191 -65 -245 -4 -30 0 -42 21 -62 43 -44 93 -28 110 34 4 14 15 64 25
111 26 120 53 176 87 185 15 4 71 1 125 -6 55 -7 124 -9 157 -5 58 7 60 6 82
-25 12 -17 26 -46 31 -63 4 -18 17 -59 28 -92 12 -33 23 -72 26 -87 6 -33 74
-73 107 -62 19 6 20 11 14 71 -8 78 -41 185 -73 233 -12 20 -26 51 -29 70 -4
19 -22 60 -40 90 -47 78 -91 202 -113 315 -4 22 -15 65 -24 95 -9 30 -25 96
-36 145 -16 70 -26 95 -46 113 -28 24 -71 28 -95 9z m69 -337 c7 -27 17 -52
22 -56 5 -3 9 -23 9 -44 0 -51 24 -141 46 -175 18 -27 18 -28 -6 -47 -20 -16
-33 -18 -74 -12 -70 9 -117 26 -130 46 -8 13 -5 34 11 85 12 37 28 95 34 128
28 135 65 166 88 75z"/>
<path d="M12182 9781 c-62 -63 -214 -159 -328 -204 -51 -21 -97 -37 -103 -37
-5 0 -46 -25 -91 -55 -44 -30 -124 -75 -177 -101 -54 -25 -123 -61 -153 -79
-58 -35 -219 -78 -410 -110 -52 -9 -148 -34 -213 -55 -66 -22 -147 -45 -180
-51 -34 -7 -89 -22 -122 -34 -33 -13 -96 -26 -140 -30 -44 -4 -107 -16 -140
-27 -33 -11 -85 -24 -115 -29 -57 -8 -82 -13 -263 -48 -59 -11 -146 -23 -195
-27 -48 -4 -98 -11 -112 -17 -14 -5 -104 -10 -201 -12 -96 -1 -182 -6 -190
-11 -8 -5 -153 -10 -324 -12 -170 -2 -332 -4 -360 -4 -71 -2 -240 19 -310 38
-42 12 -80 15 -126 10 -52 -5 -79 -2 -123 14 -65 22 -183 40 -265 40 -87 0
-245 26 -297 49 -26 12 -52 21 -58 21 -16 0 -125 56 -145 74 -19 18 -113 60
-191 87 -30 11 -81 37 -115 58 -64 42 -173 91 -201 91 -79 0 -289 112 -316
168 -15 30 -69 61 -110 62 -38 0 -78 -50 -78 -98 0 -20 4 -42 8 -48 7 -11 54
-44 141 -98 51 -32 195 -96 216 -96 7 0 58 -22 113 -50 55 -27 106 -50 113
-50 7 0 33 -13 58 -29 25 -16 71 -36 102 -45 30 -8 72 -26 91 -40 20 -13 47
-27 59 -31 13 -4 47 -17 74 -30 192 -90 233 -105 285 -105 29 0 71 -5 94 -11
123 -32 157 -39 220 -45 38 -3 87 -13 110 -21 26 -9 89 -16 171 -18 72 -2 189
-13 260 -25 102 -17 148 -21 215 -15 47 4 105 6 130 5 25 -2 70 -2 100 -2 299
6 380 10 474 21 60 7 123 11 140 8 28 -4 251 13 421 32 118 14 275 41 380 66
55 13 162 35 237 49 76 14 150 32 165 40 16 7 64 19 108 26 44 6 127 25 185
42 119 34 134 38 285 72 61 13 137 27 170 31 73 8 169 45 250 96 33 20 79 45
103 54 23 10 113 60 200 111 86 52 165 94 174 94 9 0 67 24 130 54 84 40 140
75 221 140 102 83 107 89 107 125 0 45 -30 71 -81 71 -24 0 -41 -11 -77 -49z"/>
<path d="M6525 6633 c-33 -26 -77 -57 -99 -68 -22 -11 -49 -32 -60 -47 l-20
-28 21 -42 c12 -24 25 -61 29 -83 3 -22 13 -53 21 -68 8 -17 13 -52 12 -90 -1
-34 3 -87 10 -117 8 -33 13 -108 12 -185 -2 -153 20 -344 47 -412 11 -26 25
-62 32 -79 6 -17 22 -37 36 -44 21 -12 28 -11 52 7 36 27 40 71 11 137 -22 50
-32 119 -45 286 -8 101 -5 105 81 113 71 6 194 59 249 108 57 50 78 100 84
202 3 64 1 102 -11 140 -9 29 -21 71 -28 94 -21 76 -125 153 -264 196 -105 33
-106 33 -170 -20z m197 -113 c41 -12 92 -51 109 -82 36 -68 50 -217 25 -267
-29 -55 -149 -119 -235 -124 -36 -3 -71 53 -71 112 0 26 -7 97 -16 159 -15
112 -15 113 7 150 42 69 49 75 99 68 25 -3 62 -10 82 -16z"/>
<path d="M7873 6638 c-34 -38 -87 -121 -104 -163 -9 -22 -24 -58 -33 -80 -20
-49 -91 -125 -115 -125 -10 0 -26 10 -37 21 -10 12 -38 35 -62 51 -43 30 -80
80 -131 181 -43 85 -112 87 -156 4 l-20 -38 47 -44 c25 -25 57 -66 70 -91 12
-26 43 -63 68 -83 56 -45 150 -143 150 -155 0 -6 13 -24 30 -41 l30 -31 6
-159 c3 -87 7 -162 10 -166 3 -5 5 -83 5 -174 0 -150 2 -168 19 -185 27 -27
67 -35 87 -19 37 31 41 66 27 229 -7 85 -13 228 -14 318 0 90 -5 183 -11 208
-11 41 -10 48 10 72 47 58 93 135 105 176 7 23 29 68 49 99 68 106 83 169 49
200 -26 23 -55 21 -79 -5z"/>
<path d="M8867 6589 c-25 -15 -42 -53 -67 -154 -12 -49 -33 -121 -47 -158 -29
-81 -51 -176 -63 -274 -5 -40 -13 -80 -18 -90 -5 -10 -13 -47 -17 -83 -8 -76
-28 -130 -48 -130 -17 0 -66 109 -105 235 -30 97 -39 134 -66 260 -27 125 -56
204 -88 230 -40 34 -57 32 -103 -15 -39 -40 -40 -41 -23 -68 55 -88 100 -188
103 -231 7 -101 85 -375 128 -451 18 -30 52 -95 77 -145 46 -90 46 -90 87 -93
51 -4 79 20 88 75 4 21 20 75 36 120 30 80 46 168 53 288 6 94 34 224 67 316
28 76 56 170 80 271 10 44 -1 82 -30 97 -23 13 -22 13 -44 0z"/>
<path d="M11676 6564 c-46 -20 -87 -28 -175 -34 -64 -5 -138 -12 -166 -16 -89
-12 -126 -48 -111 -109 11 -45 33 -48 230 -35 100 6 198 15 218 20 24 5 42 4
52 -4 22 -17 -29 -159 -108 -303 -74 -134 -111 -238 -121 -339 -7 -64 -31
-188 -53 -275 -5 -19 -23 -54 -40 -78 -40 -55 -51 -121 -26 -159 42 -64 81
-68 133 -13 20 21 45 43 56 49 39 19 233 82 254 82 28 0 102 17 176 40 33 11
72 17 86 14 21 -5 36 2 68 31 51 46 55 83 12 125 -45 45 -71 47 -159 10 -42
-17 -95 -37 -117 -42 -22 -6 -69 -21 -105 -33 -93 -33 -170 -49 -181 -38 -9 9
-1 121 21 278 9 66 24 107 86 236 41 86 74 159 74 163 0 5 9 20 20 36 10 15
22 46 26 68 4 23 13 47 20 53 8 6 14 25 14 42 0 16 5 46 11 66 20 69 -58 192
-121 191 -8 -1 -42 -12 -74 -26z"/>
<path d="M10710 6502 c-31 -17 -90 -87 -177 -214 -44 -65 -77 -166 -75 -231 1
-60 12 -93 104 -307 43 -103 56 -122 113 -177 56 -53 73 -63 121 -73 105 -22
275 8 312 55 10 13 25 49 32 80 13 54 13 58 -5 71 -10 8 -26 14 -34 14 -17 0
-64 -24 -104 -53 -28 -20 -140 -41 -174 -32 -37 9 -82 65 -125 155 -66 140
-92 226 -92 306 0 68 2 75 42 134 23 35 42 68 42 75 0 17 43 55 63 55 26 0 30
-19 12 -61 -17 -36 -17 -40 -1 -64 9 -13 27 -32 40 -41 22 -14 27 -14 55 1 19
9 33 26 37 43 3 15 10 39 16 55 21 56 -7 163 -54 207 -28 26 -100 27 -148 2z"/>
<path d="M9407 6491 c-62 -32 -145 -101 -192 -160 -35 -44 -47 -69 -58 -126
-32 -154 -38 -228 -26 -331 10 -84 18 -111 53 -180 81 -154 100 -175 201 -205
58 -18 86 -21 165 -16 53 3 113 12 134 21 67 28 172 130 207 201 30 62 31 66
25 162 -15 233 -74 443 -143 515 -47 49 -130 92 -225 117 -95 26 -95 26 -141
2z m60 -139 c28 -29 49 -33 89 -16 34 14 38 14 68 -7 51 -35 76 -74 97 -149
11 -39 26 -82 34 -94 10 -15 17 -61 21 -132 11 -190 -29 -270 -165 -333 -65
-30 -66 -30 -121 -15 -30 8 -72 19 -93 25 -33 9 -41 18 -72 80 -55 108 -68
175 -62 304 8 161 28 214 115 307 49 53 62 57 89 30z"/>
<path d="M10099 5637 c-27 -18 -35 -30 -37 -61 -6 -75 33 -123 89 -109 36 9
45 19 59 69 12 44 12 46 -16 75 -46 48 -57 51 -95 26z"/>
</g>
</svg>
