<?xml version="1.0" standalone="no"?>
<!DOCTYPE svg PUBLIC "-//W3C//DTD SVG 20010904//EN"
 "http://www.w3.org/TR/2001/REC-SVG-20010904/DTD/svg10.dtd">
<svg version="1.0" xmlns="http://www.w3.org/2000/svg"
 width="1350.554742pt" height="1394.217400pt" viewBox="0 0 1350.554742 1394.217400"
 preserveAspectRatio="xMidYMid meet">
<metadata>
Created by potrace 1.13, written by Peter Selinger 2001-2015
</metadata>
<g transform="translate(-144.000000,1536.759075) scale(0.100000,-0.100000)"
fill="#000000" stroke="none">
<path d="M6185 15355 c-85 -7 -152 -17 -170 -27 -16 -8 -48 -21 -70 -28 -22
-7 -67 -26 -99 -41 -33 -16 -65 -29 -73 -29 -7 0 -30 -15 -50 -34 -21 -18 -96
-66 -167 -106 -105 -60 -144 -88 -213 -158 -46 -46 -95 -106 -108 -131 -13
-26 -31 -53 -40 -61 -24 -20 -77 -105 -121 -193 -21 -43 -44 -83 -51 -89 -7
-6 -13 -16 -13 -22 0 -7 -16 -50 -36 -96 -32 -75 -58 -162 -68 -225 -4 -25
-24 -89 -45 -140 -13 -32 -16 -79 -16 -255 1 -396 43 -607 154 -765 23 -32 41
-63 41 -69 0 -5 9 -19 20 -31 11 -11 21 -32 22 -45 2 -20 -5 -29 -37 -45 -42
-21 -105 -25 -205 -13 -30 4 -67 7 -81 7 -26 1 -164 84 -212 130 -49 44 -96
150 -103 231 -8 83 -29 116 -78 126 -72 13 -107 -41 -86 -131 16 -67 9 -78
-64 -99 -28 -9 -62 -26 -75 -40 -38 -40 -73 -50 -111 -31 -29 15 -34 15 -56 0
-38 -25 -31 -60 21 -113 44 -44 45 -44 103 -40 45 3 69 11 103 35 70 49 78 49
155 -3 38 -26 90 -66 115 -88 26 -23 86 -63 135 -91 102 -58 162 -69 347 -67
95 1 127 6 164 22 62 27 71 26 139 -19 89 -59 144 -124 144 -169 0 -35 40
-112 58 -112 20 0 60 26 84 55 l17 20 38 -23 c75 -45 128 -65 193 -72 37 -4
93 -19 126 -34 54 -24 62 -25 97 -13 27 10 55 11 98 5 44 -6 77 -4 118 6 31 8
97 17 146 20 50 4 124 11 165 17 68 9 100 20 208 65 18 8 59 14 92 14 53 0 61
3 79 29 21 28 79 61 179 100 30 12 84 40 120 64 77 49 149 81 241 108 35 10
70 24 78 30 8 7 24 13 36 14 12 1 54 8 93 15 63 11 78 10 120 -4 32 -11 83
-16 158 -16 122 -1 188 -13 297 -56 63 -26 77 -36 115 -88 24 -32 44 -67 44
-78 0 -11 5 -28 10 -38 7 -13 7 -47 1 -99 -7 -68 -16 -92 -56 -163 -48 -84
-166 -218 -273 -310 -81 -69 -196 -133 -292 -161 -93 -27 -226 -31 -325 -9
-27 5 -108 20 -180 32 -71 11 -164 29 -205 40 -100 26 -261 52 -336 55 -34 1
-66 5 -72 9 -15 9 -316 46 -382 46 -111 1 -204 32 -280 94 -14 12 -73 36 -130
55 -58 18 -132 46 -165 61 -80 37 -167 54 -230 46 -141 -19 -172 -18 -217 2
-76 33 -174 53 -281 56 -56 2 -192 9 -302 16 -216 12 -293 6 -485 -40 -47 -12
-103 -24 -125 -27 -22 -3 -68 -19 -103 -34 -34 -16 -67 -29 -72 -29 -20 0
-106 -33 -121 -46 -9 -8 -30 -16 -46 -18 -47 -6 -171 -45 -206 -66 -18 -10
-48 -21 -67 -25 -59 -13 -191 -75 -241 -115 -27 -21 -70 -46 -96 -56 -95 -35
-189 -116 -329 -284 -135 -161 -223 -388 -224 -575 0 -28 -7 -75 -15 -105 -13
-47 -35 -383 -35 -525 0 -95 10 -228 19 -262 15 -56 22 -205 11 -244 -6 -21
-6 -68 0 -124 5 -49 14 -166 20 -260 10 -170 19 -231 47 -335 15 -53 27 -103
57 -244 14 -66 30 -120 77 -247 30 -82 83 -165 167 -260 28 -32 52 -64 52 -70
0 -14 109 -149 120 -149 5 0 31 -28 59 -62 27 -35 61 -76 74 -93 13 -16 28
-41 32 -55 4 -14 20 -41 34 -60 15 -19 33 -48 40 -64 12 -29 32 -56 100 -136
18 -22 65 -61 105 -87 39 -26 102 -72 140 -103 111 -89 230 -162 386 -234 41
-19 100 -49 130 -66 61 -36 202 -87 272 -100 26 -5 55 -13 65 -18 24 -13 126
-37 248 -58 69 -12 143 -16 236 -15 109 2 143 0 167 -13 17 -9 45 -16 61 -16
25 0 32 -5 37 -26 7 -27 1 -109 -16 -204 -25 -151 -29 -219 -15 -254 10 -24
13 -52 8 -93 -8 -75 -8 -114 2 -248 7 -116 24 -175 73 -266 16 -30 33 -79 37
-109 8 -60 52 -140 118 -216 28 -31 37 -49 32 -63 -4 -14 1 -26 17 -38 33 -26
141 -136 221 -225 41 -46 89 -86 120 -103 29 -15 68 -43 87 -61 39 -37 91 -61
159 -75 105 -20 188 -38 221 -48 74 -21 132 -28 171 -21 23 4 122 3 220 -3
155 -9 190 -9 271 6 51 9 145 21 208 28 63 6 131 17 150 25 32 13 209 19 370
14 25 -1 77 -1 115 1 144 6 322 -76 460 -211 61 -60 235 -182 277 -195 13 -4
42 -21 65 -36 23 -16 46 -29 50 -29 5 0 38 -20 74 -45 35 -25 91 -56 124 -67
39 -15 75 -38 107 -69 33 -33 83 -64 156 -99 59 -28 116 -56 127 -62 57 -33
80 -38 205 -44 203 -10 260 -8 342 15 41 12 87 21 102 21 15 0 56 11 91 25 35
14 89 32 122 41 32 8 86 28 120 44 34 17 66 30 71 30 25 0 185 108 240 163 96
93 242 277 242 304 0 7 11 13 25 13 19 0 25 -5 25 -21 0 -24 52 -120 75 -139
20 -17 73 -5 102 22 34 32 29 68 -17 124 -22 27 -45 66 -51 86 -5 20 -14 40
-19 43 -6 3 -10 14 -10 25 0 21 37 103 65 145 12 17 56 102 100 190 59 119 81
175 87 220 22 171 28 282 27 507 -2 192 1 251 11 263 19 23 77 45 119 45 20 0
68 9 106 20 86 25 110 25 154 2 24 -12 39 -30 50 -59 9 -23 29 -55 44 -71 15
-15 27 -37 27 -48 1 -10 7 -30 15 -44 8 -14 14 -37 15 -52 0 -15 10 -39 23
-54 21 -24 28 -26 61 -20 52 10 89 48 82 84 -3 15 -8 52 -11 82 -2 30 -7 64
-10 76 -8 26 0 32 110 82 142 65 160 93 104 163 -40 50 -71 51 -148 4 -87 -54
-158 -69 -190 -41 -22 19 -167 76 -194 76 -12 0 -54 -7 -92 -15 -39 -9 -110
-22 -160 -30 -49 -8 -100 -17 -111 -21 -28 -8 -61 27 -75 80 -6 23 -19 52 -29
66 -9 14 -37 61 -60 105 -42 78 -127 195 -219 303 -34 39 -67 64 -125 93 -43
21 -89 39 -102 39 -12 0 -35 5 -51 11 -15 6 -53 17 -83 24 -128 31 -148 37
-210 65 -120 53 -465 121 -630 122 -50 1 -129 -11 -149 -21 -11 -6 -28 -11
-38 -11 -10 0 -31 -7 -48 -16 -16 -9 -49 -20 -73 -25 -24 -5 -58 -15 -75 -23
-115 -53 -171 -76 -183 -76 -7 0 -26 -11 -42 -25 -16 -14 -88 -48 -158 -76
-71 -28 -142 -56 -159 -64 -16 -7 -61 -25 -100 -41 -38 -15 -108 -49 -155 -76
-46 -26 -97 -48 -112 -48 -16 0 -50 -11 -76 -24 -26 -14 -65 -28 -87 -31 -22
-4 -69 -16 -105 -27 -36 -11 -121 -26 -190 -34 -69 -8 -161 -19 -205 -24 -44
-6 -102 -7 -130 -4 -66 8 -248 51 -288 68 -36 15 -113 94 -127 130 -5 14 -24
32 -43 41 -53 25 -107 138 -106 220 1 72 14 147 41 237 18 60 29 77 117 170
54 57 127 149 164 205 48 74 84 116 129 152 35 28 98 79 142 113 134 107 177
133 315 187 133 52 135 53 250 54 111 1 119 0 191 -32 171 -76 217 -103 280
-162 93 -87 127 -107 226 -134 157 -41 178 -47 226 -66 26 -11 54 -19 63 -19
9 0 33 -9 55 -20 22 -11 52 -20 67 -20 44 0 178 -54 223 -90 61 -48 263 -123
435 -160 55 -12 123 -28 150 -35 28 -8 93 -17 145 -21 52 -3 137 -17 188 -30
73 -19 118 -23 205 -23 98 1 120 -2 180 -24 59 -23 88 -27 220 -32 235 -8 423
-22 521 -38 48 -8 116 -13 150 -12 269 14 328 19 392 35 86 22 148 52 229 112
33 24 82 56 108 71 137 80 521 533 597 704 11 26 36 70 55 98 19 29 43 75 55
104 11 28 31 73 44 99 13 26 29 72 36 102 6 30 21 68 32 83 20 29 45 110 67
222 15 70 77 294 96 347 22 58 47 168 51 228 11 150 12 522 2 595 -12 83 -13
90 -26 265 -7 88 -13 116 -40 170 -19 40 -32 81 -32 105 -1 47 -15 116 -34
165 -41 103 -95 348 -82 369 11 18 -16 104 -48 156 -17 28 -51 76 -76 108 -66
86 -90 120 -90 129 0 5 -20 33 -45 64 -25 30 -45 59 -45 64 0 12 -113 147
-154 183 -17 15 -56 39 -86 54 -30 14 -77 42 -105 63 -160 121 -414 270 -460
270 -28 0 -184 44 -220 62 -16 8 -93 29 -170 47 -77 17 -174 45 -215 61 -58
22 -98 30 -180 35 -58 3 -121 10 -140 14 -19 5 -106 8 -192 7 -142 -1 -159 -3
-185 -22 -15 -12 -29 -32 -31 -45 -3 -29 28 -82 62 -105 24 -15 31 -15 98 1
99 25 401 16 476 -14 26 -11 70 -22 98 -26 154 -21 294 -57 524 -133 199 -67
232 -85 370 -200 19 -16 71 -49 115 -73 132 -71 294 -244 393 -419 17 -30 56
-88 86 -129 34 -45 58 -88 61 -110 4 -20 17 -76 30 -126 13 -49 29 -128 35
-173 6 -46 15 -95 21 -109 5 -13 9 -39 9 -57 0 -17 27 -111 59 -207 42 -124
57 -183 54 -207 -3 -17 0 -69 7 -115 15 -99 22 -600 10 -712 -5 -44 -16 -105
-25 -135 -10 -30 -22 -76 -29 -101 -6 -25 -23 -60 -38 -78 -16 -18 -28 -43
-28 -55 0 -13 -9 -65 -21 -117 -11 -52 -25 -113 -30 -137 -4 -24 -20 -71 -35
-105 -14 -34 -29 -78 -33 -97 -13 -60 -82 -201 -140 -287 -31 -46 -72 -112
-91 -147 -76 -140 -165 -263 -255 -351 -23 -22 -81 -84 -129 -137 -64 -70
-108 -109 -160 -139 -39 -23 -91 -54 -116 -68 -50 -30 -161 -67 -230 -76 -84
-12 -365 -14 -435 -3 -38 6 -128 12 -198 14 -71 2 -137 9 -147 14 -11 6 -79
12 -152 14 -110 4 -143 8 -188 27 -47 19 -75 23 -190 24 -125 1 -141 4 -215
32 -59 23 -111 34 -200 43 -66 6 -140 18 -165 26 -69 21 -169 44 -195 44 -14
0 -39 6 -57 14 -18 8 -71 29 -118 46 -47 18 -110 48 -141 66 -74 46 -192 89
-384 140 -33 9 -76 24 -95 34 -50 25 -128 49 -179 55 -49 6 -90 28 -166 90
-87 71 -170 123 -216 135 -24 7 -69 25 -99 42 -76 41 -230 70 -330 62 -175
-16 -367 -110 -532 -261 -58 -54 -139 -120 -179 -148 -67 -46 -125 -110 -174
-190 -26 -41 -83 -112 -164 -200 -68 -74 -124 -179 -136 -256 -4 -24 -16 -71
-27 -103 -17 -50 -20 -77 -16 -175 4 -112 6 -119 44 -190 56 -106 58 -109 101
-155 22 -22 51 -57 65 -76 31 -44 93 -87 149 -106 41 -15 126 -30 279 -53 128
-18 140 -18 259 -3 64 8 144 16 178 18 71 3 255 38 317 60 22 9 59 19 81 24
55 11 199 73 266 115 31 19 78 40 105 46 121 29 220 67 364 140 85 44 159 79
166 79 6 0 28 12 49 26 44 29 73 41 214 84 103 32 104 32 265 27 121 -4 187
-11 266 -30 58 -14 123 -28 145 -32 22 -3 75 -22 117 -40 42 -19 109 -41 150
-49 95 -20 181 -50 221 -77 43 -29 222 -214 256 -265 31 -45 81 -150 81 -169
0 -7 9 -24 21 -39 63 -80 -50 -128 -185 -77 -61 23 -88 46 -111 96 -7 17 -22
38 -32 47 -23 21 -116 63 -198 90 -33 11 -67 26 -76 34 -22 20 -41 21 -189 10
-110 -7 -128 -11 -153 -32 -16 -13 -34 -24 -40 -24 -6 0 -29 -9 -51 -19 -23
-11 -93 -36 -156 -56 -63 -20 -124 -42 -135 -49 -11 -7 -51 -23 -90 -36 -38
-12 -108 -42 -155 -66 -47 -23 -105 -52 -130 -62 -25 -11 -74 -45 -110 -76
-36 -31 -68 -56 -71 -56 -3 0 -44 -46 -90 -102 -46 -57 -114 -133 -151 -169
-69 -67 -77 -84 -58 -133 11 -29 77 -54 103 -40 9 5 81 73 159 150 79 77 166
155 193 174 28 18 61 43 75 56 33 30 181 105 305 155 170 68 200 79 214 79 7
0 33 -18 58 -40 25 -22 69 -51 97 -65 46 -22 57 -24 112 -16 69 10 102 27 110
56 3 11 14 39 25 63 30 66 53 56 103 -45 44 -88 62 -103 125 -103 21 0 57 -7
81 -15 39 -14 45 -13 86 6 43 19 47 19 101 4 72 -21 167 -86 201 -137 15 -22
44 -59 65 -83 l37 -42 0 -134 c0 -166 -14 -232 -79 -380 -28 -64 -51 -123 -51
-130 0 -8 -7 -23 -15 -33 -8 -11 -15 -30 -15 -42 0 -12 -7 -28 -16 -35 -9 -8
-25 -32 -34 -54 -30 -67 -96 -170 -113 -173 -9 -2 -29 6 -45 18 -32 24 -51 20
-86 -19 -22 -25 -47 -115 -53 -194 l-5 -58 -86 -75 c-132 -115 -300 -191 -532
-241 -63 -14 -135 -30 -160 -36 -25 -5 -103 -11 -175 -12 -147 -2 -259 17
-340 57 -27 13 -65 31 -84 38 -38 15 -176 105 -186 120 -4 6 -28 21 -55 35
-27 14 -85 50 -130 80 -45 30 -102 67 -128 80 -101 55 -235 143 -304 201 -173
145 -227 179 -338 214 -105 32 -105 32 -309 31 -112 -1 -206 -3 -210 -5 -11
-7 -109 -18 -181 -20 -36 -2 -83 -8 -105 -14 -44 -13 -192 -33 -270 -38 -27
-1 -90 -6 -140 -9 -119 -9 -397 9 -455 30 -25 9 -78 23 -119 31 -90 19 -195
64 -236 103 -16 15 -67 54 -112 86 -46 32 -83 62 -83 65 0 4 -11 19 -25 34
-14 15 -43 51 -65 80 -22 29 -57 67 -79 84 -23 19 -42 44 -46 62 -4 16 -28 62
-54 102 -78 119 -103 175 -109 248 -2 36 -13 81 -22 100 -15 30 -16 48 -9 138
6 69 5 124 -2 170 -20 119 -21 174 -3 242 19 76 27 146 23 215 -5 87 -2 148
11 227 10 57 11 86 3 115 -25 89 -31 132 -26 205 2 46 0 79 -6 82 -16 10 -1
107 22 145 24 40 30 71 58 313 18 166 23 185 64 281 24 57 53 136 64 177 12
41 32 97 46 123 14 27 25 55 25 63 0 25 28 77 75 139 25 33 52 74 60 92 8 17
35 61 60 96 25 36 45 68 45 71 0 3 17 32 38 64 21 31 56 84 78 117 161 247
409 492 534 530 14 4 50 22 81 40 48 28 205 99 264 120 32 11 304 39 370 37
33 0 88 -7 122 -15 50 -12 78 -13 139 -4 78 11 107 8 363 -27 74 -10 112 -21
133 -36 67 -49 115 -78 143 -84 32 -8 175 -98 240 -152 23 -18 79 -52 125 -75
123 -60 290 -139 295 -139 3 0 22 -11 43 -24 21 -13 92 -45 157 -71 66 -26
138 -60 162 -76 60 -41 129 -52 353 -53 247 -1 329 11 570 86 110 34 228 105
303 183 57 59 137 173 137 196 0 9 23 63 51 120 61 124 87 195 98 269 5 30 13
69 19 85 30 84 33 115 28 240 -3 72 -10 148 -15 169 -5 22 -7 52 -4 67 3 14 0
30 -6 33 -6 4 -11 20 -11 36 0 16 -10 55 -21 87 -35 95 -190 232 -363 323 -39
21 -71 42 -71 48 0 6 16 32 35 58 19 27 52 80 74 119 21 38 46 79 56 90 9 11
33 47 53 80 30 51 36 73 42 140 11 152 26 229 52 273 23 41 24 48 18 140 -5
66 -3 110 5 137 6 22 13 87 16 145 8 216 12 246 37 298 7 16 7 36 -1 71 -6 27
-9 64 -6 82 26 188 21 474 -11 602 -8 32 -15 77 -15 99 0 56 -45 238 -81 325
-16 39 -29 80 -29 90 0 10 -15 50 -33 88 -19 39 -44 99 -56 134 -31 91 -35 97
-120 187 -42 45 -96 105 -121 134 -142 167 -224 228 -335 249 -152 29 -208 33
-521 36 -334 4 -339 3 -406 -20 -41 -14 -112 -28 -185 -34 -163 -15 -323 -31
-353 -36 -30 -4 -125 19 -154 38 -12 8 -39 19 -61 26 -22 7 -77 31 -123 53
-58 28 -103 43 -150 48 -38 5 -100 22 -142 40 -41 18 -93 35 -115 40 -67 12
-93 27 -169 97 -41 38 -115 97 -166 133 -51 36 -121 85 -155 110 -34 25 -79
53 -101 62 -78 32 -391 127 -489 148 -55 12 -122 28 -149 36 -54 16 -46 16
-241 -1z m285 -180 c67 -20 140 -40 200 -54 114 -28 170 -46 235 -76 39 -17
87 -37 108 -44 46 -15 202 -117 260 -169 23 -21 58 -49 77 -62 19 -13 65 -52
101 -86 36 -35 77 -65 90 -68 13 -3 62 -12 108 -21 46 -9 93 -23 106 -31 12
-8 101 -41 197 -73 97 -32 195 -70 219 -83 24 -14 80 -33 124 -43 71 -15 100
-16 265 -6 102 6 219 18 260 26 160 33 213 38 445 41 132 1 247 3 255 4 22 2
249 -18 295 -26 109 -19 226 -109 319 -247 30 -45 73 -100 96 -122 23 -22 51
-60 62 -85 21 -48 78 -217 78 -231 0 -5 14 -37 31 -71 51 -106 70 -178 73
-284 1 -29 8 -59 15 -68 7 -9 11 -23 7 -31 -3 -9 2 -28 12 -43 15 -23 17 -50
14 -219 -1 -106 -6 -203 -11 -216 -5 -13 -10 -113 -10 -222 0 -195 -1 -198
-26 -234 -22 -33 -25 -47 -25 -122 0 -46 -6 -122 -14 -169 -9 -47 -20 -134
-26 -195 -33 -321 -35 -328 -63 -376 -15 -25 -27 -53 -27 -61 0 -9 -6 -21 -14
-27 -7 -6 -39 -53 -71 -104 -31 -50 -79 -123 -106 -162 -27 -38 -49 -76 -49
-83 0 -7 -21 -50 -46 -97 -69 -128 -188 -224 -334 -270 -30 -10 -75 -28 -100
-41 -79 -41 -224 -94 -257 -94 -9 0 -60 -18 -113 -40 -63 -25 -121 -42 -166
-46 -38 -4 -93 -15 -123 -26 -30 -10 -74 -18 -99 -18 -28 0 -57 -8 -78 -21
-26 -16 -60 -23 -146 -29 -62 -4 -142 -15 -178 -24 -36 -9 -121 -23 -190 -32
-69 -9 -152 -20 -185 -25 -210 -31 -470 -39 -580 -19 -59 11 -120 14 -235 11
-51 -2 -117 4 -165 14 -82 17 -104 16 -227 -16 -26 -7 -51 -6 -80 2 -26 6 -70
8 -113 4 -47 -4 -99 -1 -160 10 -185 33 -605 59 -721 44 -38 -5 -112 -13 -164
-18 -52 -5 -108 -14 -123 -20 -16 -6 -43 -11 -60 -11 -105 -1 -331 -98 -430
-185 -25 -22 -66 -57 -91 -78 -47 -39 -114 -148 -194 -317 l-40 -85 -1 -160
c-1 -92 4 -177 10 -200 6 -22 15 -74 19 -115 6 -68 50 -254 66 -283 51 -92 93
-141 159 -181 38 -24 86 -51 107 -59 20 -8 67 -34 104 -56 47 -28 79 -41 105
-41 20 0 54 -8 75 -17 22 -9 62 -19 89 -22 l50 -6 -3 -35 c-4 -44 -21 -93 -68
-200 -23 -54 -42 -117 -51 -175 -7 -49 -17 -112 -21 -140 -4 -27 -12 -57 -17
-65 -5 -8 -12 -53 -16 -100 -4 -47 -12 -121 -18 -165 -11 -92 -8 -165 9 -285
17 -111 18 -216 3 -231 -10 -10 -22 -8 -53 6 -36 16 -47 17 -86 7 -25 -7 -51
-9 -57 -5 -6 4 -75 8 -152 8 -155 1 -287 17 -343 41 -90 39 -202 76 -263 89
-37 8 -100 31 -141 51 -40 20 -97 44 -127 55 -59 21 -134 73 -221 155 -31 28
-71 59 -90 69 -67 34 -176 113 -212 152 -19 22 -41 58 -48 79 -16 48 -116 198
-160 239 -17 17 -48 53 -68 80 -20 28 -63 79 -96 115 -32 36 -75 90 -95 121
-20 30 -53 75 -73 100 -41 49 -127 217 -152 294 -8 28 -27 106 -41 175 -13 69
-32 150 -40 180 -11 38 -17 113 -20 245 -3 139 -8 205 -20 244 -13 41 -15 73
-10 135 6 71 -18 397 -31 417 -2 4 1 67 6 140 5 74 14 249 20 389 14 358 32
451 103 536 13 16 36 52 50 81 36 70 252 288 314 315 25 11 68 33 95 49 28 17
100 52 162 80 61 27 127 58 146 69 45 24 149 60 172 60 10 0 36 11 56 24 21
13 63 31 93 39 30 8 85 27 122 41 37 14 80 26 94 26 25 0 56 6 223 45 64 15
324 37 345 29 6 -3 85 -9 176 -14 182 -10 246 -19 364 -54 59 -18 115 -25 210
-29 136 -6 188 -18 290 -69 28 -14 75 -33 105 -43 30 -10 60 -21 65 -25 6 -4
21 -11 35 -15 14 -4 50 -19 80 -33 67 -32 113 -40 295 -51 77 -5 194 -19 260
-31 66 -13 145 -26 175 -30 55 -8 218 -47 318 -76 29 -8 106 -19 170 -24 64
-5 140 -16 167 -24 76 -23 222 -36 280 -25 28 5 75 13 105 18 59 10 184 59
228 89 15 10 42 25 61 32 49 20 120 79 233 194 126 128 184 203 243 317 l47
90 -4 122 c-3 110 -6 128 -31 179 -55 113 -150 213 -242 257 -66 32 -123 45
-265 61 -52 6 -144 17 -204 25 -100 12 -117 12 -200 -5 -50 -9 -123 -23 -162
-29 -69 -10 -138 -40 -303 -130 -41 -23 -59 -28 -73 -20 -10 5 -18 14 -18 19
0 5 -13 25 -30 43 -16 19 -30 37 -30 41 0 3 -13 24 -29 47 -17 22 -39 69 -51
103 -22 66 -72 126 -122 145 -22 8 -31 6 -50 -9 l-23 -19 48 -93 c26 -51 47
-98 47 -104 0 -6 9 -19 21 -30 11 -10 27 -32 35 -49 8 -16 34 -55 59 -85 24
-30 44 -58 45 -63 0 -13 -107 -60 -123 -54 -25 10 -88 143 -92 195 -2 26 -4
50 -4 53 -2 14 -73 40 -91 34 -55 -17 -50 -108 13 -233 32 -65 39 -87 31 -100
-15 -24 -78 -38 -107 -25 -24 11 -77 108 -77 142 0 11 -9 43 -20 72 -15 38
-19 63 -14 99 5 40 3 51 -15 69 -63 63 -142 -34 -121 -149 4 -25 31 -98 60
-163 63 -142 62 -147 -48 -155 l-70 -5 -25 49 c-33 65 -66 192 -60 229 6 37
-23 68 -62 68 -34 0 -45 -12 -56 -59 -18 -81 -8 -154 37 -261 12 -30 12 -34
-6 -43 -26 -14 -63 -13 -85 3 -15 12 -17 24 -13 87 5 67 4 75 -18 97 -27 27
-79 31 -111 8 -19 -13 -21 -20 -12 -43 6 -15 8 -50 4 -79 -7 -59 -20 -68 -82
-58 -64 10 -69 24 -28 84 19 29 35 57 35 61 0 5 -12 18 -26 29 -46 36 -86 26
-114 -28 -25 -50 -44 -65 -75 -57 -40 10 -49 39 -26 90 17 39 17 47 5 65 -29
41 -52 45 -104 21 -34 -16 -57 -20 -76 -16 -31 8 -87 63 -78 77 3 5 45 7 97 3
118 -8 224 16 492 111 244 87 323 130 407 221 32 34 80 76 107 93 80 52 200
211 276 367 36 73 65 140 65 147 0 62 -46 104 -102 92 -35 -8 -84 -76 -93
-131 -14 -80 -171 -296 -269 -369 -36 -28 -75 -64 -85 -80 -27 -44 -133 -136
-150 -130 -16 6 -107 -18 -167 -45 -85 -39 -274 -110 -293 -110 -10 0 -37 -7
-60 -15 -55 -19 -195 -10 -231 15 -14 10 -61 37 -105 59 -84 44 -140 94 -150
134 -5 17 4 44 26 88 60 117 74 198 37 223 -33 23 -56 20 -90 -14 -54 -55 -56
-51 -53 178 2 214 21 379 50 450 9 20 23 68 32 106 23 102 56 184 102 253 22
34 48 79 57 100 44 102 55 123 90 172 80 109 167 201 213 223 25 12 66 37 90
55 24 18 52 33 61 33 9 0 37 15 61 33 53 40 256 141 319 158 104 28 293 31
380 4z m3804 -4340 c21 -14 56 -35 79 -46 39 -20 125 -100 197 -182 27 -32 34
-47 35 -90 1 -29 10 -77 19 -107 17 -59 20 -142 6 -205 -5 -22 -18 -89 -30
-150 -13 -60 -31 -129 -41 -153 -11 -23 -19 -51 -19 -62 0 -10 -28 -74 -62
-142 -46 -92 -76 -138 -121 -185 -57 -60 -171 -143 -195 -143 -6 0 -47 -12
-89 -27 -132 -45 -315 -68 -548 -68 l-170 0 -76 41 c-41 23 -102 51 -135 63
-32 12 -142 66 -244 118 -226 117 -308 158 -337 167 -12 4 -63 35 -115 69 -51
34 -129 80 -173 102 -44 23 -123 65 -175 94 -73 40 -111 54 -165 62 -108 15
-178 33 -182 46 -6 16 24 22 127 27 106 5 243 22 284 36 17 5 76 17 131 25 55
8 123 20 150 25 28 5 106 17 175 26 69 8 179 24 245 35 66 11 165 27 220 35
65 9 147 31 235 63 74 27 169 56 210 65 77 16 286 112 400 184 103 65 183 140
220 206 19 35 41 70 49 79 19 24 52 21 95 -8z m-3989 -704 c28 -5 102 -18 166
-29 167 -30 282 -35 469 -23 178 12 300 6 300 -14 0 -8 -38 -14 -125 -19 -104
-6 -143 -13 -229 -41 -125 -42 -189 -69 -227 -96 -15 -11 -60 -33 -98 -49 -38
-15 -98 -47 -133 -71 -88 -60 -308 -277 -315 -311 -3 -15 -13 -34 -22 -42 -43
-40 -58 -59 -125 -161 -39 -61 -84 -131 -99 -155 -15 -25 -41 -63 -57 -85 -70
-95 -221 -325 -234 -357 -20 -46 -36 -51 -88 -28 -24 11 -64 20 -91 20 -35 0
-71 11 -140 44 -50 24 -115 51 -144 60 -72 24 -126 77 -159 156 -31 76 -62
254 -69 390 -2 52 -7 122 -11 156 -6 58 -4 66 38 155 25 52 51 110 58 129 8
19 43 68 79 109 93 104 214 183 310 201 79 16 178 39 206 50 14 5 56 10 93 11
37 1 94 5 127 9 71 10 449 3 520 -9z m1204 -70 c36 -10 37 -28 1 -36 -34 -8
-168 13 -177 28 -11 19 23 27 86 21 36 -4 76 -10 90 -13z"/>
<path d="M5992 14608 c-38 -10 -62 -42 -62 -84 0 -44 17 -54 107 -66 53 -7 89
-17 113 -33 66 -45 252 -72 291 -42 24 18 39 52 39 86 0 42 -46 71 -115 71
-59 0 -172 22 -205 40 -39 21 -134 37 -168 28z"/>
<path d="M5525 14548 c-22 -5 -66 -11 -97 -13 -117 -7 -160 -64 -93 -124 38
-33 49 -35 180 -31 117 3 165 33 165 101 0 34 -5 42 -32 59 -35 21 -60 23
-123 8z"/>
<path d="M6073 14283 c-36 -7 -108 -87 -132 -145 l-22 -54 25 -56 c42 -95 102
-120 191 -79 36 16 43 26 60 75 19 56 19 58 1 104 -10 26 -21 64 -23 85 -4 30
-13 43 -37 58 -17 10 -33 18 -36 18 -3 -1 -15 -4 -27 -6z"/>
<path d="M5301 14168 c-32 -33 -35 -41 -46 -116 -12 -94 44 -180 109 -168 17
3 50 9 73 12 49 8 89 41 98 85 10 43 -30 158 -66 192 -24 22 -38 27 -83 27
-47 0 -57 -4 -85 -32z"/>
<path d="M6243 13638 c-34 -17 -36 -40 -8 -99 14 -30 25 -64 25 -77 0 -31 47
-92 71 -92 10 0 25 10 33 22 17 24 22 83 7 92 -4 3 -11 33 -14 67 -3 34 -11
68 -19 75 -19 19 -69 25 -95 12z"/>
<path d="M6013 13460 c-50 -22 -57 -51 -19 -81 13 -10 29 -33 36 -51 18 -46
60 -88 87 -88 13 0 29 10 39 25 17 26 17 26 -17 157 -16 60 -53 71 -126 38z"/>
<path d="M5282 13442 c-20 -20 -58 -246 -47 -281 3 -12 17 -29 31 -37 22 -15
26 -15 47 0 60 42 60 42 63 126 2 44 8 89 14 100 18 33 12 78 -12 94 -30 21
-74 20 -96 -2z"/>
<path d="M5531 13373 c-17 -15 -23 -37 -32 -121 -12 -112 -6 -184 16 -202 18
-15 56 -9 65 10 27 56 40 95 40 124 0 19 7 50 15 69 22 53 19 76 -16 108 -36
33 -58 36 -88 12z"/>
<path d="M5781 13373 c-15 -12 -25 -37 -31 -78 -11 -70 -8 -84 26 -109 42 -30
68 -11 93 70 11 37 21 75 21 85 0 45 -68 65 -109 32z"/>
<path d="M10574 5425 c-69 -34 -92 -62 -105 -128 -11 -53 -10 -60 15 -112 37
-74 86 -125 120 -125 45 0 65 18 97 88 28 61 30 75 27 154 -3 78 -6 90 -28
112 -37 37 -68 39 -126 11z"/>
<path d="M9839 5417 c-64 -27 -121 -68 -149 -108 -24 -33 -26 -101 -5 -151 17
-42 75 -95 112 -105 33 -8 214 50 238 77 35 38 6 143 -61 223 -13 16 -24 35
-24 42 0 13 -37 45 -50 45 -3 0 -30 -11 -61 -23z"/>
<path d="M10413 4943 c-52 -47 -152 -245 -140 -277 9 -23 47 -20 87 8 52 35
130 154 130 199 0 78 -34 109 -77 70z"/>
<path d="M9357 4839 c-80 -54 -120 -106 -133 -173 -5 -28 -2 -36 17 -50 57
-40 121 -9 159 77 10 23 39 62 64 87 61 59 60 89 -4 105 -20 5 -42 -5 -103
-46z"/>
<path d="M9873 4880 c-27 -11 -35 -37 -38 -125 -2 -38 -6 -94 -10 -122 -9 -60
3 -83 41 -83 17 0 30 12 51 47 25 43 28 57 29 152 1 89 -1 106 -17 122 -21 21
-25 22 -56 9z"/>
<path d="M9592 4769 c-57 -33 -60 -38 -88 -118 l-19 -53 28 -24 c50 -43 79
-32 147 57 21 28 25 42 22 93 -2 52 -12 76 -32 76 -3 0 -29 -14 -58 -31z"/>
<path d="M8521 3210 c-299 -42 -519 -218 -620 -497 -47 -127 -64 -238 -63
-408 1 -483 172 -772 512 -862 97 -26 328 -23 435 6 100 26 222 86 296 145
113 89 209 247 257 423 24 92 26 112 27 318 0 232 -5 273 -52 420 -37 117 -87
201 -167 280 -120 119 -253 172 -451 180 -60 2 -139 0 -174 -5z m243 -199
c264 -93 390 -344 373 -741 -10 -226 -58 -431 -122 -514 -73 -96 -176 -145
-325 -153 -309 -18 -513 131 -591 432 -55 211 -26 591 61 793 40 93 143 170
264 198 88 20 263 12 340 -15z"/>
<path d="M12705 3205 c-316 -51 -526 -256 -605 -588 -55 -229 -42 -555 29
-760 74 -212 222 -350 438 -409 112 -30 319 -30 460 0 120 26 317 93 343 117
17 16 17 20 3 68 -25 86 -24 86 -165 44 -281 -83 -455 -88 -608 -15 -67 32
-180 150 -217 228 -63 129 -77 212 -77 430 0 173 3 209 27 320 38 177 81 259
165 317 34 23 86 49 115 58 160 48 425 15 507 -64 23 -22 30 -43 45 -126 24
-137 30 -145 108 -145 36 0 70 5 79 13 22 17 55 362 37 384 -20 23 -115 68
-206 96 -145 46 -319 58 -478 32z"/>
<path d="M1453 3189 c-7 -7 -13 -37 -13 -66 0 -61 4 -64 103 -83 106 -21 97
47 97 -720 0 -767 9 -699 -97 -720 -99 -19 -103 -22 -103 -83 0 -29 5 -58 12
-65 17 -17 619 -17 636 0 7 7 12 36 12 65 0 62 -7 68 -95 78 -94 10 -111 15
-134 36 -20 19 -21 28 -21 243 0 167 3 226 13 234 6 5 73 12 147 15 153 6 207
19 324 80 230 119 355 390 305 663 -30 161 -133 264 -311 310 -85 22 -855 33
-875 13z m779 -184 c69 -25 143 -95 162 -153 24 -76 28 -131 17 -237 -19 -164
-70 -249 -180 -298 -38 -17 -73 -22 -199 -25 -112 -3 -156 -1 -167 8 -13 11
-15 63 -15 359 0 264 3 350 13 360 19 20 306 9 369 -14z"/>
<path d="M2692 3188 c-7 -7 -12 -36 -12 -65 0 -61 2 -62 103 -83 46 -9 67 -20
95 -49 23 -23 127 -202 280 -480 l242 -443 0 -205 c0 -116 -4 -212 -10 -223
-11 -20 -49 -35 -120 -45 -73 -12 -80 -19 -80 -78 0 -29 5 -58 12 -65 17 -17
589 -17 606 0 7 7 12 36 12 65 0 61 -5 65 -104 83 -36 6 -69 19 -83 32 -23 21
-23 25 -23 227 l0 206 256 455 c150 268 269 468 288 486 26 25 48 34 101 43
49 9 71 9 79 1 6 -6 12 -60 14 -128 2 -64 8 -123 14 -129 6 -8 34 -13 68 -13
34 0 62 5 68 13 5 6 13 52 17 101 6 75 12 93 31 113 22 22 28 23 207 23 146 0
187 -3 196 -14 9 -10 11 -190 9 -691 l-3 -677 -23 -19 c-13 -10 -40 -21 -60
-24 -20 -4 -55 -12 -77 -18 -40 -12 -40 -13 -43 -65 -2 -31 2 -60 9 -68 17
-21 581 -21 598 0 7 8 11 37 9 68 -3 52 -3 53 -43 65 -22 6 -57 14 -79 18 -21
3 -49 17 -62 30 l-24 24 0 674 c0 510 3 676 12 685 8 8 64 12 185 12 239 0
235 2 248 -150 4 -41 11 -81 17 -87 6 -8 34 -13 68 -13 34 0 62 5 67 13 6 6
13 96 17 198 5 151 4 189 -8 198 -18 16 -2014 15 -2033 -1 -8 -6 -13 -32 -13
-64 0 -62 7 -68 88 -78 69 -9 101 -24 108 -52 5 -18 -40 -111 -177 -369 -152
-289 -186 -345 -202 -343 -14 2 -70 95 -208 343 -104 187 -189 350 -189 362 0
31 37 52 101 60 82 9 89 15 89 76 0 29 -5 58 -12 65 -17 17 -609 17 -626 0z"/>
<path d="M5951 3186 c-7 -8 -11 -37 -9 -68 3 -52 3 -53 43 -65 22 -6 57 -14
78 -18 21 -3 47 -15 58 -26 18 -18 19 -39 19 -689 0 -650 -1 -671 -19 -689
-11 -11 -37 -23 -58 -26 -21 -4 -56 -12 -78 -18 -40 -12 -40 -13 -43 -65 -2
-31 2 -60 9 -68 16 -19 578 -21 597 -2 7 7 12 36 12 65 0 62 -7 67 -100 82
-41 7 -71 18 -87 32 l-23 22 0 302 c0 221 3 304 12 313 16 16 769 17 799 2 18
-10 19 -24 19 -310 0 -296 0 -299 -22 -325 -18 -19 -38 -28 -87 -36 -94 -15
-101 -20 -101 -82 0 -29 5 -58 12 -65 17 -17 569 -17 586 0 7 7 12 36 12 65 0
60 -5 65 -92 83 -32 6 -68 20 -80 30 l-23 18 0 672 0 672 23 18 c12 10 48 24
80 30 87 18 92 23 92 83 0 29 -5 58 -12 65 -9 9 -88 12 -293 12 -205 0 -284
-3 -293 -12 -7 -7 -12 -36 -12 -65 0 -62 7 -67 101 -82 49 -8 69 -17 87 -36
22 -26 22 -31 22 -279 0 -183 -3 -255 -12 -264 -17 -17 -789 -17 -806 0 -9 9
-12 82 -12 268 0 256 0 257 23 279 16 14 46 25 87 32 93 15 100 20 100 82 0
29 -5 58 -12 65 -19 19 -581 17 -597 -2z"/>
<path d="M9642 3188 c-7 -7 -12 -36 -12 -65 0 -60 8 -67 92 -78 26 -3 58 -15
72 -26 l26 -20 0 -675 c0 -654 -1 -675 -19 -693 -11 -11 -37 -23 -58 -26 -21
-4 -56 -12 -78 -18 -40 -12 -40 -13 -43 -65 -2 -31 2 -60 9 -68 17 -21 571
-21 588 0 7 8 11 37 9 68 -3 52 -3 53 -43 65 -22 6 -56 14 -76 17 -19 4 -45
15 -57 27 l-22 20 0 554 c0 533 1 555 19 555 13 0 126 -171 426 -642 224 -354
416 -651 427 -660 16 -14 39 -18 107 -18 54 0 92 5 99 12 9 9 12 196 12 779
l0 768 26 20 c14 11 46 23 72 26 92 11 97 14 100 74 2 30 -2 59 -9 67 -16 19
-558 21 -577 2 -7 -7 -12 -36 -12 -65 0 -60 8 -67 92 -78 26 -3 58 -15 72 -26
l26 -20 0 -560 c0 -552 0 -560 -20 -557 -14 2 -142 195 -430 648 -226 355
-419 651 -428 658 -22 17 -373 17 -390 0z"/>
<path d="M13701 3186 c-14 -17 -4 -364 12 -383 5 -8 33 -13 67 -13 75 0 86 13
93 115 5 70 9 83 32 103 26 22 28 22 369 22 266 0 346 -3 354 -13 8 -9 -113
-186 -484 -707 l-494 -695 0 -76 c0 -45 5 -80 12 -87 19 -19 1261 -17 1277 2
14 17 4 384 -12 404 -13 16 -131 16 -144 0 -6 -7 -13 -53 -17 -103 -6 -79 -10
-93 -32 -113 l-25 -22 -391 2 c-273 2 -392 6 -395 14 -2 6 209 310 468 675
260 365 480 678 491 694 21 35 26 163 6 183 -19 19 -1171 17 -1187 -2z"/>
<path d="M11611 1726 c-50 -18 -78 -57 -86 -118 -8 -65 10 -124 46 -151 59
-43 188 -30 234 25 21 25 25 40 25 99 0 81 -17 122 -60 144 -34 18 -111 18
-159 1z"/>
</g>
</svg>
