<?xml version="1.0" standalone="no"?>
<!DOCTYPE svg PUBLIC "-//W3C//DTD SVG 20010904//EN"
 "http://www.w3.org/TR/2001/REC-SVG-20010904/DTD/svg10.dtd">
<svg version="1.0" xmlns="http://www.w3.org/2000/svg"
 width="1092.586280pt" height="1132.022234pt" viewBox="0 0 1092.586280 1132.022234"
 preserveAspectRatio="xMidYMid meet">
<metadata>
Created by potrace 1.13, written by Peter Selinger 2001-2015
</metadata>
<g transform="translate(-59.810307,1179.745166) scale(0.100000,-0.100000)"
fill="#000000" stroke="none">
<path d="M4260 11784 c-143 -14 -241 -42 -359 -104 -31 -17 -62 -30 -68 -30
-7 0 -23 -10 -34 -21 -20 -20 -173 -119 -183 -119 -3 0 -31 -16 -63 -35 -84
-50 -221 -188 -249 -252 -13 -28 -31 -57 -41 -65 -25 -19 -103 -138 -103 -159
0 -6 -15 -37 -34 -68 -19 -31 -44 -81 -56 -111 -12 -30 -30 -74 -41 -96 -11
-23 -26 -73 -35 -110 -8 -38 -27 -103 -41 -144 -68 -199 -42 -753 43 -923 13
-27 24 -56 24 -66 0 -9 12 -33 26 -52 15 -19 37 -58 51 -86 17 -36 32 -55 48
-59 58 -14 21 -83 -56 -105 -34 -9 -71 -9 -169 0 l-125 12 -80 54 c-93 62
-121 90 -163 165 -24 42 -32 73 -38 133 -8 88 -27 122 -75 132 -62 14 -112
-53 -90 -124 22 -76 14 -92 -61 -105 -20 -4 -55 -22 -78 -41 -49 -41 -73 -50
-99 -36 -50 27 -101 -2 -86 -49 12 -38 56 -80 96 -90 53 -15 98 -5 161 36 29
19 59 34 68 34 17 0 94 -53 182 -127 31 -26 98 -70 147 -99 85 -48 97 -52 183
-60 140 -12 273 -5 322 17 58 26 80 24 145 -16 69 -43 131 -115 142 -164 13
-64 37 -116 54 -119 22 -5 64 24 77 54 14 30 32 30 69 0 38 -32 130 -66 204
-76 34 -4 84 -19 112 -34 43 -21 56 -24 81 -15 16 6 72 12 123 14 89 3 317 24
439 39 49 7 127 34 199 69 13 7 48 11 78 10 47 -2 56 0 76 23 32 38 88 71 170
101 74 26 97 39 157 84 38 28 165 82 220 94 19 4 44 15 55 25 28 25 218 46
260 30 17 -7 105 -16 196 -20 163 -8 168 -9 254 -47 73 -32 95 -47 131 -91 24
-30 44 -63 44 -74 0 -10 5 -29 12 -41 6 -12 11 -51 9 -86 -2 -56 -9 -78 -54
-164 -46 -88 -68 -116 -182 -232 -95 -96 -150 -144 -205 -176 -101 -59 -221
-102 -293 -105 -32 -1 -69 -5 -83 -8 -13 -4 -52 0 -86 8 -35 8 -117 24 -183
36 -145 26 -229 43 -355 69 -52 11 -135 23 -185 27 -49 3 -103 10 -120 15 -48
16 -229 39 -383 49 -150 10 -196 25 -277 85 -36 27 -130 67 -200 85 -27 6 -77
25 -110 40 -85 41 -181 57 -246 42 -78 -18 -158 -15 -201 8 -59 31 -185 49
-468 65 -269 15 -440 9 -500 -16 -14 -6 -56 -17 -95 -24 -99 -18 -195 -45
-220 -60 -11 -8 -42 -19 -70 -25 -75 -17 -105 -31 -116 -51 -7 -14 -21 -19
-54 -19 -43 0 -120 -23 -200 -60 -22 -10 -53 -21 -70 -25 -52 -10 -179 -68
-220 -100 -59 -45 -85 -61 -130 -75 -88 -28 -226 -156 -371 -345 -64 -83 -144
-271 -150 -350 -2 -22 -8 -69 -14 -105 -20 -123 -32 -205 -35 -242 -2 -20 -6
-41 -9 -47 -4 -6 -7 -149 -8 -319 -1 -228 2 -314 12 -331 10 -20 17 -192 12
-301 -2 -28 0 -61 16 -310 7 -96 16 -195 21 -220 5 -25 13 -63 16 -85 4 -22
15 -69 25 -105 10 -36 26 -101 35 -145 24 -113 104 -356 125 -380 10 -11 30
-40 45 -65 15 -25 51 -70 79 -100 29 -30 62 -75 74 -100 12 -25 61 -85 108
-135 48 -49 97 -106 109 -125 12 -19 30 -41 39 -49 9 -7 16 -23 16 -35 0 -13
11 -33 24 -45 14 -13 30 -37 37 -54 13 -34 54 -95 103 -153 15 -19 67 -60 115
-91 47 -31 113 -80 147 -109 74 -64 215 -151 349 -215 55 -26 116 -57 135 -67
59 -34 121 -59 215 -87 50 -15 115 -35 145 -45 127 -42 323 -70 486 -70 101 0
142 -4 164 -15 17 -9 40 -13 54 -9 19 4 28 0 42 -20 19 -31 16 -99 -11 -201
-10 -37 -16 -100 -16 -165 0 -58 0 -139 0 -180 -1 -136 -1 -154 8 -276 8 -115
11 -125 55 -216 25 -52 49 -117 53 -145 3 -27 16 -65 28 -84 12 -20 31 -51 42
-69 11 -18 36 -51 55 -73 21 -24 34 -48 32 -61 -2 -16 15 -37 64 -80 37 -32
84 -79 103 -104 58 -75 142 -151 201 -182 30 -15 71 -45 90 -64 36 -38 71 -51
195 -75 33 -7 96 -22 140 -34 65 -18 115 -22 270 -25 331 -7 358 -6 480 11 66
9 154 20 195 23 41 4 86 12 100 19 33 17 284 30 330 18 22 -6 65 -6 115 0 84
10 91 9 244 -39 62 -19 162 -86 251 -166 41 -37 109 -91 150 -120 69 -47 113
-73 256 -148 27 -14 72 -43 98 -63 26 -19 69 -43 96 -52 29 -10 72 -37 108
-69 35 -31 94 -69 148 -94 49 -23 111 -54 138 -68 40 -21 67 -27 150 -31 56
-2 133 -8 172 -13 75 -8 155 1 224 25 23 8 57 15 74 15 36 0 264 75 383 126
46 19 113 54 150 76 96 58 289 264 356 380 34 58 62 64 70 15 3 -19 22 -59 41
-90 40 -62 62 -70 106 -41 64 43 65 75 5 145 -25 29 -45 60 -45 68 0 9 -7 29
-15 45 -21 39 -19 52 18 122 120 228 202 405 210 449 26 156 34 286 35 519 0
194 3 260 13 272 19 23 76 44 121 44 21 0 67 9 101 21 71 24 146 22 176 -5 10
-9 24 -34 31 -57 8 -22 26 -49 42 -60 18 -13 28 -29 28 -45 0 -14 6 -37 14
-52 7 -15 16 -44 20 -65 12 -67 76 -85 135 -36 23 19 24 23 18 103 -4 45 -10
97 -13 114 -6 30 -4 33 32 48 85 34 180 83 198 103 23 26 16 56 -24 99 -40 42
-70 41 -134 -3 -28 -19 -73 -41 -100 -49 -48 -15 -51 -14 -110 13 -123 57
-135 61 -193 61 -32 0 -85 -7 -118 -14 -33 -8 -85 -17 -115 -21 -30 -4 -73
-14 -95 -22 -39 -14 -41 -13 -62 12 -12 14 -28 44 -35 68 -6 23 -24 60 -39 82
-14 22 -39 65 -54 95 -15 30 -53 88 -84 129 -31 40 -64 85 -73 99 -63 95 -186
180 -292 201 -99 21 -291 74 -311 87 -37 24 -137 55 -240 74 -55 10 -133 26
-173 35 -96 20 -309 24 -382 7 -30 -8 -79 -25 -108 -38 -29 -13 -62 -24 -74
-24 -29 0 -257 -97 -283 -120 -11 -10 -60 -34 -110 -53 -49 -20 -103 -42 -120
-51 -16 -9 -36 -16 -42 -16 -19 0 -234 -94 -278 -122 -52 -32 -144 -70 -154
-64 -4 3 -21 -4 -39 -14 -44 -27 -267 -81 -397 -96 -311 -37 -339 -38 -422
-20 -210 48 -259 72 -317 160 -20 30 -50 63 -69 73 -22 14 -43 41 -65 85 -47
97 -45 190 10 371 18 60 30 78 115 170 52 56 127 152 167 212 40 61 86 119
102 130 16 10 47 33 69 52 97 81 232 186 255 198 87 45 283 115 323 115 24 0
58 5 75 11 36 12 155 -11 208 -41 17 -10 48 -23 70 -30 69 -23 141 -70 231
-151 83 -75 144 -109 196 -109 10 0 51 -11 90 -24 40 -13 99 -31 132 -40 33
-9 84 -28 113 -42 29 -13 69 -24 90 -24 46 -1 156 -47 219 -92 107 -77 531
-200 738 -214 50 -3 119 -15 155 -27 51 -16 96 -21 205 -22 122 -2 146 -6 190
-26 44 -20 68 -23 190 -26 77 -1 163 -7 190 -12 28 -5 91 -8 140 -6 59 2 105
-1 135 -11 113 -35 473 -32 623 6 95 24 187 67 249 117 26 21 71 53 100 71 75
46 267 237 325 322 9 14 25 31 35 38 10 7 39 43 65 80 26 37 61 85 79 107 17
22 61 94 96 160 36 66 73 134 82 150 38 70 96 200 96 215 0 24 30 103 45 120
14 15 42 114 64 225 13 63 58 226 93 335 56 172 72 368 57 705 -5 94 -13 206
-18 250 -5 44 -12 114 -14 155 -4 69 -15 105 -52 170 -8 14 -15 45 -15 70 0
43 -16 120 -38 185 -10 30 -38 124 -53 180 -22 82 -31 146 -26 175 13 61 -67
220 -163 325 -15 17 -37 48 -48 70 -11 22 -30 49 -42 60 -12 11 -34 40 -48 65
-23 41 -62 89 -144 176 -16 18 -61 49 -101 70 -40 20 -88 49 -107 64 -68 52
-276 188 -340 223 -36 19 -87 38 -115 41 -27 4 -109 27 -181 52 -72 24 -190
57 -262 74 -73 16 -151 39 -174 51 -33 17 -70 24 -163 30 -66 4 -154 12 -196
18 -75 10 -264 6 -304 -5 -57 -17 -69 -60 -32 -115 36 -54 63 -62 138 -43 84
22 411 13 480 -12 24 -9 103 -26 174 -39 153 -28 274 -59 330 -84 23 -11 61
-24 85 -31 134 -35 258 -89 316 -139 56 -47 158 -117 213 -147 65 -34 220
-176 273 -248 20 -28 60 -90 88 -138 28 -48 56 -90 61 -94 10 -6 46 -58 86
-123 13 -20 23 -51 23 -69 0 -18 6 -45 13 -60 8 -15 22 -72 31 -127 10 -55 24
-128 32 -162 8 -34 14 -75 14 -90 0 -28 35 -144 85 -283 21 -57 29 -98 31
-173 3 -54 9 -119 14 -143 12 -51 15 -510 5 -624 -7 -86 -22 -160 -40 -210 -8
-19 -16 -48 -20 -64 -3 -16 -19 -48 -35 -70 -22 -31 -31 -60 -39 -121 -5 -44
-17 -102 -25 -130 -8 -27 -22 -77 -31 -110 -9 -33 -26 -74 -36 -91 -10 -17
-19 -41 -19 -53 0 -33 -30 -119 -46 -132 -8 -6 -14 -19 -14 -27 0 -15 -8 -29
-66 -116 -60 -89 -76 -116 -104 -166 -31 -55 -76 -128 -117 -190 -22 -33 -148
-173 -234 -259 -25 -25 -57 -62 -72 -81 -14 -19 -54 -52 -89 -73 -244 -149
-284 -162 -516 -176 -143 -8 -318 -1 -343 14 -6 5 -71 9 -144 10 -73 2 -141 7
-151 13 -11 5 -82 12 -159 15 -119 4 -148 8 -190 28 -44 21 -65 24 -190 24
-131 1 -145 3 -220 32 -59 22 -112 33 -200 42 -66 7 -147 21 -180 31 -83 24
-151 40 -178 40 -12 0 -34 6 -48 14 -14 7 -39 16 -55 20 -52 12 -158 59 -200
89 -40 28 -120 60 -229 94 -27 8 -104 33 -170 55 -160 52 -243 77 -285 83 -22
3 -62 26 -105 59 -124 96 -202 146 -261 166 -32 11 -67 26 -78 33 -41 26 -105
46 -187 58 -118 17 -190 13 -294 -17 -96 -27 -267 -112 -300 -149 -39 -42
-191 -172 -256 -218 -65 -45 -155 -140 -193 -202 -26 -42 -121 -161 -172 -215
-61 -65 -112 -165 -129 -251 -8 -41 -22 -96 -31 -122 -27 -78 -15 -233 23
-317 17 -36 37 -71 46 -79 10 -7 17 -20 17 -28 0 -8 14 -28 30 -43 17 -15 47
-51 68 -79 82 -109 148 -137 403 -172 179 -25 141 -26 489 11 105 11 243 36
267 48 10 5 52 18 93 28 90 21 232 80 291 121 24 17 69 36 99 43 89 21 233 70
260 89 14 9 54 30 90 45 36 16 86 41 111 57 25 16 53 29 63 29 9 0 46 18 82
39 36 22 80 43 97 46 18 4 68 18 111 32 76 24 87 25 250 20 171 -5 182 -7 440
-68 27 -7 73 -23 102 -36 29 -13 99 -35 156 -49 163 -40 210 -68 342 -204 98
-101 119 -129 156 -206 23 -49 53 -111 66 -137 12 -27 20 -55 18 -62 -6 -15
-74 -45 -103 -45 -10 0 -51 11 -91 24 -75 24 -97 43 -142 124 -17 32 -131 93
-200 107 -18 4 -55 20 -83 35 l-50 27 -131 -11 c-85 -7 -139 -16 -155 -27 -39
-25 -156 -74 -269 -112 -204 -70 -276 -99 -408 -164 -157 -78 -268 -163 -356
-273 -33 -41 -97 -112 -143 -157 -84 -82 -92 -98 -73 -147 11 -29 69 -50 103
-36 12 4 81 68 152 140 72 73 150 146 175 163 25 17 72 53 104 79 33 26 65 48
70 48 6 0 63 26 126 58 63 32 142 66 175 75 33 10 75 25 93 33 50 21 78 18
100 -13 22 -31 115 -90 147 -94 35 -4 139 12 155 24 9 7 25 37 36 66 37 98 67
95 119 -12 19 -41 43 -81 52 -88 9 -8 43 -17 77 -21 34 -4 80 -10 102 -14 31
-4 49 -1 68 12 24 15 33 16 83 4 95 -23 207 -106 238 -177 8 -17 29 -42 46
-56 l31 -24 3 -124 c3 -159 -16 -255 -84 -414 -28 -66 -58 -133 -66 -148 -8
-16 -15 -37 -15 -46 0 -10 -8 -29 -19 -42 -10 -13 -30 -46 -45 -74 -83 -157
-91 -164 -145 -124 -23 17 -33 19 -49 10 -48 -25 -83 -119 -86 -225 -1 -46 -4
-51 -66 -108 -36 -33 -84 -73 -107 -89 -64 -44 -328 -159 -365 -159 -9 0 -54
-9 -100 -21 -46 -11 -103 -25 -128 -31 -25 -5 -58 -13 -75 -16 -35 -9 -277 3
-350 16 -87 16 -331 144 -375 197 -7 9 -36 28 -63 42 -28 14 -86 48 -131 77
-94 61 -161 102 -266 162 -41 24 -108 72 -148 106 -99 84 -220 175 -258 193
-18 8 -74 26 -125 40 -88 23 -107 24 -289 21 -190 -3 -356 -18 -570 -51 -109
-17 -303 -38 -355 -38 -16 0 -95 2 -175 5 -148 6 -216 16 -286 41 -21 8 -68
20 -103 26 -62 12 -193 69 -206 91 -3 5 -50 41 -103 80 -53 39 -115 93 -137
121 -22 28 -69 81 -104 119 -35 38 -73 91 -86 117 -12 26 -39 75 -60 108 -70
108 -95 170 -95 233 0 39 -6 66 -19 86 -16 24 -18 41 -14 115 9 134 6 202 -11
249 -17 48 -9 165 18 242 10 30 12 49 5 62 -7 12 -6 25 2 39 7 15 9 49 4 105
-4 50 -3 97 4 116 20 64 20 141 0 233 -11 49 -20 124 -20 165 0 186 1 192 23
229 12 19 25 55 29 80 4 26 12 80 18 121 6 41 13 111 15 155 6 96 14 129 56
220 35 74 63 157 75 215 4 19 17 55 30 80 12 25 29 65 36 89 7 24 37 76 66
115 29 39 64 94 78 122 14 28 41 71 60 95 19 24 35 48 35 53 0 5 11 24 25 42
14 18 25 35 25 39 0 8 83 133 113 170 14 17 50 63 80 104 56 73 189 215 263
280 22 19 80 53 129 76 50 23 131 61 180 84 50 23 102 48 116 56 43 24 149 45
223 45 39 0 96 5 128 12 50 10 73 9 170 -8 77 -14 124 -18 152 -13 69 14 164
10 306 -12 74 -11 149 -23 167 -25 17 -3 54 -23 82 -45 28 -23 74 -50 102 -60
48 -19 212 -122 274 -173 17 -14 118 -66 225 -117 107 -50 213 -101 235 -114
22 -13 83 -40 135 -60 52 -19 120 -51 151 -70 31 -19 77 -39 104 -45 46 -10
424 -16 475 -7 14 2 50 7 80 11 132 18 364 93 420 135 19 15 51 37 70 49 78
47 200 198 215 267 4 17 29 71 56 121 51 96 99 230 99 276 0 15 5 39 11 55 28
72 36 134 34 249 -2 67 -6 130 -9 141 -3 11 -8 42 -10 69 -7 75 -25 160 -45
205 -19 41 -158 192 -196 211 -11 6 -50 30 -86 54 -37 24 -83 51 -102 59 -20
8 -38 19 -42 24 -6 11 33 79 58 99 8 7 21 27 28 45 7 18 43 79 81 135 77 118
89 153 93 272 4 101 19 170 52 227 23 39 24 48 17 141 -5 71 -3 110 7 138 7
21 14 95 16 164 4 179 8 210 28 258 14 35 15 48 6 68 -8 19 -9 63 -1 167 5 78
12 167 14 198 2 32 0 90 -6 130 -5 41 -11 100 -14 132 -2 32 -8 67 -14 77 -5
10 -10 37 -10 59 0 50 -33 222 -53 276 -49 131 -57 156 -57 170 0 8 -18 53
-39 99 -21 46 -44 101 -51 123 -25 75 -53 119 -116 183 -36 36 -109 115 -161
175 -117 133 -159 167 -243 195 -99 34 -179 44 -370 47 -96 2 -258 4 -360 6
-161 3 -191 1 -228 -15 -46 -19 -254 -52 -312 -50 -19 1 -86 -5 -148 -14 -124
-17 -184 -11 -250 27 -18 10 -54 24 -80 31 -26 6 -78 28 -117 48 -46 24 -90
39 -128 44 -64 7 -184 46 -219 70 -12 9 -35 16 -50 16 -46 0 -113 38 -177 100
-33 33 -76 66 -96 74 -19 8 -35 19 -35 25 0 5 -37 34 -82 65 -46 31 -107 74
-137 96 -29 21 -76 46 -105 55 -28 9 -121 38 -206 65 -167 52 -274 80 -312 80
-12 0 -47 9 -76 20 -59 22 -57 22 -242 4z m260 -171 c14 -7 39 -13 56 -13 18
0 51 -9 75 -20 24 -11 58 -20 74 -20 17 0 42 -7 58 -14 31 -17 139 -46 168
-46 10 0 19 -3 19 -8 0 -10 51 -36 116 -60 28 -10 72 -33 97 -50 25 -18 49
-32 54 -32 5 0 37 -26 73 -58 36 -32 85 -72 110 -90 25 -17 69 -54 99 -82 63
-60 97 -76 183 -85 56 -6 89 -17 155 -54 10 -6 61 -24 113 -40 164 -52 242
-81 276 -102 18 -11 69 -29 114 -40 78 -20 92 -20 269 -9 102 6 229 20 281 30
52 10 115 22 140 26 37 7 297 14 545 15 174 1 313 -22 404 -66 62 -30 151
-119 216 -216 24 -36 64 -88 89 -116 47 -52 106 -167 106 -206 0 -13 4 -27 9
-33 4 -5 14 -31 20 -59 7 -27 25 -73 41 -101 34 -60 55 -137 69 -249 14 -110
22 -148 34 -163 14 -17 18 -301 6 -382 -6 -36 -12 -158 -14 -271 -4 -202 -5
-208 -30 -244 -23 -35 -25 -47 -25 -146 0 -59 -5 -120 -11 -136 -6 -15 -15
-79 -20 -141 -5 -63 -13 -130 -19 -150 -5 -21 -10 -73 -10 -117 -1 -82 -16
-143 -44 -174 -9 -10 -16 -29 -16 -43 0 -13 -11 -35 -26 -49 -14 -13 -38 -47
-55 -75 -16 -28 -58 -93 -94 -143 -36 -51 -68 -104 -71 -119 -4 -15 -29 -65
-55 -112 -72 -125 -162 -195 -339 -260 -46 -17 -89 -35 -95 -39 -20 -17 -219
-91 -242 -91 -13 0 -43 -8 -66 -18 -101 -45 -158 -63 -242 -76 -49 -8 -103
-19 -118 -25 -16 -6 -51 -11 -79 -11 -32 0 -62 -7 -82 -19 -35 -21 -102 -33
-189 -32 -33 0 -68 -4 -78 -10 -33 -17 -320 -61 -594 -91 -122 -14 -334 -12
-433 4 -42 6 -121 9 -187 5 -63 -3 -129 -2 -147 3 -18 5 -53 14 -76 20 -44 11
-47 11 -191 -21 -30 -7 -62 -6 -103 2 -45 9 -72 9 -112 0 -36 -8 -61 -8 -81
-1 -44 14 -181 33 -255 35 -36 0 -83 7 -105 14 -72 23 -638 2 -706 -27 -14 -5
-52 -13 -85 -17 -73 -8 -169 -37 -232 -68 -93 -47 -162 -89 -174 -106 -7 -9
-34 -32 -60 -49 -69 -47 -100 -91 -191 -267 l-82 -160 -2 -145 c-1 -80 3 -172
8 -205 6 -33 14 -91 18 -130 18 -158 79 -324 150 -409 21 -25 136 -98 186
-118 22 -9 67 -32 99 -52 33 -20 75 -38 95 -41 20 -3 66 -15 103 -26 37 -12
74 -19 82 -16 34 13 48 -3 41 -47 -7 -44 -42 -142 -77 -216 -12 -25 -25 -65
-29 -90 -4 -25 -14 -88 -22 -140 -9 -53 -21 -109 -28 -125 -27 -68 -45 -401
-29 -535 17 -134 18 -236 2 -252 -10 -10 -19 -10 -45 1 -17 8 -47 14 -64 13
-64 -3 -88 -3 -118 -1 -16 1 -71 -1 -122 -4 -50 -3 -107 -2 -125 4 -18 5 -65
14 -103 19 -39 5 -125 29 -190 54 -66 24 -150 51 -186 60 -36 8 -101 31 -145
52 -43 20 -105 47 -137 60 -56 22 -159 95 -222 157 -16 16 -41 36 -55 45 -205
130 -243 164 -290 262 -37 79 -97 167 -167 246 -153 172 -251 293 -276 339 -8
17 -27 41 -41 55 -48 44 -176 327 -176 387 0 22 -25 142 -53 248 -17 65 -21
115 -23 265 -1 140 -6 196 -18 232 -12 33 -16 76 -14 150 2 110 -7 265 -21
363 -5 33 -5 131 0 220 4 88 13 268 19 400 14 310 36 419 100 490 10 11 29 41
43 67 30 57 81 122 127 162 19 17 60 56 90 87 49 50 84 71 305 181 138 69 288
137 335 152 47 16 106 39 131 52 26 13 56 24 67 24 11 0 56 14 99 30 43 17
107 35 143 40 102 15 169 28 180 35 19 12 205 30 300 29 266 -1 484 -28 624
-76 48 -17 73 -19 131 -15 103 9 275 -30 349 -78 12 -8 47 -22 77 -31 53 -15
72 -23 192 -79 72 -33 133 -44 317 -54 80 -5 152 -11 160 -14 8 -4 83 -16 165
-28 83 -11 184 -32 225 -45 41 -13 87 -24 102 -24 15 0 51 -9 81 -20 34 -13
99 -24 178 -30 68 -5 144 -17 169 -26 62 -22 254 -31 328 -14 94 21 235 69
272 94 20 13 60 36 89 51 35 17 101 73 192 162 140 137 215 234 278 360 29 58
31 69 31 170 -1 133 -16 182 -89 278 -121 160 -184 197 -376 224 -214 30 -385
42 -452 32 -37 -6 -102 -16 -142 -21 -86 -13 -189 -53 -313 -122 -73 -41 -91
-47 -108 -38 -11 6 -20 15 -20 20 0 4 -19 31 -43 59 -48 55 -89 133 -106 197
-22 84 -134 154 -172 108 -11 -13 -5 -31 40 -120 29 -57 64 -113 77 -123 14
-11 24 -29 24 -45 0 -16 9 -31 25 -42 27 -18 78 -101 69 -115 -10 -17 -99 -50
-120 -45 -27 7 -83 129 -91 197 -6 52 -23 74 -65 84 -20 5 -32 1 -48 -15 -19
-19 -20 -28 -14 -78 4 -35 22 -87 45 -134 22 -43 39 -87 39 -98 0 -24 -35 -40
-86 -40 -30 0 -38 6 -64 48 -17 26 -32 58 -35 72 -3 14 -13 50 -23 80 -9 30
-17 81 -17 114 0 52 -3 61 -27 79 -23 17 -32 19 -52 9 -63 -29 -71 -149 -17
-267 67 -147 76 -174 60 -190 -8 -9 -44 -20 -79 -26 -56 -9 -65 -8 -80 8 -31
32 -82 174 -87 243 -3 36 -10 71 -16 78 -11 14 -55 16 -76 3 -15 -10 -30 -76
-31 -136 0 -39 28 -139 51 -178 15 -27 -6 -47 -51 -47 -65 0 -78 35 -54 147 9
44 -62 85 -115 67 -25 -9 -26 -12 -26 -98 0 -82 -2 -90 -22 -99 -26 -12 -112
9 -120 29 -2 7 13 38 33 69 l38 57 -27 24 c-50 43 -91 25 -131 -53 -31 -62
-113 -32 -100 36 4 17 11 34 15 37 17 10 9 53 -13 68 -30 21 -60 20 -104 -3
-43 -23 -77 -15 -119 29 -38 40 -29 64 22 53 64 -13 194 -6 268 15 197 56 394
127 516 186 80 39 106 58 149 107 29 33 83 80 120 105 46 30 79 61 100 94 17
27 35 50 39 52 33 13 211 332 211 377 0 9 -9 31 -20 49 -17 27 -25 32 -60 32
-57 0 -99 -47 -114 -130 -6 -35 -39 -94 -108 -193 -64 -93 -93 -126 -156 -172
-34 -26 -70 -59 -80 -73 -20 -30 -143 -152 -154 -152 -4 0 -9 4 -12 9 -12 18
-87 -8 -346 -119 -127 -55 -317 -76 -378 -43 -17 10 -70 38 -117 62 -93 49
-165 116 -165 153 0 13 12 46 26 73 33 66 64 158 64 189 0 16 -9 32 -25 42
-21 14 -30 14 -56 4 -17 -7 -37 -24 -46 -37 -8 -12 -22 -23 -30 -23 -12 0 -14
15 -13 78 1 42 1 136 1 209 -1 72 3 142 8 155 5 13 12 57 16 98 4 41 18 104
31 139 13 35 24 75 24 90 1 14 7 42 14 61 8 19 22 58 32 85 11 28 27 61 37 75
34 48 87 143 87 157 0 17 46 109 59 117 5 3 35 45 68 92 32 47 67 99 78 114
11 16 29 32 40 35 47 15 112 49 143 76 18 16 41 29 51 29 10 0 42 16 71 36 29
20 77 47 107 60 29 13 70 35 91 48 20 14 63 32 95 40 31 8 62 18 68 21 5 4 63
9 127 12 64 3 118 6 120 8 5 5 44 -7 72 -22z m-690 -2823 c0 -5 -5 -10 -11
-10 -5 0 -7 5 -4 10 3 6 8 10 11 10 2 0 4 -4 4 -10z m4509 -1518 c25 -16 67
-41 92 -55 26 -15 87 -70 138 -123 88 -93 91 -98 85 -133 -4 -24 0 -51 11 -77
28 -66 30 -194 5 -304 -12 -52 -26 -122 -32 -155 -5 -33 -18 -78 -29 -100 -10
-22 -19 -48 -19 -59 0 -10 -15 -48 -34 -85 -18 -36 -45 -91 -60 -121 -32 -67
-149 -189 -220 -229 -74 -43 -318 -111 -395 -111 -21 0 -63 -5 -92 -11 -30 -5
-126 -10 -214 -10 l-160 0 -79 42 c-44 22 -127 61 -185 86 -58 25 -144 65
-191 90 -47 25 -130 69 -185 99 -55 29 -120 60 -145 70 -25 10 -85 44 -134 77
-49 33 -122 75 -163 93 -40 19 -86 42 -101 52 -97 67 -179 103 -253 113 -41 5
-101 16 -133 24 -31 8 -59 15 -61 15 -3 0 -5 6 -5 14 0 10 29 15 127 21 136 8
250 23 378 49 186 39 227 46 360 62 77 8 207 27 288 40 82 14 182 29 223 34
42 5 134 31 212 59 75 27 170 56 210 65 63 14 228 85 265 113 6 6 26 15 44 21
38 13 134 76 220 147 49 40 69 65 97 122 31 65 55 92 80 93 5 0 30 -13 55 -28z
m-4069 -702 c58 -6 125 -14 150 -20 210 -44 230 -45 735 -41 236 1 327 -2 383
-13 76 -14 91 -21 78 -33 -12 -13 -156 -8 -215 7 -74 18 -308 6 -412 -21 -98
-25 -243 -83 -283 -114 -17 -12 -63 -36 -102 -52 -108 -45 -178 -96 -311 -227
-92 -91 -124 -129 -129 -154 -4 -20 -18 -41 -36 -53 -16 -12 -63 -73 -105
-138 -97 -148 -178 -269 -201 -301 -51 -68 -162 -241 -185 -287 -15 -28 -31
-54 -36 -58 -6 -3 -37 4 -70 15 -33 11 -79 20 -102 20 -27 0 -59 10 -93 29
-28 16 -84 41 -124 55 -137 49 -164 73 -211 187 -37 90 -57 209 -72 439 l-11
165 35 70 c20 39 45 96 57 128 41 110 221 271 345 310 95 30 162 47 184 47 12
0 38 7 58 15 20 9 79 18 132 21 221 14 397 21 416 18 11 -3 67 -9 125 -14z
m1480 -95 c0 -9 -6 -12 -15 -9 -8 4 -15 10 -15 15 0 5 7 9 15 9 8 0 15 -7 15
-15z"/>
<path d="M4042 11030 c-24 -10 -42 -46 -42 -85 0 -40 41 -52 185 -55 11 0 25
-10 30 -22 12 -26 110 -55 215 -64 57 -5 68 -3 87 15 46 44 42 111 -8 137 -18
9 -43 14 -58 11 -32 -7 -153 17 -248 49 -75 25 -122 29 -161 14z"/>
<path d="M3590 10975 c-30 -8 -73 -14 -95 -13 -61 1 -125 -33 -125 -65 0 -9
13 -31 29 -49 28 -32 31 -32 129 -36 154 -6 222 24 222 100 0 32 -5 41 -32 58
-38 23 -52 23 -128 5z"/>
<path d="M4075 10658 c-69 -69 -84 -118 -60 -195 23 -72 64 -107 120 -101 77
9 108 32 128 93 18 54 18 57 -2 111 -12 30 -21 68 -21 84 0 36 -32 60 -79 60
-28 0 -44 -10 -86 -52z"/>
<path d="M3398 10620 c-34 -21 -63 -74 -66 -125 -7 -110 2 -137 52 -170 22
-15 31 -15 96 -1 119 24 147 72 109 181 -29 82 -35 93 -69 110 -33 17 -96 19
-122 5z"/>
<path d="M4313 10068 c-34 -16 -36 -40 -8 -99 14 -30 25 -64 25 -77 0 -30 47
-92 70 -92 40 0 63 74 35 116 -9 14 -14 32 -11 41 10 25 -13 91 -37 108 -25
17 -43 18 -74 3z"/>
<path d="M4066 9875 c-31 -29 -32 -36 -5 -61 12 -10 32 -40 45 -66 25 -49 57
-78 85 -78 22 0 52 47 44 68 -3 9 -11 39 -16 66 -14 76 -31 96 -83 96 -32 0
-50 -6 -70 -25z"/>
<path d="M3357 9870 c-19 -15 -26 -32 -30 -72 -3 -29 -11 -86 -17 -126 -12
-83 -4 -108 36 -118 19 -5 34 1 61 23 36 29 37 30 40 112 1 45 7 90 13 101 16
30 12 58 -12 80 -28 25 -58 26 -91 0z"/>
<path d="M3601 9803 c-37 -31 -51 -279 -19 -320 6 -7 21 -13 34 -13 33 0 56
46 75 150 5 30 12 70 15 87 10 51 -2 79 -40 97 -42 20 -39 20 -65 -1z"/>
<path d="M3862 9813 c-19 -8 -42 -58 -36 -80 3 -12 1 -30 -5 -42 -21 -39 26
-89 73 -77 18 4 27 21 45 82 20 70 21 78 6 100 -15 23 -50 30 -83 17z"/>
<path d="M7907 1845 c-144 -59 -195 -148 -148 -257 27 -63 72 -98 125 -98 48
0 193 45 219 67 29 27 22 86 -20 159 -21 36 -47 81 -58 101 -28 50 -50 55
-118 28z"/>
<path d="M8635 1848 c-60 -31 -85 -58 -85 -90 0 -16 -5 -38 -11 -49 -14 -27 1
-71 51 -148 45 -70 73 -83 126 -58 22 11 36 26 40 44 4 15 15 45 25 65 21 42
25 131 9 190 -19 68 -79 86 -155 46z"/>
<path d="M8498 1379 c-24 -13 -105 -140 -135 -211 -28 -65 -25 -88 11 -88 34
0 87 49 143 131 43 65 45 72 39 116 -8 58 -24 72 -58 52z"/>
<path d="M7425 1266 c-136 -96 -169 -236 -56 -236 39 0 74 33 101 93 10 23 35
58 55 77 53 51 60 68 39 91 -28 31 -72 23 -139 -25z"/>
<path d="M7928 1293 c-11 -12 -18 -47 -22 -103 -3 -47 -8 -104 -12 -126 -13
-89 48 -118 88 -41 12 23 24 56 26 72 8 60 2 188 -9 201 -16 19 -53 17 -71 -3z"/>
<path d="M7680 1208 c-56 -32 -78 -58 -100 -116 -24 -62 -22 -74 14 -98 39
-25 70 -11 116 51 35 48 40 61 40 109 0 69 -18 83 -70 54z"/>
</g>
</svg>
