<?xml version="1.0" standalone="no"?>
<!DOCTYPE svg PUBLIC "-//W3C//DTD SVG 20010904//EN"
 "http://www.w3.org/TR/2001/REC-SVG-20010904/DTD/svg10.dtd">
<svg version="1.0" xmlns="http://www.w3.org/2000/svg"
 width="1603.638133pt" height="1357.363020pt" viewBox="0 0 1603.638133 1357.363020"
 preserveAspectRatio="xMidYMid meet">
<metadata>
Created by potrace 1.13, written by Peter Selinger 2001-2015
</metadata>
<g transform="translate(-66.000000,1568.630429) scale(0.100000,-0.100000)"
fill="#000000" stroke="none">
<path d="M8960 15680 c-134 -10 -215 -27 -292 -61 -36 -16 -74 -29 -83 -29 -9
0 -37 -9 -63 -19 -26 -11 -63 -22 -82 -25 -19 -3 -63 -19 -97 -35 -68 -33
-319 -214 -370 -267 -32 -34 -103 -135 -103 -148 0 -3 -29 -66 -64 -138 -35
-73 -66 -146 -69 -163 -6 -29 -15 -68 -38 -157 -6 -24 -16 -83 -22 -132 -11
-87 -6 -139 31 -381 13 -78 70 -239 128 -362 30 -62 54 -119 54 -128 0 -20
103 -128 149 -157 45 -28 159 -137 166 -158 8 -24 163 -97 247 -116 100 -23
118 -43 118 -131 0 -37 -7 -93 -15 -123 -8 -30 -15 -69 -15 -86 0 -17 -12 -49
-26 -70 -40 -58 -64 -121 -64 -164 0 -25 -14 -67 -39 -117 -31 -61 -49 -85
-86 -111 -45 -32 -47 -35 -40 -70 7 -43 33 -82 64 -98 37 -19 77 4 124 70 23
32 56 75 72 95 17 20 39 48 48 64 10 15 26 27 39 27 27 0 128 -86 128 -109 0
-10 9 -30 20 -44 11 -14 32 -49 47 -78 50 -96 113 -104 160 -19 l25 44 -57
112 c-34 68 -72 127 -97 150 -22 22 -53 66 -70 99 -38 74 -54 93 -96 111 l-34
14 6 57 c8 65 23 138 41 198 12 39 13 40 56 38 89 -3 275 -22 308 -32 18 -6
90 -11 160 -12 106 -1 133 -5 171 -23 40 -19 61 -21 200 -20 228 2 402 24 495
63 60 26 184 61 215 61 11 0 33 6 49 14 15 8 58 17 96 20 43 3 73 10 80 19 23
32 61 41 195 44 74 2 158 9 187 15 57 12 114 2 185 -34 21 -10 48 -18 62 -18
14 0 40 -6 58 -14 18 -8 60 -22 93 -31 116 -34 236 -114 305 -205 58 -77 120
-210 130 -280 7 -49 46 -169 64 -198 4 -7 11 -44 16 -84 23 -184 39 -277 49
-296 6 -12 12 -68 12 -124 5 -474 7 -428 -23 -480 -16 -26 -28 -58 -28 -71 0
-13 -13 -54 -30 -90 -16 -37 -30 -77 -30 -89 0 -13 -11 -52 -24 -88 -13 -36
-30 -81 -36 -100 -21 -60 -84 -178 -121 -228 -19 -26 -58 -96 -87 -155 -39
-83 -55 -107 -71 -107 -11 0 -22 8 -25 18 -8 28 30 420 54 541 5 30 10 89 10
132 0 67 -3 82 -23 105 -22 25 -32 28 -141 37 -98 9 -137 7 -230 -7 -94 -14
-129 -15 -229 -6 -65 5 -137 15 -160 20 -23 5 -64 10 -92 10 -27 0 -66 4 -85
10 -19 5 -89 14 -155 19 -66 6 -169 15 -228 22 -98 10 -114 9 -175 -9 -139
-41 -316 -52 -572 -34 -114 8 -152 7 -176 -3 -20 -8 -107 -15 -250 -19 -120
-3 -239 -9 -264 -12 -25 -3 -83 1 -132 11 -47 9 -112 15 -145 14 -32 0 -128 7
-213 16 -131 15 -187 16 -365 8 -132 -7 -241 -7 -295 -1 -47 5 -116 12 -155
14 -166 10 -215 14 -299 22 -50 6 -101 6 -118 1 -58 -16 -589 3 -703 26 -65
13 -177 20 -495 30 -69 2 -154 11 -190 20 -36 9 -94 20 -130 25 -36 4 -94 13
-130 20 -36 7 -72 12 -80 12 -175 -8 -227 -14 -310 -36 -108 -29 -180 -32
-295 -12 -109 20 -227 22 -302 7 -55 -11 -68 -11 -115 5 -29 9 -80 19 -112 20
-33 2 -62 7 -66 11 -90 101 -170 196 -170 202 0 4 -34 42 -75 84 -41 42 -75
81 -75 86 0 6 -14 18 -32 27 -18 9 -57 40 -88 69 -30 29 -75 65 -100 80 -25
15 -58 41 -74 57 -27 26 -205 120 -251 131 -65 16 -163 61 -219 101 -64 46
-116 99 -116 118 0 6 -13 32 -29 57 -67 107 -109 341 -86 481 10 63 34 132 52
152 9 10 28 53 43 95 26 77 28 79 86 110 32 18 73 33 91 33 18 0 54 8 80 18
26 10 92 29 145 42 87 22 103 23 156 12 32 -7 72 -12 89 -12 83 0 296 -73 403
-139 57 -34 220 -191 220 -211 0 -11 29 -48 63 -82 l64 -63 -2 -76 c0 -41 -4
-80 -9 -87 -12 -20 12 -52 40 -52 14 0 40 11 58 25 57 44 107 24 72 -29 -9
-15 -16 -52 -18 -94 -3 -59 0 -75 18 -99 20 -25 27 -28 75 -25 67 4 88 20 70
58 -17 37 -4 111 21 125 29 15 84 -19 81 -52 -3 -44 -20 -108 -33 -124 -7 -8
-10 -25 -6 -40 4 -14 0 -41 -9 -62 -28 -66 6 -132 61 -119 44 11 104 78 104
115 0 18 5 42 12 54 6 12 10 41 9 64 -1 32 3 47 19 63 28 28 73 23 191 -22
l31 -11 -6 -66 c-3 -36 -14 -98 -23 -138 -16 -70 -14 -109 13 -200 6 -23 44
-13 83 22 40 36 46 52 61 145 22 136 38 212 47 221 18 18 92 30 113 19 19 -10
20 -19 16 -118 -5 -109 4 -172 27 -190 28 -23 55 -23 82 0 21 18 27 34 30 78
8 102 27 205 43 223 11 13 31 17 77 17 42 0 78 7 110 21 72 32 90 19 100 -68
4 -37 7 -79 6 -93 -5 -140 -3 -161 14 -180 29 -32 63 -25 108 22 37 39 39 44
33 87 -22 174 -26 274 -12 295 14 23 69 44 97 38 24 -5 41 -48 49 -128 5 -52
14 -81 34 -110 14 -21 26 -46 26 -56 0 -9 12 -29 28 -43 22 -20 35 -25 70 -23
l43 3 25 -60 c14 -33 26 -69 25 -80 0 -11 6 -30 14 -42 21 -31 19 -77 -5 -123
-11 -22 -20 -55 -20 -75 0 -33 -9 -60 -57 -177 -21 -49 -12 -147 14 -166 38
-27 106 10 140 77 12 23 29 53 38 67 9 14 19 48 22 77 6 58 22 77 65 77 38 0
76 -20 113 -60 31 -34 137 -90 168 -90 32 0 77 30 83 55 11 46 -81 182 -147
215 -22 12 -45 32 -51 46 -11 22 -15 24 -55 18 -40 -6 -45 -4 -82 33 -22 22
-43 53 -47 69 -3 16 -15 39 -26 50 -11 12 -30 59 -43 105 -26 96 -69 223 -98
291 -12 29 -17 56 -13 72 5 20 0 35 -19 60 -14 19 -29 50 -32 69 -4 30 -1 38
19 51 14 9 33 14 42 10 24 -9 44 -54 43 -95 -1 -50 48 -146 87 -170 44 -27 84
-25 98 5 14 32 -13 140 -54 212 -15 28 -28 59 -28 68 0 9 -7 30 -15 45 -8 16
-17 72 -21 124 l-7 94 36 59 c20 33 39 75 43 94 3 19 17 61 31 93 17 40 22 67
18 87 -4 18 0 47 9 73 19 52 49 249 51 337 0 36 -5 99 -11 140 -7 41 -16 102
-20 135 -3 33 -16 76 -28 95 -18 30 -21 50 -21 150 0 110 -16 192 -46 240 -5
8 -15 26 -21 40 -7 14 -20 35 -29 48 -10 12 -20 45 -24 73 -5 34 -14 57 -28
68 -39 30 -87 84 -93 105 -4 12 -26 49 -51 83 -44 63 -101 105 -158 119 -16 3
-61 24 -100 44 -38 21 -108 48 -155 60 -47 11 -114 30 -150 40 -100 29 -165
36 -290 33 -238 -5 -409 -4 -525 5 -92 7 -143 6 -220 -5 -91 -14 -107 -14
-183 2 -55 12 -98 15 -130 11 -26 -4 -101 -9 -167 -12 -66 -2 -153 -11 -194
-19 -40 -8 -106 -18 -145 -22 -63 -5 -107 -17 -236 -63 -19 -7 -64 -28 -100
-47 -36 -19 -108 -55 -160 -80 -96 -46 -195 -108 -219 -137 -8 -9 -45 -33 -84
-53 -74 -39 -256 -199 -291 -256 -11 -18 -35 -50 -53 -71 -18 -22 -33 -45 -33
-52 0 -13 -93 -155 -175 -264 -26 -36 -58 -87 -71 -115 -40 -84 -96 -177 -169
-284 -38 -56 -79 -119 -90 -140 -11 -22 -27 -47 -37 -57 -27 -31 -85 -145
-111 -219 -14 -38 -40 -106 -59 -150 -23 -52 -37 -104 -41 -147 -3 -37 -15
-85 -27 -107 -11 -22 -20 -59 -20 -81 0 -22 -9 -59 -21 -82 -18 -36 -22 -70
-31 -284 -9 -210 -9 -249 5 -291 8 -26 18 -75 22 -108 8 -74 24 -123 79 -245
24 -52 53 -126 65 -163 11 -38 36 -86 53 -108 18 -22 52 -64 75 -92 24 -28 43
-54 43 -59 0 -4 24 -34 52 -67 72 -80 148 -177 148 -188 0 -6 9 -22 20 -36 12
-14 26 -41 32 -59 6 -18 43 -67 81 -108 39 -41 85 -97 102 -125 18 -27 43 -59
55 -70 12 -11 31 -37 41 -57 11 -21 23 -38 27 -38 13 0 121 -114 169 -179 112
-151 174 -239 197 -282 13 -25 32 -52 42 -60 33 -27 102 -197 133 -326 54
-229 55 -239 43 -283 -26 -88 -31 -120 -42 -240 -10 -107 -15 -131 -38 -168
-24 -37 -88 -92 -109 -92 -3 0 -54 -49 -112 -109 -58 -59 -117 -114 -131 -121
-14 -7 -50 -33 -81 -57 -30 -23 -60 -43 -67 -43 -6 0 -28 -17 -49 -39 -22 -22
-88 -64 -156 -99 -65 -34 -144 -81 -177 -106 -32 -25 -71 -51 -87 -60 -58 -31
-327 -312 -369 -386 -14 -25 -34 -54 -43 -65 -10 -11 -35 -49 -56 -85 -37 -64
-47 -96 -99 -310 -15 -58 -31 -119 -36 -136 -6 -17 -10 -41 -10 -53 0 -12 -5
-32 -11 -43 -7 -12 -11 -64 -10 -124 1 -72 -2 -112 -12 -131 -19 -37 -32 -286
-16 -314 17 -32 32 -129 30 -194 -1 -39 5 -80 18 -115 11 -30 27 -75 36 -99
18 -49 40 -80 101 -145 22 -24 55 -66 72 -92 75 -118 231 -289 307 -338 111
-71 159 -97 201 -106 72 -16 265 -104 337 -153 37 -26 86 -51 110 -58 23 -6
77 -33 119 -60 126 -80 206 -116 338 -149 152 -38 310 -44 425 -16 39 10 144
24 235 31 160 12 191 19 290 63 25 12 66 26 92 31 39 9 154 58 263 112 11 5
30 25 42 44 13 19 63 61 112 95 50 33 114 79 143 103 29 23 78 58 108 77 30
19 76 55 102 81 25 25 95 84 155 130 59 46 115 91 123 100 32 38 254 156 315
168 33 7 93 22 132 33 79 21 139 19 249 -9 47 -12 76 -28 133 -75 40 -33 75
-67 78 -76 11 -29 104 -126 193 -202 120 -102 170 -156 170 -184 0 -44 118
-132 218 -161 27 -8 72 -30 99 -48 44 -31 185 -96 243 -112 14 -4 37 -16 52
-27 37 -26 186 -94 224 -102 65 -14 124 41 124 117 0 31 -7 45 -32 68 -18 16
-60 53 -92 83 -63 56 -68 78 -24 95 13 5 86 5 163 0 79 -5 153 -4 170 1 17 4
75 11 130 13 55 3 114 11 131 17 32 11 124 9 407 -9 120 -8 157 -7 200 5 145
40 277 49 562 37 83 -3 240 -6 350 -7 197 -1 202 0 330 34 l130 34 230 -1
c127 -1 289 -7 360 -13 191 -18 495 -27 531 -17 24 7 39 5 72 -12 46 -23 108
-27 133 -8 27 20 50 86 43 123 -5 28 -3 33 18 39 12 3 48 17 78 30 45 20 79
25 174 29 65 3 139 11 164 19 26 8 83 23 127 32 44 10 105 24 135 31 30 8 107
24 170 35 63 12 135 25 160 30 25 5 92 16 150 23 58 8 170 29 250 45 80 17
170 36 200 42 30 6 87 20 125 31 126 38 219 59 292 68 40 5 76 11 81 14 22 14
340 36 485 35 154 -2 159 -1 183 22 14 13 35 41 46 62 18 36 19 53 14 248 -6
216 -8 226 -54 286 -31 42 -51 42 -177 3 -54 -17 -120 -30 -148 -30 -27 0 -67
-5 -89 -12 -33 -10 -44 -9 -76 7 -28 13 -77 20 -200 26 -209 11 -223 18 -124
64 31 14 62 32 67 38 6 7 44 41 85 77 41 36 82 74 90 85 8 11 63 68 122 126
59 58 108 112 108 121 0 8 13 39 30 69 73 132 98 189 114 260 9 41 23 85 31
96 8 12 17 38 20 57 2 20 7 41 10 46 6 9 17 207 17 305 0 143 -13 319 -27 352
-8 19 -15 46 -15 60 0 13 -9 42 -21 65 -30 58 -52 137 -45 162 7 29 -18 182
-34 201 -10 12 -10 23 3 58 11 33 14 79 11 215 -1 95 -6 182 -9 193 -4 12 2
33 15 54 12 19 19 39 16 44 -13 21 33 172 85 281 57 117 72 123 111 47 11 -23
29 -53 39 -66 11 -13 19 -35 19 -48 0 -13 6 -36 13 -51 7 -15 21 -72 31 -127
10 -55 24 -131 31 -170 7 -38 14 -106 14 -150 1 -124 50 -396 90 -498 6 -16
11 -40 11 -55 0 -15 9 -42 20 -60 21 -34 65 -218 80 -337 5 -38 18 -90 29
-115 10 -25 22 -67 26 -95 4 -27 13 -67 21 -88 8 -20 14 -54 14 -75 1 -20 19
-104 41 -187 22 -82 42 -170 44 -195 2 -25 11 -61 19 -81 8 -20 26 -77 40
-125 42 -153 77 -234 115 -268 12 -11 21 -26 21 -35 0 -9 9 -29 21 -46 11 -16
33 -55 49 -85 20 -39 60 -83 137 -153 59 -54 124 -118 143 -142 75 -94 129
-129 266 -174 70 -23 139 -48 153 -55 101 -54 192 -88 246 -93 33 -3 71 -11
85 -18 37 -18 127 -27 149 -16 28 15 81 101 81 130 0 32 -32 85 -62 104 -13 8
-37 15 -55 15 -50 1 -80 23 -225 166 -106 105 -146 152 -178 209 -22 41 -40
83 -40 94 0 11 -10 42 -22 69 -13 30 -25 82 -29 134 -11 127 -51 379 -63 399
-3 4 2 38 11 75 14 56 15 75 5 114 -13 50 -18 164 -8 180 3 5 8 112 12 238 3
126 10 247 16 269 6 22 12 78 13 125 4 100 33 244 77 375 92 276 123 508 98
735 -7 58 -14 148 -15 200 -5 162 -21 262 -49 318 -25 48 -66 226 -66 283 0
38 -105 269 -157 346 -13 19 -32 57 -42 83 -10 26 -30 63 -44 81 -14 19 -32
50 -40 70 -8 20 -39 70 -69 110 -30 41 -61 85 -67 99 -7 14 -34 46 -60 72 -25
26 -66 70 -91 99 -25 28 -83 81 -128 117 -98 76 -138 89 -312 102 -63 5 -133
13 -155 19 -157 40 -536 75 -645 60 -67 -9 -230 -53 -262 -70 -31 -16 -104
-77 -137 -113 -14 -16 -67 -69 -118 -119 -113 -109 -211 -251 -246 -357 -14
-41 -35 -97 -47 -123 -12 -27 -23 -67 -25 -90 -2 -23 -13 -67 -24 -98 -38
-107 -45 -216 -27 -430 9 -107 23 -243 31 -304 7 -60 16 -150 20 -200 4 -49
14 -117 22 -149 12 -46 14 -92 9 -205 -14 -333 -37 -575 -59 -619 -8 -15 -17
-60 -21 -100 -3 -40 -13 -89 -21 -109 -8 -19 -15 -46 -15 -58 0 -48 -119 -270
-150 -280 -9 -3 -49 0 -90 6 -41 6 -98 14 -126 18 -60 8 -157 74 -176 119 -7
15 -21 38 -33 52 -21 25 -125 207 -125 219 0 4 -20 51 -45 106 -25 55 -45 108
-45 118 0 10 -7 32 -16 50 -22 42 -22 169 1 268 9 41 20 92 25 114 5 22 19 83
31 135 19 87 43 161 120 373 16 43 29 88 29 99 0 23 40 149 76 243 13 33 26
76 30 95 3 19 15 49 25 66 10 17 19 42 19 55 0 30 74 274 94 309 8 14 21 57
30 95 8 39 22 95 30 125 7 30 22 89 31 130 10 41 22 93 27 115 5 22 13 69 18
105 5 36 14 85 20 110 11 46 22 149 39 385 12 156 7 420 -9 490 -6 28 -15 91
-19 140 -4 50 -15 107 -24 129 -9 21 -17 54 -17 73 0 19 -5 44 -12 56 -6 12
-19 49 -29 82 -26 93 -52 153 -99 235 -23 41 -48 98 -56 125 -49 189 -132 382
-210 490 -11 17 -34 57 -51 90 -16 34 -49 88 -74 120 -65 89 -79 107 -140 192
-62 86 -101 124 -169 170 -207 138 -268 176 -290 180 -14 2 -34 10 -45 17 -12
8 -50 22 -85 31 -36 10 -88 24 -117 32 -55 15 -134 56 -273 143 -101 62 -196
115 -228 125 -13 3 -69 34 -125 68 -56 34 -138 74 -182 89 -44 14 -108 43
-142 63 -52 31 -77 39 -145 46 -91 10 -185 38 -263 77 -114 57 -184 75 -325
82 -117 7 -144 12 -200 36 -60 26 -75 29 -205 30 -77 1 -183 -2 -235 -6z m340
-216 c25 -4 57 -13 73 -21 15 -7 94 -23 175 -34 229 -31 241 -34 337 -83 79
-41 99 -47 165 -50 97 -5 164 -21 220 -53 85 -48 174 -93 186 -93 13 0 127
-58 249 -127 39 -22 108 -61 155 -87 47 -26 92 -53 100 -60 44 -39 380 -176
429 -176 10 0 43 -13 74 -30 31 -16 63 -30 71 -30 23 0 198 -137 236 -185 19
-25 67 -80 105 -123 108 -123 242 -338 260 -420 3 -17 24 -51 46 -75 21 -25
39 -55 39 -67 0 -11 6 -33 14 -49 8 -15 18 -56 22 -92 4 -38 18 -86 36 -120
15 -31 28 -66 28 -78 0 -12 19 -42 41 -66 31 -33 47 -63 61 -113 10 -37 25
-88 33 -114 34 -109 45 -154 45 -181 0 -16 9 -63 19 -105 29 -113 43 -263 37
-382 -10 -207 -21 -309 -33 -322 -8 -7 -13 -37 -13 -70 0 -35 -7 -72 -16 -91
-11 -21 -20 -74 -25 -158 -6 -90 -14 -138 -28 -170 -13 -27 -21 -66 -21 -104
-1 -33 -8 -78 -16 -100 -9 -22 -21 -62 -29 -90 -7 -27 -17 -61 -23 -75 -6 -14
-16 -47 -22 -75 -7 -27 -26 -79 -43 -115 -19 -39 -34 -91 -39 -130 -12 -99
-24 -158 -35 -172 -23 -27 -83 -177 -92 -229 -5 -30 -21 -85 -36 -124 -14 -38
-33 -92 -42 -120 -8 -27 -19 -55 -24 -61 -4 -5 -15 -37 -24 -70 -8 -32 -25
-72 -36 -87 -17 -24 -22 -46 -24 -125 -2 -67 -10 -115 -25 -157 -23 -65 -23
-65 -40 -146 -11 -48 -9 -70 9 -165 11 -61 21 -125 21 -143 0 -17 11 -49 25
-70 14 -21 38 -71 54 -112 56 -145 134 -294 182 -344 15 -16 47 -59 71 -95 41
-61 50 -68 147 -117 81 -42 113 -53 150 -53 27 0 74 -11 112 -26 35 -14 73
-26 84 -26 75 -1 196 77 230 149 10 21 34 60 52 86 19 27 41 67 49 90 8 22 18
45 23 51 5 6 12 36 16 66 4 30 14 71 22 90 13 31 23 79 55 260 23 135 35 648
19 800 -6 52 -11 136 -11 185 0 50 -5 108 -10 130 -6 22 -14 83 -19 135 -5 52
-15 140 -21 195 -15 128 -7 359 14 410 9 21 16 48 16 61 0 13 6 38 14 56 8 18
20 58 26 87 23 101 129 253 291 418 66 68 130 130 143 138 54 35 171 68 258
72 111 6 390 -21 502 -47 47 -11 123 -24 168 -29 180 -21 212 -37 420 -223 76
-69 122 -141 150 -236 5 -18 22 -48 39 -66 16 -19 29 -37 29 -41 0 -5 24 -41
54 -80 30 -39 64 -96 77 -126 12 -30 30 -65 40 -79 17 -25 59 -143 59 -166 0
-14 19 -81 62 -214 26 -80 31 -113 34 -225 2 -71 10 -157 18 -190 21 -87 30
-302 16 -356 -7 -24 -14 -71 -15 -104 -4 -77 -38 -257 -60 -315 -46 -122 -56
-160 -57 -215 -1 -33 -8 -69 -15 -80 -7 -11 -13 -33 -13 -50 0 -16 -6 -59 -15
-95 -8 -36 -19 -90 -25 -120 -10 -57 -23 -365 -25 -625 -1 -82 -4 -193 -7
-245 -5 -67 -2 -104 7 -130 8 -19 19 -71 24 -115 6 -44 15 -105 21 -135 5 -30
15 -82 21 -115 6 -33 24 -100 39 -150 16 -49 37 -117 46 -149 10 -32 35 -82
56 -109 28 -38 35 -54 26 -64 -31 -37 -125 14 -232 128 -47 50 -106 106 -131
126 -26 19 -53 50 -61 68 -7 19 -26 42 -42 53 -15 11 -37 42 -49 69 -63 140
-73 167 -73 188 0 12 -13 39 -30 60 -19 24 -30 49 -30 70 0 18 -9 53 -20 78
-11 25 -25 83 -32 129 -6 46 -19 94 -29 108 -9 14 -20 48 -23 75 -9 73 -26
154 -41 200 -7 22 -16 58 -20 80 -3 22 -19 78 -35 125 -17 51 -31 119 -35 170
-4 51 -15 103 -27 129 -11 25 -27 67 -34 95 -8 28 -24 83 -35 121 -12 39 -25
84 -30 100 -5 17 -12 53 -15 80 -3 28 -12 66 -19 85 -12 34 -23 110 -30 206
-5 82 -23 233 -34 287 -34 171 -45 216 -62 249 -11 21 -19 51 -19 69 0 17 -20
70 -46 120 -83 161 -172 228 -262 197 -56 -19 -166 -138 -208 -224 -19 -39
-34 -82 -34 -95 0 -31 -36 -173 -50 -199 -6 -11 -13 -91 -16 -178 -2 -86 -10
-191 -16 -232 -14 -90 -14 -100 6 -265 9 -71 20 -166 25 -210 14 -118 36 -226
53 -260 23 -45 31 -131 29 -332 -1 -177 -2 -187 -40 -330 -31 -118 -51 -172
-100 -267 -73 -140 -76 -144 -205 -288 -120 -133 -207 -208 -242 -208 -15 0
-38 -12 -55 -29 -33 -34 -37 -69 -14 -125 20 -47 8 -71 -40 -80 -19 -4 -113
-7 -207 -7 -95 0 -229 -4 -298 -9 -186 -14 -399 -14 -540 0 -224 21 -273 22
-400 10 -119 -12 -127 -11 -178 9 -70 28 -104 27 -141 -5 -57 -47 -39 -91 60
-148 42 -24 56 -26 152 -26 98 0 108 -2 135 -25 45 -37 81 -41 133 -14 43 23
53 23 324 25 154 1 355 5 448 9 180 8 205 1 124 -34 -55 -24 -323 -91 -362
-91 -17 0 -47 -5 -67 -10 -77 -22 -213 -48 -224 -43 -7 2 -46 -4 -86 -15 -40
-11 -93 -23 -118 -27 -73 -12 -199 -54 -268 -91 -35 -19 -72 -34 -83 -34 -21
0 -149 -33 -191 -49 -19 -7 -31 -6 -44 4 -18 12 -19 27 -15 197 4 253 5 240
-6 369 -6 66 -7 179 -3 260 4 79 4 151 -1 160 -4 9 -5 78 -2 155 11 257 9 577
-4 600 -15 26 -1 301 16 348 6 15 11 56 11 90 -1 182 -1 260 1 299 1 23 0 60
-1 82 -7 95 9 732 19 758 6 15 14 77 17 138 6 96 10 112 28 125 11 7 31 14 44
14 39 0 78 27 118 81 54 70 103 160 104 185 0 12 16 42 35 67 20 26 52 77 71
114 20 37 47 81 60 98 24 32 34 59 69 180 10 33 26 74 36 90 22 38 109 299
109 330 0 12 6 38 14 56 26 66 40 186 27 231 -7 22 -14 115 -16 207 -2 91 -10
216 -19 278 -9 62 -13 119 -10 127 3 9 1 30 -6 48 -7 18 -16 53 -20 78 -5 25
-16 72 -25 105 -9 33 -22 89 -29 125 -17 87 -44 166 -62 181 -8 6 -35 48 -60
93 -85 151 -94 164 -157 223 -64 59 -206 143 -274 163 -21 6 -47 17 -57 25
-11 8 -32 15 -47 15 -15 0 -40 5 -56 11 -29 12 -62 17 -256 46 -97 13 -127 14
-163 5 -24 -7 -69 -12 -100 -12 -67 0 -182 -24 -242 -51 -23 -10 -55 -19 -71
-19 -16 0 -59 -14 -95 -31 -37 -17 -83 -31 -104 -31 -80 0 -190 -28 -280 -70
-33 -15 -70 -23 -122 -25 -41 -2 -112 -6 -158 -9 -61 -4 -94 -1 -130 10 -29
10 -102 18 -192 22 -196 8 -251 14 -275 30 -11 8 -38 14 -62 14 -23 0 -45 5
-49 12 -11 18 59 75 108 88 23 6 63 18 88 26 25 8 60 19 78 24 18 4 54 28 81
53 26 25 62 48 79 52 18 3 34 11 37 16 4 5 13 9 21 9 21 0 112 69 119 90 3 11
35 54 71 95 35 42 64 81 64 88 0 9 91 204 123 262 45 83 46 74 -13 127 -30 27
-64 48 -76 48 -25 0 -55 -42 -74 -105 -15 -50 -64 -149 -96 -194 -13 -19 -24
-41 -24 -50 0 -18 -106 -132 -165 -177 -22 -17 -65 -43 -95 -57 -30 -15 -70
-37 -88 -48 -44 -29 -72 -20 -141 46 -99 94 -185 111 -262 53 -51 -39 -64 -75
-49 -137 13 -53 6 -61 -62 -61 -42 0 -50 4 -74 35 -41 54 -79 72 -147 69 -54
-3 -62 -6 -96 -43 -45 -49 -63 -51 -91 -11 -11 16 -36 33 -55 39 -36 10 -105
60 -105 76 0 14 -109 225 -125 245 -24 28 -70 180 -86 285 -25 165 -1 544 37
572 25 18 29 17 66 -15 33 -28 105 -62 133 -62 25 0 55 38 55 70 0 31 -9 40
-99 93 -30 18 -59 39 -64 48 -16 26 48 143 107 195 87 77 127 71 107 -14 -9
-37 -10 -74 -1 -151 12 -114 17 -131 39 -148 20 -15 58 -17 67 -2 3 6 7 61 9
122 1 62 6 131 10 155 8 43 7 44 -41 88 l-49 44 27 24 c100 90 508 234 672
237 33 1 75 5 91 9 34 8 176 5 245 -6z m-4300 -214 c63 -10 129 -11 265 -4
242 11 277 9 370 -20 44 -14 108 -30 143 -35 37 -6 111 -32 178 -62 125 -56
142 -71 241 -208 32 -45 68 -95 80 -112 12 -17 19 -37 16 -44 -3 -8 11 -44 31
-79 42 -75 43 -87 15 -141 l-22 -41 37 -77 c31 -65 37 -84 31 -117 -4 -23 -2
-47 5 -60 6 -11 13 -40 16 -62 3 -23 9 -49 15 -59 5 -10 6 -25 3 -33 -3 -9 -1
-29 4 -46 9 -24 7 -42 -9 -87 -17 -49 -18 -64 -9 -96 13 -45 4 -206 -16 -286
-18 -72 -55 -127 -91 -136 -45 -11 -93 -45 -99 -70 -3 -14 4 -42 20 -73 32
-64 32 -75 1 -117 -14 -18 -24 -38 -23 -45 2 -6 -5 -17 -15 -23 -27 -18 -124
94 -197 226 -23 42 -15 67 20 67 40 0 120 110 120 164 0 29 -35 57 -105 83
-50 19 -55 25 -74 84 -14 44 -14 136 -1 144 6 3 10 22 10 40 0 26 -6 39 -25
51 -31 20 -72 21 -91 2 -21 -21 -27 -106 -16 -218 5 -54 5 -105 0 -119 -6 -16
-4 -31 6 -46 14 -21 12 -26 -46 -89 -34 -37 -75 -74 -92 -83 -17 -8 -40 -24
-52 -34 -29 -27 -151 -56 -264 -63 -53 -3 -111 -11 -130 -16 -31 -9 -39 -7
-75 18 -22 16 -55 34 -73 42 -18 7 -49 31 -70 54 -45 51 -123 106 -150 106
-23 0 -102 -71 -102 -92 0 -8 23 -36 50 -63 28 -27 50 -53 50 -58 0 -5 14 -29
32 -53 31 -43 130 -114 159 -114 8 0 28 -7 44 -16 46 -24 114 -33 175 -23 84
15 168 27 245 38 75 10 158 43 214 85 47 35 93 35 120 0 12 -15 21 -33 21 -40
0 -7 14 -24 31 -36 41 -30 69 -87 69 -139 0 -75 -61 -93 -116 -34 -59 65 -119
42 -149 -58 -15 -49 -23 -61 -58 -81 -46 -26 -115 -41 -146 -31 -17 5 -20 14
-18 58 2 65 -17 99 -74 127 -41 22 -68 20 -93 -6 -11 -11 -13 -30 -9 -83 6
-67 5 -69 -22 -87 -24 -16 -30 -16 -53 -3 -14 8 -30 29 -37 48 -25 75 -76 76
-143 4 l-42 -46 -61 6 c-72 8 -99 21 -99 48 0 27 -62 89 -88 89 -10 0 -36 -13
-57 -30 -44 -35 -44 -35 -73 -14 -29 20 -28 33 8 134 29 81 38 162 22 186 -20
28 -54 41 -97 36 -25 -2 -45 -1 -45 4 0 5 -3 19 -6 31 -5 17 4 31 35 62 23 22
41 50 41 61 0 11 8 37 19 58 10 20 22 55 25 77 9 50 -16 88 -70 105 -32 11
-39 10 -63 -7 -20 -15 -27 -32 -32 -69 -3 -27 -11 -61 -18 -76 -17 -33 -7 -89
19 -113 26 -24 17 -35 -29 -35 -49 0 -86 -29 -114 -89 -34 -70 -55 -67 -113
17 -26 38 -57 76 -70 83 -12 8 -57 47 -100 87 -81 76 -143 114 -204 126 -19 3
-71 21 -115 38 -99 39 -148 47 -355 56 -157 8 -169 7 -233 -15 -38 -13 -79
-23 -92 -23 -12 0 -53 -11 -89 -25 -37 -14 -79 -25 -95 -25 -26 0 -53 -14
-132 -72 -23 -17 -49 -58 -91 -148 -33 -69 -63 -132 -69 -140 -41 -65 -46 -94
-48 -275 -1 -115 2 -191 9 -210 6 -17 20 -71 30 -121 10 -50 32 -119 49 -154
17 -34 31 -66 31 -72 0 -5 24 -40 53 -78 61 -80 116 -116 322 -209 307 -138
366 -173 498 -293 168 -152 205 -193 227 -249 12 -30 36 -67 55 -84 45 -41 56
-80 44 -157 -14 -86 -21 -174 -24 -298 -1 -58 -7 -131 -13 -162 -6 -32 -11
-104 -11 -160 -1 -57 -2 -143 -3 -193 -2 -117 -2 -118 7 -265 6 -102 5 -135
-9 -179 -9 -30 -13 -70 -10 -90 3 -20 -6 -101 -20 -181 -14 -79 -23 -147 -20
-151 2 -4 0 -78 -5 -165 -5 -87 -6 -167 -2 -179 5 -11 4 -81 0 -155 -5 -74
-10 -175 -13 -225 -3 -49 -8 -110 -10 -135 -3 -25 -7 -160 -10 -300 -3 -140
-11 -284 -18 -320 -6 -36 -13 -130 -14 -210 -1 -80 -8 -172 -14 -205 -9 -44
-9 -77 -1 -125 6 -36 11 -94 11 -130 0 -407 -4 -382 72 -421 83 -42 120 -17
148 102 11 51 11 62 -9 119 -17 49 -20 69 -12 91 7 20 7 39 0 58 -7 19 -8 96
-4 213 4 101 8 228 9 283 1 55 5 190 9 300 4 110 9 277 12 370 2 94 9 204 15
245 6 41 10 134 10 205 -1 72 -2 150 -2 175 0 25 2 149 5 275 4 181 8 241 22
280 19 57 36 138 37 175 0 14 -2 228 -5 475 -3 355 -2 456 9 480 7 17 17 98
23 180 9 131 25 223 41 238 3 3 37 1 75 -4 202 -26 276 -31 565 -32 305 -1
316 -1 364 21 38 17 69 22 155 24 58 1 129 -3 156 -9 48 -11 169 -34 285 -54
30 -5 163 -12 295 -15 293 -7 361 -10 373 -18 49 -30 572 -65 677 -45 60 12
448 -6 513 -23 30 -7 96 -8 215 -3 300 14 549 15 587 2 19 -7 60 -13 90 -14
30 0 120 -7 200 -14 114 -9 195 -9 380 0 129 7 362 12 516 11 155 -1 299 3
320 8 171 42 226 46 441 34 228 -13 365 -26 383 -37 38 -23 471 -54 605 -43
l30 3 -1 -65 c-1 -141 -15 -362 -24 -385 -5 -14 -7 -31 -4 -40 3 -8 -1 -60 -9
-117 -27 -181 -36 -261 -41 -363 -3 -56 -10 -114 -16 -130 -6 -17 -14 -102
-16 -190 -3 -88 -7 -209 -10 -270 -2 -60 -9 -216 -15 -345 -22 -524 -25 -666
-19 -925 1 -82 -2 -186 -7 -230 -6 -48 -8 -229 -6 -455 6 -462 5 -507 -13
-541 -18 -36 -18 -59 2 -87 12 -18 15 -46 13 -135 -1 -62 2 -137 6 -169 5 -38
4 -67 -5 -90 -7 -19 -13 -102 -16 -192 -4 -177 -8 -188 -73 -206 -47 -13 -366
-13 -411 0 -46 14 -522 22 -580 11 -25 -5 -88 -19 -140 -30 -52 -11 -120 -25
-150 -30 -72 -14 -523 -7 -708 10 -112 10 -152 10 -187 1 -25 -7 -60 -12 -77
-12 -17 0 -57 -6 -87 -14 -133 -34 -171 -39 -258 -32 -100 7 -395 19 -493 19
-36 0 -117 -5 -180 -12 -155 -17 -213 -17 -291 -3 l-67 12 -61 -41 c-34 -23
-73 -41 -87 -41 -66 -1 -295 174 -336 256 -11 23 -28 50 -37 61 -26 29 -71
111 -71 127 0 19 -74 118 -110 145 -27 22 -90 152 -90 188 0 9 -18 34 -40 56
-22 22 -53 66 -69 97 -16 31 -51 77 -77 102 -26 25 -63 70 -83 100 -20 31 -88
104 -151 164 -63 59 -122 116 -130 125 -8 9 -53 43 -100 75 -47 32 -94 66
-105 76 -11 10 -71 44 -134 75 l-114 57 -181 -7 c-215 -8 -262 -15 -362 -55
-41 -16 -101 -33 -132 -37 -61 -7 -186 -68 -285 -139 -28 -20 -74 -47 -102
-59 -66 -30 -186 -111 -205 -140 -31 -45 -66 -82 -111 -112 -25 -17 -58 -48
-73 -68 -16 -20 -54 -53 -85 -72 -31 -20 -68 -50 -83 -68 -15 -17 -64 -56
-109 -86 l-83 -54 -90 0 c-50 0 -97 -4 -104 -8 -14 -10 -102 17 -147 43 -30
18 -208 90 -222 90 -5 0 -31 19 -58 41 -28 23 -60 45 -72 50 -50 19 -113 152
-113 240 0 43 5 54 45 99 25 28 45 55 45 60 0 15 53 39 101 46 24 4 65 17 91
30 50 25 93 31 103 14 3 -6 20 -17 36 -25 23 -13 37 -14 69 -5 67 18 78 65 30
125 -16 21 -30 43 -30 50 0 18 -124 95 -154 95 -15 0 -50 -13 -79 -29 -28 -16
-90 -39 -137 -51 -47 -11 -102 -32 -124 -46 -58 -39 -125 -104 -143 -138 -9
-17 -26 -44 -39 -59 -28 -34 -31 -89 -9 -163 8 -27 15 -74 15 -105 0 -65 34
-174 60 -192 10 -7 45 -50 79 -95 47 -63 72 -87 104 -101 23 -10 56 -30 73
-44 17 -14 75 -40 130 -57 54 -17 126 -41 159 -52 88 -31 182 -48 257 -48 120
0 276 47 353 106 25 19 56 34 70 34 25 0 65 31 65 51 0 14 215 229 259 259 19
13 62 48 95 78 69 62 291 219 354 251 23 12 75 29 115 37 39 9 88 27 109 41
50 33 149 53 303 59 124 6 133 5 199 -21 39 -14 106 -50 150 -79 45 -29 109
-70 142 -92 34 -21 78 -62 99 -89 20 -28 66 -79 100 -115 35 -36 70 -79 79
-97 9 -18 25 -37 37 -43 11 -6 36 -35 54 -65 19 -30 39 -57 45 -60 13 -8 120
-153 120 -162 0 -5 18 -34 40 -67 22 -32 40 -64 40 -71 0 -7 18 -35 40 -61 22
-27 40 -55 40 -62 0 -7 19 -34 43 -60 64 -69 87 -102 87 -123 0 -11 -6 -19
-13 -19 -18 0 -221 199 -240 236 -21 40 -189 193 -252 228 -59 33 -118 41
-290 38 -121 -2 -304 -30 -347 -53 -13 -7 -48 -30 -79 -51 -31 -21 -88 -52
-125 -68 -101 -45 -124 -59 -176 -107 -26 -23 -54 -43 -62 -43 -33 0 -65 -24
-81 -61 -10 -21 -34 -51 -53 -66 -19 -14 -72 -61 -117 -103 -50 -48 -94 -80
-113 -84 -16 -4 -57 -30 -89 -58 -180 -159 -393 -287 -476 -288 -15 0 -52 -13
-81 -29 -45 -23 -71 -30 -153 -35 -182 -13 -298 -27 -342 -43 -32 -11 -58 -14
-100 -8 -31 4 -74 9 -96 10 -123 10 -223 43 -345 114 -114 66 -428 227 -485
247 -22 9 -65 23 -96 33 -120 39 -213 97 -304 192 -48 50 -95 109 -105 132
-11 23 -44 67 -75 97 -65 64 -115 137 -115 169 0 12 -11 38 -25 59 -18 27 -29
66 -40 137 -8 55 -20 127 -26 160 -6 33 -8 94 -6 135 10 143 36 375 46 405 20
60 43 151 51 205 19 120 117 321 170 350 11 6 31 32 44 58 14 27 44 73 68 103
25 30 47 61 50 70 10 27 170 144 274 200 53 29 111 64 128 79 29 25 71 51 176
107 25 14 52 33 60 43 22 26 160 140 190 155 14 8 45 39 69 69 24 31 48 56 52
56 4 0 28 17 52 38 25 20 70 57 102 82 31 24 72 68 91 96 33 49 35 59 46 185
6 74 10 148 10 164 0 17 9 63 19 102 25 95 25 187 -1 256 -11 29 -26 86 -34
127 -7 41 -23 109 -35 150 -13 41 -25 86 -28 100 -3 14 -16 36 -28 50 -13 14
-34 48 -49 77 -14 28 -44 72 -66 98 -23 26 -49 60 -58 74 -9 14 -41 57 -69 95
-29 37 -53 74 -53 81 0 8 -15 26 -34 42 -18 15 -39 38 -45 51 -7 12 -30 34
-52 48 -22 13 -44 37 -50 51 -5 14 -23 41 -39 60 -17 19 -30 37 -30 42 0 4
-25 32 -55 62 -31 30 -70 77 -87 104 -18 28 -49 69 -70 92 -21 23 -51 69 -67
102 -25 52 -153 219 -181 236 -10 6 -72 100 -110 166 -34 58 -56 93 -82 126
-16 20 -28 48 -28 64 0 27 -10 50 -69 164 -11 22 -25 77 -30 122 -6 45 -17
104 -26 130 -16 49 -15 60 10 402 2 36 8 76 14 90 9 25 24 88 35 141 15 78 57
220 75 255 12 21 21 47 21 57 0 30 77 197 114 247 15 19 26 40 26 47 0 7 11
26 25 42 14 17 32 47 41 67 8 20 39 66 68 101 31 38 67 97 86 142 18 42 41 87
51 101 10 13 19 32 19 41 0 10 35 53 78 97 42 43 83 92 90 108 48 106 83 164
124 206 25 26 49 57 53 68 6 19 144 121 164 121 11 0 168 106 201 135 14 13
74 46 135 75 60 29 139 69 175 90 122 72 202 97 330 103 63 3 167 13 230 22
77 10 162 14 260 11 80 -2 181 -1 225 2 116 10 228 7 325 -8z m-500 -2121 c0
-41 -16 -69 -40 -69 -24 0 -25 8 -4 60 19 48 44 54 44 9z m9541 -6069 c14 -8
19 -21 19 -53 0 -23 4 -69 10 -101 6 -40 6 -64 -1 -72 -5 -7 -38 -14 -72 -17
-34 -2 -91 -9 -127 -15 -71 -13 -155 -23 -385 -47 -158 -16 -196 -25 -365 -81
-58 -20 -139 -39 -180 -44 -41 -5 -93 -15 -115 -23 -22 -8 -78 -20 -125 -26
-47 -7 -101 -16 -120 -21 -64 -15 -167 -30 -212 -30 -25 0 -71 -9 -103 -20
-32 -11 -71 -20 -87 -20 -16 0 -42 -7 -57 -15 -30 -15 -90 -28 -221 -46 -41
-6 -104 -17 -140 -24 -36 -7 -105 -16 -155 -20 -82 -5 -206 -36 -229 -57 -6
-4 -18 -8 -27 -8 -31 0 -51 168 -21 170 4 1 48 2 97 4 90 3 127 13 307 87 26
10 53 19 60 19 7 0 30 11 50 25 53 36 227 80 443 111 17 3 53 11 80 19 28 8
77 19 110 25 33 6 98 22 145 35 47 13 112 29 145 35 87 17 217 51 239 63 11 5
49 13 85 18 36 4 93 12 126 18 33 6 105 15 160 22 55 6 129 15 165 19 36 4
103 14 150 23 47 9 113 19 147 22 34 4 81 13 105 20 53 17 74 18 99 5z"/>
<path d="M9282 15240 c-28 -12 -42 -48 -42 -112 0 -61 -42 -148 -72 -148 -19
0 -22 5 -32 52 -8 36 -57 63 -86 48 -32 -17 -40 -44 -40 -130 0 -77 2 -83 29
-111 36 -35 45 -36 76 -4 18 18 25 35 25 65 0 33 3 40 19 40 12 0 21 -8 23
-21 2 -12 15 -31 30 -42 24 -18 30 -18 58 -7 39 16 54 38 86 131 43 121 44
189 4 229 -22 22 -42 24 -78 10z"/>
<path d="M9559 15097 c-29 -22 -69 -89 -69 -115 0 -14 -11 -37 -24 -51 -38
-42 -41 -76 -9 -101 25 -19 35 -21 92 -15 85 9 89 11 106 52 21 51 18 92 -10
138 -13 22 -25 49 -25 61 0 38 -31 54 -61 31z"/>
<path d="M8615 15063 c-41 -22 -46 -32 -28 -60 15 -23 15 -28 -6 -127 -13 -58
-8 -82 19 -89 27 -7 96 69 110 124 6 23 18 52 26 65 14 20 14 26 0 53 -27 52
-67 63 -121 34z"/>
<path d="M9169 14611 c-66 -36 -87 -97 -50 -149 10 -15 22 -38 26 -52 12 -42
35 -60 74 -60 42 1 76 26 114 85 26 39 26 41 11 91 -25 86 -103 124 -175 85z"/>
<path d="M8309 14590 c-92 -49 -117 -134 -56 -189 116 -107 135 -121 165 -121
41 0 98 50 113 100 10 34 9 43 -14 86 -14 27 -30 61 -35 75 -20 52 -117 79
-173 49z"/>
<path d="M5758 14593 c-58 -30 -69 -41 -78 -72 -16 -58 -12 -74 30 -140 32
-50 50 -67 91 -85 27 -13 59 -22 69 -19 30 8 63 51 66 85 2 18 8 66 13 107 9
62 8 80 -6 109 -30 63 -88 67 -185 15z"/>
<path d="M4665 14471 c-32 -13 -57 -47 -65 -88 -4 -21 -11 -52 -15 -68 -18
-80 123 -147 205 -99 35 21 65 81 50 99 -6 8 -9 28 -5 47 6 30 2 37 -40 76
-47 43 -82 52 -130 33z"/>
<path d="M5401 13924 c-23 -16 -23 -20 -17 -101 4 -46 14 -103 22 -126 13 -35
13 -48 3 -80 -11 -33 -10 -43 3 -65 25 -41 62 -51 96 -25 15 11 35 35 46 52
15 26 17 37 7 57 -29 64 1 100 41 49 11 -14 30 -25 42 -25 39 0 54 28 61 122
l7 87 -31 31 c-27 27 -36 31 -78 28 -41 -3 -50 -7 -61 -30 -15 -32 -38 -37
-46 -10 -5 14 -54 52 -68 52 -2 0 -14 -7 -27 -16z"/>
<path d="M6233 13910 c-27 -11 -43 -40 -43 -77 0 -29 62 -167 79 -178 34 -20
81 67 81 149 0 46 -4 56 -33 84 -34 33 -47 37 -84 22z"/>
<path d="M5197 13883 c-23 -9 -39 -23 -41 -37 -21 -103 -27 -239 -13 -294 4
-18 21 -47 37 -65 24 -26 32 -30 47 -21 30 18 54 101 47 165 -5 45 -2 65 15
97 12 24 21 60 21 86 0 36 -5 48 -26 65 -31 25 -37 25 -87 4z"/>
<path d="M4859 13823 c-49 -45 -129 -148 -129 -168 0 -28 87 -59 125 -45 35
13 173 117 184 139 8 13 4 27 -15 54 -47 70 -102 77 -165 20z"/>
<path d="M7295 9670 c-27 -4 -76 -15 -108 -24 -33 -9 -95 -16 -142 -16 -80 0
-189 -18 -248 -42 -15 -6 -34 -23 -42 -38 -8 -15 -30 -39 -49 -54 -56 -42 -67
-74 -68 -184 0 -54 3 -116 7 -140 6 -36 4 -46 -11 -58 -29 -22 -95 -51 -134
-58 -57 -10 -100 -41 -101 -73 -2 -35 -2 -36 -18 -105 -12 -47 -12 -86 -3
-212 7 -85 17 -166 24 -180 8 -20 9 -38 0 -74 -9 -40 -8 -51 6 -72 9 -14 22
-37 28 -51 15 -34 72 -77 111 -85 17 -3 55 -1 85 5 136 29 178 191 49 191 -32
0 -44 6 -75 40 -20 22 -36 43 -36 47 0 4 -7 51 -16 106 -14 79 -15 105 -5 135
6 20 10 55 9 76 -3 35 1 42 31 63 27 18 47 23 100 23 47 0 77 6 104 20 45 25
68 25 182 1 95 -19 231 -19 271 1 23 11 54 67 54 98 0 20 -47 55 -109 80 -29
12 -40 11 -88 -5 -54 -19 -56 -19 -87 0 -17 10 -49 27 -71 37 -22 11 -51 25
-65 31 -14 7 -35 32 -48 57 -19 37 -22 54 -16 95 3 28 12 60 20 72 19 31 133
63 220 63 55 0 79 5 116 25 37 20 62 25 117 25 68 0 95 -4 223 -36 32 -8 76
-14 98 -14 49 0 69 -26 83 -109 17 -97 9 -299 -15 -361 -23 -61 -77 -119 -122
-131 -23 -5 -70 -21 -106 -35 -51 -19 -83 -24 -140 -22 -41 1 -126 0 -188 -2
l-114 -3 -66 -60 c-87 -78 -116 -126 -120 -197 -19 -394 -9 -677 26 -750 11
-22 37 -47 72 -68 50 -31 60 -33 120 -29 45 3 83 -2 124 -15 32 -10 66 -18 75
-18 9 0 22 -5 29 -12 21 -21 302 -14 416 11 54 12 107 26 117 31 10 6 30 10
44 10 37 0 90 55 104 108 6 23 16 61 22 84 17 65 71 113 144 128 87 18 130 43
158 92 23 42 24 47 17 203 -3 88 -2 172 3 187 5 17 3 88 -7 189 -16 171 -28
206 -69 195 -11 -3 -40 2 -65 11 -48 16 -83 14 -185 -8 -54 -12 -59 -12 -78 7
-18 18 -19 25 -9 69 6 26 11 130 11 229 1 153 -2 192 -20 255 -24 87 -39 106
-106 136 -27 12 -70 39 -94 59 -30 25 -49 35 -60 29 -25 -11 -130 -4 -169 12
-36 16 -66 17 -147 5z m548 -961 c23 -12 55 -32 70 -45 33 -28 63 -30 114 -9
32 14 39 14 59 0 33 -21 40 -60 20 -102 -13 -28 -16 -50 -10 -104 13 -130 -14
-219 -64 -219 -8 0 -39 -11 -68 -25 -59 -28 -48 -30 -138 22 -11 7 -42 13 -69
13 -37 0 -51 -5 -68 -24 -18 -20 -33 -24 -117 -30 -111 -9 -141 -21 -167 -70
-20 -36 -18 -48 17 -100 11 -15 11 -19 0 -23 -33 -12 -44 -49 -33 -114 1 -4
13 -18 27 -32 15 -16 24 -33 20 -42 -7 -20 -70 -20 -127 1 -69 24 -171 42
-207 37 -21 -3 -41 1 -58 12 -22 14 -25 22 -21 53 2 21 -2 57 -8 82 -16 57
-28 370 -16 402 5 12 16 48 25 79 17 61 23 65 116 92 79 23 230 47 410 66 90
9 113 18 165 65 47 41 70 44 128 15z m-71 -726 c22 -20 24 -80 3 -110 -10 -14
-38 -26 -91 -39 -73 -17 -77 -17 -89 0 -7 9 -13 44 -13 76 l0 60 37 10 c34 9
69 15 115 19 11 0 28 -6 38 -16z"/>
<path d="M7079 9371 c-24 -25 -29 -38 -29 -80 0 -46 3 -52 37 -78 29 -22 47
-28 88 -28 76 0 88 14 83 98 -3 61 -7 72 -31 93 -42 36 -109 34 -148 -5z"/>
<path d="M9075 4249 c-359 -48 -615 -252 -741 -588 -66 -177 -92 -393 -75
-623 37 -486 213 -773 539 -881 228 -75 563 -52 775 54 361 181 538 568 506
1109 -29 512 -233 820 -602 911 -96 23 -297 33 -402 18z m234 -225 c110 -25
188 -69 272 -153 158 -160 222 -353 222 -671 0 -246 -43 -488 -113 -635 -51
-107 -155 -186 -293 -222 -85 -22 -280 -22 -367 1 -285 74 -448 299 -491 676
-27 241 29 627 116 800 42 82 147 164 258 199 97 32 269 34 396 5z"/>
<path d="M14069 4250 c-539 -63 -840 -532 -789 -1230 23 -320 96 -523 246
-680 86 -90 167 -140 289 -179 213 -69 455 -64 736 14 119 34 272 93 285 111
9 11 7 31 -8 82 -31 104 -26 103 -180 54 -179 -57 -314 -82 -446 -82 -193 0
-306 44 -428 165 -191 189 -261 525 -199 953 34 229 86 374 160 445 100 97
219 137 405 137 122 0 209 -15 303 -50 101 -38 110 -50 137 -197 32 -175 30
-173 134 -173 61 0 87 4 96 15 14 16 56 425 46 450 -8 22 -173 98 -277 129
-145 41 -342 55 -510 36z"/>
<path d="M672 4218 c-7 -7 -12 -39 -12 -73 0 -76 13 -90 90 -100 85 -11 127
-32 139 -67 15 -43 15 -1543 0 -1586 -12 -35 -54 -56 -139 -67 -77 -10 -90
-24 -90 -100 0 -34 5 -66 12 -73 17 -17 739 -17 756 0 7 7 12 40 12 80 0 82 0
82 -140 97 -112 13 -142 29 -152 87 -4 21 -7 145 -7 275 -1 178 2 239 12 247
6 5 84 12 172 15 122 4 178 10 235 27 267 77 472 296 519 554 14 78 14 251 0
318 -47 219 -205 338 -489 368 -148 15 -902 14 -918 -2z m833 -198 c236 -35
334 -186 305 -472 -14 -139 -40 -215 -96 -277 -54 -60 -125 -97 -214 -111 -84
-13 -316 -13 -341 0 -18 10 -19 26 -19 430 0 388 1 420 18 429 22 13 256 14
347 1z"/>
<path d="M2142 4218 c-18 -18 -16 -133 3 -148 8 -7 49 -18 90 -25 95 -17 132
-43 183 -133 22 -37 159 -286 306 -553 l266 -486 0 -231 c0 -151 -4 -240 -11
-256 -14 -30 -63 -51 -144 -61 -82 -9 -95 -23 -95 -100 0 -34 5 -66 12 -73 17
-17 699 -17 716 0 7 7 12 39 12 73 0 78 -11 88 -110 104 -95 15 -123 34 -132
92 -3 24 -7 136 -7 249 l-1 205 310 550 c171 302 322 561 336 576 27 28 83 49
130 49 16 0 40 7 52 16 41 29 48 8 55 -157 3 -94 10 -156 17 -165 9 -10 33
-14 81 -14 82 0 99 16 100 95 1 102 14 157 43 182 27 23 32 23 237 23 126 0
218 -4 230 -10 19 -10 19 -29 18 -788 0 -427 -3 -795 -7 -816 -9 -52 -41 -73
-132 -87 -99 -16 -110 -26 -110 -104 0 -34 5 -66 12 -73 17 -17 699 -17 716 0
7 7 12 39 12 73 0 77 -13 91 -95 100 -81 10 -130 31 -144 61 -16 37 -16 1615
1 1632 9 9 72 12 220 12 282 0 281 1 293 -179 6 -83 11 -103 26 -111 27 -15
145 -12 158 3 6 8 13 100 17 241 6 191 5 229 -7 237 -21 13 -2409 11 -2426 -3
-19 -16 -18 -132 2 -148 9 -7 54 -18 101 -25 92 -14 124 -32 124 -72 0 -13
-98 -208 -217 -434 -176 -331 -222 -409 -236 -407 -23 4 -479 823 -475 852 5
33 49 55 133 67 44 6 86 15 93 21 16 14 16 130 0 146 -17 17 -739 17 -756 0z"/>
<path d="M6022 4218 c-7 -7 -12 -39 -12 -73 0 -76 13 -90 90 -100 85 -11 127
-32 139 -67 15 -43 15 -1543 0 -1586 -12 -35 -54 -56 -139 -67 -77 -10 -90
-24 -90 -100 0 -34 5 -66 12 -73 19 -19 701 -17 717 2 7 9 11 39 9 77 -4 75
-12 82 -126 100 -50 8 -82 18 -100 34 l-27 23 -3 357 c-2 263 0 360 9 371 17
21 951 21 968 0 9 -10 11 -109 9 -371 l-3 -357 -27 -23 c-18 -16 -50 -26 -100
-34 -114 -18 -122 -25 -126 -100 -2 -38 2 -68 9 -77 16 -19 698 -21 717 -2 7
7 12 39 12 73 0 77 -11 88 -108 104 -49 9 -82 21 -100 36 l-27 23 0 797 0 797
27 23 c18 15 51 27 100 36 108 18 108 18 108 97 0 40 -5 73 -12 80 -17 17
-699 17 -716 0 -7 -7 -12 -39 -12 -73 0 -78 11 -88 115 -103 86 -13 125 -34
136 -73 4 -13 7 -155 8 -315 1 -213 -2 -293 -11 -302 -17 -17 -949 -17 -966 0
-9 9 -12 87 -11 298 1 157 4 298 8 314 9 43 46 64 136 78 104 15 115 25 115
103 0 34 -5 66 -12 73 -17 17 -699 17 -716 0z"/>
<path d="M10392 4218 c-7 -7 -12 -39 -12 -74 0 -54 3 -65 22 -78 12 -9 37 -16
56 -16 52 0 119 -20 139 -42 17 -19 18 -63 21 -797 2 -526 0 -788 -8 -812 -12
-43 -49 -62 -140 -74 -77 -10 -90 -24 -90 -100 0 -34 5 -66 12 -73 17 -17 679
-17 696 0 7 7 12 39 12 73 0 77 -11 88 -105 103 -84 14 -117 36 -127 86 -5 21
-7 325 -6 674 3 557 5 637 18 639 10 2 177 -252 505 -770 270 -424 500 -782
512 -794 20 -21 31 -23 131 -23 71 0 112 4 120 12 9 9 12 228 12 925 0 889 0
913 19 932 23 23 81 41 131 41 20 0 46 7 58 16 19 13 22 24 22 78 0 35 -5 67
-12 74 -17 17 -669 17 -686 0 -7 -7 -12 -39 -12 -74 0 -54 3 -65 22 -78 12 -9
38 -16 58 -16 50 0 108 -18 131 -41 18 -18 19 -40 19 -689 0 -631 -1 -670 -17
-670 -13 0 -167 233 -513 776 -272 427 -504 782 -515 790 -26 19 -454 21 -473
2z"/>
<path d="M15213 4218 c-14 -18 4 -447 18 -465 16 -18 152 -18 168 0 6 8 15 58
21 113 13 123 14 126 49 147 26 15 70 17 439 17 316 0 412 -3 419 -12 7 -9
-145 -231 -539 -783 -302 -423 -567 -796 -588 -829 -39 -57 -40 -60 -40 -150
0 -58 4 -96 12 -104 9 -9 191 -12 759 -12 637 0 748 2 758 14 15 18 4 464 -12
484 -13 17 -161 17 -175 -1 -6 -7 -14 -53 -17 -102 -9 -118 -20 -152 -55 -170
-41 -21 -931 -23 -949 -2 -8 11 90 155 441 648 248 349 511 719 585 823 l133
188 0 92 c0 58 -4 96 -12 104 -18 18 -1401 17 -1415 0z"/>
<path d="M12765 2483 c-92 -22 -125 -73 -125 -190 0 -98 19 -133 84 -158 55
-21 155 -16 212 11 50 24 64 58 64 156 0 99 -18 142 -70 170 -33 17 -115 23
-165 11z"/>
</g>
</svg>
