<?xml version="1.0" standalone="no"?>
<!DOCTYPE svg PUBLIC "-//W3C//DTD SVG 20010904//EN"
 "http://www.w3.org/TR/2001/REC-SVG-20010904/DTD/svg10.dtd">
<svg version="1.0" xmlns="http://www.w3.org/2000/svg"
 width="1460.462757pt" height="1021.985482pt" viewBox="0 0 1460.462757 1021.985482"
 preserveAspectRatio="xMidYMid meet">
<metadata>
Created by potrace 1.13, written by Peter Selinger 2001-2015
</metadata>
<g transform="translate(-77.533516,1312.617841) scale(0.100000,-0.100000)"
fill="#000000" stroke="none">
<path d="M8150 13120 c-148 -12 -227 -28 -300 -60 -38 -17 -77 -30 -87 -30
-10 0 -38 -9 -62 -20 -24 -11 -53 -20 -65 -20 -51 0 -178 -70 -312 -172 -77
-57 -151 -115 -165 -129 -42 -39 -95 -121 -129 -200 -18 -41 -50 -108 -71
-149 -20 -41 -40 -88 -43 -105 -5 -30 -18 -86 -37 -160 -28 -105 -33 -214 -16
-334 34 -246 64 -351 154 -538 29 -62 53 -119 53 -128 0 -18 113 -134 158
-163 41 -26 151 -133 157 -152 8 -24 163 -97 247 -116 100 -23 118 -43 118
-131 0 -37 -7 -93 -15 -123 -8 -30 -15 -69 -15 -86 0 -18 -13 -50 -30 -75 -32
-48 -60 -126 -60 -171 0 -15 -13 -54 -30 -86 -16 -33 -30 -65 -30 -71 0 -6
-22 -27 -49 -46 -27 -20 -51 -42 -54 -49 -9 -24 11 -88 35 -112 47 -46 93 -32
150 48 24 33 57 77 73 98 17 22 38 50 48 64 10 15 27 26 39 26 27 0 128 -86
128 -109 0 -9 12 -33 26 -52 14 -19 33 -51 41 -72 18 -43 56 -77 88 -77 24 0
55 30 79 77 16 32 16 33 -39 139 -34 66 -75 128 -106 160 -27 30 -59 75 -71
101 -26 60 -44 81 -86 99 l-34 14 7 67 c8 74 41 213 55 227 4 4 28 6 52 2 23
-3 93 -10 153 -15 61 -6 128 -15 150 -20 22 -6 94 -11 160 -11 102 0 127 -3
160 -21 56 -29 165 -35 359 -19 146 11 288 36 341 60 46 21 182 60 208 60 15
0 40 6 56 14 15 8 58 17 96 20 56 4 72 9 86 27 21 28 79 38 228 38 62 1 131 6
153 13 44 13 113 0 180 -33 21 -11 49 -19 63 -19 15 0 36 -5 47 -11 12 -7 48
-18 81 -25 72 -17 216 -96 265 -145 99 -99 192 -270 197 -364 1 -22 17 -76 35
-120 18 -44 36 -109 40 -145 16 -146 31 -237 45 -280 11 -34 16 -108 18 -310
l2 -265 -27 -47 c-16 -26 -28 -60 -28 -76 0 -16 -13 -56 -30 -88 -16 -32 -30
-70 -30 -84 0 -14 -12 -56 -26 -95 -14 -38 -32 -90 -40 -114 -16 -50 -107
-213 -129 -231 -9 -7 -40 -64 -70 -127 -43 -91 -58 -113 -75 -113 -11 0 -23 6
-25 13 -6 16 10 197 35 397 41 317 38 375 -19 404 -46 24 -232 30 -356 11 -68
-10 -135 -14 -175 -10 -130 12 -326 35 -385 45 -33 6 -107 15 -165 20 -58 5
-152 14 -209 20 -93 9 -113 8 -175 -9 -95 -26 -210 -40 -331 -42 -112 -1 -281
7 -338 16 -23 3 -51 -1 -75 -11 -28 -12 -85 -16 -247 -19 -115 -2 -235 -7
-265 -10 -35 -4 -88 0 -142 10 -47 9 -112 15 -145 14 -32 0 -125 7 -208 16
-127 14 -183 15 -365 7 -145 -7 -244 -7 -305 0 -49 6 -121 12 -160 14 -38 2
-99 6 -135 9 -36 3 -198 7 -360 9 -327 3 -548 14 -594 28 -30 9 -251 23 -523
33 -87 3 -158 11 -207 25 -42 11 -93 20 -115 20 -22 0 -52 5 -68 12 -15 6 -91
12 -168 13 -125 2 -153 -1 -257 -26 -133 -33 -231 -37 -330 -15 -84 20 -209
22 -285 7 -53 -11 -69 -11 -110 3 -27 9 -78 18 -113 20 -72 5 -56 -8 -175 134
-33 39 -82 99 -110 132 -27 34 -62 69 -78 78 -15 9 -30 24 -33 34 -3 10 -19
27 -36 40 -18 12 -56 44 -85 72 -30 28 -73 61 -96 74 -23 13 -55 37 -71 53
-34 35 -197 115 -311 153 -44 15 -98 38 -121 51 -63 37 -151 121 -159 152 -3
15 -15 39 -25 53 -42 58 -72 163 -85 294 -8 79 -10 138 -5 152 5 13 9 36 8 51
-1 34 25 105 52 142 12 14 31 58 44 96 22 68 25 71 82 102 32 18 72 33 88 33
15 0 67 13 115 29 138 46 212 57 280 43 31 -7 69 -12 83 -12 62 0 207 -45 315
-97 98 -48 127 -68 208 -145 53 -50 95 -99 95 -109 0 -10 29 -47 63 -81 l64
-63 -2 -76 c0 -41 -4 -80 -9 -87 -12 -20 12 -52 40 -52 14 0 40 11 58 25 57
44 107 24 72 -29 -9 -15 -16 -52 -18 -94 -3 -59 0 -75 18 -99 20 -25 27 -28
75 -26 67 3 88 21 70 59 -16 37 -4 111 20 125 20 10 70 -9 85 -32 6 -11 -5
-59 -28 -124 -6 -16 -10 -43 -10 -60 1 -16 -5 -48 -14 -70 -28 -75 16 -130 80
-100 70 33 85 65 104 216 10 78 24 92 81 84 25 -3 71 -14 101 -24 l55 -18 -2
-64 c-1 -35 -9 -99 -19 -141 -17 -76 -15 -113 12 -205 6 -24 40 -13 81 25 43
39 50 56 63 142 24 160 38 213 56 227 28 21 64 27 93 17 l26 -10 0 -130 c0
-153 12 -184 69 -184 46 0 66 26 71 91 10 134 24 211 42 225 11 8 44 13 79 14
40 0 78 7 109 21 70 31 90 19 100 -63 4 -34 7 -76 7 -93 -5 -141 -4 -156 12
-180 20 -30 48 -32 87 -4 56 40 59 56 42 233 -13 143 -13 159 1 175 22 24 85
42 106 31 21 -11 41 -78 44 -146 2 -35 11 -62 29 -89 15 -22 27 -48 27 -57 0
-32 47 -63 97 -63 l46 0 27 -67 c15 -37 25 -70 22 -73 -4 -3 5 -26 18 -50 l24
-45 -27 -55 c-15 -31 -27 -71 -27 -91 0 -32 -14 -74 -56 -172 -24 -57 -15
-155 17 -172 40 -22 139 43 139 91 0 9 11 31 25 48 18 20 28 47 32 83 6 62 22
78 76 78 32 0 46 -8 91 -50 51 -48 143 -100 179 -100 28 0 75 28 82 49 14 45
-80 188 -146 221 -22 12 -45 32 -51 46 -10 22 -16 24 -49 19 -28 -5 -47 -2
-70 12 -29 17 -69 77 -69 104 0 7 -9 23 -21 35 -11 12 -31 59 -44 105 -26 96
-69 223 -98 291 -12 29 -17 56 -13 72 5 20 0 35 -19 60 -35 46 -42 91 -20 116
41 46 85 9 96 -80 13 -112 71 -190 142 -190 60 0 56 94 -12 235 -42 88 -52
120 -66 225 -14 103 -13 108 40 186 13 20 27 52 31 73 3 20 15 59 26 86 12 28
21 70 20 93 0 24 6 58 13 75 7 18 18 77 25 132 7 55 16 111 20 125 8 28 -1
174 -20 320 -8 62 -20 107 -34 130 -18 30 -21 50 -21 150 -1 129 -13 182 -69
285 -6 11 -19 31 -28 45 -9 14 -19 46 -23 71 -8 54 -9 56 -55 90 -20 15 -44
44 -55 65 -63 124 -140 201 -220 219 -16 4 -58 22 -91 40 -59 32 -125 53 -334
109 -83 23 -113 26 -245 24 -295 -2 -422 0 -545 10 -100 7 -144 6 -220 -6 -88
-13 -102 -13 -188 3 -76 15 -104 17 -155 8 -34 -6 -109 -12 -167 -13 -58 -1
-135 -8 -171 -15 -37 -8 -97 -17 -135 -21 -68 -6 -158 -31 -221 -60 -17 -7
-39 -14 -50 -14 -10 0 -38 -14 -63 -30 -25 -16 -48 -30 -53 -30 -4 0 -26 -12
-48 -26 -23 -14 -59 -32 -81 -40 -51 -18 -177 -96 -208 -129 -14 -15 -53 -40
-87 -56 -67 -32 -251 -194 -287 -252 -11 -18 -35 -50 -53 -71 -18 -22 -33 -45
-33 -52 0 -13 -121 -196 -186 -281 -20 -26 -52 -80 -70 -120 -19 -39 -38 -74
-43 -77 -5 -4 -12 -19 -16 -35 -3 -16 -15 -37 -26 -47 -11 -10 -43 -54 -70
-99 -28 -44 -60 -94 -72 -111 -12 -18 -30 -45 -39 -60 -10 -16 -33 -54 -53
-84 -19 -30 -46 -86 -61 -125 -14 -38 -44 -112 -65 -164 -25 -58 -43 -121 -49
-167 -5 -41 -19 -92 -30 -113 -11 -22 -20 -59 -20 -81 0 -23 -9 -59 -19 -81
-23 -47 -29 -106 -36 -356 -4 -141 -2 -191 9 -225 8 -24 17 -72 21 -108 8 -66
31 -132 91 -256 19 -39 34 -78 34 -85 0 -43 46 -138 98 -201 31 -38 71 -89 87
-113 17 -24 60 -76 96 -117 73 -82 130 -165 161 -236 12 -26 50 -78 86 -117
36 -38 77 -88 91 -110 36 -57 94 -126 178 -214 79 -83 144 -165 224 -281 29
-41 62 -88 75 -103 13 -16 24 -35 24 -42 0 -8 13 -30 30 -48 31 -35 97 -172
118 -242 12 -42 43 -172 63 -266 6 -32 9 -70 5 -85 -4 -16 -9 -42 -12 -59 -3
-16 -9 -39 -14 -50 -4 -11 -13 -81 -20 -155 -10 -122 -14 -139 -39 -175 -17
-23 -53 -54 -87 -73 -33 -19 -63 -41 -68 -50 -15 -27 -169 -178 -196 -192 -14
-7 -50 -33 -81 -57 -30 -23 -60 -43 -67 -43 -6 0 -28 -17 -49 -39 -22 -22 -88
-64 -155 -99 -65 -33 -144 -80 -175 -105 -32 -24 -70 -50 -84 -58 -61 -32
-333 -315 -375 -389 -14 -25 -33 -54 -43 -65 -32 -37 -98 -160 -105 -195 -3
-19 -13 -57 -21 -85 -8 -27 -22 -79 -31 -115 -15 -62 -21 -85 -46 -190 -5 -25
-13 -99 -17 -165 -3 -66 -11 -129 -17 -140 -19 -33 -26 -266 -10 -316 20 -65
34 -158 32 -209 -2 -44 14 -101 52 -190 25 -60 57 -104 115 -165 27 -27 58
-68 69 -90 36 -71 217 -268 291 -317 103 -68 160 -99 203 -108 97 -22 263 -99
358 -166 27 -19 60 -37 75 -39 32 -7 74 -28 166 -85 117 -72 175 -97 304 -129
142 -36 306 -45 401 -22 30 7 71 17 90 21 19 5 94 12 165 15 148 7 178 14 272
56 38 17 90 35 117 40 26 5 89 29 140 53 50 24 101 47 114 51 12 3 34 24 47
45 16 25 59 62 115 100 49 33 114 80 145 105 30 25 81 62 113 82 31 20 82 62
112 92 31 31 93 83 139 116 46 33 93 70 105 83 11 12 73 54 137 92 113 68 188
100 239 100 14 0 54 9 90 21 72 23 137 21 247 -8 48 -12 78 -29 128 -70 36
-29 76 -70 89 -91 13 -20 65 -75 115 -122 214 -197 241 -226 241 -252 0 -45
101 -121 216 -162 35 -13 83 -36 104 -51 43 -30 173 -90 230 -107 19 -6 47
-19 62 -30 37 -26 185 -94 225 -102 61 -14 123 43 123 111 0 37 -32 88 -67
107 -15 8 -50 36 -76 63 -46 48 -47 50 -29 66 17 15 50 18 263 22 144 2 269 9
304 17 66 14 247 15 425 2 147 -10 218 -8 255 7 50 20 205 40 300 40 50 -1
153 -3 230 -6 507 -17 498 -17 596 4 52 11 124 29 162 39 60 17 96 19 310 17
133 -2 296 -9 362 -15 66 -7 158 -13 205 -15 222 -7 287 -7 311 0 18 4 39 0
67 -14 46 -23 108 -27 133 -8 27 20 50 86 43 123 -5 28 -3 33 18 39 12 3 49
18 81 32 46 20 80 26 155 29 54 2 138 12 187 24 50 11 122 27 160 35 39 8 104
23 146 34 42 11 102 23 135 27 32 3 82 12 109 20 28 7 91 18 140 24 141 17
402 66 459 86 21 8 52 14 68 14 27 0 126 27 280 76 26 8 74 16 107 19 34 3 80
9 104 15 70 16 316 31 471 29 165 -2 166 -1 212 77 25 42 25 43 19 253 -5 218
-7 228 -53 288 -31 41 -50 42 -172 3 -57 -18 -117 -30 -149 -30 -29 0 -70 -5
-90 -11 -30 -9 -47 -7 -98 10 -47 16 -90 21 -175 22 -187 2 -219 21 -118 70
42 20 103 74 258 227 111 110 202 206 202 215 0 8 13 38 30 68 73 131 98 188
110 244 6 33 20 78 30 100 10 22 21 56 25 75 28 150 28 629 0 697 -8 19 -15
44 -15 55 0 11 -14 52 -31 91 -26 59 -33 91 -40 185 -6 75 -14 123 -25 142
-16 26 -16 32 -2 72 12 34 15 78 12 213 -2 94 -6 181 -9 194 -4 14 1 33 11 49
9 14 18 46 20 71 2 26 10 63 19 83 8 21 15 46 15 56 0 11 21 62 46 113 60 121
73 131 102 78 9 -17 29 -50 44 -73 15 -22 28 -51 28 -63 0 -12 6 -37 14 -55
29 -69 69 -297 72 -413 4 -172 51 -427 98 -539 9 -21 16 -49 16 -63 0 -13 9
-41 19 -61 21 -40 55 -191 71 -312 5 -41 21 -102 35 -135 13 -33 25 -71 25
-83 0 -13 6 -51 14 -85 8 -34 20 -91 26 -127 11 -68 43 -194 62 -245 6 -16 12
-50 12 -75 1 -25 14 -79 28 -120 14 -41 38 -115 53 -165 34 -106 48 -138 86
-186 16 -20 29 -42 29 -49 0 -27 112 -201 146 -227 55 -42 224 -208 224 -219
0 -6 25 -32 56 -59 48 -41 76 -55 181 -90 68 -24 139 -50 156 -58 108 -54 199
-86 257 -92 36 -4 74 -13 85 -20 11 -7 45 -15 76 -19 52 -7 57 -5 84 21 38 38
65 83 65 111 0 52 -50 112 -94 112 -59 1 -110 37 -248 174 -106 105 -147 153
-178 209 -22 41 -40 83 -40 94 0 11 -10 42 -22 69 -13 30 -25 83 -29 134 -10
101 -25 205 -46 315 -19 94 -19 113 -2 183 9 41 10 61 1 85 -6 18 -11 57 -12
87 -1 114 27 617 35 630 4 7 9 52 11 99 4 117 26 220 95 441 77 244 100 431
79 641 -7 74 -14 175 -16 224 -4 151 -20 255 -48 315 -27 58 -70 244 -68 294
2 36 -125 310 -164 356 -7 8 -21 38 -32 66 -10 29 -31 67 -45 85 -14 19 -32
50 -40 70 -8 20 -30 56 -49 81 -19 24 -47 66 -64 93 -16 26 -51 71 -79 100
-27 29 -70 76 -94 104 -24 28 -81 81 -128 118 -96 75 -149 92 -308 98 -49 2
-110 11 -134 19 -24 9 -60 16 -80 16 -20 0 -58 7 -86 16 -33 10 -130 19 -283
27 -212 10 -238 9 -285 -6 -29 -10 -81 -24 -116 -31 -34 -8 -79 -26 -100 -40
-75 -54 -114 -87 -135 -114 -11 -16 -60 -66 -107 -110 -102 -97 -206 -246
-238 -342 -12 -36 -31 -84 -43 -108 -11 -24 -23 -69 -27 -100 -4 -31 -12 -66
-18 -78 -15 -27 -39 -134 -48 -209 -7 -65 5 -232 35 -505 10 -96 22 -211 25
-255 4 -44 14 -107 22 -140 12 -48 14 -92 9 -215 -16 -386 -35 -569 -61 -621
-8 -15 -15 -47 -15 -71 0 -24 -7 -68 -16 -98 -8 -30 -19 -73 -23 -95 -16 -78
-119 -270 -151 -280 -14 -5 -62 1 -217 24 -59 8 -157 75 -175 119 -7 15 -20
36 -30 48 -23 26 -79 119 -106 175 -56 119 -81 179 -97 229 -10 30 -24 71 -31
90 -35 97 -24 184 75 595 10 44 33 116 51 160 40 101 80 221 80 242 0 19 43
156 75 238 13 33 27 76 31 95 3 19 15 49 25 66 10 17 19 41 19 54 0 36 68 257
95 310 7 14 20 58 28 97 8 39 18 76 22 83 4 6 13 43 20 83 16 82 42 198 56
243 5 17 9 42 9 55 0 14 9 66 19 115 38 178 57 716 31 869 -7 39 -16 108 -19
155 -4 47 -14 102 -24 124 -9 21 -17 54 -17 73 0 19 -5 44 -12 56 -6 12 -19
49 -29 82 -26 93 -52 153 -101 240 -25 44 -50 100 -56 125 -21 87 -109 330
-134 367 -64 97 -108 170 -118 197 -11 29 -72 122 -135 206 -19 25 -59 79 -89
120 -77 107 -91 119 -286 245 -41 27 -88 57 -103 67 -15 11 -46 26 -69 34 -23
8 -46 18 -52 23 -6 5 -38 16 -71 25 -177 47 -196 55 -361 153 -93 56 -194 113
-224 128 -30 15 -109 58 -176 96 -66 38 -128 69 -136 69 -22 0 -115 40 -182
79 -46 27 -75 35 -138 42 -86 8 -184 37 -263 77 -27 14 -88 38 -134 53 -74 25
-100 29 -199 29 -107 0 -118 2 -185 32 -69 31 -78 32 -207 34 -74 1 -178 -2
-230 -6z m330 -216 c25 -4 57 -13 72 -20 15 -8 96 -23 180 -35 233 -32 237
-33 334 -82 80 -41 99 -47 154 -47 75 0 167 -23 229 -56 134 -73 176 -94 187
-94 11 0 160 -74 204 -101 41 -26 193 -112 230 -130 19 -10 50 -29 69 -43 19
-14 39 -26 44 -26 5 0 46 -19 91 -41 88 -45 263 -109 299 -109 12 0 45 -14 72
-30 28 -16 57 -30 67 -30 24 0 197 -134 238 -184 19 -24 64 -75 99 -114 35
-39 73 -86 85 -105 11 -19 42 -66 67 -103 64 -96 81 -129 112 -210 15 -39 41
-83 57 -99 17 -16 30 -39 30 -52 0 -13 6 -36 13 -51 8 -15 19 -60 26 -100 6
-41 23 -96 36 -122 14 -27 25 -58 25 -69 0 -11 20 -43 44 -70 24 -27 47 -64
51 -83 7 -35 18 -73 60 -200 14 -42 25 -94 25 -115 0 -21 10 -72 21 -113 27
-102 41 -258 35 -382 -10 -195 -21 -303 -34 -325 -6 -12 -12 -45 -12 -73 0
-28 -7 -65 -16 -83 -11 -21 -20 -75 -25 -159 -6 -87 -14 -139 -25 -161 -10
-18 -21 -72 -25 -123 -4 -50 -14 -106 -23 -125 -19 -44 -43 -118 -62 -194 -9
-33 -29 -89 -46 -124 -17 -36 -34 -93 -39 -130 -16 -120 -20 -135 -61 -221
-44 -92 -55 -121 -68 -190 -4 -25 -20 -76 -35 -115 -15 -38 -33 -90 -40 -115
-7 -25 -22 -65 -34 -90 -11 -25 -21 -54 -21 -64 0 -11 -11 -38 -24 -60 -18
-32 -25 -62 -29 -139 -4 -61 -15 -124 -31 -170 -46 -138 -50 -180 -27 -295 12
-57 21 -120 21 -139 0 -24 9 -48 26 -70 15 -19 41 -76 59 -127 18 -51 45 -115
60 -142 15 -27 41 -74 57 -104 17 -30 43 -68 58 -85 16 -16 48 -59 72 -95 41
-61 49 -68 147 -117 79 -39 117 -52 160 -55 31 -2 85 -16 121 -30 66 -25 66
-25 122 -8 63 19 118 59 152 110 77 116 114 179 125 212 7 21 16 40 21 43 4 2
11 31 15 62 4 32 14 74 22 93 8 19 21 73 28 120 8 47 19 110 25 140 18 84 32
454 25 650 -9 270 -21 475 -29 488 -4 7 -12 58 -17 114 -5 57 -14 139 -19 183
-22 200 -6 394 45 535 7 19 18 60 25 89 23 99 127 250 282 410 62 64 125 126
141 138 16 12 77 38 136 57 l108 36 184 -15 c183 -15 291 -30 424 -59 39 -9
86 -16 105 -16 55 -1 174 -35 213 -62 20 -14 88 -70 150 -125 117 -104 148
-147 193 -276 8 -23 23 -51 33 -62 43 -48 142 -198 162 -247 13 -29 33 -69 46
-89 20 -30 54 -141 82 -269 5 -19 13 -46 19 -60 32 -77 45 -146 52 -280 4 -80
12 -163 18 -185 15 -57 18 -313 4 -425 -19 -166 -61 -359 -82 -385 -19 -22
-41 -114 -43 -179 -2 -35 -8 -70 -14 -77 -6 -8 -13 -36 -16 -64 -2 -27 -9 -68
-15 -90 -31 -119 -43 -304 -47 -730 -1 -82 -4 -190 -7 -240 -4 -61 -1 -102 8
-127 7 -21 16 -66 19 -100 4 -35 13 -92 20 -128 7 -36 19 -96 25 -135 6 -38
26 -117 45 -175 18 -58 39 -124 46 -148 7 -24 30 -66 51 -94 29 -39 35 -54 27
-65 -30 -36 -122 13 -225 119 -43 45 -105 104 -136 130 -31 26 -60 58 -63 70
-4 13 -26 41 -48 63 -40 40 -99 165 -116 247 -5 20 -20 51 -35 68 -18 22 -26
43 -26 69 0 20 -7 46 -15 58 -16 23 -45 147 -45 195 0 16 -9 42 -20 58 -11 16
-22 53 -26 86 -3 33 -17 97 -29 144 -13 47 -26 104 -30 128 -4 23 -16 66 -27
95 -30 80 -36 105 -43 197 -4 48 -14 99 -25 120 -9 19 -25 62 -34 95 -9 33
-26 92 -37 130 -12 39 -25 84 -30 100 -5 17 -12 53 -15 80 -3 28 -12 66 -19
85 -12 33 -24 117 -30 205 -5 80 -25 245 -34 287 -5 24 -17 81 -27 128 -9 47
-25 102 -35 122 -11 21 -19 51 -19 69 0 43 -85 201 -140 259 -31 34 -58 52
-88 60 -65 17 -104 -2 -187 -87 -80 -83 -124 -171 -145 -288 -7 -38 -21 -93
-32 -122 -14 -39 -20 -87 -23 -205 -3 -84 -10 -184 -16 -223 -16 -108 -16
-101 30 -465 18 -146 34 -225 52 -266 41 -87 45 -465 7 -604 -11 -41 -28 -110
-38 -153 -10 -42 -22 -83 -28 -90 -5 -6 -33 -57 -62 -112 -63 -120 -68 -126
-194 -267 -120 -133 -207 -208 -242 -208 -15 0 -38 -12 -55 -29 -34 -34 -38
-72 -12 -126 20 -43 11 -65 -32 -77 -15 -4 -134 -9 -264 -12 -130 -3 -325 -10
-434 -15 -109 -5 -204 -8 -210 -5 -22 8 -281 26 -392 27 -60 1 -146 -3 -191
-7 -70 -8 -89 -6 -142 13 -34 11 -74 21 -88 21 -31 0 -84 -50 -84 -79 0 -28
37 -65 95 -95 44 -23 62 -26 152 -26 94 0 104 -2 131 -25 44 -37 81 -41 133
-14 43 22 52 23 324 25 154 0 316 5 360 11 92 10 255 5 255 -8 0 -15 -78 -45
-176 -69 -49 -11 -112 -27 -140 -35 -28 -8 -63 -15 -78 -15 -15 0 -46 -4 -69
-10 -170 -39 -216 -47 -247 -48 -20 0 -66 -9 -104 -21 -37 -12 -81 -21 -97
-21 -46 0 -210 -57 -259 -90 -25 -16 -55 -30 -67 -30 -28 0 -137 -25 -190 -44
-35 -12 -44 -12 -60 -1 -17 12 -18 28 -14 197 1 101 3 197 3 213 1 17 -4 84
-9 150 -6 69 -8 182 -3 265 3 80 3 152 -1 161 -4 8 -5 78 -2 155 10 278 8 558
-4 592 -14 39 -2 308 17 356 6 17 11 57 10 90 -1 77 -1 244 0 294 1 20 0 57
-1 82 -7 118 10 747 20 774 6 15 14 75 18 133 7 113 17 133 73 133 51 0 118
69 188 192 18 32 32 69 32 83 0 14 14 41 33 62 19 21 51 70 72 108 21 39 48
84 60 100 26 35 55 107 55 135 0 20 19 70 50 131 26 51 110 307 110 336 0 13
5 33 10 43 6 11 17 56 26 102 13 68 14 93 4 136 -6 29 -13 126 -15 215 -2 89
-10 213 -19 274 -8 62 -13 120 -10 128 3 8 -1 36 -9 62 -19 61 -41 148 -75
308 -23 104 -37 143 -60 168 -9 10 -35 51 -57 91 -72 130 -79 140 -150 212
-58 58 -89 79 -180 123 -60 30 -127 62 -147 72 -20 11 -48 19 -62 19 -14 0
-37 5 -53 11 -29 12 -62 17 -256 46 -97 13 -127 14 -163 5 -24 -7 -69 -12
-100 -12 -67 0 -182 -24 -242 -51 -23 -10 -56 -19 -73 -19 -16 0 -57 -14 -91
-31 -46 -23 -78 -32 -127 -34 -81 -4 -202 -35 -269 -69 -40 -20 -65 -25 -119
-25 -37 0 -105 -3 -151 -6 -62 -5 -94 -3 -130 9 -30 10 -101 18 -192 22 -184
7 -263 16 -284 33 -10 8 -29 12 -49 9 -66 -11 -75 14 -22 61 19 16 54 35 77
41 149 39 206 64 253 110 22 22 47 40 55 40 8 0 49 18 90 38 51 26 81 48 95
71 11 18 48 66 83 108 34 41 62 80 62 86 0 10 83 186 131 278 28 54 24 73 -23
114 -79 67 -110 56 -144 -50 -21 -67 -71 -170 -88 -185 -8 -6 -22 -33 -31 -59
-22 -67 -153 -191 -249 -235 -22 -10 -60 -31 -85 -47 -24 -16 -54 -29 -65 -29
-23 0 -100 58 -124 91 -21 31 -90 59 -144 59 -37 0 -55 -6 -90 -33 l-43 -33 0
-80 0 -79 -52 -3 c-56 -3 -93 10 -93 33 0 8 -16 26 -35 41 -29 22 -45 26 -100
26 -64 0 -67 -1 -104 -41 -45 -48 -74 -53 -93 -13 -9 17 -27 31 -52 40 -49 16
-116 68 -116 91 0 19 -93 205 -116 231 -22 27 -75 210 -92 320 -22 142 8 511
44 537 24 18 26 17 68 -16 55 -44 120 -67 151 -53 49 23 42 101 -13 125 -61
27 -122 70 -122 85 0 10 17 48 38 87 63 118 193 203 184 120 -7 -66 -3 -203 7
-259 12 -64 32 -87 71 -83 25 2 25 3 32 127 4 69 10 141 13 160 6 33 3 39 -41
79 -57 53 -55 59 42 118 78 48 196 95 364 147 118 36 151 42 279 51 41 3 77 7
79 10 6 6 163 -2 222 -11z m-4300 -214 c64 -10 129 -11 265 -4 246 12 288 9
374 -20 41 -15 93 -26 115 -26 51 0 275 -95 326 -138 31 -25 67 -72 197 -253
12 -17 20 -36 17 -43 -3 -7 11 -42 30 -78 42 -75 44 -94 15 -142 l-20 -35 36
-83 c28 -63 35 -90 30 -116 -4 -19 0 -51 8 -75 23 -66 37 -135 31 -150 -2 -7
0 -25 5 -40 8 -20 6 -40 -9 -83 -16 -46 -18 -64 -9 -98 10 -40 0 -210 -17
-296 -11 -57 -57 -115 -101 -128 -43 -13 -93 -55 -93 -78 0 -8 11 -37 25 -64
31 -62 31 -73 0 -115 -14 -18 -24 -38 -23 -45 2 -6 -5 -17 -15 -23 -15 -10
-26 -4 -73 48 -30 33 -64 76 -75 95 -11 19 -31 53 -44 75 -14 22 -25 43 -25
47 0 4 21 18 47 30 37 19 53 36 80 83 18 33 33 70 33 82 0 26 -38 55 -105 80
-26 10 -51 25 -55 33 -31 62 -40 174 -18 210 29 45 -35 110 -89 89 -36 -13
-47 -75 -36 -209 5 -63 6 -124 2 -135 -4 -11 -1 -32 7 -47 13 -26 12 -29 -42
-87 -57 -62 -179 -151 -207 -151 -8 0 -34 -7 -58 -16 -24 -8 -89 -17 -144 -20
-55 -2 -116 -8 -135 -14 -31 -9 -39 -7 -75 19 -22 15 -51 32 -65 36 -14 4 -52
33 -85 65 -75 71 -117 100 -144 100 -19 0 -74 -51 -95 -87 -6 -11 5 -29 43
-67 28 -28 51 -55 51 -60 0 -4 14 -28 32 -52 31 -44 100 -94 149 -109 13 -4
44 -16 68 -27 47 -21 129 -21 266 1 33 5 87 12 120 16 68 7 174 47 221 82 73
54 117 46 154 -27 11 -22 29 -44 39 -49 54 -30 85 -168 42 -191 -36 -19 -68
-12 -91 20 -43 60 -114 49 -142 -23 -9 -23 -19 -52 -23 -64 -13 -45 -131 -94
-191 -79 -24 6 -26 10 -20 47 15 97 -90 192 -156 140 -24 -19 -25 -24 -20 -90
4 -66 3 -70 -22 -86 -37 -24 -71 -8 -92 43 -30 76 -75 77 -145 1 -34 -36 -41
-39 -90 -39 -69 0 -101 17 -111 57 -9 35 -60 83 -87 83 -10 0 -35 -13 -56 -30
-44 -35 -44 -35 -74 -14 -28 20 -26 44 13 152 30 84 34 153 10 176 -29 29 -51
37 -79 26 -33 -13 -31 -13 -49 6 -26 25 -19 52 24 94 22 22 40 49 40 60 0 11
8 37 19 58 25 50 34 107 21 132 -10 19 -78 60 -100 60 -24 0 -60 -49 -60 -83
0 -19 -7 -51 -15 -70 -21 -50 -19 -68 11 -112 29 -43 21 -56 -30 -48 -40 6
-69 -16 -105 -82 -39 -72 -60 -71 -110 3 -22 33 -52 69 -65 80 -14 10 -62 54
-108 96 -90 84 -135 112 -213 132 -27 7 -90 26 -140 43 -119 40 -192 51 -360
52 -116 1 -151 -3 -205 -20 -36 -11 -76 -21 -90 -21 -14 0 -45 -10 -70 -21
-24 -11 -65 -23 -90 -26 -54 -7 -69 -14 -136 -65 -43 -32 -57 -53 -94 -130
-24 -51 -61 -131 -83 -177 l-41 -84 -4 -161 c-4 -139 -2 -173 16 -246 12 -47
25 -110 31 -140 17 -101 123 -293 190 -348 26 -20 379 -192 396 -192 46 0 219
-111 343 -220 167 -145 220 -203 244 -265 13 -34 32 -64 50 -76 33 -24 61 -84
53 -116 -9 -39 -28 -256 -31 -353 -1 -52 -6 -124 -12 -160 -10 -61 -12 -103
-13 -335 0 -49 0 -103 -1 -120 0 -16 3 -86 7 -155 6 -102 5 -135 -9 -179 -9
-31 -13 -69 -10 -90 5 -34 1 -65 -26 -216 -6 -33 -13 -127 -15 -209 -2 -82 -6
-165 -10 -185 -3 -20 -2 -48 3 -61 10 -28 1 -261 -24 -559 -8 -107 -14 -273
-13 -370 1 -117 -3 -193 -11 -226 -7 -27 -14 -115 -16 -195 -1 -80 -8 -174
-14 -210 -8 -47 -8 -82 0 -125 5 -33 10 -89 10 -125 1 -409 -4 -382 72 -421
43 -22 58 -23 92 -8 26 12 38 35 57 115 11 45 10 57 -10 114 -17 49 -20 69
-12 91 7 20 7 39 0 58 -7 19 -8 97 -4 213 3 101 7 230 9 288 2 58 6 193 10
300 3 107 8 272 10 365 3 94 10 203 15 244 6 40 11 132 10 205 -2 162 -2 179
3 456 4 192 8 234 25 285 21 60 35 132 35 170 -10 860 -10 919 2 944 8 14 16
78 20 141 8 130 24 261 35 279 6 9 26 9 87 0 210 -30 260 -33 489 -33 55 0
163 0 240 0 120 0 149 3 195 21 104 40 216 37 455 -11 148 -30 218 -37 445
-42 312 -7 329 -8 445 -33 103 -22 416 -40 555 -31 146 9 504 -4 562 -20 42
-13 228 -13 338 0 47 5 141 9 210 9 69 0 145 0 170 0 25 1 61 -5 80 -12 19 -6
60 -13 90 -14 30 0 118 -7 195 -14 110 -9 188 -9 370 0 126 7 359 12 517 11
170 -1 307 2 335 9 207 45 199 44 434 33 217 -11 358 -24 389 -36 33 -13 164
-28 315 -38 152 -9 206 -10 285 -5 l35 2 -2 -115 c-3 -153 -21 -383 -38 -500
-25 -176 -34 -254 -40 -363 -2 -59 -10 -117 -16 -128 -6 -11 -12 -89 -15 -172
-5 -176 -10 -290 -24 -622 -24 -565 -26 -675 -20 -925 2 -85 -1 -191 -7 -235
-6 -50 -9 -220 -6 -455 6 -460 5 -507 -13 -541 -18 -36 -18 -59 2 -87 12 -18
15 -45 13 -125 -1 -56 1 -132 5 -169 6 -46 4 -78 -4 -100 -7 -19 -13 -103 -16
-193 -3 -156 -4 -160 -28 -182 -14 -12 -46 -25 -71 -28 -49 -8 -381 -1 -460 9
-80 11 -466 15 -510 6 -22 -5 -83 -18 -135 -29 -52 -11 -120 -25 -150 -31 -68
-14 -504 -7 -708 11 -112 10 -153 10 -188 1 -24 -7 -56 -12 -71 -12 -28 0
-125 -21 -208 -45 -41 -12 -67 -13 -135 -4 -83 10 -371 22 -500 22 -36 0 -117
-6 -180 -13 -150 -16 -232 -17 -301 -2 l-56 12 -62 -41 c-34 -23 -73 -41 -87
-41 -40 -1 -184 92 -259 168 -71 71 -123 146 -178 257 -33 67 -74 125 -123
172 -19 19 -43 62 -63 115 -20 51 -46 99 -66 120 -18 19 -47 62 -63 95 -17 33
-52 80 -78 105 -26 25 -64 71 -85 104 -21 32 -62 79 -91 105 -29 26 -89 82
-133 125 -77 74 -101 94 -190 152 -22 15 -51 37 -65 49 -14 13 -78 49 -142 81
l-118 57 -212 -11 c-203 -10 -217 -12 -293 -42 -44 -17 -113 -38 -152 -45 -82
-16 -187 -65 -283 -133 -36 -25 -87 -55 -115 -68 -87 -39 -185 -111 -228 -169
-22 -30 -59 -66 -82 -80 -23 -13 -58 -44 -78 -69 -21 -24 -54 -55 -75 -67 -20
-13 -67 -50 -103 -83 -37 -34 -95 -78 -130 -99 -61 -37 -67 -38 -129 -32 -39
3 -78 1 -97 -6 -26 -9 -43 -7 -85 6 -29 10 -66 26 -83 35 -31 19 -106 51 -188
79 -26 9 -67 31 -90 49 -23 18 -58 43 -77 55 -44 29 -75 75 -95 142 -24 84
-20 135 14 181 72 95 83 104 151 118 36 7 84 23 107 35 45 22 88 27 98 11 3
-6 20 -17 36 -25 23 -13 37 -14 69 -5 67 18 79 71 30 127 -16 18 -30 40 -30
47 0 19 -123 96 -154 96 -15 0 -50 -13 -79 -29 -28 -16 -90 -39 -137 -51 -47
-11 -102 -32 -124 -46 -58 -39 -125 -104 -143 -138 -9 -17 -26 -44 -39 -59
-28 -34 -31 -89 -9 -163 8 -27 15 -74 15 -105 0 -74 31 -162 72 -202 18 -19
53 -62 77 -97 32 -45 57 -68 86 -81 23 -10 58 -32 78 -48 23 -17 79 -42 140
-61 56 -18 131 -43 167 -56 90 -32 194 -48 281 -42 99 7 255 59 314 103 25 19
52 35 60 35 29 0 64 23 75 49 12 30 203 222 265 267 22 16 65 51 96 79 71 64
299 221 365 252 28 12 75 27 105 33 30 6 74 23 99 38 59 37 135 52 300 58 129
6 138 5 205 -21 38 -15 99 -46 135 -69 36 -24 102 -66 146 -95 53 -33 91 -66
109 -93 15 -23 57 -71 92 -107 36 -36 72 -79 80 -96 9 -16 30 -42 48 -58 19
-15 47 -48 64 -75 17 -26 53 -74 81 -107 27 -33 60 -80 73 -105 13 -25 35 -63
50 -84 15 -21 27 -44 27 -51 0 -7 18 -35 40 -61 22 -27 40 -55 40 -62 0 -7 19
-34 43 -60 67 -73 87 -103 87 -129 0 -14 -4 -23 -9 -21 -26 9 -208 190 -242
240 -42 62 -189 195 -260 235 -26 14 -66 26 -103 30 -104 10 -298 4 -371 -12
-38 -8 -86 -17 -106 -20 -21 -3 -76 -31 -125 -63 -49 -32 -105 -64 -124 -72
-74 -29 -133 -63 -174 -100 -23 -22 -63 -48 -89 -59 -34 -15 -51 -30 -66 -59
-11 -21 -30 -46 -43 -54 -13 -8 -64 -54 -114 -101 -56 -52 -103 -87 -122 -91
-16 -4 -58 -32 -93 -62 -191 -166 -332 -252 -454 -279 -33 -7 -81 -24 -107
-38 -36 -19 -69 -27 -135 -32 -190 -13 -310 -28 -353 -42 -32 -11 -60 -13
-100 -8 -30 4 -73 9 -95 10 -120 5 -268 55 -373 127 -24 17 -107 61 -184 100
-78 38 -157 80 -177 92 -20 12 -81 37 -136 55 -174 59 -249 101 -347 198 -47
47 -99 109 -114 137 -14 28 -52 78 -84 111 -70 73 -110 132 -110 163 0 12 -11
39 -25 60 -18 27 -29 66 -40 137 -8 55 -20 124 -26 154 -11 59 -9 134 10 341
13 129 18 160 56 295 9 33 21 87 26 120 18 118 118 324 165 342 8 3 24 24 36
47 11 22 47 74 79 115 33 40 59 77 59 82 0 20 239 187 316 219 22 10 56 31 75
47 31 27 80 57 168 104 19 10 57 39 85 63 28 24 74 64 103 89 28 25 60 48 71
51 11 4 41 33 66 66 26 33 51 60 56 60 5 0 29 17 53 38 25 20 70 57 101 81 30
24 65 58 75 75 11 17 27 40 35 51 14 18 32 169 41 335 1 25 9 71 18 103 25 84
22 170 -8 255 -14 39 -25 80 -25 90 0 24 -46 206 -67 262 -9 25 -24 54 -34 65
-9 11 -29 43 -44 70 -15 28 -44 70 -65 95 -20 25 -45 59 -56 75 -10 17 -43 61
-71 99 -29 37 -53 74 -53 81 0 8 -15 26 -34 42 -18 15 -39 38 -45 51 -7 12
-30 34 -52 48 -23 14 -46 39 -54 58 -8 18 -21 39 -30 46 -9 7 -22 25 -30 40
-7 14 -37 48 -65 75 -28 28 -68 75 -87 105 -20 30 -51 72 -70 94 -19 21 -45
59 -56 85 -12 25 -58 90 -102 144 -93 115 -185 239 -185 250 0 8 -52 89 -95
146 -14 19 -25 47 -25 62 0 16 -20 67 -44 114 -34 63 -47 100 -51 147 -4 35
-15 94 -26 131 -19 64 -19 80 -9 240 6 95 14 195 20 222 13 75 40 194 55 250
8 28 19 70 25 95 6 25 20 62 31 82 10 20 19 44 19 53 0 35 91 236 127 278 12
16 23 34 23 41 0 7 16 35 35 62 19 27 35 54 35 61 0 7 21 38 48 70 62 75 75
97 107 174 15 35 36 74 46 88 10 13 19 32 19 42 0 10 33 51 73 91 57 57 83 94
122 173 31 62 67 117 97 146 25 26 49 57 53 68 6 19 144 121 165 121 11 0 135
84 178 122 18 16 75 48 125 73 51 24 134 67 185 95 154 86 219 107 357 113 66
3 138 11 160 17 23 6 161 12 328 14 159 2 290 6 292 7 8 9 177 1 255 -11z
m-500 -2117 c0 -52 -11 -73 -36 -73 -28 0 -29 7 -8 60 19 46 44 54 44 13z
m9548 -6079 c19 -13 22 -22 17 -45 -4 -16 -1 -61 5 -100 15 -85 10 -93 -59
-90 -27 1 -62 -4 -77 -9 -29 -11 -128 -24 -315 -40 -255 -22 -308 -32 -499
-96 -58 -20 -136 -39 -175 -44 -38 -5 -99 -18 -135 -29 -36 -12 -103 -25 -150
-30 -47 -6 -119 -17 -160 -26 -41 -8 -97 -15 -124 -15 -27 0 -79 -9 -115 -19
-61 -18 -93 -26 -191 -51 -104 -25 -182 -40 -216 -40 -22 0 -66 -6 -99 -14
-33 -8 -102 -17 -153 -21 -94 -7 -218 -42 -233 -66 -14 -24 -37 1 -48 51 -13
59 -14 120 -3 121 4 0 50 2 102 3 79 2 106 7 160 30 36 15 79 31 95 36 74 22
148 51 173 69 30 21 178 66 252 76 65 9 196 34 260 50 30 7 82 19 115 26 33 6
107 24 165 40 58 16 150 38 205 49 55 12 127 30 160 40 33 11 110 26 170 35
101 15 144 20 365 45 41 5 91 13 110 18 19 6 80 15 135 22 55 6 123 17 150 24
67 19 86 19 113 0z"/>
<path d="M8461 12676 c-32 -18 -39 -38 -40 -106 -1 -42 -8 -68 -31 -107 -39
-68 -70 -69 -70 -2 0 24 -43 69 -65 69 -9 0 -27 -11 -40 -25 -23 -22 -25 -32
-25 -110 0 -82 1 -88 29 -116 36 -35 45 -36 76 -4 19 18 25 35 25 70 0 38 3
45 20 45 15 0 20 -7 20 -24 0 -25 41 -66 66 -66 34 0 83 62 109 138 44 125 45
192 5 232 -23 23 -45 25 -79 6z"/>
<path d="M8739 12537 c-30 -22 -69 -89 -69 -117 0 -15 -10 -36 -24 -49 -36
-33 -39 -69 -9 -99 23 -23 29 -24 90 -17 87 9 91 11 108 52 21 50 19 85 -10
134 -14 24 -25 53 -25 65 0 38 -31 54 -61 31z"/>
<path d="M7795 12503 c-41 -22 -46 -32 -28 -60 15 -23 15 -28 -6 -127 -13 -58
-8 -82 18 -89 28 -7 87 59 107 118 10 28 24 60 31 72 12 19 12 26 -1 52 -27
52 -67 63 -121 34z"/>
<path d="M8346 12047 c-65 -40 -83 -95 -47 -145 10 -15 22 -38 26 -52 12 -42
35 -60 74 -60 42 1 76 26 114 85 26 39 26 41 11 91 -26 89 -106 126 -178 81z"/>
<path d="M7489 12030 c-92 -49 -117 -133 -56 -190 82 -76 139 -120 158 -120
29 0 74 26 97 55 34 43 36 79 9 132 -14 26 -30 60 -35 74 -20 52 -117 79 -173
49z"/>
<path d="M4938 12033 c-58 -30 -69 -41 -78 -72 -16 -58 -12 -74 30 -140 32
-50 50 -67 91 -86 55 -25 71 -24 107 8 15 14 22 32 22 58 0 21 4 40 9 43 17
11 20 138 4 172 -31 64 -88 69 -185 17z"/>
<path d="M3834 11901 c-39 -24 -46 -34 -55 -86 -5 -22 -11 -51 -14 -65 -13
-50 62 -110 136 -110 48 0 96 27 114 66 13 27 14 38 5 49 -7 9 -9 26 -5 46 6
28 2 35 -41 75 -56 50 -89 56 -140 25z"/>
<path d="M4581 11364 c-22 -16 -23 -21 -17 -93 4 -42 14 -100 22 -128 13 -44
13 -59 3 -88 -11 -28 -10 -39 2 -61 31 -59 85 -55 135 11 25 33 26 39 16 69
-26 71 -1 103 40 51 11 -14 30 -25 42 -25 39 0 54 28 61 121 7 82 6 87 -18
114 -21 25 -32 29 -78 30 -49 0 -55 -2 -67 -27 -15 -32 -38 -37 -46 -10 -5 14
-54 52 -68 52 -2 0 -14 -7 -27 -16z m157 -117 c2 -10 -3 -17 -12 -17 -9 0 -16
2 -16 4 0 2 -3 12 -6 21 -5 13 -2 16 12 13 10 -2 20 -11 22 -21z"/>
<path d="M5413 11350 c-27 -11 -43 -40 -43 -78 0 -26 13 -60 60 -152 4 -8 18
-16 31 -18 34 -4 69 68 69 141 0 47 -4 57 -33 85 -34 33 -47 37 -84 22z"/>
<path d="M4377 11323 c-39 -16 -39 -18 -53 -108 -12 -76 -5 -224 12 -257 21
-40 60 -64 79 -48 24 20 46 115 39 168 -5 39 -2 57 15 90 29 57 28 122 -2 150
-27 26 -39 26 -90 5z"/>
<path d="M4039 11263 c-43 -39 -129 -147 -129 -162 0 -32 85 -66 126 -51 13 5
60 37 104 71 93 70 98 88 46 143 -47 50 -91 50 -147 -1z"/>
<path d="M6485 7110 c-33 -5 -87 -16 -120 -26 -39 -11 -87 -16 -138 -15 -43 2
-101 -3 -130 -10 -29 -6 -68 -16 -88 -20 -19 -5 -44 -18 -55 -30 -10 -12 -40
-42 -65 -68 -26 -25 -52 -56 -58 -68 -13 -25 -17 -185 -6 -256 6 -41 4 -51
-11 -63 -29 -22 -95 -51 -134 -58 -19 -3 -49 -15 -66 -25 -27 -17 -33 -27 -37
-68 -3 -26 -10 -70 -17 -98 -15 -60 3 -342 24 -383 11 -21 11 -33 0 -70 -13
-41 -12 -48 3 -71 10 -14 23 -38 29 -52 14 -31 68 -75 105 -84 15 -4 53 -2 85
4 47 9 66 18 91 45 38 41 50 78 35 110 -8 18 -21 24 -57 28 -57 7 -111 54
-124 108 -24 97 -33 180 -25 216 5 22 9 59 9 83 0 40 4 48 34 68 27 18 48 23
100 23 47 0 77 6 104 20 45 24 106 25 167 4 54 -20 259 -21 289 -2 22 13 51
70 51 98 0 21 -59 64 -113 83 -24 8 -42 6 -85 -8 -53 -19 -55 -19 -86 0 -17
10 -49 27 -71 37 -22 11 -51 25 -65 31 -14 7 -35 33 -48 58 -19 39 -22 56 -16
98 4 29 14 61 23 72 24 30 170 69 231 62 40 -5 58 -1 97 19 63 33 159 43 227
24 78 -22 198 -46 228 -46 35 0 55 -30 70 -106 18 -93 11 -299 -13 -364 -21
-59 -78 -119 -124 -131 -22 -6 -69 -21 -105 -34 -51 -18 -86 -24 -160 -24 -84
0 -261 -6 -283 -10 -16 -2 -149 -136 -165 -166 -19 -34 -21 -55 -28 -370 -6
-248 10 -434 40 -480 9 -13 37 -37 63 -52 42 -24 59 -28 134 -29 47 -1 95 -7
107 -13 11 -6 32 -11 47 -11 14 0 42 -8 63 -18 33 -17 53 -18 202 -12 156 7
274 25 319 49 11 6 33 11 49 11 16 0 42 10 57 22 31 24 64 90 65 128 1 76 81
162 163 175 72 12 125 43 153 91 18 31 24 52 20 71 -5 24 -6 129 -4 378 1 33
-4 111 -10 174 -12 121 -27 154 -66 149 -12 -2 -49 3 -83 11 -55 12 -70 12
-127 -3 -83 -21 -99 -20 -120 3 -14 16 -15 25 -6 66 13 60 15 417 2 442 -5 10
-12 34 -16 53 -11 60 -41 98 -99 124 -29 13 -69 37 -88 53 -31 28 -40 30 -114
31 -45 0 -99 7 -124 16 -47 17 -46 17 -136 6z m538 -961 c23 -12 55 -32 70
-45 33 -28 63 -30 113 -9 71 30 111 -20 81 -105 -11 -33 -14 -68 -10 -135 6
-114 -9 -165 -52 -179 -16 -5 -54 -20 -83 -33 l-53 -24 -53 31 c-67 38 -122
40 -159 6 -22 -20 -40 -25 -129 -31 -102 -7 -103 -8 -140 -45 -43 -42 -48 -70
-18 -100 26 -26 25 -44 -3 -63 -33 -22 -26 -97 13 -134 16 -14 26 -32 23 -40
-8 -19 -88 -16 -153 7 -30 11 -93 23 -140 26 -116 9 -125 16 -135 106 -5 40
-10 120 -12 178 -2 58 -6 137 -9 175 -5 58 -2 84 20 151 19 59 33 84 49 91 76
35 265 71 487 92 89 9 112 18 165 65 47 41 70 44 128 15z m-69 -725 c21 -21
20 -87 -1 -112 -18 -20 -111 -52 -152 -52 -28 0 -41 29 -41 94 0 53 1 55 33
65 75 24 141 26 161 5z"/>
<path d="M6280 6827 c-33 -16 -50 -52 -50 -105 0 -40 3 -44 48 -73 39 -25 55
-30 89 -26 24 3 50 10 58 17 17 14 21 104 5 144 -18 47 -96 70 -150 43z"/>
</g>
</svg>
