<?xml version="1.0" standalone="no"?>
<!DOCTYPE svg PUBLIC "-//W3C//DTD SVG 20010904//EN"
 "http://www.w3.org/TR/2001/REC-SVG-20010904/DTD/svg10.dtd">
<svg version="1.0" xmlns="http://www.w3.org/2000/svg"
 width="1114.624184pt" height="1004.125756pt" viewBox="0 0 1114.624184 1004.125756"
 preserveAspectRatio="xMidYMid meet">
<metadata>
Created by potrace 1.13, written by Peter Selinger 2001-2015
</metadata>
<g transform="translate(-54.342342,1103.422588) scale(0.100000,-0.100000)"
fill="#000000" stroke="none">
<path d="M2340 11031 c-52 -3 -102 -10 -110 -16 -8 -5 -32 -12 -55 -16 -22 -4
-66 -12 -98 -18 -35 -6 -115 -38 -202 -81 -99 -49 -164 -74 -207 -81 -34 -6
-98 -22 -141 -36 -68 -23 -88 -35 -136 -83 -31 -31 -70 -65 -88 -75 -17 -10
-36 -28 -41 -40 -6 -12 -32 -40 -59 -61 -26 -22 -51 -44 -55 -50 -4 -7 -24
-31 -43 -54 -19 -23 -35 -49 -35 -57 0 -8 -20 -37 -45 -65 -24 -27 -56 -75
-71 -106 -15 -31 -33 -64 -39 -72 -21 -26 -52 -93 -66 -140 -7 -25 -19 -54
-26 -65 -7 -11 -13 -30 -13 -43 0 -37 -29 -129 -45 -142 -8 -7 -15 -27 -15
-45 0 -18 -8 -43 -19 -56 -19 -25 -26 -49 -41 -134 -4 -27 -11 -57 -14 -65 -3
-8 -7 -64 -9 -125 -2 -60 -9 -120 -15 -132 -15 -28 -15 -85 -1 -134 10 -32 9
-42 -5 -63 -9 -14 -16 -33 -16 -42 0 -10 -7 -25 -16 -35 -15 -16 -15 -20 0
-41 21 -29 21 -31 -9 -67 l-26 -30 19 -38 c11 -21 17 -44 15 -50 -7 -19 25
-160 41 -186 14 -20 39 -101 53 -167 3 -14 12 -33 20 -42 9 -10 16 -41 18 -73
2 -46 8 -62 31 -88 39 -43 64 -90 64 -121 0 -17 10 -33 29 -47 21 -15 32 -34
36 -60 5 -27 19 -50 47 -76 22 -21 46 -53 53 -70 20 -47 122 -145 180 -173 28
-13 67 -37 87 -54 21 -16 71 -45 110 -65 41 -20 74 -44 76 -53 2 -9 -13 -40
-32 -68 -20 -29 -36 -58 -36 -65 0 -24 -105 -251 -121 -260 -16 -11 -69 -123
-69 -148 0 -14 -9 -44 -19 -68 -12 -27 -22 -81 -26 -139 -5 -58 -14 -109 -25
-130 -24 -48 -65 -90 -88 -90 -29 0 -236 -141 -319 -216 -47 -44 -91 -69 -134
-78 -22 -5 -28 -14 -39 -59 -15 -64 -7 -85 43 -112 47 -25 70 -16 151 55 37
34 85 72 106 85 21 13 41 29 45 35 13 21 88 70 107 70 11 0 18 -7 18 -19 0
-11 4 -22 9 -25 11 -7 71 -133 71 -150 0 -28 53 -127 75 -142 20 -13 25 -25
27 -77 l3 -62 45 -22 c56 -27 130 -30 158 -5 12 10 22 35 26 64 5 43 3 50 -24
75 -64 62 -202 381 -178 411 6 7 11 27 10 44 0 17 12 59 27 92 15 34 33 84 40
111 7 28 17 67 23 87 8 28 8 44 -2 67 -23 56 9 168 83 290 47 77 81 152 96
207 6 22 22 51 36 64 14 13 25 31 25 39 1 21 20 45 46 59 18 9 29 6 70 -20 83
-52 230 -105 359 -128 105 -19 141 -21 285 -15 91 3 185 12 210 20 25 7 73 16
107 20 88 9 196 41 271 80 36 19 71 35 77 35 21 0 129 57 147 77 27 29 123 69
225 93 78 17 110 20 195 14 57 -4 118 -13 137 -20 18 -8 45 -14 59 -14 14 0
35 -9 46 -19 29 -27 124 -77 163 -85 49 -11 61 -32 34 -59 -11 -13 -21 -30
-21 -38 0 -8 -22 -45 -50 -81 -27 -37 -50 -73 -50 -81 0 -8 -10 -26 -21 -41
-12 -15 -30 -49 -40 -76 -10 -27 -39 -79 -63 -115 -26 -37 -43 -72 -40 -80 4
-8 0 -25 -8 -38 -8 -12 -17 -35 -20 -52 -3 -16 -15 -55 -27 -85 -12 -30 -31
-93 -41 -140 -11 -47 -28 -112 -40 -144 -11 -33 -20 -70 -20 -84 0 -14 -11
-57 -24 -96 -34 -97 -57 -215 -50 -252 5 -29 -19 -119 -51 -189 -7 -16 -16
-42 -20 -57 -15 -59 -58 -71 -201 -56 -87 9 -303 10 -564 2 -121 -4 -252 -18
-275 -31 -14 -7 -59 -8 -145 -2 -135 9 -234 3 -291 -16 -26 -10 -49 -10 -88
-2 -66 13 -104 2 -191 -55 -60 -40 -66 -47 -82 -102 -16 -51 -17 -73 -8 -155
13 -135 20 -174 35 -191 8 -9 15 -61 19 -130 9 -173 23 -286 45 -371 11 -42
17 -86 14 -97 -2 -11 1 -31 8 -43 21 -40 28 -528 9 -639 -17 -98 -16 -119 12
-146 18 -18 42 -27 86 -34 34 -4 65 -11 70 -14 4 -3 46 4 93 16 71 17 91 19
127 9 66 -17 144 -14 199 10 47 20 49 20 137 4 72 -14 117 -16 228 -11 76 4
151 11 168 16 16 5 94 7 172 4 79 -2 161 -4 183 -4 22 -1 74 6 115 15 131 29
166 34 327 40 168 7 362 40 438 75 22 10 62 28 88 40 80 37 82 43 79 269 -2
108 2 252 9 321 6 69 11 132 11 140 -1 8 4 67 10 130 11 116 12 234 8 525 -1
104 2 170 10 190 25 66 -15 185 -84 247 l-41 36 38 39 c20 21 37 45 38 53 0 8
20 42 44 75 105 142 104 140 155 271 10 25 83 61 146 73 24 5 54 16 66 25 13
9 34 24 48 33 14 9 61 52 106 94 60 56 96 82 138 98 31 11 61 21 67 21 6 0 48
27 92 61 45 33 113 79 151 102 38 23 91 63 117 89 26 26 55 48 64 48 19 0 20
-32 1 -68 -7 -15 -16 -46 -20 -69 -3 -24 -17 -67 -30 -95 -14 -29 -34 -93 -46
-143 -32 -136 -36 -149 -48 -172 -7 -12 -12 -31 -12 -43 0 -23 -42 -101 -65
-120 -8 -7 -15 -24 -15 -39 0 -45 -50 -183 -91 -252 -21 -36 -39 -70 -39 -76
0 -6 -11 -33 -24 -60 -13 -26 -27 -66 -31 -88 -4 -22 -9 -51 -12 -65 -5 -28
-75 -159 -109 -205 -30 -40 -94 -182 -94 -209 0 -27 -49 -154 -74 -190 -10
-16 -25 -52 -32 -80 -15 -59 -37 -125 -70 -211 -13 -33 -26 -82 -29 -110 -6
-54 -20 -109 -40 -165 -34 -94 -47 -150 -41 -173 3 -14 1 -70 -6 -124 -13
-109 -12 -193 2 -238 5 -16 12 -93 16 -170 4 -89 11 -150 20 -167 8 -15 14
-33 14 -40 0 -8 16 -43 35 -78 19 -36 35 -75 35 -86 0 -12 9 -41 20 -65 11
-24 20 -55 20 -69 0 -14 23 -61 50 -105 27 -44 61 -102 76 -129 14 -27 35 -57
45 -65 21 -17 87 -121 120 -188 14 -28 37 -52 67 -71 26 -16 84 -64 129 -106
78 -74 86 -79 153 -92 52 -11 122 -14 277 -11 325 6 446 41 596 172 64 56 137
155 137 187 0 12 11 36 25 54 14 18 25 43 25 56 0 13 9 48 21 78 11 30 24 67
29 82 5 16 24 47 43 70 41 51 49 90 52 248 1 63 7 128 14 143 17 43 16 185 -2
234 -14 38 -14 47 -1 88 12 33 13 53 6 77 -11 36 -11 386 0 404 4 5 2 28 -3
50 -7 28 -7 57 1 95 6 30 12 86 14 124 2 39 7 86 11 105 4 19 7 44 6 55 -1 11
-2 41 -1 67 0 25 -4 65 -9 88 -6 27 -6 52 0 67 5 14 11 87 13 162 6 178 20
321 34 347 6 12 16 72 22 134 6 62 17 124 24 139 7 14 17 48 20 74 4 26 19 78
32 115 14 37 28 76 32 87 10 34 139 232 204 314 24 29 57 75 73 101 39 63 223
270 239 270 7 0 37 13 67 28 109 57 394 116 559 115 111 -1 231 -17 265 -35
17 -9 49 -20 70 -23 60 -11 231 -92 305 -144 90 -64 138 -116 172 -186 32 -69
50 -100 96 -173 19 -28 31 -55 28 -61 -3 -5 5 -20 19 -32 13 -13 25 -29 25
-34 0 -6 11 -31 25 -57 14 -26 25 -59 25 -73 0 -15 5 -36 12 -48 7 -12 15 -51
20 -87 13 -120 21 -155 36 -173 9 -10 17 -42 19 -78 2 -39 10 -73 23 -94 11
-18 20 -40 20 -50 0 -9 9 -28 20 -42 11 -14 20 -40 20 -57 0 -18 11 -46 24
-65 19 -25 23 -41 19 -66 -8 -52 16 -227 41 -303 18 -53 23 -84 20 -147 -2
-62 1 -86 16 -114 10 -20 24 -65 31 -101 6 -36 16 -73 22 -84 5 -10 11 -31 12
-45 2 -14 13 -53 25 -86 11 -33 25 -87 30 -120 17 -111 27 -150 47 -185 24
-43 49 -115 70 -200 8 -36 22 -77 29 -92 8 -15 14 -56 14 -92 0 -106 43 -262
89 -327 17 -23 31 -52 31 -64 0 -12 22 -50 50 -86 27 -35 50 -69 50 -75 0 -6
17 -31 38 -55 69 -81 93 -119 99 -157 3 -20 11 -44 18 -52 7 -8 25 -37 40 -65
54 -95 182 -231 225 -240 14 -3 68 -19 120 -34 52 -16 129 -35 170 -41 41 -6
90 -16 109 -22 39 -12 134 -2 174 18 15 8 40 29 55 46 15 17 46 39 69 49 33
14 52 34 92 95 28 42 51 85 51 95 0 10 15 35 32 55 44 49 61 96 65 174 8 156
10 176 21 196 6 11 16 117 22 235 6 118 16 226 21 241 8 18 7 32 0 46 -14 27
-14 179 1 317 6 61 10 138 9 171 -1 38 4 76 14 100 8 20 14 51 13 69 -1 17 2
37 7 44 4 8 9 60 10 115 1 57 10 133 20 174 13 53 15 79 8 95 -6 14 -7 42 -1
77 4 30 15 109 23 175 13 112 23 165 46 241 5 17 9 40 9 53 0 12 6 34 14 49 7
15 21 56 30 92 9 35 29 85 43 109 15 26 33 82 43 131 12 63 21 86 33 88 15 3
16 -9 16 -111 -1 -68 4 -129 11 -152 10 -30 11 -75 4 -184 -10 -181 -11 -290
-3 -316 3 -11 2 -33 -4 -49 -7 -20 -7 -34 0 -45 7 -11 8 -36 2 -69 -12 -78
-12 -180 0 -242 6 -30 13 -93 15 -140 2 -47 9 -97 15 -112 7 -19 7 -35 -1 -56
-9 -24 -8 -60 6 -166 11 -78 16 -156 12 -183 -3 -27 -10 -77 -14 -113 -5 -36
-17 -80 -26 -99 -11 -21 -19 -62 -21 -105 -4 -97 -13 -142 -43 -201 -30 -61
-52 -160 -52 -239 0 -42 -6 -68 -21 -92 -12 -21 -18 -41 -14 -54 6 -19 -2 -53
-31 -130 -7 -19 -16 -62 -19 -95 -4 -33 -13 -70 -21 -82 -8 -12 -14 -31 -14
-41 0 -10 -5 -23 -12 -30 -7 -7 -15 -36 -19 -64 -9 -71 -46 -203 -68 -247 -10
-20 -21 -52 -25 -71 -4 -19 -20 -53 -36 -74 -17 -22 -30 -47 -30 -56 0 -10
-11 -34 -25 -54 -14 -21 -31 -52 -39 -70 -7 -18 -41 -62 -75 -98 -33 -36 -61
-71 -61 -78 0 -6 -18 -28 -40 -47 -22 -20 -40 -42 -40 -48 0 -11 -53 -63 -176
-174 -36 -32 -70 -50 -124 -68 -41 -13 -86 -31 -99 -40 -14 -9 -35 -13 -55
-10 -85 15 -329 50 -391 57 -62 6 -135 29 -315 99 -30 11 -65 32 -78 46 -12
14 -40 34 -60 44 -20 10 -65 44 -100 75 -34 31 -80 65 -100 75 -38 19 -326
298 -373 361 -14 19 -31 52 -38 72 -7 21 -16 40 -21 43 -5 3 -15 18 -23 33
-57 104 -67 129 -67 159 0 21 -10 47 -24 66 -13 18 -29 50 -36 72 -7 22 -19
49 -27 61 -7 12 -11 29 -7 38 4 10 -5 29 -25 51 -19 23 -31 46 -31 65 0 30
-11 93 -35 195 -8 33 -21 118 -30 189 -12 99 -21 138 -40 170 -14 24 -22 45
-19 49 3 3 -1 18 -9 34 -37 71 -90 354 -89 477 1 64 -3 108 -12 125 -7 14 -16
80 -20 146 -14 223 -16 247 -28 268 -6 12 -15 40 -19 62 -12 71 -71 219 -101
257 -16 21 -57 53 -91 72 -68 38 -226 81 -261 72 -13 -3 -45 -29 -72 -57 -27
-28 -81 -77 -121 -110 -73 -60 -79 -70 -146 -221 -13 -29 -31 -71 -41 -92 -17
-38 -34 -109 -41 -171 -3 -16 -18 -72 -34 -124 -22 -70 -27 -99 -20 -118 14
-38 11 -118 -7 -163 -9 -22 -14 -46 -11 -53 3 -7 -1 -47 -8 -88 -13 -72 -19
-182 -16 -299 0 -30 -4 -70 -10 -88 -15 -45 -20 -81 -24 -181 -2 -50 -12 -105
-23 -135 -29 -76 -42 -139 -54 -256 -6 -67 -18 -125 -33 -160 -21 -50 -48
-149 -62 -225 -3 -16 -17 -43 -30 -59 -13 -16 -22 -35 -19 -43 11 -28 -17
-115 -68 -215 -71 -139 -87 -166 -117 -202 -14 -17 -32 -42 -39 -56 -7 -14
-28 -43 -47 -65 -47 -55 -144 -192 -168 -238 -15 -29 -36 -46 -88 -72 -37 -19
-87 -48 -111 -64 -24 -17 -78 -39 -121 -50 -43 -12 -105 -32 -139 -45 -38 -15
-104 -28 -176 -36 -63 -7 -132 -17 -153 -22 -21 -5 -73 -11 -115 -13 -42 -3
-101 -9 -130 -15 -36 -6 -77 -6 -129 1 -41 6 -82 8 -89 5 -8 -3 -34 1 -57 10
-40 15 -248 51 -332 58 -22 1 -76 10 -120 19 -44 8 -109 18 -145 21 -100 10
-199 33 -250 60 -26 13 -91 41 -146 61 -103 39 -154 68 -154 88 0 14 -136 149
-190 188 -19 15 -48 30 -65 33 -38 10 -55 24 -55 47 0 11 -26 52 -58 92 -73
90 -152 210 -152 229 0 9 -12 33 -27 54 -45 64 -133 253 -133 284 0 16 -5 32
-10 35 -15 10 -46 76 -104 230 -58 150 -64 181 -70 350 -2 61 -9 122 -16 137
-9 19 -10 41 -3 80 6 33 6 65 0 82 -6 17 -5 43 2 72 13 50 10 56 -37 108 -47
52 -106 45 -151 -17 -19 -27 -23 -272 -6 -352 15 -67 22 -237 11 -275 -6 -20
-1 -31 24 -55 24 -23 30 -37 30 -69 0 -46 41 -169 64 -195 9 -10 16 -26 16
-37 0 -36 38 -142 62 -176 14 -18 31 -49 38 -68 7 -19 29 -57 48 -85 19 -27
39 -66 43 -87 5 -20 22 -58 39 -85 16 -26 41 -70 55 -96 14 -26 41 -64 59 -85
19 -20 40 -53 48 -72 18 -44 60 -86 130 -133 74 -49 218 -199 218 -227 0 -5
17 -19 39 -29 21 -11 67 -43 102 -71 60 -48 65 -50 106 -44 32 5 49 2 61 -8
35 -30 202 -108 232 -108 17 0 41 -5 53 -11 23 -13 133 -30 218 -34 58 -3 130
-17 208 -41 24 -8 80 -17 125 -20 45 -4 101 -15 126 -25 95 -38 302 -48 445
-21 28 6 94 13 149 17 54 4 114 13 132 21 18 8 52 14 75 14 22 0 74 13 114 29
75 31 165 51 221 51 20 0 50 13 80 33 27 19 87 53 134 78 88 45 176 124 227
203 14 21 59 79 100 127 41 49 76 97 78 106 5 29 71 136 99 162 14 14 26 30
26 36 0 6 20 51 45 100 25 50 45 99 45 110 1 11 7 31 15 45 8 14 14 34 15 45
0 29 58 205 76 232 8 13 18 49 24 80 21 132 50 280 75 383 23 96 36 180 30
190 -5 9 12 140 41 317 9 50 16 133 16 185 0 54 7 127 18 173 10 44 23 139 29
211 6 72 21 164 32 204 11 41 18 83 15 95 -3 12 3 35 14 53 11 18 20 43 20 57
0 44 55 161 100 214 104 122 103 121 160 135 60 16 59 16 118 -38 17 -16 32
-38 32 -48 0 -10 14 -47 30 -81 17 -35 30 -74 30 -86 0 -12 5 -32 12 -44 7
-12 15 -51 19 -87 4 -36 12 -92 18 -125 13 -68 17 -104 26 -258 3 -59 10 -119
15 -133 6 -14 10 -39 10 -56 0 -17 4 -47 9 -67 5 -20 15 -67 21 -106 6 -38 17
-80 25 -95 22 -40 47 -130 55 -195 4 -33 15 -86 24 -118 9 -32 16 -80 16 -106
0 -26 9 -74 20 -107 11 -32 20 -72 20 -87 0 -15 8 -42 17 -60 9 -18 20 -55 24
-84 4 -28 28 -95 53 -149 25 -53 46 -105 46 -114 0 -23 34 -101 80 -180 21
-36 41 -75 44 -87 11 -35 96 -174 135 -220 20 -24 51 -61 70 -83 19 -23 49
-47 66 -54 22 -9 42 -31 64 -70 27 -49 46 -66 129 -121 53 -35 107 -76 118
-92 12 -15 48 -44 80 -63 33 -19 75 -47 94 -62 19 -15 77 -46 129 -69 51 -22
107 -49 125 -59 42 -25 186 -51 387 -69 53 -5 106 -14 119 -21 13 -7 56 -16
94 -21 63 -7 78 -5 132 17 33 13 69 24 80 24 25 0 150 73 189 110 17 16 46 36
65 44 54 24 228 203 263 272 9 17 34 43 56 58 22 16 43 37 46 47 4 11 17 31
29 47 13 15 29 45 36 67 7 22 28 62 47 89 18 26 33 60 33 75 0 15 11 42 24 60
14 18 28 51 31 73 4 22 20 64 36 94 15 30 26 61 22 70 -3 8 -1 25 5 37 17 34
42 128 42 156 0 14 10 46 21 71 41 86 47 105 53 170 10 101 21 174 29 187 10
16 37 169 37 211 0 35 12 78 61 224 19 58 29 107 29 148 0 34 6 73 14 88 7 15
16 50 20 79 4 29 13 71 21 94 19 54 19 189 0 235 -11 27 -12 46 -4 89 7 37 7
61 0 73 -6 11 -10 39 -9 63 0 24 -6 67 -13 94 -9 32 -13 97 -12 180 1 72 2
144 2 160 0 17 -1 64 -2 105 -1 41 2 149 7 240 15 262 10 493 -14 554 -5 15
-10 60 -10 100 0 40 -3 76 -7 80 -5 4 -9 33 -9 64 -3 92 -14 195 -24 227 -5
17 -9 50 -8 75 1 49 -31 191 -52 230 -9 16 -14 62 -15 125 0 66 -5 110 -15
130 -19 38 -75 75 -112 75 -35 0 -88 -48 -88 -80 0 -11 -7 -34 -15 -51 -9 -16
-12 -35 -8 -42 8 -12 10 -53 12 -222 1 -104 -18 -245 -36 -280 -13 -24 -24
-94 -28 -173 -6 -102 -17 -197 -27 -215 -5 -10 -11 -36 -12 -58 -2 -22 -15
-57 -31 -80 -38 -58 -74 -170 -82 -254 -3 -38 -12 -79 -18 -90 -7 -11 -18 -47
-24 -80 -7 -33 -17 -77 -23 -97 -6 -20 -8 -44 -4 -53 3 -9 -3 -58 -13 -110
-11 -51 -17 -102 -15 -113 3 -11 1 -30 -6 -42 -9 -16 -9 -33 1 -70 11 -42 10
-54 -4 -87 -31 -75 -58 -408 -36 -450 12 -22 10 -26 -15 -49 -23 -22 -26 -31
-20 -57 11 -45 6 -318 -6 -404 -7 -46 -7 -79 -2 -90 6 -11 6 -43 1 -83 -5 -36
-9 -87 -8 -115 2 -69 -19 -218 -42 -289 -11 -33 -19 -72 -19 -87 0 -15 -6 -40
-14 -56 -8 -15 -24 -50 -35 -77 -28 -62 -116 -163 -159 -182 -19 -7 -62 -16
-96 -20 -52 -5 -71 -3 -111 15 -27 12 -77 26 -111 30 -134 19 -171 56 -290
291 -13 25 -24 51 -24 58 0 17 -129 202 -140 202 -11 0 -90 147 -90 169 0 10
-9 26 -21 37 -27 25 -49 78 -49 121 0 19 -11 74 -25 123 -14 49 -25 107 -25
130 0 23 -5 50 -11 61 -6 11 -17 46 -25 77 -8 31 -21 71 -28 87 -32 70 -46
114 -56 180 -11 66 -45 230 -56 268 -3 9 -16 30 -30 46 -18 22 -25 43 -27 83
-2 31 -13 74 -27 103 -25 51 -35 126 -44 332 -3 56 -10 100 -19 115 -8 12 -18
61 -22 108 -4 49 -14 99 -25 120 -10 20 -22 53 -26 75 -9 52 -50 154 -69 175
-17 19 -19 37 -9 88 4 19 2 38 -6 46 -6 8 -14 45 -16 83 -3 37 -12 87 -20 111
-8 23 -14 52 -14 63 0 11 -5 30 -12 42 -6 12 -15 35 -19 52 -18 71 -43 121
-74 152 -18 18 -36 46 -40 63 -4 17 -24 50 -46 73 -21 23 -39 51 -39 63 0 11
-9 29 -20 39 -11 10 -22 27 -26 39 -13 39 -186 236 -208 236 -4 0 -36 13 -70
29 -136 66 -200 91 -288 112 -51 12 -101 26 -110 31 -10 4 -52 13 -95 18 -43
5 -105 15 -139 21 -64 13 -55 13 -324 -30 -69 -12 -145 -21 -169 -21 -32 0
-73 -14 -155 -54 -61 -29 -123 -58 -137 -64 -25 -10 -109 -100 -164 -177 -16
-22 -52 -67 -81 -100 -28 -33 -59 -76 -69 -95 -10 -19 -41 -64 -69 -100 -28
-36 -59 -77 -68 -91 -9 -15 -31 -42 -48 -60 -27 -30 -90 -125 -130 -198 -8
-14 -15 -44 -16 -66 -2 -51 -11 -90 -35 -140 -10 -23 -18 -59 -17 -80 3 -63
-21 -216 -41 -265 -24 -57 -45 -196 -37 -247 3 -21 1 -76 -5 -123 -5 -47 -11
-170 -13 -275 -2 -104 -8 -200 -13 -213 -5 -12 -5 -60 -1 -105 4 -45 3 -148
-2 -229 -5 -81 -6 -162 -3 -180 2 -19 -1 -60 -8 -93 -16 -78 -17 -213 -2 -247
14 -30 4 -107 -17 -133 -11 -13 -9 -20 10 -40 13 -13 19 -29 15 -36 -9 -13
-26 -132 -25 -166 5 -125 -5 -188 -38 -243 -25 -41 -65 -153 -82 -229 -21 -90
-150 -248 -241 -296 -37 -20 -140 -35 -238 -35 -46 0 -111 -5 -145 -11 -65
-12 -103 -7 -201 27 -99 35 -211 126 -236 191 -5 14 -35 64 -67 110 -31 46
-69 104 -83 128 -14 25 -37 57 -51 72 -36 38 -58 86 -58 123 0 21 -11 44 -33
70 -31 37 -73 143 -62 160 5 8 -19 112 -30 130 -6 9 -13 83 -21 225 -18 281
-8 390 44 489 8 16 17 61 20 100 2 39 12 87 22 106 10 19 23 60 30 90 7 30 20
75 30 100 10 25 20 59 24 75 3 17 26 75 50 130 24 55 53 131 65 168 19 61 49
117 112 209 11 15 19 33 19 41 0 8 9 24 20 37 11 13 20 33 20 45 0 11 5 26 11
32 6 6 17 35 24 65 27 108 69 211 111 274 19 28 39 67 45 85 23 75 42 147 54
204 11 46 21 65 46 86 24 19 30 31 25 44 -7 18 9 76 44 165 10 25 24 68 30 95
17 75 39 156 51 190 6 17 16 48 21 70 5 22 16 63 23 90 8 28 17 66 21 85 17
88 49 136 141 209 48 39 99 86 113 104 13 19 42 47 63 63 21 16 47 45 57 64
10 19 27 44 39 54 12 11 21 26 21 34 0 8 15 31 33 52 29 31 35 47 41 105 4 37
13 80 21 96 11 20 12 35 6 52 -5 14 -13 57 -17 98 -6 67 -10 77 -48 119 -23
25 -63 70 -88 101 -60 72 -93 86 -164 71 -41 -8 -64 -8 -104 3 -64 17 -80 30
-80 66 0 16 -7 71 -15 122 -8 50 -15 115 -16 142 -1 28 -8 62 -15 77 -8 15
-14 40 -14 56 0 15 -7 37 -15 48 -8 10 -15 34 -15 52 0 18 -9 50 -20 72 -11
22 -20 48 -20 58 0 11 -7 25 -15 32 -17 14 -20 46 -5 55 17 11 11 38 -15 65
-25 26 -71 135 -84 201 -4 19 -19 57 -34 85 -14 27 -28 66 -32 86 -7 42 -41
125 -60 148 -12 14 -54 91 -110 200 -12 25 -33 54 -45 65 -12 11 -31 38 -42
60 -12 22 -42 61 -67 87 -109 111 -182 202 -231 291 -11 21 -46 57 -78 80 -31
23 -82 61 -112 85 -95 74 -246 179 -290 202 -38 19 -109 64 -190 120 -14 10
-59 33 -100 52 -80 37 -204 96 -335 159 -127 60 -360 149 -393 149 -16 0 -55
12 -87 26 -31 15 -83 30 -114 34 -31 5 -90 14 -131 20 -41 6 -163 13 -270 15
-107 1 -215 5 -240 8 -25 2 -88 2 -140 -2z m200 -207 c36 -3 135 -7 220 -10
284 -8 324 -11 395 -33 39 -12 103 -30 143 -41 40 -11 100 -33 135 -49 34 -16
112 -51 172 -77 61 -26 151 -66 200 -89 50 -23 106 -48 125 -55 19 -8 49 -22
65 -32 17 -9 48 -27 70 -39 22 -12 69 -43 105 -68 36 -26 101 -69 145 -96 98
-59 170 -113 210 -155 17 -17 46 -40 66 -50 41 -21 81 -65 108 -119 11 -20 41
-59 67 -87 27 -28 63 -70 81 -95 18 -24 46 -60 63 -79 16 -19 30 -44 30 -56 0
-11 11 -31 25 -44 14 -13 25 -29 25 -36 0 -7 13 -28 28 -46 16 -18 36 -53 46
-78 10 -25 26 -54 36 -65 50 -57 110 -200 110 -265 0 -18 11 -42 29 -63 22
-24 32 -48 37 -88 4 -30 15 -72 25 -94 10 -22 19 -49 19 -60 0 -11 7 -33 15
-49 8 -15 15 -33 15 -40 0 -6 16 -54 36 -106 20 -52 42 -133 49 -180 24 -147
40 -235 48 -246 3 -6 9 -84 11 -172 4 -129 10 -180 30 -254 28 -105 31 -160
22 -368 -2 -58 -9 -126 -15 -152 -7 -31 -8 -56 -1 -72 23 -60 -45 -149 -149
-197 -39 -18 -95 -57 -140 -98 -42 -37 -98 -83 -126 -103 -52 -36 -251 -158
-259 -158 -15 0 -148 -89 -180 -121 -53 -52 -139 -109 -166 -109 -19 0 -21 4
-15 23 4 12 11 49 15 82 4 33 13 72 20 88 11 22 11 43 1 111 -7 47 -14 106
-16 133 -5 71 -31 218 -44 241 -6 11 -11 29 -11 39 0 24 -53 136 -85 177 -14
18 -25 37 -25 43 0 5 -48 57 -107 115 -71 69 -124 112 -155 126 -26 11 -67 34
-90 50 -85 58 -162 90 -258 106 -52 9 -117 21 -143 26 -27 6 -89 10 -138 10
-98 0 -138 -13 -399 -135 -64 -29 -156 -71 -206 -93 -49 -22 -105 -49 -124
-61 -22 -13 -52 -21 -80 -21 -25 0 -76 -7 -115 -16 -38 -8 -117 -17 -175 -19
-58 -1 -126 -6 -151 -10 -34 -5 -55 -3 -77 9 -17 9 -47 16 -67 16 -79 0 -345
115 -345 149 0 20 29 66 66 106 16 17 36 41 44 52 18 26 156 76 290 104 62 13
109 30 134 47 21 15 53 37 71 49 18 12 42 37 53 55 11 18 33 45 47 58 15 14
39 50 54 80 15 30 51 93 80 139 29 46 55 98 58 115 7 38 66 148 105 196 15 19
28 42 28 51 0 9 9 24 21 35 28 25 52 72 45 89 -2 7 6 25 20 38 14 15 27 42 30
64 3 21 14 61 24 88 10 28 25 84 33 125 9 41 22 101 28 132 13 64 3 109 -33
141 -45 39 -120 5 -133 -60 -11 -54 -37 -138 -51 -166 -8 -16 -14 -40 -14 -53
0 -14 -10 -55 -22 -92 -12 -37 -23 -69 -23 -72 -4 -21 -18 -50 -24 -50 -5 0
-18 -26 -30 -59 -12 -32 -28 -64 -36 -71 -8 -7 -15 -18 -15 -24 0 -7 -13 -25
-30 -41 -16 -16 -30 -39 -30 -51 0 -12 -7 -27 -15 -34 -24 -20 -61 -92 -75
-145 -7 -27 -20 -58 -29 -68 -16 -19 -45 -65 -80 -127 -37 -67 -100 -121 -207
-177 -81 -42 -87 -43 -197 -48 -77 -4 -123 -2 -143 6 -16 7 -74 13 -129 13
-132 2 -331 33 -368 59 -15 10 -50 25 -76 32 -41 11 -149 67 -204 107 -10 7
-29 42 -42 78 -13 36 -32 88 -43 117 -11 29 -20 67 -21 85 0 48 -8 79 -26 98
-8 9 -15 26 -15 37 0 12 -8 41 -18 65 -20 48 -21 118 -2 233 6 39 14 120 17
180 3 77 10 123 24 153 14 33 16 49 8 63 -6 13 -6 25 1 38 5 11 10 36 10 57 0
34 16 104 42 179 5 17 14 48 19 70 6 21 14 44 20 51 12 15 29 74 77 265 21 87
50 139 93 170 16 11 29 29 29 40 0 10 24 47 53 81 29 35 65 84 80 110 15 25
41 55 59 66 18 12 64 55 103 96 76 83 80 85 145 97 25 4 79 19 120 34 41 14
97 30 125 36 27 5 75 23 107 39 31 17 62 30 69 30 6 0 39 14 72 31 33 16 87
34 121 39 131 18 211 32 216 36 2 3 14 3 25 0 11 -3 49 -8 85 -12z m3373
-3034 c27 -28 53 -50 57 -50 12 0 20 -43 24 -130 4 -64 1 -80 -20 -120 -45
-82 -68 -116 -134 -194 -47 -55 -71 -76 -85 -74 -23 3 -24 10 -5 223 10 124 9
149 -5 212 -10 40 -15 82 -12 93 3 10 -1 27 -9 37 -33 43 1 66 86 58 49 -5 59
-10 103 -55z m-4555 -9 c15 -8 47 -10 95 -6 85 7 156 -4 170 -26 12 -19 -35
-126 -59 -136 -32 -12 -106 9 -142 41 -20 17 -66 46 -102 64 -83 41 -115 65
-107 84 4 13 14 13 64 3 33 -7 69 -18 81 -24z m2822 -631 c27 -14 76 -89 82
-125 3 -16 10 -43 16 -60 6 -16 16 -50 23 -75 6 -25 16 -57 21 -72 9 -25 13
-129 8 -213 -1 -16 -1 -41 0 -55 1 -14 -1 -61 -4 -104 -5 -63 -11 -88 -31
-116 -14 -20 -25 -48 -25 -62 0 -49 -159 -168 -225 -168 -31 0 -100 -33 -135
-64 -14 -13 -47 -35 -74 -50 -26 -16 -56 -42 -65 -58 -31 -57 -53 -79 -75 -76
-19 3 -21 8 -18 73 2 39 9 93 17 120 30 110 37 144 31 154 -4 6 4 32 17 58 13
26 30 73 36 103 7 30 16 74 22 98 5 23 9 49 9 58 0 9 9 29 21 45 12 17 18 37
14 48 -3 10 4 39 15 65 11 26 20 62 20 79 0 32 19 65 98 168 23 31 42 62 42
69 0 21 59 107 96 140 39 34 38 34 64 20z m-110 -1255 c0 -24 -46 -91 -100
-146 -54 -55 -56 -60 -39 -90 18 -34 -12 -55 -99 -69 -96 -16 -121 -16 -138 2
-21 21 30 86 96 121 70 36 76 42 84 75 7 33 79 89 138 107 56 18 58 18 58 0z
m-880 -485 c41 -6 219 -11 395 -12 289 -1 326 0 378 17 94 31 92 34 114 -235
6 -88 7 -115 4 -195 -1 -16 -2 -41 -2 -55 1 -150 -7 -350 -17 -410 -11 -71
-21 -251 -26 -480 l-2 -105 -69 -28 c-103 -41 -174 -57 -261 -57 -138 -1 -365
-27 -439 -51 -64 -20 -83 -21 -216 -15 -91 4 -194 2 -270 -6 -148 -14 -145
-14 -284 2 -60 6 -131 14 -157 17 -30 3 -66 -1 -97 -12 -44 -14 -65 -15 -154
-6 -75 7 -113 7 -140 -1 -61 -19 -67 -6 -71 163 -2 80 -9 157 -15 174 -7 17
-12 69 -11 120 2 96 -23 314 -40 345 -7 13 -7 35 0 68 9 40 8 57 -5 93 -20 52
-28 164 -14 190 5 10 10 59 11 109 1 50 5 93 10 96 4 3 8 16 8 29 0 22 -20 44
-65 71 -24 13 -13 58 18 78 42 27 222 46 457 47 165 0 239 5 279 15 49 14 213
30 405 39 43 2 81 7 85 11 6 6 53 2 191 -16z"/>
<path d="M1836 9571 c-27 -16 -53 -36 -58 -45 -18 -33 41 -132 117 -195 43
-36 56 -41 98 -41 64 0 80 10 116 73 27 47 30 60 24 106 -5 47 -10 55 -47 80
-84 58 -175 66 -250 22z"/>
<path d="M1156 9369 c-14 -17 -26 -36 -26 -42 0 -7 -9 -23 -20 -37 -30 -39
-25 -71 22 -129 43 -52 43 -53 88 -46 25 4 60 16 78 27 18 11 45 23 60 27 20
6 26 13 23 27 -2 10 -5 39 -6 64 -1 25 -3 50 -4 56 0 6 -22 28 -48 48 -38 30
-54 36 -94 36 -40 0 -51 -4 -73 -31z"/>
<path d="M3274 5144 c-52 -25 -72 -83 -73 -210 -1 -60 3 -138 8 -174 8 -51 7
-77 -5 -121 -9 -30 -14 -71 -12 -90 3 -30 8 -36 43 -47 43 -15 112 -11 190 10
39 10 53 9 99 -6 80 -28 270 -19 341 15 l50 24 8 74 c6 55 5 77 -5 88 -9 12
-13 63 -14 187 0 94 -2 177 -2 184 -3 20 -64 52 -101 52 -18 0 -62 -5 -96 -11
-54 -10 -70 -9 -131 8 -94 28 -259 38 -300 17z m221 -169 c38 -8 109 -15 156
-15 108 0 114 -6 100 -85 -6 -31 -8 -89 -5 -128 8 -93 -5 -112 -69 -109 -71 3
-197 31 -247 55 -40 20 -46 27 -54 67 -11 53 -13 187 -3 213 8 21 31 21 122 2z"/>
<path d="M2710 4803 c-30 -8 -89 -16 -130 -18 -41 -3 -109 -10 -150 -16 -41
-6 -115 -11 -163 -10 l-88 3 -55 -42 c-67 -51 -71 -82 -14 -111 30 -15 67 -18
245 -21 191 -3 220 -1 315 21 194 43 251 103 176 184 -29 31 -54 33 -136 10z"/>
<path d="M2485 4419 c-27 -3 -81 -18 -120 -33 -38 -15 -88 -32 -110 -38 -111
-29 -118 -33 -128 -61 -14 -42 -1 -74 40 -102 55 -37 110 -34 203 11 l75 36
210 4 c177 4 215 8 245 23 69 35 63 107 -12 144 -31 15 -66 19 -195 20 -87 1
-180 -1 -208 -4z"/>
</g>
</svg>
