<?xml version="1.0" standalone="no"?>
<!DOCTYPE svg PUBLIC "-//W3C//DTD SVG 20010904//EN"
 "http://www.w3.org/TR/2001/REC-SVG-20010904/DTD/svg10.dtd">
<svg version="1.0" xmlns="http://www.w3.org/2000/svg"
 width="1114.485957pt" height="1003.780815pt" viewBox="0 0 1114.485957 1003.780815"
 preserveAspectRatio="xMidYMid meet">
<metadata>
Created by potrace 1.13, written by Peter Selinger 2001-2015
</metadata>
<g transform="translate(-54.190506,1103.318053) scale(0.100000,-0.100000)"
fill="#000000" stroke="none">
<path d="M2360 11030 c-47 -3 -105 -11 -130 -18 -25 -6 -72 -16 -105 -22 -94
-18 -121 -27 -270 -100 -94 -46 -156 -70 -190 -73 -27 -3 -87 -18 -133 -34
-92 -31 -103 -40 -332 -266 -72 -71 -123 -129 -126 -145 -4 -15 -19 -40 -34
-57 -43 -48 -90 -119 -95 -144 -2 -13 -13 -34 -24 -45 -25 -28 -50 -78 -67
-136 -8 -27 -21 -61 -29 -77 -8 -15 -15 -37 -15 -48 -1 -35 -24 -110 -42 -138
-10 -14 -18 -39 -18 -55 0 -16 -9 -37 -19 -46 -10 -10 -21 -32 -25 -49 -3 -18
-10 -57 -16 -87 -6 -30 -13 -100 -15 -155 -3 -55 -13 -126 -22 -157 -10 -40
-13 -72 -8 -100 4 -24 7 -54 7 -68 1 -29 -22 -90 -40 -113 -11 -13 -10 -20 3
-41 16 -24 16 -27 -6 -65 -20 -36 -21 -43 -8 -73 8 -18 15 -44 16 -58 7 -77
22 -141 44 -190 14 -30 32 -82 39 -115 8 -33 22 -70 31 -83 12 -15 16 -33 13
-50 -6 -30 17 -92 41 -112 22 -18 55 -84 55 -110 0 -11 13 -31 29 -46 17 -15
34 -43 40 -69 7 -28 23 -53 46 -74 20 -17 42 -46 50 -64 20 -47 126 -151 182
-178 26 -12 73 -42 104 -64 31 -23 82 -52 113 -65 68 -27 70 -40 21 -111 -19
-28 -35 -57 -35 -64 0 -22 -94 -229 -116 -255 -27 -32 -75 -133 -70 -146 3 -7
-6 -38 -19 -68 -17 -40 -26 -82 -31 -156 -6 -93 -10 -106 -39 -148 -23 -34
-44 -51 -76 -63 -55 -20 -238 -145 -321 -220 -38 -35 -71 -55 -129 -77 -29
-11 -56 -84 -44 -121 8 -27 80 -64 109 -57 12 3 49 29 81 59 33 29 85 72 115
95 30 24 74 58 98 77 42 34 72 37 72 8 0 -8 8 -27 19 -41 30 -43 61 -110 61
-130 0 -33 49 -129 75 -146 20 -14 24 -25 27 -78 3 -63 3 -63 43 -82 22 -11
63 -21 90 -24 65 -5 91 15 99 79 5 43 3 48 -29 79 -19 19 -35 38 -35 44 0 5
-18 40 -40 77 -22 37 -56 115 -76 173 -32 96 -34 108 -20 127 8 12 12 27 10
34 -6 15 20 99 40 130 7 11 18 43 25 70 7 28 16 66 22 86 6 24 5 47 -2 68 -21
60 11 171 82 287 41 68 99 194 99 217 0 9 11 28 24 44 12 15 31 44 40 64 9 20
28 42 42 49 21 12 28 11 52 -7 79 -58 225 -115 342 -133 41 -6 90 -16 109 -22
44 -13 332 -2 421 17 36 7 114 23 174 34 76 14 134 33 190 60 45 21 101 47
126 57 25 10 65 32 90 50 125 88 244 120 429 116 84 -2 133 -8 152 -17 15 -8
41 -15 57 -15 16 0 35 -7 42 -15 18 -21 130 -82 167 -89 45 -10 60 -31 40 -54
-9 -10 -22 -33 -28 -50 -6 -18 -23 -45 -37 -60 -27 -29 -112 -185 -127 -232
-4 -14 -29 -56 -56 -93 -26 -38 -46 -74 -43 -82 3 -7 -2 -27 -10 -44 -9 -16
-16 -40 -16 -51 0 -12 -6 -34 -14 -48 -21 -43 -37 -93 -47 -150 -5 -29 -21
-87 -35 -130 -14 -42 -30 -99 -34 -127 -5 -27 -18 -76 -29 -108 -28 -76 -51
-198 -45 -239 3 -23 -9 -72 -39 -158 -43 -123 -44 -125 -81 -138 -30 -9 -63
-10 -149 -2 -134 13 -635 11 -660 -2 -10 -5 -43 -9 -73 -9 -31 0 -73 -6 -93
-14 -30 -10 -67 -11 -162 -5 -94 6 -147 5 -218 -6 -52 -8 -98 -17 -101 -19 -3
-2 -26 1 -50 6 -75 17 -130 -2 -246 -85 -30 -21 -58 -126 -48 -179 4 -23 9
-64 10 -92 4 -79 15 -133 30 -146 9 -7 14 -32 14 -68 1 -94 29 -342 46 -411 8
-36 17 -85 18 -110 2 -25 8 -56 13 -70 10 -25 17 -261 15 -465 -1 -111 -12
-210 -25 -232 -11 -17 9 -60 37 -78 46 -31 176 -38 268 -16 46 11 66 12 97 3
60 -19 142 -15 196 9 45 20 52 20 119 8 81 -16 358 -15 415 1 46 13 266 13
310 0 27 -7 57 -5 130 11 161 35 188 38 360 45 183 7 348 38 473 90 134 55
138 66 129 320 -4 93 -3 192 1 219 21 134 39 483 39 720 -1 143 -3 267 -6 276
-3 8 1 34 9 57 27 76 -9 190 -82 257 l-37 34 38 38 c20 21 37 46 37 54 0 9 11
31 25 50 14 19 47 63 74 99 49 67 91 149 91 180 0 9 8 24 17 32 27 23 112 58
142 58 26 0 161 86 178 113 30 46 125 116 193 142 41 16 101 48 133 71 32 24
92 64 135 90 42 26 105 74 139 106 34 32 66 58 72 58 20 0 21 -21 2 -67 -11
-26 -22 -65 -26 -85 -3 -21 -16 -61 -29 -90 -13 -29 -26 -71 -30 -93 -9 -51
-44 -170 -62 -213 -8 -18 -14 -45 -14 -60 0 -16 -16 -48 -40 -80 -22 -29 -40
-63 -40 -76 0 -38 -57 -204 -83 -239 -26 -37 -36 -57 -70 -147 -29 -76 -34
-94 -42 -139 -7 -41 -68 -162 -111 -218 -18 -23 -38 -59 -45 -80 -6 -21 -20
-54 -30 -73 -11 -19 -19 -44 -19 -55 0 -27 -49 -153 -74 -189 -10 -16 -25 -52
-32 -80 -18 -69 -41 -139 -71 -214 -14 -35 -27 -87 -29 -115 -2 -51 -12 -87
-40 -155 -8 -18 -14 -45 -14 -60 0 -15 -7 -38 -16 -50 -11 -16 -14 -34 -10
-56 3 -18 1 -77 -5 -132 -7 -54 -11 -110 -11 -124 1 -14 1 -38 1 -54 0 -16 5
-43 10 -60 6 -17 13 -89 16 -161 6 -138 14 -171 71 -292 19 -39 34 -82 34 -95
0 -14 7 -33 15 -44 8 -10 17 -40 21 -67 5 -33 23 -72 60 -130 30 -45 61 -98
70 -117 9 -19 28 -48 43 -65 26 -28 52 -68 111 -170 32 -54 69 -95 87 -95 8 0
56 -41 108 -91 86 -83 100 -93 148 -102 87 -17 478 -13 577 6 122 24 247 88
330 169 63 60 120 144 120 175 0 8 11 31 25 51 14 20 25 46 25 57 0 11 9 45
21 75 11 30 24 68 29 83 5 15 23 46 41 68 17 22 33 51 35 64 1 13 7 40 14 60
8 24 10 63 5 115 -5 59 -3 92 9 134 22 74 23 199 2 255 -15 41 -15 48 0 88 13
34 14 48 5 70 -7 19 -9 90 -6 218 3 105 4 204 4 220 -4 74 -1 126 25 350 2 17
0 80 -4 140 -3 61 -3 120 1 132 5 12 11 86 13 165 8 192 20 318 34 344 6 12
16 72 22 134 6 62 17 124 25 139 7 15 17 56 21 92 3 35 10 69 14 74 5 6 17 35
28 65 20 57 46 102 120 210 24 35 50 77 59 94 9 17 35 52 58 77 24 25 51 61
60 80 15 28 76 102 202 242 14 15 37 30 51 33 15 4 45 17 67 29 61 33 209 73
320 85 55 6 119 16 143 22 24 6 70 8 110 4 174 -17 209 -23 237 -38 17 -8 48
-19 70 -23 65 -11 234 -94 322 -157 91 -65 136 -116 158 -178 8 -23 24 -54 35
-70 11 -15 20 -31 20 -35 0 -4 16 -29 35 -55 19 -26 35 -55 35 -64 0 -9 9 -25
20 -36 11 -11 20 -26 20 -32 0 -7 13 -38 30 -68 16 -30 29 -68 30 -83 0 -16 5
-38 11 -49 6 -12 13 -44 15 -72 5 -95 17 -151 35 -175 13 -16 19 -41 19 -80 0
-40 6 -63 20 -81 11 -14 20 -37 20 -51 0 -14 9 -34 20 -44 13 -12 20 -31 20
-56 0 -25 8 -47 25 -67 21 -25 24 -37 19 -73 -8 -59 11 -195 40 -293 17 -57
23 -102 22 -151 -1 -47 3 -81 14 -105 9 -19 22 -66 29 -105 7 -38 19 -80 27
-92 8 -12 14 -32 14 -44 0 -13 9 -48 20 -78 11 -31 24 -85 30 -121 16 -106 26
-143 47 -185 11 -22 30 -69 41 -105 12 -36 32 -99 46 -140 13 -41 27 -113 31
-160 10 -128 41 -246 81 -305 19 -28 34 -60 34 -72 0 -11 15 -39 34 -62 19
-22 45 -58 57 -78 13 -21 49 -71 81 -112 34 -44 60 -87 64 -109 8 -41 62 -137
104 -185 15 -18 36 -46 46 -62 34 -55 107 -113 155 -124 24 -6 78 -21 119 -35
41 -13 109 -30 150 -36 41 -6 94 -16 118 -22 72 -18 155 6 217 62 29 26 63 50
78 53 30 8 89 87 125 167 14 30 36 67 50 82 36 39 55 93 59 168 2 36 4 90 6
120 1 30 8 66 14 80 14 32 35 382 38 620 2 265 15 460 32 493 8 16 13 41 12
56 -2 14 3 41 10 58 9 23 10 36 2 51 -8 14 -8 29 -1 47 6 15 7 37 4 49 -3 13
1 52 10 87 25 107 28 127 18 146 -6 11 -6 42 0 83 6 36 11 83 13 105 7 82 16
142 30 195 7 30 19 82 25 115 7 33 20 83 30 110 10 28 22 66 26 85 3 19 20 62
37 95 31 62 56 149 57 198 0 23 4 28 21 25 21 -3 22 -9 26 -128 5 -173 7 -342
5 -495 -1 -139 -1 -172 -2 -207 0 -13 0 -45 0 -73 1 -27 -3 -81 -8 -120 -5
-38 -7 -74 -4 -80 10 -16 23 -116 27 -205 3 -46 10 -97 16 -113 8 -19 9 -35 2
-50 -11 -25 -9 -91 7 -192 22 -134 22 -160 6 -200 -9 -20 -16 -57 -16 -82 0
-25 -9 -62 -21 -85 -15 -29 -22 -65 -24 -122 -4 -95 -13 -134 -45 -196 -26
-49 -36 -100 -48 -225 -4 -44 -13 -90 -20 -102 -7 -12 -12 -36 -12 -54 0 -18
-9 -58 -19 -88 -10 -31 -24 -85 -31 -121 -11 -63 -27 -111 -55 -175 -8 -16
-16 -48 -18 -70 -8 -66 -47 -208 -68 -241 -10 -17 -19 -43 -19 -57 0 -13 -15
-47 -33 -73 -19 -27 -37 -62 -41 -78 -4 -16 -17 -43 -30 -60 -13 -17 -28 -45
-35 -62 -7 -17 -39 -57 -72 -90 -32 -32 -59 -64 -59 -72 0 -14 -28 -45 -138
-157 -128 -131 -171 -163 -247 -186 -38 -12 -80 -29 -92 -37 -14 -9 -35 -12
-55 -9 -83 14 -330 49 -393 56 -71 9 -152 33 -260 78 -104 43 -149 71 -258
160 -29 23 -83 63 -121 89 -82 57 -384 356 -408 405 -9 19 -21 45 -27 59 -14
29 -26 50 -64 107 -18 25 -31 62 -36 96 -4 31 -16 66 -29 82 -12 15 -22 33
-22 40 0 7 -12 34 -26 60 -14 27 -23 57 -21 67 3 10 -7 33 -24 54 -16 20 -29
49 -29 63 0 14 -7 60 -16 101 -31 147 -43 216 -53 314 -8 67 -18 110 -32 132
-11 18 -22 43 -24 56 -3 13 -9 32 -14 43 -33 74 -83 348 -84 470 -1 61 -7 119
-13 130 -6 11 -15 74 -19 140 -10 176 -11 185 -24 240 -7 28 -16 68 -21 90
-30 132 -114 305 -150 305 -5 0 -30 13 -57 30 -30 18 -83 37 -141 49 -110 24
-124 20 -194 -55 -24 -25 -71 -69 -106 -96 -57 -46 -112 -117 -112 -147 0 -6
-13 -39 -29 -74 -53 -116 -70 -162 -76 -212 -4 -27 -20 -95 -36 -150 -25 -86
-29 -110 -23 -168 4 -40 2 -91 -4 -120 -22 -102 -42 -253 -41 -297 3 -90 -9
-247 -26 -339 -9 -51 -15 -107 -12 -125 3 -19 -4 -54 -18 -91 -33 -87 -65
-254 -65 -338 0 -21 -9 -55 -19 -75 -11 -21 -32 -89 -47 -152 -15 -63 -36
-126 -46 -139 -10 -13 -18 -35 -18 -50 0 -14 -5 -44 -11 -66 -11 -44 -106
-237 -147 -301 -69 -106 -101 -151 -122 -169 -12 -11 -29 -33 -37 -50 -9 -16
-35 -55 -58 -85 -22 -30 -53 -76 -68 -101 -21 -37 -38 -52 -84 -74 -32 -15
-80 -41 -108 -59 -53 -34 -129 -66 -158 -66 -10 0 -45 -11 -80 -25 -39 -16
-106 -31 -182 -41 -66 -8 -138 -20 -160 -26 -22 -6 -56 -10 -75 -11 -19 0 -84
-6 -144 -14 -60 -8 -125 -12 -145 -8 -20 3 -66 7 -103 10 -36 2 -79 10 -95 18
-15 8 -55 17 -88 21 -102 11 -215 26 -335 46 -63 11 -162 26 -219 35 -58 9
-132 27 -165 42 -34 14 -108 44 -166 68 -108 44 -126 57 -195 139 -63 75 -151
146 -201 165 -26 9 -50 23 -54 31 -5 8 -13 26 -19 40 -6 14 -30 48 -52 75 -54
67 -126 176 -164 250 -17 33 -57 110 -88 170 -34 66 -57 123 -57 142 0 17 -4
34 -10 38 -17 10 -72 128 -112 240 -44 120 -57 186 -63 315 -2 47 -7 103 -11
125 -7 39 -8 68 -6 150 0 22 0 58 -1 80 -1 22 2 52 6 68 6 23 1 33 -34 72 -53
57 -81 59 -139 7 l-43 -38 11 -48 c7 -32 7 -72 0 -123 -8 -55 -7 -87 1 -115
18 -58 31 -276 19 -310 -9 -26 -7 -33 21 -62 20 -21 31 -42 31 -61 1 -52 40
-176 65 -205 7 -8 15 -28 18 -45 11 -67 35 -137 54 -158 12 -12 30 -44 41 -70
12 -26 39 -74 62 -105 22 -32 40 -68 40 -80 0 -27 34 -96 66 -135 13 -16 24
-34 24 -41 0 -8 23 -42 50 -76 28 -34 50 -69 50 -76 0 -18 96 -115 145 -146
49 -32 103 -85 175 -173 30 -37 69 -74 85 -82 17 -9 56 -36 88 -61 50 -39 63
-45 102 -44 37 2 61 -7 142 -52 63 -35 119 -58 156 -65 32 -6 63 -13 68 -17
16 -10 138 -27 199 -28 60 -1 155 -20 211 -41 19 -7 73 -16 120 -20 46 -4 104
-16 129 -26 76 -30 173 -40 305 -30 260 20 382 34 418 47 20 8 56 14 80 14 24
0 72 13 112 31 43 18 108 35 169 44 80 11 107 20 140 43 23 16 70 44 104 61
35 18 82 45 103 61 44 31 149 145 149 161 0 5 17 28 38 52 59 65 132 166 132
182 0 7 4 16 9 19 5 3 23 30 39 59 16 28 42 63 56 76 14 14 26 29 26 35 0 6
20 53 45 104 25 51 45 98 45 105 0 7 7 32 15 57 8 25 26 86 41 135 15 50 36
108 47 129 10 22 23 62 27 90 16 104 50 283 64 336 31 117 37 147 40 220 4 75
13 144 42 330 8 52 14 109 14 125 -2 131 2 174 19 233 10 37 22 114 26 172 3
58 15 150 26 205 11 55 22 117 24 139 2 21 10 46 18 55 8 9 17 34 20 56 7 59
48 148 93 200 109 126 107 125 164 139 41 11 59 11 70 3 38 -28 80 -72 80 -84
0 -13 21 -66 46 -116 8 -16 14 -40 14 -53 0 -14 5 -35 12 -47 7 -12 15 -51 19
-87 4 -36 12 -92 18 -125 13 -68 17 -104 26 -258 3 -59 10 -119 15 -133 6 -14
10 -40 10 -59 0 -19 5 -46 11 -62 6 -15 15 -61 20 -102 4 -40 13 -79 18 -85
18 -21 52 -139 61 -206 4 -36 15 -91 24 -123 9 -32 16 -79 16 -105 0 -26 9
-74 20 -106 11 -33 20 -73 20 -90 0 -17 7 -41 15 -52 8 -12 21 -54 29 -94 9
-40 34 -110 56 -157 22 -46 40 -92 40 -103 0 -22 42 -113 109 -235 27 -49 62
-114 76 -144 15 -29 46 -75 69 -102 22 -27 54 -65 71 -85 16 -20 43 -43 60
-50 37 -15 56 -36 84 -92 18 -35 41 -56 120 -107 53 -35 105 -74 114 -88 9
-14 40 -39 70 -56 30 -17 71 -45 93 -62 21 -17 62 -41 90 -54 28 -13 88 -41
135 -63 79 -38 146 -56 249 -68 25 -3 63 -10 85 -14 22 -5 68 -10 102 -10 39
0 82 -8 114 -20 29 -12 59 -18 67 -15 8 3 32 0 53 -5 33 -9 48 -7 101 14 35
13 74 27 88 31 42 11 123 57 162 91 21 18 59 45 85 58 70 37 205 175 261 267
12 20 40 49 62 64 22 15 40 31 40 35 0 4 12 24 26 45 14 21 33 56 41 79 9 22
32 63 50 90 18 26 33 60 33 75 0 15 11 42 24 60 14 18 28 52 31 74 4 23 18 61
32 84 13 23 25 59 27 80 2 21 13 69 25 108 11 38 21 80 21 93 0 13 9 40 19 60
36 69 50 117 55 198 4 44 13 105 21 135 15 51 25 108 45 239 11 72 32 153 59
225 12 32 24 90 27 129 3 39 11 87 18 106 23 59 55 261 53 325 -2 33 -9 70
-15 83 -10 17 -10 36 -3 78 7 38 7 62 1 75 -6 10 -10 40 -9 66 1 27 -5 68 -12
93 -7 28 -13 120 -14 242 -2 108 -5 204 -8 212 -3 8 -2 29 3 48 26 95 28 690
3 731 -7 11 -18 115 -27 247 -11 156 -18 216 -30 244 -9 21 -10 40 -4 58 7 19
5 41 -6 72 -9 25 -19 65 -22 89 -4 23 -14 56 -22 72 -11 20 -16 62 -17 130 -1
55 -6 112 -13 126 -14 35 -56 67 -98 75 -41 8 -91 -24 -100 -64 -3 -15 -12
-42 -20 -60 -8 -18 -11 -39 -7 -45 9 -14 15 -106 14 -232 0 -105 -18 -228 -38
-268 -7 -15 -18 -78 -24 -140 -10 -112 -20 -196 -37 -294 -4 -28 -22 -74 -39
-101 -36 -59 -71 -168 -80 -254 -3 -35 -12 -72 -18 -83 -7 -11 -18 -47 -24
-80 -7 -33 -17 -76 -23 -96 -6 -20 -7 -45 -4 -57 4 -11 0 -51 -9 -89 -24 -99
-31 -199 -20 -264 4 -23 2 -46 -6 -60 -11 -21 -17 -54 -35 -204 -13 -108 -15
-238 -5 -248 17 -17 13 -41 -8 -54 -16 -10 -18 -28 -19 -200 -1 -103 -6 -221
-11 -261 -6 -42 -7 -81 -2 -90 5 -10 4 -50 -1 -92 -5 -41 -7 -86 -4 -100 7
-33 -21 -218 -46 -303 -11 -37 -17 -74 -15 -81 3 -7 -3 -26 -14 -42 -10 -16
-19 -37 -19 -47 0 -23 -43 -98 -71 -123 -12 -10 -27 -31 -35 -46 -18 -34 -52
-53 -136 -72 -69 -16 -97 -13 -155 18 -18 9 -65 21 -104 26 -102 15 -147 43
-198 128 -22 37 -41 71 -41 74 0 3 -16 32 -35 64 -19 32 -35 66 -35 75 0 22
-80 141 -127 190 -33 35 -103 160 -103 185 0 7 -11 25 -24 41 -27 33 -39 67
-61 185 -9 48 -23 101 -32 118 -10 21 -13 44 -9 70 4 25 1 51 -8 72 -8 18 -20
53 -27 78 -7 25 -25 72 -40 106 -15 33 -30 85 -34 115 -5 44 -35 190 -60 296
-3 12 -16 35 -30 51 -18 21 -26 46 -30 84 -2 29 -14 76 -27 103 -22 50 -32
127 -43 324 -3 51 -12 105 -19 120 -7 14 -16 62 -20 106 -4 44 -16 99 -26 123
-11 24 -22 59 -26 79 -9 49 -50 149 -75 182 -17 23 -18 30 -7 59 10 27 10 37
-4 65 -10 18 -17 57 -17 91 -1 32 -8 78 -16 102 -8 24 -23 76 -34 116 -26 97
-47 146 -82 186 -16 18 -36 49 -44 68 -8 19 -30 54 -50 76 -19 23 -35 51 -35
63 0 12 -11 32 -25 45 -14 13 -25 29 -25 36 0 12 -95 131 -155 194 -20 22
-101 62 -275 138 -25 10 -79 27 -120 37 -41 10 -99 26 -129 37 -30 10 -72 18
-93 18 -22 0 -71 7 -110 16 -75 17 -101 15 -308 -21 -47 -8 -119 -17 -160 -21
-82 -7 -179 -40 -251 -85 -25 -16 -55 -29 -67 -29 -28 0 -73 -40 -129 -114
-26 -33 -50 -63 -53 -66 -3 -3 -17 -21 -30 -40 -14 -19 -46 -59 -72 -88 -27
-29 -48 -58 -48 -65 0 -7 -31 -53 -70 -101 -38 -49 -70 -91 -70 -95 0 -3 -17
-25 -38 -49 -21 -24 -54 -69 -72 -100 -19 -31 -41 -66 -50 -77 -21 -26 -44
-100 -36 -114 8 -12 -14 -94 -38 -139 -9 -17 -15 -48 -14 -69 2 -55 -23 -224
-37 -253 -22 -43 -47 -201 -41 -255 3 -27 1 -86 -5 -130 -10 -75 -17 -280 -23
-615 -6 -380 -8 -433 -17 -482 -16 -78 -16 -208 -1 -240 15 -33 6 -105 -16
-131 -14 -16 -13 -19 7 -41 19 -20 20 -27 11 -52 -6 -16 -13 -85 -15 -154 -3
-141 -12 -192 -43 -241 -25 -41 -65 -152 -82 -229 -19 -83 -91 -180 -195 -265
-40 -32 -62 -42 -119 -52 -39 -7 -103 -12 -142 -13 -39 0 -107 -5 -152 -11
-85 -11 -119 -7 -217 27 -98 35 -221 134 -240 194 -7 22 -72 125 -113 180 -11
14 -28 43 -40 66 -11 22 -28 47 -38 55 -32 27 -64 88 -64 125 0 26 -9 46 -34
75 -33 39 -58 104 -62 164 -3 38 -19 108 -28 123 -13 22 -29 274 -29 457 0
144 6 174 52 275 12 27 21 66 21 98 0 31 8 68 19 90 10 20 24 64 31 97 8 33
19 71 25 85 7 14 16 41 20 60 4 19 28 85 54 145 27 61 56 137 66 170 18 60 96
205 121 226 8 6 14 19 14 29 0 9 9 29 20 43 11 14 20 32 20 41 0 9 6 27 14 39
8 12 17 38 21 57 19 92 77 234 118 289 14 18 33 59 42 90 9 31 22 76 29 101 8
25 17 65 21 89 5 30 18 55 40 78 21 21 31 41 28 52 -2 10 3 35 11 56 9 20 16
46 16 56 0 10 9 33 20 51 11 18 20 42 20 53 0 27 47 199 71 257 10 26 19 61
19 78 0 17 6 45 13 63 8 18 17 49 21 70 4 21 18 64 32 95 21 48 37 66 105 117
44 33 96 80 114 105 19 25 47 54 64 65 16 10 42 38 56 62 15 23 36 50 46 59
10 9 19 25 19 34 0 10 15 33 33 53 29 30 35 44 40 101 3 36 11 75 17 86 8 15
7 50 -2 128 l-12 107 -61 67 c-33 36 -71 81 -84 98 -38 50 -79 65 -144 52 -42
-8 -66 -8 -104 2 -77 20 -85 28 -89 77 -4 55 -10 97 -17 129 -4 14 -8 61 -11
105 -2 44 -9 95 -15 113 -28 83 -33 101 -46 152 -16 66 -43 141 -56 155 -13
13 -11 42 3 65 10 16 8 22 -12 42 -30 28 -73 127 -89 210 -5 20 -19 56 -33 80
-14 23 -28 62 -32 84 -6 41 -43 131 -64 156 -10 13 -58 102 -108 200 -13 26
-33 52 -44 58 -12 6 -29 30 -39 53 -10 23 -40 65 -67 94 -131 140 -185 208
-234 296 -11 21 -46 57 -78 80 -31 23 -82 61 -112 85 -83 65 -250 181 -293
203 -21 11 -83 49 -139 85 -56 36 -111 69 -122 74 -21 8 -229 105 -341 160
-153 74 -347 149 -401 154 -21 2 -65 16 -98 31 -32 15 -84 31 -115 35 -31 5
-89 13 -130 19 -84 12 -254 16 -270 7 -6 -4 -39 -2 -73 3 -89 14 -189 18 -288
11z m350 -212 c124 -5 248 -9 276 -9 72 2 353 -71 430 -112 17 -9 54 -25 82
-36 29 -12 75 -30 103 -41 28 -11 83 -37 122 -56 40 -20 118 -56 175 -80 57
-24 120 -55 140 -69 20 -14 40 -25 44 -25 5 0 40 -23 78 -51 38 -27 110 -75
160 -104 101 -61 182 -123 213 -162 11 -14 37 -33 58 -42 39 -18 109 -93 109
-117 0 -8 26 -43 58 -78 87 -98 177 -213 181 -233 1 -10 14 -32 27 -50 13 -17
24 -36 24 -41 0 -6 16 -29 35 -52 19 -22 38 -56 43 -74 5 -17 28 -56 50 -86
43 -56 92 -185 92 -240 0 -18 11 -42 30 -63 19 -22 31 -50 36 -78 6 -44 36
-149 59 -204 7 -16 20 -57 30 -90 9 -33 27 -87 40 -120 12 -33 32 -121 44
-195 12 -74 26 -148 31 -165 5 -16 12 -96 15 -178 6 -145 10 -176 39 -290 15
-61 20 -188 12 -327 -3 -47 -7 -132 -9 -191 -6 -151 -27 -181 -168 -249 -37
-18 -91 -55 -124 -87 -95 -90 -145 -124 -435 -293 -41 -24 -100 -67 -131 -95
-31 -27 -81 -65 -112 -84 -47 -27 -60 -31 -72 -21 -13 11 -13 15 0 33 8 12 15
43 15 70 0 26 7 62 16 78 13 27 14 43 4 121 -7 50 -13 112 -15 137 -3 50 -18
133 -34 196 -5 22 -15 59 -21 83 -10 43 -50 125 -93 191 -12 19 -67 81 -122
138 -71 73 -116 110 -154 129 -30 14 -74 39 -98 55 -24 17 -71 43 -106 59 -55
26 -97 36 -296 70 -81 15 -221 12 -252 -4 -15 -8 -64 -28 -109 -45 -45 -18
-139 -60 -209 -95 -69 -34 -153 -73 -186 -86 -33 -13 -77 -34 -97 -47 -25 -15
-53 -23 -85 -23 -27 0 -79 -7 -118 -16 -38 -8 -106 -17 -150 -19 -44 -2 -112
-7 -151 -11 -55 -5 -77 -3 -102 10 -17 9 -47 16 -68 16 -80 0 -344 113 -344
147 0 24 32 76 79 130 35 40 58 57 96 69 28 9 78 27 112 40 34 13 74 24 90 24
88 0 240 88 292 168 17 27 42 59 56 72 14 13 25 29 25 35 0 7 18 39 39 73 52
80 111 191 111 209 0 22 78 164 106 194 13 14 24 32 24 40 0 9 9 24 21 35 26
24 52 72 46 87 -2 7 6 26 20 44 13 18 25 49 27 70 2 21 8 47 14 58 18 30 62
195 62 229 0 16 5 44 12 62 9 26 9 41 -2 74 -15 47 -42 70 -80 70 -49 0 -69
-30 -104 -155 -10 -33 -24 -73 -32 -88 -8 -16 -14 -40 -14 -53 0 -42 -39 -155
-88 -253 -68 -136 -73 -144 -99 -164 -13 -10 -23 -29 -23 -42 0 -13 -4 -27
-10 -30 -19 -12 -62 -95 -75 -146 -8 -28 -22 -61 -33 -73 -10 -11 -38 -54 -61
-93 -58 -98 -117 -152 -225 -209 -79 -41 -98 -47 -149 -46 -32 1 -70 -3 -83
-8 -16 -7 -40 -6 -67 1 -23 6 -94 15 -157 18 -193 13 -350 39 -391 67 -19 13
-45 24 -56 24 -28 0 -193 87 -225 118 -9 10 -25 44 -37 77 -11 33 -29 84 -40
113 -11 29 -21 74 -22 100 -1 26 -11 59 -21 74 -10 14 -18 35 -18 46 0 11 -8
40 -18 64 -20 49 -21 123 -2 233 6 39 14 122 17 185 3 87 9 124 24 153 15 29
17 43 9 57 -7 14 -8 26 0 39 5 11 10 41 10 67 0 42 9 80 45 184 49 142 69 207
85 270 45 181 68 233 119 270 16 11 31 32 34 47 3 16 28 53 54 83 27 30 54 67
60 82 7 14 28 41 48 60 20 18 73 70 118 114 91 90 111 104 157 104 17 0 48 9
69 19 21 11 71 27 112 36 41 9 97 26 124 37 28 11 77 31 110 45 33 13 76 33
96 44 35 18 73 26 239 50 41 5 77 12 79 15 3 3 17 2 31 -1 14 -4 126 -11 250
-17z m3142 -2979 c25 -6 43 -20 52 -37 8 -15 28 -36 45 -47 39 -25 41 -30 47
-139 l6 -91 -36 -53 c-20 -30 -36 -58 -36 -63 0 -11 -146 -181 -165 -192 -35
-19 -44 20 -25 110 14 67 19 283 8 313 -5 14 -11 51 -13 82 -2 31 -10 66 -17
78 -11 18 -10 23 6 36 23 17 76 18 128 3z m-4571 -33 c30 -7 65 -19 78 -25 15
-8 43 -10 86 -6 71 8 155 -1 180 -18 14 -11 13 -19 -16 -75 -17 -35 -38 -66
-45 -69 -32 -12 -106 9 -142 41 -20 17 -72 49 -114 70 -81 40 -114 68 -103 85
8 13 7 13 76 -3z m2920 -673 c44 -49 58 -80 90 -200 45 -169 56 -244 41 -298
-8 -31 -9 -52 -2 -71 6 -14 8 -30 5 -35 -3 -5 -7 -42 -9 -84 -2 -60 -7 -82
-25 -106 -12 -16 -25 -46 -28 -64 -10 -62 -158 -175 -228 -175 -33 0 -100 -34
-146 -74 -20 -17 -55 -42 -78 -55 -22 -14 -47 -39 -55 -56 -20 -41 -50 -68
-73 -63 -16 3 -18 12 -15 73 2 39 9 93 17 120 31 116 34 131 29 150 -3 11 8
49 25 85 16 36 32 88 35 115 9 71 24 124 47 168 11 21 17 42 14 47 -4 6 3 35
14 66 12 30 21 66 21 81 0 30 27 76 92 157 26 33 48 67 48 76 0 39 111 170
143 170 8 0 25 -12 38 -27z m-128 -1240 c-14 -37 -55 -95 -104 -145 -49 -50
-51 -54 -32 -104 7 -20 -33 -42 -102 -54 -85 -15 -136 -15 -145 0 -18 29 62
117 124 136 30 9 56 34 56 55 0 27 75 92 128 111 64 22 83 23 75 1z m-915
-478 c166 -25 733 -24 804 1 50 17 87 18 93 1 3 -7 7 -41 10 -77 2 -36 8 -94
12 -130 5 -36 8 -96 6 -135 -3 -68 -3 -100 -3 -147 1 -244 -2 -332 -11 -355
-6 -15 -13 -100 -15 -188 -3 -88 -9 -182 -13 -210 -5 -27 -7 -92 -5 -143 l3
-93 -67 -31 c-84 -38 -176 -58 -267 -58 -38 0 -113 -5 -165 -11 -52 -6 -117
-12 -145 -14 -27 -1 -83 -13 -124 -25 -69 -21 -86 -23 -230 -17 -107 5 -198 2
-291 -7 -73 -8 -137 -13 -141 -10 -4 2 -56 9 -115 15 -60 6 -130 13 -156 16
-31 3 -63 -1 -92 -12 -39 -15 -58 -16 -149 -7 -74 7 -116 7 -145 -1 -66 -18
-72 -7 -76 159 -2 76 -9 153 -16 169 -6 17 -11 72 -10 125 2 94 -21 289 -40
343 -6 18 -6 46 0 78 8 40 6 59 -9 102 -14 38 -18 69 -14 117 2 36 5 107 7
158 1 55 7 97 14 104 25 25 1 88 -33 88 -41 0 -42 68 -2 94 41 27 214 45 473
50 158 2 260 8 273 15 11 6 85 16 163 22 79 6 179 14 223 18 127 12 146 12
253 -4z"/>
<path d="M1835 9569 c-35 -24 -51 -42 -53 -59 -4 -37 56 -132 113 -179 44 -36
56 -41 100 -41 80 1 123 52 132 161 5 53 3 60 -21 82 -41 38 -89 57 -158 63
-59 6 -66 4 -113 -27z"/>
<path d="M1167 9380 c-14 -11 -31 -36 -37 -54 -6 -19 -18 -40 -26 -46 -26 -22
-17 -67 24 -112 20 -24 42 -46 47 -51 15 -12 75 2 127 29 26 13 54 24 62 24
22 0 30 19 16 36 -8 9 -11 30 -7 57 6 46 -2 60 -61 110 -42 34 -106 37 -145 7z"/>
<path d="M3274 5144 c-67 -33 -88 -159 -63 -373 6 -54 6 -94 0 -115 -5 -17
-13 -54 -16 -83 -6 -47 -5 -53 17 -64 31 -18 151 -14 206 5 40 14 47 14 102
-5 48 -16 77 -19 172 -16 96 3 122 8 169 29 l56 26 5 67 c4 47 2 78 -9 103
-11 27 -13 69 -10 195 4 157 4 161 -18 183 -33 33 -67 38 -159 25 -82 -12
-101 -11 -186 14 -74 22 -229 27 -266 9z m221 -169 c33 -8 101 -14 151 -15
113 0 119 -5 105 -89 -5 -33 -7 -91 -5 -128 7 -88 -6 -108 -67 -106 -72 3
-212 34 -259 58 -40 20 -45 27 -48 61 -6 84 -6 200 1 217 8 21 41 22 122 2z"/>
<path d="M2710 4803 c-30 -8 -113 -19 -185 -24 -71 -5 -142 -14 -156 -18 -15
-5 -63 -7 -108 -4 l-80 6 -56 -42 c-71 -54 -75 -83 -12 -111 36 -16 72 -19
242 -21 176 -3 212 -1 303 19 207 45 265 102 188 185 -29 31 -53 32 -136 10z"/>
<path d="M2615 4420 c-176 -6 -182 -7 -270 -41 -49 -20 -111 -39 -136 -43 -52
-8 -76 -28 -85 -73 -5 -25 -1 -35 23 -57 60 -58 115 -60 222 -10 l76 36 209 5
c211 4 231 7 274 46 47 43 13 107 -70 132 -29 8 -54 14 -57 13 -3 -1 -87 -5
-186 -8z"/>
<path d="M8170 10864 c-195 -38 -322 -152 -387 -348 -25 -75 -27 -95 -27 -251
-1 -188 10 -250 64 -361 80 -163 264 -245 487 -217 98 13 274 65 293 88 15 19
4 72 -19 84 -11 6 -44 1 -101 -15 -176 -51 -294 -50 -392 3 -159 87 -223 340
-162 642 22 108 41 146 92 191 76 68 198 88 327 55 91 -23 107 -40 123 -121
15 -76 30 -94 79 -94 50 0 61 27 65 149 l3 105 -34 23 c-59 40 -156 64 -276
68 -60 2 -121 1 -135 -1z"/>
<path d="M9174 10856 c-152 -35 -268 -125 -334 -260 -57 -115 -74 -210 -67
-371 6 -141 22 -216 67 -312 79 -171 261 -255 487 -225 319 42 493 323 444
719 -29 235 -118 368 -292 434 -70 27 -220 34 -305 15z m228 -133 c148 -67
220 -214 219 -448 0 -122 -22 -255 -53 -328 -44 -101 -145 -152 -292 -145 -68
2 -93 9 -148 36 -111 54 -170 148 -196 311 -20 117 -6 287 33 410 22 68 32 86
72 121 62 55 116 70 228 67 65 -2 103 -9 137 -24z"/>
<path d="M5801 10837 c-7 -9 -11 -28 -9 -44 2 -24 10 -30 49 -43 85 -28 79 11
79 -475 0 -486 6 -447 -79 -475 -39 -13 -47 -19 -49 -43 -6 -55 3 -57 212 -57
206 0 216 2 216 51 0 34 -14 45 -70 53 -89 14 -90 17 -90 179 0 98 4 147 12
155 7 7 42 12 89 12 189 0 342 101 400 264 29 83 26 215 -5 282 -28 61 -84
109 -151 131 -74 24 -585 32 -604 10z m536 -128 c36 -18 54 -36 71 -69 21 -40
23 -55 19 -140 -6 -138 -40 -196 -136 -228 -46 -16 -203 -16 -219 0 -17 17
-17 439 1 457 9 10 39 12 114 9 83 -4 111 -9 150 -29z"/>
<path d="M6612 10838 c-18 -18 -15 -66 6 -76 9 -5 33 -12 53 -16 19 -3 47 -19
62 -34 14 -15 98 -158 186 -318 l161 -292 0 -130 c0 -147 2 -143 -81 -170 -47
-15 -54 -21 -57 -45 -6 -54 3 -57 203 -57 200 0 209 3 203 57 -3 24 -10 30
-58 46 -30 9 -61 25 -67 34 -9 11 -13 57 -13 141 l0 124 167 295 c91 162 173
303 182 314 9 11 39 27 66 37 42 15 51 22 53 46 6 53 -4 56 -197 56 -191 0
-201 -3 -201 -52 0 -29 23 -48 59 -48 27 0 69 -20 75 -35 2 -7 -48 -112 -112
-234 -97 -184 -120 -221 -137 -219 -14 2 -53 64 -144 227 l-124 224 22 19 c13
10 34 18 48 18 40 0 63 18 63 48 0 16 -5 33 -12 40 -17 17 -389 17 -406 0z"/>
<path d="M9961 10836 c-7 -8 -11 -27 -9 -43 2 -21 10 -30 33 -36 17 -5 41 -14
55 -21 l25 -12 3 -441 c3 -495 9 -455 -77 -483 -39 -13 -47 -19 -49 -43 -6
-54 4 -57 198 -57 194 0 204 3 198 57 -2 24 -10 30 -49 43 -85 28 -80 -1 -77
394 3 303 5 351 18 353 10 2 101 -133 270 -400 140 -221 265 -412 277 -424 17
-18 33 -23 71 -23 26 0 53 5 60 12 9 9 12 132 12 493 0 521 0 522 55 539 68
20 75 25 75 54 0 49 -10 52 -195 52 -184 0 -195 -3 -195 -52 0 -29 23 -48 58
-48 11 0 31 -9 46 -21 l26 -21 -2 -351 c-3 -303 -5 -352 -18 -354 -10 -2 -101
132 -275 404 -143 225 -268 416 -277 425 -15 15 -37 18 -132 18 -87 0 -116 -3
-125 -14z"/>
<path d="M8640 8710 c-189 -36 -312 -149 -377 -345 -25 -74 -27 -93 -27 -255
-1 -156 1 -183 22 -250 32 -102 67 -162 124 -216 96 -90 240 -128 405 -107 98
13 274 65 293 88 15 19 4 72 -19 84 -11 6 -44 1 -101 -15 -176 -51 -294 -50
-392 3 -143 78 -212 297 -175 554 24 170 40 216 97 271 78 75 199 98 335 63
91 -23 107 -40 123 -121 15 -76 30 -94 79 -94 50 0 61 27 65 149 l3 105 -34
23 c-80 55 -297 87 -421 63z"/>
<path d="M9310 8685 c-17 -21 -10 -216 9 -239 17 -20 65 -21 81 -1 7 9 15 38
18 66 7 78 10 79 265 79 179 0 219 -3 223 -14 3 -9 -120 -190 -304 -449 -170
-238 -315 -443 -321 -455 -15 -27 -14 -95 1 -110 17 -17 809 -17 826 0 8 8 12
51 12 128 0 128 -5 140 -56 140 -41 0 -55 -19 -62 -78 -8 -84 -1 -82 -284 -82
-206 0 -250 2 -254 14 -3 9 122 194 310 457 304 427 316 445 316 489 0 25 -5
51 -12 58 -9 9 -108 12 -384 12 -317 0 -373 -2 -384 -15z"/>
</g>
</svg>
