<?xml version="1.0" standalone="no"?>
<!DOCTYPE svg PUBLIC "-//W3C//DTD SVG 20010904//EN"
 "http://www.w3.org/TR/2001/REC-SVG-20010904/DTD/svg10.dtd">
<svg version="1.0" xmlns="http://www.w3.org/2000/svg"
 width="1189.862218pt" height="1340.431929pt" viewBox="0 0 1189.862218 1340.431929"
 preserveAspectRatio="xMidYMid meet">
<metadata>
Created by potrace 1.13, written by Peter Selinger 2001-2015
</metadata>
<g transform="translate(-119.002940,1378.790707) scale(0.100000,-0.100000)"
fill="#000000" stroke="none">
<path d="M4455 13780 c-27 -5 -81 -13 -119 -19 -47 -7 -84 -19 -115 -40 -25
-16 -71 -44 -101 -61 -30 -17 -74 -49 -97 -73 -23 -23 -71 -70 -105 -105 -35
-35 -90 -89 -123 -121 -34 -32 -75 -85 -94 -120 -22 -42 -49 -74 -82 -99 -44
-32 -49 -40 -49 -75 0 -75 79 -115 108 -55 18 39 83 56 128 35 55 -27 159
-132 172 -174 20 -68 -16 -190 -72 -242 -14 -14 -26 -32 -26 -41 0 -8 -22 -38
-50 -65 -27 -27 -50 -56 -50 -64 0 -20 50 -71 69 -71 9 0 36 13 60 29 24 16
72 37 106 46 57 16 64 16 93 1 55 -28 151 -168 138 -202 -3 -7 6 -38 19 -69
14 -30 28 -74 31 -98 3 -23 13 -64 21 -92 8 -27 18 -81 23 -120 6 -53 13 -73
30 -87 30 -24 81 -23 108 2 26 24 28 52 7 84 -10 14 -15 42 -14 67 1 24 -1 55
-5 69 -5 19 2 38 29 80 20 30 38 66 41 80 21 97 61 193 90 221 13 12 31 45 40
73 33 100 71 160 143 228 93 87 161 115 238 98 66 -14 81 -31 59 -65 -29 -44
-17 -103 26 -126 11 -6 75 -19 140 -29 156 -23 162 -29 120 -111 -18 -34 -32
-71 -32 -81 0 -11 -9 -31 -20 -45 -11 -14 -20 -38 -20 -54 0 -16 -9 -43 -20
-61 -11 -18 -20 -46 -20 -62 0 -31 -24 -112 -48 -163 -9 -19 -12 -44 -9 -63 4
-16 2 -41 -3 -55 -5 -14 -14 -59 -19 -102 -8 -64 -6 -93 10 -172 11 -52 18
-104 15 -116 -3 -11 3 -47 13 -80 10 -33 22 -96 25 -140 4 -44 17 -105 28
-135 48 -127 71 -176 104 -221 18 -26 34 -51 34 -57 0 -5 19 -32 43 -58 24
-27 55 -66 70 -88 34 -51 136 -156 151 -156 14 0 84 -49 137 -96 20 -18 62
-39 93 -48 31 -9 72 -30 91 -47 35 -31 111 -65 175 -78 19 -4 51 -13 70 -19
50 -15 137 -32 169 -32 37 0 74 -28 65 -49 -4 -9 -8 -54 -8 -101 -1 -69 -6
-92 -22 -115 -12 -17 -26 -45 -33 -64 -21 -64 31 -105 104 -81 28 9 44 9 83
-3 26 -9 70 -18 97 -21 28 -3 93 -17 145 -30 110 -27 216 -32 377 -16 129 12
156 20 178 53 14 22 13 30 -15 110 -33 96 -38 148 -15 167 8 7 35 14 61 15
110 8 222 39 369 103 108 47 148 76 261 190 81 82 102 110 138 187 69 144 121
317 136 453 9 73 14 98 39 199 6 24 10 69 9 100 -1 32 7 85 16 118 16 53 18
92 13 355 -2 162 -9 306 -14 320 -6 14 -14 47 -18 75 -4 27 -13 58 -21 69 -8
11 -14 28 -14 37 0 21 -59 163 -100 241 l-20 37 29 20 c16 12 62 35 102 52
l73 31 61 -65 c33 -36 88 -86 123 -112 34 -25 69 -60 78 -77 9 -16 33 -55 55
-87 21 -31 39 -63 39 -72 0 -8 4 -19 9 -25 5 -5 23 -47 41 -94 17 -47 38 -101
46 -120 13 -33 35 -142 36 -185 0 -11 -8 -41 -18 -68 -23 -58 -14 -76 45 -96
41 -13 42 -12 109 28 38 23 72 41 78 41 5 0 23 7 39 16 17 9 62 27 101 39 64
22 81 23 171 16 108 -8 170 -31 214 -77 19 -21 24 -36 24 -79 0 -82 47 -113
115 -77 34 19 35 21 37 83 2 98 11 182 21 209 13 34 26 173 29 305 3 144 6
177 27 253 39 144 -19 479 -110 637 -13 22 -34 69 -48 105 -13 36 -31 79 -39
95 -9 17 -24 50 -34 75 -11 28 -47 74 -93 121 -79 80 -157 125 -263 153 -29 8
-65 20 -82 26 -41 17 -361 25 -496 12 -111 -11 -146 -24 -224 -90 -16 -14 -55
-36 -85 -49 -63 -28 -103 -63 -131 -113 -51 -90 -108 -155 -155 -175 -20 -8
-44 -26 -55 -39 -10 -13 -45 -41 -76 -62 -32 -20 -78 -56 -103 -78 -140 -127
-144 -129 -188 -97 -15 10 -38 22 -52 26 -14 4 -45 18 -70 31 -25 13 -54 24
-65 24 -11 1 -31 7 -45 15 -14 8 -42 14 -62 15 -21 0 -57 6 -80 14 -24 7 -86
19 -138 26 -117 15 -202 36 -252 61 -21 11 -58 19 -85 19 -26 0 -70 7 -98 15
-72 22 -326 13 -455 -16 -52 -11 -122 -24 -155 -28 -54 -6 -72 -15 -170 -83
-61 -42 -118 -85 -128 -96 -21 -23 -114 -56 -143 -50 -16 3 -79 83 -144 185
-19 28 -37 40 -107 69 -25 10 -123 122 -123 139 0 6 -13 24 -30 40 -16 16 -30
34 -30 41 0 19 -162 159 -219 189 -19 9 -52 30 -73 45 -46 34 -106 55 -202 71
-38 6 -105 25 -148 40 -80 30 -121 33 -213 19z m197 -163 c53 -24 69 -28 158
-41 79 -12 91 -17 172 -74 48 -33 111 -76 141 -95 30 -20 74 -61 98 -92 24
-31 61 -76 81 -99 35 -39 68 -101 68 -125 0 -6 -13 -25 -28 -43 -16 -18 -31
-40 -35 -50 -12 -33 -79 -117 -99 -123 -14 -5 -28 1 -48 20 -17 16 -50 31 -85
40 -106 24 -256 -19 -316 -91 -8 -9 -37 -34 -66 -55 -28 -21 -55 -49 -58 -61
-4 -13 -13 -30 -21 -38 -7 -9 -23 -47 -35 -85 -11 -39 -38 -102 -60 -141 -21
-39 -39 -77 -39 -83 0 -7 -9 -32 -20 -57 -11 -24 -25 -55 -30 -69 -13 -33 -50
-35 -50 -2 0 13 -7 32 -15 43 -8 10 -15 27 -15 37 0 24 -26 74 -62 118 -40 50
-104 94 -171 119 -66 25 -75 35 -53 59 18 19 31 58 46 131 10 50 -2 140 -27
202 -18 42 -110 125 -191 171 -30 16 -56 36 -59 43 -9 24 48 90 151 174 57 47
113 102 125 122 17 30 44 50 129 95 59 32 127 61 152 65 68 10 224 2 262 -15z
m4548 -77 c70 -11 146 -35 170 -55 8 -7 33 -22 55 -33 44 -22 135 -113 135
-135 0 -8 9 -22 20 -32 11 -10 20 -22 20 -28 0 -5 24 -59 54 -121 75 -153 94
-208 106 -301 5 -44 16 -114 24 -155 19 -98 20 -226 1 -279 -9 -25 -14 -82
-15 -148 0 -60 -3 -159 -6 -221 -5 -104 -8 -114 -29 -128 -21 -14 -27 -13 -72
7 -30 14 -71 23 -108 25 -33 1 -96 7 -140 12 -85 11 -98 9 -252 -39 -39 -12
-78 -19 -85 -16 -8 3 -20 31 -27 63 -22 97 -42 166 -67 227 -13 32 -24 64 -24
71 0 7 -14 34 -32 62 -17 27 -44 75 -60 108 -18 36 -54 83 -97 125 -193 187
-231 226 -235 241 -2 8 -7 27 -10 41 -3 15 -22 47 -42 70 -21 24 -46 64 -57
88 -10 24 -31 63 -46 86 -15 24 -33 61 -40 83 -13 38 -12 43 15 96 39 78 80
118 182 178 48 28 107 64 131 80 25 15 56 29 70 29 349 18 330 18 461 -1z
m-2378 -483 c41 -20 89 -37 106 -37 17 0 66 -11 109 -25 43 -14 112 -30 153
-36 271 -35 274 -36 565 -174 39 -19 95 -45 125 -58 38 -17 84 -53 146 -115
78 -76 98 -103 133 -177 23 -48 48 -104 55 -124 8 -20 21 -54 29 -76 8 -22 23
-69 33 -104 l18 -64 -31 -27 c-27 -24 -43 -29 -116 -35 -101 -8 -153 5 -244
63 -32 21 -87 46 -122 57 -36 11 -76 29 -91 41 -33 28 -224 100 -385 146 -105
30 -128 43 -243 140 -66 56 -94 98 -119 181 -17 59 -35 89 -77 135 -39 42 -81
65 -106 57 -28 -9 -89 -80 -95 -112 -38 -178 -144 -270 -439 -383 -27 -11 -57
-27 -67 -36 -10 -9 -39 -20 -65 -25 -45 -9 -313 -133 -364 -169 -14 -10 -50
-26 -80 -36 -29 -10 -70 -32 -90 -50 -45 -41 -152 -79 -180 -64 -11 6 -20 17
-20 25 0 34 33 147 65 225 19 46 35 90 35 98 0 19 36 86 54 101 9 8 16 21 16
31 0 10 25 53 55 96 31 44 63 92 73 108 9 16 28 38 41 50 13 12 34 37 47 57
18 29 39 43 100 69 85 35 141 68 163 94 8 10 33 27 55 38 23 11 64 36 92 54
33 22 63 34 85 34 19 0 63 9 97 20 35 11 92 20 125 21 34 0 87 7 117 14 91 22
156 14 242 -28z m1414 35 c6 -4 15 -18 19 -32 4 -14 27 -60 51 -102 24 -42 44
-84 44 -93 0 -24 -63 -87 -124 -124 -67 -40 -71 -39 -162 41 -34 29 -77 65
-95 79 -33 26 -33 26 -16 53 10 15 41 42 70 61 29 18 78 54 111 79 57 45 79
53 102 38z m-2676 -127 c14 -28 36 -68 49 -89 28 -45 24 -57 -44 -134 -44 -49
-50 -53 -93 -53 -26 0 -73 -1 -105 -1 -46 -1 -62 3 -78 18 -20 20 -19 20 13
63 18 24 47 65 63 90 34 54 70 101 103 137 34 38 62 29 92 -31z m1300 -467
c91 -184 222 -268 595 -383 66 -20 149 -54 185 -75 36 -21 85 -44 109 -50 24
-6 77 -32 118 -56 41 -25 89 -52 108 -60 40 -16 204 -24 250 -12 49 13 62 3
68 -55 3 -28 2 -95 -2 -147 -5 -52 -5 -105 0 -116 4 -13 2 -41 -7 -70 -7 -27
-18 -89 -23 -139 -6 -49 -17 -128 -26 -175 -15 -78 -23 -128 -41 -235 -3 -22
-10 -45 -15 -51 -5 -6 -18 -41 -29 -77 -53 -172 -144 -310 -256 -387 -81 -56
-207 -116 -274 -131 -25 -5 -76 -21 -113 -36 -52 -19 -81 -24 -119 -21 -28 3
-68 1 -90 -5 -31 -8 -61 -5 -141 11 -168 35 -206 42 -240 42 -18 0 -53 7 -79
15 -111 35 -147 44 -228 60 -47 8 -104 20 -128 25 -23 6 -60 10 -82 10 -21 0
-49 4 -62 9 -13 5 -57 19 -98 31 -41 12 -93 31 -115 43 -22 11 -96 49 -163 83
-149 76 -214 124 -292 218 -32 39 -71 84 -87 101 -15 16 -35 42 -43 56 -8 15
-32 56 -52 91 -21 36 -38 70 -38 77 0 6 -13 41 -30 78 -20 43 -31 87 -34 127
-2 33 -13 124 -24 201 -11 77 -22 175 -25 218 -6 83 -6 82 48 78 60 -5 188 45
291 113 108 72 369 197 586 281 210 82 259 104 298 133 68 50 175 169 199 220
15 32 31 52 40 51 10 0 34 -36 61 -91z m-125 -2313 c54 -14 106 -30 116 -36
18 -9 74 -18 234 -39 77 -10 143 -25 153 -35 10 -9 31 -96 32 -127 0 -40 -30
-54 -140 -66 -96 -10 -168 -5 -205 15 -11 6 -47 14 -80 18 -33 4 -80 16 -105
27 -25 10 -64 22 -88 25 -23 3 -44 9 -47 13 -2 4 3 44 13 89 14 66 14 85 4
102 -12 20 -9 39 7 39 5 0 53 -11 106 -25z"/>
<path d="M7306 11995 c-55 -20 -77 -44 -78 -91 -3 -88 56 -154 139 -154 55 0
71 7 87 39 16 31 29 141 20 164 -9 24 -67 57 -100 57 -16 -1 -47 -7 -68 -15z"/>
<path d="M6144 11879 c-44 -13 -61 -37 -69 -99 -6 -48 -4 -58 14 -74 12 -11
21 -24 21 -31 0 -12 25 -27 71 -44 21 -7 36 -5 67 11 46 22 48 26 57 123 8 80
-3 97 -65 110 -19 3 -42 8 -50 10 -8 2 -29 -1 -46 -6z"/>
<path d="M7572 11414 c-7 -3 -30 -43 -51 -88 -22 -46 -53 -99 -70 -118 -17
-20 -31 -43 -31 -51 0 -9 -21 -38 -48 -66 -53 -55 -212 -138 -377 -195 -27
-10 -72 -22 -98 -26 -26 -5 -62 -16 -79 -24 -35 -18 -125 -20 -203 -5 -27 5
-75 13 -105 18 -30 6 -72 15 -92 21 -47 14 -215 140 -239 180 -25 40 -92 59
-120 34 -41 -37 -16 -146 43 -189 82 -58 184 -119 230 -137 116 -44 135 -50
208 -59 179 -22 188 -22 273 -1 45 11 120 28 167 38 92 18 234 71 290 108 19
12 58 30 85 39 31 11 66 33 93 60 45 45 151 202 186 277 12 25 29 56 38 70 21
31 13 76 -16 95 -26 17 -67 26 -84 19z"/>
<path d="M3005 10791 c-21 -24 -18 -71 15 -186 29 -107 33 -194 9 -273 -10
-34 -23 -72 -29 -83 -7 -11 -13 -59 -14 -106 -5 -126 -7 -127 -152 -63 -66 29
-141 61 -169 70 -116 41 -339 148 -380 182 -16 13 -57 43 -90 65 -33 22 -94
77 -135 122 -80 86 -111 100 -142 64 -39 -47 -40 -76 -8 -246 6 -32 8 -62 5
-67 -6 -9 -18 -161 -18 -219 0 -26 8 -41 31 -63 38 -33 79 -36 115 -8 36 29
41 67 19 136 -11 33 -22 90 -25 127 -5 57 -4 69 10 74 9 3 22 2 29 -3 7 -5 46
-32 87 -60 75 -53 152 -95 197 -109 14 -4 43 -20 65 -35 40 -27 131 -66 305
-129 47 -17 101 -40 120 -50 131 -72 151 -81 175 -75 48 12 61 44 74 174 7 66
20 142 30 168 24 62 38 127 51 236 10 77 9 94 -6 125 -10 20 -20 74 -23 124
-6 77 -10 92 -30 108 -31 25 -92 25 -116 0z"/>
<path d="M11255 10759 c-49 -5 -146 -14 -215 -20 -69 -7 -153 -9 -185 -5 -162
18 -175 18 -243 1 -51 -12 -82 -27 -118 -57 -27 -23 -78 -54 -114 -71 -86 -39
-189 -117 -229 -172 -18 -25 -36 -45 -41 -45 -8 0 -140 -184 -140 -196 0 -4
-13 -28 -28 -53 -16 -25 -34 -63 -41 -83 -7 -20 -25 -63 -40 -95 -67 -137
-116 -284 -131 -392 -26 -186 -33 -583 -12 -711 6 -41 17 -112 22 -158 6 -45
19 -113 30 -150 37 -136 62 -217 70 -227 11 -15 40 -120 50 -183 16 -96 115
-257 249 -404 64 -70 136 -152 161 -182 25 -30 61 -68 81 -83 20 -15 45 -41
57 -57 l22 -30 -36 -37 c-20 -21 -55 -44 -78 -52 -22 -8 -56 -21 -73 -28 -38
-16 -77 -5 -154 43 -26 15 -71 37 -100 47 -52 18 -152 71 -207 110 -15 10 -88
48 -162 84 -74 36 -174 94 -223 129 -141 102 -178 126 -254 165 -40 20 -103
61 -139 92 -36 31 -87 71 -113 88 -91 64 -87 60 -73 80 7 10 20 31 30 47 9 16
36 51 60 78 23 27 42 54 42 61 0 7 10 28 22 47 43 69 71 146 78 220 5 47 4 80
-2 88 -16 20 -60 14 -100 -13 -38 -26 -40 -29 -79 -173 -11 -41 -33 -91 -52
-116 -17 -24 -54 -74 -80 -110 -28 -39 -55 -66 -66 -66 -34 0 -87 23 -182 82
-57 34 -143 75 -210 99 -63 22 -134 53 -159 69 -25 16 -92 52 -150 80 -58 28
-109 55 -114 60 -6 6 -1 20 15 37 14 16 47 57 74 93 26 36 83 99 126 141 66
62 79 80 79 106 0 33 -38 73 -69 73 -24 0 -77 -35 -116 -77 -78 -86 -125 -144
-125 -157 0 -7 -12 -23 -26 -37 -14 -13 -34 -38 -46 -57 -11 -18 -33 -39 -48
-47 -26 -13 -34 -12 -106 15 -44 15 -96 36 -116 44 -21 9 -48 16 -60 16 -13 0
-51 13 -86 30 -84 40 -164 62 -362 100 -30 6 -87 20 -127 30 -39 11 -136 24
-215 30 -133 10 -145 13 -165 36 -13 14 -23 37 -23 51 0 58 -57 149 -150 236
-115 108 -135 118 -236 112 -129 -6 -203 -29 -366 -109 l-153 -74 -78 -114
c-44 -62 -82 -119 -86 -125 -4 -8 -36 -15 -75 -18 -164 -12 -231 -34 -304 -99
-55 -49 -235 -95 -248 -62 -8 22 23 62 63 81 22 11 45 34 61 63 46 79 192 211
361 325 42 28 114 85 161 127 47 42 112 96 145 120 175 127 201 195 83 214
-41 7 -44 6 -83 -36 -22 -24 -67 -62 -100 -85 -33 -22 -74 -54 -90 -70 -17
-17 -50 -44 -75 -61 -25 -17 -63 -48 -85 -68 -22 -20 -71 -58 -109 -83 -38
-25 -83 -56 -100 -67 -55 -39 -141 -128 -180 -187 -21 -31 -64 -80 -95 -107
-46 -42 -67 -72 -121 -177 l-65 -128 -95 -65 c-107 -73 -268 -230 -333 -323
-78 -114 -86 -133 -96 -230 -6 -51 -14 -105 -18 -122 -10 -35 -10 -83 0 -180
18 -166 28 -202 92 -350 32 -72 75 -248 95 -385 9 -60 46 -202 72 -275 6 -16
14 -59 19 -95 5 -36 17 -96 28 -134 18 -64 18 -74 5 -110 -30 -81 -43 -122
-54 -164 -8 -32 -21 -50 -53 -73 -39 -28 -47 -30 -109 -27 -109 6 -141 60 -77
132 16 19 33 50 36 69 4 29 1 37 -22 55 -36 28 -77 28 -108 0 -14 -13 -43 -65
-66 -117 -38 -88 -39 -95 -27 -126 15 -36 88 -91 146 -111 66 -22 202 -28 262
-10 62 18 133 84 143 133 15 68 35 124 54 147 7 9 15 50 17 98 2 46 7 96 9
112 3 18 -2 41 -16 63 -12 19 -22 54 -23 81 -1 26 -6 54 -11 61 -4 8 -14 41
-21 75 -7 34 -20 81 -30 106 -10 25 -23 88 -30 140 -6 52 -17 109 -22 125 -6
17 -21 68 -33 115 -11 47 -38 123 -59 170 -58 128 -65 176 -64 420 0 201 2
218 22 257 12 23 31 47 42 53 11 6 32 30 47 53 14 22 61 77 104 120 44 44 79
84 79 89 0 5 10 8 23 6 19 -3 22 -8 19 -40 -2 -20 4 -65 12 -100 9 -34 20 -99
25 -143 14 -127 69 -295 107 -326 8 -6 14 -25 14 -42 0 -64 90 -192 163 -232
34 -18 36 -18 93 0 83 25 279 128 339 176 28 23 75 54 105 69 30 15 66 40 80
55 14 15 48 37 76 50 31 14 87 56 141 106 116 110 134 124 183 149 51 26 108
24 124 -5 17 -31 37 -42 83 -49 57 -8 140 -65 224 -154 36 -39 105 -96 152
-126 47 -31 96 -69 109 -84 38 -45 88 -78 170 -112 51 -21 108 -56 164 -101
48 -38 92 -69 98 -69 6 0 22 -6 36 -14 14 -7 54 -29 90 -48 87 -46 163 -89
175 -98 6 -4 26 -10 45 -14 185 -35 233 -45 270 -55 119 -34 141 -41 168 -55
17 -9 41 -16 54 -16 26 0 88 35 88 49 0 5 60 39 133 75 118 58 227 133 250
171 4 8 36 37 72 65 36 28 65 57 65 64 0 6 13 27 30 46 113 132 142 169 166
214 49 94 106 175 126 182 22 7 39 -4 211 -128 64 -46 145 -101 182 -123 68
-41 122 -80 202 -148 53 -44 137 -88 209 -110 28 -8 71 -30 95 -49 24 -18 105
-64 179 -102 74 -38 142 -75 151 -83 9 -7 44 -24 79 -38 81 -32 110 -59 110
-101 0 -18 9 -53 20 -79 13 -30 20 -69 20 -111 0 -35 4 -83 10 -106 5 -24 14
-92 21 -153 6 -60 14 -115 16 -122 11 -28 186 -153 295 -211 65 -34 124 -62
131 -62 8 0 69 -18 136 -41 112 -37 173 -49 329 -66 55 -6 75 -24 53 -46 -20
-20 -11 -48 33 -100 42 -50 101 -164 143 -277 37 -97 83 -248 83 -270 0 -11 6
-33 14 -48 28 -55 55 -149 62 -212 3 -36 13 -81 21 -100 8 -19 20 -71 28 -115
27 -164 65 -372 81 -433 9 -38 19 -149 25 -290 5 -125 10 -236 10 -247 1 -11
-5 -83 -12 -160 -7 -77 -11 -167 -9 -200 7 -148 -4 -326 -25 -400 -14 -53 -42
-304 -51 -465 -7 -129 -9 -146 -34 -215 -23 -65 -46 -165 -60 -260 -5 -33 -19
-96 -31 -140 -12 -44 -26 -96 -31 -115 -5 -19 -13 -53 -17 -75 -26 -135 -186
-393 -297 -477 -167 -128 -205 -150 -265 -155 -95 -9 -156 16 -227 92 -33 34
-70 81 -83 103 -13 22 -58 91 -100 153 -42 63 -91 141 -109 174 -18 33 -38 67
-45 75 -6 8 -38 62 -70 120 -32 58 -72 121 -89 140 -50 55 -89 118 -137 215
-33 68 -59 106 -109 155 -93 92 -133 146 -171 226 -40 85 -103 154 -142 154
-21 0 -46 20 -115 92 -191 200 -288 287 -347 310 -24 9 -73 37 -108 61 -36 25
-89 52 -118 62 -30 9 -70 22 -89 29 -19 8 -57 19 -85 25 -29 7 -71 28 -100 51
-27 21 -98 59 -157 85 -128 56 -143 70 -134 125 5 29 2 47 -10 66 -14 20 -15
32 -7 62 6 20 8 95 6 167 -9 250 -2 312 37 332 23 11 107 31 285 67 39 8 84
19 100 24 92 30 136 42 190 51 93 15 213 54 420 136 238 94 269 110 328 164
58 54 60 76 11 146 -22 32 -38 69 -41 96 -4 24 -17 58 -30 75 -12 17 -23 39
-23 49 0 10 -20 59 -44 109 -24 50 -47 109 -51 131 -4 25 -19 53 -39 75 -44
47 -72 99 -108 195 -28 76 -52 124 -148 295 -23 41 -51 104 -62 140 -11 36
-42 110 -68 165 -51 102 -150 346 -150 368 0 7 -9 23 -20 37 -11 14 -20 41
-20 62 0 32 -5 41 -45 68 -46 32 -49 37 -76 161 -9 42 -9 83 -2 160 6 57 9
160 7 229 -3 104 -6 127 -20 137 -24 17 -85 16 -109 -1 -18 -13 -18 -19 -7
-88 12 -69 9 -361 -3 -443 -3 -19 1 -39 10 -50 38 -51 8 -127 -72 -186 -32
-24 -80 -64 -108 -89 -27 -25 -84 -66 -125 -90 -41 -23 -91 -53 -110 -65 -19
-12 -53 -28 -75 -35 -22 -7 -60 -22 -85 -35 -25 -12 -64 -28 -85 -35 -22 -7
-60 -23 -85 -36 -43 -21 -166 -54 -255 -68 -22 -3 -78 -15 -125 -26 -212 -49
-288 -58 -475 -55 -156 2 -186 5 -225 22 -98 45 -193 73 -243 73 -58 0 -139
33 -227 94 -29 20 -70 39 -92 42 -55 9 -85 51 -103 149 -8 42 -15 95 -15 118
-1 23 -7 53 -15 67 -10 18 -12 46 -8 100 3 41 0 130 -6 197 -7 66 -14 174 -17
240 -2 69 -11 138 -20 167 -10 28 -14 63 -11 83 5 30 2 39 -26 64 -40 37 -64
37 -106 -1 -35 -33 -37 -47 -13 -115 13 -37 27 -131 43 -290 18 -177 20 -208
24 -343 2 -68 9 -139 16 -159 7 -23 9 -72 5 -144 -5 -106 -5 -111 20 -149 26
-39 26 -40 10 -80 -9 -22 -16 -50 -16 -61 0 -11 -18 -55 -40 -97 -57 -109
-110 -232 -110 -252 0 -16 -21 -71 -55 -145 -32 -69 -58 -134 -76 -195 -11
-36 -38 -101 -59 -145 -21 -44 -46 -96 -55 -115 -8 -19 -31 -57 -51 -85 -46
-66 -104 -179 -104 -205 0 -11 -9 -56 -20 -99 -11 -43 -20 -91 -19 -107 2 -16
-5 -43 -13 -59 -9 -17 -19 -47 -23 -66 -10 -52 26 -79 106 -79 52 0 60 -3 76
-26 31 -48 88 -74 206 -95 234 -40 264 -48 352 -84 86 -35 97 -37 260 -46 181
-10 322 -32 343 -53 7 -7 15 -35 17 -62 3 -27 7 -65 10 -84 3 -19 7 -128 9
-242 2 -173 6 -211 20 -232 22 -34 68 -35 101 -1 21 20 25 34 25 79 0 30 -5
67 -11 83 -14 36 -19 432 -6 440 8 4 176 11 426 17 29 1 46 -4 51 -14 20 -38
31 -128 34 -275 3 -88 9 -172 15 -187 22 -59 83 -60 126 -4 26 34 26 35 11 86
-9 30 -18 112 -21 189 -3 75 -8 143 -11 152 -9 33 31 52 118 55 46 3 162 9
258 14 96 6 197 9 225 8 l49 -3 1 -323 c2 -323 2 -324 -20 -338 -16 -10 -30
-12 -46 -6 -13 5 -229 8 -479 7 l-455 -2 -80 -36 c-44 -20 -88 -37 -99 -37
-26 0 -190 -83 -256 -130 -137 -97 -223 -153 -279 -180 -66 -33 -182 -126
-241 -193 -20 -23 -51 -69 -69 -102 -17 -33 -51 -91 -76 -130 -24 -38 -44 -74
-45 -79 0 -9 -61 -105 -108 -171 -39 -54 -132 -211 -132 -222 0 -5 -13 -30
-29 -56 -17 -25 -33 -62 -37 -81 -3 -20 -19 -56 -35 -81 -16 -25 -29 -50 -29
-54 0 -5 -16 -28 -35 -51 -19 -23 -43 -60 -54 -83 -10 -23 -59 -86 -107 -139
-49 -53 -100 -111 -113 -129 -31 -40 -158 -134 -219 -162 -39 -17 -70 -22
-176 -24 -120 -3 -132 -1 -182 22 -30 14 -67 28 -83 31 -17 4 -37 14 -45 23
-45 47 -166 196 -166 204 0 5 -14 41 -32 80 -17 40 -33 92 -34 117 -1 25 -5
75 -9 111 -9 79 9 127 73 202 23 26 57 75 76 110 25 43 51 73 86 97 27 19 69
49 93 66 115 83 224 125 365 140 99 10 389 113 470 166 37 24 82 50 100 57 19
8 46 33 65 60 17 25 50 66 72 91 62 67 95 135 101 205 3 33 10 68 16 79 22 40
-1 141 -57 254 -29 59 -59 127 -65 151 -15 59 -104 152 -177 187 -30 14 -103
56 -161 93 -146 92 -213 114 -414 131 -139 12 -273 -4 -358 -42 -19 -9 -64
-28 -100 -41 -97 -38 -153 -72 -199 -122 -34 -36 -41 -52 -41 -84 0 -31 6 -44
27 -61 30 -23 30 -23 123 15 83 36 126 41 213 26 89 -16 119 -28 196 -83 44
-31 66 -56 84 -93 41 -84 60 -153 53 -195 -13 -82 -47 -170 -83 -212 -20 -24
-49 -64 -65 -90 -30 -48 -148 -158 -196 -182 -15 -7 -72 -23 -127 -35 -170
-37 -331 -95 -375 -136 -14 -12 -37 -29 -53 -37 -53 -27 -174 -173 -217 -262
-22 -47 -40 -94 -40 -104 0 -11 -9 -39 -20 -63 -11 -24 -20 -60 -20 -79 0 -19
-4 -51 -10 -70 -5 -19 -10 -57 -11 -85 -3 -55 10 -225 17 -236 2 -4 5 -38 5
-76 1 -37 10 -97 20 -133 19 -64 26 -89 70 -245 13 -44 29 -92 36 -107 7 -15
13 -38 13 -51 0 -30 66 -216 84 -237 8 -8 17 -26 20 -40 4 -14 18 -47 31 -75
13 -27 36 -75 50 -105 81 -170 98 -186 309 -295 l145 -75 125 0 c69 0 149 5
178 11 80 17 267 144 354 239 18 19 50 49 73 65 22 17 43 37 46 45 3 8 60 65
126 125 67 61 136 133 154 160 18 28 42 59 54 69 11 11 21 25 21 31 0 7 12 28
28 48 15 20 43 58 62 84 42 57 128 145 190 193 25 19 68 54 95 78 58 51 195
209 195 224 0 5 11 23 25 40 14 16 25 37 25 46 0 9 19 44 41 77 22 33 46 83
54 110 13 44 29 64 116 145 56 52 111 100 123 106 34 18 256 79 456 126 l185
43 270 0 c200 0 280 -3 310 -13 22 -7 85 -14 140 -15 99 -2 102 -3 209 -55 60
-29 130 -65 155 -80 25 -15 66 -36 91 -47 51 -22 73 -36 220 -139 58 -41 136
-96 174 -123 37 -26 91 -62 119 -78 29 -17 64 -49 79 -71 19 -29 41 -46 73
-58 35 -14 76 -50 186 -164 130 -135 145 -155 186 -242 111 -238 119 -250 218
-354 53 -56 110 -117 128 -136 89 -97 246 -221 404 -319 92 -57 220 -137 283
-177 133 -84 214 -124 251 -124 14 0 60 -9 102 -20 62 -15 101 -18 200 -15 67
2 136 8 154 13 18 6 41 8 51 5 25 -6 129 20 201 51 31 13 83 29 116 36 58 12
115 37 115 51 0 4 17 17 38 30 20 12 51 35 68 51 18 17 60 44 94 61 35 18 67
40 72 50 4 9 11 23 16 31 14 26 107 157 145 204 21 26 40 58 44 72 3 14 16 36
29 50 27 29 54 90 54 122 0 13 14 61 31 108 16 47 34 99 38 115 4 17 18 50 30
74 36 69 90 278 97 374 2 34 8 112 13 172 5 61 7 122 4 137 -3 14 0 42 6 61
15 44 21 129 25 315 2 91 7 147 14 154 7 7 12 21 12 32 0 10 7 42 14 70 30
104 57 444 45 551 -6 44 -9 96 -8 115 4 94 -10 309 -22 332 -6 10 -9 42 -8 71
3 99 -14 244 -41 357 -22 90 -29 134 -34 211 -2 46 -9 98 -14 114 -54 165 -66
230 -64 324 2 61 -3 89 -28 156 -16 45 -30 89 -30 97 0 9 -13 45 -30 80 -16
34 -30 73 -30 85 0 13 -6 40 -14 60 -7 21 -19 58 -27 83 -7 25 -27 77 -45 115
-18 39 -35 88 -39 109 -4 22 -15 56 -25 75 -42 81 -90 233 -90 285 0 13 -9 35
-21 50 -24 30 -20 41 19 49 32 7 111 68 129 101 22 39 26 92 9 125 -9 16 -16
44 -16 61 0 17 -16 61 -35 97 -19 36 -35 80 -35 97 0 46 -21 96 -57 143 -18
22 -33 44 -33 48 0 4 -10 21 -22 38 -12 17 -35 57 -49 88 -15 31 -32 60 -38
63 -13 9 -86 131 -125 211 -19 40 -28 74 -27 102 1 46 -23 73 -66 73 -12 0
-37 13 -56 29 -73 65 -215 111 -397 130 -80 8 -93 17 -149 94 -25 34 -58 78
-74 97 -64 77 -177 252 -187 289 -6 22 -25 61 -43 88 -46 67 -59 103 -58 165
0 29 0 81 0 116 1 110 62 206 161 257 62 31 223 42 295 21 56 -17 194 -23 270
-12 28 4 86 17 130 28 225 56 300 95 425 220 59 58 86 96 125 172 27 53 54
101 60 105 5 5 33 14 61 21 l52 13 72 -44 72 -44 68 -140 c75 -155 85 -188
100 -325 9 -92 9 -95 -14 -120 -37 -39 -46 -64 -46 -127 -1 -32 -10 -83 -21
-113 -11 -30 -26 -80 -35 -110 -14 -51 -14 -55 2 -67 24 -17 59 -16 100 3 41
19 49 44 70 212 7 64 19 121 24 126 20 20 46 -7 158 -169 52 -74 121 -70 151
9 15 38 14 39 -13 60 -54 41 -177 161 -197 193 -17 27 -40 122 -69 288 -11 61
-23 101 -43 140 -8 17 -23 57 -32 90 -15 53 -27 70 -100 142 -108 106 -135
123 -205 123 -87 0 -89 4 -56 107 16 48 34 97 41 108 7 11 15 59 19 107 3 48
10 98 16 112 17 45 23 197 10 266 -6 36 -15 83 -19 105 -4 22 -22 68 -39 102
-18 34 -32 71 -32 82 0 10 -48 78 -106 150 -96 120 -112 135 -177 169 -98 51
-135 61 -246 68 -53 3 -140 14 -195 25 -104 20 -223 23 -381 8z m369 -149 c88
-11 188 -20 223 -20 107 0 145 -15 205 -79 76 -82 140 -160 160 -195 82 -147
112 -254 102 -371 -4 -38 -11 -78 -16 -87 -10 -20 -30 -185 -29 -240 0 -37
-47 -160 -67 -172 -6 -3 -13 -19 -17 -35 -3 -16 -12 -34 -19 -40 -8 -6 -71
-16 -142 -21 -137 -10 -166 -7 -344 40 -124 32 -196 65 -279 129 -40 31 -92
70 -116 86 -23 17 -65 55 -91 85 -27 30 -53 57 -57 58 -26 12 -66 56 -72 79
-9 37 -43 73 -70 73 -26 0 -61 -36 -70 -71 -17 -69 117 -212 388 -412 115 -85
198 -124 307 -147 47 -9 100 -25 118 -34 36 -18 165 -36 269 -36 34 0 64 -4
67 -8 9 -14 -45 -116 -83 -156 -42 -45 -76 -68 -213 -142 -81 -44 -121 -59
-201 -75 -107 -22 -235 -22 -332 1 -133 30 -410 -33 -446 -103 -6 -12 -33 -44
-59 -72 -55 -57 -58 -70 -66 -245 -7 -153 7 -223 66 -336 26 -51 50 -103 54
-117 12 -51 252 -389 454 -642 34 -43 62 -82 62 -88 0 -14 69 -127 95 -157 39
-43 86 -127 79 -143 -13 -34 -113 -50 -334 -51 -151 -1 -210 12 -210 45 0 11
-11 41 -24 67 -13 26 -34 79 -47 119 -27 86 -89 174 -158 223 -27 19 -90 80
-141 135 -51 55 -101 106 -111 113 -10 7 -39 40 -65 73 -25 33 -76 90 -112
128 -37 37 -102 111 -145 164 -82 101 -103 150 -126 289 -4 25 -12 52 -18 60
-5 7 -25 69 -42 137 -18 69 -38 143 -45 165 -15 48 -30 119 -47 231 -16 107
-22 531 -9 620 26 170 81 363 119 421 17 25 31 48 31 52 0 4 12 29 25 57 13
27 22 59 19 70 -3 13 8 38 35 75 23 30 54 75 71 100 43 63 160 172 255 237 44
31 98 70 120 88 79 64 100 70 215 67 293 -7 525 0 610 17 68 14 102 12 274 -9z
m-5575 -1462 c1 -18 4 -105 9 -193 7 -157 8 -161 44 -239 21 -43 52 -95 70
-116 18 -20 55 -65 82 -100 43 -55 47 -65 37 -87 -6 -13 -11 -37 -11 -54 0
-21 -12 -42 -38 -71 -31 -33 -48 -43 -88 -49 -27 -4 -61 -11 -76 -15 -41 -9
-66 0 -133 51 -33 25 -91 57 -129 72 -55 21 -85 41 -143 97 -65 63 -75 78 -89
131 -28 103 -33 138 -33 215 0 67 3 79 29 115 16 22 48 66 70 97 37 52 51 63
163 120 167 86 235 94 236 26z m223 -60 c56 -53 89 -121 69 -141 -5 -5 -36 -9
-71 -10 -54 -2 -64 1 -81 22 -16 20 -18 34 -13 90 3 36 7 72 10 79 7 23 30 12
86 -40z m11 -310 c6 -18 -11 -48 -27 -48 -20 0 -39 27 -32 45 7 18 52 20 59 3z
m467 -18 c36 -5 90 -16 120 -25 30 -9 91 -19 135 -22 44 -3 93 -12 109 -21 17
-8 41 -18 55 -23 14 -4 58 -21 97 -37 40 -17 99 -37 133 -46 72 -18 230 -82
249 -100 10 -10 6 -20 -18 -52 -16 -21 -30 -44 -30 -51 0 -6 -11 -25 -25 -42
-23 -27 -42 -82 -85 -256 -7 -27 -14 -55 -16 -62 -4 -16 -148 49 -184 82 -14
12 -43 32 -66 43 -22 11 -46 28 -54 37 -26 32 -99 66 -162 76 -37 5 -98 27
-148 51 -80 38 -91 41 -190 45 -104 4 -190 23 -208 46 -5 7 -12 26 -16 42 -4
17 -20 44 -36 60 -93 95 -109 135 -56 135 18 0 37 16 72 60 50 64 58 68 144
73 57 3 71 2 180 -13z m-1343 -27 c4 -10 7 -40 8 -68 0 -47 -2 -50 -34 -66
-19 -9 -39 -23 -45 -31 -53 -71 -55 -72 -122 -79 -72 -7 -104 -28 -104 -66 0
-29 47 -79 84 -89 32 -8 129 36 206 95 30 22 58 41 63 41 10 0 48 -40 93 -97
18 -21 66 -59 108 -84 42 -24 78 -50 81 -58 3 -9 -10 -26 -32 -45 -21 -17 -65
-57 -98 -90 -33 -32 -90 -78 -126 -102 -37 -23 -88 -59 -114 -78 -25 -20 -59
-39 -73 -42 -33 -8 -82 -42 -142 -100 -73 -69 -257 -139 -317 -120 -11 4 -29
29 -42 59 -12 28 -40 88 -61 132 -69 144 -75 170 -96 441 -9 114 7 176 52 210
17 13 34 24 38 24 4 0 27 13 50 29 57 39 142 71 189 71 50 0 92 19 150 67 61
51 92 61 195 62 70 1 84 -2 89 -16z m2467 -323 c30 -12 85 -39 123 -60 112
-65 208 -109 275 -126 75 -19 133 -47 169 -80 14 -14 57 -38 95 -54 87 -36 97
-50 62 -87 -14 -15 -40 -55 -58 -88 -18 -33 -57 -85 -85 -115 -29 -30 -56 -66
-60 -80 -15 -50 -290 -293 -363 -321 -13 -5 -43 -23 -68 -39 -24 -17 -61 -37
-81 -44 -21 -8 -55 -23 -75 -35 l-37 -22 -78 21 c-43 12 -118 25 -168 30 -132
13 -238 46 -315 100 -14 10 -70 41 -125 70 -55 29 -122 69 -150 89 -63 47
-133 86 -182 101 -64 21 -146 78 -187 130 -22 28 -60 62 -85 77 -49 29 -79 54
-183 156 -56 56 -67 71 -57 83 6 8 18 14 25 14 7 0 43 27 80 60 36 33 77 63
91 66 14 4 63 -1 108 -10 46 -9 111 -16 145 -16 51 0 72 -6 123 -34 34 -18 96
-43 137 -56 146 -43 162 -50 228 -93 236 -153 329 -202 373 -195 15 2 29 15
38 33 12 26 12 33 -3 59 -17 30 -17 30 13 58 27 26 31 35 31 85 0 47 9 73 61
179 59 121 89 164 116 164 7 0 37 -9 67 -20z m3607 -1034 c69 -21 102 -41 139
-82 58 -66 74 -139 50 -226 -13 -44 -23 -52 -55 -44 -42 11 -246 330 -228 358
7 12 43 9 94 -6z m-901 -112 c83 -56 125 -115 166 -238 29 -85 29 -82 1 -101
-21 -14 -29 -14 -73 -1 -120 36 -192 55 -234 62 -89 13 -115 44 -97 115 16 60
29 75 96 109 31 15 65 37 75 49 23 25 34 26 66 5z m1259 -312 c10 -15 30 -53
44 -83 13 -30 40 -78 59 -105 45 -66 88 -155 95 -201 4 -21 20 -65 37 -98 21
-43 30 -75 30 -112 1 -119 -52 -129 -626 -124 -187 2 -260 6 -300 17 -29 9
-103 22 -165 29 -62 8 -131 22 -155 33 -24 10 -56 22 -73 26 -16 4 -84 34
-150 66 -99 48 -133 71 -194 129 l-75 71 -2 125 c-1 91 2 125 11 129 7 2 50
-7 96 -20 48 -14 133 -28 199 -34 63 -5 140 -17 170 -26 30 -10 87 -19 125
-19 39 -1 111 -9 160 -18 67 -13 101 -15 135 -8 25 6 77 14 115 19 140 19 305
99 377 182 23 27 48 50 55 50 6 0 21 -13 32 -28z m-3064 -259 c14 -21 30 -56
36 -78 6 -22 26 -74 44 -115 52 -119 85 -209 85 -229 0 -11 11 -32 24 -48 21
-25 96 -199 96 -222 0 -5 10 -22 23 -38 28 -34 47 -77 47 -104 0 -12 9 -34 20
-49 11 -16 36 -64 56 -107 19 -43 42 -91 51 -108 85 -161 103 -200 103 -223 0
-24 28 -84 107 -230 13 -22 32 -78 44 -122 32 -123 41 -115 -266 -231 -189
-71 -300 -108 -360 -118 -27 -5 -88 -21 -135 -36 -47 -15 -121 -32 -165 -40
-44 -7 -125 -22 -180 -33 -189 -38 -231 -43 -310 -42 -44 1 -132 -2 -195 -8
-63 -6 -324 -13 -580 -17 -414 -6 -477 -5 -570 10 -139 23 -210 32 -362 44
-100 9 -141 17 -201 41 -41 16 -106 36 -144 44 -37 8 -82 22 -98 30 -17 9 -40
16 -51 16 -69 0 -221 51 -244 81 -3 3 -23 16 -45 27 l-41 20 14 114 c15 120
31 159 132 328 67 112 140 269 140 301 0 11 7 33 15 49 8 16 33 80 54 142 43
126 79 218 115 293 51 107 95 212 108 255 10 35 18 46 36 48 22 3 129 -44 162
-72 47 -39 127 -65 215 -69 74 -4 108 -11 190 -43 l100 -39 260 1 c238 2 271
4 385 28 224 47 537 147 610 195 14 9 86 46 160 81 74 35 171 87 215 116 108
73 214 155 226 177 16 28 46 20 74 -20z m3067 -593 c115 2 113 4 153 -135 14
-49 39 -116 55 -148 17 -31 30 -62 30 -68 0 -11 20 -62 76 -189 13 -30 37
-101 53 -157 17 -57 39 -111 51 -123 13 -13 18 -28 15 -43 -3 -12 9 -66 29
-122 19 -55 37 -132 40 -170 11 -108 36 -256 51 -295 7 -19 16 -82 19 -140 6
-108 25 -222 44 -257 6 -11 9 -23 6 -26 -4 -3 1 -28 10 -54 17 -49 24 -116 30
-308 3 -60 12 -146 21 -190 19 -93 23 -473 5 -564 -5 -29 -10 -79 -11 -110 0
-31 -9 -94 -20 -141 -11 -47 -24 -148 -30 -225 -5 -77 -14 -165 -20 -195 -5
-30 -14 -154 -19 -275 -5 -121 -13 -249 -19 -285 -5 -36 -12 -78 -15 -95 -11
-75 -107 -362 -155 -465 -11 -25 -21 -53 -21 -63 0 -26 -24 -70 -90 -167 -32
-47 -64 -101 -73 -120 -23 -53 -183 -199 -297 -272 -34 -21 -163 -72 -225 -88
-27 -7 -95 -27 -150 -44 -92 -29 -111 -31 -240 -31 -146 1 -260 19 -320 51
-16 9 -65 34 -108 55 -43 22 -117 66 -165 99 -116 81 -237 160 -293 193 -58
33 -147 108 -170 143 -9 14 -62 74 -116 133 -55 58 -108 121 -117 140 -10 18
-35 52 -57 75 -21 24 -53 74 -70 112 -18 38 -46 87 -63 109 -17 21 -42 56 -56
76 -53 78 -112 148 -212 249 -79 81 -122 116 -183 149 -44 24 -121 78 -172
120 -50 42 -122 94 -158 116 -37 22 -113 72 -168 112 -56 40 -122 80 -147 89
-25 9 -73 32 -108 51 -109 60 -203 86 -407 113 -44 6 -105 15 -135 20 -86 15
-524 17 -600 3 -36 -7 -94 -17 -129 -23 -35 -6 -89 -21 -120 -34 -31 -13 -81
-29 -111 -36 -30 -7 -84 -21 -119 -31 -35 -11 -83 -19 -105 -19 -53 0 -148
-61 -265 -172 -88 -83 -113 -118 -136 -194 -7 -25 -26 -54 -43 -69 -17 -14
-34 -36 -38 -48 -3 -12 -16 -35 -29 -52 -12 -16 -30 -46 -40 -65 -35 -67 -97
-142 -158 -188 -33 -26 -109 -91 -167 -144 -88 -81 -112 -109 -139 -165 -69
-142 -113 -200 -199 -265 -29 -22 -83 -68 -120 -102 -37 -34 -89 -79 -117 -99
-27 -20 -63 -53 -80 -74 -16 -20 -68 -76 -113 -124 -77 -80 -90 -89 -153 -109
-128 -41 -261 -28 -394 38 -56 27 -175 109 -175 120 0 4 -25 38 -55 76 -30 38
-55 77 -55 87 0 10 -11 42 -24 71 -26 59 -42 102 -61 168 -25 82 -37 115 -62
165 -14 27 -33 86 -43 130 -9 44 -26 118 -38 165 -11 47 -30 165 -42 264 -23
195 -21 280 11 354 11 24 19 52 19 63 0 10 12 48 27 85 23 55 45 84 133 173
86 88 118 113 175 140 70 32 93 39 238 66 100 19 228 81 290 140 27 25 87 103
134 173 47 70 93 136 102 147 9 11 25 47 35 80 10 33 22 70 27 82 34 90 7 242
-62 344 -61 89 -117 140 -202 183 -42 21 -77 44 -77 51 0 26 56 38 122 26 35
-5 101 -13 148 -17 111 -8 169 -31 303 -119 187 -122 207 -141 251 -230 21
-44 45 -91 52 -105 38 -71 54 -116 54 -153 0 -62 -25 -156 -49 -186 -11 -14
-30 -42 -41 -62 -26 -48 -143 -154 -200 -180 -25 -12 -65 -32 -90 -44 -43 -23
-131 -52 -262 -89 -31 -9 -80 -16 -110 -16 -74 0 -257 -65 -327 -116 -115 -82
-235 -198 -261 -250 -14 -28 -46 -77 -71 -110 -25 -32 -58 -82 -73 -111 -24
-49 -26 -62 -26 -182 l0 -130 40 -76 c22 -42 40 -85 40 -96 0 -12 25 -48 55
-82 30 -34 71 -90 91 -124 60 -103 105 -136 254 -187 138 -48 382 -16 523 68
103 61 324 287 387 396 17 30 44 69 59 85 52 57 98 131 170 275 39 80 85 159
102 175 16 17 29 34 29 38 0 12 92 151 120 182 18 19 38 62 54 115 19 59 44
111 84 170 86 128 150 186 272 249 58 30 130 73 160 97 46 35 139 88 360 206
19 10 42 18 51 18 9 0 32 6 50 14 38 15 176 42 199 38 8 -1 76 -4 150 -7 74
-3 218 -9 319 -14 102 -5 194 -5 206 -1 12 4 82 5 156 0 l134 -7 190 -96 c105
-52 206 -98 225 -102 79 -17 342 -159 401 -217 8 -8 47 -37 88 -66 44 -31 83
-67 95 -89 12 -20 50 -61 86 -90 117 -95 185 -171 235 -258 27 -48 120 -162
176 -216 15 -15 39 -50 53 -78 36 -69 92 -158 130 -203 34 -40 106 -150 106
-162 0 -11 110 -195 121 -201 5 -4 21 -30 35 -58 30 -59 56 -97 100 -148 18
-20 35 -47 39 -60 11 -35 92 -145 150 -204 66 -68 112 -90 226 -110 78 -14
104 -15 154 -5 60 12 107 31 135 55 8 8 41 29 73 48 88 53 199 163 241 237 21
36 55 94 77 128 44 70 57 105 88 235 12 48 30 109 40 136 11 26 24 81 30 122
18 123 38 232 49 264 28 77 62 294 63 398 0 34 6 100 14 147 8 47 19 114 24
150 14 92 33 326 36 450 1 58 6 229 10 380 10 351 10 392 -3 454 -14 67 -31
152 -48 251 -8 44 -20 114 -28 155 -8 41 -19 102 -25 135 -9 55 -30 147 -52
235 -4 19 -15 67 -24 105 -9 39 -31 115 -49 170 -19 55 -39 125 -46 155 -7 30
-28 102 -46 160 -19 57 -34 110 -34 117 0 7 -13 27 -29 45 -29 34 -93 167 -85
179 2 4 93 5 202 2 108 -3 241 -4 294 -3z"/>
<path d="M11605 10243 c-103 -27 -51 -187 74 -224 53 -16 76 -1 90 56 23 91
-21 165 -101 171 -24 1 -52 0 -63 -3z"/>
<path d="M8121 9957 c-58 -29 -53 -70 11 -87 24 -7 48 -16 53 -20 6 -5 39 -18
75 -30 36 -12 92 -37 125 -55 62 -35 78 -41 250 -100 55 -20 123 -47 152 -61
64 -31 148 -125 162 -180 5 -21 17 -68 26 -104 14 -51 16 -88 12 -169 -4 -61
-2 -112 4 -122 17 -32 46 -42 85 -29 57 19 67 53 67 210 0 114 -4 144 -23 195
-12 33 -29 80 -37 105 -21 59 -25 63 -118 150 -84 78 -150 110 -228 110 -18 0
-56 11 -85 25 -30 14 -59 25 -66 25 -7 0 -49 18 -95 40 -92 45 -284 110 -321
110 -14 0 -36 -6 -49 -13z"/>
<path d="M2743 9882 c-22 -14 -20 -121 4 -182 11 -30 33 -85 47 -122 14 -37
29 -86 32 -108 8 -46 -9 -76 -99 -173 -47 -51 -62 -61 -113 -74 -78 -19 -320
-27 -409 -12 -81 13 -144 45 -178 92 -34 45 -36 57 -23 109 15 61 31 78 73 78
25 0 43 8 64 29 35 35 36 49 7 86 -21 27 -24 27 -98 22 -100 -6 -135 -25 -162
-85 -49 -109 -39 -219 29 -319 35 -52 46 -59 148 -107 l110 -51 163 -3 c288
-6 346 14 507 176 108 109 135 150 135 206 0 40 -22 110 -53 172 -28 55 -57
160 -57 205 0 19 -8 34 -24 44 -29 19 -86 29 -103 17z"/>
<path d="M1860 7670 c-30 -22 -72 -46 -95 -52 -45 -14 -132 -97 -142 -136 -6
-27 16 -104 44 -148 48 -75 88 -124 112 -134 14 -6 33 -23 42 -38 9 -15 38
-42 64 -60 84 -55 153 -39 233 56 26 31 64 73 85 93 20 21 37 45 37 53 0 8 19
28 43 45 24 16 49 37 57 46 22 27 80 51 153 64 57 10 75 9 123 -5 70 -20 120
-63 135 -116 17 -65 -5 -135 -52 -162 -17 -10 -35 -28 -41 -41 -24 -52 20
-115 80 -115 83 0 168 166 166 321 -2 88 -15 120 -73 172 -81 73 -108 84 -222
92 -159 11 -230 -8 -340 -89 -47 -35 -94 -77 -104 -92 -24 -37 -131 -164 -157
-186 -11 -10 -28 -18 -38 -18 -41 0 -168 145 -185 211 -5 21 -1 31 25 52 17
15 48 32 70 38 51 15 105 61 119 100 10 28 8 34 -18 60 -16 16 -38 29 -48 29
-11 0 -44 -18 -73 -40z"/>
<path d="M1728 6872 c-43 -45 -46 -54 -58 -133 -9 -65 -10 -105 -1 -178 11
-86 15 -98 46 -133 19 -21 35 -47 35 -57 0 -11 14 -31 31 -45 25 -22 41 -26
89 -26 33 0 148 -12 257 -26 352 -47 673 -42 760 12 32 20 47 76 38 143 -5 31
-7 101 -6 156 1 55 -1 114 -4 131 -6 34 -37 54 -83 54 -37 -1 -112 -36 -112
-53 0 -8 11 -34 24 -58 18 -34 26 -67 31 -141 7 -96 7 -96 -19 -114 -19 -11
-45 -16 -89 -16 -34 1 -96 2 -137 2 -41 0 -85 2 -97 5 -27 6 -49 46 -58 105
-4 25 -9 48 -12 52 -2 5 5 24 17 43 48 77 -25 172 -92 121 -10 -7 -29 -38 -43
-68 -20 -44 -26 -74 -27 -143 -2 -48 -7 -90 -13 -95 -7 -6 -63 -2 -146 10 -74
11 -152 20 -174 20 -22 0 -45 4 -51 8 -7 4 -13 66 -17 160 l-6 152 29 34 c35
39 38 78 10 106 -34 34 -72 26 -122 -28z"/>
<path d="M2633 5930 c-12 -5 -120 -9 -240 -9 -744 0 -733 1 -753 -70 -14 -52
15 -90 63 -82 60 11 444 28 462 21 14 -5 142 -9 286 -8 l263 1 24 24 c20 20
23 30 17 61 -3 20 -12 43 -19 50 -16 17 -75 24 -103 12z"/>
<path d="M2012 5510 c-98 -11 -186 -54 -246 -121 -25 -28 -46 -59 -46 -69 0
-10 -8 -26 -17 -36 -28 -28 -82 -141 -103 -215 -10 -38 -28 -82 -39 -97 -31
-44 -34 -73 -12 -109 25 -41 58 -49 128 -34 43 10 68 10 126 -1 49 -9 163 -13
352 -13 256 0 284 2 323 19 37 17 48 18 76 8 47 -17 72 -15 101 11 l26 22 -12
90 c-18 128 -63 220 -142 294 -34 31 -91 85 -127 119 -95 93 -167 133 -249
137 -36 2 -99 0 -139 -5z m164 -160 c51 -18 75 -36 177 -134 86 -84 124 -128
142 -168 14 -29 25 -58 25 -64 0 -22 -29 -35 -82 -39 -29 -2 -114 -8 -188 -13
-75 -5 -177 -5 -230 -1 -183 16 -260 27 -275 39 -25 21 -17 74 22 147 20 37
51 98 69 134 29 58 39 69 76 84 24 9 75 21 113 25 39 4 75 8 81 9 5 0 37 -8
70 -19z"/>
<path d="M2430 4569 c-30 -17 -66 -41 -81 -54 -16 -13 -49 -26 -76 -30 -26 -3
-77 -17 -113 -30 -106 -38 -122 -43 -190 -64 -36 -10 -101 -36 -145 -56 -123
-56 -204 -85 -241 -85 -18 0 -44 -4 -58 -10 -30 -11 -169 -146 -180 -174 -9
-25 30 -82 64 -95 43 -15 241 -60 340 -77 131 -22 241 -49 278 -68 17 -9 48
-16 69 -16 37 0 171 -21 264 -41 25 -6 57 -7 71 -4 13 3 46 -1 73 -11 33 -11
64 -14 94 -10 94 13 120 63 56 112 -30 23 -51 28 -131 36 -53 4 -104 13 -114
18 -10 6 -45 10 -77 10 -40 0 -68 6 -91 20 -18 11 -48 20 -66 20 -53 0 -78 27
-82 90 -2 30 3 81 11 113 10 41 12 70 6 97 -11 48 -8 50 89 79 161 47 321 110
352 138 11 10 18 30 18 54 0 32 -5 41 -30 54 -39 20 -46 19 -110 -16z m-461
-343 c8 -9 8 -28 1 -66 -5 -29 -10 -72 -10 -96 0 -52 -22 -70 -65 -54 -14 5
-76 19 -136 30 -61 11 -123 25 -137 32 -40 19 -34 41 13 51 22 5 92 33 155 62
119 55 160 64 179 41z"/>
<path d="M2247 3560 c-35 -41 -41 -64 -26 -108 8 -22 13 -92 14 -172 0 -74 4
-141 9 -148 4 -8 10 -45 11 -82 4 -104 6 -103 -206 -90 -96 6 -203 15 -239 21
-36 6 -110 13 -165 16 -93 5 -102 4 -122 -16 -32 -30 -30 -76 2 -97 19 -12 40
-15 82 -12 33 3 79 -1 108 -9 95 -26 542 -68 579 -53 31 11 96 94 108 136 6
24 6 58 -2 107 -7 40 -13 160 -15 267 -3 242 -12 270 -82 270 -23 0 -38 -8
-56 -30z"/>
<path d="M1351 2683 c-23 -29 -21 -51 9 -93 10 -15 29 -49 43 -76 40 -80 96
-143 205 -233 73 -60 99 -87 92 -96 -5 -6 -33 -24 -62 -40 -29 -16 -102 -61
-163 -100 -60 -39 -141 -91 -178 -115 -103 -65 -122 -111 -66 -153 33 -24 72
-17 114 19 17 14 48 35 70 46 22 11 59 40 81 64 27 28 50 44 66 44 13 0 60 25
106 55 45 31 123 76 172 100 49 25 92 50 95 55 4 6 25 20 47 31 39 20 50 21
182 13 176 -10 210 -10 371 0 181 12 223 37 188 113 -18 37 -19 38 -73 37 -30
-1 -95 -8 -145 -17 -107 -20 -248 -22 -365 -5 -47 7 -147 11 -223 10 -150 -3
-154 -1 -227 58 -97 78 -135 119 -187 197 -77 118 -112 137 -152 86z"/>
<path d="M7544 2521 l-32 -19 -7 -115 c-4 -63 -5 -136 -1 -163 3 -27 8 -121
10 -208 3 -87 10 -193 15 -235 5 -42 8 -121 7 -176 -3 -112 2 -107 -83 -86
-28 7 -51 8 -68 1 -67 -26 -144 0 -200 66 -34 42 -38 51 -37 103 0 55 -19 174
-40 240 -5 18 -12 99 -14 180 -5 175 -27 308 -56 334 -31 26 -75 22 -109 -12
-33 -34 -36 -64 -13 -131 20 -57 35 -146 39 -235 3 -83 20 -204 34 -248 5 -18
9 -45 9 -62 0 -16 2 -82 5 -145 l5 -115 -53 -55 c-30 -30 -65 -75 -78 -100
-13 -25 -39 -74 -58 -110 -42 -79 -64 -137 -78 -210 -15 -76 -51 -297 -51
-310 0 -13 109 -123 137 -138 44 -24 79 -15 113 28 22 28 44 43 73 51 126 34
292 134 331 199 10 18 38 54 62 81 24 27 49 59 55 71 18 34 93 118 105 118 10
0 74 -84 74 -98 0 -12 70 -76 120 -109 25 -17 79 -45 120 -63 41 -18 80 -36
86 -41 5 -5 74 -31 152 -58 78 -28 154 -57 170 -65 78 -40 147 -54 310 -60
204 -7 232 3 232 82 0 19 -23 52 -81 117 -45 49 -88 103 -96 120 -9 16 -28 46
-42 65 -36 47 -101 156 -101 168 0 5 -20 52 -44 103 -43 91 -76 132 -142 177
-31 21 -31 23 -38 129 -3 60 -10 144 -15 188 -10 91 -7 501 4 557 9 47 1 82
-25 108 -26 26 -80 26 -113 0 l-25 -20 4 -158 c2 -86 6 -220 8 -297 3 -77 5
-203 5 -280 l0 -140 -32 -28 c-17 -15 -47 -32 -67 -38 -50 -16 -299 -22 -316
-8 -7 5 -15 34 -19 62 -44 399 -46 426 -45 691 0 149 1 276 0 282 0 11 -42 34
-63 34 -7 0 -26 -9 -43 -19z m-250 -1131 c78 -27 94 -29 124 -19 27 9 37 8 48
-3 21 -21 3 -99 -32 -144 -16 -20 -47 -62 -69 -94 -145 -205 -263 -304 -426
-355 -73 -23 -89 -17 -89 34 0 62 30 203 50 239 11 17 33 67 50 110 40 100 69
144 143 215 69 67 60 66 201 17z m945 -34 c15 -8 43 -32 61 -53 34 -39 110
-188 110 -217 0 -9 15 -33 34 -54 19 -21 43 -60 54 -86 10 -26 37 -70 60 -96
l42 -49 -24 -16 c-18 -12 -37 -14 -77 -10 -76 9 -203 43 -269 72 -30 13 -89
38 -131 54 -42 16 -130 58 -195 93 -131 70 -174 112 -233 232 -37 73 -39 98
-9 118 31 22 60 20 105 -6 34 -21 49 -23 154 -21 64 1 129 8 145 14 16 6 54
17 84 24 30 7 56 13 58 14 2 0 16 -6 31 -13z"/>
<path d="M1454 1611 c-52 -24 -71 -41 -125 -112 -135 -177 -148 -212 -135
-362 4 -39 9 -100 11 -134 4 -73 17 -99 88 -177 l54 -59 64 18 c35 10 105 22
154 26 50 5 136 13 191 17 56 5 105 12 110 15 24 14 231 29 439 32 l230 3 27
31 c16 17 28 38 28 46 0 43 -86 77 -144 57 -47 -16 -412 -27 -421 -12 -4 6 -9
34 -11 62 -2 37 -10 58 -27 77 -34 36 -47 64 -47 101 0 26 -24 82 -59 140 -6
8 -22 41 -38 73 -32 67 -83 114 -168 152 -87 40 -146 42 -221 6z m203 -170
c38 -28 56 -57 111 -186 38 -88 85 -244 78 -260 -11 -29 -74 -45 -218 -55 -79
-6 -165 -13 -193 -16 -41 -4 -54 -2 -71 15 -26 24 -44 115 -44 224 0 69 4 83
40 154 23 43 59 95 80 116 38 35 42 37 108 37 60 0 74 -4 109 -29z"/>
</g>
</svg>
