<?xml version="1.0" standalone="no"?>
<!DOCTYPE svg PUBLIC "-//W3C//DTD SVG 20010904//EN"
 "http://www.w3.org/TR/2001/REC-SVG-20010904/DTD/svg10.dtd">
<svg version="1.0" xmlns="http://www.w3.org/2000/svg"
 width="1257.853715pt" height="1341.123205pt" viewBox="0 0 1257.853715 1341.123205"
 preserveAspectRatio="xMidYMid meet">
<metadata>
Created by potrace 1.13, written by Peter Selinger 2001-2015
</metadata>
<g transform="translate(-51.000000,1378.646826) scale(0.100000,-0.100000)"
fill="#ffffff" stroke="none">
<path d="M4455 13780 c-27 -4 -80 -13 -116 -18 -68 -10 -114 -29 -161 -66 -14
-12 -54 -37 -88 -56 -34 -19 -74 -50 -89 -69 -14 -19 -57 -64 -96 -100 -127
-120 -185 -185 -210 -236 -15 -32 -42 -64 -74 -90 -46 -36 -51 -43 -51 -81 0
-76 70 -111 110 -54 29 41 86 58 128 36 52 -27 149 -124 166 -166 14 -35 14
-48 3 -102 -16 -74 -35 -114 -71 -147 -14 -14 -26 -32 -26 -41 0 -8 -22 -38
-50 -65 -27 -27 -50 -56 -50 -64 0 -20 50 -71 70 -71 8 0 32 11 52 25 20 13
66 34 103 46 62 21 68 21 99 6 56 -26 155 -168 142 -203 -3 -7 6 -38 19 -68
14 -31 29 -85 35 -121 6 -35 15 -77 21 -92 6 -16 15 -59 19 -98 6 -53 13 -73
30 -87 27 -22 78 -23 108 -2 24 16 30 62 11 81 -7 7 -13 36 -14 65 -2 29 -6
64 -9 78 -5 19 2 39 29 80 19 30 40 73 46 95 31 120 49 164 80 200 16 17 37
56 49 86 47 121 68 155 138 220 91 85 168 117 242 99 64 -15 78 -32 56 -65
-29 -43 -17 -103 25 -125 11 -6 75 -20 142 -31 67 -11 128 -26 136 -34 11 -11
9 -23 -18 -76 -17 -34 -31 -69 -31 -78 0 -9 -9 -29 -20 -46 -11 -16 -20 -42
-20 -57 0 -15 -9 -42 -20 -60 -11 -18 -20 -46 -20 -62 0 -30 -23 -110 -46
-161 -8 -16 -13 -51 -13 -76 1 -26 -1 -51 -4 -56 -3 -4 -10 -43 -16 -85 -9
-66 -8 -90 10 -174 11 -54 18 -107 15 -119 -3 -11 3 -47 13 -80 10 -33 22 -98
25 -145 4 -47 15 -105 26 -130 10 -25 30 -74 45 -109 14 -36 42 -86 61 -112
18 -26 34 -52 34 -58 0 -7 20 -33 43 -59 24 -26 55 -64 70 -86 33 -50 136
-156 151 -156 14 0 84 -49 138 -97 21 -18 62 -39 93 -49 31 -8 72 -29 90 -46
35 -30 111 -64 175 -77 19 -5 55 -15 80 -23 25 -9 77 -19 115 -23 80 -8 120
-28 109 -53 -4 -9 -8 -53 -8 -97 -2 -65 -7 -89 -28 -130 -41 -79 -43 -91 -14
-120 28 -28 47 -30 94 -14 24 8 42 7 79 -4 27 -9 71 -18 98 -21 28 -4 95 -17
150 -31 111 -28 203 -31 377 -15 125 12 151 20 173 53 15 23 14 29 -6 83 -32
86 -45 169 -31 187 7 9 40 16 85 20 84 7 195 39 330 95 123 52 169 84 284 200
83 84 100 108 144 199 27 57 59 139 70 181 47 175 59 227 59 261 0 20 12 81
26 135 15 63 24 122 23 160 -1 35 5 85 15 116 14 47 16 96 14 345 -1 184 -6
306 -14 335 -7 25 -15 64 -18 88 -4 24 -11 51 -16 60 -5 9 -30 69 -56 132 -25
63 -55 130 -66 147 l-19 33 46 29 c26 17 60 33 76 36 16 4 31 11 34 16 4 5 19
9 34 9 28 0 59 -26 80 -67 6 -12 45 -45 87 -74 64 -45 85 -67 140 -150 35 -53
64 -102 64 -109 0 -6 7 -24 15 -38 27 -49 87 -216 97 -272 5 -30 13 -69 17
-86 6 -21 3 -44 -10 -75 -32 -79 -19 -110 51 -123 29 -5 45 0 100 34 36 22 70
40 75 40 6 0 24 7 40 16 17 9 62 26 102 39 63 20 84 22 170 15 106 -7 171 -31
214 -76 19 -20 24 -37 24 -79 0 -82 47 -113 115 -77 35 19 35 20 37 94 2 41 7
103 13 139 28 178 40 309 35 358 -6 51 0 104 31 255 22 106 19 168 -17 366
-18 97 -40 163 -84 251 -23 47 -46 96 -50 110 -4 13 -19 51 -35 84 -15 33 -35
78 -44 99 -41 93 -149 197 -251 241 -76 33 -210 73 -270 80 -72 10 -305 7
-431 -5 -96 -9 -128 -23 -214 -91 -19 -16 -55 -35 -80 -44 -51 -18 -102 -63
-131 -115 -51 -90 -122 -170 -151 -170 -12 0 -37 -17 -57 -38 -20 -21 -58 -54
-86 -72 -41 -27 -154 -121 -213 -177 -19 -18 -39 -16 -70 5 -15 10 -47 27 -72
36 -25 10 -50 22 -55 26 -6 5 -29 13 -50 19 -22 5 -53 14 -70 19 -40 14 -113
28 -265 51 -144 22 -200 36 -252 62 -21 11 -58 19 -84 19 -25 0 -70 7 -99 16
-42 12 -87 14 -207 10 -140 -4 -184 -10 -303 -37 -22 -5 -67 -13 -100 -17 -53
-7 -73 -16 -170 -84 -61 -42 -118 -85 -128 -96 -21 -23 -114 -56 -143 -50 -16
3 -79 83 -144 185 -19 29 -55 52 -105 67 -23 7 -89 81 -121 137 -49 84 -202
232 -284 274 -19 10 -49 30 -66 45 -34 30 -137 64 -223 74 -30 4 -82 19 -115
33 -67 28 -151 37 -231 23z m200 -165 c52 -22 68 -26 156 -40 79 -12 92 -17
171 -73 48 -33 111 -76 141 -95 30 -20 74 -61 98 -92 24 -31 61 -76 81 -99 21
-24 45 -60 53 -80 17 -39 13 -53 -27 -106 -10 -14 -37 -53 -59 -87 -48 -75
-70 -85 -109 -48 -37 36 -113 54 -197 47 -79 -6 -142 -35 -194 -88 -19 -20
-54 -50 -77 -66 -24 -17 -50 -45 -58 -63 -7 -19 -18 -36 -24 -40 -5 -3 -19
-38 -31 -78 -11 -40 -35 -97 -52 -126 -17 -30 -47 -98 -68 -150 -29 -75 -41
-97 -58 -99 -16 -3 -21 2 -21 17 0 11 -6 35 -14 53 -8 18 -22 53 -32 78 -30
71 -120 153 -204 185 -38 15 -73 31 -76 36 -3 6 1 18 10 28 19 20 34 64 46
131 10 50 -3 143 -27 202 -18 42 -110 125 -191 171 -30 16 -56 36 -59 43 -9
24 45 86 154 176 59 50 116 105 125 123 23 43 209 145 283 156 67 10 223 0
260 -16z m4563 -80 c143 -24 294 -122 347 -225 11 -22 44 -86 74 -142 72 -136
100 -215 116 -318 7 -47 20 -123 29 -170 20 -108 21 -225 0 -281 -10 -29 -15
-79 -15 -149 0 -58 -2 -156 -5 -218 -5 -104 -8 -114 -29 -128 -21 -14 -27 -13
-72 7 -30 14 -71 23 -108 25 -33 1 -96 7 -140 12 -84 11 -90 10 -250 -37 -38
-12 -77 -19 -86 -16 -16 5 -19 15 -38 115 -9 48 -20 80 -57 173 -13 32 -24 64
-24 71 0 7 -17 40 -39 73 -21 33 -45 77 -52 97 -16 44 -90 130 -168 193 -91
74 -162 158 -173 205 -5 24 -24 58 -45 81 -19 22 -44 60 -55 85 -11 24 -32 64
-47 87 -15 24 -33 61 -40 83 -13 38 -12 43 15 96 39 78 80 118 182 178 48 28
107 64 131 80 25 15 56 29 70 29 358 18 335 18 479 -6z m-2396 -478 c41 -20
88 -37 104 -37 16 0 65 -12 109 -26 43 -14 115 -30 160 -35 193 -24 297 -51
420 -108 66 -31 136 -66 156 -79 20 -12 43 -22 50 -22 56 -1 254 -164 305
-250 44 -77 120 -262 150 -369 l18 -64 -31 -27 c-26 -23 -42 -28 -117 -34
-103 -8 -152 4 -243 62 -32 21 -90 47 -129 60 -40 12 -78 30 -85 38 -16 20
-133 74 -158 74 -11 0 -59 15 -108 33 -48 19 -110 40 -138 47 -101 27 -267
148 -307 224 -11 22 -27 62 -35 89 -17 59 -35 89 -77 135 -39 42 -81 65 -106
57 -28 -9 -89 -80 -95 -112 -12 -53 -36 -111 -66 -156 -34 -52 -171 -149 -246
-174 -26 -9 -53 -20 -59 -24 -6 -5 -31 -16 -55 -24 -24 -9 -60 -26 -79 -39
-19 -13 -54 -26 -76 -30 -23 -3 -96 -33 -162 -66 -67 -33 -124 -60 -127 -60
-4 0 -25 -13 -49 -29 -23 -16 -66 -37 -95 -47 -29 -9 -73 -34 -98 -56 -24 -21
-53 -38 -64 -38 -11 0 -34 -7 -51 -16 -24 -12 -36 -13 -54 -5 -25 11 -25 10
-4 122 5 25 25 81 45 124 19 43 35 86 35 97 0 24 33 90 54 107 9 8 16 21 16
31 0 10 25 53 55 96 31 44 64 92 75 108 10 16 45 58 76 93 44 48 70 68 113 84
66 24 115 52 156 89 51 45 189 118 246 129 30 6 79 18 109 26 30 8 77 15 105
15 27 1 79 7 115 15 99 21 156 14 242 -28z m1412 37 c9 -3 16 -12 16 -19 0
-14 57 -128 83 -165 9 -13 17 -33 17 -44 0 -24 -73 -95 -135 -131 -55 -33 -62
-31 -151 47 -34 29 -77 65 -95 79 -33 25 -33 26 -16 52 9 15 43 43 74 63 32
20 82 56 111 80 54 44 67 49 96 38z m-2705 -84 c10 -5 26 -29 35 -52 10 -24
29 -59 42 -80 25 -35 25 -37 9 -68 -9 -17 -37 -51 -62 -76 -41 -38 -52 -44
-92 -44 -25 0 -70 -1 -99 -2 -41 -1 -58 4 -73 19 -20 19 -20 20 19 69 21 27
49 67 62 89 43 72 112 155 130 155 6 0 19 -4 29 -10z m1331 -512 c60 -121 143
-201 273 -262 106 -51 152 -68 332 -125 81 -26 149 -54 180 -75 28 -19 66 -38
85 -41 20 -3 67 -24 105 -46 146 -82 165 -89 268 -94 53 -2 111 0 128 5 21 6
37 6 44 0 18 -15 24 -94 15 -200 -4 -52 -4 -105 1 -116 4 -13 2 -41 -7 -70 -7
-27 -18 -89 -24 -139 -5 -49 -17 -128 -25 -175 -18 -92 -29 -160 -41 -230 -3
-25 -11 -50 -16 -56 -4 -6 -15 -34 -23 -62 -52 -175 -148 -323 -261 -402 -77
-53 -237 -130 -272 -130 -11 0 -57 -14 -102 -31 -66 -25 -92 -30 -133 -26 -28
2 -64 1 -81 -4 -18 -5 -59 -3 -110 6 -45 8 -119 21 -166 29 -47 9 -100 16
-118 16 -19 0 -48 6 -65 14 -40 18 -233 66 -312 77 -33 5 -89 13 -125 18 -36
5 -83 15 -105 21 -112 33 -189 62 -213 79 -15 10 -79 44 -143 75 -128 62 -219
132 -289 221 -25 31 -62 75 -82 96 -21 22 -38 44 -38 48 0 5 -20 42 -45 82
-25 40 -45 80 -45 89 0 8 -13 43 -30 78 -20 43 -31 83 -34 130 -3 37 -10 99
-16 137 -6 39 -13 93 -16 120 -2 28 -8 91 -13 140 -5 50 -7 92 -5 94 2 2 20 4
40 3 76 -3 190 39 294 108 107 71 396 210 590 284 197 75 261 105 318 148 75
58 150 143 180 205 15 31 33 53 42 52 9 0 33 -37 60 -91z m-144 -2308 c43 -11
96 -27 118 -36 36 -14 87 -23 251 -44 72 -9 143 -25 151 -33 8 -8 34 -110 34
-134 0 -33 -36 -50 -125 -59 -102 -11 -181 -6 -214 11 -14 7 -53 16 -86 20
-33 4 -80 16 -105 27 -25 10 -64 22 -88 25 -23 3 -44 9 -47 13 -2 4 3 44 13
89 14 66 14 85 4 102 -12 19 -9 39 7 39 4 0 43 -9 87 -20z"/>
<path d="M7310 11998 c-77 -21 -102 -75 -73 -154 25 -65 67 -94 140 -94 49 0
55 2 73 33 11 17 20 44 20 59 0 15 4 38 10 52 13 35 -4 71 -45 96 -35 22 -70
24 -125 8z"/>
<path d="M6148 11883 c-14 -2 -38 -15 -52 -28 -21 -20 -26 -33 -26 -74 0 -68
37 -125 96 -145 39 -13 46 -13 83 6 45 22 47 26 56 123 9 92 2 99 -115 119 -8
2 -27 1 -42 -1z"/>
<path d="M7563 11403 c-11 -10 -33 -48 -48 -85 -15 -37 -43 -85 -61 -107 -19
-22 -34 -47 -34 -56 0 -29 -102 -115 -180 -152 -41 -19 -103 -48 -136 -64 -34
-16 -70 -29 -80 -29 -11 0 -32 -7 -49 -16 -16 -8 -55 -20 -85 -26 -30 -5 -68
-17 -84 -25 -21 -11 -48 -14 -100 -10 -94 7 -241 32 -293 50 -54 18 -222 146
-229 173 -10 40 -95 65 -125 38 -28 -25 -26 -101 4 -144 25 -38 167 -139 230
-165 23 -9 61 -25 84 -35 22 -11 70 -24 105 -30 34 -6 85 -16 111 -21 76 -14
156 -11 232 10 39 11 108 27 155 37 94 18 203 59 295 109 33 18 76 38 95 44
19 6 53 29 75 50 42 39 159 215 191 286 10 22 26 49 36 61 51 58 -51 158 -109
107z"/>
<path d="M11245 10758 c-55 -4 -150 -13 -210 -19 -61 -7 -140 -9 -175 -5 -175
18 -186 18 -250 1 -45 -12 -84 -31 -129 -65 -36 -27 -86 -56 -111 -66 -61 -23
-185 -119 -221 -170 -15 -23 -35 -44 -42 -47 -29 -11 -175 -243 -203 -322 -8
-22 -24 -60 -36 -85 -77 -164 -122 -297 -138 -408 -26 -189 -33 -593 -12 -717
7 -38 17 -107 22 -153 6 -45 20 -113 30 -150 10 -37 28 -100 39 -141 11 -40
25 -79 30 -85 11 -14 37 -105 50 -180 7 -40 31 -95 73 -170 49 -89 84 -136
180 -238 65 -70 118 -131 118 -136 0 -5 46 -55 101 -111 l102 -102 -29 -31
c-31 -32 -163 -98 -197 -98 -11 0 -61 22 -111 49 -50 26 -104 51 -121 55 -30
8 -114 55 -192 108 -23 15 -44 28 -47 28 -23 0 -255 123 -312 166 -39 29 -89
63 -110 75 -22 13 -55 35 -74 50 -19 14 -64 41 -100 58 -72 36 -99 55 -192
136 -35 30 -78 62 -96 71 -43 20 -50 39 -24 67 11 12 27 36 35 52 8 17 27 41
42 55 15 14 38 48 51 75 13 28 31 61 38 75 34 60 55 130 59 192 5 73 -2 88
-43 88 -33 0 -110 -54 -110 -77 0 -19 -16 -73 -36 -121 -8 -18 -14 -41 -14
-52 0 -11 -15 -40 -32 -64 -18 -24 -55 -74 -81 -110 -34 -47 -54 -66 -70 -66
-25 0 -154 63 -219 108 -24 16 -98 48 -166 72 -68 24 -134 51 -146 61 -13 10
-79 45 -147 79 -68 34 -128 65 -133 71 -6 5 1 21 20 41 17 18 49 60 73 93 24
33 79 94 122 136 66 62 79 80 79 106 0 22 -8 38 -26 52 -34 27 -48 26 -99 -3
-42 -25 -185 -187 -185 -210 0 -7 -12 -23 -26 -37 -14 -13 -34 -38 -46 -57
-11 -18 -33 -39 -48 -47 -26 -14 -35 -12 -122 21 -51 20 -124 45 -162 55 -37
11 -86 29 -109 40 -48 25 -152 55 -257 75 -144 27 -215 42 -243 53 -16 6 -94
16 -175 21 -138 10 -148 12 -169 36 -13 14 -23 36 -23 50 0 13 -13 52 -28 87
-29 64 -102 143 -206 224 -47 36 -52 38 -130 40 -77 1 -97 -2 -198 -28 -24 -6
-110 -44 -193 -84 l-150 -74 -72 -99 c-40 -54 -78 -111 -84 -126 -11 -24 -25
-31 -55 -27 -6 1 -56 -5 -111 -13 -107 -15 -165 -38 -224 -91 -55 -49 -233
-94 -245 -61 -8 22 23 62 62 81 22 10 48 37 69 68 58 92 187 207 354 320 42
27 114 85 161 127 47 42 112 96 145 120 103 76 155 129 155 161 0 32 -16 44
-75 53 -38 7 -42 4 -85 -39 -25 -26 -68 -62 -95 -80 -28 -19 -66 -49 -85 -68
-19 -19 -55 -48 -80 -65 -25 -17 -63 -47 -85 -68 -22 -20 -71 -57 -109 -83
-38 -25 -84 -56 -102 -68 -51 -35 -138 -124 -169 -173 -15 -25 -59 -75 -97
-113 -58 -56 -80 -87 -131 -189 l-62 -123 -96 -65 c-152 -104 -309 -273 -403
-434 -23 -40 -28 -60 -28 -114 0 -36 -6 -82 -15 -104 -16 -39 -15 -60 6 -248
14 -124 20 -149 46 -210 41 -98 73 -193 95 -285 12 -49 25 -106 30 -125 5 -19
11 -57 14 -85 5 -46 36 -162 72 -275 8 -25 14 -58 14 -75 0 -16 10 -69 23
-116 l23 -86 -41 -129 c-39 -119 -45 -131 -81 -157 -35 -26 -45 -28 -106 -25
-109 6 -141 60 -77 132 16 19 33 50 36 69 4 29 1 37 -22 55 -36 28 -77 28
-108 0 -14 -13 -43 -65 -66 -117 -38 -88 -39 -95 -27 -126 15 -36 88 -91 146
-111 66 -22 202 -28 262 -10 62 18 133 84 143 133 4 15 13 43 21 61 8 18 14
40 14 49 0 9 7 24 16 34 16 18 21 51 27 176 3 58 0 78 -14 100 -11 16 -19 46
-19 71 0 24 -5 53 -12 65 -6 12 -17 49 -24 82 -7 33 -20 80 -30 105 -10 25
-23 88 -30 140 -6 52 -17 109 -22 125 -6 17 -21 68 -33 115 -11 47 -38 123
-59 170 -57 126 -63 169 -64 405 -1 235 9 286 64 325 16 11 39 37 51 58 13 20
58 72 101 114 43 43 78 82 78 88 0 5 9 10 20 10 17 0 20 -7 20 -42 1 -24 5
-63 11 -88 6 -25 17 -88 24 -140 23 -158 52 -254 100 -325 14 -20 25 -48 25
-62 0 -45 41 -114 107 -180 41 -42 71 -63 86 -63 64 0 319 121 402 191 28 23
70 51 94 62 24 10 62 36 85 57 23 20 62 47 88 58 26 11 83 55 130 99 143 136
205 176 265 171 23 -2 40 -10 47 -23 17 -31 38 -43 83 -50 57 -8 149 -70 214
-144 31 -36 97 -91 155 -131 55 -38 112 -84 126 -102 26 -33 51 -48 188 -113
41 -19 102 -58 135 -86 33 -28 87 -64 120 -80 33 -16 92 -46 130 -67 144 -78
171 -90 225 -106 30 -8 82 -18 115 -22 79 -8 242 -52 293 -78 52 -27 103 -15
147 34 11 12 74 48 140 80 107 52 215 127 238 165 4 8 36 37 72 65 36 28 65
56 65 62 0 10 37 57 115 148 28 31 63 82 79 111 52 98 108 178 128 185 19 6
45 -9 138 -78 92 -69 176 -127 250 -171 47 -28 123 -82 170 -120 90 -73 166
-116 240 -137 25 -7 62 -26 83 -43 21 -16 100 -61 175 -99 75 -39 153 -81 172
-94 19 -13 55 -30 79 -39 72 -25 111 -60 111 -100 0 -18 9 -53 19 -78 12 -28
19 -69 20 -107 0 -34 4 -85 10 -113 5 -29 15 -97 21 -152 6 -55 13 -107 16
-117 9 -32 180 -155 307 -222 70 -36 135 -66 144 -66 9 0 66 -16 127 -36 103
-33 185 -49 314 -61 55 -5 76 -23 53 -46 -20 -20 -11 -48 33 -100 40 -48 63
-90 126 -232 22 -49 71 -200 91 -280 6 -22 18 -60 26 -85 31 -89 41 -126 52
-185 7 -33 16 -77 21 -97 24 -93 30 -120 50 -233 33 -187 38 -213 60 -320 26
-128 42 -530 28 -720 -11 -148 -13 -195 -8 -280 4 -75 -14 -308 -26 -326 -5
-8 -11 -41 -15 -74 -11 -107 -29 -297 -40 -420 -5 -66 -19 -145 -29 -175 -21
-60 -46 -170 -60 -265 -8 -59 -33 -157 -64 -260 -9 -27 -16 -60 -16 -72 0 -23
-16 -63 -74 -183 -43 -91 -165 -250 -227 -296 -185 -138 -191 -141 -260 -148
-123 -13 -197 31 -299 179 -107 157 -190 285 -220 339 -17 33 -46 83 -64 110
-18 28 -51 85 -74 127 -23 41 -51 84 -63 95 -32 29 -100 138 -147 236 -34 69
-54 97 -102 140 -69 60 -127 138 -169 228 -41 86 -101 150 -140 150 -26 0 -46
15 -119 92 -198 207 -285 286 -348 314 -30 13 -84 44 -121 68 -38 25 -88 50
-113 56 -25 6 -61 17 -80 24 -19 7 -57 19 -84 25 -29 7 -71 29 -105 55 -31 24
-76 51 -101 60 -72 28 -170 77 -178 90 -8 12 -9 32 -17 296 -10 315 -6 366 35
387 23 11 107 31 285 67 39 8 84 19 100 24 58 20 141 41 200 51 64 11 217 55
250 71 11 5 105 44 208 85 307 122 372 181 301 276 -32 43 -54 94 -54 126 0
13 -11 39 -25 57 -14 18 -25 43 -25 56 0 12 -9 38 -21 57 -23 38 -56 118 -71
178 -6 22 -26 56 -44 75 -19 20 -34 39 -34 44 0 4 -9 21 -21 37 -11 16 -31 61
-45 101 -23 67 -42 105 -155 313 -21 39 -51 106 -65 150 -15 44 -40 103 -55
131 -31 55 -159 368 -159 387 0 7 -9 23 -20 37 -11 14 -20 41 -20 62 0 33 -5
41 -38 63 -46 31 -55 47 -78 144 -15 64 -16 89 -6 180 6 58 10 161 9 229 -2
110 -4 125 -21 138 -51 37 -147 0 -131 -49 14 -46 26 -154 22 -197 -3 -25 -6
-109 -8 -187 -2 -106 0 -145 10 -157 14 -17 9 -82 -9 -116 -5 -10 -47 -46 -92
-81 -46 -34 -94 -74 -108 -89 -22 -24 -59 -47 -205 -130 -22 -12 -62 -31 -89
-42 -27 -10 -69 -28 -92 -39 -24 -10 -46 -19 -49 -19 -4 0 -41 -15 -84 -34
-77 -34 -207 -70 -291 -82 -25 -3 -76 -14 -115 -24 -162 -43 -283 -56 -470
-54 -157 2 -187 5 -225 22 -94 43 -192 72 -243 72 -58 0 -139 33 -227 94 -29
20 -70 39 -92 42 -56 9 -86 52 -103 151 -8 43 -14 94 -15 114 0 20 -6 54 -14
75 -8 24 -11 61 -8 96 2 32 -1 124 -8 205 -7 81 -13 192 -15 246 -2 56 -11
119 -20 148 -11 33 -15 65 -11 89 6 36 3 41 -27 64 -44 34 -68 33 -107 -4 -34
-32 -36 -48 -12 -115 14 -38 28 -134 43 -295 17 -176 19 -199 23 -347 3 -74
10 -141 16 -154 9 -15 10 -55 5 -136 -7 -112 -7 -115 19 -152 26 -37 26 -39
11 -81 -8 -23 -15 -49 -15 -56 0 -12 -36 -91 -67 -149 -26 -48 -83 -188 -83
-205 0 -19 -12 -49 -93 -230 -9 -19 -25 -66 -37 -105 -12 -38 -42 -113 -67
-165 -57 -121 -59 -124 -117 -212 -55 -83 -86 -148 -86 -184 0 -13 -7 -41 -15
-61 -8 -21 -18 -72 -24 -113 -5 -41 -17 -96 -26 -122 -20 -57 -16 -71 27 -98
25 -16 43 -19 75 -14 39 6 45 3 75 -28 52 -55 82 -68 201 -89 62 -12 146 -27
187 -34 41 -8 111 -28 155 -46 119 -47 125 -48 294 -54 143 -6 271 -24 312
-46 11 -6 18 -27 22 -66 4 -32 9 -78 12 -103 3 -25 7 -131 9 -237 3 -219 10
-243 69 -243 52 0 77 34 77 102 0 31 -5 69 -10 83 -6 15 -12 116 -13 226 -3
161 -1 202 10 211 8 6 37 11 66 9 29 -1 126 3 216 8 178 10 201 7 201 -34 0
-13 4 -35 9 -48 5 -13 12 -101 14 -195 5 -172 13 -214 48 -235 25 -16 66 0 94
37 26 34 26 35 11 86 -9 30 -18 112 -21 189 -3 75 -8 143 -11 152 -9 31 27 47
116 52 459 28 511 30 522 19 13 -13 20 -630 7 -647 -5 -6 -181 -10 -496 -9
l-488 0 -72 -33 c-40 -18 -87 -36 -105 -40 -63 -11 -259 -115 -318 -167 -35
-31 -207 -139 -250 -156 -42 -17 -160 -115 -216 -178 -23 -26 -55 -74 -73
-107 -17 -33 -51 -91 -74 -130 -24 -38 -63 -104 -87 -145 -24 -41 -51 -84 -61
-95 -25 -29 -149 -236 -149 -249 0 -6 -14 -31 -30 -55 -17 -24 -30 -53 -30
-63 0 -25 -70 -158 -104 -198 -14 -17 -34 -50 -45 -73 -10 -23 -49 -73 -86
-112 -37 -38 -84 -90 -103 -115 -47 -59 -94 -103 -165 -151 -94 -65 -118 -72
-261 -76 -120 -3 -132 -2 -182 22 -30 14 -67 28 -83 31 -35 7 -44 16 -134 126
-76 94 -138 223 -142 298 -2 25 -6 72 -10 106 -10 78 4 120 63 192 25 31 63
85 83 120 31 53 53 75 133 132 167 120 228 146 411 175 83 13 350 97 420 132
17 9 50 30 75 48 25 17 60 37 78 45 19 7 47 34 69 64 20 28 53 69 73 91 57 62
90 131 96 200 3 33 10 68 16 79 22 41 -1 144 -57 255 -29 58 -59 126 -65 150
-16 60 -107 156 -177 187 -29 13 -90 48 -135 77 -46 29 -99 63 -118 74 -58 35
-186 63 -346 75 -133 9 -157 9 -199 -6 -27 -9 -57 -16 -67 -16 -10 0 -37 -8
-61 -19 -23 -10 -69 -29 -102 -42 -93 -35 -160 -76 -204 -124 -34 -37 -41 -52
-41 -84 0 -67 46 -94 107 -63 107 54 159 60 306 34 60 -11 197 -101 220 -146
40 -76 69 -171 63 -211 -10 -74 -47 -175 -76 -208 -15 -18 -45 -57 -64 -87
-20 -30 -71 -85 -113 -123 -80 -71 -122 -89 -268 -117 -113 -22 -298 -93 -325
-125 -7 -9 -30 -25 -51 -35 -62 -32 -164 -154 -216 -260 -26 -52 -50 -110 -54
-130 -4 -19 -12 -53 -18 -75 -29 -114 -38 -216 -29 -320 3 -33 9 -105 13 -160
6 -89 18 -143 56 -264 6 -19 17 -62 24 -96 8 -35 25 -92 39 -127 14 -36 26
-74 26 -84 0 -29 68 -215 85 -234 8 -9 15 -23 15 -31 0 -8 13 -41 29 -74 17
-33 42 -85 56 -115 60 -125 77 -151 127 -191 28 -22 79 -53 112 -69 34 -16 94
-47 135 -70 l74 -40 134 0 c74 0 155 5 181 11 62 16 249 139 332 220 36 35 81
78 100 96 19 17 67 64 105 103 39 39 88 84 110 101 22 16 56 52 75 80 19 28
50 68 68 88 17 21 32 43 32 48 0 6 12 26 28 46 15 20 43 58 62 84 42 57 128
145 190 193 25 19 68 54 95 78 58 51 195 209 195 224 0 5 11 23 25 40 14 16
25 36 25 43 0 8 18 42 40 77 22 34 48 86 56 115 12 41 26 61 60 90 25 21 64
58 87 82 23 24 58 54 77 66 63 40 496 150 685 175 99 12 522 4 562 -11 15 -6
74 -12 129 -14 l102 -3 123 -61 c198 -97 328 -167 352 -188 12 -11 58 -44 102
-73 44 -29 94 -65 111 -79 17 -14 51 -38 75 -54 139 -87 165 -106 179 -133 10
-17 40 -42 76 -61 40 -21 87 -62 147 -125 48 -51 110 -117 139 -147 33 -36 64
-84 90 -140 98 -214 114 -242 205 -334 48 -50 95 -101 104 -114 8 -13 62 -66
120 -118 120 -110 247 -198 509 -355 57 -34 130 -80 161 -101 70 -47 137 -74
206 -83 29 -4 80 -15 114 -26 33 -11 65 -17 71 -14 5 3 53 7 106 9 53 2 135 8
181 14 80 10 204 44 227 62 6 5 44 16 85 24 41 9 90 27 109 40 19 14 46 32 60
42 14 9 44 35 68 56 24 21 65 48 90 59 57 25 82 46 82 68 0 10 7 24 16 31 9 7
39 47 67 89 28 41 66 94 84 118 18 24 33 51 33 61 0 10 12 28 26 42 31 28 54
77 54 116 0 15 14 66 31 113 16 47 34 99 38 115 5 17 20 55 34 85 45 97 91
289 95 400 1 14 5 75 11 135 5 61 7 120 4 132 -3 12 0 37 6 56 14 40 19 113
25 320 3 82 9 154 14 160 39 52 88 502 71 647 -6 47 -9 101 -8 120 4 91 -9
297 -21 330 -5 14 -9 48 -8 75 3 92 -14 238 -43 360 -21 88 -28 134 -33 215
-3 57 -14 115 -34 175 -32 97 -46 187 -44 275 2 38 -6 77 -24 125 -14 39 -29
86 -33 105 -4 19 -17 54 -29 77 -12 22 -24 61 -28 85 -4 23 -12 54 -19 68 -7
14 -15 42 -19 63 -4 21 -24 75 -45 120 -21 45 -41 99 -45 119 -4 20 -22 72
-42 114 -37 82 -74 207 -74 251 0 15 -9 37 -21 49 -26 27 -20 40 24 48 47 9
122 81 136 131 14 52 13 75 -4 105 -8 14 -14 37 -15 52 0 14 -16 59 -35 99
-19 41 -35 85 -35 100 0 39 -19 89 -49 129 -35 46 -63 92 -105 171 -19 36 -46
79 -59 95 -13 16 -50 78 -82 137 -51 96 -57 113 -51 147 8 49 -13 74 -71 83
-22 4 -48 16 -59 28 -10 12 -57 39 -104 61 -82 38 -139 51 -290 67 -79 8 -94
17 -145 89 -22 31 -53 71 -70 90 -16 20 -43 56 -60 82 -16 26 -54 83 -82 126
-29 43 -53 85 -53 93 0 9 -11 34 -25 56 -62 103 -76 136 -76 188 -1 205 7 240
77 317 58 64 111 86 229 94 74 5 113 3 150 -8 60 -17 188 -23 265 -12 109 16
294 67 364 100 107 52 263 195 300 276 8 19 30 62 49 94 31 56 37 61 86 74 59
17 78 11 161 -50 36 -25 99 -124 115 -178 4 -14 17 -41 29 -60 30 -45 52 -131
65 -250 10 -92 10 -95 -13 -120 -37 -39 -46 -64 -46 -125 0 -31 -9 -81 -21
-113 -11 -31 -27 -82 -35 -112 -14 -51 -14 -56 3 -68 22 -16 84 -10 117 12 25
16 31 42 56 230 12 89 14 96 40 96 18 0 32 -16 104 -118 64 -90 77 -102 107
-102 35 0 75 36 85 76 6 23 2 31 -20 48 -54 40 -177 161 -197 192 -17 27 -37
113 -69 294 -11 61 -25 105 -44 132 -9 12 -16 32 -16 44 0 32 -33 104 -65 142
-16 19 -64 65 -107 103 l-78 69 -63 0 c-95 0 -97 3 -63 107 16 48 35 97 42
108 7 11 15 60 19 109 4 49 11 101 17 115 5 14 12 76 15 137 5 88 2 121 -11
159 -9 27 -16 59 -16 72 0 13 -16 55 -35 93 -19 38 -35 78 -35 88 0 18 -42 75
-166 226 -82 99 -238 165 -391 166 -33 0 -105 9 -160 20 -105 21 -220 24 -398
8z m410 -154 c66 -8 150 -14 188 -14 37 0 88 -5 112 -11 45 -11 61 -26 185
-169 122 -141 187 -315 173 -468 -3 -37 -10 -75 -14 -84 -10 -18 -29 -160 -33
-243 -3 -46 -12 -69 -78 -202 -12 -23 -28 -45 -37 -48 -35 -14 -245 -24 -300
-14 -192 33 -354 94 -449 167 -40 32 -92 71 -116 87 -24 17 -66 55 -92 85 -27
30 -53 57 -57 58 -26 12 -66 56 -72 79 -9 38 -44 73 -71 73 -27 0 -74 -53 -74
-83 0 -52 89 -160 212 -259 247 -200 355 -264 484 -288 38 -7 89 -21 114 -32
47 -20 172 -38 276 -38 33 0 63 -3 66 -6 12 -12 -45 -121 -85 -162 -79 -81
-276 -184 -408 -213 -102 -22 -237 -22 -334 1 -139 32 -410 -33 -449 -108 -8
-15 -34 -46 -59 -69 -51 -49 -54 -61 -63 -243 -3 -71 -1 -140 7 -179 16 -87
123 -307 212 -437 40 -58 86 -125 102 -149 43 -62 168 -227 240 -315 33 -41
80 -113 104 -160 24 -47 55 -97 70 -111 14 -15 39 -48 55 -74 l29 -47 -21 -20
c-15 -16 -41 -23 -99 -30 -164 -18 -284 -20 -346 -8 -69 14 -87 25 -87 49 0 9
-9 32 -19 52 -11 20 -33 76 -51 125 -36 102 -92 181 -161 228 -26 17 -89 76
-140 131 -51 55 -100 106 -110 113 -10 7 -39 40 -65 73 -25 33 -76 90 -112
127 -37 38 -104 114 -149 170 -68 84 -83 110 -89 149 -4 26 -13 62 -20 80 -8
18 -14 47 -14 66 0 18 -4 37 -10 43 -5 5 -28 75 -50 154 -22 80 -44 159 -49
175 -11 39 -27 126 -44 245 -16 112 -16 518 0 625 23 146 76 326 112 381 17
25 31 47 31 50 0 3 12 30 26 60 14 29 23 62 20 72 -4 11 9 38 34 72 22 30 55
78 74 105 45 65 176 183 273 247 43 28 95 66 115 84 54 48 130 68 232 59 149
-13 478 -5 581 13 57 10 129 7 300 -14z m-5606 -1456 c1 -18 4 -105 9 -193 7
-153 9 -163 41 -235 19 -41 44 -87 55 -101 12 -15 49 -62 84 -104 43 -53 61
-83 56 -94 -3 -9 -10 -36 -15 -61 -13 -63 -62 -111 -126 -121 -26 -4 -60 -11
-75 -15 -40 -9 -66 0 -128 47 -30 23 -75 50 -100 61 -106 47 -130 62 -188 121
-52 52 -65 72 -78 122 -27 100 -33 137 -34 211 0 66 3 76 34 120 19 27 51 73
70 101 32 47 48 59 158 115 169 86 236 93 237 26z m223 -61 c56 -52 89 -120
69 -140 -5 -5 -36 -9 -71 -10 -54 -2 -64 1 -81 22 -16 20 -18 34 -13 90 10
112 14 114 96 38z m1 -310 c15 -11 16 -15 4 -31 -9 -12 -20 -17 -31 -13 -23 9
-32 37 -15 48 18 12 22 11 42 -4z m597 -42 c30 -9 89 -19 130 -22 41 -3 84
-10 95 -16 11 -6 47 -20 80 -33 33 -12 85 -32 115 -43 30 -12 87 -31 127 -41
88 -23 221 -83 229 -104 3 -8 -6 -30 -20 -49 -14 -19 -26 -37 -26 -42 0 -4
-11 -20 -25 -37 -14 -16 -28 -42 -31 -56 -3 -15 -19 -73 -35 -130 -16 -56 -29
-111 -29 -122 0 -11 -6 -20 -14 -20 -25 0 -140 57 -180 89 -21 17 -42 31 -46
31 -4 0 -38 23 -75 50 -65 48 -81 55 -190 79 -27 7 -83 28 -124 48 -69 32 -85
36 -196 43 -148 8 -195 26 -208 79 -5 19 -33 62 -63 95 -60 68 -71 106 -29
106 19 0 37 15 72 60 26 33 56 63 67 65 76 17 269 2 376 -30z m-1470 0 c7 -9
15 -38 18 -65 4 -48 4 -49 -34 -68 -22 -11 -52 -39 -69 -61 -32 -44 -59 -56
-103 -48 -30 6 -68 -11 -95 -41 -17 -19 -17 -22 -2 -52 16 -32 68 -70 95 -70
27 0 154 66 198 104 24 20 47 36 51 36 16 0 49 -32 80 -77 24 -35 55 -62 109
-95 42 -24 81 -52 86 -61 9 -14 -6 -33 -84 -108 -52 -50 -125 -110 -161 -134
-37 -24 -88 -60 -114 -79 -25 -20 -59 -39 -73 -42 -33 -8 -82 -42 -142 -100
-81 -77 -284 -148 -326 -113 -9 7 -25 33 -36 58 -11 25 -37 82 -58 126 -55
115 -71 169 -80 270 -5 50 -12 125 -16 168 -8 94 9 181 40 203 127 89 195 120
280 128 60 5 120 32 151 66 42 47 104 68 201 69 53 1 75 -3 84 -14z m2474
-327 c34 -12 90 -39 126 -60 116 -67 204 -107 270 -124 73 -18 149 -54 171
-80 8 -9 51 -34 97 -55 45 -21 82 -44 82 -51 0 -7 -12 -24 -26 -37 -14 -14
-41 -54 -59 -90 -18 -36 -54 -86 -80 -111 -25 -25 -53 -60 -60 -78 -36 -84
-348 -335 -495 -397 -19 -9 -57 -26 -83 -39 -45 -22 -51 -23 -105 -9 -99 24
-154 33 -194 33 -80 0 -237 51 -308 100 -14 10 -69 41 -123 69 -55 29 -125 71
-156 94 -54 40 -121 76 -240 128 -37 16 -70 42 -108 86 -30 34 -75 74 -101 89
-25 15 -61 41 -80 58 -95 87 -162 158 -162 171 0 9 12 20 27 26 14 5 53 34 85
64 32 30 71 58 85 61 14 4 60 -1 102 -10 42 -9 106 -16 142 -16 55 0 76 -5
130 -33 35 -19 98 -44 139 -56 124 -37 163 -53 205 -81 83 -56 252 -158 306
-184 70 -35 108 -32 128 9 12 26 12 33 -3 59 -17 30 -17 30 13 58 27 26 31 35
31 85 0 47 9 73 61 179 56 116 89 164 112 164 6 0 37 -10 71 -22z m3623 -1039
c74 -25 134 -74 163 -134 19 -39 21 -55 15 -115 -8 -83 -22 -106 -57 -97 -25
7 -51 39 -140 175 -46 70 -98 174 -91 184 8 13 47 9 110 -13z m-917 -105 c83
-56 132 -127 170 -250 31 -102 8 -112 -145 -69 -33 9 -97 25 -143 35 -118 26
-138 46 -118 121 15 60 28 75 95 109 31 15 65 37 75 49 23 25 34 26 66 5z
m1259 -312 c10 -15 31 -54 45 -86 15 -33 41 -80 60 -106 41 -57 96 -179 96
-212 0 -13 6 -32 13 -43 30 -45 58 -142 52 -178 -16 -81 -83 -99 -380 -97
-458 2 -538 5 -580 23 -22 9 -85 20 -140 26 -55 5 -116 16 -135 25 -19 8 -78
32 -130 52 -155 59 -224 100 -303 180 l-72 73 -1 118 c-1 67 3 121 8 124 6 4
60 -6 121 -22 68 -18 137 -29 178 -29 37 0 100 -9 145 -22 45 -13 102 -21 134
-20 30 1 82 -5 115 -13 124 -30 312 -15 440 35 134 52 168 73 230 137 33 34
65 62 72 62 6 1 21 -12 32 -27z m-3059 -269 c17 -26 30 -55 30 -65 0 -9 17
-57 39 -105 56 -128 91 -221 91 -242 0 -11 11 -33 25 -49 14 -17 25 -34 25
-38 0 -19 83 -210 99 -229 21 -25 41 -70 41 -94 0 -10 15 -43 33 -73 17 -29
40 -74 50 -98 26 -63 51 -113 102 -205 24 -44 44 -93 44 -109 1 -29 58 -156
92 -207 20 -28 50 -107 69 -181 11 -41 10 -51 -4 -72 -20 -32 -34 -39 -158
-82 -57 -20 -150 -55 -208 -78 -93 -38 -176 -63 -305 -94 -22 -5 -79 -21 -126
-35 -48 -14 -117 -30 -155 -36 -38 -6 -114 -19 -169 -30 -194 -39 -221 -42
-300 -41 -44 1 -133 -3 -197 -8 -186 -17 -1122 -20 -1183 -4 -58 15 -150 27
-329 42 -91 7 -142 16 -175 31 -54 25 -167 59 -196 59 -11 1 -38 9 -60 20 -22
11 -50 19 -62 20 -72 1 -243 59 -243 83 0 4 -21 17 -46 27 -25 11 -43 23 -40
28 2 4 9 52 15 107 12 108 33 160 125 315 70 117 128 239 151 320 16 53 93
268 129 360 24 59 62 141 121 260 12 25 26 63 30 85 15 87 40 94 137 39 169
-98 185 -104 263 -104 60 0 93 -7 191 -42 l119 -43 260 1 c225 1 275 5 370 24
140 28 437 113 512 147 137 60 456 225 506 260 115 81 205 153 210 167 12 31
47 17 77 -31z m3051 -584 c77 1 109 -2 116 -11 6 -7 25 -58 42 -113 17 -55 42
-122 55 -150 41 -89 86 -200 86 -214 0 -7 9 -28 20 -46 11 -17 29 -63 40 -101
11 -38 27 -92 35 -120 9 -29 22 -57 30 -64 8 -7 15 -24 15 -39 0 -15 15 -72
34 -127 20 -59 37 -132 41 -175 8 -100 34 -246 50 -289 8 -19 16 -82 19 -140
5 -100 26 -226 41 -250 4 -6 8 -24 10 -38 2 -15 10 -58 18 -97 9 -38 18 -137
21 -220 2 -82 10 -177 16 -210 20 -107 25 -226 18 -400 -12 -292 -23 -383 -65
-545 -5 -19 -11 -93 -12 -164 -1 -71 -4 -133 -7 -137 -11 -18 -25 -173 -25
-279 0 -229 -33 -439 -93 -595 -15 -38 -38 -102 -52 -142 -13 -40 -33 -89 -44
-110 -11 -21 -20 -49 -20 -63 0 -27 -29 -80 -102 -187 -25 -38 -53 -84 -61
-103 -18 -42 -125 -146 -223 -218 -91 -67 -170 -102 -325 -146 -68 -20 -156
-46 -196 -57 -64 -20 -86 -21 -200 -16 -70 4 -155 13 -188 21 -67 17 -249 103
-310 147 -22 16 -76 53 -120 81 -44 28 -109 70 -145 93 -36 23 -90 58 -120 77
-30 20 -74 55 -97 79 -98 101 -231 253 -268 307 -22 32 -57 78 -77 103 -21 25
-52 77 -69 115 -17 38 -45 85 -61 104 -16 19 -56 71 -88 115 -32 44 -107 130
-167 191 -86 89 -124 120 -188 154 -44 24 -121 77 -172 119 -50 42 -125 96
-165 121 -40 24 -113 73 -162 109 -49 35 -116 75 -149 88 -32 13 -83 37 -111
53 -96 54 -275 104 -406 114 -41 3 -98 10 -127 15 -83 15 -492 25 -549 13 -27
-6 -83 -15 -124 -22 -41 -6 -130 -29 -197 -51 -67 -21 -131 -39 -141 -39 -10
0 -45 -9 -77 -20 -32 -11 -76 -20 -98 -20 -55 0 -135 -51 -254 -162 -106 -98
-130 -130 -148 -198 -7 -26 -27 -60 -46 -81 -19 -19 -52 -66 -74 -102 -99
-167 -115 -186 -192 -248 -43 -34 -122 -103 -176 -152 -83 -77 -103 -101 -134
-166 -19 -42 -45 -88 -57 -102 -11 -15 -29 -40 -38 -57 -9 -17 -45 -52 -80
-79 -35 -26 -94 -78 -133 -114 -38 -36 -92 -82 -120 -102 -27 -20 -63 -53 -80
-73 -16 -20 -67 -76 -113 -124 -75 -79 -90 -90 -150 -109 -122 -40 -272 -27
-397 36 -56 29 -175 110 -175 121 0 4 -25 38 -55 76 -30 38 -55 77 -55 87 0
10 -11 42 -24 71 -26 59 -42 102 -61 168 -25 82 -37 114 -66 175 -16 33 -29
69 -29 81 0 11 -14 69 -30 128 -17 59 -35 146 -40 194 -5 48 -17 139 -25 202
-18 129 -13 229 15 295 9 22 19 56 22 75 13 77 59 149 162 254 82 83 114 109
171 135 70 33 93 39 240 66 101 19 225 80 288 140 27 25 87 103 134 173 47 70
94 137 105 149 11 11 23 36 28 55 5 18 18 64 29 103 26 87 26 107 0 207 -35
137 -129 253 -263 323 -42 22 -76 45 -76 51 0 25 58 37 118 26 31 -6 97 -14
146 -18 63 -5 110 -15 155 -34 79 -32 245 -140 318 -206 49 -43 123 -157 123
-188 0 -7 9 -25 20 -38 66 -85 62 -246 -10 -338 -15 -19 -34 -49 -43 -66 -43
-83 -237 -206 -405 -259 -140 -43 -156 -47 -247 -55 -107 -9 -245 -59 -325
-117 -152 -111 -240 -196 -266 -258 -8 -20 -37 -64 -63 -98 -27 -34 -61 -84
-75 -111 -24 -46 -26 -58 -26 -184 l0 -135 40 -78 c22 -43 40 -85 40 -94 0 -9
23 -42 50 -73 28 -31 69 -87 91 -124 65 -108 122 -149 269 -197 131 -43 379
-7 513 73 102 60 322 285 390 398 19 31 47 72 63 91 56 65 99 133 149 237 56
116 83 163 115 200 11 14 44 63 71 110 28 47 63 99 79 115 16 18 39 64 55 115
33 100 112 227 194 309 40 40 85 71 155 106 55 27 127 71 160 97 34 25 106 70
161 98 55 29 127 67 160 85 33 18 103 46 155 61 90 27 104 28 280 27 102 -1
270 -6 374 -11 104 -6 199 -6 211 -2 12 5 80 5 151 1 l129 -8 184 -91 c102
-50 210 -99 240 -108 31 -9 61 -19 66 -24 6 -4 44 -22 85 -40 71 -31 211 -116
257 -156 11 -10 53 -41 92 -69 39 -27 73 -59 77 -69 10 -31 85 -106 146 -148
36 -24 65 -53 77 -77 11 -21 31 -45 45 -55 14 -9 37 -39 51 -67 24 -47 125
-173 186 -230 15 -15 39 -50 54 -79 29 -57 109 -179 176 -270 22 -30 51 -77
64 -105 37 -76 71 -134 103 -174 16 -20 39 -56 52 -80 23 -46 77 -127 117
-174 12 -16 23 -33 23 -38 0 -20 81 -129 142 -191 77 -77 113 -96 232 -115
125 -20 199 -7 283 51 27 18 68 43 91 55 70 36 241 216 242 255 0 5 21 41 47
80 50 76 72 130 98 241 8 39 27 102 40 140 14 39 35 138 49 220 13 83 28 164
34 180 9 27 31 120 47 200 3 17 8 82 11 145 4 63 13 153 20 200 24 143 33 209
44 350 13 143 15 203 23 610 2 140 7 275 11 300 4 25 2 79 -4 120 -6 41 -12
86 -14 100 -2 14 -9 48 -15 75 -7 28 -18 86 -26 130 -8 44 -21 114 -29 155 -8
41 -19 104 -26 140 -11 65 -33 165 -50 230 -5 19 -18 73 -29 120 -11 47 -32
119 -46 160 -14 41 -33 104 -42 140 -9 36 -31 112 -49 170 -19 57 -34 111 -34
120 0 8 -14 32 -31 52 -31 35 -91 157 -84 168 2 3 88 4 192 2 103 -3 236 -4
294 -3z"/>
<path d="M11600 10243 c-50 -20 -62 -64 -36 -127 28 -67 127 -122 174 -97 28
15 45 91 32 140 -14 55 -50 83 -107 87 -26 2 -55 1 -63 -3z"/>
<path d="M2245 10203 c-38 -2 -75 -9 -82 -15 -17 -14 -17 -104 0 -115 6 -4 42
-10 80 -14 114 -10 108 11 105 -358 -3 -283 -5 -316 -19 -319 -9 -2 -259 170
-555 381 -297 211 -549 389 -561 395 -28 16 -126 15 -141 0 -9 -9 -12 -130
-12 -484 0 -410 2 -473 15 -484 21 -17 288 -9 310 10 19 15 20 93 2 108 -7 6
-37 14 -67 17 -75 9 -109 23 -115 49 -3 11 -4 142 -3 291 3 244 5 270 20 273
10 2 246 -160 556 -381 297 -212 549 -390 560 -396 28 -15 135 -14 150 1 17
17 17 1019 0 1036 -12 12 -77 13 -243 5z"/>
<path d="M8112 9955 c-28 -12 -33 -19 -30 -42 2 -23 11 -30 43 -41 22 -7 58
-21 80 -31 22 -10 51 -22 65 -26 14 -4 63 -27 110 -50 47 -23 153 -66 235 -95
83 -28 169 -63 191 -76 65 -37 122 -112 151 -201 23 -68 26 -96 27 -219 1
-146 7 -166 46 -179 30 -9 89 21 102 52 6 16 11 85 11 163 0 114 -4 145 -22
195 -12 33 -30 82 -39 109 -17 48 -101 145 -176 200 -39 29 -118 56 -165 56
-20 0 -60 11 -89 25 -30 14 -58 25 -63 25 -5 0 -58 22 -117 49 -119 54 -259
101 -300 101 -15 -1 -42 -7 -60 -15z"/>
<path d="M1157 8930 c-22 -14 -61 -101 -90 -200 -26 -91 -31 -319 -8 -410 82
-333 396 -505 855 -469 127 10 261 45 341 87 74 40 166 135 204 213 57 117 74
280 46 445 -17 93 -77 287 -97 312 -15 18 -94 11 -114 -10 -13 -12 -10 -31 22
-139 46 -157 58 -322 29 -410 -65 -201 -260 -309 -558 -309 -126 0 -266 21
-375 55 -98 31 -149 74 -191 164 -24 52 -26 66 -25 186 0 111 3 138 23 189 30
76 48 92 118 106 32 6 76 16 98 23 l40 12 3 57 c3 50 0 59 -20 71 -13 8 -59
18 -103 21 -44 4 -102 9 -130 12 -28 2 -58 0 -68 -6z"/>
<path d="M2304 7382 c-6 -4 -21 -30 -33 -58 -24 -55 -35 -63 -121 -90 -76 -24
-190 -76 -282 -130 -42 -25 -86 -46 -96 -47 -11 0 -59 16 -106 37 -47 21 -92
36 -100 33 -15 -6 -56 -122 -56 -157 0 -10 6 -22 13 -28 6 -6 122 -60 257
-122 343 -156 397 -186 431 -234 64 -88 76 -229 28 -318 -38 -68 -57 -64 -149
31 -182 188 -404 273 -536 204 -63 -32 -79 -62 -82 -156 -2 -74 0 -87 25 -132
67 -118 254 -195 478 -195 55 0 78 -4 94 -17 51 -43 140 -238 126 -276 -10
-25 -68 -47 -124 -47 -28 0 -95 7 -149 15 -93 14 -373 73 -381 81 -2 2 -12 -1
-22 -7 -16 -8 -19 -22 -19 -93 0 -55 4 -87 13 -94 6 -5 95 -38 197 -71 296
-99 449 -183 518 -285 42 -63 43 -107 3 -147 -16 -16 -39 -29 -50 -29 -32 0
-180 34 -430 100 -392 103 -502 133 -1067 291 -78 22 -149 37 -158 33 -14 -5
-16 -24 -16 -124 0 -82 4 -121 13 -128 15 -12 87 -34 552 -166 204 -58 385
-113 403 -121 l32 -15 0 -118 c0 -183 36 -288 130 -376 65 -61 123 -88 302
-142 168 -50 211 -71 239 -118 23 -38 24 -64 3 -95 -16 -22 -22 -23 -78 -17
-71 7 -196 39 -383 98 -114 35 -137 40 -158 30 -56 -26 -93 -183 -75 -314 14
-103 56 -183 133 -254 108 -102 215 -148 436 -190 173 -32 191 -43 206 -125 6
-31 2 -41 -24 -71 -16 -19 -49 -43 -72 -53 -40 -19 -42 -19 -73 -1 -225 133
-545 240 -886 298 -182 31 -418 31 -516 1 -131 -41 -184 -100 -184 -203 0
-241 426 -380 1170 -380 253 0 328 -21 432 -118 51 -48 93 -115 83 -132 -3 -6
-16 -10 -27 -10 -22 0 -345 70 -537 116 -57 13 -112 22 -122 19 -17 -6 -19
-17 -19 -104 0 -68 4 -102 13 -109 7 -6 49 -18 92 -27 293 -60 525 -139 594
-204 38 -36 42 -88 10 -117 -19 -17 -44 -19 -308 -24 -275 -5 -288 -6 -334
-29 -131 -64 -91 -218 97 -368 42 -34 41 -47 -1 -58 -87 -21 -166 -105 -178
-189 -11 -74 35 -271 95 -403 33 -73 28 -83 -47 -83 -119 0 -207 -41 -261
-120 -21 -31 -23 -44 -20 -112 4 -64 11 -90 41 -150 40 -79 124 -190 157 -208
18 -10 29 -3 85 51 68 65 80 95 48 120 -30 25 -73 102 -73 131 0 17 10 39 25
53 31 32 82 32 290 6 373 -48 1412 -236 1563 -283 18 -5 44 -7 58 -4 l24 6 -6
103 c-5 72 -11 105 -21 114 -8 6 -67 23 -131 38 -65 15 -216 51 -337 80 -121
29 -263 63 -315 75 -52 12 -106 29 -118 37 -23 14 -24 18 -17 101 8 106 -9
339 -30 410 -9 28 -27 65 -41 82 -35 41 -180 110 -329 156 l-120 37 -78 79
c-43 44 -76 85 -74 91 3 9 48 11 158 8 169 -3 363 12 415 34 57 24 65 48 63
186 -1 97 2 125 13 132 18 12 710 -202 734 -227 7 -6 16 -62 22 -125 7 -79 15
-119 26 -129 20 -20 150 -52 168 -41 10 7 12 53 9 216 -2 122 -7 213 -13 221
-6 7 -110 44 -232 83 -121 39 -332 107 -467 150 -135 44 -253 87 -262 97 -8 9
-23 48 -31 86 -25 108 -50 152 -130 235 -47 47 -72 81 -68 88 4 7 31 17 59 23
181 39 248 286 141 522 l-30 66 27 68 c36 91 32 175 -14 268 -17 35 -31 70
-31 77 0 8 16 45 35 83 48 94 44 169 -14 220 -28 25 -27 42 9 117 43 92 55
158 40 233 -13 65 -39 124 -64 145 -22 19 -20 29 14 67 72 83 99 306 51 429
-19 48 -41 77 -112 147 -101 100 -104 81 19 159 51 31 67 49 84 86 40 91 3
224 -95 345 -26 32 -47 62 -47 67 0 6 20 24 44 40 50 34 75 70 105 151 39 101
21 201 -61 349 l-33 60 38 34 c48 45 79 116 85 197 5 80 -7 129 -52 198 l-34
54 25 54 c15 32 23 64 19 77 -3 13 -30 38 -66 60 -63 39 -68 41 -86 29z m-44
-342 c26 -26 26 -81 0 -137 -33 -73 -50 -74 -179 -8 -61 31 -111 61 -111 66 0
14 42 38 126 69 94 35 137 37 164 10z m-432 -787 c51 -35 90 -68 87 -74 -9
-14 -47 -11 -110 11 -101 35 -160 97 -120 126 23 17 34 12 143 -63z m147
-1408 c88 -20 171 -44 185 -54 54 -38 74 -175 36 -249 -33 -64 -140 -81 -236
-36 -140 65 -204 148 -216 280 -6 67 -5 72 17 88 13 9 30 14 39 12 8 -3 87
-21 175 -41z m-27 -936 c81 -23 160 -48 175 -56 53 -27 82 -105 57 -152 -38
-72 -220 -37 -338 64 -82 71 -111 178 -49 184 4 1 74 -18 155 -40z m-1005
-610 c204 -31 737 -173 737 -196 0 -18 -67 -17 -238 3 -360 41 -569 95 -606
157 -9 14 -7 21 8 33 11 8 21 14 23 14 3 0 37 -5 76 -11z m1106 -1760 c113
-39 181 -95 201 -167 13 -47 13 -232 0 -266 -6 -17 -17 -26 -31 -26 -30 0
-299 70 -331 86 -40 21 -118 182 -125 260 -5 53 -3 63 18 87 50 58 147 67 268
26z"/>
<path d="M1102 5903 c-53 -26 -72 -58 -72 -122 0 -66 24 -112 69 -136 62 -31
147 -11 196 47 33 39 36 132 5 170 -42 55 -133 73 -198 41z"/>
<path d="M7544 2521 c-32 -19 -32 -21 -39 -123 -4 -57 -5 -131 -2 -163 3 -33
8 -131 11 -218 3 -86 9 -192 15 -235 5 -42 8 -122 7 -177 -3 -112 2 -107 -85
-85 -32 8 -53 8 -78 -1 -66 -21 -134 3 -187 67 -36 43 -37 47 -41 138 -2 52
-8 103 -14 114 -6 12 -11 33 -11 47 0 14 -5 35 -11 47 -6 11 -13 92 -15 182
-4 182 -25 301 -56 329 -31 26 -75 22 -109 -12 -33 -33 -36 -64 -14 -128 20
-57 36 -155 40 -238 4 -89 21 -220 31 -236 8 -14 12 -62 18 -229 l3 -105 -53
-55 c-29 -30 -65 -77 -80 -105 -119 -227 -123 -237 -161 -465 -25 -150 -23
-189 7 -209 14 -9 39 -30 55 -47 66 -69 118 -73 165 -14 22 28 43 43 73 50
123 31 287 132 337 207 14 21 44 57 67 81 24 24 43 49 43 57 0 17 91 125 105
125 14 0 75 -86 75 -104 0 -19 122 -110 190 -142 30 -14 82 -39 115 -55 33
-15 105 -44 160 -64 55 -20 123 -45 150 -56 144 -60 175 -67 342 -73 205 -8
233 2 233 85 0 22 -16 46 -68 101 -38 40 -90 106 -118 147 -82 123 -133 205
-134 217 0 6 -20 54 -45 107 -44 91 -79 135 -145 178 -23 15 -26 25 -31 110
-4 52 -12 166 -19 254 -14 189 -10 459 8 493 15 26 0 95 -25 125 -22 23 -84
22 -115 -3 l-25 -19 4 -278 c2 -153 8 -290 13 -305 5 -14 5 -65 1 -113 -5 -48
-6 -107 -3 -131 6 -54 -9 -73 -80 -104 -40 -17 -76 -22 -187 -26 -105 -4 -140
-2 -149 8 -5 7 -20 99 -33 203 -18 153 -23 253 -25 515 -3 294 -5 326 -20 337
-25 18 -54 16 -90 -6z m-328 -1106 c12 -8 55 -23 97 -34 61 -17 81 -18 107
-10 25 9 35 9 46 -3 21 -20 3 -102 -29 -136 -14 -15 -45 -57 -69 -93 -136
-204 -256 -307 -421 -361 -76 -25 -97 -18 -97 30 0 56 37 220 55 248 8 13 31
63 50 111 41 101 67 138 143 211 58 54 83 62 118 37z m1022 -59 c15 -8 43 -34
63 -58 37 -44 109 -185 109 -212 0 -8 17 -34 38 -58 20 -24 44 -63 52 -87 7
-23 31 -62 52 -86 44 -50 47 -62 15 -74 -56 -21 -228 17 -376 83 -53 24 -107
47 -121 51 -33 9 -170 78 -243 122 -45 27 -69 52 -108 110 -82 124 -95 170
-57 197 32 22 59 20 112 -10 46 -26 51 -26 159 -19 61 4 122 12 136 17 14 6
51 16 81 23 30 7 56 13 58 14 2 0 15 -5 30 -13z"/>
</g>
</svg>
