<?xml version="1.0" standalone="no"?>
<!DOCTYPE svg PUBLIC "-//W3C//DTD SVG 20010904//EN"
 "http://www.w3.org/TR/2001/REC-SVG-20010904/DTD/svg10.dtd">
<svg version="1.0" xmlns="http://www.w3.org/2000/svg"
 width="1660.787583pt" height="1970.768452pt" viewBox="0 0 1660.787583 1970.768452"
 preserveAspectRatio="xMidYMid meet">
<metadata>
Created by potrace 1.13, written by Peter Selinger 2001-2015
</metadata>
<g transform="translate(-226.980886,2115.000000) scale(0.100000,-0.100000)"
fill="#000000" stroke="none">
<path d="M16195 21110 c-26 -22 -60 -47 -76 -55 -16 -9 -47 -40 -69 -70 -22
-29 -60 -68 -85 -85 -25 -17 -52 -45 -62 -63 -9 -18 -42 -59 -73 -92 -31 -33
-78 -91 -105 -130 -61 -89 -124 -155 -147 -155 -9 0 -41 11 -71 24 -54 24
-118 89 -166 168 -12 21 -37 48 -54 60 -18 12 -54 41 -82 64 -70 58 -92 67
-160 68 -111 1 -230 -60 -331 -167 -73 -78 -334 -370 -392 -440 -24 -29 -111
-123 -193 -209 l-149 -158 0 -157 c0 -207 12 -256 77 -331 32 -36 74 -70 119
-94 37 -20 85 -55 105 -77 94 -101 189 -121 189 -38 0 41 -16 64 -59 86 -20
11 -44 27 -51 36 -8 9 -48 39 -89 65 -105 68 -167 133 -180 190 -6 25 -11 96
-11 159 l0 113 73 72 c126 124 280 296 413 460 23 28 93 103 155 166 95 96
127 123 192 155 44 22 93 39 111 39 56 0 191 -93 291 -201 85 -91 87 -95 82
-134 -6 -45 11 -61 60 -57 58 3 73 -12 184 -184 16 -25 46 -58 67 -73 45 -34
146 -138 214 -222 77 -97 135 -129 184 -103 35 20 31 56 -12 96 -19 19 -39 34
-43 34 -4 0 -63 63 -130 140 -68 76 -130 142 -140 145 -26 8 -106 96 -120 132
-12 30 -10 34 37 100 27 37 55 79 62 93 14 28 46 67 138 171 34 39 69 84 77
98 7 15 29 38 47 51 18 12 49 42 68 67 35 44 183 163 203 163 12 0 90 -44 132
-75 17 -13 50 -31 75 -42 25 -11 68 -38 95 -60 28 -21 91 -70 140 -108 82 -63
405 -374 405 -391 0 -17 99 -146 161 -209 45 -46 80 -94 102 -140 19 -38 44
-79 56 -89 51 -46 48 -125 -9 -221 -16 -27 -40 -73 -53 -100 -23 -49 -197
-247 -335 -382 -53 -52 -65 -69 -69 -104 -7 -47 11 -69 54 -69 26 0 34 8 138
130 39 45 102 114 140 154 120 122 154 170 257 351 18 33 22 55 21 122 0 79
-2 84 -49 165 -66 113 -144 218 -230 309 -39 41 -83 98 -97 125 -39 74 -338
374 -465 465 -310 223 -423 289 -491 289 -20 0 -44 -13 -76 -40z"/>
<path d="M5160 21003 c-8 -3 -44 -18 -80 -33 -36 -16 -96 -33 -134 -39 -45 -7
-101 -26 -160 -54 -50 -25 -126 -59 -169 -77 -43 -18 -80 -37 -83 -41 -3 -5
-37 -28 -77 -51 -97 -56 -217 -161 -276 -242 -27 -36 -76 -97 -108 -134 -33
-37 -74 -94 -93 -127 -18 -33 -50 -82 -70 -110 -20 -27 -69 -113 -108 -190
-97 -190 -107 -238 -98 -516 3 -114 8 -213 11 -221 3 -7 14 -70 24 -139 10
-70 24 -136 31 -148 6 -13 18 -46 27 -74 36 -121 163 -344 232 -407 15 -14 59
-60 97 -104 38 -43 95 -96 126 -118 32 -21 58 -43 58 -48 0 -5 -21 -21 -47
-34 -81 -41 -143 -126 -148 -203 -9 -134 -45 -272 -77 -292 -21 -13 -83 -31
-170 -50 -45 -10 -64 -24 -84 -63 -12 -23 -13 -33 -3 -44 17 -20 88 -17 126 5
42 26 128 42 148 27 12 -9 15 -35 16 -119 0 -93 3 -111 20 -128 26 -26 55 -24
84 6 28 27 31 46 13 74 -9 15 -9 42 2 123 8 57 14 139 15 183 0 46 6 90 14
104 8 14 17 50 21 80 11 79 45 162 77 189 59 47 105 57 222 44 148 -15 219 4
367 98 26 16 70 37 98 46 50 17 156 61 266 111 64 29 392 248 495 329 39 31
94 67 124 80 51 23 60 24 130 14 41 -6 91 -15 111 -20 63 -17 185 -102 250
-174 110 -122 147 -197 271 -545 10 -30 19 -63 19 -74 0 -10 11 -40 24 -66 26
-49 115 -243 139 -301 7 -19 21 -41 30 -49 10 -7 17 -21 17 -31 0 -9 9 -28 19
-42 11 -14 61 -112 112 -219 75 -157 102 -205 145 -250 29 -31 66 -77 83 -104
16 -26 67 -81 113 -122 46 -41 117 -109 158 -152 42 -42 98 -94 125 -116 27
-22 63 -54 80 -70 40 -39 149 -104 278 -164 56 -27 142 -73 190 -104 48 -31
120 -68 160 -83 75 -29 163 -80 187 -109 20 -24 169 -123 287 -191 54 -31 112
-69 129 -83 31 -27 153 -103 248 -153 28 -16 87 -65 131 -111 44 -45 118 -114
165 -154 84 -70 156 -141 220 -218 18 -22 66 -76 105 -120 143 -158 209 -239
275 -335 19 -28 50 -70 69 -93 18 -23 42 -60 51 -82 47 -106 79 -184 91 -220
20 -64 52 -149 61 -159 9 -11 75 48 83 74 5 17 -22 103 -65 210 -13 30 -32 77
-42 104 -11 26 -52 93 -91 147 -40 54 -94 130 -122 168 -27 37 -98 120 -156
182 -59 63 -127 141 -151 174 -52 70 -212 226 -285 279 -27 19 -81 70 -120
113 -61 68 -86 87 -195 146 -69 38 -158 93 -197 123 -66 51 -222 149 -299 188
-19 10 -60 41 -92 71 -81 75 -121 99 -230 140 -105 39 -138 56 -190 96 -19 15
-91 55 -160 90 -69 34 -149 77 -178 96 -73 46 -222 173 -276 235 -25 28 -73
73 -106 99 -34 26 -78 69 -98 95 -20 27 -70 87 -110 134 -52 60 -86 113 -118
180 -63 135 -121 247 -161 308 -71 108 -206 428 -234 550 -14 63 -72 209 -138
347 -46 94 -74 138 -133 205 -91 103 -92 104 -198 175 -93 63 -177 91 -305
102 -59 5 -77 2 -110 -15 -80 -41 -262 -161 -314 -206 -57 -51 -258 -184 -299
-197 -20 -7 -73 -31 -117 -55 -44 -24 -123 -59 -175 -79 -53 -21 -111 -52
-134 -71 -41 -36 -186 -89 -222 -82 -29 5 -27 27 3 38 57 21 78 37 160 120 80
81 101 111 180 260 19 36 47 80 62 99 14 18 37 53 51 77 14 24 46 74 73 113
26 38 47 76 47 86 0 9 11 30 25 47 14 16 25 37 25 46 0 9 14 37 31 62 24 36
29 51 24 80 -5 30 -2 39 20 58 19 17 25 30 21 46 -7 28 6 99 38 206 29 95 27
157 -5 222 -32 64 -89 87 -122 50 -23 -25 -21 -70 3 -123 23 -53 25 -121 5
-179 -8 -23 -26 -98 -41 -167 -26 -130 -51 -199 -77 -221 -8 -7 -34 -45 -58
-85 -23 -40 -57 -94 -75 -122 -41 -64 -89 -145 -127 -215 -110 -201 -233 -332
-334 -359 -23 -7 -56 -23 -73 -37 -40 -34 -70 -28 -153 28 -68 46 -213 189
-256 253 -52 76 -141 253 -172 341 -59 167 -94 442 -85 674 4 116 22 193 66
285 31 64 50 116 50 134 0 10 14 30 30 46 17 16 48 62 70 101 56 102 125 191
266 345 68 74 175 159 254 201 69 37 243 129 350 184 31 16 62 23 100 24 31 0
88 9 127 20 216 60 430 23 718 -122 153 -77 229 -122 459 -269 82 -54 110 -78
140 -123 20 -31 55 -77 78 -103 22 -26 49 -67 60 -92 10 -25 34 -70 53 -101
18 -30 45 -84 59 -120 30 -72 28 -68 84 -195 22 -49 52 -130 68 -180 15 -49
40 -123 55 -163 34 -86 75 -315 83 -457 3 -60 14 -122 25 -156 11 -30 29 -101
41 -158 11 -56 30 -126 41 -154 12 -29 31 -79 44 -112 13 -33 41 -99 64 -148
23 -48 41 -96 41 -107 0 -22 58 -139 89 -180 10 -14 44 -71 75 -127 49 -89 80
-127 234 -290 226 -241 260 -273 485 -478 184 -167 246 -212 417 -305 113 -62
281 -158 355 -203 33 -20 64 -37 69 -37 4 0 29 -15 55 -34 25 -19 118 -71 206
-117 88 -45 215 -115 282 -155 67 -40 139 -82 160 -92 60 -31 140 -86 197
-135 28 -25 89 -76 136 -114 46 -38 104 -93 128 -123 25 -30 118 -132 209
-226 90 -94 173 -184 183 -201 10 -17 23 -34 29 -38 6 -3 24 -32 40 -63 16
-31 47 -86 70 -122 60 -96 100 -170 111 -204 5 -17 27 -87 48 -156 45 -142 59
-155 106 -100 32 39 32 43 0 133 -14 39 -30 94 -35 121 -10 57 -73 186 -128
260 -21 28 -57 87 -81 131 -69 125 -131 205 -229 290 -50 43 -91 83 -91 87 0
5 -27 37 -59 72 -33 35 -76 87 -96 115 -21 29 -76 80 -129 119 -50 38 -121 95
-156 126 -36 31 -112 82 -170 113 -58 31 -154 85 -215 121 -60 36 -162 92
-225 125 -263 136 -309 161 -382 215 -42 30 -130 83 -195 117 -236 123 -303
164 -374 226 -136 120 -176 154 -229 194 -62 46 -176 163 -222 226 -17 24 -58
69 -91 99 -194 178 -244 240 -337 418 -14 26 -35 62 -48 79 -12 18 -29 49 -36
70 -8 21 -41 92 -75 159 -33 66 -61 125 -61 130 0 5 -12 32 -25 59 -14 28 -25
56 -25 62 0 7 -9 39 -20 70 -10 32 -26 96 -34 143 -8 47 -24 112 -35 144 -16
44 -21 84 -21 156 0 103 -23 234 -60 335 -30 83 -70 185 -80 204 -5 9 -13 40
-19 70 -6 29 -33 105 -60 170 -27 64 -55 136 -61 161 -6 25 -44 107 -83 184
-54 104 -89 158 -139 213 -38 41 -68 78 -68 83 0 15 -177 161 -250 206 -41 25
-85 55 -98 67 -13 12 -64 43 -115 69 -249 128 -347 172 -435 194 -52 13 -97
26 -101 29 -28 17 -342 49 -371 38z"/>
<path d="M16128 20652 c-28 -19 -36 -32 -64 -100 -34 -81 -35 -95 -14 -151 37
-102 167 -221 241 -221 89 0 192 66 234 151 21 40 25 63 25 137 l0 88 -42 42
c-50 48 -88 58 -250 65 -86 4 -111 2 -130 -11z m239 -114 c6 -7 14 -30 17 -52
4 -21 17 -51 28 -67 l21 -28 -26 -34 c-59 -77 -142 -70 -209 18 -75 98 -62
151 42 168 55 9 118 6 127 -5z"/>
<path d="M15208 19626 c-88 -24 -219 -128 -625 -494 l-43 -39 18 -41 c9 -23
24 -43 32 -45 32 -7 93 37 207 151 65 65 136 131 158 148 22 16 70 54 107 84
89 74 142 100 207 100 62 0 99 -15 183 -71 74 -50 235 -197 243 -221 4 -9 34
-39 68 -66 195 -156 207 -167 233 -221 19 -37 45 -67 84 -98 35 -27 64 -60 75
-83 24 -53 68 -93 148 -134 77 -41 94 -42 181 -20 54 14 69 24 131 86 39 38
86 78 106 88 19 10 41 26 49 35 7 9 34 28 59 42 67 38 91 63 91 93 0 59 -55
67 -121 17 -24 -18 -75 -52 -112 -76 -37 -24 -73 -52 -80 -61 -7 -10 -41 -36
-76 -59 -80 -51 -115 -53 -198 -8 -63 33 -88 57 -116 114 -9 17 -37 46 -62 64
-30 21 -57 53 -76 90 -20 37 -58 82 -112 130 -45 41 -143 133 -219 204 -229
216 -293 262 -403 291 -60 16 -76 16 -137 0z"/>
<path d="M4510 19432 c-15 -12 -24 -33 -27 -65 -5 -46 -4 -49 44 -97 41 -41
57 -50 85 -50 33 0 78 29 78 51 0 5 -9 27 -20 49 -11 22 -20 46 -20 54 0 8
-12 28 -26 45 -30 36 -78 42 -114 13z"/>
<path d="M4159 19007 c-24 -18 -49 -72 -49 -106 0 -40 41 -86 95 -107 38 -14
49 -15 75 -4 17 7 35 20 39 29 21 39 -31 165 -78 191 -26 13 -62 12 -82 -3z"/>
<path d="M14470 18978 c-20 -14 -48 -50 -70 -90 -20 -36 -63 -97 -96 -135
-157 -180 -179 -220 -169 -321 9 -106 38 -197 85 -272 15 -25 31 -56 35 -70 4
-14 19 -38 34 -55 15 -16 38 -47 52 -67 13 -21 54 -61 92 -89 37 -28 67 -58
67 -65 0 -21 -33 -84 -44 -84 -5 0 -24 13 -41 29 -50 49 -76 49 -121 1 -60
-65 -155 -155 -200 -192 -134 -108 -249 -217 -606 -570 -251 -249 -399 -403
-403 -420 -4 -14 -2 -35 4 -46 6 -12 11 -35 11 -52 0 -37 26 -132 48 -175 28
-56 87 -117 137 -143 52 -26 129 -35 172 -19 19 7 29 2 53 -24 46 -50 48 -49
287 227 48 56 107 128 130 161 23 32 54 70 69 83 14 14 41 48 59 75 18 28 93
115 166 195 151 163 211 239 234 293 9 22 68 91 143 165 97 98 137 131 169
141 59 19 88 9 118 -43 14 -25 45 -60 68 -79 23 -19 66 -58 95 -86 110 -107
192 -124 332 -69 71 28 94 43 173 119 51 48 104 104 120 125 66 94 120 183
138 227 10 26 26 59 36 73 15 24 15 27 -4 52 -24 32 -56 39 -75 17 -7 -9 -32
-38 -55 -64 -24 -26 -50 -67 -58 -91 -26 -73 -165 -235 -256 -297 -45 -31
-125 -63 -158 -63 -10 0 -36 14 -57 31 -22 17 -64 48 -94 69 -30 21 -111 100
-180 175 -220 241 -323 346 -392 397 -102 76 -223 246 -258 362 -30 99 -33
125 -19 159 22 57 101 170 179 257 112 124 153 187 146 224 -7 35 -5 33 -36
41 -18 4 -36 -1 -60 -17z m53 -1300 c60 -42 137 -112 137 -125 0 -7 -9 -17
-20 -23 -17 -9 -28 -7 -55 10 -56 35 -124 128 -110 150 9 14 13 13 48 -12z
m-108 -130 c25 -35 59 -80 75 -100 l30 -37 -28 -33 c-16 -18 -39 -49 -52 -68
-13 -19 -44 -57 -70 -85 -25 -27 -79 -95 -120 -150 -83 -112 -146 -189 -235
-285 -61 -67 -116 -136 -245 -310 -81 -109 -228 -280 -241 -280 -4 0 -20 11
-35 25 -28 26 -38 30 -108 39 -29 4 -52 17 -84 48 -57 55 -122 154 -122 186 0
26 82 131 130 167 14 11 51 49 81 84 69 82 389 397 454 449 28 21 73 64 100
95 113 125 355 317 402 317 17 0 35 -16 68 -62z"/>
<path d="M17048 18929 c-44 -25 -15 -69 106 -158 50 -37 115 -90 144 -118 47
-44 52 -52 46 -81 -7 -37 21 -90 73 -137 76 -68 49 -195 -70 -324 -38 -42 -80
-92 -92 -111 -50 -76 -211 -217 -300 -263 -16 -8 -94 -74 -172 -146 -117 -108
-157 -139 -225 -171 -45 -22 -92 -40 -105 -40 -57 0 -150 59 -274 174 -83 78
-201 156 -235 156 -29 0 -54 -31 -54 -68 0 -27 9 -39 56 -75 31 -23 84 -64
117 -92 104 -86 182 -142 252 -179 60 -32 76 -36 142 -36 140 0 208 43 468
290 50 48 115 102 145 122 82 53 199 173 258 264 29 45 75 101 103 124 60 50
103 132 119 223 11 60 10 71 -11 124 -13 36 -21 76 -20 105 1 28 -5 61 -14 78
-27 52 -164 181 -284 268 -112 81 -139 91 -173 71z"/>
<path d="M15447 18365 c-25 -24 -31 -73 -13 -98 8 -12 29 -42 47 -67 41 -60
56 -70 103 -70 39 0 46 -6 166 -130 107 -110 131 -130 156 -130 30 0 74 31 74
51 0 21 -21 49 -48 63 -15 8 -74 61 -132 118 -58 57 -125 118 -150 137 -25 19
-71 59 -102 88 -60 56 -77 62 -101 38z"/>
<path d="M15118 18003 c-37 -38 -88 -133 -88 -165 0 -36 50 -129 93 -172 78
-77 176 -83 299 -16 83 45 108 79 108 146 0 65 -9 84 -64 141 -23 23 -53 56
-68 73 -27 30 -27 30 -135 30 l-109 0 -36 -37z m220 -89 c19 -13 22 -24 22
-89 0 -72 -1 -75 -30 -90 -16 -8 -45 -15 -65 -15 -29 0 -43 7 -70 38 -29 30
-35 45 -35 80 0 63 32 92 102 92 32 0 62 -6 76 -16z"/>
<path d="M12714 16280 c-49 -50 -100 -110 -114 -133 -52 -90 -103 -147 -251
-282 -197 -181 -334 -333 -416 -465 -86 -136 -142 -214 -229 -315 l-70 -82 -4
-119 c-1 -65 -3 -135 -4 -154 -1 -61 36 -103 171 -200 135 -97 177 -113 218
-86 47 31 25 90 -48 128 -61 30 -162 104 -192 139 -22 27 -25 40 -25 104 0 41
-4 77 -10 80 -20 12 -9 46 34 102 24 32 54 67 66 78 12 11 31 38 42 60 12 22
37 59 58 82 20 23 51 68 69 100 18 32 44 74 59 94 15 20 43 58 62 85 19 27 46
58 59 69 31 24 225 210 377 361 62 62 120 127 129 145 22 42 116 154 161 192
19 16 34 35 34 43 0 21 -46 64 -68 64 -11 0 -58 -39 -108 -90z"/>
<path d="M13223 16055 c-24 -10 -33 -21 -33 -38 0 -17 -29 -52 -102 -123 -177
-170 -238 -236 -312 -334 -39 -52 -127 -152 -196 -221 -146 -148 -187 -196
-230 -270 -18 -30 -52 -81 -77 -114 -24 -33 -75 -103 -112 -156 -37 -53 -84
-111 -105 -129 -44 -39 -45 -70 -2 -85 23 -8 36 -5 75 16 43 24 58 41 103 115
10 16 36 52 59 79 36 44 94 129 142 206 28 47 137 170 272 309 72 74 164 176
205 225 79 95 235 262 285 304 149 126 172 168 119 210 -31 24 -47 25 -91 6z"/>
<path d="M11326 14699 c-28 -25 -50 -57 -60 -86 -12 -34 -43 -74 -123 -157
-60 -61 -133 -142 -164 -181 -31 -38 -155 -165 -275 -282 -121 -117 -241 -240
-269 -273 -27 -33 -80 -97 -117 -143 -135 -165 -234 -282 -294 -346 -68 -74
-104 -131 -104 -165 0 -12 13 -35 30 -51 16 -15 37 -51 46 -78 21 -64 73 -115
164 -161 66 -33 80 -36 154 -36 71 0 86 3 119 25 20 14 37 32 37 41 0 8 25 38
56 67 54 50 201 224 322 381 91 117 283 330 433 476 75 74 205 211 288 304
131 146 151 173 151 202 0 25 -7 38 -24 50 -45 29 -66 16 -151 -98 -46 -62
-163 -190 -276 -305 -317 -319 -403 -414 -509 -560 -56 -76 -280 -342 -341
-405 -50 -51 -62 -58 -96 -58 -50 0 -147 48 -189 92 -17 18 -36 51 -41 73 -6
22 -14 47 -17 56 -5 11 18 46 76 114 46 53 116 140 155 194 164 217 277 345
430 483 279 253 733 751 733 805 0 22 -50 63 -77 63 -14 0 -42 -17 -67 -41z"/>
<path d="M11236 13364 c-23 -27 -27 -41 -24 -72 6 -51 62 -235 110 -362 38
-100 71 -212 123 -417 15 -62 46 -136 94 -230 39 -76 78 -165 88 -198 9 -33
26 -73 38 -90 12 -16 43 -72 68 -122 55 -110 73 -137 152 -225 83 -92 160
-189 187 -235 38 -66 89 -133 109 -144 10 -5 26 -24 35 -42 22 -42 101 -144
138 -176 16 -14 47 -46 70 -71 140 -151 150 -160 224 -195 41 -20 88 -46 106
-59 48 -35 151 -84 256 -122 125 -44 232 -85 303 -118 32 -14 88 -35 125 -46
37 -10 105 -33 152 -50 121 -44 317 -107 373 -119 26 -6 81 -31 121 -56 41
-25 87 -50 102 -55 14 -6 38 -19 53 -29 14 -10 74 -43 133 -74 154 -81 215
-122 283 -191 33 -34 107 -101 163 -150 56 -49 112 -106 124 -125 12 -20 36
-52 54 -72 48 -55 104 -146 134 -220 39 -93 174 -309 241 -384 10 -11 42 -66
71 -121 65 -124 97 -173 159 -244 26 -31 58 -81 72 -111 13 -30 35 -73 49 -95
54 -85 167 -293 203 -374 21 -47 80 -170 133 -275 52 -104 99 -206 103 -225
29 -137 136 -367 234 -505 23 -33 55 -85 70 -115 29 -58 110 -195 131 -220 6
-8 30 -50 53 -93 22 -43 62 -104 88 -136 26 -33 70 -90 98 -127 50 -69 113
-147 223 -277 31 -38 91 -98 132 -134 123 -108 118 -122 -13 -38 -353 227
-563 372 -633 436 -44 41 -113 103 -153 139 -78 69 -114 117 -137 184 -11 31
-61 88 -202 231 -210 212 -276 287 -317 360 -16 28 -37 61 -48 75 -10 14 -31
52 -46 85 -17 36 -53 86 -90 125 -35 36 -83 92 -108 125 -49 65 -133 227 -133
257 0 23 -32 87 -104 208 -30 51 -69 129 -87 173 -21 51 -56 112 -95 162 -33
44 -71 100 -84 125 -12 25 -30 56 -40 70 -10 14 -41 70 -70 125 -29 55 -71
128 -94 162 -22 34 -68 105 -101 158 -59 94 -113 170 -227 318 -77 101 -234
247 -336 314 -187 123 -428 227 -632 273 -30 7 -104 31 -165 53 -60 22 -168
55 -239 73 -73 19 -148 46 -175 62 -49 30 -206 101 -336 152 -44 17 -118 52
-165 77 -47 25 -123 65 -170 90 -142 75 -374 252 -440 337 -22 28 -60 76 -85
106 -70 86 -139 188 -185 275 -61 116 -107 192 -161 265 -63 87 -126 206 -135
255 -9 53 -45 122 -98 193 -24 31 -69 107 -100 167 -31 61 -67 130 -80 155
-13 25 -37 83 -51 130 -15 47 -43 119 -62 160 -26 58 -36 98 -45 177 -13 118
-24 128 -75 69 -23 -26 -31 -46 -36 -93 -6 -55 -3 -69 32 -150 34 -80 67 -173
92 -260 6 -17 7 -43 3 -57 -5 -20 6 -39 58 -103 36 -43 82 -109 103 -148 21
-38 50 -86 64 -106 26 -36 47 -78 117 -244 21 -49 52 -108 69 -131 16 -23 46
-62 65 -88 19 -26 66 -108 105 -184 67 -131 128 -220 301 -437 114 -144 151
-174 434 -356 110 -71 169 -105 200 -114 26 -8 146 -63 315 -145 136 -66 321
-145 370 -158 22 -6 60 -16 85 -23 25 -6 97 -29 160 -50 63 -21 197 -61 298
-89 187 -51 317 -107 412 -175 25 -18 61 -40 80 -50 19 -9 55 -36 80 -60 25
-23 66 -58 92 -77 47 -35 63 -53 172 -196 33 -42 74 -93 91 -112 18 -19 42
-53 55 -75 13 -22 32 -51 42 -65 40 -53 73 -109 125 -210 64 -125 80 -153 111
-202 13 -20 31 -51 41 -67 9 -17 36 -58 61 -93 96 -134 163 -253 214 -383 11
-29 24 -51 72 -125 13 -19 36 -71 53 -115 37 -103 72 -163 141 -250 87 -108
153 -203 195 -280 21 -38 56 -89 77 -112 21 -24 38 -47 38 -54 0 -9 49 -65
210 -236 30 -32 93 -95 140 -139 68 -64 94 -98 129 -165 49 -95 184 -262 247
-308 23 -16 70 -56 105 -88 55 -51 275 -206 438 -308 26 -16 63 -42 82 -56 19
-14 66 -45 104 -69 39 -23 108 -75 155 -114 47 -39 114 -88 150 -109 36 -20
96 -61 133 -90 289 -220 329 -239 387 -177 15 17 33 30 39 30 6 0 34 -15 61
-34 45 -31 54 -34 81 -24 38 13 56 47 40 77 -6 11 -37 37 -69 57 -31 20 -76
52 -100 71 -24 19 -84 58 -135 85 -51 27 -105 62 -122 78 -16 15 -70 52 -120
81 -49 29 -124 84 -166 123 -41 39 -124 116 -183 170 -59 55 -133 134 -164
175 -32 42 -104 133 -162 203 -130 158 -138 169 -179 243 -19 33 -55 92 -81
130 -94 139 -139 212 -149 239 -6 14 -31 57 -55 95 -64 98 -111 188 -131 251
-10 30 -21 60 -25 65 -4 6 -22 56 -40 112 -18 56 -52 137 -77 180 -71 124
-130 244 -152 311 -11 35 -29 76 -40 91 -12 16 -30 49 -40 75 -11 25 -45 88
-75 139 -30 52 -60 106 -66 121 -17 45 -100 178 -134 216 -62 69 -94 117 -150
229 -32 63 -79 140 -105 170 -74 86 -114 153 -190 319 -96 208 -198 357 -303
443 -29 23 -107 97 -173 164 -117 119 -123 123 -255 189 -74 37 -163 88 -198
112 -76 55 -212 123 -307 155 -38 12 -112 38 -163 56 -51 19 -119 40 -151 49
-67 17 -191 61 -271 97 -30 13 -113 43 -185 66 -71 23 -150 50 -175 60 -25 10
-67 26 -94 35 -26 9 -87 40 -135 69 -47 30 -118 73 -158 96 -40 23 -86 58
-102 79 -17 20 -46 57 -66 80 -19 24 -35 48 -35 53 0 4 -24 26 -54 48 -40 30
-64 59 -96 117 -27 50 -67 101 -115 148 -40 39 -89 98 -110 131 -21 33 -75 98
-120 145 -71 74 -93 105 -158 230 -42 80 -85 168 -95 195 -11 28 -36 79 -56
114 -60 105 -104 215 -120 298 -31 156 -45 209 -71 268 -75 165 -167 456 -177
565 -4 38 -38 36 -72 -6z"/>
<path d="M9646 12804 c-28 -31 -67 -79 -86 -108 -20 -28 -103 -118 -186 -201
-82 -82 -165 -172 -184 -200 -18 -27 -55 -74 -81 -103 -43 -49 -70 -88 -182
-257 -22 -33 -55 -76 -74 -96 -18 -19 -38 -53 -44 -74 -10 -35 -9 -41 11 -57
49 -39 92 -1 220 192 136 205 290 391 481 580 164 163 249 269 249 312 0 31
-31 68 -56 68 -9 0 -39 -25 -68 -56z"/>
<path d="M10213 12621 c-23 -11 -46 -28 -52 -39 -6 -12 -38 -42 -70 -67 -63
-49 -78 -72 -61 -89 20 -20 10 -37 -57 -99 -36 -34 -120 -122 -185 -195 -65
-73 -137 -151 -159 -174 -21 -22 -59 -66 -84 -97 -25 -31 -68 -86 -97 -122
-29 -37 -74 -91 -100 -121 -112 -129 -147 -229 -93 -264 35 -23 65 -6 94 53
21 43 89 135 201 271 31 37 87 107 125 156 82 105 262 295 360 379 91 79 228
227 262 284 23 40 25 48 14 84 -6 21 -20 43 -31 49 -23 12 -17 13 -67 -9z"/>
<path d="M8701 11621 c-25 -25 -38 -135 -21 -185 25 -77 116 -120 278 -132 81
-6 95 -4 112 11 26 23 25 60 0 85 -23 23 -18 22 -96 25 -91 3 -129 13 -157 39
-23 22 -25 29 -20 78 5 48 3 57 -18 76 -28 27 -53 28 -78 3z"/>
<path d="M8437 11486 c-18 -18 -56 -66 -84 -107 -29 -41 -130 -154 -225 -252
-124 -127 -187 -200 -223 -259 -45 -73 -300 -363 -339 -385 -8 -4 -40 -39 -71
-78 -32 -38 -87 -96 -124 -128 -102 -90 -277 -273 -294 -309 -18 -38 -13 -54
24 -73 58 -30 101 -13 146 58 48 76 104 137 494 542 162 168 237 255 285 331
55 90 87 128 217 258 172 171 284 307 293 353 5 27 2 39 -17 59 -30 32 -45 30
-82 -10z"/>
<path d="M8819 11093 c-8 -10 -23 -30 -32 -46 -10 -15 -33 -37 -52 -50 -19
-12 -37 -30 -41 -39 -10 -33 -95 -127 -155 -174 -39 -30 -78 -73 -108 -119
-47 -71 -125 -170 -219 -275 -27 -30 -61 -77 -77 -105 -74 -129 -204 -307
-308 -424 -76 -83 -97 -122 -97 -175 0 -36 20 -56 55 -56 30 0 105 59 110 88
10 45 32 83 108 179 40 50 84 109 99 130 15 21 50 70 79 108 28 39 63 90 77
115 24 41 97 132 234 292 29 34 112 124 185 199 109 115 135 148 153 196 12
32 31 73 41 90 27 43 22 77 -12 81 -15 2 -31 -4 -40 -15z"/>
<path d="M7077 9818 c-61 -47 -27 -185 66 -261 52 -43 105 -67 209 -96 97 -27
133 -27 152 1 19 27 21 72 3 86 -7 6 -55 24 -107 41 -120 38 -166 69 -191 128
-10 24 -19 50 -19 57 0 21 -45 56 -71 56 -14 0 -33 -6 -42 -12z"/>
<path d="M6827 9699 c-10 -6 -27 -24 -37 -41 -10 -16 -118 -133 -241 -260
-123 -127 -239 -251 -258 -277 -19 -25 -72 -86 -118 -134 -46 -49 -91 -101
-101 -115 -9 -15 -48 -63 -87 -107 -38 -44 -86 -100 -105 -125 -19 -25 -50
-61 -70 -80 -92 -92 -303 -330 -345 -390 -11 -15 -34 -35 -52 -44 -18 -8 -39
-26 -48 -39 -14 -22 -13 -29 12 -98 40 -108 115 -180 299 -287 78 -45 151 -82
163 -82 30 0 61 35 61 68 0 39 -28 61 -141 115 -100 48 -197 125 -224 178 -25
48 -19 74 24 102 23 15 65 63 100 114 33 48 114 147 181 218 67 72 140 155
163 185 41 54 157 187 286 326 36 38 91 103 121 143 30 41 107 121 170 179 65
59 127 127 145 155 16 28 52 68 80 89 27 21 51 43 53 50 2 7 22 29 44 49 48
41 46 68 -5 100 -36 22 -45 23 -70 8z"/>
<path d="M7249 9287 c-31 -29 -65 -67 -76 -85 -11 -18 -49 -57 -84 -86 -35
-29 -86 -79 -114 -111 -27 -33 -92 -100 -144 -150 -309 -296 -479 -486 -643
-719 -21 -29 -78 -94 -127 -144 -102 -104 -111 -117 -111 -165 0 -44 20 -61
63 -53 40 7 57 23 100 93 18 28 68 93 112 144 44 50 87 102 95 114 44 67 114
152 204 248 94 100 564 574 708 713 100 97 138 149 138 193 0 77 -43 80 -121
8z"/>
<path d="M5248 7839 c-9 -5 -30 -33 -46 -62 -16 -29 -47 -66 -68 -82 -50 -37
-121 -108 -214 -215 -40 -47 -90 -103 -111 -125 -54 -58 -107 -120 -171 -200
-63 -80 -186 -205 -279 -285 -117 -100 -249 -252 -352 -405 -19 -28 -59 -77
-89 -110 -66 -72 -101 -137 -96 -176 6 -37 -8 -37 -69 1 -56 36 -76 37 -128 8
-22 -12 -78 -42 -124 -67 -47 -25 -93 -57 -103 -71 -10 -14 -26 -62 -35 -107
-16 -81 -16 -81 8 -121 13 -22 41 -70 63 -107 75 -129 167 -214 310 -287 75
-38 143 -40 213 -5 26 13 65 30 85 36 85 28 168 182 168 313 0 90 -60 198
-110 198 -10 0 -49 24 -86 54 -38 29 -93 65 -121 80 -58 29 -68 46 -28 46 39
0 77 24 110 70 17 22 44 60 61 83 17 23 37 53 43 66 28 52 192 243 315 366
185 185 312 320 347 368 62 86 353 409 440 489 105 96 119 119 119 187 0 55
-20 78 -52 60z m-1520 -1793 c26 -13 58 -27 71 -31 33 -10 116 -61 168 -102
28 -22 46 -47 57 -80 9 -26 28 -60 43 -75 l26 -27 -17 -46 c-28 -73 -57 -99
-140 -129 -105 -37 -126 -35 -216 24 -97 63 -136 105 -193 207 -56 98 -62 146
-22 183 38 36 138 98 158 99 10 1 39 -10 65 -23z"/>
<path d="M5661 7584 c-17 -14 -36 -43 -42 -64 -9 -28 -42 -71 -116 -147 -58
-59 -121 -135 -141 -168 -53 -90 -122 -174 -172 -212 -24 -19 -96 -84 -160
-146 -102 -99 -140 -144 -226 -271 -12 -17 -37 -42 -55 -55 -40 -29 -163 -146
-228 -216 -25 -27 -69 -72 -96 -100 -61 -60 -82 -105 -69 -143 10 -28 38 -38
78 -28 11 3 49 39 84 80 117 140 202 228 266 277 35 27 77 69 92 92 82 120
168 216 282 312 56 47 102 91 102 96 0 5 28 41 63 78 34 38 74 88 89 112 39
63 133 168 203 227 33 27 75 69 93 93 18 24 46 62 63 83 33 44 32 68 -7 104
-33 29 -65 28 -103 -4z"/>
<path d="M10991 3649 c-411 -51 -695 -304 -805 -719 -37 -137 -49 -270 -43
-465 8 -261 46 -434 133 -604 105 -206 261 -331 489 -392 109 -30 369 -33 494
-6 425 91 688 390 757 857 22 152 15 459 -14 600 -82 399 -274 628 -597 710
-94 24 -300 34 -414 19z m274 -243 c264 -84 417 -293 466 -634 15 -111 7 -418
-16 -542 -38 -211 -88 -342 -159 -418 -98 -104 -221 -146 -431 -146 -124 0
-149 3 -220 27 -229 76 -369 237 -442 512 -26 95 -27 112 -27 330 0 181 3 251
18 330 22 122 59 252 91 322 46 101 157 191 275 223 138 38 320 36 445 -4z"/>
<path d="M16125 3646 c-219 -36 -368 -111 -507 -253 -187 -192 -275 -446 -285
-823 -11 -415 76 -718 261 -903 200 -199 522 -270 901 -197 161 31 440 127
459 158 8 14 -41 156 -57 166 -11 7 -55 -3 -149 -32 -462 -145 -754 -107 -941
123 -136 169 -194 392 -184 714 6 219 40 411 97 564 44 117 171 219 316 253
82 19 270 22 364 4 87 -16 217 -68 239 -96 10 -13 26 -73 40 -151 32 -175 30
-173 140 -173 62 0 92 4 100 13 6 8 21 113 32 235 19 190 20 224 8 238 -32 40
-233 120 -374 149 -107 22 -355 28 -460 11z"/>
<path d="M2282 3618 c-7 -7 -12 -40 -12 -80 0 -80 2 -82 116 -103 85 -17 109
-27 124 -55 14 -26 14 -1634 0 -1660 -15 -29 -41 -39 -131 -55 -45 -8 -88 -20
-95 -26 -18 -15 -19 -140 -2 -157 17 -17 769 -17 786 0 18 18 16 142 -3 158
-8 6 -61 18 -118 24 -109 14 -140 25 -157 56 -15 28 -14 562 2 578 8 8 54 12
137 12 280 1 443 63 617 235 76 75 98 104 132 175 63 131 76 193 77 355 0 117
-4 151 -22 210 -63 201 -218 305 -498 335 -137 15 -938 13 -953 -2z m965 -227
c40 -14 82 -40 113 -68 92 -82 116 -162 107 -352 -9 -192 -39 -275 -127 -354
-85 -76 -134 -90 -348 -95 -135 -3 -186 -1 -197 8 -13 11 -15 74 -15 439 0
328 3 430 13 440 9 10 56 12 202 8 164 -4 198 -7 252 -26z"/>
<path d="M3812 3618 c-16 -16 -16 -142 1 -156 6 -5 35 -13 62 -17 73 -10 116
-24 152 -51 36 -27 43 -38 402 -694 l261 -474 0 -226 c0 -124 -4 -241 -10
-260 -13 -46 -35 -58 -138 -76 -48 -9 -92 -20 -99 -26 -17 -14 -17 -140 -1
-156 17 -17 729 -17 746 0 16 16 16 142 -1 156 -7 6 -51 17 -99 26 -99 17
-124 29 -138 70 -6 16 -10 130 -10 264 l0 235 297 526 c395 701 358 640 407
661 22 10 64 21 91 25 63 9 75 19 75 61 0 26 4 34 18 34 18 0 19 -14 25 -202
7 -234 4 -228 102 -228 89 0 93 6 105 135 13 136 15 142 50 160 38 20 459 22
478 3 9 -9 12 -210 12 -843 0 -916 4 -863 -63 -883 -17 -6 -63 -16 -102 -22
-38 -6 -75 -16 -82 -22 -17 -14 -17 -140 -1 -156 15 -15 724 -17 747 -3 18 12
16 140 -2 158 -7 7 -50 19 -97 27 -46 9 -95 24 -109 34 l-26 19 -3 838 c-1
611 1 841 9 851 9 11 59 14 236 14 l225 0 28 -28 c26 -26 28 -36 34 -128 4
-54 12 -110 19 -124 12 -23 19 -25 88 -28 54 -2 79 1 87 11 7 8 14 102 18 251
6 199 5 239 -7 247 -20 13 -1736 12 -1744 -1 -3 -5 -17 -10 -30 -10 -13 0 -27
5 -30 10 -10 15 -698 13 -713 -2 -17 -17 -16 -142 1 -156 7 -6 50 -16 95 -21
101 -13 142 -34 142 -73 0 -33 -437 -865 -459 -873 -8 -3 -20 0 -26 7 -12 13
-410 729 -455 817 -39 78 -7 112 120 126 96 10 100 14 100 93 0 40 -5 73 -12
80 -17 17 -759 17 -776 0z"/>
<path d="M7826 3617 c-14 -10 -16 -25 -14 -82 l3 -70 40 -13 c22 -6 67 -17 99
-23 38 -7 67 -19 82 -35 l24 -23 0 -821 0 -821 -24 -23 c-15 -16 -44 -28 -82
-35 -32 -6 -77 -17 -99 -23 l-40 -13 -3 -68 c-2 -42 2 -74 9 -83 16 -19 728
-21 747 -2 16 16 16 142 -1 156 -7 6 -53 18 -102 26 -50 9 -101 24 -115 35
l-25 18 -3 373 c-2 267 1 377 9 386 17 21 971 21 988 0 8 -9 11 -119 9 -386
l-3 -373 -25 -18 c-14 -11 -65 -26 -115 -35 -49 -8 -95 -20 -102 -26 -17 -14
-17 -140 -1 -156 15 -15 714 -17 737 -3 11 7 14 27 12 78 -3 75 -10 89 -49 97
-131 25 -147 30 -168 52 l-24 23 0 816 c0 537 3 823 10 835 15 28 41 39 127
56 42 8 82 19 90 25 20 17 18 155 -3 163 -9 3 -174 6 -368 6 -260 0 -355 -3
-364 -12 -16 -16 -16 -142 1 -156 7 -6 53 -18 102 -26 50 -9 101 -24 115 -35
l25 -18 3 -323 c2 -230 -1 -327 -9 -336 -17 -21 -971 -21 -988 0 -8 9 -11 106
-9 336 l3 323 25 18 c14 11 65 26 115 35 49 8 95 20 102 26 17 14 17 140 1
156 -18 18 -717 17 -742 -1z"/>
<path d="M12352 3618 c-16 -16 -16 -142 1 -156 6 -5 39 -13 72 -17 33 -4 75
-11 92 -17 67 -20 63 32 63 -876 l0 -823 -24 -23 c-15 -16 -44 -28 -82 -35
-32 -6 -77 -17 -99 -23 l-40 -13 -3 -68 c-2 -42 2 -74 9 -83 16 -19 708 -21
727 -2 17 17 16 142 -2 157 -7 6 -51 18 -97 26 -57 10 -90 21 -106 37 l-23 22
2 685 c3 600 5 686 18 689 10 1 180 -257 525 -799 280 -441 519 -808 530 -815
14 -10 51 -14 126 -14 90 0 108 3 122 18 15 17 17 101 19 962 l3 943 26 19
c16 12 56 23 105 30 43 6 85 15 92 20 16 14 16 140 0 156 -17 17 -699 17 -716
0 -16 -16 -16 -142 1 -156 6 -5 39 -13 72 -17 91 -10 123 -23 140 -55 23 -44
18 -1393 -5 -1397 -10 -2 -185 264 -525 799 -280 440 -519 809 -529 819 -18
17 -39 19 -251 19 -166 0 -234 -3 -243 -12z"/>
<path d="M17341 3616 c-16 -19 1 -459 19 -481 14 -17 144 -21 170 -5 11 7 18
42 26 125 16 176 -33 159 488 163 352 2 435 0 444 -11 9 -10 -114 -188 -555
-808 -311 -437 -586 -822 -610 -857 l-43 -63 0 -94 c0 -83 2 -96 19 -105 13
-7 278 -10 789 -10 650 0 771 2 781 14 19 23 3 475 -17 499 -12 13 -31 17 -92
17 -50 0 -81 -4 -88 -12 -5 -7 -14 -67 -19 -132 -9 -112 -12 -121 -37 -143
l-27 -23 -485 0 c-399 0 -486 2 -490 14 -3 7 253 375 582 837 323 453 595 838
606 854 14 23 18 50 18 121 0 57 -4 94 -12 102 -19 19 -1451 17 -1467 -2z"/>
<path d="M14760 1808 c-66 -34 -85 -74 -85 -178 0 -103 15 -132 83 -162 36
-16 59 -19 113 -16 135 10 179 57 179 193 0 139 -44 185 -175 185 -54 0 -82
-5 -115 -22z"/>
</g>
</svg>
