<?xml version="1.0" standalone="no"?>
<!DOCTYPE svg PUBLIC "-//W3C//DTD SVG 20010904//EN"
 "http://www.w3.org/TR/2001/REC-SVG-20010904/DTD/svg10.dtd">
<svg version="1.0" xmlns="http://www.w3.org/2000/svg"
 width="1481.466218pt" height="1595.000000pt" viewBox="0 0 1481.466218 1595.000000"
 preserveAspectRatio="xMidYMid meet">
<metadata>
Created by potrace 1.13, written by Peter Selinger 2001-2015
</metadata>
<g transform="translate(-91.387693,1635.000000) scale(0.100000,-0.100000)"
fill="#ffffff" stroke="none">
<path d="M13782 16328 c-16 -13 -49 -36 -73 -53 -23 -16 -56 -45 -73 -64 -17
-19 -65 -69 -106 -112 -112 -117 -171 -186 -230 -269 -71 -101 -139 -170 -166
-170 -64 0 -158 72 -225 174 -29 43 -68 82 -136 134 l-96 72 -67 0 c-85 0
-182 -34 -256 -90 -29 -22 -89 -82 -131 -132 -43 -50 -123 -141 -178 -202 -55
-61 -152 -169 -215 -241 -63 -71 -153 -168 -201 -215 l-88 -85 0 -145 c-1
-188 10 -250 56 -318 40 -58 86 -98 153 -132 25 -13 72 -48 105 -79 79 -73
107 -88 143 -75 24 9 27 15 26 54 -1 31 -7 48 -20 57 -28 20 -78 55 -182 126
-101 70 -152 123 -170 176 -7 19 -12 90 -12 160 l0 125 59 56 c68 64 261 277
336 370 29 36 94 110 144 164 50 55 91 102 91 106 0 4 31 33 69 64 75 61 209
136 243 136 32 0 185 -89 232 -135 22 -22 65 -68 94 -102 46 -54 52 -67 52
-107 0 -50 16 -62 64 -50 17 4 35 0 51 -10 27 -17 85 -94 127 -166 15 -25 66
-81 113 -124 48 -44 120 -121 161 -171 93 -118 145 -146 195 -106 20 16 21 21
10 47 -7 16 -32 43 -56 61 -23 18 -79 74 -124 125 -123 141 -142 160 -196 198
-31 22 -59 53 -75 82 -29 55 -30 51 65 183 36 50 73 103 82 119 10 16 48 60
86 98 37 39 67 73 67 78 0 11 187 201 220 223 14 10 41 29 60 43 43 31 64 27
145 -30 33 -23 76 -48 95 -56 43 -16 83 -43 133 -87 21 -19 64 -50 95 -70 31
-20 116 -95 188 -167 72 -72 149 -147 171 -166 22 -19 70 -80 107 -134 37 -55
95 -128 128 -162 34 -35 75 -92 94 -130 19 -37 46 -81 61 -96 24 -25 28 -37
27 -86 0 -46 -7 -70 -35 -120 -19 -35 -43 -80 -54 -101 -37 -69 -87 -126 -316
-362 -73 -75 -87 -95 -93 -131 -6 -34 -4 -45 10 -55 30 -22 55 -14 95 30 83
90 143 156 242 262 102 110 122 137 189 250 68 115 72 126 71 201 -2 65 -6 79
-50 160 -56 104 -135 213 -236 323 -40 43 -88 103 -107 134 -50 80 -331 361
-421 422 -41 27 -96 68 -124 91 -27 22 -70 54 -95 70 -25 16 -67 45 -95 65
-56 42 -162 89 -198 89 -13 0 -38 -10 -55 -22z"/>
<path d="M2687 16190 c-27 -10 -54 -23 -61 -30 -8 -6 -51 -17 -97 -25 -56 -10
-108 -27 -154 -51 -38 -20 -107 -50 -153 -66 -46 -17 -108 -49 -140 -73 -31
-23 -76 -52 -100 -64 -54 -27 -198 -155 -237 -211 -16 -24 -48 -63 -71 -89
-64 -74 -100 -122 -147 -203 -25 -41 -61 -96 -81 -122 -20 -26 -36 -54 -36
-62 0 -8 -10 -31 -23 -52 -53 -84 -86 -162 -107 -248 -20 -84 -21 -109 -16
-285 3 -107 10 -216 15 -244 6 -27 15 -84 21 -125 23 -156 54 -248 138 -410
72 -137 94 -171 139 -216 21 -21 67 -70 103 -110 36 -40 93 -93 128 -119 65
-47 71 -60 36 -79 -61 -33 -89 -56 -122 -101 -28 -39 -38 -63 -43 -110 -21
-178 -41 -265 -68 -288 -19 -17 -149 -57 -183 -57 -50 0 -112 -76 -87 -106 18
-22 91 -18 122 6 15 12 52 25 84 30 82 14 86 7 90 -132 2 -92 6 -115 20 -125
27 -20 49 -15 77 18 28 33 31 44 16 54 -13 8 -13 146 0 179 15 40 20 126 8
152 -8 17 -8 31 -1 47 24 48 43 109 43 133 0 30 37 143 53 163 41 50 146 86
209 72 127 -29 220 -11 361 68 60 33 125 65 145 72 36 11 161 66 309 134 40
19 80 43 90 55 10 12 38 32 63 45 46 24 147 94 287 200 43 34 104 71 134 84
51 22 58 23 134 12 112 -17 163 -35 233 -84 111 -79 221 -215 273 -339 55
-129 139 -363 139 -384 0 -14 21 -61 96 -219 55 -116 74 -161 74 -172 0 -6 9
-18 20 -28 11 -10 20 -26 20 -35 0 -10 8 -28 19 -41 14 -19 108 -205 204 -407
6 -13 19 -28 28 -33 18 -9 106 -120 115 -144 5 -12 328 -321 454 -435 70 -63
151 -112 305 -185 61 -28 143 -74 184 -100 41 -27 108 -61 149 -76 76 -28 134
-62 187 -109 43 -38 196 -140 288 -191 43 -24 96 -58 117 -76 37 -32 140 -96
265 -165 37 -20 93 -67 145 -121 47 -49 121 -117 166 -153 44 -35 112 -101
151 -146 38 -46 108 -124 154 -174 101 -109 230 -267 281 -343 20 -31 51 -73
68 -93 34 -40 123 -233 145 -314 7 -29 20 -66 29 -82 9 -17 16 -38 16 -47 0
-25 34 -17 65 15 25 26 27 34 22 80 -3 28 -19 79 -35 113 -16 34 -42 95 -58
136 -27 71 -53 112 -135 219 -19 26 -57 79 -84 117 -26 39 -91 115 -145 170
-53 55 -119 129 -145 165 -62 84 -173 198 -255 262 -36 28 -108 94 -160 147
-83 84 -111 104 -220 164 -69 37 -155 91 -191 121 -37 29 -122 84 -189 122
-67 38 -149 93 -183 122 -99 86 -142 112 -253 152 -62 23 -125 53 -157 77 -28
22 -119 74 -202 116 -176 90 -247 141 -404 292 -64 61 -134 126 -156 145 -22
18 -71 72 -109 119 -38 47 -87 106 -109 131 -22 25 -60 88 -84 140 -57 124
-109 223 -148 285 -54 85 -73 122 -126 243 -69 158 -117 288 -128 344 -11 62
-48 153 -149 368 -63 134 -191 266 -359 372 -70 43 -226 83 -301 76 -62 -6
-243 -112 -352 -206 -64 -55 -283 -197 -335 -216 -26 -10 -73 -33 -104 -50
-78 -43 -94 -51 -194 -90 -48 -20 -105 -49 -125 -66 -42 -34 -178 -83 -219
-78 -42 5 -34 29 15 46 30 10 72 41 137 104 83 79 102 104 157 206 34 64 68
126 75 137 7 11 16 29 22 40 5 11 19 28 30 37 12 10 21 27 21 37 0 11 9 26 20
34 25 17 88 120 97 156 3 14 14 35 24 46 9 11 20 37 24 58 4 20 11 37 16 37 5
0 9 5 9 12 0 6 10 22 22 35 19 20 20 26 9 50 -11 24 -10 29 18 55 26 24 29 33
21 49 -8 13 -7 25 0 40 7 11 9 26 7 34 -3 7 1 25 10 41 8 16 17 47 19 68 2 21
8 44 13 50 16 21 22 68 10 82 -6 8 -9 26 -6 41 4 19 -2 42 -19 70 -38 66 -89
83 -118 41 -21 -30 -20 -61 4 -108 25 -49 26 -137 3 -200 -9 -25 -19 -65 -23
-90 -22 -127 -31 -170 -51 -222 -12 -32 -25 -58 -30 -58 -9 0 -99 -132 -99
-146 0 -4 -19 -35 -42 -68 -23 -33 -54 -82 -68 -108 -38 -73 -145 -246 -191
-311 -59 -83 -157 -157 -207 -157 -11 0 -36 -13 -57 -30 -50 -40 -80 -38 -156
11 -73 47 -235 210 -283 284 -106 165 -187 365 -206 509 -6 45 -16 92 -21 105
-5 12 -12 124 -15 248 -5 251 -3 265 73 437 20 43 37 93 38 110 2 17 3 34 4
37 1 3 12 11 25 17 14 6 40 42 65 87 35 65 82 133 151 219 47 58 138 161 154
175 11 9 43 37 70 62 52 46 145 109 162 109 5 0 41 18 79 41 39 22 91 49 116
58 26 10 62 30 81 44 46 35 111 58 178 62 30 2 98 13 150 25 124 28 275 22
395 -15 44 -14 87 -25 96 -25 21 0 282 -129 368 -182 36 -23 91 -55 121 -73
180 -104 331 -218 322 -243 -1 -5 20 -36 47 -68 27 -32 54 -67 59 -79 4 -11
21 -45 37 -75 77 -148 97 -191 124 -260 17 -41 48 -115 69 -165 22 -49 64
-164 92 -255 29 -91 56 -176 60 -190 10 -30 28 -191 35 -311 3 -47 14 -115 26
-150 11 -35 25 -89 30 -119 20 -109 61 -226 154 -440 20 -47 43 -105 51 -130
8 -25 29 -71 47 -102 17 -32 55 -99 84 -150 73 -130 114 -182 278 -350 79 -81
156 -164 171 -183 15 -20 73 -76 129 -124 56 -48 139 -124 186 -168 159 -151
232 -204 419 -305 170 -91 248 -135 276 -155 16 -11 54 -33 84 -48 30 -15 84
-46 120 -70 36 -23 140 -81 233 -128 92 -48 179 -95 195 -105 15 -11 61 -39
102 -62 160 -92 257 -156 314 -207 32 -30 88 -76 125 -103 36 -28 86 -74 111
-104 88 -106 282 -317 306 -333 25 -16 128 -145 154 -191 8 -15 42 -74 76
-132 86 -147 114 -202 129 -257 42 -154 74 -238 89 -241 21 -4 43 13 62 49 13
26 12 36 -16 115 -16 48 -30 100 -30 116 0 32 -80 190 -133 263 -20 28 -51 77
-68 110 -58 111 -123 200 -199 270 -122 114 -188 185 -260 280 -43 56 -91 105
-126 130 -32 22 -89 67 -127 100 -112 96 -146 120 -262 180 -60 32 -122 66
-137 76 -14 11 -29 19 -33 19 -3 0 -39 21 -78 46 -39 26 -89 53 -110 60 -21 7
-50 22 -65 32 -15 11 -90 51 -167 90 -77 40 -165 92 -195 117 -30 24 -147 93
-260 151 -223 116 -213 109 -362 239 -57 50 -139 119 -183 153 -44 34 -116
104 -160 154 -81 93 -168 184 -260 270 -69 64 -138 150 -177 221 -18 32 -48
84 -66 115 -18 32 -42 80 -55 107 -12 28 -48 102 -81 165 -32 63 -64 131 -71
150 -7 19 -25 62 -40 95 -15 33 -29 71 -30 85 -5 51 -44 227 -64 290 -15 47
-21 92 -21 161 0 103 -23 241 -46 274 -8 11 -14 29 -14 41 0 12 -13 55 -30 95
-16 41 -30 79 -30 85 0 6 -9 19 -19 28 -14 13 -19 30 -18 55 1 23 -10 59 -26
94 -16 31 -30 66 -32 77 -2 12 -8 27 -13 34 -6 6 -13 25 -16 43 -4 17 -13 34
-21 37 -9 3 -14 20 -13 46 0 42 -6 56 -123 280 -24 47 -63 103 -86 125 -23 23
-55 59 -70 81 -29 42 -112 120 -175 167 -37 27 -68 35 -68 17 0 -13 -30 -13
-50 0 -12 7 -12 12 -2 22 6 6 12 15 12 19 0 4 -28 29 -62 55 -72 55 -475 261
-528 270 -19 3 -64 14 -100 25 -79 22 -219 46 -320 53 -59 4 -85 1 -123 -14z
m1021 -352 c4 -23 -7 -22 -38 3 l-25 20 30 -3 c19 -2 31 -9 33 -20z"/>
<path d="M13681 15843 c-19 -17 -42 -57 -60 -106 l-30 -78 18 -55 c18 -52 72
-122 142 -181 95 -81 277 -18 336 115 17 40 23 71 23 126 0 71 -2 76 -40 124
-34 44 -46 52 -92 61 -29 6 -80 10 -113 8 -33 -1 -81 2 -106 6 -43 8 -49 7
-78 -20z m259 -112 c5 -11 10 -34 10 -52 0 -20 9 -42 22 -56 21 -22 21 -26 7
-51 -8 -15 -30 -37 -49 -50 -28 -19 -42 -22 -75 -16 -58 9 -72 19 -111 79 -37
59 -45 114 -18 135 19 17 74 27 146 29 47 1 59 -2 68 -18z"/>
<path d="M12738 14815 c-44 -16 -152 -91 -188 -130 -14 -15 -50 -46 -80 -68
-30 -22 -98 -82 -150 -132 -52 -50 -119 -108 -148 -129 -28 -21 -55 -48 -58
-61 -6 -25 18 -80 38 -88 26 -9 76 28 198 148 69 67 145 137 170 155 25 19 70
56 100 84 30 27 83 62 117 78 57 27 66 29 117 19 31 -6 68 -17 84 -25 58 -30
190 -126 205 -150 9 -13 37 -39 61 -57 25 -18 48 -40 51 -50 6 -17 95 -98 214
-194 37 -30 72 -68 86 -95 12 -25 54 -74 91 -110 38 -36 82 -87 97 -112 39
-66 130 -120 209 -126 97 -7 142 12 226 95 41 40 88 81 105 90 18 9 46 27 62
40 17 13 53 39 80 56 33 21 51 40 53 55 4 27 -23 62 -49 62 -21 0 -201 -119
-249 -165 -60 -58 -148 -105 -194 -104 -65 1 -154 54 -193 114 -18 28 -54 70
-81 95 -27 25 -57 61 -67 80 -27 54 -55 84 -224 238 -86 79 -172 161 -191 181
-19 21 -51 49 -70 61 -19 13 -48 36 -64 52 -17 16 -66 47 -110 69 -69 34 -89
39 -146 38 -36 0 -82 -7 -102 -14z"/>
<path d="M2105 14643 c-49 -12 -78 -79 -54 -125 39 -77 116 -115 165 -83 21
14 25 22 21 48 -9 57 -37 121 -63 145 -25 22 -32 24 -69 15z"/>
<path d="M1713 14198 c-34 -37 -42 -62 -36 -106 7 -50 42 -85 104 -103 35 -11
43 -10 67 8 38 28 40 77 8 142 -41 81 -101 105 -143 59z"/>
<path d="M12038 14185 c-23 -13 -60 -65 -96 -136 -7 -14 -47 -62 -87 -108 -85
-95 -142 -178 -156 -224 -11 -38 -3 -131 18 -207 16 -56 116 -257 138 -275 6
-5 28 -32 47 -60 20 -27 66 -74 102 -103 36 -30 66 -57 66 -60 -1 -4 -7 -18
-15 -32 -23 -40 -18 -64 18 -90 74 -55 147 -124 147 -141 0 -34 -47 -35 -88
-2 -50 40 -102 110 -102 136 0 13 -19 39 -46 64 -53 50 -94 57 -119 20 -18
-28 -259 -248 -328 -299 -27 -20 -149 -138 -271 -260 -121 -123 -307 -306
-413 -407 -105 -101 -197 -197 -204 -213 -9 -22 -9 -35 0 -54 6 -14 11 -40 11
-58 0 -40 35 -149 61 -192 69 -113 206 -177 300 -139 11 4 28 -4 48 -24 22
-22 36 -28 50 -23 24 9 303 321 356 397 22 32 54 74 72 92 18 18 51 60 74 94
23 34 94 116 159 183 65 66 133 141 151 166 58 78 89 126 89 139 0 7 28 40 63
75 34 34 92 94 128 132 49 52 78 74 116 87 61 22 81 15 117 -41 30 -48 207
-211 267 -245 64 -37 125 -36 229 5 71 28 94 44 174 119 51 48 105 107 120
131 16 23 45 68 66 98 44 66 110 205 110 231 0 43 -72 52 -97 12 -9 -16 -31
-44 -49 -63 -17 -19 -37 -52 -44 -74 -23 -71 -218 -279 -302 -322 -67 -34
-126 -40 -159 -17 -104 70 -192 150 -309 278 -233 255 -283 306 -361 365 -42
32 -94 80 -116 107 -103 123 -191 316 -180 394 3 21 18 60 34 85 15 25 38 62
49 81 12 19 54 71 95 115 99 108 159 195 159 228 0 14 -37 50 -52 50 -7 -1
-25 -7 -40 -15z m-104 -1386 c14 -11 40 -42 57 -67 18 -26 46 -62 63 -80 22
-23 28 -36 21 -46 -6 -7 -26 -34 -45 -61 -19 -27 -65 -82 -102 -124 -66 -75
-84 -98 -153 -196 -19 -27 -69 -88 -110 -135 -117 -132 -247 -288 -282 -339
-18 -25 -47 -67 -65 -93 -54 -76 -219 -258 -235 -258 -8 0 -24 11 -35 25 -14
18 -29 25 -54 25 -75 0 -133 44 -214 161 -60 87 -60 94 7 169 156 175 508 528
601 602 34 28 88 78 120 113 73 81 205 196 307 268 44 32 83 57 86 57 4 0 18
-9 33 -21z"/>
<path d="M14605 14126 c-29 -21 -10 -62 45 -104 141 -106 243 -189 252 -205 5
-10 7 -31 3 -47 -8 -35 26 -93 80 -136 34 -28 37 -34 39 -85 1 -73 -33 -149
-98 -219 -29 -30 -76 -87 -104 -126 -64 -89 -208 -216 -292 -259 -19 -10 -71
-52 -115 -94 -156 -150 -203 -188 -276 -224 -86 -43 -135 -54 -179 -39 -44 16
-155 98 -226 167 -58 57 -182 141 -225 152 -40 11 -71 -43 -53 -91 3 -9 38
-39 78 -67 39 -28 87 -66 106 -84 61 -57 172 -136 242 -171 91 -46 170 -47
276 -4 62 25 94 48 212 156 77 70 140 131 140 135 0 4 37 34 83 65 114 80 218
183 284 282 31 46 78 102 104 124 54 46 105 134 125 217 13 57 10 84 -16 161
-7 19 -13 60 -14 90 -1 51 -5 60 -60 129 -37 47 -90 96 -144 135 -46 33 -114
82 -150 109 -69 50 -87 55 -117 33z"/>
<path d="M13006 13558 c-26 -37 -19 -73 31 -148 45 -67 77 -91 102 -76 20 13
68 -24 177 -138 117 -120 147 -139 190 -116 48 26 42 68 -14 102 -21 12 -92
74 -159 137 -187 178 -281 261 -297 261 -8 0 -22 -10 -30 -22z"/>
<path d="M12678 13200 c-19 -22 -47 -64 -62 -94 -27 -53 -27 -55 -13 -104 40
-132 147 -212 262 -196 22 3 72 22 110 42 87 46 115 84 115 156 0 55 -6 68
-69 136 -23 25 -52 57 -65 73 -24 26 -27 27 -135 27 l-109 0 -34 -40z m221
-87 c16 -15 21 -31 22 -85 2 -76 -6 -91 -57 -108 -46 -16 -84 0 -125 51 -26
33 -29 43 -23 76 11 58 43 83 107 83 38 0 61 -6 76 -17z"/>
<path d="M10283 11488 c-46 -46 -98 -107 -116 -137 -50 -84 -117 -161 -213
-246 -195 -173 -384 -378 -446 -485 -15 -25 -47 -74 -72 -110 -25 -36 -61 -87
-80 -115 -18 -27 -62 -82 -98 -120 l-64 -71 -2 -158 c-3 -209 -12 -193 201
-340 111 -76 153 -90 186 -57 39 39 23 77 -47 118 -87 50 -160 104 -191 139
-28 31 -31 41 -31 102 -1 39 -7 77 -15 92 -8 14 -14 28 -15 32 0 5 31 43 69
86 37 43 76 93 86 112 10 19 34 53 53 75 19 22 53 70 76 106 81 130 141 214
179 249 48 44 217 208 376 365 67 66 134 142 150 170 16 27 63 85 105 127 42
43 76 82 76 88 0 17 -47 60 -66 60 -9 0 -55 -37 -101 -82z"/>
<path d="M10783 11255 c-25 -11 -33 -20 -33 -39 0 -20 -43 -69 -187 -213 -104
-104 -208 -217 -233 -253 -25 -36 -101 -122 -170 -191 -144 -145 -192 -202
-263 -314 -29 -44 -64 -96 -79 -115 -15 -19 -59 -80 -98 -134 -38 -55 -86
-113 -105 -129 -41 -33 -45 -63 -11 -78 50 -23 109 14 174 107 20 29 62 85 92
126 30 40 71 98 90 130 53 87 121 167 285 337 83 86 195 210 250 276 90 108
179 199 348 355 71 66 76 105 16 135 -34 18 -35 18 -76 0z"/>
<path d="M8887 9899 c-31 -27 -50 -53 -57 -79 -11 -42 -41 -79 -159 -199 -40
-41 -97 -104 -126 -140 -29 -36 -162 -174 -297 -306 -134 -132 -260 -261 -279
-286 -108 -145 -331 -410 -397 -472 -47 -45 -92 -118 -92 -152 0 -12 12 -32
26 -46 14 -13 41 -56 60 -96 29 -60 42 -77 90 -109 81 -53 143 -74 220 -74 78
0 129 21 150 61 8 16 47 62 87 102 74 73 212 238 257 307 24 38 127 157 303
352 48 53 128 134 178 180 85 79 359 375 407 441 29 40 29 81 0 101 -33 24
-64 19 -88 -11 -11 -16 -53 -70 -92 -121 -38 -51 -143 -166 -233 -255 -242
-242 -430 -448 -530 -582 -97 -130 -234 -293 -330 -392 -56 -58 -64 -63 -103
-63 -53 0 -145 45 -188 92 -34 36 -69 131 -57 152 4 8 49 63 100 123 50 59
122 149 160 200 130 176 221 279 374 422 307 288 714 725 751 807 10 21 8 28
-17 54 -38 40 -63 38 -118 -11z"/>
<path d="M8797 8562 c-33 -34 -35 -71 -8 -144 11 -29 29 -87 40 -128 11 -41
36 -115 56 -165 33 -82 54 -154 119 -405 14 -52 52 -144 99 -239 42 -85 77
-164 77 -175 0 -12 14 -46 30 -76 16 -30 43 -82 60 -115 50 -98 112 -192 182
-273 125 -145 179 -213 191 -240 20 -45 68 -110 93 -127 13 -8 31 -30 40 -48
21 -39 110 -151 144 -181 14 -11 45 -43 70 -71 91 -101 156 -158 210 -182 30
-14 76 -40 102 -59 61 -43 146 -82 338 -154 85 -32 191 -74 235 -94 44 -20 88
-36 97 -36 9 0 90 -26 180 -59 199 -71 311 -107 359 -115 38 -7 62 -18 219
-106 52 -29 133 -73 180 -98 167 -88 248 -142 300 -200 29 -31 73 -71 97 -89
69 -49 169 -148 199 -195 15 -24 43 -61 63 -84 32 -36 49 -60 88 -128 7 -12
37 -73 67 -137 31 -64 68 -132 83 -152 16 -20 39 -52 53 -72 14 -20 41 -57 61
-83 20 -26 60 -92 88 -147 61 -119 79 -146 148 -230 29 -34 76 -107 104 -161
28 -55 59 -110 69 -124 23 -34 180 -339 180 -350 0 -10 24 -60 139 -285 39
-77 74 -156 77 -175 21 -110 143 -374 224 -485 20 -27 65 -102 100 -165 35
-63 75 -133 90 -155 15 -22 44 -71 66 -110 40 -73 136 -206 264 -364 41 -51
85 -107 97 -125 20 -29 107 -118 233 -237 30 -28 50 -54 44 -56 -7 -2 -47 19
-90 48 -44 28 -185 121 -314 206 -258 170 -321 219 -487 380 -96 93 -114 116
-132 166 -19 52 -39 77 -182 220 -260 260 -353 376 -443 555 -15 29 -59 89
-99 133 -40 45 -88 103 -109 130 -45 61 -113 201 -122 251 -4 20 -38 89 -77
154 -39 64 -86 154 -105 198 -36 84 -85 165 -141 229 -18 20 -33 42 -33 49 0
6 -20 43 -44 82 -24 39 -60 103 -80 143 -32 65 -71 129 -161 268 -16 26 -43
68 -59 93 -61 100 -265 362 -317 407 -13 12 -58 51 -99 88 -88 80 -243 176
-395 245 -105 48 -200 80 -400 135 -49 14 -120 37 -158 51 -37 14 -120 39
-185 56 -77 20 -149 47 -212 79 -52 27 -163 77 -245 111 -83 34 -193 84 -245
112 -52 27 -132 69 -177 93 -45 23 -108 63 -140 87 -32 25 -92 70 -134 101
-42 30 -96 79 -120 108 -24 28 -71 84 -104 123 -74 87 -155 206 -196 289 -42
84 -93 168 -153 252 -65 91 -131 217 -145 279 -15 62 -30 90 -95 181 -29 41
-75 118 -101 172 -27 54 -59 111 -71 126 -13 15 -26 44 -30 64 -4 20 -15 59
-26 87 -11 28 -28 74 -38 102 -10 28 -26 66 -35 84 -27 53 -37 90 -40 156 -5
113 -22 128 -74 69 -28 -32 -31 -42 -31 -103 0 -55 7 -84 36 -152 19 -47 44
-114 55 -150 12 -36 25 -78 31 -95 12 -36 12 -45 3 -67 -4 -11 5 -30 32 -60
63 -71 99 -121 128 -177 15 -30 44 -79 65 -110 42 -62 80 -134 80 -152 0 -6 6
-25 14 -42 8 -18 28 -61 44 -97 16 -36 54 -96 85 -134 30 -39 90 -137 133
-220 74 -144 103 -187 298 -439 95 -123 195 -208 377 -319 24 -15 84 -53 133
-83 49 -31 119 -67 155 -81 36 -15 134 -59 216 -99 268 -130 469 -210 580
-229 22 -4 72 -20 110 -35 39 -16 117 -40 175 -55 268 -69 398 -122 563 -227
37 -23 54 -36 173 -129 81 -63 139 -126 234 -255 19 -26 51 -66 71 -88 31 -37
78 -103 131 -186 23 -36 112 -199 132 -241 9 -19 32 -60 51 -90 19 -30 40 -66
47 -80 6 -14 29 -47 49 -75 52 -69 189 -285 189 -298 0 -19 71 -167 105 -219
19 -28 46 -81 60 -117 40 -101 97 -210 130 -251 120 -148 182 -238 246 -355
25 -46 41 -66 179 -224 55 -62 100 -117 100 -120 0 -4 54 -56 121 -117 110
-99 125 -117 165 -196 47 -94 188 -269 260 -323 21 -16 66 -54 99 -85 33 -31
121 -95 195 -143 240 -155 473 -315 555 -381 44 -35 125 -92 180 -128 55 -36
158 -108 229 -162 139 -104 192 -136 228 -136 28 0 68 26 68 44 0 11 20 26 35
26 2 0 22 -16 45 -35 48 -40 86 -45 118 -15 38 35 25 64 -49 109 -28 18 -73
49 -100 71 -27 21 -85 58 -129 81 -44 24 -101 60 -127 82 -26 21 -66 48 -88
59 -64 33 -157 98 -195 138 -19 19 -89 84 -155 143 -66 58 -146 139 -178 179
-32 40 -89 111 -125 157 -37 46 -95 118 -129 160 -34 42 -74 99 -89 126 -15
28 -52 87 -83 133 -76 113 -103 156 -147 232 -20 36 -66 112 -103 170 -64 103
-118 227 -168 385 -14 44 -69 166 -123 270 -54 105 -103 207 -110 228 -13 43
-100 214 -150 297 -18 30 -59 106 -91 168 -37 71 -85 143 -129 195 -51 59 -87
116 -131 206 -33 68 -78 142 -98 165 -66 72 -122 165 -192 317 -79 171 -117
236 -173 300 -23 25 -48 59 -57 75 -9 17 -54 63 -101 102 -47 39 -114 103
-150 142 -88 96 -147 139 -286 207 -64 31 -146 78 -182 104 -85 61 -190 113
-303 150 -51 16 -119 41 -152 54 -33 13 -98 33 -145 45 -47 12 -151 49 -232
81 -81 33 -200 77 -265 99 -211 70 -287 100 -338 132 -27 17 -75 46 -105 64
-156 92 -184 112 -218 157 -55 72 -80 107 -84 115 -2 4 -23 23 -49 44 -27 21
-64 68 -91 115 -27 44 -78 108 -118 148 -39 39 -85 95 -103 125 -17 30 -70 94
-117 141 -47 48 -93 102 -102 120 -10 19 -46 88 -81 154 -35 66 -70 138 -77
160 -7 22 -39 87 -71 145 -62 113 -92 191 -109 286 -23 134 -38 191 -57 229
-18 36 -36 79 -90 220 -8 22 -21 60 -28 85 -36 125 -63 229 -69 263 -8 46 -31
49 -69 9z m6613 -7997 c10 -12 9 -15 -8 -15 -11 0 -25 7 -32 15 -10 12 -9 15
8 15 11 0 25 -7 32 -15z"/>
<path d="M7219 8018 c-22 -24 -59 -70 -82 -103 -22 -33 -105 -123 -182 -200
-78 -77 -174 -184 -213 -237 -40 -53 -76 -99 -81 -103 -18 -10 -100 -123 -122
-167 -22 -44 -40 -68 -116 -158 -24 -28 -43 -52 -43 -53 0 -1 -4 -17 -9 -35
-12 -39 6 -62 49 -62 35 0 94 67 197 225 97 151 303 406 393 489 76 70 250
249 250 257 0 4 16 26 35 49 40 48 44 76 14 114 -28 36 -43 33 -90 -16z"/>
<path d="M7785 7825 c-16 -7 -68 -49 -113 -93 -78 -74 -83 -83 -77 -111 6 -27
-1 -37 -87 -123 -133 -132 -359 -383 -456 -506 -45 -58 -104 -130 -131 -161
-124 -143 -161 -241 -106 -277 23 -15 27 -15 49 -1 13 9 33 35 45 59 11 24 50
78 86 122 36 43 65 82 65 88 0 5 24 35 53 66 30 31 72 82 94 113 65 88 218
257 307 338 166 152 288 278 328 339 39 60 40 64 29 102 -6 22 -20 44 -31 50
-22 12 -18 12 -55 -5z"/>
<path d="M6262 6815 c-26 -33 -38 -132 -22 -179 25 -76 100 -113 254 -127 93
-8 113 -7 132 6 32 21 30 50 -5 86 -26 26 -34 28 -74 23 -53 -8 -132 9 -167
36 -21 16 -25 27 -25 78 0 92 -49 133 -93 77z"/>
<path d="M6018 6710 c-9 -6 -48 -54 -86 -107 -39 -55 -141 -170 -232 -263
-120 -122 -181 -192 -231 -269 -70 -106 -344 -411 -514 -571 -129 -121 -299
-299 -317 -332 -20 -36 -15 -54 23 -73 56 -30 98 -13 145 58 50 76 203 247
424 472 202 206 292 310 365 420 57 87 98 135 191 222 142 134 314 342 314
382 0 16 -45 71 -58 71 -4 0 -14 -5 -24 -10z"/>
<path d="M6372 6285 c-12 -15 -24 -34 -27 -43 -2 -9 -19 -26 -36 -37 -17 -11
-45 -40 -62 -65 -43 -62 -124 -146 -164 -171 -18 -12 -59 -58 -89 -103 -30
-44 -80 -110 -110 -146 -30 -36 -76 -90 -101 -120 -25 -30 -62 -80 -81 -110
-75 -117 -176 -267 -204 -300 -16 -19 -62 -74 -103 -121 -78 -90 -105 -138
-105 -187 0 -39 37 -60 78 -43 44 18 92 67 92 93 0 26 8 40 89 147 31 41 79
106 107 145 29 39 63 85 76 101 13 17 44 62 68 100 24 39 87 121 140 183 52
63 106 128 120 145 14 18 88 98 165 179 129 135 143 153 179 235 48 110 51
137 15 141 -19 2 -33 -4 -47 -23z"/>
<path d="M4635 5005 c-35 -34 -33 -89 4 -163 32 -63 85 -112 157 -142 52 -23
192 -60 223 -60 33 0 63 36 59 73 -4 37 -17 45 -142 83 -110 34 -169 83 -181
151 -7 46 -42 83 -77 83 -10 0 -30 -11 -43 -25z"/>
<path d="M4380 4888 c-62 -72 -221 -242 -345 -368 -78 -80 -160 -170 -182
-200 -22 -30 -80 -98 -129 -152 -100 -109 -198 -222 -274 -318 -29 -36 -106
-122 -172 -192 -65 -70 -131 -143 -146 -164 -15 -21 -43 -54 -62 -73 -19 -20
-43 -48 -53 -63 -9 -16 -24 -28 -31 -28 -25 0 -66 -41 -66 -65 0 -42 40 -133
82 -186 40 -50 96 -96 166 -134 20 -11 76 -44 123 -73 48 -28 95 -52 106 -52
26 0 63 36 63 61 0 40 -22 61 -113 105 -165 81 -226 132 -264 221 l-15 38 33
27 c18 16 36 28 40 28 3 0 35 42 71 93 36 50 114 144 173 207 59 63 135 149
168 190 100 122 232 272 282 320 26 25 77 86 115 135 62 82 217 242 281 291
15 11 34 35 44 54 10 19 62 78 116 131 61 59 99 105 99 117 0 22 -53 72 -76
72 -8 0 -23 -10 -34 -22z"/>
<path d="M4796 4468 c-37 -40 -123 -129 -190 -198 -67 -69 -140 -145 -163
-170 -22 -25 -90 -89 -151 -142 -60 -53 -152 -147 -205 -210 -52 -62 -109
-126 -127 -143 -31 -29 -135 -161 -214 -273 -21 -30 -79 -97 -129 -148 -108
-112 -107 -109 -107 -157 0 -31 5 -40 26 -49 36 -17 90 14 119 66 22 39 88
124 160 206 23 25 67 81 100 125 32 44 97 121 144 170 47 50 122 132 165 183
44 50 84 92 90 92 5 0 102 93 216 208 114 114 233 232 266 263 121 115 153
174 124 230 -20 37 -53 23 -124 -53z"/>
<path d="M2783 2999 c-28 -42 -50 -65 -174 -185 -72 -69 -307 -331 -397 -444
-75 -93 -160 -180 -326 -335 -120 -111 -181 -180 -281 -321 -22 -30 -74 -97
-115 -147 -110 -134 -134 -198 -77 -212 59 -15 110 33 212 200 19 30 56 76
195 244 31 36 141 152 245 256 105 105 217 225 250 267 90 116 253 297 401
448 l133 135 3 65 c3 61 2 65 -19 68 -17 3 -29 -7 -50 -39z"/>
<path d="M3221 2784 c-18 -15 -35 -42 -42 -66 -8 -31 -34 -65 -114 -145 -58
-58 -119 -130 -137 -161 -49 -86 -133 -191 -181 -225 -71 -52 -299 -288 -352
-365 -30 -45 -92 -111 -158 -170 -135 -122 -315 -316 -323 -349 -11 -41 10
-73 48 -73 18 0 40 6 48 13 9 7 71 76 138 154 67 78 142 156 165 172 56 39
108 96 196 213 70 93 129 154 220 227 44 34 211 224 231 261 20 38 151 184
210 235 61 52 82 76 150 166 44 59 45 79 4 117 -33 29 -65 28 -103 -4z"/>
<path d="M1120 1351 c-63 -32 -129 -72 -146 -87 -31 -28 -34 -36 -60 -174 -3
-18 15 -57 67 -145 77 -131 133 -196 222 -257 130 -89 217 -109 299 -67 23 12
63 27 89 35 85 25 152 131 172 270 10 70 9 78 -18 145 -27 69 -29 72 -83 96
-31 13 -77 42 -102 62 -25 21 -85 60 -135 86 -49 26 -102 56 -116 66 -51 36
-67 33 -189 -30z m154 -96 c10 -8 42 -22 70 -31 104 -35 207 -115 241 -188 14
-28 34 -63 46 -78 21 -26 22 -30 8 -70 -26 -80 -73 -117 -197 -153 -71 -21
-78 -19 -162 41 -105 76 -148 123 -200 221 -47 88 -50 97 -40 132 12 44 24 57
105 105 65 38 99 44 129 21z"/>
</g>
</svg>
