<?xml version="1.0" standalone="no"?>
<!DOCTYPE svg PUBLIC "-//W3C//DTD SVG 20010904//EN"
 "http://www.w3.org/TR/2001/REC-SVG-20010904/DTD/svg10.dtd">
<svg version="1.0" xmlns="http://www.w3.org/2000/svg"
 width="1603.647364pt" height="1160.906451pt" viewBox="0 0 1603.647364 1160.906451"
 preserveAspectRatio="xMidYMid meet">
<metadata>
Created by potrace 1.13, written by Peter Selinger 2001-2015
</metadata>
<g transform="translate(-34.000000,1423.391223) scale(0.100000,-0.100000)"
fill="#ffffff" stroke="none">
<path d="M3210 14229 c-101 -21 -163 -29 -226 -29 -47 0 -90 -8 -134 -24 -119
-43 -145 -57 -165 -89 -17 -27 -30 -34 -80 -45 -33 -7 -87 -26 -121 -42 -41
-20 -76 -30 -108 -30 -27 0 -63 -8 -86 -20 -22 -11 -55 -20 -75 -20 -40 0
-141 -61 -150 -91 -4 -10 -24 -38 -46 -61 -22 -24 -47 -56 -55 -71 -9 -18 -35
-37 -64 -50 -30 -13 -58 -36 -72 -56 -13 -19 -44 -46 -69 -60 -63 -36 -146
-108 -153 -134 -8 -27 -120 -146 -161 -171 -42 -25 -145 -186 -174 -271 -28
-83 -40 -227 -22 -249 10 -12 9 -21 -3 -43 -20 -34 -46 -276 -33 -299 5 -9 6
-80 3 -158 -4 -86 -2 -164 4 -201 6 -33 15 -85 19 -115 5 -30 16 -80 25 -110
9 -30 16 -67 16 -83 0 -15 18 -64 39 -110 40 -82 51 -118 76 -235 7 -35 19
-71 27 -80 8 -9 23 -42 32 -74 9 -31 26 -64 36 -73 18 -16 70 -133 70 -157 0
-20 70 -117 90 -123 12 -4 20 -17 22 -37 2 -25 12 -37 45 -57 23 -14 60 -50
83 -79 66 -84 144 -156 222 -203 40 -24 112 -81 161 -129 126 -123 152 -143
247 -189 48 -24 95 -55 108 -72 13 -16 38 -37 55 -46 30 -15 63 -40 127 -96
53 -46 124 -97 136 -97 7 0 25 -16 40 -36 15 -19 39 -41 53 -49 14 -7 42 -28
62 -47 20 -18 59 -54 86 -79 28 -26 80 -63 117 -84 37 -20 75 -49 84 -64 9
-14 19 -28 23 -31 20 -16 69 -96 69 -112 0 -10 7 -29 14 -41 8 -12 22 -48 30
-80 8 -31 18 -62 21 -68 10 -16 26 -116 32 -196 l5 -73 -29 0 c-16 0 -54 7
-85 15 -51 13 -61 13 -100 -2 -69 -26 -258 -23 -326 5 -35 15 -74 22 -117 22
-60 0 -66 2 -112 41 -26 23 -52 48 -56 55 -4 8 -27 24 -50 35 -23 12 -60 37
-82 56 -22 18 -51 36 -65 40 -36 8 -51 23 -45 43 12 39 8 90 -10 110 -15 17
-31 20 -100 20 -114 0 -120 5 -120 117 -1 94 -11 130 -57 198 -45 66 -90 98
-155 111 -32 6 -73 18 -90 25 -26 11 -39 11 -66 1 -19 -7 -79 -14 -134 -16
-95 -3 -103 -4 -146 -36 -47 -33 -97 -95 -97 -119 0 -8 -11 -45 -25 -83 -28
-79 -30 -105 -10 -132 15 -20 11 -62 -9 -82 -6 -7 -35 -14 -63 -16 -67 -6 -81
6 -65 61 16 52 -4 118 -66 212 -26 41 -51 82 -55 91 -13 37 -84 117 -127 145
-44 29 -48 30 -192 32 -113 1 -154 -1 -175 -13 -50 -26 -131 -109 -138 -141
-3 -16 -10 -45 -16 -63 -6 -19 -8 -49 -5 -67 10 -49 97 -174 155 -220 27 -22
50 -47 51 -55 0 -8 -14 -28 -31 -46 l-31 -32 12 -63 c14 -83 14 -85 1 -147 -7
-33 -7 -60 -2 -71 6 -10 6 -23 0 -34 -7 -11 -6 -24 1 -38 9 -16 9 -28 0 -50
-9 -21 -10 -36 -2 -56 14 -35 33 -169 31 -208 -2 -17 3 -40 9 -52 7 -13 14
-98 17 -227 4 -197 3 -207 -17 -242 -19 -32 -20 -40 -9 -70 24 -68 25 -137 2
-189 -37 -84 -25 -154 36 -205 16 -14 53 -55 81 -91 52 -66 90 -97 171 -139
38 -19 53 -21 107 -15 77 8 112 30 177 110 l48 60 -5 102 c-6 112 -1 122 52
102 15 -6 45 -9 67 -8 57 3 144 -11 160 -27 10 -11 11 -21 2 -49 -13 -42 11
-153 45 -212 60 -103 155 -209 235 -262 37 -25 57 -31 98 -31 79 0 147 25 206
75 29 25 56 45 60 45 8 0 93 112 132 174 27 43 27 47 18 121 -7 62 -15 83 -36
105 -22 23 -24 29 -11 39 8 7 29 14 48 16 18 2 74 9 124 15 70 9 101 9 131 0
51 -16 91 3 133 63 99 139 150 177 268 202 40 8 87 22 105 32 25 13 60 17 152
17 l119 1 23 34 c49 73 43 119 -20 150 -38 18 -50 19 -105 11 -34 -6 -73 -15
-88 -20 -14 -6 -50 -10 -80 -10 -32 0 -68 -7 -87 -17 -35 -18 -140 -24 -170
-9 -14 6 -40 -14 -131 -103 -95 -93 -119 -111 -144 -111 -17 0 -54 -9 -81 -20
-27 -10 -107 -31 -178 -46 -122 -25 -136 -26 -298 -19 -93 5 -199 7 -235 5
-196 -11 -506 10 -557 38 -12 7 -28 24 -35 40 -7 15 -31 36 -52 46 -37 18 -47
18 -142 7 -138 -17 -141 -15 -139 86 1 43 -2 88 -7 101 -4 14 -4 31 2 42 10
18 8 42 -24 325 -28 242 -34 280 -46 306 -10 23 -8 36 20 100 18 41 36 78 41
84 5 5 9 19 9 32 0 34 36 51 130 63 47 5 126 15 175 21 50 6 106 7 125 4 19
-4 100 -9 180 -10 80 -1 188 -8 240 -15 104 -14 461 -19 526 -8 38 7 45 5 89
-30 191 -150 389 -340 407 -390 20 -54 105 -56 118 -3 9 38 31 46 92 33 127
-27 156 -33 208 -38 83 -8 147 -7 229 6 40 6 75 9 77 7 3 -2 0 -16 -5 -30 -8
-22 -5 -36 18 -80 31 -59 38 -93 47 -242 3 -54 12 -111 19 -125 8 -15 17 -54
21 -89 5 -43 15 -74 35 -104 16 -23 29 -49 29 -57 0 -8 14 -42 30 -74 17 -32
30 -71 30 -87 0 -15 10 -44 23 -63 12 -19 41 -68 64 -109 63 -109 150 -199
228 -236 61 -29 73 -31 180 -31 116 0 160 9 250 51 47 22 95 89 95 132 0 80
44 88 91 16 24 -38 44 -56 77 -70 25 -11 57 -30 73 -43 16 -13 51 -32 79 -41
33 -11 59 -28 76 -50 15 -20 55 -48 96 -69 l70 -35 47 23 c25 13 59 26 75 30
46 11 145 72 213 132 33 30 68 54 77 54 9 0 55 -18 103 -41 100 -46 234 -95
308 -111 28 -6 109 -10 180 -8 118 1 134 4 176 27 28 15 55 23 66 19 18 -6 53
-63 53 -87 0 -6 9 -23 19 -38 11 -15 31 -57 46 -93 21 -52 40 -80 88 -125 34
-32 78 -76 98 -98 21 -22 60 -58 88 -80 27 -22 60 -54 71 -72 24 -37 110 -92
191 -122 30 -12 87 -42 125 -68 117 -79 257 -153 291 -153 13 0 49 -8 80 -19
32 -10 85 -26 118 -36 68 -19 118 -38 189 -72 55 -26 145 -31 245 -14 31 6 81
14 111 19 35 6 65 6 83 -1 22 -7 37 -6 64 7 22 10 46 14 67 11 21 -4 50 1 84
14 34 14 76 21 117 21 96 0 204 33 400 122 89 41 195 110 195 128 0 26 48 19
150 -24 60 -25 125 -46 143 -46 19 0 54 -7 78 -15 35 -13 81 -15 258 -10 306
7 356 12 416 45 28 15 88 37 135 50 173 45 327 104 412 157 21 13 93 45 160
72 68 27 162 70 209 95 97 52 207 93 289 107 104 19 195 29 209 24 8 -3 75 -6
150 -6 103 0 151 -5 196 -19 112 -34 244 -99 336 -165 127 -93 239 -139 428
-175 120 -23 145 -37 324 -172 117 -88 205 -140 262 -154 17 -4 47 -15 67 -25
20 -10 99 -40 175 -65 76 -26 169 -57 208 -70 38 -13 81 -24 96 -24 14 0 52
-9 85 -21 106 -36 306 -57 604 -61 185 -3 185 -3 237 25 29 15 64 27 77 27 74
0 342 155 444 257 35 35 68 63 73 63 9 0 263 243 386 370 95 97 203 273 203
331 0 16 14 55 30 86 17 31 30 63 30 72 0 9 16 52 36 96 36 82 64 191 64 256
0 39 35 213 47 232 4 7 10 35 14 62 25 190 41 295 49 325 6 19 10 54 10 78 0
24 5 64 11 89 12 46 2 176 -23 303 -6 30 -12 93 -13 140 -4 180 -32 369 -70
470 -30 81 -55 219 -55 309 0 36 -9 92 -19 125 -11 34 -24 81 -31 106 -22 90
-65 216 -81 240 -8 14 -24 45 -33 70 -10 25 -27 55 -38 67 -20 21 -89 208
-129 346 -26 90 -41 111 -90 126 -67 20 -149 -16 -149 -66 0 -13 -5 -33 -10
-43 -8 -16 1 -31 52 -91 35 -40 64 -82 65 -93 12 -124 13 -126 102 -286 28
-50 101 -210 101 -221 0 -7 5 -27 12 -46 10 -27 9 -38 -5 -67 -16 -34 -16 -35
14 -72 16 -21 27 -44 24 -52 -5 -14 14 -103 45 -207 10 -33 21 -78 25 -100 4
-22 13 -57 21 -77 7 -21 11 -51 8 -67 -4 -17 0 -38 9 -52 14 -23 27 -137 33
-279 1 -36 7 -81 13 -100 6 -19 11 -65 11 -102 0 -36 7 -94 16 -128 12 -46 13
-69 5 -88 -5 -15 -13 -54 -17 -87 -4 -33 -12 -71 -20 -86 -14 -28 -34 -188
-34 -277 0 -32 -7 -85 -16 -117 -8 -33 -18 -98 -21 -145 -3 -47 -12 -97 -19
-112 -8 -15 -14 -47 -14 -71 0 -25 -7 -58 -15 -73 -8 -16 -15 -40 -15 -54 0
-15 -4 -30 -9 -35 -5 -6 -25 -62 -46 -125 -43 -132 -33 -113 -107 -221 -53
-79 -93 -121 -491 -514 -51 -50 -105 -96 -120 -103 -15 -6 -30 -19 -33 -27 -4
-9 -21 -23 -38 -31 -17 -9 -53 -31 -81 -49 -49 -33 -157 -71 -265 -95 -38 -8
-118 -10 -260 -6 -223 5 -323 15 -357 34 -12 7 -34 12 -50 12 -15 1 -39 7 -53
15 -14 8 -46 14 -71 15 -25 0 -78 11 -118 25 -39 14 -97 30 -129 35 -80 12
-140 32 -264 83 -104 44 -144 69 -239 152 -140 121 -171 139 -350 198 -74 25
-154 54 -177 66 -23 12 -48 21 -55 21 -8 0 -25 9 -39 19 -13 11 -38 23 -54 27
-16 4 -49 21 -73 37 -49 33 -288 147 -309 147 -8 0 -71 18 -140 40 -125 39
-130 40 -287 41 -141 1 -168 -2 -220 -21 -88 -32 -287 -90 -309 -90 -11 0 -60
-22 -110 -49 -50 -27 -136 -63 -191 -80 -72 -23 -107 -39 -125 -59 -26 -30
-98 -74 -140 -87 -14 -4 -41 -18 -60 -31 -19 -13 -46 -24 -60 -24 -14 0 -35
-7 -46 -15 -12 -8 -43 -19 -70 -25 -27 -5 -69 -19 -94 -29 -88 -38 -157 -51
-330 -65 -177 -14 -314 -9 -375 14 -15 6 -55 14 -89 19 -45 7 -93 26 -181 72
-101 54 -133 77 -202 147 -46 46 -83 87 -83 92 0 4 -21 30 -47 57 -48 49 -89
136 -98 203 -4 37 -30 111 -55 160 -26 52 -43 161 -35 225 l6 55 -46 21 c-55
25 -101 20 -141 -14 -22 -19 -26 -32 -28 -77 -1 -40 4 -63 19 -84 13 -19 20
-49 21 -86 2 -31 12 -83 23 -116 11 -33 23 -84 26 -114 12 -99 55 -209 102
-261 32 -35 14 -49 -63 -46 -32 1 -115 -4 -184 -12 -141 -15 -223 -10 -278 18
-20 10 -51 22 -68 25 -18 4 -53 20 -78 37 -26 16 -63 36 -84 45 -20 8 -46 23
-57 34 -11 10 -40 27 -65 38 -25 11 -51 26 -58 35 -7 8 -38 25 -70 38 -44 18
-76 43 -142 110 -108 111 -138 149 -168 212 -33 70 -72 196 -72 230 0 15 -9
46 -20 68 -21 40 -30 174 -34 529 -1 69 -5 177 -10 241 -9 133 -9 134 63 130
26 -1 93 8 151 21 61 13 136 22 180 22 41 0 129 -2 195 -2 66 -1 156 -1 200 0
44 0 114 0 155 -2 41 -1 221 0 400 4 909 17 1003 18 1303 11 144 -4 150 -5
137 -41 -12 -31 -1 -44 41 -44 51 0 58 -14 81 -165 5 -38 18 -96 29 -128 10
-32 15 -65 12 -73 -3 -9 6 -27 23 -45 24 -25 26 -31 14 -43 -26 -23 -202 -61
-335 -72 -216 -17 -310 -26 -364 -36 -72 -12 -289 2 -429 28 -46 8 -96 12
-113 9 -17 -4 -59 -1 -94 6 -56 11 -78 10 -165 -5 -55 -10 -104 -15 -110 -11
-17 10 -223 6 -260 -5 -96 -30 -441 -42 -517 -19 -21 7 -44 7 -70 0 -21 -5
-96 -8 -168 -6 -180 6 -195 0 -230 -77 -25 -56 -27 -64 -14 -87 17 -29 43 -44
111 -62 46 -13 48 -12 72 14 29 31 -4 28 376 28 135 0 280 -3 324 -6 43 -2 97
0 120 6 22 6 97 15 166 19 69 5 177 13 240 20 70 7 172 9 260 5 80 -3 206 -8
280 -10 74 -2 144 -4 155 -6 11 -1 124 3 250 9 127 7 329 14 449 16 l219 5 78
-82 c55 -59 100 -95 156 -126 43 -24 120 -68 171 -97 110 -63 173 -87 268
-104 55 -10 79 -10 107 -1 22 8 54 10 82 6 40 -6 54 -3 127 34 46 22 109 47
141 55 68 18 64 16 149 83 169 134 274 259 308 368 7 22 19 49 25 60 7 11 15
32 19 46 3 14 16 31 28 37 56 28 159 55 235 61 61 5 87 11 103 26 17 16 37 20
94 21 39 0 112 7 161 14 52 9 168 15 275 15 l185 0 6 -130 c6 -135 10 -161 36
-232 11 -29 24 -45 44 -53 26 -11 33 -10 70 16 22 16 48 34 57 39 9 6 33 20
54 33 67 40 151 55 261 49 98 -6 100 -6 168 28 37 19 73 44 79 54 16 31 12 76
-10 103 -18 24 -26 50 -72 233 -11 44 -24 94 -30 110 -5 17 -13 46 -18 65 -9
42 -42 140 -64 193 -10 21 -14 46 -11 56 3 10 -1 34 -10 54 -8 20 -15 60 -15
89 0 29 -7 87 -16 128 -15 71 -21 166 -28 450 -5 220 -20 256 -111 279 -40 9
-329 7 -482 -5 -69 -5 -87 -10 -123 -36 l-41 -30 7 -62 c4 -33 20 -100 35
-147 16 -48 29 -98 29 -110 1 -13 8 -42 16 -64 8 -22 22 -67 30 -100 8 -33 22
-82 30 -110 8 -27 19 -90 24 -140 5 -49 14 -112 20 -139 5 -26 7 -52 4 -57 -7
-12 -44 -11 -44 1 0 13 -84 50 -114 50 -13 0 -48 -13 -79 -30 -31 -16 -70 -30
-86 -30 -16 0 -59 -9 -95 -21 -37 -11 -76 -17 -87 -14 -21 7 -181 -13 -340
-41 -127 -23 -141 -15 -153 89 l-6 58 35 14 c19 8 44 15 55 15 12 0 42 8 68
19 81 32 227 50 452 56 118 4 225 8 238 11 15 3 28 18 39 47 22 52 19 65 -17
99 -29 27 -31 27 -137 22 -59 -3 -153 -9 -208 -14 -57 -5 -116 -5 -139 0 -26
6 -55 4 -93 -6 -29 -8 -62 -14 -72 -14 -10 0 -41 -7 -67 -15 -63 -19 -252 -65
-265 -65 -6 0 -55 45 -110 99 -86 86 -113 106 -195 146 -65 32 -113 48 -152
52 -31 4 -74 14 -95 23 -28 13 -49 15 -79 10 -23 -5 -53 -4 -66 1 -13 5 -44 9
-69 9 -25 0 -68 6 -96 14 -139 37 -148 37 -255 21 -57 -8 -116 -21 -130 -29
-15 -7 -39 -16 -55 -20 -15 -4 -73 -28 -128 -54 -94 -46 -103 -52 -144 -113
-54 -78 -105 -183 -141 -287 -38 -108 -34 -105 -129 -97 -63 5 -90 3 -125 -11
-38 -14 -98 -17 -404 -20 -197 -2 -375 -8 -395 -14 -29 -7 -925 -6 -1246 2
-16 1 -70 -4 -120 -9 -70 -9 -104 -8 -155 2 -79 17 -165 13 -208 -9 -20 -10
-56 -16 -100 -16 -50 0 -73 -4 -82 -15 -7 -8 -21 -15 -32 -15 -17 0 -19 4 -13
23 4 12 9 55 12 95 3 61 0 81 -21 125 -38 82 -86 214 -86 236 0 11 -10 36 -22
54 -48 72 -80 129 -97 167 -19 43 -79 111 -132 149 -28 20 -69 51 -92 69 -38
31 -45 33 -96 29 -92 -8 -171 -25 -189 -39 -79 -62 -108 -91 -138 -140 -41
-67 -73 -78 -93 -30 -16 36 -106 100 -150 107 -87 13 -150 31 -206 57 -65 30
-138 36 -232 19 -63 -12 -233 -106 -365 -201 -47 -34 -58 -47 -58 -70 0 -20
-6 -31 -21 -35 -18 -6 -30 2 -62 41 -23 27 -62 69 -88 94 -26 25 -50 55 -54
68 -18 62 -121 98 -256 89 -97 -7 -129 -18 -203 -69 -42 -28 -53 -44 -79 -108
-17 -41 -36 -78 -41 -82 -5 -3 -30 5 -56 18 -25 13 -73 29 -105 35 -60 11
-124 54 -150 101 -12 20 -104 130 -177 211 -28 32 -71 65 -110 85 -36 18 -86
53 -113 78 -26 25 -66 57 -89 72 -22 14 -52 37 -65 49 -16 15 -36 23 -60 23
-51 0 -217 99 -295 176 -17 16 -56 46 -87 66 -30 19 -66 50 -80 67 -13 18 -40
50 -61 71 -32 33 -114 150 -172 244 -44 72 -93 143 -118 174 -16 18 -28 38
-28 45 0 7 -9 30 -20 52 -11 22 -20 46 -20 55 0 9 -11 27 -25 40 -14 13 -25
33 -25 44 0 12 -13 48 -30 81 -16 33 -30 75 -30 92 0 47 -19 122 -41 165 -10
20 -19 43 -19 49 0 7 -10 23 -21 35 -12 13 -25 44 -30 71 -5 26 -16 65 -26 86
-30 69 7 217 54 217 14 0 64 -26 216 -113 64 -36 97 -63 123 -98 20 -27 39
-49 43 -49 5 0 28 -17 52 -38 24 -21 65 -50 91 -65 26 -15 55 -41 65 -57 10
-17 34 -41 54 -54 19 -13 51 -38 70 -55 20 -19 44 -31 61 -31 15 0 29 -4 32
-9 4 -5 43 -28 89 -51 45 -22 100 -51 122 -62 22 -12 63 -33 90 -46 28 -14 57
-31 65 -37 8 -7 51 -32 95 -56 78 -41 83 -43 170 -42 106 0 233 31 305 73 25
15 64 34 85 41 21 8 49 29 63 47 15 20 33 32 48 32 59 0 194 84 209 130 3 10
31 37 61 61 50 38 126 126 153 177 13 24 71 62 96 62 29 0 86 -49 102 -88 8
-20 35 -59 59 -88 24 -28 44 -57 44 -65 0 -8 10 -30 22 -49 18 -30 22 -53 24
-155 3 -115 3 -121 -20 -145 -174 -184 -181 -194 -216 -302 -4 -15 -43 -73
-85 -129 -42 -56 -79 -116 -82 -133 -3 -17 -10 -36 -15 -43 -5 -7 -7 -17 -3
-22 10 -17 97 -52 114 -46 33 11 114 96 117 121 1 15 11 36 22 48 11 11 32 47
46 79 14 33 37 68 51 79 14 11 25 26 25 33 0 7 11 27 25 43 14 17 25 32 25 35
0 12 61 65 88 76 35 15 53 8 119 -46 23 -18 59 -41 80 -49 21 -9 79 -43 129
-75 111 -72 137 -75 189 -22 19 20 35 44 35 53 0 24 -35 66 -68 83 -166 85
-249 138 -337 215 -65 57 -76 80 -79 160 -1 37 -7 77 -14 89 -6 12 -9 28 -6
36 2 8 -4 46 -14 86 -19 70 -48 123 -104 189 -16 18 -35 48 -42 67 -11 25 -35
48 -85 80 -38 25 -73 50 -76 55 -3 6 12 31 33 58 46 55 142 236 142 267 0 12
8 29 18 39 11 9 24 35 31 59 7 23 21 65 32 92 22 59 25 109 10 190 -6 33 -11
89 -11 125 0 36 -9 96 -20 134 -11 39 -19 86 -18 107 1 22 -7 47 -19 65 -11
16 -37 63 -58 104 -20 41 -45 92 -56 112 -10 20 -19 42 -19 47 0 6 -15 44 -34
84 -25 52 -48 84 -79 110 -26 21 -47 48 -50 64 -8 35 -55 86 -99 109 -18 9
-46 33 -63 53 -96 116 -156 171 -244 229 -58 37 -106 62 -123 62 -15 0 -43 9
-62 21 -23 13 -43 18 -57 14 -12 -4 -39 0 -62 9 -24 9 -68 15 -102 14 -64 -1
-127 4 -270 22 -49 6 -106 13 -125 15 -19 1 -78 8 -130 15 -112 14 -330 19
-380 9z m260 -169 c19 -6 82 -13 140 -16 58 -3 123 -9 145 -14 75 -17 130 -23
225 -26 160 -4 341 -47 409 -97 82 -60 151 -128 184 -179 24 -39 43 -58 56
-58 12 0 22 -9 26 -22 10 -34 135 -156 166 -163 32 -7 59 -56 59 -105 0 -21
13 -50 40 -87 30 -42 40 -66 40 -94 0 -25 8 -47 25 -67 14 -17 25 -33 25 -38
0 -4 10 -18 22 -31 12 -13 23 -38 24 -56 1 -18 9 -59 18 -92 9 -32 16 -73 16
-90 0 -17 7 -53 16 -79 15 -42 15 -49 1 -64 -9 -10 -13 -27 -10 -44 6 -32 -20
-115 -51 -160 -12 -18 -30 -52 -39 -75 -9 -24 -30 -62 -47 -84 -16 -23 -30
-52 -30 -63 0 -12 -13 -37 -30 -56 -16 -19 -29 -40 -30 -46 0 -14 -73 -75
-122 -102 -51 -29 -167 -62 -216 -62 -23 0 -61 -6 -84 -14 -62 -19 -159 -34
-268 -41 -94 -6 -96 -6 -155 26 -33 18 -79 42 -102 54 -23 13 -54 31 -70 42
-15 11 -49 27 -75 37 -40 15 -86 53 -100 83 -2 4 -17 21 -34 36 -23 20 -44 29
-80 32 -54 5 -62 1 -87 -35 -35 -51 -24 -81 63 -172 52 -56 97 -92 130 -108
27 -13 50 -27 50 -32 0 -11 197 -105 309 -148 l84 -33 156 16 c86 9 184 22
219 28 99 20 99 5 0 -94 -47 -47 -104 -95 -127 -106 -22 -12 -41 -26 -41 -31
0 -5 -12 -13 -27 -16 -16 -4 -33 -11 -39 -15 -6 -5 -48 -21 -95 -37 -46 -16
-111 -39 -144 -52 l-60 -23 -95 41 c-52 23 -104 50 -116 61 -12 11 -50 33 -85
47 -35 15 -82 40 -103 56 -22 15 -47 28 -55 28 -9 0 -30 8 -46 19 -17 10 -47
24 -68 30 -20 7 -73 41 -116 77 -43 35 -82 64 -87 64 -11 0 -46 34 -75 73 -12
15 -47 45 -79 67 -31 21 -69 53 -84 70 -14 18 -59 55 -100 83 -41 29 -106 80
-145 115 -39 34 -78 62 -85 62 -7 0 -25 9 -39 20 -32 25 -131 59 -172 60 -39
0 -67 -20 -97 -67 -20 -33 -23 -51 -23 -143 -1 -94 -3 -109 -24 -137 -23 -31
-25 -62 -8 -138 3 -11 8 -40 12 -65 8 -55 25 -110 40 -130 42 -56 73 -132 85
-210 8 -54 21 -99 36 -122 13 -20 26 -49 30 -65 15 -62 89 -230 116 -263 15
-19 28 -40 28 -47 0 -7 16 -30 35 -52 19 -21 35 -45 35 -52 0 -8 12 -34 27
-59 14 -25 37 -66 49 -92 13 -26 35 -55 49 -64 29 -19 195 -208 195 -222 0
-14 106 -109 168 -150 28 -19 52 -38 52 -43 0 -4 42 -33 94 -63 52 -31 97 -60
101 -66 3 -5 24 -14 46 -20 40 -11 109 -57 215 -143 32 -27 80 -59 105 -72 25
-13 59 -40 75 -60 16 -21 44 -51 63 -69 83 -77 111 -111 139 -169 16 -34 47
-79 67 -101 35 -35 41 -38 77 -32 28 5 49 1 76 -13 20 -11 57 -27 82 -37 76
-30 84 -42 86 -136 2 -46 -2 -109 -7 -142 -9 -49 -22 -338 -22 -456 0 -19 -6
-87 -13 -150 -14 -114 -14 -117 12 -220 19 -79 26 -128 25 -197 -1 -51 3 -139
9 -196 10 -103 10 -106 -15 -153 -14 -26 -25 -59 -25 -73 0 -36 -33 -87 -68
-105 -39 -20 -219 -16 -250 6 -25 17 -109 127 -146 191 -14 24 -26 57 -26 72
0 16 -6 36 -14 44 -28 32 -86 157 -86 186 0 17 -6 39 -13 50 -8 11 -22 56 -31
100 -10 44 -25 100 -33 125 -9 26 -17 91 -19 157 -1 62 -8 121 -14 133 -6 11
-10 63 -9 118 2 97 -11 218 -30 280 -6 20 -6 43 -1 56 5 13 5 55 -1 97 -5 41
-8 85 -7 99 5 76 -2 102 -37 133 -28 25 -35 38 -35 69 0 34 -4 40 -52 71 -29
19 -60 42 -68 51 -8 10 -40 36 -72 57 -31 22 -74 59 -95 84 -22 27 -54 51 -78
61 -23 8 -68 40 -101 70 -32 30 -79 69 -104 86 -25 17 -73 59 -108 92 -35 34
-88 78 -118 98 -31 21 -76 56 -102 78 -25 22 -73 55 -106 71 -133 67 -171 94
-243 171 -20 20 -48 40 -64 43 -17 4 -37 19 -47 33 -23 37 -38 48 -107 83 -64
32 -131 90 -145 125 -5 12 -28 35 -51 50 -28 19 -46 41 -54 64 -7 21 -26 45
-46 58 -38 26 -74 78 -91 135 -6 21 -22 50 -36 64 -14 15 -31 43 -39 62 -8 20
-24 45 -34 57 -29 31 -59 95 -59 124 0 45 -33 164 -67 237 -18 40 -33 83 -33
95 -1 13 -7 34 -15 48 -8 14 -14 47 -15 73 0 27 -5 57 -10 68 -10 17 -21 98
-37 274 -12 127 -7 240 23 514 3 30 13 65 21 78 11 16 14 35 9 61 -9 57 47
189 98 231 10 8 23 28 30 45 7 17 25 44 40 59 14 15 26 32 26 36 0 5 13 11 30
14 17 4 46 25 69 49 56 61 128 144 138 161 4 7 29 26 55 41 26 15 86 70 134
122 76 83 90 94 120 94 25 0 41 8 61 31 47 54 66 69 97 78 17 6 49 17 71 25
22 8 54 15 71 16 31 0 198 77 243 112 13 10 34 18 46 18 12 0 52 16 89 35 37
19 80 35 94 35 15 0 43 5 62 11 52 16 192 28 218 18 15 -6 34 -4 55 5 38 17
138 20 187 6z m9993 -4251 c29 -31 28 -30 32 -234 1 -33 7 -78 15 -100 7 -22
14 -76 15 -120 2 -44 7 -100 13 -125 6 -25 13 -81 17 -125 4 -44 16 -107 26
-139 10 -33 19 -71 19 -85 0 -14 6 -46 14 -71 20 -61 53 -214 60 -275 4 -27
15 -62 26 -77 24 -33 25 -51 4 -69 -15 -12 -40 -18 -154 -34 -25 -4 -61 -13
-80 -20 -46 -18 -104 -25 -120 -15 -9 6 -13 54 -14 191 -2 137 -6 190 -16 209
-8 14 -17 59 -21 100 -9 113 -39 291 -55 325 -7 17 -13 53 -12 80 1 47 -18
187 -42 315 -6 30 -15 78 -19 105 -4 28 -15 67 -24 89 -23 52 -21 73 6 87 38
21 79 26 182 22 95 -5 101 -6 128 -34z m-7518 -169 c33 -16 75 -30 93 -30 83
0 162 -75 162 -152 0 -32 8 -49 41 -86 l40 -46 -4 -76 c-3 -41 -8 -100 -12
-130 -7 -59 -8 -436 -2 -585 2 -49 8 -99 14 -110 6 -12 9 -75 6 -160 -4 -138
11 -352 28 -410 5 -16 13 -91 19 -164 11 -154 11 -154 -62 -145 -32 5 -60 1
-87 -10 -22 -8 -71 -16 -108 -16 -189 -3 -210 1 -273 52 -19 15 -44 28 -56 28
-24 0 -104 54 -104 71 0 6 -11 25 -25 43 -30 40 -75 156 -75 196 0 29 -8 68
-31 160 -13 50 -28 196 -34 335 -9 182 -13 232 -29 315 -8 47 -16 103 -16 125
0 22 -7 51 -14 65 -11 19 -12 30 -3 45 16 30 25 117 15 147 -7 19 -5 34 6 56
12 23 13 36 4 64 -9 30 -6 48 15 114 15 44 31 98 37 122 13 52 34 66 240 167
30 15 62 31 70 35 30 17 86 10 145 -20z m-5018 -13 c60 -28 91 -52 124 -97 21
-28 25 -43 21 -78 -6 -56 -29 -72 -107 -72 -53 0 -69 5 -135 44 -57 33 -84 57
-112 98 -38 55 -49 103 -27 125 19 19 181 6 236 -20z m5849 -3 c26 -15 50 -40
60 -60 9 -19 20 -34 25 -34 14 0 88 -135 98 -179 5 -22 22 -62 39 -88 59 -96
64 -112 69 -238 2 -71 10 -136 19 -159 8 -21 17 -79 19 -130 3 -50 8 -116 11
-146 4 -30 9 -113 10 -185 2 -71 6 -150 8 -175 2 -25 7 -81 10 -125 3 -44 13
-127 22 -185 9 -58 20 -145 23 -195 4 -53 14 -102 23 -120 31 -57 68 -137 68
-147 0 -15 90 -148 100 -148 4 0 54 -46 111 -103 119 -118 199 -167 389 -236
25 -9 62 -28 81 -43 20 -16 42 -28 49 -28 13 0 154 -60 201 -85 58 -32 177
-47 313 -40 72 3 174 8 226 10 52 2 131 8 174 14 87 11 116 3 116 -29 0 -24
-69 -70 -123 -82 -21 -4 -57 -17 -80 -27 -116 -53 -187 -81 -206 -81 -11 0
-32 -5 -48 -11 -40 -17 -113 -29 -223 -39 -252 -21 -338 -31 -374 -39 -30 -7
-46 -6 -67 5 -16 8 -36 14 -45 14 -9 0 -53 16 -98 35 -45 19 -109 39 -143 44
-34 5 -74 16 -90 24 -15 8 -44 17 -64 21 -20 4 -56 21 -80 39 -49 35 -99 63
-236 131 -51 26 -93 50 -93 55 0 5 -19 16 -42 26 -46 18 -134 91 -238 197 -93
95 -116 126 -145 199 -15 35 -37 87 -51 114 -26 54 -46 167 -64 375 -6 70 -19
147 -30 175 -14 40 -18 79 -18 185 -1 202 -9 335 -22 359 -24 45 -10 621 17
663 10 17 23 114 28 219 4 55 13 106 28 145 21 54 28 62 88 97 76 44 96 45
155 11z m-1840 -16 c9 -6 172 -171 277 -280 20 -21 37 -44 38 -51 5 -95 4
-154 -2 -162 -4 -6 -4 -78 1 -160 4 -82 6 -155 3 -162 -3 -7 0 -48 6 -91 6
-42 15 -120 21 -172 5 -52 12 -113 15 -135 3 -22 5 -75 5 -117 -1 -43 6 -105
14 -138 9 -34 16 -75 16 -92 0 -70 32 -244 51 -273 10 -16 26 -46 35 -65 9
-19 23 -43 31 -52 9 -10 13 -24 10 -32 -10 -25 -72 -65 -140 -90 -36 -13 -78
-33 -93 -45 -35 -27 -64 -27 -122 3 -26 13 -66 29 -90 35 -71 20 -152 75 -254
173 -95 91 -97 94 -116 168 -11 41 -21 89 -21 105 0 35 -26 219 -40 285 -6 25
-8 72 -5 105 3 33 8 103 10 155 3 52 9 154 14 225 5 72 9 138 9 148 0 9 -1 41
-1 70 -2 131 5 264 16 282 11 17 26 77 42 161 5 29 94 186 113 201 16 13 137
13 157 1z m-3161 -23 c33 -14 69 -25 81 -25 11 0 45 -17 75 -38 73 -51 77 -78
18 -132 -24 -21 -69 -49 -101 -61 -53 -19 -63 -20 -106 -9 -115 32 -137 60
-122 157 15 94 18 101 48 118 35 19 37 19 107 -10z m9255 -165 c22 -11 45 -20
53 -20 7 0 41 -13 75 -30 34 -16 79 -30 99 -30 19 0 72 -12 115 -26 71 -24 85
-26 131 -16 89 19 177 -6 177 -49 0 -27 -25 -36 -125 -44 -124 -11 -138 -12
-235 -25 -47 -6 -108 -12 -135 -14 -67 -5 -129 -22 -190 -50 -27 -13 -76 -36
-109 -52 -54 -26 -67 -27 -195 -28 -151 0 -193 11 -199 53 -5 31 15 79 50 119
15 18 28 38 28 45 0 7 20 34 44 62 39 44 47 49 82 48 22 -1 88 15 154 37 63
21 121 39 128 39 7 1 30 -8 52 -19z m834 -392 c34 -34 72 -128 62 -153 -4 -11
-21 -15 -61 -15 -30 0 -81 -9 -112 -20 -36 -12 -111 -23 -198 -30 -77 -6 -169
-15 -205 -20 -153 -23 -224 -29 -285 -23 -51 5 -78 1 -135 -17 -56 -18 -83
-21 -131 -16 -39 4 -83 1 -122 -8 -135 -31 -173 -36 -230 -27 -32 4 -62 12
-68 18 -18 18 -16 116 4 146 20 31 50 34 112 13 35 -12 44 -12 69 1 23 12 47
14 106 9 166 -16 315 3 373 47 39 30 132 65 195 74 26 3 110 7 187 8 77 1 172
8 210 15 62 12 146 25 184 29 7 0 28 -14 45 -31z m1225 -38 c14 -7 20 -27 25
-81 4 -40 14 -89 21 -108 8 -20 13 -49 13 -66 0 -16 3 -57 7 -91 9 -77 0 -82
-96 -53 -77 23 -210 30 -319 15 -70 -9 -98 -10 -145 -7 -16 1 -57 -5 -90 -15
-33 -9 -121 -29 -195 -44 -174 -36 -176 -35 -171 76 4 92 12 112 49 120 15 3
38 9 52 14 60 18 137 33 168 31 17 -1 42 4 54 10 12 6 42 13 67 14 25 1 71 8
101 15 30 8 84 15 120 15 41 2 93 12 141 29 66 24 83 35 123 82 52 59 50 58
75 44z m-1176 -322 c14 -11 15 -25 9 -96 -5 -53 -13 -88 -23 -98 -15 -15 -376
-73 -584 -94 -174 -18 -447 -53 -565 -73 -47 -8 -115 -12 -153 -10 -57 5 -70
9 -87 31 -11 13 -20 34 -20 46 0 12 -15 45 -34 74 -37 58 -56 153 -35 178 15
18 80 18 161 0 80 -18 312 -16 347 3 15 9 38 11 65 7 22 -4 131 -9 241 -12
198 -5 296 1 480 32 50 8 106 16 125 18 19 1 40 4 46 4 5 1 18 -4 27 -10z
m-98 -402 c17 -13 16 -16 -23 -76 -45 -69 -235 -250 -295 -281 -21 -11 -70
-28 -110 -38 -40 -10 -86 -25 -104 -34 -42 -22 -60 -21 -178 8 -121 31 -191
65 -299 147 -84 64 -155 153 -138 170 13 13 152 27 369 37 100 5 187 12 193
16 6 4 80 9 163 10 94 3 175 10 212 19 32 9 75 16 95 17 19 1 46 5 60 9 35 11
34 11 55 -4z m-10707 -548 c15 -15 16 -54 2 -63 -29 -18 -74 34 -55 64 8 15
38 14 53 -1z m-133 -73 c44 -48 56 -55 88 -55 36 0 37 -1 37 -39 0 -48 -19
-65 -64 -58 -48 8 -116 53 -116 77 0 11 -13 35 -30 53 -33 38 -36 47 -18 65
23 23 52 12 103 -43z m967 -10 c9 -4 24 -17 32 -30 20 -31 117 -95 144 -95 23
0 52 -25 52 -44 0 -23 -40 -91 -77 -129 -49 -50 -82 -67 -134 -67 -33 0 -51 7
-86 36 -24 20 -52 53 -63 73 -10 21 -25 43 -33 49 -10 8 -14 36 -15 91 -1 78
0 81 30 106 26 22 37 25 82 21 28 -2 59 -7 68 -11z"/>
<path d="M4302 13134 c-18 -8 -36 -22 -39 -32 -3 -9 -16 -30 -28 -47 -37 -51
-50 -97 -36 -135 6 -18 11 -43 11 -56 0 -34 30 -45 97 -38 113 13 150 49 165
158 13 102 7 123 -45 146 -49 23 -80 24 -125 4z"/>
<path d="M3358 13099 c-18 -7 -39 -32 -63 -75 -34 -60 -36 -67 -21 -83 9 -10
16 -26 16 -36 0 -23 37 -85 64 -107 27 -23 54 -22 109 1 83 36 110 108 67 179
-11 18 -20 40 -20 48 0 9 -15 31 -34 50 -36 36 -66 42 -118 23z"/>
<path d="M6911 13109 c-24 -4 -49 -13 -56 -19 -7 -5 -37 -18 -66 -29 -30 -10
-78 -30 -106 -45 -29 -14 -66 -26 -82 -26 -17 0 -53 -9 -80 -20 -46 -18 -53
-18 -100 -4 -28 8 -83 30 -123 49 -40 19 -79 35 -86 35 -21 0 -72 -56 -72 -78
0 -28 53 -70 98 -78 20 -3 58 -19 83 -35 25 -16 57 -29 70 -29 13 0 51 -14 84
-30 33 -17 64 -30 71 -30 6 0 21 11 34 25 21 22 30 25 66 19 31 -4 54 0 92 16
85 36 83 40 83 -160 0 -24 -5 -56 -11 -71 -8 -19 -8 -43 -1 -82 5 -30 7 -71 4
-91 -3 -19 0 -79 7 -133 17 -128 22 -186 21 -251 -2 -68 11 -92 49 -92 18 0
37 -8 47 -20 10 -11 30 -20 46 -20 17 0 45 -12 67 -30 21 -16 76 -48 123 -71
77 -37 94 -41 174 -44 48 -2 96 1 106 7 43 23 155 120 167 145 8 16 22 39 31
53 26 40 30 118 8 162 -22 43 -92 111 -149 146 -108 64 -284 81 -410 40 -41
-13 -83 -22 -92 -20 -27 5 -32 43 -30 195 2 145 3 177 1 230 -2 50 25 141 59
194 16 26 36 68 43 92 l13 44 -37 33 c-39 36 -61 40 -146 23z m486 -980 c46
-23 87 -47 90 -55 3 -7 -8 -35 -24 -60 -35 -57 -123 -109 -166 -99 -15 4 -58
35 -95 69 -38 33 -84 66 -103 71 -49 14 -47 36 7 78 45 36 50 37 127 37 73 0
87 -3 164 -41z"/>
<path d="M9904 12335 l-141 -72 -61 7 c-33 4 -65 11 -71 15 -6 3 -28 1 -49 -6
-20 -7 -71 -20 -112 -29 -70 -15 -78 -15 -130 1 -30 9 -81 31 -114 48 -52 28
-67 31 -146 31 -49 0 -96 -3 -105 -6 -24 -9 -45 -58 -45 -102 0 -51 -23 -79
-109 -137 -53 -35 -83 -48 -128 -55 -111 -15 -158 -50 -170 -125 -4 -25 0 -38
16 -54 26 -26 53 -26 110 -1 27 13 62 20 91 19 55 -2 161 42 217 91 83 73 87
54 79 -450 -2 -74 2 -144 7 -155 12 -24 10 -108 -4 -188 -11 -64 -5 -81 34
-91 12 -3 76 -34 142 -70 137 -73 187 -89 265 -87 73 2 110 15 196 68 93 57
105 85 107 247 1 112 0 117 -32 185 -38 77 -57 91 -129 91 -111 0 -194 -22
-318 -81 -88 -43 -94 -38 -95 80 -3 409 0 563 12 578 15 18 82 12 127 -10 30
-16 168 -15 199 1 10 5 38 8 63 6 63 -5 266 14 327 30 28 8 62 21 74 30 36 25
68 20 80 -11 6 -15 8 -35 6 -44 -4 -16 8 -143 33 -343 5 -43 7 -83 4 -87 -3
-5 0 -34 5 -64 9 -47 7 -62 -8 -98 -23 -53 -28 -105 -17 -171 7 -40 14 -52 42
-68 19 -11 34 -24 34 -29 0 -6 17 -17 37 -26 21 -8 51 -26 66 -39 16 -13 41
-27 55 -31 15 -3 43 -17 62 -30 48 -32 97 -30 178 8 79 36 111 70 157 164 38
78 47 156 26 235 -17 65 -37 98 -100 163 -101 105 -144 113 -212 37 -24 -27
-55 -63 -68 -80 -19 -25 -30 -30 -55 -28 -29 3 -31 6 -34 48 -2 25 -3 74 -3
110 1 36 -4 101 -9 145 -6 44 -13 125 -15 180 -5 138 -18 221 -39 244 -24 27
-139 81 -167 79 -13 -1 -87 -34 -165 -73z m662 -860 c19 -28 13 -67 -19 -137
-35 -76 -57 -79 -150 -21 l-38 24 72 79 c79 88 106 99 135 55z m-1002 -161
c12 -11 16 -36 16 -90 l0 -74 -39 -25 c-55 -37 -99 -41 -155 -17 -25 12 -46
27 -46 35 0 7 14 23 30 36 26 19 30 27 28 64 l-3 42 65 21 c80 27 85 28 104 8z"/>
<path d="M14442 12380 c-94 -43 -184 -146 -245 -282 -20 -44 -32 -59 -53 -64
-34 -9 -181 2 -216 15 -30 11 -214 16 -318 9 -85 -7 -184 -33 -237 -64 -23
-13 -53 -24 -66 -24 -13 0 -35 -9 -48 -19 -14 -10 -42 -26 -63 -35 -23 -10
-80 -57 -135 -112 -52 -53 -112 -104 -133 -115 -51 -26 -106 -76 -125 -113 -8
-17 -41 -58 -73 -91 -34 -35 -74 -90 -95 -132 -26 -50 -52 -85 -90 -118 -44
-37 -58 -57 -72 -101 -12 -39 -26 -62 -48 -77 -16 -12 -61 -55 -100 -96 -38
-41 -117 -122 -175 -181 -58 -58 -133 -138 -168 -177 -69 -78 -165 -148 -215
-158 -18 -4 -50 -13 -72 -21 -22 -7 -89 -21 -149 -29 -86 -12 -116 -13 -138
-4 -29 12 -38 11 -153 -15 -94 -22 -203 -20 -320 4 -53 11 -114 20 -134 20
-22 0 -50 10 -73 25 -25 17 -51 25 -80 25 -59 1 -144 22 -263 66 -66 24 -113
36 -140 34 -70 -4 -108 -3 -185 8 -53 8 -109 8 -195 0 -66 -6 -149 -12 -185
-13 -77 -2 -203 -21 -228 -35 -9 -5 -82 -39 -162 -75 -80 -37 -158 -79 -175
-94 -16 -16 -44 -36 -62 -47 -18 -10 -37 -31 -44 -46 -6 -16 -27 -41 -45 -56
-26 -21 -39 -47 -63 -122 -18 -52 -47 -126 -65 -165 -42 -87 -66 -161 -66
-200 0 -39 -22 -121 -43 -162 -21 -39 -22 -121 -2 -147 10 -13 13 -32 9 -57
-4 -21 -3 -77 1 -124 8 -96 20 -112 92 -122 31 -4 42 0 62 21 l24 25 -12 160
c-12 154 -11 161 8 200 12 23 21 60 21 85 0 29 10 62 28 97 16 30 48 115 71
189 36 113 49 140 76 165 19 17 41 47 49 68 8 20 19 37 23 37 4 0 42 27 83 60
41 33 78 60 82 60 4 0 33 16 66 35 89 52 173 67 380 67 427 0 458 -3 524 -55
34 -28 44 -30 145 -34 93 -4 113 -8 143 -28 44 -30 149 -65 193 -65 39 0 137
-16 187 -30 23 -7 57 -7 100 -1 217 32 225 33 277 21 43 -9 61 -8 105 5 29 9
88 20 130 25 42 5 94 18 115 28 21 11 64 23 96 27 63 8 135 46 227 121 81 67
258 243 310 308 41 54 220 227 240 234 6 2 10 9 10 15 0 16 47 84 100 143 51
58 111 150 134 206 9 20 32 49 51 64 20 15 43 40 51 55 19 38 212 231 249 249
17 8 51 33 76 55 31 27 70 48 120 64 41 13 99 38 129 56 52 31 62 33 178 38
101 4 141 1 220 -15 89 -19 190 -25 251 -17 27 4 24 10 90 -133 23 -47 41 -93
41 -102 0 -8 11 -41 25 -72 14 -31 25 -62 25 -68 0 -6 9 -28 20 -49 11 -20 20
-47 20 -59 1 -13 7 -34 15 -48 8 -14 14 -36 15 -48 0 -13 9 -37 21 -53 16 -23
24 -60 36 -162 23 -213 37 -637 21 -677 -6 -14 -10 -46 -9 -72 2 -41 -6 -101
-34 -273 -3 -16 -16 -52 -29 -80 -13 -27 -37 -80 -55 -117 -17 -37 -31 -76
-31 -87 0 -27 53 -87 88 -99 29 -10 72 0 72 17 0 5 30 43 68 83 37 40 78 91
91 113 14 22 43 61 65 86 23 25 64 74 91 109 28 34 100 113 160 175 114 115
162 172 185 215 14 26 73 90 180 193 39 37 107 118 172 206 18 24 51 62 74 85
68 68 123 152 185 281 55 114 59 129 59 192 0 37 0 95 1 128 1 86 -14 185 -34
222 -10 18 -42 70 -72 115 -30 45 -58 97 -61 116 -9 48 -42 70 -247 168 -43
20 -94 50 -114 65 -20 16 -40 29 -45 29 -4 0 -28 18 -52 40 -37 34 -53 42 -98
46 -29 3 -78 14 -108 24 -93 30 -229 51 -365 55 -114 4 -135 2 -173 -15z m413
-219 c28 -11 85 -26 128 -35 85 -18 158 -49 229 -98 26 -18 93 -62 148 -98 56
-35 106 -74 112 -85 6 -11 18 -29 28 -40 10 -11 42 -67 72 -125 30 -58 60
-114 67 -126 11 -17 11 -25 -3 -52 -9 -17 -16 -52 -16 -77 0 -61 -77 -258
-126 -322 -19 -26 -83 -100 -142 -165 -58 -66 -118 -136 -132 -156 -14 -21
-69 -82 -124 -137 -54 -55 -106 -111 -115 -125 -43 -66 -136 -172 -180 -205
-27 -19 -51 -39 -53 -43 -2 -4 -16 -17 -31 -29 -53 -41 -57 -30 -55 166 2 248
-7 525 -21 599 -7 34 -9 67 -6 72 7 11 -30 140 -53 185 -8 17 -23 59 -33 95
-25 92 -38 128 -66 184 -14 27 -32 75 -39 105 -8 31 -33 93 -54 138 -43 88
-51 148 -25 193 8 14 14 35 15 48 0 25 71 116 105 135 53 30 290 29 370 -2z"/>
<path d="M8770 4759 c-459 -57 -744 -352 -820 -849 -17 -109 -14 -376 5 -503
63 -424 253 -668 590 -758 106 -28 349 -31 470 -5 192 42 327 110 445 226 87
85 125 138 180 248 85 171 120 345 120 597 0 587 -218 944 -628 1030 -89 19
-269 26 -362 14z m259 -234 c265 -84 418 -315 453 -683 24 -253 -31 -613 -120
-788 -25 -50 -116 -135 -174 -163 -84 -40 -166 -55 -298 -55 -175 0 -288 35
-408 127 -188 144 -286 435 -268 797 12 234 59 454 125 575 62 116 178 188
346 215 98 15 252 4 344 -25z"/>
<path d="M13790 4764 c-475 -56 -751 -346 -820 -864 -27 -198 -8 -512 41 -691
50 -186 166 -359 300 -450 243 -165 618 -178 1027 -38 120 42 173 65 183 81
10 15 -35 149 -53 159 -10 6 -36 2 -74 -12 -271 -93 -528 -126 -681 -86 -192
50 -339 190 -412 391 -51 143 -66 239 -65 441 0 204 24 373 75 530 37 117 74
174 148 229 95 70 160 88 331 93 175 6 260 -9 370 -64 l75 -38 27 -145 c20
-101 33 -149 45 -157 23 -18 167 -17 181 0 13 16 57 430 48 453 -13 33 -227
119 -368 148 -77 16 -310 28 -378 20z"/>
<path d="M352 4728 c-7 -7 -12 -39 -12 -75 0 -73 13 -87 95 -99 73 -10 121
-32 134 -60 16 -35 16 -1563 0 -1598 -13 -29 -63 -51 -134 -61 -82 -12 -95
-25 -95 -98 0 -36 5 -68 12 -75 17 -17 739 -17 756 0 7 7 12 39 12 73 0 82
-11 91 -122 100 -97 8 -146 27 -165 65 -18 35 -18 531 -1 548 8 8 50 12 122
12 136 0 220 12 322 45 112 35 197 88 290 181 68 67 89 96 127 175 55 113 77
213 77 346 -1 272 -117 436 -355 497 -109 28 -262 36 -659 36 -292 0 -395 -3
-404 -12z m928 -219 c50 -17 78 -36 121 -78 78 -79 94 -128 93 -291 -2 -203
-34 -302 -124 -383 -84 -76 -134 -90 -343 -95 -131 -3 -181 -1 -192 8 -13 11
-15 73 -15 429 0 320 3 420 13 430 9 10 54 12 197 8 160 -4 194 -8 250 -28z"/>
<path d="M1822 4728 c-17 -17 -16 -133 2 -147 8 -7 42 -16 77 -22 76 -12 117
-31 152 -67 14 -15 158 -270 321 -567 l296 -539 0 -233 c0 -152 -4 -241 -11
-257 -14 -29 -63 -51 -139 -61 -87 -11 -100 -24 -100 -98 0 -36 5 -68 12 -75
17 -17 699 -17 716 0 18 18 16 133 -3 148 -9 7 -50 19 -93 26 -83 15 -123 37
-133 75 -4 13 -7 126 -8 250 l-1 226 281 499 c155 274 299 529 320 565 42 73
74 95 159 108 66 11 80 24 80 77 0 36 3 44 18 44 17 0 19 -15 25 -206 4 -131
11 -212 18 -220 16 -20 142 -19 158 0 7 8 17 61 22 118 12 128 13 130 48 151
25 15 59 17 243 17 153 0 217 -3 226 -12 9 -9 12 -200 11 -803 -1 -434 -4
-801 -8 -814 -10 -38 -50 -60 -133 -75 -43 -7 -84 -19 -93 -26 -19 -15 -21
-130 -3 -148 17 -17 699 -17 716 0 7 7 12 39 12 75 0 74 -13 87 -100 98 -76
10 -125 32 -139 61 -16 37 -16 1615 1 1632 15 15 414 17 452 2 43 -16 55 -47
62 -163 6 -89 10 -110 25 -117 26 -15 145 -12 157 3 16 20 27 453 12 472 -11
13 -116 15 -846 15 -544 0 -835 -3 -839 -10 -3 -5 -17 -10 -30 -10 -13 0 -27
5 -30 10 -10 15 -668 13 -683 -2 -18 -18 -16 -133 2 -148 8 -6 48 -16 88 -21
124 -16 158 -40 138 -94 -6 -15 -105 -207 -222 -427 -178 -336 -214 -399 -231
-396 -14 2 -70 94 -209 343 -244 438 -271 492 -264 520 7 27 63 50 145 60 85
10 91 16 91 88 0 36 -5 68 -12 75 -17 17 -739 17 -756 0z"/>
<path d="M5702 4728 c-7 -7 -12 -39 -12 -75 0 -73 13 -87 95 -99 73 -10 121
-32 134 -60 8 -18 11 -243 11 -799 0 -556 -3 -781 -11 -799 -13 -28 -61 -50
-134 -60 -82 -12 -95 -26 -95 -99 0 -36 5 -68 12 -75 17 -17 689 -17 706 0 7
7 12 39 12 73 0 76 -13 90 -95 100 -88 10 -132 31 -144 67 -16 46 -15 710 1
726 17 17 949 17 966 0 17 -17 17 -696 1 -732 -14 -29 -63 -51 -139 -61 -87
-11 -100 -24 -100 -98 0 -36 5 -68 12 -75 17 -17 689 -17 706 0 7 7 12 39 12
75 0 73 -13 87 -95 99 -73 10 -121 32 -134 60 -16 35 -16 1563 0 1598 14 29
63 51 139 61 77 10 90 24 90 100 0 34 -5 66 -12 73 -17 17 -689 17 -706 0 -7
-7 -12 -39 -12 -73 0 -76 13 -90 95 -100 80 -9 130 -31 144 -61 16 -36 15
-616 -1 -632 -17 -17 -949 -17 -966 0 -16 16 -17 581 -1 626 12 36 56 57 144
67 82 10 95 24 95 100 0 34 -5 66 -12 73 -17 17 -689 17 -706 0z"/>
<path d="M10072 4728 c-17 -17 -16 -132 1 -147 8 -6 47 -15 87 -21 83 -12 116
-29 130 -66 15 -38 13 -1566 -1 -1598 -13 -29 -63 -51 -134 -61 -82 -12 -95
-25 -95 -98 0 -36 5 -68 12 -75 17 -17 679 -17 696 0 7 7 12 39 12 75 0 73
-13 87 -95 99 -87 12 -123 31 -135 73 -7 24 -10 251 -8 681 3 564 5 645 18
647 10 2 178 -253 515 -783 275 -432 507 -790 517 -795 26 -14 222 -11 236 3
9 9 12 227 12 919 0 499 3 915 6 924 10 25 61 47 131 55 35 5 70 14 78 20 19
15 21 130 3 148 -17 17 -669 17 -686 0 -18 -18 -16 -133 3 -148 8 -6 43 -15
78 -20 70 -8 121 -30 131 -55 3 -9 6 -316 6 -681 0 -638 -1 -664 -18 -664 -14
0 -151 207 -508 768 -269 422 -499 777 -511 790 -22 22 -27 22 -246 22 -160 0
-226 -3 -235 -12z"/>
<path d="M14901 4731 c-12 -8 -13 -46 -7 -232 4 -136 11 -228 18 -236 14 -18
151 -18 166 0 6 7 14 48 17 92 4 44 11 97 16 117 17 68 16 68 477 68 316 0
412 -3 420 -12 7 -10 -143 -228 -560 -813 -314 -440 -579 -813 -589 -830 -15
-24 -19 -49 -19 -121 0 -57 4 -94 12 -102 17 -17 1499 -17 1516 0 18 18 5 445
-14 476 -13 20 -23 22 -88 22 -47 0 -77 -5 -83 -12 -6 -7 -15 -64 -20 -127 -9
-106 -12 -116 -37 -138 l-27 -23 -470 0 c-386 0 -471 2 -475 14 -4 11 217 326
1078 1535 l88 124 0 92 c0 57 -4 95 -12 103 -15 15 -1384 17 -1407 3z"/>
<path d="M12432 2985 c-82 -25 -112 -74 -112 -180 0 -131 41 -170 175 -169 99
1 151 22 171 70 18 44 18 175 -1 220 -27 64 -132 91 -233 59z"/>
</g>
</svg>
