<?xml version="1.0" encoding="UTF-8" standalone="no"?>
<svg
   xmlns:dc="http://purl.org/dc/elements/1.1/"
   xmlns:cc="http://creativecommons.org/ns#"
   xmlns:rdf="http://www.w3.org/1999/02/22-rdf-syntax-ns#"
   xmlns:svg="http://www.w3.org/2000/svg"
   xmlns="http://www.w3.org/2000/svg"
   xmlns:xlink="http://www.w3.org/1999/xlink"
   xmlns:sodipodi="http://sodipodi.sourceforge.net/DTD/sodipodi-0.dtd"
   xmlns:inkscape="http://www.inkscape.org/namespaces/inkscape"
   version="1.1"
   x="0px"
   y="0px"
   width="784"
   height="295"
   viewBox="0 0 784 295"
   enable-background="new 0 0 841.891 595.28"
   xml:space="preserve"
   inkscape:version="0.91 r13725"
   id="svg2"
   sodipodi:docname="event.svg"
   inkscape:export-filename="C:\work\_pyvec\resources\Design\PyCon CZ\2017\facebook\event-logo-grid.png"
   inkscape:export-xdpi="180"
   inkscape:export-ydpi="180"><metadata
     id="metadata18"><rdf:RDF><cc:Work
         rdf:about=""><dc:format>image/svg+xml</dc:format><dc:type
           rdf:resource="http://purl.org/dc/dcmitype/StillImage" /><dc:title></dc:title></cc:Work></rdf:RDF></metadata><defs
     id="defs16"><pattern
       id="bottom-8-1"
       width="83.2"
       height="48"
       patternUnits="userSpaceOnUse"><path
         d="M 83.2,48 0,0 M 0,48 83.2,0"
         id="path4160-2-3"
         inkscape:connector-curvature="0"
         style="fill:none;stroke:#b800cc;stroke-width:0.5;stroke-linecap:square" /></pattern><mask
       maskUnits="userSpaceOnUse"
       id="mask5495-6-4"><g
         id="g5497-4-9"><rect
           id="rect5499-6-5"
           height="80"
           width="5715.0845"
           style="fill:url(#pattern5436-3-9)"
           x="-3928.7131"
           y="-2978.7522" /><rect
           y="-2918.3523"
           x="-3645.8704"
           height="3078.7522"
           width="5322.7344"
           id="rect5501-0-2"
           style="fill:#ffffff;fill-opacity:1;fill-rule:evenodd;stroke:none;stroke-width:1px;stroke-linecap:butt;stroke-linejoin:miter;stroke-opacity:1" /></g></mask><pattern
       inkscape:collect="always"
       xlink:href="#top-5-4-2"
       id="pattern5436-3-9"
       patternTransform="matrix(5715.0846,0,0,1,-3928.7128,-2978.7523)" /><pattern
       id="top-5-4-2"
       width="80"
       height="80"
       patternUnits="userSpaceOnUse"><path
         fill="white"
         d="M0 48L83.2 0m0 48L0 0m0 26v2.2h83.14V26H0zm0 28.9v4.3h83.14v-4.3H0zm0-5.8v4.1h83.14v-4.06H0zm0-5.8v3.6h83.14v-3.58H0zm0-5.8v3.2h83.14v-3.2H0zm0-5.7v2.7h83.14v-2.7H0zm0-11.58V22h83.14v-1.8H0zm0-5.72v1.2h83.14v-1.2H0zm0-5.8v.8h83.14v-.8H0zm0-6v.5h83.14v-.5H0z"
         id="path4157-8-6" /></pattern><pattern
       inkscape:collect="always"
       xlink:href="#pattern5433"
       id="pattern5462"
       patternTransform="translate(-3311.972,-2690.6166)" /><pattern
       inkscape:collect="always"
       xlink:href="#bottom-8-1-0"
       id="pattern5433"
       patternTransform="translate(-3311.972,-754.62299)" /><pattern
       id="bottom-8-1-0"
       width="83.2"
       height="48"
       patternUnits="userSpaceOnUse"><path
         d="M 83.2,48 0,0 M 0,48 83.2,0"
         id="path4160-2-3-8"
         inkscape:connector-curvature="0"
         style="fill:none;stroke:#b800cc;stroke-width:0.5;stroke-linecap:square" /></pattern><mask
       maskUnits="userSpaceOnUse"
       id="mask5495-6-4-3"><g
         id="g5497-4-9-8"><rect
           id="rect5499-6-5-4"
           height="80"
           width="5715.0845"
           style="fill:url(#pattern5436-3-9-8)"
           x="-3928.7131"
           y="-2978.7522" /><rect
           y="-2918.3523"
           x="-3645.8704"
           height="3078.7522"
           width="5322.7344"
           id="rect5501-0-2-9"
           style="fill:#ffffff;fill-opacity:1;fill-rule:evenodd;stroke:none;stroke-width:1px;stroke-linecap:butt;stroke-linejoin:miter;stroke-opacity:1" /></g></mask><pattern
       inkscape:collect="always"
       xlink:href="#top-5-4-2-1"
       id="pattern5436-3-9-8"
       patternTransform="matrix(5715.0846,0,0,1,-3928.7128,-2978.7523)" /><pattern
       id="top-5-4-2-1"
       width="80"
       height="80"
       patternUnits="userSpaceOnUse"><path
         fill="white"
         d="M0 48L83.2 0m0 48L0 0m0 26v2.2h83.14V26H0zm0 28.9v4.3h83.14v-4.3H0zm0-5.8v4.1h83.14v-4.06H0zm0-5.8v3.6h83.14v-3.58H0zm0-5.8v3.2h83.14v-3.2H0zm0-5.7v2.7h83.14v-2.7H0zm0-11.58V22h83.14v-1.8H0zm0-5.72v1.2h83.14v-1.2H0zm0-5.8v.8h83.14v-.8H0zm0-6v.5h83.14v-.5H0z"
         id="path4157-8-6-6" /></pattern></defs><sodipodi:namedview
     pagecolor="#ffffff"
     bordercolor="#666666"
     borderopacity="1"
     objecttolerance="10"
     gridtolerance="10"
     guidetolerance="10"
     inkscape:pageopacity="0"
     inkscape:pageshadow="2"
     inkscape:window-width="1920"
     inkscape:window-height="1177"
     id="namedview284"
     showgrid="false"
     inkscape:zoom="0.82000001"
     inkscape:cx="355.20206"
     inkscape:cy="256.03339"
     inkscape:window-x="-8"
     inkscape:window-y="-8"
     inkscape:window-maximized="1"
     inkscape:current-layer="layer2"
     inkscape:snap-path-clip="false"
     showguides="true"
     inkscape:guide-bbox="true"
     inkscape:snap-intersection-paths="true"
     inkscape:snap-bbox="true"
     inkscape:snap-center="false"
     inkscape:snap-object-midpoints="false"
     inkscape:object-nodes="true"
     inkscape:snap-smooth-nodes="true"
     inkscape:object-paths="true"
     inkscape:snap-bbox-midpoints="false"
     inkscape:snap-bbox-edge-midpoints="true"
     inkscape:bbox-nodes="true"
     inkscape:bbox-paths="false"
     inkscape:snap-page="true"><inkscape:grid
       type="axonomgrid"
       id="grid-axo"
       units="px"
       empspacing="4"
       originx="3"
       spacingy="10"
       color="#0af9ff"
       opacity="0.12"
       empcolor="#5a006a"
       empopacity="0.2"
       originy="31"
       snapvisiblegridlinesonly="false"
       enabled="false" /><inkscape:grid
       type="axonomgrid"
       id="grid-grid"
       units="px"
       empspacing="0"
       visible="true"
       snapvisiblegridlinesonly="false"
       spacingy="20"
       empcolor="#0073d4"
       empopacity="0.25098039"
       color="#00c803"
       opacity="0.25098039"
       originx="3"
       originy="31" /><sodipodi:guide
       position="392,295"
       orientation="1,0"
       id="guide5027" /></sodipodi:namedview><g
     inkscape:groupmode="layer"
     id="layer4"
     inkscape:label="background"
     transform="translate(0,-205)"
     style="display:inline"
     sodipodi:insensitive="true"><rect
       y="205"
       x="0"
       height="295"
       width="784"
       id="rect5057"
       style="display:inline;fill:#ffffff;fill-rule:evenodd;stroke:none;stroke-width:0.92912364px;stroke-linecap:butt;stroke-linejoin:miter;stroke-opacity:1" /></g><g
     inkscape:groupmode="layer"
     id="layer3"
     inkscape:label="background-debug"
     style="display:none"
     transform="translate(0,-205)"
     sodipodi:insensitive="true"><rect
       style="fill:#999999;fill-rule:evenodd;stroke:none;stroke-width:0.92912364px;stroke-linecap:butt;stroke-linejoin:miter;stroke-opacity:1"
       id="rect5698"
       width="784"
       height="295"
       x="0"
       y="205" /></g><g
     inkscape:groupmode="layer"
     id="layer1"
     inkscape:label="grid"
     style="display:inline"
     transform="translate(0,11)"><rect
       transform="matrix(0.3920974,0,0,0.3920974,1274.0185,1166.7079)"
       style="display:inline;fill:url(#pattern5462);fill-opacity:1;fill-rule:evenodd;stroke:none;stroke-width:1px;stroke-linecap:butt;stroke-linejoin:miter;stroke-opacity:1"
       id="rect4713"
       width="2790.2131"
       height="960.13251"
       x="-3645.8704"
       y="-2978.7522"
       mask="url(#mask5495-6-4-3)"
       ry="0" /></g><g
     inkscape:groupmode="layer"
     id="layer2"
     inkscape:label="logo"
     transform="translate(0,11)"
     style="display:inline"><g
       id="g4999"
       transform="matrix(0.94171689,0,0,0.94171689,-28.990331,363.86498)"
       style="stroke:#000000;stroke-width:0.9824394;stroke-miterlimit:4;stroke-dasharray:none;stroke-opacity:1"><g
         style="display:inline;fill:#ffffff;stroke:#000000;stroke-width:0.9824394;stroke-miterlimit:4;stroke-dasharray:none;stroke-opacity:1"
         class="border side"
         id="border-side"
         transform="translate(140.40559,-381.04175)"><path
           style="stroke:#000000;stroke-width:0.9824394;stroke-linecap:butt;stroke-linejoin:round;stroke-miterlimit:4;stroke-dasharray:none;stroke-opacity:1"
           d="m 3,93 0,40 86.603,50 0,-40 z m 86.603,-50 0,40 34.64,20 0,-40 z m 69.282,60 34.64,20 0,-40 -34.64,-20 0,40 m 51.961,150 -51.96,-30 0,-40 51.96,30 z m 34.641,-120 51.962,30 0,40 -51.964,-30 z m 121.243,-90 17.32,10 0,40 -17.32,-10 z m 17.32,170 51.963,30 0,40 -51.962,-30 z m 17.322,-50 -86.603,-50 0,-40 86.6,50 0,40 m 51.964,-10 34.64,20 0,40 -34.64,-20 z m 51.962,30 34.64,20 0,40 -34.64,-20 z m -381.051,-80 34.64,0 0,-40 -34.64,0 0,40 m 86.602,110 34.64,0 0,40 -34.64,0 z m 86.604,-50 34.64,0 0,40 -34.64,0 z"
           class="left"
           id="border-side-left"
           inkscape:connector-curvature="0" /><path
           style="stroke:#000000;stroke-width:0.9824394;stroke-linecap:butt;stroke-linejoin:round;stroke-miterlimit:4;stroke-dasharray:none;stroke-opacity:1"
           d="m 314.77,113 0,40 -34.642,0 0,-40 z m 121.243,-10 -34.64,0 0,40 34.64,0 z m 0,140 34.64,0 0,40 -34.64,0 z m -346.41,-60 34.64,-20 0,-40 -34.64,20 z"
           class="front"
           id="border-side-front"
           inkscape:connector-curvature="0" /><path
           style="stroke:#000000;stroke-width:0.9824394;stroke-linecap:butt;stroke-linejoin:round;stroke-miterlimit:4;stroke-dasharray:none;stroke-opacity:1"
           d="m 106.923,93 0,40 -17.32,10 0,-40 z m 86.603,-10 34.64,-20 0,40 -34.64,20 0,-40 m 51.961,70 0,40 -34.64,20 0,-40 z m 34.641,40 0,40 -34.64,20 0,-40 z m 51.962,-70 -17.32,-10 0,40 17.32,10 0,-40 m 34.64,20 0,40 -34.64,20 0,-40 34.64,-20 m 51.962,-30 0,40 -17.32,10 0,-40 z m 51.962,-30 0,40 -34.64,20 0,-40 z m 0,100 -34.64,20 0,40 34.64,-20 z m 0,60 34.64,-20 0,40 -34.64,20 z m 34.641,-40 0,-40 -17.32,10 0,40 z m 103.923,-40 0,40 -69.282,40 0,-40 69.282,-40"
           class="right"
           id="border-side-right"
           inkscape:connector-curvature="0" /></g><g
         id="g4148"
         transform="translate(140.40559,-381.04175)"
         style="display:inline;stroke:#000000;stroke-width:0.9824394;stroke-miterlimit:4;stroke-dasharray:none;stroke-opacity:1"><path
           d="m 3,93 51.962,-30 34.64,0 17.32,10 0,20 -17.32,10 34.642,20 -34.64,20 z m 86.603,-50 34.64,20 34.642,0 34.64,20 34.642,-20 -34.64,-20 0,-20 -34.643,-20 -17.32,10 0,20 -34.642,0 z m 155.884,110 -17.32,-10 -34.64,0 -34.642,20 0,20 51.96,30 34.642,0 34.64,-20 0,-20 -17.32,-10 -34.64,20 -17.32,-10 z m 34.643,-60 -34.644,20 0,20 51.963,30 34.64,0 34.64,-20 0,-20 -51.96,-30 -34.64,0 z m 0,20 34.64,0 17.32,10 0,20 -34.64,0 -17.32,-10 0,-20 z m 155.883,-10 34.64,-20 -86.602,-50 -17.32,10 17.32,10 -34.64,0 -34.64,20 86.603,50 17.32,-10 -17.32,-10 z m -51.963,90 0,20 51.963,30 34.64,0 34.642,-20 0,-20 -17.32,-10 -34.642,20 -17.32,-10 34.64,-20 -17.32,-10 -34.64,0 -34.642,20 m 138.564,-80 34.64,20 0,20 17.322,-10 34.64,20 -69.28,40 -34.642,-20 0,-20 -17.32,10 -34.642,-20 z"
           class="top"
           id="path4146"
           style="fill:#ffffff;stroke:#000000;stroke-width:0.9824394;stroke-linecap:butt;stroke-linejoin:round;stroke-miterlimit:4;stroke-dasharray:none;stroke-opacity:1"
           inkscape:connector-curvature="0" /><path
           style="stroke:#000000;stroke-width:0.9824394;stroke-linecap:butt;stroke-linejoin:round;stroke-miterlimit:4;stroke-dasharray:none;stroke-opacity:1"
           id="grid"
           class="grid"
           d="m 20.32,83 86.6,50 M 37.64,73 89.6,103 M 54.96,63 106.92,93 M 20.32,103 89.6,63 M 37.64,113 106.92,73 M 54.96,123 89.6,103 m -17.32,30 34.64,-20 m 0,-60 69.3,-40 m -51.98,50 69.3,-40 M 158.88,63 193.53,43 M 176.2,73 210.85,53 m 0,20 -69.3,-40 m 0.01,-20 51.97,30 m -86.61,-10 51.96,30 m 0,120 69.3,-40 m -51.98,50 34.65,-20 m -17.32,30 34.64,-20 m -17.32,30 69.28,-40 m -103.93,-20 34.65,20 m 17.32,10 34.64,20 m -103.93,-40 86.6,50 m -51.95,-70 34.64,20 m 17.33,10 34.63,20 M 245.5,133 314.77,93 m -51.97,50 17.33,-10 m 51.97,-30 -17.33,10 m 34.63,0 -17.3,10 m -34.65,20 -17.32,10 m 17.32,10 69.28,-40 m -86.6,-30 34.64,20 m 17.33,10 34.63,20 m -34.63,0 17.3,10 m -86.6,-50 17.33,10 m -34.63,0 34.63,20 m 17.32,10 34.64,20 M 332.1,83 401.37,43 M 418.7,53 349.4,93 M 366.73,103 436,63 m 17.33,10 -69.28,40 M 332.1,63 401.37,103 M 349.4,53 436,103 m -51.95,-50 69.28,40 m -69.28,120 69.28,-40 M 401.37,223 436,203 m -17.3,30 34.63,-20 M 436,243 505.3,203 M 401.37,183 436,203 m 17.33,10 34.64,20 m -103.92,-40 86.6,50 m -51.95,-70 34.63,20 m 17.32,10 34.64,20 m 0.01,-60 51.96,-30 m 0,20 -51.97,30 m 17.33,10 69.28,-40 m -121.25,10 69.3,-40 m -34.65,0 86.6,50 m -103.93,-40 86.6,50 m -103.92,-40 86.6,50"
           inkscape:connector-curvature="0" /></g><path
         style="display:inline;fill:#82e1e0;stroke:#000000;stroke-width:0.9824394;stroke-linecap:butt;stroke-linejoin:round;stroke-miterlimit:4;stroke-dasharray:none;stroke-opacity:1"
         d="m 143.40559,-288.04175 51.962,-30 34.64,0 17.32,10 0,20 -17.32,10 34.642,20 -34.64,20 z m 86.603,-50 34.64,20 34.642,0 34.64,20 34.642,-20 -34.64,-20 0,-20 -34.643,-20 -17.32,10 0,20 -34.642,0 z m 155.884,110 -17.32,-10 -34.64,0 -34.642,20 0,20 51.96,30 34.642,0 34.64,-20 0,-20 -17.32,-10 -34.64,20 -17.32,-10 z m 34.643,-60 -34.644,20 0,20 51.963,30 34.64,0 34.64,-20 0,-20 -51.96,-30 -34.64,0 z m 0,20 34.64,0 17.32,10 0,20 -34.64,0 -17.32,-10 0,-20 z m 155.883,-10 34.64,-20 -86.602,-50 -17.32,10 17.32,10 -34.64,0 -34.64,20 86.603,50 17.32,-10 -17.32,-10 z m -51.963,90 0,20 51.963,30 34.64,0 34.642,-20 0,-20 -17.32,-10 -34.642,20 -17.32,-10 34.64,-20 -17.32,-10 -34.64,0 -34.642,20 m 138.564,-80 34.64,20 0,20 17.32204,-10 34.64,20 -69.28004,40 -34.642,-20 0,-20 -17.32,10 -34.642,-20 z"
         class="top"
         id="top"
         inkscape:connector-curvature="0" /><path
         style="display:inline;fill:none;stroke:#000000;stroke-width:0.9824394;stroke-linecap:butt;stroke-linejoin:round;stroke-miterlimit:4;stroke-dasharray:none;stroke-opacity:1"
         d="m 143.40559,-288.04175 51.962,-30 34.64,0 17.32,10 0,20 -17.32,10 34.642,20 -34.64,20 z m 86.603,-50 34.64,20 34.642,0 34.64,20 34.642,-20 -34.64,-20 0,-20 -34.643,-20 -17.32,10 0,20 -34.642,0 z m 155.884,110 -17.32,-10 -34.64,0 -34.642,20 0,20 51.96,30 34.642,0 34.64,-20 0,-20 -17.32,-10 -34.64,20 -17.32,-10 z m 34.643,-60 -34.644,20 0,20 51.963,30 34.64,0 34.64,-20 0,-20 -51.96,-30 -34.64,0 z m 0,20 34.64,0 17.32,10 0,20 -34.64,0 -17.32,-10 0,-20 z m 155.883,-10 34.64,-20 -86.602,-50 -17.32,10 17.32,10 -34.64,0 -34.64,20 86.603,50 17.32,-10 -17.32,-10 z m -51.963,90 0,20 51.963,30 34.64,0 34.642,-20 0,-20 -17.32,-10 -34.642,20 -17.32,-10 34.64,-20 -17.32,-10 -34.64,0 -34.642,20 m 138.564,-80 34.64,20 0,20 17.32204,-10 34.64,20 -69.28004,40 -34.642,-20 0,-20 -17.32,10 -34.642,-20 z"
         class="border frame"
         id="frame"
         inkscape:connector-curvature="0" /></g></g></svg>