<?xml version="1.0" encoding="UTF-8" standalone="no"?>
<svg
   xmlns:dc="http://purl.org/dc/elements/1.1/"
   xmlns:cc="http://creativecommons.org/ns#"
   xmlns:rdf="http://www.w3.org/1999/02/22-rdf-syntax-ns#"
   xmlns:svg="http://www.w3.org/2000/svg"
   xmlns="http://www.w3.org/2000/svg"
   version="1.1"
   id="svg5377"
   viewBox="0 0 180 180"
   height="180"
   width="180">
  <defs
     id="defs5379" />
  <metadata
     id="metadata5382">
    <rdf:RDF>
      <cc:Work
         rdf:about="">
        <dc:format>image/svg+xml</dc:format>
        <dc:type
           rdf:resource="http://purl.org/dc/dcmitype/StillImage" />
        <dc:title></dc:title>
      </cc:Work>
    </rdf:RDF>
  </metadata>
  <g
     transform="translate(0,-872.36216)"
     id="layer1">
    <path
       id="path4146"
       style="fill:#232f36;fill-opacity:1;fill-rule:nonzero;stroke:none"
       d="m 180,1052.3622 -180,0 0,-180.00004 180,0 0,180.00004 z" />
    <g
       transform="matrix(1.4603567,0,0,1.4603567,-24.296708,586.32619)"
       id="g5370">
      <path
         id="path4158"
         style="fill:#ffffff;fill-opacity:1;fill-rule:nonzero;stroke:none"
         d="m 91.435674,245.74973 c 0,-6.5487 -1.4725,-11.7925 -4.41375,-15.73 -2.9425,-3.94 -7.30875,-5.9112 -13.09875,-5.9112 -1.89875,0 -3.655,0.071 -5.2675,0.2125 -1.61375,0.1425 -2.94375,0.3112 -3.98625,0.4987 l 0,38.3013 c 1.3275,0.8525 3.0625,1.5662 5.1975,2.1337 2.135,0.5675 4.2925,0.8538 6.4775,0.8538 10.05875,0 15.09125,-6.785 15.09125,-20.3588 m 21.641246,-0.5712 c 0,5.7925 -0.71125,11.06 -2.13625,15.8037 -1.4225,4.7488 -3.51125,8.8288 -6.26375,12.245 -2.75375,3.4175 -6.171246,6.0763 -10.249996,7.975 -4.08375,1.8963 -8.78125,2.85 -14.09625,2.85 -2.94375,0 -5.695,-0.2912 -8.25875,-0.8587 -2.5625,-0.5663 -5.03,-1.3738 -7.4025,-2.4175 l 0,28.1887 -21.21375,0 0,-98.6662 c 1.89625,-0.5675 4.07875,-1.1138 6.54875,-1.6375 2.46875,-0.52 5.05375,-0.9738 7.75875,-1.3538 2.7075,-0.3775 5.4575,-0.6875 8.2575,-0.925 2.8,-0.2362 5.4825,-0.355 8.045,-0.355 6.16875,0 11.675,0.925 16.515,2.7738 4.84125,1.855 8.9225,4.465 12.244996,7.8337 3.32125,3.3675 5.86125,7.4738 7.6175,12.3138 1.755,4.8412 2.63375,10.2525 2.63375,16.23" />
    </g>
  </g>
</svg>
