<?xml version="1.0" encoding="UTF-8" standalone="no"?>
<svg
   xmlns:dc="http://purl.org/dc/elements/1.1/"
   xmlns:cc="http://creativecommons.org/ns#"
   xmlns:rdf="http://www.w3.org/1999/02/22-rdf-syntax-ns#"
   xmlns:svg="http://www.w3.org/2000/svg"
   xmlns="http://www.w3.org/2000/svg"
   version="1.1"
   id="svg4400"
   viewBox="0 0 500.00001 500.00001"
   height="141.11111mm"
   width="141.11111mm">
  <defs
     id="defs4402" />
  <metadata
     id="metadata4405">
    <rdf:RDF>
      <cc:Work
         rdf:about="">
        <dc:format>image/svg+xml</dc:format>
        <dc:type
           rdf:resource="http://purl.org/dc/dcmitype/StillImage" />
        <dc:title></dc:title>
      </cc:Work>
    </rdf:RDF>
  </metadata>
  <g
     transform="translate(-122.04725,-276.1811)"
     id="layer1">
    <path
       id="path4146"
       style="fill:#ffffff;fill-opacity:1;fill-rule:nonzero;stroke:none"
       d="m 622.04725,776.18111 -499.99999,0 0,-500 499.99999,0 0,500 z" />
    <path
       d="m 236.66844,514.57811 c 0,-6.5487 -1.4725,-11.7925 -4.41375,-15.73 -2.9425,-3.94 -7.30875,-5.9112 -13.09875,-5.9112 -1.89875,0 -3.655,0.071 -5.2675,0.2125 -1.61375,0.1425 -2.94375,0.3112 -3.98625,0.4987 l 0,38.3013 c 1.3275,0.8525 3.0625,1.5662 5.1975,2.1337 2.135,0.5675 4.2925,0.8538 6.4775,0.8538 10.05875,0 15.09125,-6.785 15.09125,-20.3588 m 21.64125,-0.5712 c 0,5.7925 -0.71125,11.06 -2.13625,15.8037 -1.4225,4.7488 -3.51125,8.8288 -6.26375,12.245 -2.75375,3.4175 -6.17125,6.0763 -10.25,7.975 -4.08375,1.8963 -8.78125,2.85 -14.09625,2.85 -2.94375,0 -5.695,-0.2912 -8.25875,-0.8587 -2.5625,-0.5663 -5.03,-1.3738 -7.4025,-2.4175 l 0,28.1887 -21.21375,0 0,-98.6662 c 1.89625,-0.5675 4.07875,-1.1138 6.54875,-1.6375 2.46875,-0.52 5.05375,-0.9738 7.75875,-1.3538 2.7075,-0.3775 5.4575,-0.6875 8.2575,-0.925 2.8,-0.2362 5.4825,-0.355 8.045,-0.355 6.16875,0 11.675,0.925 16.515,2.7738 4.84125,1.855 8.9225,4.465 12.245,7.8337 3.32125,3.3675 5.86125,7.4738 7.6175,12.3138 1.755,4.8412 2.63375,10.2525 2.63375,16.23"
       style="fill:#232f36;fill-opacity:1;fill-rule:nonzero;stroke:none"
       id="path4158" />
    <path
       d="m 331.08619,476.56431 c -4.2825,14.4287 -8.75375,27.9525 -13.41625,40.5762 -4.66375,12.625 -9.75625,24.87 -15.275,36.7325 -1.99625,4.2725 -3.9925,7.905 -5.9875,10.89 -1.99875,2.9913 -4.18625,5.46 -6.56,7.4063 -2.3775,1.945 -5.06125,3.37 -8.05625,4.2737 -2.995,0.895 -6.48625,1.35 -10.4775,1.35 -3.32875,0 -6.39625,-0.3062 -9.2,-0.9262 -2.8025,-0.6175 -5.1075,-1.305 -6.9125,-2.065 l 3.7,-16.94 c 2.185,0.755 4.1325,1.2812 5.84,1.5662 1.70875,0.285 3.515,0.4263 5.415,0.4263 3.79625,0 6.715,-1.0225 8.75875,-3.0588 2.04125,-2.0437 3.77625,-4.8687 5.20125,-8.4737 -4.845,-9.4913 -9.68875,-20.145 -14.5325,-31.9638 -4.8425,-11.8187 -9.40125,-25.08 -13.67125,-39.7937 l 22.49375,0 c 0.95375,3.7025 2.075,7.7125 3.36125,12.0312 1.2875,4.32 2.6475,8.685 4.0775,13.0988 1.42875,4.4112 2.8825,8.7075 4.35875,12.8837 1.4775,4.1775 2.88625,7.9725 4.22125,11.3888 1.2375,-3.4163 2.52375,-7.2113 3.85875,-11.3888 1.335,-4.1762 2.64625,-8.4725 3.93125,-12.8837 1.28625,-4.4138 2.52625,-8.7788 3.7175,-13.0988 1.19125,-4.3187 2.2625,-8.3287 3.21625,-12.0312 l 21.9375,0 z"
       style="fill:#232f36;fill-opacity:1;fill-rule:nonzero;stroke:none"
       id="path4162" />
    <path
       d="m 363.58744,551.45561 c -4.85875,-9.4925 -9.79125,-20.5987 -14.79125,-33.3175 -5.00125,-12.72 -9.7425,-26.5775 -14.2175,-41.5737 l 22.495,0 c 0.95125,3.7025 2.07375,7.7125 3.36125,12.0312 1.28625,4.32 2.62,8.685 4.005,13.0975 1.38125,4.4125 2.7625,8.7088 4.1475,12.885 1.3825,4.1775 2.74125,7.9725 4.07625,11.3888 1.23625,-3.4163 2.57125,-7.2113 3.99875,-11.3888 1.43,-4.1762 2.83625,-8.4725 4.21625,-12.885 1.38125,-4.4125 2.71625,-8.7775 4.0025,-13.0975 1.285,-4.3187 2.4075,-8.3287 3.36,-12.0312 l 21.9375,0 c -4.475,14.9962 -9.2125,28.8537 -14.2075,41.5737 -4.99625,12.7188 -9.92375,23.825 -14.77875,33.3175 l -17.605,0 z"
       style="fill:#232f36;fill-opacity:1;fill-rule:nonzero;stroke:none"
       id="path4166" />
    <path
       d="m 463.65082,506.46161 c -0.0962,-1.7987 -0.40875,-3.5575 -0.93,-5.265 -0.52375,-1.7087 -1.32875,-3.23 -2.41875,-4.5575 -1.0925,-1.3275 -2.47,-2.4237 -4.1275,-3.275 -1.66375,-0.8562 -3.7275,-1.2825 -6.19625,-1.2825 -2.3725,0 -4.4125,0.4063 -6.12,1.21 -1.70875,0.8075 -3.13375,1.8775 -4.27125,3.205 -1.14,1.3288 -2.01875,2.8713 -2.635,4.6263 -0.61875,1.76 -1.0675,3.54 -1.35125,5.3387 l 28.05,0 z m -49.83375,8.1163 c 0,-6.6425 1.01875,-12.4575 3.06,-17.4388 2.04,-4.9862 4.72125,-9.1375 8.045,-12.46 3.32,-3.3225 7.14125,-5.8362 11.46125,-7.545 4.3175,-1.7087 8.755,-2.565 13.3125,-2.565 10.62875,0 19.02875,3.2513 25.1975,9.755 6.1675,6.5 9.25375,16.0663 9.25375,28.6875 0,1.235 -0.045,2.5888 -0.14125,4.0575 -0.0962,1.4725 -0.19375,2.775 -0.28375,3.9163 l -48.12125,0 c 0.47375,4.3662 2.51375,7.8312 6.1225,10.3925 3.60625,2.5637 8.44625,3.8475 14.52125,3.8475 3.8925,0 7.7125,-0.3588 11.46375,-1.0713 3.745,-0.7125 6.805,-1.5862 9.1825,-2.6337 l 2.8425,17.2275 c -1.135,0.5725 -2.655,1.1412 -4.55,1.7062 -1.90125,0.575 -4.0125,1.0688 -6.34,1.5 -2.3275,0.425 -4.8175,0.7838 -7.47375,1.0675 -2.6575,0.2825 -5.31625,0.425 -7.9725,0.425 -6.74,0 -12.6,-0.9987 -17.58375,-2.9925 -4.9825,-1.9887 -9.11125,-4.7187 -12.385,-8.185 -3.275,-3.465 -5.69625,-7.5675 -7.2625,-12.315 -1.56625,-4.7462 -2.34875,-9.8725 -2.34875,-15.3762"
       style="fill:#232f36;fill-opacity:1;fill-rule:nonzero;stroke:none"
       id="path4170" />
    <path
       d="m 494.89482,514.00691 c 0,-5.41 0.8775,-10.51 2.6325,-15.3013 1.7575,-4.7962 4.295,-8.9725 7.62,-12.5325 3.32,-3.5562 7.35125,-6.3825 12.10125,-8.4712 4.74375,-2.0863 10.155,-3.1325 16.23125,-3.1325 3.98625,0 7.63875,0.3562 10.96125,1.07 3.3225,0.7112 6.5475,1.7325 9.68125,3.0612 l -4.4125,16.94 c -1.995,-0.7587 -4.18,-1.425 -6.5475,-1.9925 -2.37625,-0.5675 -5.035,-0.8537 -7.97375,-0.8537 -6.26625,0 -10.9425,1.9462 -14.02625,5.8375 -3.08625,3.8912 -4.62625,9.0175 -4.62625,15.375 0,6.7412 1.445,11.96 4.3425,15.6612 2.89375,3.7025 7.9475,5.5575 15.1625,5.5575 2.5625,0 5.315,-0.24 8.2575,-0.7175 2.94,-0.4712 5.6475,-1.2312 8.115,-2.275 l 2.9925,17.3725 c -2.4725,1.0425 -5.55375,1.94 -9.2575,2.7 -3.7,0.7613 -7.7825,1.1413 -12.24375,1.1413 -6.83125,0 -12.72,-1.0225 -17.655,-3.06 -4.935,-2.0413 -8.99125,-4.8163 -12.1725,-8.3313 -3.18125,-3.5112 -5.505,-7.6625 -6.975,-12.4537 -1.4725,-4.7963 -2.2075,-9.9913 -2.2075,-15.595"
       style="fill:#232f36;fill-opacity:1;fill-rule:nonzero;stroke:none"
       id="path4174" />
  </g>
</svg>
